<?xml version="1.0" encoding="utf-8" standalone="no"?>
<!DOCTYPE svg PUBLIC "-//W3C//DTD SVG 1.1//EN"
  "http://www.w3.org/Graphics/SVG/1.1/DTD/svg11.dtd">
<svg xmlns:xlink="http://www.w3.org/1999/xlink" width="146.88pt" height="136.8pt" viewBox="0 0 146.88 136.8" xmlns="http://www.w3.org/2000/svg" version="1.1">
 <metadata>
  <rdf:RDF xmlns:dc="http://purl.org/dc/elements/1.1/" xmlns:cc="http://creativecommons.org/ns#" xmlns:rdf="http://www.w3.org/1999/02/22-rdf-syntax-ns#">
   <cc:Work>
    <dc:type rdf:resource="http://purl.org/dc/dcmitype/StillImage"/>
    <dc:date>2025-11-11T13:11:19.155957</dc:date>
    <dc:format>image/svg+xml</dc:format>
    <dc:creator>
     <cc:Agent>
      <dc:title>Matplotlib v3.7.5, https://matplotlib.org/</dc:title>
     </cc:Agent>
    </dc:creator>
   </cc:Work>
  </rdf:RDF>
 </metadata>
 <defs>
  <style type="text/css">*{stroke-linejoin: round; stroke-linecap: butt}</style>
 </defs>
 <g id="figure_1">
  <g id="patch_1">
   <path d="M 0 136.8 
L 146.88 136.8 
L 146.88 0 
L 0 0 
z
" style="fill: #ffffff"/>
  </g>
  <g id="axes_1">
   <g id="patch_2">
    <path d="M 36.72 116.28 
L 139.536 116.28 
L 139.536 17.784 
L 36.72 17.784 
z
" style="fill: #ffffff"/>
   </g>
   <g id="matplotlib.axis_1">
    <g id="xtick_1">
     <g id="line2d_1">
      <defs>
       <path id="m187dccfc29" d="M 0 0 
L 0 -3.5 
" style="stroke: #000000; stroke-width: 0.8"/>
      </defs>
      <g>
       <use xlink:href="#m187dccfc29" x="58.918909" y="116.28" style="stroke: #000000; stroke-width: 0.8"/>
      </g>
     </g>
     <g id="text_1">
      <!-- no pulse -->
      <g transform="translate(36.236097 128.388125) scale(0.12 -0.12)">
       <defs>
        <path id="Helvetica-6e" d="M 413 3347 
L 947 3347 
L 947 2872 
Q 1184 3166 1450 3294 
Q 1716 3422 2041 3422 
Q 2753 3422 3003 2925 
Q 3141 2653 3141 2147 
L 3141 0 
L 2569 0 
L 2569 2109 
Q 2569 2416 2478 2603 
Q 2328 2916 1934 2916 
Q 1734 2916 1606 2875 
Q 1375 2806 1200 2600 
Q 1059 2434 1017 2257 
Q 975 2081 975 1753 
L 975 0 
L 413 0 
L 413 3347 
z
M 1734 3428 
L 1734 3428 
z
" transform="scale(0.015625)"/>
        <path id="Helvetica-6f" d="M 1741 363 
Q 2300 363 2508 786 
Q 2716 1209 2716 1728 
Q 2716 2197 2566 2491 
Q 2328 2953 1747 2953 
Q 1231 2953 997 2559 
Q 763 2166 763 1609 
Q 763 1075 997 719 
Q 1231 363 1741 363 
z
M 1763 3444 
Q 2409 3444 2856 3012 
Q 3303 2581 3303 1744 
Q 3303 934 2909 406 
Q 2516 -122 1688 -122 
Q 997 -122 590 345 
Q 184 813 184 1600 
Q 184 2444 612 2944 
Q 1041 3444 1763 3444 
z
M 1744 3428 
L 1744 3428 
z
" transform="scale(0.015625)"/>
        <path id="Helvetica-20" transform="scale(0.015625)"/>
        <path id="Helvetica-70" d="M 1825 378 
Q 2219 378 2480 708 
Q 2741 1038 2741 1694 
Q 2741 2094 2625 2381 
Q 2406 2934 1825 2934 
Q 1241 2934 1025 2350 
Q 909 2038 909 1556 
Q 909 1169 1025 897 
Q 1244 378 1825 378 
z
M 369 3331 
L 916 3331 
L 916 2888 
Q 1084 3116 1284 3241 
Q 1569 3428 1953 3428 
Q 2522 3428 2919 2992 
Q 3316 2556 3316 1747 
Q 3316 653 2744 184 
Q 2381 -113 1900 -113 
Q 1522 -113 1266 53 
Q 1116 147 931 375 
L 931 -1334 
L 369 -1334 
L 369 3331 
z
" transform="scale(0.015625)"/>
        <path id="Helvetica-75" d="M 975 3347 
L 975 1125 
Q 975 869 1056 706 
Q 1206 406 1616 406 
Q 2203 406 2416 931 
Q 2531 1213 2531 1703 
L 2531 3347 
L 3094 3347 
L 3094 0 
L 2563 0 
L 2569 494 
Q 2459 303 2297 172 
Q 1975 -91 1516 -91 
Q 800 -91 541 388 
Q 400 644 400 1072 
L 400 3347 
L 975 3347 
z
M 1747 3428 
L 1747 3428 
z
" transform="scale(0.015625)"/>
        <path id="Helvetica-6c" d="M 428 4591 
L 991 4591 
L 991 0 
L 428 0 
L 428 4591 
z
" transform="scale(0.015625)"/>
        <path id="Helvetica-73" d="M 747 1050 
Q 772 769 888 619 
Q 1100 347 1625 347 
Q 1938 347 2175 483 
Q 2413 619 2413 903 
Q 2413 1119 2222 1231 
Q 2100 1300 1741 1391 
L 1294 1503 
Q 866 1609 663 1741 
Q 300 1969 300 2372 
Q 300 2847 642 3140 
Q 984 3434 1563 3434 
Q 2319 3434 2653 2991 
Q 2863 2709 2856 2384 
L 2325 2384 
Q 2309 2575 2191 2731 
Q 1997 2953 1519 2953 
Q 1200 2953 1036 2831 
Q 872 2709 872 2509 
Q 872 2291 1088 2159 
Q 1213 2081 1456 2022 
L 1828 1931 
Q 2434 1784 2641 1647 
Q 2969 1431 2969 969 
Q 2969 522 2630 197 
Q 2291 -128 1597 -128 
Q 850 -128 539 211 
Q 228 550 206 1050 
L 747 1050 
z
M 1578 3428 
L 1578 3428 
z
" transform="scale(0.015625)"/>
        <path id="Helvetica-65" d="M 1806 3422 
Q 2163 3422 2497 3255 
Q 2831 3088 3006 2822 
Q 3175 2569 3231 2231 
Q 3281 2000 3281 1494 
L 828 1494 
Q 844 984 1069 676 
Q 1294 369 1766 369 
Q 2206 369 2469 659 
Q 2619 828 2681 1050 
L 3234 1050 
Q 3213 866 3089 639 
Q 2966 413 2813 269 
Q 2556 19 2178 -69 
Q 1975 -119 1719 -119 
Q 1094 -119 659 336 
Q 225 791 225 1609 
Q 225 2416 662 2919 
Q 1100 3422 1806 3422 
z
M 2703 1941 
Q 2669 2306 2544 2525 
Q 2313 2931 1772 2931 
Q 1384 2931 1121 2651 
Q 859 2372 844 1941 
L 2703 1941 
z
M 1753 3428 
L 1753 3428 
z
" transform="scale(0.015625)"/>
       </defs>
       <use xlink:href="#Helvetica-6e"/>
       <use xlink:href="#Helvetica-6f" x="55.615234"/>
       <use xlink:href="#Helvetica-20" x="111.230469"/>
       <use xlink:href="#Helvetica-70" x="139.013672"/>
       <use xlink:href="#Helvetica-75" x="194.628906"/>
       <use xlink:href="#Helvetica-6c" x="250.244141"/>
       <use xlink:href="#Helvetica-73" x="272.460938"/>
       <use xlink:href="#Helvetica-65" x="322.460938"/>
      </g>
     </g>
    </g>
    <g id="xtick_2">
     <g id="line2d_2">
      <g>
       <use xlink:href="#m187dccfc29" x="117.337091" y="116.28" style="stroke: #000000; stroke-width: 0.8"/>
      </g>
     </g>
     <g id="text_2">
      <!-- +Strp -->
      <g transform="translate(102.829278 128.6225) scale(0.12 -0.12)">
       <defs>
        <path id="Helvetica-2b" d="M 288 1369 
L 288 1894 
L 1650 1894 
L 1650 3266 
L 2184 3266 
L 2184 1894 
L 3547 1894 
L 3547 1369 
L 2184 1369 
L 2184 0 
L 1650 0 
L 1650 1369 
L 288 1369 
z
" transform="scale(0.015625)"/>
        <path id="Helvetica-53" d="M 894 1481 
Q 916 1091 1078 847 
Q 1388 391 2169 391 
Q 2519 391 2806 491 
Q 3363 684 3363 1184 
Q 3363 1559 3128 1719 
Q 2891 1875 2384 1991 
L 1763 2131 
Q 1153 2269 900 2434 
Q 463 2722 463 3294 
Q 463 3913 891 4309 
Q 1319 4706 2103 4706 
Q 2825 4706 3329 4357 
Q 3834 4009 3834 3244 
L 3250 3244 
Q 3203 3613 3050 3809 
Q 2766 4169 2084 4169 
Q 1534 4169 1293 3937 
Q 1053 3706 1053 3400 
Q 1053 3063 1334 2906 
Q 1519 2806 2169 2656 
L 2813 2509 
Q 3278 2403 3531 2219 
Q 3969 1897 3969 1284 
Q 3969 522 3414 194 
Q 2859 -134 2125 -134 
Q 1269 -134 784 303 
Q 300 738 309 1481 
L 894 1481 
z
M 2150 4716 
L 2150 4716 
z
" transform="scale(0.015625)"/>
        <path id="Helvetica-74" d="M 525 4281 
L 1094 4281 
L 1094 3347 
L 1628 3347 
L 1628 2888 
L 1094 2888 
L 1094 703 
Q 1094 528 1213 469 
Q 1278 434 1431 434 
Q 1472 434 1519 436 
Q 1566 438 1628 444 
L 1628 0 
Q 1531 -28 1426 -40 
Q 1322 -53 1200 -53 
Q 806 -53 665 148 
Q 525 350 525 672 
L 525 2888 
L 72 2888 
L 72 3347 
L 525 3347 
L 525 4281 
z
" transform="scale(0.015625)"/>
        <path id="Helvetica-72" d="M 428 3347 
L 963 3347 
L 963 2769 
Q 1028 2938 1284 3180 
Q 1541 3422 1875 3422 
Q 1891 3422 1928 3419 
Q 1966 3416 2056 3406 
L 2056 2813 
Q 2006 2822 1964 2825 
Q 1922 2828 1872 2828 
Q 1447 2828 1219 2554 
Q 991 2281 991 1925 
L 991 0 
L 428 0 
L 428 3347 
z
" transform="scale(0.015625)"/>
       </defs>
       <use xlink:href="#Helvetica-2b"/>
       <use xlink:href="#Helvetica-53" x="58.398438"/>
       <use xlink:href="#Helvetica-74" x="125.097656"/>
       <use xlink:href="#Helvetica-72" x="152.880859"/>
       <use xlink:href="#Helvetica-70" x="186.181641"/>
      </g>
     </g>
    </g>
   </g>
   <g id="matplotlib.axis_2">
    <g id="ytick_1">
     <g id="line2d_3">
      <defs>
       <path id="m94bef41e70" d="M 0 0 
L 3.5 0 
" style="stroke: #000000; stroke-width: 0.8"/>
      </defs>
      <g>
       <use xlink:href="#m94bef41e70" x="36.72" y="116.28" style="stroke: #000000; stroke-width: 0.8"/>
      </g>
     </g>
     <g id="text_3">
      <!-- 0 -->
      <g transform="translate(26.546875 120.584062) scale(0.12 -0.12)">
       <defs>
        <path id="Helvetica-30" d="M 1731 4475 
Q 2600 4475 2988 3759 
Q 3288 3206 3288 2244 
Q 3288 1331 3016 734 
Q 2622 -122 1728 -122 
Q 922 -122 528 578 
Q 200 1163 200 2147 
Q 200 2909 397 3456 
Q 766 4475 1731 4475 
z
M 1725 391 
Q 2163 391 2422 778 
Q 2681 1166 2681 2222 
Q 2681 2984 2493 3476 
Q 2306 3969 1766 3969 
Q 1269 3969 1039 3501 
Q 809 3034 809 2125 
Q 809 1441 956 1025 
Q 1181 391 1725 391 
z
" transform="scale(0.015625)"/>
       </defs>
       <use xlink:href="#Helvetica-30"/>
      </g>
     </g>
    </g>
    <g id="ytick_2">
     <g id="line2d_4">
      <g>
       <use xlink:href="#m94bef41e70" x="36.72" y="80.625339" style="stroke: #000000; stroke-width: 0.8"/>
      </g>
     </g>
     <g id="text_4">
      <!-- 8 -->
      <g transform="translate(26.546875 84.929402) scale(0.12 -0.12)">
       <defs>
        <path id="Helvetica-38" d="M 1741 2600 
Q 2113 2600 2322 2808 
Q 2531 3016 2531 3303 
Q 2531 3553 2331 3762 
Q 2131 3972 1722 3972 
Q 1316 3972 1134 3762 
Q 953 3553 953 3272 
Q 953 2956 1187 2778 
Q 1422 2600 1741 2600 
z
M 1775 384 
Q 2166 384 2423 595 
Q 2681 806 2681 1225 
Q 2681 1659 2415 1884 
Q 2150 2109 1734 2109 
Q 1331 2109 1076 1879 
Q 822 1650 822 1244 
Q 822 894 1055 639 
Q 1288 384 1775 384 
z
M 975 2384 
Q 741 2484 609 2619 
Q 363 2869 363 3269 
Q 363 3769 725 4128 
Q 1088 4488 1753 4488 
Q 2397 4488 2762 4148 
Q 3128 3809 3128 3356 
Q 3128 2938 2916 2678 
Q 2797 2531 2547 2391 
Q 2825 2263 2984 2097 
Q 3281 1784 3281 1284 
Q 3281 694 2884 283 
Q 2488 -128 1763 -128 
Q 1109 -128 657 226 
Q 206 581 206 1256 
Q 206 1653 400 1942 
Q 594 2231 975 2384 
z
" transform="scale(0.015625)"/>
       </defs>
       <use xlink:href="#Helvetica-38"/>
      </g>
     </g>
    </g>
    <g id="ytick_3">
     <g id="line2d_5">
      <g>
       <use xlink:href="#m94bef41e70" x="36.72" y="40.513846" style="stroke: #000000; stroke-width: 0.8"/>
      </g>
     </g>
     <g id="text_5">
      <!-- &gt;17 -->
      <g transform="translate(12.865 44.817909) scale(0.12 -0.12)">
       <defs>
        <path id="Helvetica-3e" d="M 3741 1369 
L 88 -59 
L 88 503 
L 3072 1634 
L 88 2763 
L 88 3325 
L 3741 1894 
L 3741 1369 
z
" transform="scale(0.015625)"/>
        <path id="Helvetica-31" d="M 613 3169 
L 613 3600 
Q 1222 3659 1462 3798 
Q 1703 3938 1822 4456 
L 2266 4456 
L 2266 0 
L 1666 0 
L 1666 3169 
L 613 3169 
z
" transform="scale(0.015625)"/>
        <path id="Helvetica-37" d="M 3347 4400 
L 3347 3909 
Q 3131 3700 2773 3181 
Q 2416 2663 2141 2063 
Q 1869 1478 1728 997 
Q 1638 688 1494 0 
L 872 0 
Q 1084 1281 1809 2550 
Q 2238 3294 2709 3834 
L 234 3834 
L 234 4400 
L 3347 4400 
z
" transform="scale(0.015625)"/>
       </defs>
       <use xlink:href="#Helvetica-3e"/>
       <use xlink:href="#Helvetica-31" x="58.398438"/>
       <use xlink:href="#Helvetica-37" x="114.013672"/>
      </g>
     </g>
    </g>
   </g>
   <g id="patch_3">
    <path d="M 41.393455 116.28 
L 76.444364 116.28 
L 76.444364 96.849562 
L 41.393455 96.849562 
L 41.393455 116.28 
z
" clip-path="url(#pad6ccf7b70)" style="fill: none; stroke: #000000; stroke-width: 1.2; stroke-linejoin: miter"/>
   </g>
   <g id="patch_4">
    <path d="M 99.811636 116.28 
L 134.862545 116.28 
L 134.862545 40.513846 
L 99.811636 40.513846 
L 99.811636 116.28 
z
" clip-path="url(#pad6ccf7b70)" style="fill: none; stroke: #000000; stroke-width: 1.2; stroke-linejoin: miter"/>
   </g>
   <g id="line2d_6">
    <path d="M 58.918909 30.664246 
L 117.337091 30.664246 
" clip-path="url(#pad6ccf7b70)" style="fill: none; stroke: #000000; stroke-linecap: square"/>
   </g>
   <g id="LineCollection_1">
    <path d="M 58.918909 97.145193 
L 58.918909 96.55393 
" clip-path="url(#pad6ccf7b70)" style="fill: none; stroke: #000000; stroke-width: 1.2"/>
    <path d="M 117.337091 40.513846 
L 117.337091 40.513846 
" clip-path="url(#pad6ccf7b70)" style="fill: none; stroke: #000000; stroke-width: 1.2"/>
   </g>
   <g id="line2d_7">
    <defs>
     <path id="m2c1d978761" d="M 4 0 
L -4 -0 
" style="stroke: #000000; stroke-width: 1.2"/>
    </defs>
    <g clip-path="url(#pad6ccf7b70)">
     <use xlink:href="#m2c1d978761" x="58.918909" y="97.145193" style="stroke: #000000; stroke-width: 1.2"/>
     <use xlink:href="#m2c1d978761" x="117.337091" y="40.513846" style="stroke: #000000; stroke-width: 1.2"/>
    </g>
   </g>
   <g id="line2d_8">
    <g clip-path="url(#pad6ccf7b70)">
     <use xlink:href="#m2c1d978761" x="58.918909" y="96.55393" style="stroke: #000000; stroke-width: 1.2"/>
     <use xlink:href="#m2c1d978761" x="117.337091" y="40.513846" style="stroke: #000000; stroke-width: 1.2"/>
    </g>
   </g>
   <g id="patch_5">
    <path d="M 36.72 116.28 
L 36.72 17.784 
" style="fill: none; stroke: #000000; stroke-width: 0.8; stroke-linejoin: miter; stroke-linecap: square"/>
   </g>
   <g id="patch_6">
    <path d="M 139.536 116.28 
L 139.536 17.784 
" style="fill: none; stroke: #000000; stroke-width: 0.8; stroke-linejoin: miter; stroke-linecap: square"/>
   </g>
   <g id="patch_7">
    <path d="M 36.72 116.28 
L 139.536 116.28 
" style="fill: none; stroke: #000000; stroke-width: 0.8; stroke-linejoin: miter; stroke-linecap: square"/>
   </g>
   <g id="patch_8">
    <path d="M 36.72 17.784 
L 139.536 17.784 
" style="fill: none; stroke: #000000; stroke-width: 0.8; stroke-linejoin: miter; stroke-linecap: square"/>
   </g>
   <g id="PathCollection_1">
    <defs>
     <path id="m7aa86b7999" d="M 0 3.872983 
C 1.027127 3.872983 2.012324 3.464901 2.738613 2.738613 
C 3.464901 2.012324 3.872983 1.027127 3.872983 0 
C 3.872983 -1.027127 3.464901 -2.012324 2.738613 -2.738613 
C 2.012324 -3.464901 1.027127 -3.872983 0 -3.872983 
C -1.027127 -3.872983 -2.012324 -3.464901 -2.738613 -2.738613 
C -3.464901 -2.012324 -3.872983 -1.027127 -3.872983 0 
C -3.872983 1.027127 -3.464901 2.012324 -2.738613 2.738613 
C -2.012324 3.464901 -1.027127 3.872983 0 3.872983 
z
" style="stroke: #000000"/>
    </defs>
    <g clip-path="url(#pad6ccf7b70)">
     <use xlink:href="#m7aa86b7999" x="56.779097" y="96.514504" style="fill: #8da0cb; stroke: #000000"/>
     <use xlink:href="#m7aa86b7999" x="56.008007" y="96.595195" style="fill: #8da0cb; stroke: #000000"/>
     <use xlink:href="#m7aa86b7999" x="59.551181" y="97.438986" style="fill: #8da0cb; stroke: #000000"/>
    </g>
   </g>
   <g id="PathCollection_2">
    <defs>
     <path id="mf815d450e2" d="M 0 3.872983 
C 1.027127 3.872983 2.012324 3.464901 2.738613 2.738613 
C 3.464901 2.012324 3.872983 1.027127 3.872983 0 
C 3.872983 -1.027127 3.464901 -2.012324 2.738613 -2.738613 
C 2.012324 -3.464901 1.027127 -3.872983 0 -3.872983 
C -1.027127 -3.872983 -2.012324 -3.464901 -2.738613 -2.738613 
C -3.464901 -2.012324 -3.872983 -1.027127 -3.872983 0 
C -3.872983 1.027127 -3.464901 2.012324 -2.738613 2.738613 
C -2.012324 3.464901 -1.027127 3.872983 0 3.872983 
z
" style="stroke: #000000"/>
    </defs>
    <g clip-path="url(#pad6ccf7b70)">
     <use xlink:href="#mf815d450e2" x="121.281031" y="40.513846" style="fill: #fc8d62; stroke: #000000"/>
     <use xlink:href="#mf815d450e2" x="116.643089" y="40.513846" style="fill: #fc8d62; stroke: #000000"/>
     <use xlink:href="#mf815d450e2" x="118.563797" y="40.513846" style="fill: #fc8d62; stroke: #000000"/>
    </g>
   </g>
   <g id="text_6">
    <!-- *** -->
    <g transform="translate(81.122063 31.951304) scale(0.12 -0.12)">
     <defs>
      <path id="Helvetica-2a" d="M 1406 4591 
L 1406 3894 
L 2088 4131 
L 2213 3784 
L 1531 3563 
L 1953 2975 
L 1644 2753 
L 1234 3363 
L 822 2753 
L 503 2975 
L 931 3563 
L 244 3784 
L 369 4131 
L 1044 3888 
L 1044 4591 
L 1406 4591 
z
" transform="scale(0.015625)"/>
     </defs>
     <use xlink:href="#Helvetica-2a"/>
     <use xlink:href="#Helvetica-2a" x="38.916016"/>
     <use xlink:href="#Helvetica-2a" x="77.832031"/>
    </g>
   </g>
   <g id="LineCollection_2">
    <path d="M 56.779097 101.046034 
L 56.779097 91.982975 
" clip-path="url(#pad6ccf7b70)" style="fill: none; stroke: #000000; stroke-width: 1.2"/>
    <path d="M 56.008007 98.133962 
L 56.008007 95.056428 
" clip-path="url(#pad6ccf7b70)" style="fill: none; stroke: #000000; stroke-width: 1.2"/>
    <path d="M 59.551181 100.916627 
L 59.551181 93.961344 
" clip-path="url(#pad6ccf7b70)" style="fill: none; stroke: #000000; stroke-width: 1.2"/>
   </g>
   <g id="line2d_9">
    <defs>
     <path id="mb74a3d8c40" d="M 2 0 
L -2 -0 
" style="stroke: #000000; stroke-width: 1.2"/>
    </defs>
    <g clip-path="url(#pad6ccf7b70)">
     <use xlink:href="#mb74a3d8c40" x="56.779097" y="101.046034" style="stroke: #000000; stroke-width: 1.2"/>
     <use xlink:href="#mb74a3d8c40" x="56.008007" y="98.133962" style="stroke: #000000; stroke-width: 1.2"/>
     <use xlink:href="#mb74a3d8c40" x="59.551181" y="100.916627" style="stroke: #000000; stroke-width: 1.2"/>
    </g>
   </g>
   <g id="line2d_10">
    <g clip-path="url(#pad6ccf7b70)">
     <use xlink:href="#mb74a3d8c40" x="56.779097" y="91.982975" style="stroke: #000000; stroke-width: 1.2"/>
     <use xlink:href="#mb74a3d8c40" x="56.008007" y="95.056428" style="stroke: #000000; stroke-width: 1.2"/>
     <use xlink:href="#mb74a3d8c40" x="59.551181" y="93.961344" style="stroke: #000000; stroke-width: 1.2"/>
    </g>
   </g>
   <g id="LineCollection_3">
    <path clip-path="url(#pad6ccf7b70)" style="fill: none; stroke: #000000; stroke-width: 1.2"/>
    <path clip-path="url(#pad6ccf7b70)" style="fill: none; stroke: #000000; stroke-width: 1.2"/>
    <path clip-path="url(#pad6ccf7b70)" style="fill: none; stroke: #000000; stroke-width: 1.2"/>
   </g>
   <g id="line2d_11">
    <g clip-path="url(#pad6ccf7b70)"/>
   </g>
   <g id="line2d_12">
    <g clip-path="url(#pad6ccf7b70)"/>
   </g>
   <g id="line2d_13">
    <path d="M 56.779097 96.514504 
L 56.008007 96.595195 
L 59.551181 97.438986 
" clip-path="url(#pad6ccf7b70)" style="fill: none"/>
   </g>
   <g id="line2d_14">
    <path d="M 121.281031 40.513846 
L 116.643089 40.513846 
L 118.563797 40.513846 
" clip-path="url(#pad6ccf7b70)" style="fill: none"/>
   </g>
  </g>
 </g>
 <defs>
  <clipPath id="pad6ccf7b70">
   <rect x="36.72" y="17.784" width="102.816" height="98.496"/>
  </clipPath>
 </defs>
</svg>
