<?xml version="1.0" encoding="utf-8" standalone="no"?>
<!DOCTYPE svg PUBLIC "-//W3C//DTD SVG 1.1//EN"
  "http://www.w3.org/Graphics/SVG/1.1/DTD/svg11.dtd">
<svg xmlns:xlink="http://www.w3.org/1999/xlink" width="146.88pt" height="136.8pt" viewBox="0 0 146.88 136.8" xmlns="http://www.w3.org/2000/svg" version="1.1">
 <metadata>
  <rdf:RDF xmlns:dc="http://purl.org/dc/elements/1.1/" xmlns:cc="http://creativecommons.org/ns#" xmlns:rdf="http://www.w3.org/1999/02/22-rdf-syntax-ns#">
   <cc:Work>
    <dc:type rdf:resource="http://purl.org/dc/dcmitype/StillImage"/>
    <dc:date>2025-11-11T13:11:18.780117</dc:date>
    <dc:format>image/svg+xml</dc:format>
    <dc:creator>
     <cc:Agent>
      <dc:title>Matplotlib v3.7.5, https://matplotlib.org/</dc:title>
     </cc:Agent>
    </dc:creator>
   </cc:Work>
  </rdf:RDF>
 </metadata>
 <defs>
  <style type="text/css">*{stroke-linejoin: round; stroke-linecap: butt}</style>
 </defs>
 <g id="figure_1">
  <g id="patch_1">
   <path d="M 0 136.8 
L 146.88 136.8 
L 146.88 0 
L 0 0 
z
" style="fill: #ffffff"/>
  </g>
  <g id="axes_1">
   <g id="patch_2">
    <path d="M 36.72 105.336 
L 139.536 105.336 
L 139.536 6.84 
L 36.72 6.84 
z
" style="fill: #ffffff"/>
   </g>
   <g id="PolyCollection_1">
    <defs>
     <path id="m7aa94500f3" d="M 50.740364 -129.96 
L 50.740364 -31.464 
L 55.413818 -31.464 
L 55.413818 -129.96 
L 55.413818 -129.96 
L 50.740364 -129.96 
z
" style="stroke: #808080; stroke-opacity: 0.3"/>
    </defs>
    <g clip-path="url(#pc2ee4d2d19)">
     <use xlink:href="#m7aa94500f3" x="0" y="136.8" style="fill: #808080; fill-opacity: 0.3; stroke: #808080; stroke-opacity: 0.3"/>
    </g>
   </g>
   <g id="line2d_1">
    <path d="M 41.393455 42.06131 
L 50.740364 68.303944 
L 55.413818 20.100751 
L 74.107636 17.5074 
L 88.128 17.495103 
L 111.495273 47.477147 
L 134.862545 45.6964 
" clip-path="url(#pc2ee4d2d19)" style="fill: none; stroke: #fc8d62; stroke-width: 1.5; stroke-linecap: square"/>
   </g>
   <g id="PathCollection_1">
    <defs>
     <path id="mfe78c7ed23" d="M 0 3.872983 
C 1.027127 3.872983 2.012324 3.464901 2.738613 2.738613 
C 3.464901 2.012324 3.872983 1.027127 3.872983 0 
C 3.872983 -1.027127 3.464901 -2.012324 2.738613 -2.738613 
C 2.012324 -3.464901 1.027127 -3.872983 0 -3.872983 
C -1.027127 -3.872983 -2.012324 -3.464901 -2.738613 -2.738613 
C -3.464901 -2.012324 -3.872983 -1.027127 -3.872983 0 
C -3.872983 1.027127 -3.464901 2.012324 -2.738613 2.738613 
C -2.012324 3.464901 -1.027127 3.872983 0 3.872983 
z
" style="stroke: #000000"/>
    </defs>
    <g clip-path="url(#pc2ee4d2d19)">
     <use xlink:href="#mfe78c7ed23" x="41.393455" y="42.06131" style="fill: #fc8d62; stroke: #000000"/>
     <use xlink:href="#mfe78c7ed23" x="50.740364" y="68.303944" style="fill: #fc8d62; stroke: #000000"/>
     <use xlink:href="#mfe78c7ed23" x="55.413818" y="20.100751" style="fill: #fc8d62; stroke: #000000"/>
     <use xlink:href="#mfe78c7ed23" x="74.107636" y="17.5074" style="fill: #fc8d62; stroke: #000000"/>
     <use xlink:href="#mfe78c7ed23" x="88.128" y="17.495103" style="fill: #fc8d62; stroke: #000000"/>
     <use xlink:href="#mfe78c7ed23" x="111.495273" y="47.477147" style="fill: #fc8d62; stroke: #000000"/>
     <use xlink:href="#mfe78c7ed23" x="134.862545" y="45.6964" style="fill: #fc8d62; stroke: #000000"/>
    </g>
   </g>
   <g id="LineCollection_1">
    <path d="M 41.393455 42.06131 
L 41.393455 42.06131 
" clip-path="url(#pc2ee4d2d19)" style="fill: none; stroke: #000000"/>
    <path d="M 50.740364 72.858395 
L 50.740364 64.608749 
" clip-path="url(#pc2ee4d2d19)" style="fill: none; stroke: #000000"/>
    <path d="M 55.413818 23.808449 
L 55.413818 16.982646 
" clip-path="url(#pc2ee4d2d19)" style="fill: none; stroke: #000000"/>
    <path d="M 74.107636 23.753506 
L 74.107636 12.774711 
" clip-path="url(#pc2ee4d2d19)" style="fill: none; stroke: #000000"/>
    <path d="M 88.128 22.687656 
L 88.128 13.391514 
" clip-path="url(#pc2ee4d2d19)" style="fill: none; stroke: #000000"/>
    <path d="M 111.495273 52.657506 
L 111.495273 43.381162 
" clip-path="url(#pc2ee4d2d19)" style="fill: none; stroke: #000000"/>
    <path d="M 134.862545 48.465894 
L 134.862545 43.269346 
" clip-path="url(#pc2ee4d2d19)" style="fill: none; stroke: #000000"/>
   </g>
   <g id="line2d_2">
    <defs>
     <path id="m98ae6df3b0" d="M 2 0 
L -2 -0 
" style="stroke: #000000"/>
    </defs>
    <g clip-path="url(#pc2ee4d2d19)">
     <use xlink:href="#m98ae6df3b0" x="41.393455" y="42.06131" style="stroke: #000000"/>
     <use xlink:href="#m98ae6df3b0" x="50.740364" y="72.858395" style="stroke: #000000"/>
     <use xlink:href="#m98ae6df3b0" x="55.413818" y="23.808449" style="stroke: #000000"/>
     <use xlink:href="#m98ae6df3b0" x="74.107636" y="23.753506" style="stroke: #000000"/>
     <use xlink:href="#m98ae6df3b0" x="88.128" y="22.687656" style="stroke: #000000"/>
     <use xlink:href="#m98ae6df3b0" x="111.495273" y="52.657506" style="stroke: #000000"/>
     <use xlink:href="#m98ae6df3b0" x="134.862545" y="48.465894" style="stroke: #000000"/>
    </g>
   </g>
   <g id="line2d_3">
    <g clip-path="url(#pc2ee4d2d19)">
     <use xlink:href="#m98ae6df3b0" x="41.393455" y="42.06131" style="stroke: #000000"/>
     <use xlink:href="#m98ae6df3b0" x="50.740364" y="64.608749" style="stroke: #000000"/>
     <use xlink:href="#m98ae6df3b0" x="55.413818" y="16.982646" style="stroke: #000000"/>
     <use xlink:href="#m98ae6df3b0" x="74.107636" y="12.774711" style="stroke: #000000"/>
     <use xlink:href="#m98ae6df3b0" x="88.128" y="13.391514" style="stroke: #000000"/>
     <use xlink:href="#m98ae6df3b0" x="111.495273" y="43.381162" style="stroke: #000000"/>
     <use xlink:href="#m98ae6df3b0" x="134.862545" y="43.269346" style="stroke: #000000"/>
    </g>
   </g>
   <g id="line2d_4">
    <path d="M 41.393455 42.06131 
L 50.740364 67.08449 
L 55.413818 20.613821 
L 74.107636 19.475637 
L 88.128 17.944318 
L 111.495273 32.628596 
L 134.862545 49.808313 
" clip-path="url(#pc2ee4d2d19)" style="fill: none; stroke: #fc8d62; stroke-width: 1.5; stroke-linecap: square"/>
   </g>
   <g id="PathCollection_2">
    <g clip-path="url(#pc2ee4d2d19)">
     <use xlink:href="#mfe78c7ed23" x="41.393455" y="42.06131" style="fill: #fc8d62; stroke: #000000"/>
     <use xlink:href="#mfe78c7ed23" x="50.740364" y="67.08449" style="fill: #fc8d62; stroke: #000000"/>
     <use xlink:href="#mfe78c7ed23" x="55.413818" y="20.613821" style="fill: #fc8d62; stroke: #000000"/>
     <use xlink:href="#mfe78c7ed23" x="74.107636" y="19.475637" style="fill: #fc8d62; stroke: #000000"/>
     <use xlink:href="#mfe78c7ed23" x="88.128" y="17.944318" style="fill: #fc8d62; stroke: #000000"/>
     <use xlink:href="#mfe78c7ed23" x="111.495273" y="32.628596" style="fill: #fc8d62; stroke: #000000"/>
     <use xlink:href="#mfe78c7ed23" x="134.862545" y="49.808313" style="fill: #fc8d62; stroke: #000000"/>
    </g>
   </g>
   <g id="LineCollection_2">
    <path d="M 41.393455 42.06131 
L 41.393455 42.06131 
" clip-path="url(#pc2ee4d2d19)" style="fill: none; stroke: #000000"/>
    <path d="M 50.740364 77.226487 
L 50.740364 60.42741 
" clip-path="url(#pc2ee4d2d19)" style="fill: none; stroke: #000000"/>
    <path d="M 55.413818 22.530079 
L 55.413818 18.867885 
" clip-path="url(#pc2ee4d2d19)" style="fill: none; stroke: #000000"/>
    <path d="M 74.107636 24.653563 
L 74.107636 15.381169 
" clip-path="url(#pc2ee4d2d19)" style="fill: none; stroke: #000000"/>
    <path d="M 88.128 19.591378 
L 88.128 16.424656 
" clip-path="url(#pc2ee4d2d19)" style="fill: none; stroke: #000000"/>
    <path d="M 111.495273 35.538981 
L 111.495273 30.094061 
" clip-path="url(#pc2ee4d2d19)" style="fill: none; stroke: #000000"/>
    <path d="M 134.862545 51.352293 
L 134.862545 48.376823 
" clip-path="url(#pc2ee4d2d19)" style="fill: none; stroke: #000000"/>
   </g>
   <g id="line2d_5">
    <g clip-path="url(#pc2ee4d2d19)">
     <use xlink:href="#m98ae6df3b0" x="41.393455" y="42.06131" style="stroke: #000000"/>
     <use xlink:href="#m98ae6df3b0" x="50.740364" y="77.226487" style="stroke: #000000"/>
     <use xlink:href="#m98ae6df3b0" x="55.413818" y="22.530079" style="stroke: #000000"/>
     <use xlink:href="#m98ae6df3b0" x="74.107636" y="24.653563" style="stroke: #000000"/>
     <use xlink:href="#m98ae6df3b0" x="88.128" y="19.591378" style="stroke: #000000"/>
     <use xlink:href="#m98ae6df3b0" x="111.495273" y="35.538981" style="stroke: #000000"/>
     <use xlink:href="#m98ae6df3b0" x="134.862545" y="51.352293" style="stroke: #000000"/>
    </g>
   </g>
   <g id="line2d_6">
    <g clip-path="url(#pc2ee4d2d19)">
     <use xlink:href="#m98ae6df3b0" x="41.393455" y="42.06131" style="stroke: #000000"/>
     <use xlink:href="#m98ae6df3b0" x="50.740364" y="60.42741" style="stroke: #000000"/>
     <use xlink:href="#m98ae6df3b0" x="55.413818" y="18.867885" style="stroke: #000000"/>
     <use xlink:href="#m98ae6df3b0" x="74.107636" y="15.381169" style="stroke: #000000"/>
     <use xlink:href="#m98ae6df3b0" x="88.128" y="16.424656" style="stroke: #000000"/>
     <use xlink:href="#m98ae6df3b0" x="111.495273" y="30.094061" style="stroke: #000000"/>
     <use xlink:href="#m98ae6df3b0" x="134.862545" y="48.376823" style="stroke: #000000"/>
    </g>
   </g>
   <g id="line2d_7">
    <path d="M 41.393455 42.06131 
L 50.740364 69.617008 
L 55.413818 16.520801 
L 74.107636 17.52606 
L 88.128 11.505252 
L 111.495273 37.706368 
L 134.862545 57.923607 
" clip-path="url(#pc2ee4d2d19)" style="fill: none; stroke: #fc8d62; stroke-width: 1.5; stroke-linecap: square"/>
   </g>
   <g id="PathCollection_3">
    <g clip-path="url(#pc2ee4d2d19)">
     <use xlink:href="#mfe78c7ed23" x="41.393455" y="42.06131" style="fill: #fc8d62; stroke: #000000"/>
     <use xlink:href="#mfe78c7ed23" x="50.740364" y="69.617008" style="fill: #fc8d62; stroke: #000000"/>
     <use xlink:href="#mfe78c7ed23" x="55.413818" y="16.520801" style="fill: #fc8d62; stroke: #000000"/>
     <use xlink:href="#mfe78c7ed23" x="74.107636" y="17.52606" style="fill: #fc8d62; stroke: #000000"/>
     <use xlink:href="#mfe78c7ed23" x="88.128" y="11.505252" style="fill: #fc8d62; stroke: #000000"/>
     <use xlink:href="#mfe78c7ed23" x="111.495273" y="37.706368" style="fill: #fc8d62; stroke: #000000"/>
     <use xlink:href="#mfe78c7ed23" x="134.862545" y="57.923607" style="fill: #fc8d62; stroke: #000000"/>
    </g>
   </g>
   <g id="LineCollection_3">
    <path d="M 41.393455 42.06131 
L 41.393455 42.06131 
" clip-path="url(#pc2ee4d2d19)" style="fill: none; stroke: #000000"/>
    <path d="M 50.740364 72.507758 
L 50.740364 67.097369 
" clip-path="url(#pc2ee4d2d19)" style="fill: none; stroke: #000000"/>
    <path d="M 55.413818 23.325889 
L 55.413818 11.475343 
" clip-path="url(#pc2ee4d2d19)" style="fill: none; stroke: #000000"/>
    <path d="M 74.107636 19.300322 
L 74.107636 15.898767 
" clip-path="url(#pc2ee4d2d19)" style="fill: none; stroke: #000000"/>
    <path d="M 88.128 13.905117 
L 88.128 9.366754 
" clip-path="url(#pc2ee4d2d19)" style="fill: none; stroke: #000000"/>
    <path d="M 111.495273 42.893242 
L 111.495273 33.606319 
" clip-path="url(#pc2ee4d2d19)" style="fill: none; stroke: #000000"/>
    <path d="M 134.862545 60.449568 
L 134.862545 55.685582 
" clip-path="url(#pc2ee4d2d19)" style="fill: none; stroke: #000000"/>
   </g>
   <g id="line2d_8">
    <g clip-path="url(#pc2ee4d2d19)">
     <use xlink:href="#m98ae6df3b0" x="41.393455" y="42.06131" style="stroke: #000000"/>
     <use xlink:href="#m98ae6df3b0" x="50.740364" y="72.507758" style="stroke: #000000"/>
     <use xlink:href="#m98ae6df3b0" x="55.413818" y="23.325889" style="stroke: #000000"/>
     <use xlink:href="#m98ae6df3b0" x="74.107636" y="19.300322" style="stroke: #000000"/>
     <use xlink:href="#m98ae6df3b0" x="88.128" y="13.905117" style="stroke: #000000"/>
     <use xlink:href="#m98ae6df3b0" x="111.495273" y="42.893242" style="stroke: #000000"/>
     <use xlink:href="#m98ae6df3b0" x="134.862545" y="60.449568" style="stroke: #000000"/>
    </g>
   </g>
   <g id="line2d_9">
    <g clip-path="url(#pc2ee4d2d19)">
     <use xlink:href="#m98ae6df3b0" x="41.393455" y="42.06131" style="stroke: #000000"/>
     <use xlink:href="#m98ae6df3b0" x="50.740364" y="67.097369" style="stroke: #000000"/>
     <use xlink:href="#m98ae6df3b0" x="55.413818" y="11.475343" style="stroke: #000000"/>
     <use xlink:href="#m98ae6df3b0" x="74.107636" y="15.898767" style="stroke: #000000"/>
     <use xlink:href="#m98ae6df3b0" x="88.128" y="9.366754" style="stroke: #000000"/>
     <use xlink:href="#m98ae6df3b0" x="111.495273" y="33.606319" style="stroke: #000000"/>
     <use xlink:href="#m98ae6df3b0" x="134.862545" y="55.685582" style="stroke: #000000"/>
    </g>
   </g>
   <g id="line2d_10">
    <path d="M 41.393455 42.06131 
L 50.740364 68.303944 
L 55.413818 20.100751 
L 74.107636 17.5074 
L 88.128 17.495103 
L 111.495273 47.477147 
L 134.862545 45.6964 
" clip-path="url(#pc2ee4d2d19)" style="fill: none"/>
   </g>
   <g id="line2d_11">
    <path d="M 41.393455 42.06131 
L 50.740364 67.08449 
L 55.413818 20.613821 
L 74.107636 19.475637 
L 88.128 17.944318 
L 111.495273 32.628596 
L 134.862545 49.808313 
" clip-path="url(#pc2ee4d2d19)" style="fill: none"/>
   </g>
   <g id="line2d_12">
    <path d="M 41.393455 42.06131 
L 50.740364 69.617008 
L 55.413818 16.520801 
L 74.107636 17.52606 
L 88.128 11.505252 
L 111.495273 37.706368 
L 134.862545 57.923607 
" clip-path="url(#pc2ee4d2d19)" style="fill: none"/>
   </g>
   <g id="line2d_13">
    <path d="M 41.393455 42.06131 
L 50.740364 68.303944 
L 55.413818 57.325838 
L 74.107636 72.096715 
L 88.128 84.425582 
L 111.495273 78.482207 
L 130.715467 137.8 
" clip-path="url(#pc2ee4d2d19)" style="fill: none; stroke: #8da0cb; stroke-width: 1.5; stroke-linecap: square"/>
   </g>
   <g id="PathCollection_4">
    <defs>
     <path id="m2436053d7a" d="M 0 3.872983 
C 1.027127 3.872983 2.012324 3.464901 2.738613 2.738613 
C 3.464901 2.012324 3.872983 1.027127 3.872983 0 
C 3.872983 -1.027127 3.464901 -2.012324 2.738613 -2.738613 
C 2.012324 -3.464901 1.027127 -3.872983 0 -3.872983 
C -1.027127 -3.872983 -2.012324 -3.464901 -2.738613 -2.738613 
C -3.464901 -2.012324 -3.872983 -1.027127 -3.872983 0 
C -3.872983 1.027127 -3.464901 2.012324 -2.738613 2.738613 
C -2.012324 3.464901 -1.027127 3.872983 0 3.872983 
z
" style="stroke: #000000"/>
    </defs>
    <g clip-path="url(#pc2ee4d2d19)">
     <use xlink:href="#m2436053d7a" x="41.393455" y="42.06131" style="fill: #8da0cb; stroke: #000000"/>
     <use xlink:href="#m2436053d7a" x="50.740364" y="68.303944" style="fill: #8da0cb; stroke: #000000"/>
     <use xlink:href="#m2436053d7a" x="55.413818" y="57.325838" style="fill: #8da0cb; stroke: #000000"/>
     <use xlink:href="#m2436053d7a" x="74.107636" y="72.096715" style="fill: #8da0cb; stroke: #000000"/>
     <use xlink:href="#m2436053d7a" x="88.128" y="84.425582" style="fill: #8da0cb; stroke: #000000"/>
     <use xlink:href="#m2436053d7a" x="111.495273" y="78.482207" style="fill: #8da0cb; stroke: #000000"/>
     <use xlink:href="#m2436053d7a" x="134.862545" y="150.598808" style="fill: #8da0cb; stroke: #000000"/>
    </g>
   </g>
   <g id="LineCollection_4">
    <path d="M 41.393455 42.06131 
L 41.393455 42.06131 
" clip-path="url(#pc2ee4d2d19)" style="fill: none; stroke: #000000"/>
    <path d="M 50.740364 72.858395 
L 50.740364 64.608749 
" clip-path="url(#pc2ee4d2d19)" style="fill: none; stroke: #000000"/>
    <path d="M 55.413818 60.110959 
L 55.413818 54.886795 
" clip-path="url(#pc2ee4d2d19)" style="fill: none; stroke: #000000"/>
    <path d="M 74.107636 76.182179 
L 74.107636 68.715977 
" clip-path="url(#pc2ee4d2d19)" style="fill: none; stroke: #000000"/>
    <path d="M 88.128 90.462368 
L 88.128 79.813646 
" clip-path="url(#pc2ee4d2d19)" style="fill: none; stroke: #000000"/>
    <path d="M 111.495273 85.420214 
L 111.495273 73.364389 
" clip-path="url(#pc2ee4d2d19)" style="fill: none; stroke: #000000"/>
    <path clip-path="url(#pc2ee4d2d19)" style="fill: none; stroke: #000000"/>
   </g>
   <g id="line2d_14">
    <g clip-path="url(#pc2ee4d2d19)">
     <use xlink:href="#m98ae6df3b0" x="41.393455" y="42.06131" style="stroke: #000000"/>
     <use xlink:href="#m98ae6df3b0" x="50.740364" y="72.858395" style="stroke: #000000"/>
     <use xlink:href="#m98ae6df3b0" x="55.413818" y="60.110959" style="stroke: #000000"/>
     <use xlink:href="#m98ae6df3b0" x="74.107636" y="76.182179" style="stroke: #000000"/>
     <use xlink:href="#m98ae6df3b0" x="88.128" y="90.462368" style="stroke: #000000"/>
     <use xlink:href="#m98ae6df3b0" x="111.495273" y="85.420214" style="stroke: #000000"/>
     <use xlink:href="#m98ae6df3b0" x="134.862545" y="150.893515" style="stroke: #000000"/>
    </g>
   </g>
   <g id="line2d_15">
    <g clip-path="url(#pc2ee4d2d19)">
     <use xlink:href="#m98ae6df3b0" x="41.393455" y="42.06131" style="stroke: #000000"/>
     <use xlink:href="#m98ae6df3b0" x="50.740364" y="64.608749" style="stroke: #000000"/>
     <use xlink:href="#m98ae6df3b0" x="55.413818" y="54.886795" style="stroke: #000000"/>
     <use xlink:href="#m98ae6df3b0" x="74.107636" y="68.715977" style="stroke: #000000"/>
     <use xlink:href="#m98ae6df3b0" x="88.128" y="79.813646" style="stroke: #000000"/>
     <use xlink:href="#m98ae6df3b0" x="111.495273" y="73.364389" style="stroke: #000000"/>
     <use xlink:href="#m98ae6df3b0" x="134.862545" y="150.308453" style="stroke: #000000"/>
    </g>
   </g>
   <g id="line2d_16">
    <path d="M 41.393455 42.06131 
L 50.740364 67.08449 
L 55.413818 64.30172 
L 74.107636 77.515255 
L 88.128 89.70173 
L 111.495273 93.526355 
L 129.622308 137.8 
" clip-path="url(#pc2ee4d2d19)" style="fill: none; stroke: #8da0cb; stroke-width: 1.5; stroke-linecap: square"/>
   </g>
   <g id="PathCollection_5">
    <g clip-path="url(#pc2ee4d2d19)">
     <use xlink:href="#m2436053d7a" x="41.393455" y="42.06131" style="fill: #8da0cb; stroke: #000000"/>
     <use xlink:href="#m2436053d7a" x="50.740364" y="67.08449" style="fill: #8da0cb; stroke: #000000"/>
     <use xlink:href="#m2436053d7a" x="55.413818" y="64.30172" style="fill: #8da0cb; stroke: #000000"/>
     <use xlink:href="#m2436053d7a" x="74.107636" y="77.515255" style="fill: #8da0cb; stroke: #000000"/>
     <use xlink:href="#m2436053d7a" x="88.128" y="89.70173" style="fill: #8da0cb; stroke: #000000"/>
     <use xlink:href="#m2436053d7a" x="111.495273" y="93.526355" style="fill: #8da0cb; stroke: #000000"/>
     <use xlink:href="#m2436053d7a" x="134.862545" y="150.598808" style="fill: #8da0cb; stroke: #000000"/>
    </g>
   </g>
   <g id="LineCollection_5">
    <path d="M 41.393455 42.06131 
L 41.393455 42.06131 
" clip-path="url(#pc2ee4d2d19)" style="fill: none; stroke: #000000"/>
    <path d="M 50.740364 77.226487 
L 50.740364 60.42741 
" clip-path="url(#pc2ee4d2d19)" style="fill: none; stroke: #000000"/>
    <path d="M 55.413818 68.099771 
L 55.413818 61.120017 
" clip-path="url(#pc2ee4d2d19)" style="fill: none; stroke: #000000"/>
    <path d="M 74.107636 84.721644 
L 74.107636 72.253606 
" clip-path="url(#pc2ee4d2d19)" style="fill: none; stroke: #000000"/>
    <path d="M 88.128 92.665749 
L 88.128 87.126634 
" clip-path="url(#pc2ee4d2d19)" style="fill: none; stroke: #000000"/>
    <path d="M 111.495273 100.51301 
L 111.495273 88.382242 
" clip-path="url(#pc2ee4d2d19)" style="fill: none; stroke: #000000"/>
    <path clip-path="url(#pc2ee4d2d19)" style="fill: none; stroke: #000000"/>
   </g>
   <g id="line2d_17">
    <g clip-path="url(#pc2ee4d2d19)">
     <use xlink:href="#m98ae6df3b0" x="41.393455" y="42.06131" style="stroke: #000000"/>
     <use xlink:href="#m98ae6df3b0" x="50.740364" y="77.226487" style="stroke: #000000"/>
     <use xlink:href="#m98ae6df3b0" x="55.413818" y="68.099771" style="stroke: #000000"/>
     <use xlink:href="#m98ae6df3b0" x="74.107636" y="84.721644" style="stroke: #000000"/>
     <use xlink:href="#m98ae6df3b0" x="88.128" y="92.665749" style="stroke: #000000"/>
     <use xlink:href="#m98ae6df3b0" x="111.495273" y="100.51301" style="stroke: #000000"/>
    </g>
   </g>
   <g id="line2d_18">
    <g clip-path="url(#pc2ee4d2d19)">
     <use xlink:href="#m98ae6df3b0" x="41.393455" y="42.06131" style="stroke: #000000"/>
     <use xlink:href="#m98ae6df3b0" x="50.740364" y="60.42741" style="stroke: #000000"/>
     <use xlink:href="#m98ae6df3b0" x="55.413818" y="61.120017" style="stroke: #000000"/>
     <use xlink:href="#m98ae6df3b0" x="74.107636" y="72.253606" style="stroke: #000000"/>
     <use xlink:href="#m98ae6df3b0" x="88.128" y="87.126634" style="stroke: #000000"/>
     <use xlink:href="#m98ae6df3b0" x="111.495273" y="88.382242" style="stroke: #000000"/>
    </g>
   </g>
   <g id="line2d_19">
    <path d="M 41.393455 42.06131 
L 50.740364 69.617008 
L 55.413818 81.227282 
L 74.107636 86.963422 
L 88.128 83.526483 
L 111.495273 71.697873 
L 131.072055 137.8 
" clip-path="url(#pc2ee4d2d19)" style="fill: none; stroke: #8da0cb; stroke-width: 1.5; stroke-linecap: square"/>
   </g>
   <g id="PathCollection_6">
    <g clip-path="url(#pc2ee4d2d19)">
     <use xlink:href="#m2436053d7a" x="41.393455" y="42.06131" style="fill: #8da0cb; stroke: #000000"/>
     <use xlink:href="#m2436053d7a" x="50.740364" y="69.617008" style="fill: #8da0cb; stroke: #000000"/>
     <use xlink:href="#m2436053d7a" x="55.413818" y="81.227282" style="fill: #8da0cb; stroke: #000000"/>
     <use xlink:href="#m2436053d7a" x="74.107636" y="86.963422" style="fill: #8da0cb; stroke: #000000"/>
     <use xlink:href="#m2436053d7a" x="88.128" y="83.526483" style="fill: #8da0cb; stroke: #000000"/>
     <use xlink:href="#m2436053d7a" x="111.495273" y="71.697873" style="fill: #8da0cb; stroke: #000000"/>
     <use xlink:href="#m2436053d7a" x="134.862545" y="150.598808" style="fill: #8da0cb; stroke: #000000"/>
    </g>
   </g>
   <g id="LineCollection_6">
    <path d="M 41.393455 42.06131 
L 41.393455 42.06131 
" clip-path="url(#pc2ee4d2d19)" style="fill: none; stroke: #000000"/>
    <path d="M 50.740364 72.507758 
L 50.740364 67.097369 
" clip-path="url(#pc2ee4d2d19)" style="fill: none; stroke: #000000"/>
    <path d="M 55.413818 84.379559 
L 55.413818 78.511341 
" clip-path="url(#pc2ee4d2d19)" style="fill: none; stroke: #000000"/>
    <path d="M 74.107636 96.055032 
L 74.107636 80.770836 
" clip-path="url(#pc2ee4d2d19)" style="fill: none; stroke: #000000"/>
    <path d="M 88.128 88.046644 
L 88.128 79.85386 
" clip-path="url(#pc2ee4d2d19)" style="fill: none; stroke: #000000"/>
    <path d="M 111.495273 74.526398 
L 111.495273 69.225621 
" clip-path="url(#pc2ee4d2d19)" style="fill: none; stroke: #000000"/>
    <path clip-path="url(#pc2ee4d2d19)" style="fill: none; stroke: #000000"/>
   </g>
   <g id="line2d_20">
    <g clip-path="url(#pc2ee4d2d19)">
     <use xlink:href="#m98ae6df3b0" x="41.393455" y="42.06131" style="stroke: #000000"/>
     <use xlink:href="#m98ae6df3b0" x="50.740364" y="72.507758" style="stroke: #000000"/>
     <use xlink:href="#m98ae6df3b0" x="55.413818" y="84.379559" style="stroke: #000000"/>
     <use xlink:href="#m98ae6df3b0" x="74.107636" y="96.055032" style="stroke: #000000"/>
     <use xlink:href="#m98ae6df3b0" x="88.128" y="88.046644" style="stroke: #000000"/>
     <use xlink:href="#m98ae6df3b0" x="111.495273" y="74.526398" style="stroke: #000000"/>
     <use xlink:href="#m98ae6df3b0" x="134.862545" y="150.720574" style="stroke: #000000"/>
    </g>
   </g>
   <g id="line2d_21">
    <g clip-path="url(#pc2ee4d2d19)">
     <use xlink:href="#m98ae6df3b0" x="41.393455" y="42.06131" style="stroke: #000000"/>
     <use xlink:href="#m98ae6df3b0" x="50.740364" y="67.097369" style="stroke: #000000"/>
     <use xlink:href="#m98ae6df3b0" x="55.413818" y="78.511341" style="stroke: #000000"/>
     <use xlink:href="#m98ae6df3b0" x="74.107636" y="80.770836" style="stroke: #000000"/>
     <use xlink:href="#m98ae6df3b0" x="88.128" y="79.85386" style="stroke: #000000"/>
     <use xlink:href="#m98ae6df3b0" x="111.495273" y="69.225621" style="stroke: #000000"/>
     <use xlink:href="#m98ae6df3b0" x="134.862545" y="150.47779" style="stroke: #000000"/>
    </g>
   </g>
   <g id="line2d_22">
    <path d="M 41.393455 42.06131 
L 50.740364 68.303944 
L 55.413818 57.325838 
L 74.107636 72.096715 
L 88.128 84.425582 
L 111.495273 78.482207 
L 130.715467 137.8 
" clip-path="url(#pc2ee4d2d19)" style="fill: none"/>
   </g>
   <g id="line2d_23">
    <path d="M 41.393455 42.06131 
L 50.740364 67.08449 
L 55.413818 64.30172 
L 74.107636 77.515255 
L 88.128 89.70173 
L 111.495273 93.526355 
L 129.622308 137.8 
" clip-path="url(#pc2ee4d2d19)" style="fill: none"/>
   </g>
   <g id="line2d_24">
    <path d="M 41.393455 42.06131 
L 50.740364 69.617008 
L 55.413818 81.227282 
L 74.107636 86.963422 
L 88.128 83.526483 
L 111.495273 71.697873 
L 131.072055 137.8 
" clip-path="url(#pc2ee4d2d19)" style="fill: none"/>
   </g>
   <g id="matplotlib.axis_1">
    <g id="xtick_1">
     <g id="line2d_25">
      <defs>
       <path id="m133f39e880" d="M 0 0 
L 0 -3.5 
" style="stroke: #000000; stroke-width: 0.8"/>
      </defs>
      <g>
       <use xlink:href="#m133f39e880" x="41.393455" y="105.336" style="stroke: #000000; stroke-width: 0.8"/>
      </g>
     </g>
     <g id="text_1">
      <!-- 0 -->
      <g transform="translate(38.056892 117.444125) scale(0.12 -0.12)">
       <defs>
        <path id="Helvetica-30" d="M 1731 4475 
Q 2600 4475 2988 3759 
Q 3288 3206 3288 2244 
Q 3288 1331 3016 734 
Q 2622 -122 1728 -122 
Q 922 -122 528 578 
Q 200 1163 200 2147 
Q 200 2909 397 3456 
Q 766 4475 1731 4475 
z
M 1725 391 
Q 2163 391 2422 778 
Q 2681 1166 2681 2222 
Q 2681 2984 2493 3476 
Q 2306 3969 1766 3969 
Q 1269 3969 1039 3501 
Q 809 3034 809 2125 
Q 809 1441 956 1025 
Q 1181 391 1725 391 
z
" transform="scale(0.015625)"/>
       </defs>
       <use xlink:href="#Helvetica-30"/>
      </g>
     </g>
    </g>
    <g id="xtick_2">
     <g id="line2d_26">
      <g>
       <use xlink:href="#m133f39e880" x="88.128" y="105.336" style="stroke: #000000; stroke-width: 0.8"/>
      </g>
     </g>
     <g id="text_2">
      <!-- 10 -->
      <g transform="translate(81.454875 117.444125) scale(0.12 -0.12)">
       <defs>
        <path id="Helvetica-31" d="M 613 3169 
L 613 3600 
Q 1222 3659 1462 3798 
Q 1703 3938 1822 4456 
L 2266 4456 
L 2266 0 
L 1666 0 
L 1666 3169 
L 613 3169 
z
" transform="scale(0.015625)"/>
       </defs>
       <use xlink:href="#Helvetica-31"/>
       <use xlink:href="#Helvetica-30" x="55.615234"/>
      </g>
     </g>
    </g>
    <g id="xtick_3">
     <g id="line2d_27">
      <g>
       <use xlink:href="#m133f39e880" x="134.862545" y="105.336" style="stroke: #000000; stroke-width: 0.8"/>
      </g>
     </g>
     <g id="text_3">
      <!-- 20 -->
      <g transform="translate(128.18942 117.444125) scale(0.12 -0.12)">
       <defs>
        <path id="Helvetica-32" d="M 200 0 
Q 231 578 439 1006 
Q 647 1434 1250 1784 
L 1850 2131 
Q 2253 2366 2416 2531 
Q 2672 2791 2672 3125 
Q 2672 3516 2437 3745 
Q 2203 3975 1813 3975 
Q 1234 3975 1013 3538 
Q 894 3303 881 2888 
L 309 2888 
Q 319 3472 525 3841 
Q 891 4491 1816 4491 
Q 2584 4491 2939 4075 
Q 3294 3659 3294 3150 
Q 3294 2613 2916 2231 
Q 2697 2009 2131 1694 
L 1703 1456 
Q 1397 1288 1222 1134 
Q 909 863 828 531 
L 3272 531 
L 3272 0 
L 200 0 
z
" transform="scale(0.015625)"/>
       </defs>
       <use xlink:href="#Helvetica-32"/>
       <use xlink:href="#Helvetica-30" x="55.615234"/>
      </g>
     </g>
    </g>
   </g>
   <g id="matplotlib.axis_2">
    <g id="ytick_1">
     <g id="line2d_28">
      <defs>
       <path id="mdde98d63eb" d="M 0 0 
L 3.5 0 
" style="stroke: #000000; stroke-width: 0.8"/>
      </defs>
      <g>
       <use xlink:href="#mdde98d63eb" x="36.72" y="105.336" style="stroke: #000000; stroke-width: 0.8"/>
      </g>
     </g>
     <g id="text_4">
      <!-- $\mathdefault{10^{0}}$ -->
      <g transform="translate(14.74 109.640062) scale(0.12 -0.12)">
       <use xlink:href="#Helvetica-31" transform="translate(0 0.446875)"/>
       <use xlink:href="#Helvetica-30" transform="translate(55.615234 0.446875)"/>
       <use xlink:href="#Helvetica-30" transform="translate(112.145664 37.054688) scale(0.7)"/>
      </g>
     </g>
    </g>
    <g id="ytick_2">
     <g id="line2d_29">
      <g>
       <use xlink:href="#mdde98d63eb" x="36.72" y="60.073192" style="stroke: #000000; stroke-width: 0.8"/>
      </g>
     </g>
     <g id="text_5">
      <!-- $\mathdefault{10^{1}}$ -->
      <g transform="translate(14.74 64.377255) scale(0.12 -0.12)">
       <use xlink:href="#Helvetica-31" transform="translate(0 0.654688)"/>
       <use xlink:href="#Helvetica-30" transform="translate(55.615234 0.654688)"/>
       <use xlink:href="#Helvetica-31" transform="translate(112.145664 37.2625) scale(0.7)"/>
      </g>
     </g>
    </g>
    <g id="ytick_3">
     <g id="line2d_30">
      <g>
       <use xlink:href="#mdde98d63eb" x="36.72" y="14.810385" style="stroke: #000000; stroke-width: 0.8"/>
      </g>
     </g>
     <g id="text_6">
      <!-- $\mathdefault{10^{2}}$ -->
      <g transform="translate(14.74 19.114447) scale(0.12 -0.12)">
       <use xlink:href="#Helvetica-31" transform="translate(0 0.271875)"/>
       <use xlink:href="#Helvetica-30" transform="translate(55.615234 0.271875)"/>
       <use xlink:href="#Helvetica-32" transform="translate(112.145664 36.879688) scale(0.7)"/>
      </g>
     </g>
    </g>
    <g id="ytick_4">
     <g id="line2d_31">
      <defs>
       <path id="mbd39ce2bb7" d="M 0 0 
L 2 0 
" style="stroke: #000000; stroke-width: 0.6"/>
      </defs>
      <g>
       <use xlink:href="#mbd39ce2bb7" x="36.72" y="91.710537" style="stroke: #000000; stroke-width: 0.6"/>
      </g>
     </g>
    </g>
    <g id="ytick_5">
     <g id="line2d_32">
      <g>
       <use xlink:href="#mbd39ce2bb7" x="36.72" y="83.740152" style="stroke: #000000; stroke-width: 0.6"/>
      </g>
     </g>
    </g>
    <g id="ytick_6">
     <g id="line2d_33">
      <g>
       <use xlink:href="#mbd39ce2bb7" x="36.72" y="78.085074" style="stroke: #000000; stroke-width: 0.6"/>
      </g>
     </g>
    </g>
    <g id="ytick_7">
     <g id="line2d_34">
      <g>
       <use xlink:href="#mbd39ce2bb7" x="36.72" y="73.698655" style="stroke: #000000; stroke-width: 0.6"/>
      </g>
     </g>
    </g>
    <g id="ytick_8">
     <g id="line2d_35">
      <g>
       <use xlink:href="#mbd39ce2bb7" x="36.72" y="70.11469" style="stroke: #000000; stroke-width: 0.6"/>
      </g>
     </g>
    </g>
    <g id="ytick_9">
     <g id="line2d_36">
      <g>
       <use xlink:href="#mbd39ce2bb7" x="36.72" y="67.08449" style="stroke: #000000; stroke-width: 0.6"/>
      </g>
     </g>
    </g>
    <g id="ytick_10">
     <g id="line2d_37">
      <g>
       <use xlink:href="#mbd39ce2bb7" x="36.72" y="64.459612" style="stroke: #000000; stroke-width: 0.6"/>
      </g>
     </g>
    </g>
    <g id="ytick_11">
     <g id="line2d_38">
      <g>
       <use xlink:href="#mbd39ce2bb7" x="36.72" y="62.144305" style="stroke: #000000; stroke-width: 0.6"/>
      </g>
     </g>
    </g>
    <g id="ytick_12">
     <g id="line2d_39">
      <g>
       <use xlink:href="#mbd39ce2bb7" x="36.72" y="46.44773" style="stroke: #000000; stroke-width: 0.6"/>
      </g>
     </g>
    </g>
    <g id="ytick_13">
     <g id="line2d_40">
      <g>
       <use xlink:href="#mbd39ce2bb7" x="36.72" y="38.477345" style="stroke: #000000; stroke-width: 0.6"/>
      </g>
     </g>
    </g>
    <g id="ytick_14">
     <g id="line2d_41">
      <g>
       <use xlink:href="#mbd39ce2bb7" x="36.72" y="32.822267" style="stroke: #000000; stroke-width: 0.6"/>
      </g>
     </g>
    </g>
    <g id="ytick_15">
     <g id="line2d_42">
      <g>
       <use xlink:href="#mbd39ce2bb7" x="36.72" y="28.435848" style="stroke: #000000; stroke-width: 0.6"/>
      </g>
     </g>
    </g>
    <g id="ytick_16">
     <g id="line2d_43">
      <g>
       <use xlink:href="#mbd39ce2bb7" x="36.72" y="24.851882" style="stroke: #000000; stroke-width: 0.6"/>
      </g>
     </g>
    </g>
    <g id="ytick_17">
     <g id="line2d_44">
      <g>
       <use xlink:href="#mbd39ce2bb7" x="36.72" y="21.821682" style="stroke: #000000; stroke-width: 0.6"/>
      </g>
     </g>
    </g>
    <g id="ytick_18">
     <g id="line2d_45">
      <g>
       <use xlink:href="#mbd39ce2bb7" x="36.72" y="19.196804" style="stroke: #000000; stroke-width: 0.6"/>
      </g>
     </g>
    </g>
    <g id="ytick_19">
     <g id="line2d_46">
      <g>
       <use xlink:href="#mbd39ce2bb7" x="36.72" y="16.881497" style="stroke: #000000; stroke-width: 0.6"/>
      </g>
     </g>
    </g>
   </g>
   <g id="patch_3">
    <path d="M 36.72 105.336 
L 36.72 6.84 
" style="fill: none; stroke: #000000; stroke-width: 0.8; stroke-linejoin: miter; stroke-linecap: square"/>
   </g>
   <g id="patch_4">
    <path d="M 139.536 105.336 
L 139.536 6.84 
" style="fill: none; stroke: #000000; stroke-width: 0.8; stroke-linejoin: miter; stroke-linecap: square"/>
   </g>
   <g id="patch_5">
    <path d="M 36.72 105.336 
L 139.536 105.336 
" style="fill: none; stroke: #000000; stroke-width: 0.8; stroke-linejoin: miter; stroke-linecap: square"/>
   </g>
   <g id="patch_6">
    <path d="M 36.72 6.84 
L 139.536 6.84 
" style="fill: none; stroke: #000000; stroke-width: 0.8; stroke-linejoin: miter; stroke-linecap: square"/>
   </g>
   <g id="text_7">
    <!-- pCU1 -->
    <g transform="translate(102.68829 21.6144) scale(0.12 -0.12)">
     <defs>
      <path id="Helvetica-70" d="M 1825 378 
Q 2219 378 2480 708 
Q 2741 1038 2741 1694 
Q 2741 2094 2625 2381 
Q 2406 2934 1825 2934 
Q 1241 2934 1025 2350 
Q 909 2038 909 1556 
Q 909 1169 1025 897 
Q 1244 378 1825 378 
z
M 369 3331 
L 916 3331 
L 916 2888 
Q 1084 3116 1284 3241 
Q 1569 3428 1953 3428 
Q 2522 3428 2919 2992 
Q 3316 2556 3316 1747 
Q 3316 653 2744 184 
Q 2381 -113 1900 -113 
Q 1522 -113 1266 53 
Q 1116 147 931 375 
L 931 -1334 
L 369 -1334 
L 369 3331 
z
" transform="scale(0.015625)"/>
      <path id="Helvetica-43" d="M 2422 4716 
Q 3294 4716 3775 4256 
Q 4256 3797 4309 3213 
L 3703 3213 
Q 3600 3656 3292 3915 
Q 2984 4175 2428 4175 
Q 1750 4175 1333 3698 
Q 916 3222 916 2238 
Q 916 1431 1292 929 
Q 1669 428 2416 428 
Q 3103 428 3463 956 
Q 3653 1234 3747 1688 
L 4353 1688 
Q 4272 963 3816 472 
Q 3269 -119 2341 -119 
Q 1541 -119 997 366 
Q 281 1006 281 2344 
Q 281 3359 819 4009 
Q 1400 4716 2422 4716 
z
M 2297 4716 
L 2297 4716 
z
" transform="scale(0.015625)"/>
      <path id="Helvetica-55" d="M 1163 4591 
L 1163 1753 
Q 1163 1253 1350 922 
Q 1628 422 2288 422 
Q 3078 422 3363 963 
Q 3516 1256 3516 1753 
L 3516 4591 
L 4147 4591 
L 4147 2013 
Q 4147 1166 3919 709 
Q 3500 -122 2338 -122 
Q 1175 -122 759 709 
Q 531 1166 531 2013 
L 531 4591 
L 1163 4591 
z
M 2341 4591 
L 2341 4591 
z
" transform="scale(0.015625)"/>
     </defs>
     <use xlink:href="#Helvetica-70"/>
     <use xlink:href="#Helvetica-43" x="55.615234"/>
     <use xlink:href="#Helvetica-55" x="127.832031"/>
     <use xlink:href="#Helvetica-31" x="200.048828"/>
    </g>
   </g>
  </g>
 </g>
 <defs>
  <clipPath id="pc2ee4d2d19">
   <rect x="36.72" y="6.84" width="102.816" height="98.496"/>
  </clipPath>
 </defs>
</svg>
