<?xml version="1.0" encoding="utf-8" standalone="no"?>
<!DOCTYPE svg PUBLIC "-//W3C//DTD SVG 1.1//EN"
  "http://www.w3.org/Graphics/SVG/1.1/DTD/svg11.dtd">
<svg xmlns:xlink="http://www.w3.org/1999/xlink" width="146.88pt" height="136.8pt" viewBox="0 0 146.88 136.8" xmlns="http://www.w3.org/2000/svg" version="1.1">
 <metadata>
  <rdf:RDF xmlns:dc="http://purl.org/dc/elements/1.1/" xmlns:cc="http://creativecommons.org/ns#" xmlns:rdf="http://www.w3.org/1999/02/22-rdf-syntax-ns#">
   <cc:Work>
    <dc:type rdf:resource="http://purl.org/dc/dcmitype/StillImage"/>
    <dc:date>2025-10-11T21:10:32.043569</dc:date>
    <dc:format>image/svg+xml</dc:format>
    <dc:creator>
     <cc:Agent>
      <dc:title>Matplotlib v3.7.5, https://matplotlib.org/</dc:title>
     </cc:Agent>
    </dc:creator>
   </cc:Work>
  </rdf:RDF>
 </metadata>
 <defs>
  <style type="text/css">*{stroke-linejoin: round; stroke-linecap: butt}</style>
 </defs>
 <g id="figure_1">
  <g id="patch_1">
   <path d="M 0 136.8 
L 146.88 136.8 
L 146.88 0 
L 0 0 
z
" style="fill: #ffffff"/>
  </g>
  <g id="axes_1">
   <g id="patch_2">
    <path d="M 36.72 105.336 
L 139.536 105.336 
L 139.536 6.84 
L 36.72 6.84 
z
" style="fill: #ffffff"/>
   </g>
   <g id="PolyCollection_1">
    <defs>
     <path id="mfba4b7811b" d="M 50.740364 -129.96 
L 50.740364 -31.464 
L 55.413818 -31.464 
L 55.413818 -129.96 
L 55.413818 -129.96 
L 50.740364 -129.96 
z
" style="stroke: #808080; stroke-opacity: 0.3"/>
    </defs>
    <g clip-path="url(#p13dd77826c)">
     <use xlink:href="#mfba4b7811b" x="0" y="136.8" style="fill: #808080; fill-opacity: 0.3; stroke: #808080; stroke-opacity: 0.3"/>
    </g>
   </g>
   <g id="line2d_1">
    <path d="M 41.393455 42.06131 
L 50.740364 73.54686 
L 55.413818 16.531505 
L 74.107636 14.442946 
L 88.128 17.566927 
L 111.495273 45.869529 
L 134.862545 50.087146 
" clip-path="url(#p13dd77826c)" style="fill: none; stroke: #fc8d62; stroke-width: 1.5; stroke-linecap: square"/>
   </g>
   <g id="PathCollection_1">
    <defs>
     <path id="m7efb77e65a" d="M 0 3.872983 
C 1.027127 3.872983 2.012324 3.464901 2.738613 2.738613 
C 3.464901 2.012324 3.872983 1.027127 3.872983 0 
C 3.872983 -1.027127 3.464901 -2.012324 2.738613 -2.738613 
C 2.012324 -3.464901 1.027127 -3.872983 0 -3.872983 
C -1.027127 -3.872983 -2.012324 -3.464901 -2.738613 -2.738613 
C -3.464901 -2.012324 -3.872983 -1.027127 -3.872983 0 
C -3.872983 1.027127 -3.464901 2.012324 -2.738613 2.738613 
C -2.012324 3.464901 -1.027127 3.872983 0 3.872983 
z
" style="stroke: #000000"/>
    </defs>
    <g clip-path="url(#p13dd77826c)">
     <use xlink:href="#m7efb77e65a" x="41.393455" y="42.06131" style="fill: #fc8d62; stroke: #000000"/>
     <use xlink:href="#m7efb77e65a" x="50.740364" y="73.54686" style="fill: #fc8d62; stroke: #000000"/>
     <use xlink:href="#m7efb77e65a" x="55.413818" y="16.531505" style="fill: #fc8d62; stroke: #000000"/>
     <use xlink:href="#m7efb77e65a" x="74.107636" y="14.442946" style="fill: #fc8d62; stroke: #000000"/>
     <use xlink:href="#m7efb77e65a" x="88.128" y="17.566927" style="fill: #fc8d62; stroke: #000000"/>
     <use xlink:href="#m7efb77e65a" x="111.495273" y="45.869529" style="fill: #fc8d62; stroke: #000000"/>
     <use xlink:href="#m7efb77e65a" x="134.862545" y="50.087146" style="fill: #fc8d62; stroke: #000000"/>
    </g>
   </g>
   <g id="LineCollection_1">
    <path d="M 41.393455 42.06131 
L 41.393455 42.06131 
" clip-path="url(#p13dd77826c)" style="fill: none; stroke: #000000"/>
    <path d="M 50.740364 78.22457 
L 50.740364 69.771071 
" clip-path="url(#p13dd77826c)" style="fill: none; stroke: #000000"/>
    <path d="M 55.413818 17.96961 
L 55.413818 15.191475 
" clip-path="url(#p13dd77826c)" style="fill: none; stroke: #000000"/>
    <path d="M 74.107636 20.413354 
L 74.107636 9.869729 
" clip-path="url(#p13dd77826c)" style="fill: none; stroke: #000000"/>
    <path d="M 88.128 19.367807 
L 88.128 15.917274 
" clip-path="url(#p13dd77826c)" style="fill: none; stroke: #000000"/>
    <path d="M 111.495273 49.872406 
L 111.495273 42.545481 
" clip-path="url(#p13dd77826c)" style="fill: none; stroke: #000000"/>
    <path d="M 134.862545 51.369733 
L 134.862545 48.883143 
" clip-path="url(#p13dd77826c)" style="fill: none; stroke: #000000"/>
   </g>
   <g id="line2d_2">
    <defs>
     <path id="md3a4411d4e" d="M 2 0 
L -2 -0 
" style="stroke: #000000"/>
    </defs>
    <g clip-path="url(#p13dd77826c)">
     <use xlink:href="#md3a4411d4e" x="41.393455" y="42.06131" style="stroke: #000000"/>
     <use xlink:href="#md3a4411d4e" x="50.740364" y="78.22457" style="stroke: #000000"/>
     <use xlink:href="#md3a4411d4e" x="55.413818" y="17.96961" style="stroke: #000000"/>
     <use xlink:href="#md3a4411d4e" x="74.107636" y="20.413354" style="stroke: #000000"/>
     <use xlink:href="#md3a4411d4e" x="88.128" y="19.367807" style="stroke: #000000"/>
     <use xlink:href="#md3a4411d4e" x="111.495273" y="49.872406" style="stroke: #000000"/>
     <use xlink:href="#md3a4411d4e" x="134.862545" y="51.369733" style="stroke: #000000"/>
    </g>
   </g>
   <g id="line2d_3">
    <g clip-path="url(#p13dd77826c)">
     <use xlink:href="#md3a4411d4e" x="41.393455" y="42.06131" style="stroke: #000000"/>
     <use xlink:href="#md3a4411d4e" x="50.740364" y="69.771071" style="stroke: #000000"/>
     <use xlink:href="#md3a4411d4e" x="55.413818" y="15.191475" style="stroke: #000000"/>
     <use xlink:href="#md3a4411d4e" x="74.107636" y="9.869729" style="stroke: #000000"/>
     <use xlink:href="#md3a4411d4e" x="88.128" y="15.917274" style="stroke: #000000"/>
     <use xlink:href="#md3a4411d4e" x="111.495273" y="42.545481" style="stroke: #000000"/>
     <use xlink:href="#md3a4411d4e" x="134.862545" y="48.883143" style="stroke: #000000"/>
    </g>
   </g>
   <g id="line2d_4">
    <path d="M 41.393455 42.06131 
L 50.740364 62.717718 
L 55.413818 18.262862 
L 74.107636 13.277865 
L 88.128 18.861447 
L 111.495273 53.581504 
L 134.862545 41.25225 
" clip-path="url(#p13dd77826c)" style="fill: none; stroke: #fc8d62; stroke-width: 1.5; stroke-linecap: square"/>
   </g>
   <g id="PathCollection_2">
    <g clip-path="url(#p13dd77826c)">
     <use xlink:href="#m7efb77e65a" x="41.393455" y="42.06131" style="fill: #fc8d62; stroke: #000000"/>
     <use xlink:href="#m7efb77e65a" x="50.740364" y="62.717718" style="fill: #fc8d62; stroke: #000000"/>
     <use xlink:href="#m7efb77e65a" x="55.413818" y="18.262862" style="fill: #fc8d62; stroke: #000000"/>
     <use xlink:href="#m7efb77e65a" x="74.107636" y="13.277865" style="fill: #fc8d62; stroke: #000000"/>
     <use xlink:href="#m7efb77e65a" x="88.128" y="18.861447" style="fill: #fc8d62; stroke: #000000"/>
     <use xlink:href="#m7efb77e65a" x="111.495273" y="53.581504" style="fill: #fc8d62; stroke: #000000"/>
     <use xlink:href="#m7efb77e65a" x="134.862545" y="41.25225" style="fill: #fc8d62; stroke: #000000"/>
    </g>
   </g>
   <g id="LineCollection_2">
    <path d="M 41.393455 42.06131 
L 41.393455 42.06131 
" clip-path="url(#p13dd77826c)" style="fill: none; stroke: #000000"/>
    <path d="M 50.740364 67.021574 
L 50.740364 59.188989 
" clip-path="url(#p13dd77826c)" style="fill: none; stroke: #000000"/>
    <path d="M 55.413818 21.548361 
L 55.413818 15.448662 
" clip-path="url(#p13dd77826c)" style="fill: none; stroke: #000000"/>
    <path d="M 74.107636 20.107364 
L 74.107636 8.219061 
" clip-path="url(#p13dd77826c)" style="fill: none; stroke: #000000"/>
    <path d="M 88.128 21.00865 
L 88.128 16.92586 
" clip-path="url(#p13dd77826c)" style="fill: none; stroke: #000000"/>
    <path d="M 111.495273 56.425632 
L 111.495273 51.097344 
" clip-path="url(#p13dd77826c)" style="fill: none; stroke: #000000"/>
    <path d="M 134.862545 42.589699 
L 134.862545 40.00003 
" clip-path="url(#p13dd77826c)" style="fill: none; stroke: #000000"/>
   </g>
   <g id="line2d_5">
    <g clip-path="url(#p13dd77826c)">
     <use xlink:href="#md3a4411d4e" x="41.393455" y="42.06131" style="stroke: #000000"/>
     <use xlink:href="#md3a4411d4e" x="50.740364" y="67.021574" style="stroke: #000000"/>
     <use xlink:href="#md3a4411d4e" x="55.413818" y="21.548361" style="stroke: #000000"/>
     <use xlink:href="#md3a4411d4e" x="74.107636" y="20.107364" style="stroke: #000000"/>
     <use xlink:href="#md3a4411d4e" x="88.128" y="21.00865" style="stroke: #000000"/>
     <use xlink:href="#md3a4411d4e" x="111.495273" y="56.425632" style="stroke: #000000"/>
     <use xlink:href="#md3a4411d4e" x="134.862545" y="42.589699" style="stroke: #000000"/>
    </g>
   </g>
   <g id="line2d_6">
    <g clip-path="url(#p13dd77826c)">
     <use xlink:href="#md3a4411d4e" x="41.393455" y="42.06131" style="stroke: #000000"/>
     <use xlink:href="#md3a4411d4e" x="50.740364" y="59.188989" style="stroke: #000000"/>
     <use xlink:href="#md3a4411d4e" x="55.413818" y="15.448662" style="stroke: #000000"/>
     <use xlink:href="#md3a4411d4e" x="74.107636" y="8.219061" style="stroke: #000000"/>
     <use xlink:href="#md3a4411d4e" x="88.128" y="16.92586" style="stroke: #000000"/>
     <use xlink:href="#md3a4411d4e" x="111.495273" y="51.097344" style="stroke: #000000"/>
     <use xlink:href="#md3a4411d4e" x="134.862545" y="40.00003" style="stroke: #000000"/>
    </g>
   </g>
   <g id="line2d_7">
    <path d="M 41.393455 42.06131 
L 50.740364 72.272105 
L 55.413818 23.367601 
L 74.107636 18.188512 
L 88.128 16.828297 
L 111.495273 67.129115 
L 134.862545 75.027891 
" clip-path="url(#p13dd77826c)" style="fill: none; stroke: #fc8d62; stroke-width: 1.5; stroke-linecap: square"/>
   </g>
   <g id="PathCollection_3">
    <g clip-path="url(#p13dd77826c)">
     <use xlink:href="#m7efb77e65a" x="41.393455" y="42.06131" style="fill: #fc8d62; stroke: #000000"/>
     <use xlink:href="#m7efb77e65a" x="50.740364" y="72.272105" style="fill: #fc8d62; stroke: #000000"/>
     <use xlink:href="#m7efb77e65a" x="55.413818" y="23.367601" style="fill: #fc8d62; stroke: #000000"/>
     <use xlink:href="#m7efb77e65a" x="74.107636" y="18.188512" style="fill: #fc8d62; stroke: #000000"/>
     <use xlink:href="#m7efb77e65a" x="88.128" y="16.828297" style="fill: #fc8d62; stroke: #000000"/>
     <use xlink:href="#m7efb77e65a" x="111.495273" y="67.129115" style="fill: #fc8d62; stroke: #000000"/>
     <use xlink:href="#m7efb77e65a" x="134.862545" y="75.027891" style="fill: #fc8d62; stroke: #000000"/>
    </g>
   </g>
   <g id="LineCollection_3">
    <path d="M 41.393455 42.06131 
L 41.393455 42.06131 
" clip-path="url(#p13dd77826c)" style="fill: none; stroke: #000000"/>
    <path d="M 50.740364 83.905572 
L 50.740364 65.013251 
" clip-path="url(#p13dd77826c)" style="fill: none; stroke: #000000"/>
    <path d="M 55.413818 25.951678 
L 55.413818 21.084087 
" clip-path="url(#p13dd77826c)" style="fill: none; stroke: #000000"/>
    <path d="M 74.107636 22.534721 
L 74.107636 14.631399 
" clip-path="url(#p13dd77826c)" style="fill: none; stroke: #000000"/>
    <path d="M 88.128 22.334367 
L 88.128 12.531828 
" clip-path="url(#p13dd77826c)" style="fill: none; stroke: #000000"/>
    <path d="M 111.495273 71.210841 
L 111.495273 63.750935 
" clip-path="url(#p13dd77826c)" style="fill: none; stroke: #000000"/>
    <path d="M 134.862545 76.001803 
L 134.862545 74.099963 
" clip-path="url(#p13dd77826c)" style="fill: none; stroke: #000000"/>
   </g>
   <g id="line2d_8">
    <g clip-path="url(#p13dd77826c)">
     <use xlink:href="#md3a4411d4e" x="41.393455" y="42.06131" style="stroke: #000000"/>
     <use xlink:href="#md3a4411d4e" x="50.740364" y="83.905572" style="stroke: #000000"/>
     <use xlink:href="#md3a4411d4e" x="55.413818" y="25.951678" style="stroke: #000000"/>
     <use xlink:href="#md3a4411d4e" x="74.107636" y="22.534721" style="stroke: #000000"/>
     <use xlink:href="#md3a4411d4e" x="88.128" y="22.334367" style="stroke: #000000"/>
     <use xlink:href="#md3a4411d4e" x="111.495273" y="71.210841" style="stroke: #000000"/>
     <use xlink:href="#md3a4411d4e" x="134.862545" y="76.001803" style="stroke: #000000"/>
    </g>
   </g>
   <g id="line2d_9">
    <g clip-path="url(#p13dd77826c)">
     <use xlink:href="#md3a4411d4e" x="41.393455" y="42.06131" style="stroke: #000000"/>
     <use xlink:href="#md3a4411d4e" x="50.740364" y="65.013251" style="stroke: #000000"/>
     <use xlink:href="#md3a4411d4e" x="55.413818" y="21.084087" style="stroke: #000000"/>
     <use xlink:href="#md3a4411d4e" x="74.107636" y="14.631399" style="stroke: #000000"/>
     <use xlink:href="#md3a4411d4e" x="88.128" y="12.531828" style="stroke: #000000"/>
     <use xlink:href="#md3a4411d4e" x="111.495273" y="63.750935" style="stroke: #000000"/>
     <use xlink:href="#md3a4411d4e" x="134.862545" y="74.099963" style="stroke: #000000"/>
    </g>
   </g>
   <g id="line2d_10">
    <path d="M 41.393455 42.06131 
L 50.740364 73.54686 
L 55.413818 16.531505 
L 74.107636 14.442946 
L 88.128 17.566927 
L 111.495273 45.869529 
L 134.862545 50.087146 
" clip-path="url(#p13dd77826c)" style="fill: none"/>
   </g>
   <g id="line2d_11">
    <path d="M 41.393455 42.06131 
L 50.740364 62.717718 
L 55.413818 18.262862 
L 74.107636 13.277865 
L 88.128 18.861447 
L 111.495273 53.581504 
L 134.862545 41.25225 
" clip-path="url(#p13dd77826c)" style="fill: none"/>
   </g>
   <g id="line2d_12">
    <path d="M 41.393455 42.06131 
L 50.740364 72.272105 
L 55.413818 23.367601 
L 74.107636 18.188512 
L 88.128 16.828297 
L 111.495273 67.129115 
L 134.862545 75.027891 
" clip-path="url(#p13dd77826c)" style="fill: none"/>
   </g>
   <g id="line2d_13">
    <path d="M 41.393455 42.06131 
L 50.740364 73.54686 
L 55.413818 61.470752 
L 74.107636 77.607544 
L 88.128 73.313204 
L 111.495273 86.302725 
L 130.211045 137.8 
" clip-path="url(#p13dd77826c)" style="fill: none; stroke: #8da0cb; stroke-width: 1.5; stroke-linecap: square"/>
   </g>
   <g id="PathCollection_4">
    <defs>
     <path id="m667d2267dd" d="M 0 3.872983 
C 1.027127 3.872983 2.012324 3.464901 2.738613 2.738613 
C 3.464901 2.012324 3.872983 1.027127 3.872983 0 
C 3.872983 -1.027127 3.464901 -2.012324 2.738613 -2.738613 
C 2.012324 -3.464901 1.027127 -3.872983 0 -3.872983 
C -1.027127 -3.872983 -2.012324 -3.464901 -2.738613 -2.738613 
C -3.464901 -2.012324 -3.872983 -1.027127 -3.872983 0 
C -3.872983 1.027127 -3.464901 2.012324 -2.738613 2.738613 
C -2.012324 3.464901 -1.027127 3.872983 0 3.872983 
z
" style="stroke: #000000"/>
    </defs>
    <g clip-path="url(#p13dd77826c)">
     <use xlink:href="#m667d2267dd" x="41.393455" y="42.06131" style="fill: #8da0cb; stroke: #000000"/>
     <use xlink:href="#m667d2267dd" x="50.740364" y="73.54686" style="fill: #8da0cb; stroke: #000000"/>
     <use xlink:href="#m667d2267dd" x="55.413818" y="61.470752" style="fill: #8da0cb; stroke: #000000"/>
     <use xlink:href="#m667d2267dd" x="74.107636" y="77.607544" style="fill: #8da0cb; stroke: #000000"/>
     <use xlink:href="#m667d2267dd" x="88.128" y="73.313204" style="fill: #8da0cb; stroke: #000000"/>
     <use xlink:href="#m667d2267dd" x="111.495273" y="86.302725" style="fill: #8da0cb; stroke: #000000"/>
     <use xlink:href="#m667d2267dd" x="134.862545" y="150.598808" style="fill: #8da0cb; stroke: #000000"/>
    </g>
   </g>
   <g id="LineCollection_4">
    <path d="M 41.393455 42.06131 
L 41.393455 42.06131 
" clip-path="url(#p13dd77826c)" style="fill: none; stroke: #000000"/>
    <path d="M 50.740364 78.22457 
L 50.740364 69.771071 
" clip-path="url(#p13dd77826c)" style="fill: none; stroke: #000000"/>
    <path d="M 55.413818 64.98232 
L 55.413818 58.492429 
" clip-path="url(#p13dd77826c)" style="fill: none; stroke: #000000"/>
    <path d="M 74.107636 83.482405 
L 74.107636 73.090424 
" clip-path="url(#p13dd77826c)" style="fill: none; stroke: #000000"/>
    <path d="M 88.128 74.206088 
L 88.128 72.45912 
" clip-path="url(#p13dd77826c)" style="fill: none; stroke: #000000"/>
    <path d="M 111.495273 92.096078 
L 111.495273 81.833805 
" clip-path="url(#p13dd77826c)" style="fill: none; stroke: #000000"/>
    <path clip-path="url(#p13dd77826c)" style="fill: none; stroke: #000000"/>
   </g>
   <g id="line2d_14">
    <g clip-path="url(#p13dd77826c)">
     <use xlink:href="#md3a4411d4e" x="41.393455" y="42.06131" style="stroke: #000000"/>
     <use xlink:href="#md3a4411d4e" x="50.740364" y="78.22457" style="stroke: #000000"/>
     <use xlink:href="#md3a4411d4e" x="55.413818" y="64.98232" style="stroke: #000000"/>
     <use xlink:href="#md3a4411d4e" x="74.107636" y="83.482405" style="stroke: #000000"/>
     <use xlink:href="#md3a4411d4e" x="88.128" y="74.206088" style="stroke: #000000"/>
     <use xlink:href="#md3a4411d4e" x="111.495273" y="92.096078" style="stroke: #000000"/>
    </g>
   </g>
   <g id="line2d_15">
    <g clip-path="url(#p13dd77826c)">
     <use xlink:href="#md3a4411d4e" x="41.393455" y="42.06131" style="stroke: #000000"/>
     <use xlink:href="#md3a4411d4e" x="50.740364" y="69.771071" style="stroke: #000000"/>
     <use xlink:href="#md3a4411d4e" x="55.413818" y="58.492429" style="stroke: #000000"/>
     <use xlink:href="#md3a4411d4e" x="74.107636" y="73.090424" style="stroke: #000000"/>
     <use xlink:href="#md3a4411d4e" x="88.128" y="72.45912" style="stroke: #000000"/>
     <use xlink:href="#md3a4411d4e" x="111.495273" y="81.833805" style="stroke: #000000"/>
    </g>
   </g>
   <g id="line2d_16">
    <path d="M 41.393455 42.06131 
L 50.740364 62.717718 
L 55.413818 70.347074 
L 74.107636 82.076654 
L 88.128 80.657039 
L 111.495273 98.032031 
L 129.173149 137.8 
" clip-path="url(#p13dd77826c)" style="fill: none; stroke: #8da0cb; stroke-width: 1.5; stroke-linecap: square"/>
   </g>
   <g id="PathCollection_5">
    <g clip-path="url(#p13dd77826c)">
     <use xlink:href="#m667d2267dd" x="41.393455" y="42.06131" style="fill: #8da0cb; stroke: #000000"/>
     <use xlink:href="#m667d2267dd" x="50.740364" y="62.717718" style="fill: #8da0cb; stroke: #000000"/>
     <use xlink:href="#m667d2267dd" x="55.413818" y="70.347074" style="fill: #8da0cb; stroke: #000000"/>
     <use xlink:href="#m667d2267dd" x="74.107636" y="82.076654" style="fill: #8da0cb; stroke: #000000"/>
     <use xlink:href="#m667d2267dd" x="88.128" y="80.657039" style="fill: #8da0cb; stroke: #000000"/>
     <use xlink:href="#m667d2267dd" x="111.495273" y="98.032031" style="fill: #8da0cb; stroke: #000000"/>
     <use xlink:href="#m667d2267dd" x="134.862545" y="150.598808" style="fill: #8da0cb; stroke: #000000"/>
    </g>
   </g>
   <g id="LineCollection_5">
    <path d="M 41.393455 42.06131 
L 41.393455 42.06131 
" clip-path="url(#p13dd77826c)" style="fill: none; stroke: #000000"/>
    <path d="M 50.740364 67.021574 
L 50.740364 59.188989 
" clip-path="url(#p13dd77826c)" style="fill: none; stroke: #000000"/>
    <path d="M 55.413818 72.579325 
L 55.413818 68.34266 
" clip-path="url(#p13dd77826c)" style="fill: none; stroke: #000000"/>
    <path d="M 74.107636 86.308534 
L 74.107636 78.596393 
" clip-path="url(#p13dd77826c)" style="fill: none; stroke: #000000"/>
    <path d="M 88.128 82.566594 
L 88.128 78.916668 
" clip-path="url(#p13dd77826c)" style="fill: none; stroke: #000000"/>
    <path d="M 111.495273 104.542674 
L 111.495273 93.149595 
" clip-path="url(#p13dd77826c)" style="fill: none; stroke: #000000"/>
    <path clip-path="url(#p13dd77826c)" style="fill: none; stroke: #000000"/>
   </g>
   <g id="line2d_17">
    <g clip-path="url(#p13dd77826c)">
     <use xlink:href="#md3a4411d4e" x="41.393455" y="42.06131" style="stroke: #000000"/>
     <use xlink:href="#md3a4411d4e" x="50.740364" y="67.021574" style="stroke: #000000"/>
     <use xlink:href="#md3a4411d4e" x="55.413818" y="72.579325" style="stroke: #000000"/>
     <use xlink:href="#md3a4411d4e" x="74.107636" y="86.308534" style="stroke: #000000"/>
     <use xlink:href="#md3a4411d4e" x="88.128" y="82.566594" style="stroke: #000000"/>
     <use xlink:href="#md3a4411d4e" x="111.495273" y="104.542674" style="stroke: #000000"/>
     <use xlink:href="#md3a4411d4e" x="134.862545" y="150.807434" style="stroke: #000000"/>
    </g>
   </g>
   <g id="line2d_18">
    <g clip-path="url(#p13dd77826c)">
     <use xlink:href="#md3a4411d4e" x="41.393455" y="42.06131" style="stroke: #000000"/>
     <use xlink:href="#md3a4411d4e" x="50.740364" y="59.188989" style="stroke: #000000"/>
     <use xlink:href="#md3a4411d4e" x="55.413818" y="68.34266" style="stroke: #000000"/>
     <use xlink:href="#md3a4411d4e" x="74.107636" y="78.596393" style="stroke: #000000"/>
     <use xlink:href="#md3a4411d4e" x="88.128" y="78.916668" style="stroke: #000000"/>
     <use xlink:href="#md3a4411d4e" x="111.495273" y="93.149595" style="stroke: #000000"/>
     <use xlink:href="#md3a4411d4e" x="134.862545" y="150.392372" style="stroke: #000000"/>
    </g>
   </g>
   <g id="line2d_19">
    <path d="M 41.393455 42.06131 
L 50.740364 72.272105 
L 55.413818 60.626958 
L 74.107636 74.196337 
L 88.128 71.895907 
L 111.495273 132.135012 
L 118.664726 137.8 
" clip-path="url(#p13dd77826c)" style="fill: none; stroke: #8da0cb; stroke-width: 1.5; stroke-linecap: square"/>
   </g>
   <g id="PathCollection_6">
    <g clip-path="url(#p13dd77826c)">
     <use xlink:href="#m667d2267dd" x="41.393455" y="42.06131" style="fill: #8da0cb; stroke: #000000"/>
     <use xlink:href="#m667d2267dd" x="50.740364" y="72.272105" style="fill: #8da0cb; stroke: #000000"/>
     <use xlink:href="#m667d2267dd" x="55.413818" y="60.626958" style="fill: #8da0cb; stroke: #000000"/>
     <use xlink:href="#m667d2267dd" x="74.107636" y="74.196337" style="fill: #8da0cb; stroke: #000000"/>
     <use xlink:href="#m667d2267dd" x="88.128" y="71.895907" style="fill: #8da0cb; stroke: #000000"/>
     <use xlink:href="#m667d2267dd" x="111.495273" y="132.135012" style="fill: #8da0cb; stroke: #000000"/>
     <use xlink:href="#m667d2267dd" x="134.862545" y="150.598808" style="fill: #8da0cb; stroke: #000000"/>
    </g>
   </g>
   <g id="LineCollection_6">
    <path d="M 41.393455 42.06131 
L 41.393455 42.06131 
" clip-path="url(#p13dd77826c)" style="fill: none; stroke: #000000"/>
    <path d="M 50.740364 83.905572 
L 50.740364 65.013251 
" clip-path="url(#p13dd77826c)" style="fill: none; stroke: #000000"/>
    <path d="M 55.413818 65.935987 
L 55.413818 56.451131 
" clip-path="url(#p13dd77826c)" style="fill: none; stroke: #000000"/>
    <path d="M 74.107636 77.480467 
L 74.107636 71.383141 
" clip-path="url(#p13dd77826c)" style="fill: none; stroke: #000000"/>
    <path d="M 88.128 77.242477 
L 88.128 67.696944 
" clip-path="url(#p13dd77826c)" style="fill: none; stroke: #000000"/>
    <path d="M 111.495273 137.8 
L 111.495273 120.523835 
" clip-path="url(#p13dd77826c)" style="fill: none; stroke: #000000"/>
    <path clip-path="url(#p13dd77826c)" style="fill: none; stroke: #000000"/>
   </g>
   <g id="line2d_20">
    <g clip-path="url(#p13dd77826c)">
     <use xlink:href="#md3a4411d4e" x="41.393455" y="42.06131" style="stroke: #000000"/>
     <use xlink:href="#md3a4411d4e" x="50.740364" y="83.905572" style="stroke: #000000"/>
     <use xlink:href="#md3a4411d4e" x="55.413818" y="65.935987" style="stroke: #000000"/>
     <use xlink:href="#md3a4411d4e" x="74.107636" y="77.480467" style="stroke: #000000"/>
     <use xlink:href="#md3a4411d4e" x="88.128" y="77.242477" style="stroke: #000000"/>
     <use xlink:href="#md3a4411d4e" x="111.495273" y="164.291321" style="stroke: #000000"/>
     <use xlink:href="#md3a4411d4e" x="134.862545" y="151.175797" style="stroke: #000000"/>
    </g>
   </g>
   <g id="line2d_21">
    <g clip-path="url(#p13dd77826c)">
     <use xlink:href="#md3a4411d4e" x="41.393455" y="42.06131" style="stroke: #000000"/>
     <use xlink:href="#md3a4411d4e" x="50.740364" y="65.013251" style="stroke: #000000"/>
     <use xlink:href="#md3a4411d4e" x="55.413818" y="56.451131" style="stroke: #000000"/>
     <use xlink:href="#md3a4411d4e" x="74.107636" y="71.383141" style="stroke: #000000"/>
     <use xlink:href="#md3a4411d4e" x="88.128" y="67.696944" style="stroke: #000000"/>
     <use xlink:href="#md3a4411d4e" x="111.495273" y="120.523835" style="stroke: #000000"/>
     <use xlink:href="#md3a4411d4e" x="134.862545" y="150.038272" style="stroke: #000000"/>
    </g>
   </g>
   <g id="line2d_22">
    <path d="M 41.393455 42.06131 
L 50.740364 73.54686 
L 55.413818 61.470752 
L 74.107636 77.607544 
L 88.128 73.313204 
L 111.495273 86.302725 
L 130.211045 137.8 
" clip-path="url(#p13dd77826c)" style="fill: none"/>
   </g>
   <g id="line2d_23">
    <path d="M 41.393455 42.06131 
L 50.740364 62.717718 
L 55.413818 70.347074 
L 74.107636 82.076654 
L 88.128 80.657039 
L 111.495273 98.032031 
L 129.173149 137.8 
" clip-path="url(#p13dd77826c)" style="fill: none"/>
   </g>
   <g id="line2d_24">
    <path d="M 41.393455 42.06131 
L 50.740364 72.272105 
L 55.413818 60.626958 
L 74.107636 74.196337 
L 88.128 71.895907 
L 111.495273 132.135012 
L 118.664726 137.8 
" clip-path="url(#p13dd77826c)" style="fill: none"/>
   </g>
   <g id="matplotlib.axis_1">
    <g id="xtick_1">
     <g id="line2d_25">
      <defs>
       <path id="m4a86081944" d="M 0 0 
L 0 -3.5 
" style="stroke: #000000; stroke-width: 0.8"/>
      </defs>
      <g>
       <use xlink:href="#m4a86081944" x="41.393455" y="105.336" style="stroke: #000000; stroke-width: 0.8"/>
      </g>
     </g>
     <g id="text_1">
      <!-- 0 -->
      <g transform="translate(38.056892 117.444125) scale(0.12 -0.12)">
       <defs>
        <path id="Helvetica-30" d="M 1731 4475 
Q 2600 4475 2988 3759 
Q 3288 3206 3288 2244 
Q 3288 1331 3016 734 
Q 2622 -122 1728 -122 
Q 922 -122 528 578 
Q 200 1163 200 2147 
Q 200 2909 397 3456 
Q 766 4475 1731 4475 
z
M 1725 391 
Q 2163 391 2422 778 
Q 2681 1166 2681 2222 
Q 2681 2984 2493 3476 
Q 2306 3969 1766 3969 
Q 1269 3969 1039 3501 
Q 809 3034 809 2125 
Q 809 1441 956 1025 
Q 1181 391 1725 391 
z
" transform="scale(0.015625)"/>
       </defs>
       <use xlink:href="#Helvetica-30"/>
      </g>
     </g>
    </g>
    <g id="xtick_2">
     <g id="line2d_26">
      <g>
       <use xlink:href="#m4a86081944" x="88.128" y="105.336" style="stroke: #000000; stroke-width: 0.8"/>
      </g>
     </g>
     <g id="text_2">
      <!-- 10 -->
      <g transform="translate(81.454875 117.444125) scale(0.12 -0.12)">
       <defs>
        <path id="Helvetica-31" d="M 613 3169 
L 613 3600 
Q 1222 3659 1462 3798 
Q 1703 3938 1822 4456 
L 2266 4456 
L 2266 0 
L 1666 0 
L 1666 3169 
L 613 3169 
z
" transform="scale(0.015625)"/>
       </defs>
       <use xlink:href="#Helvetica-31"/>
       <use xlink:href="#Helvetica-30" x="55.615234"/>
      </g>
     </g>
    </g>
    <g id="xtick_3">
     <g id="line2d_27">
      <g>
       <use xlink:href="#m4a86081944" x="134.862545" y="105.336" style="stroke: #000000; stroke-width: 0.8"/>
      </g>
     </g>
     <g id="text_3">
      <!-- 20 -->
      <g transform="translate(128.18942 117.444125) scale(0.12 -0.12)">
       <defs>
        <path id="Helvetica-32" d="M 200 0 
Q 231 578 439 1006 
Q 647 1434 1250 1784 
L 1850 2131 
Q 2253 2366 2416 2531 
Q 2672 2791 2672 3125 
Q 2672 3516 2437 3745 
Q 2203 3975 1813 3975 
Q 1234 3975 1013 3538 
Q 894 3303 881 2888 
L 309 2888 
Q 319 3472 525 3841 
Q 891 4491 1816 4491 
Q 2584 4491 2939 4075 
Q 3294 3659 3294 3150 
Q 3294 2613 2916 2231 
Q 2697 2009 2131 1694 
L 1703 1456 
Q 1397 1288 1222 1134 
Q 909 863 828 531 
L 3272 531 
L 3272 0 
L 200 0 
z
" transform="scale(0.015625)"/>
       </defs>
       <use xlink:href="#Helvetica-32"/>
       <use xlink:href="#Helvetica-30" x="55.615234"/>
      </g>
     </g>
    </g>
   </g>
   <g id="matplotlib.axis_2">
    <g id="ytick_1">
     <g id="line2d_28">
      <defs>
       <path id="m9f9435edb7" d="M 0 0 
L 3.5 0 
" style="stroke: #000000; stroke-width: 0.8"/>
      </defs>
      <g>
       <use xlink:href="#m9f9435edb7" x="36.72" y="105.336" style="stroke: #000000; stroke-width: 0.8"/>
      </g>
     </g>
     <g id="text_4">
      <!-- $\mathdefault{10^{0}}$ -->
      <g transform="translate(14.74 109.640062) scale(0.12 -0.12)">
       <use xlink:href="#Helvetica-31" transform="translate(0 0.446875)"/>
       <use xlink:href="#Helvetica-30" transform="translate(55.615234 0.446875)"/>
       <use xlink:href="#Helvetica-30" transform="translate(112.145664 37.054688) scale(0.7)"/>
      </g>
     </g>
    </g>
    <g id="ytick_2">
     <g id="line2d_29">
      <g>
       <use xlink:href="#m9f9435edb7" x="36.72" y="60.073192" style="stroke: #000000; stroke-width: 0.8"/>
      </g>
     </g>
     <g id="text_5">
      <!-- $\mathdefault{10^{1}}$ -->
      <g transform="translate(14.74 64.377255) scale(0.12 -0.12)">
       <use xlink:href="#Helvetica-31" transform="translate(0 0.654688)"/>
       <use xlink:href="#Helvetica-30" transform="translate(55.615234 0.654688)"/>
       <use xlink:href="#Helvetica-31" transform="translate(112.145664 37.2625) scale(0.7)"/>
      </g>
     </g>
    </g>
    <g id="ytick_3">
     <g id="line2d_30">
      <g>
       <use xlink:href="#m9f9435edb7" x="36.72" y="14.810385" style="stroke: #000000; stroke-width: 0.8"/>
      </g>
     </g>
     <g id="text_6">
      <!-- $\mathdefault{10^{2}}$ -->
      <g transform="translate(14.74 19.114447) scale(0.12 -0.12)">
       <use xlink:href="#Helvetica-31" transform="translate(0 0.271875)"/>
       <use xlink:href="#Helvetica-30" transform="translate(55.615234 0.271875)"/>
       <use xlink:href="#Helvetica-32" transform="translate(112.145664 36.879688) scale(0.7)"/>
      </g>
     </g>
    </g>
    <g id="ytick_4">
     <g id="line2d_31">
      <defs>
       <path id="m210b2e1795" d="M 0 0 
L 2 0 
" style="stroke: #000000; stroke-width: 0.6"/>
      </defs>
      <g>
       <use xlink:href="#m210b2e1795" x="36.72" y="91.710537" style="stroke: #000000; stroke-width: 0.6"/>
      </g>
     </g>
    </g>
    <g id="ytick_5">
     <g id="line2d_32">
      <g>
       <use xlink:href="#m210b2e1795" x="36.72" y="83.740152" style="stroke: #000000; stroke-width: 0.6"/>
      </g>
     </g>
    </g>
    <g id="ytick_6">
     <g id="line2d_33">
      <g>
       <use xlink:href="#m210b2e1795" x="36.72" y="78.085074" style="stroke: #000000; stroke-width: 0.6"/>
      </g>
     </g>
    </g>
    <g id="ytick_7">
     <g id="line2d_34">
      <g>
       <use xlink:href="#m210b2e1795" x="36.72" y="73.698655" style="stroke: #000000; stroke-width: 0.6"/>
      </g>
     </g>
    </g>
    <g id="ytick_8">
     <g id="line2d_35">
      <g>
       <use xlink:href="#m210b2e1795" x="36.72" y="70.11469" style="stroke: #000000; stroke-width: 0.6"/>
      </g>
     </g>
    </g>
    <g id="ytick_9">
     <g id="line2d_36">
      <g>
       <use xlink:href="#m210b2e1795" x="36.72" y="67.08449" style="stroke: #000000; stroke-width: 0.6"/>
      </g>
     </g>
    </g>
    <g id="ytick_10">
     <g id="line2d_37">
      <g>
       <use xlink:href="#m210b2e1795" x="36.72" y="64.459612" style="stroke: #000000; stroke-width: 0.6"/>
      </g>
     </g>
    </g>
    <g id="ytick_11">
     <g id="line2d_38">
      <g>
       <use xlink:href="#m210b2e1795" x="36.72" y="62.144305" style="stroke: #000000; stroke-width: 0.6"/>
      </g>
     </g>
    </g>
    <g id="ytick_12">
     <g id="line2d_39">
      <g>
       <use xlink:href="#m210b2e1795" x="36.72" y="46.44773" style="stroke: #000000; stroke-width: 0.6"/>
      </g>
     </g>
    </g>
    <g id="ytick_13">
     <g id="line2d_40">
      <g>
       <use xlink:href="#m210b2e1795" x="36.72" y="38.477345" style="stroke: #000000; stroke-width: 0.6"/>
      </g>
     </g>
    </g>
    <g id="ytick_14">
     <g id="line2d_41">
      <g>
       <use xlink:href="#m210b2e1795" x="36.72" y="32.822267" style="stroke: #000000; stroke-width: 0.6"/>
      </g>
     </g>
    </g>
    <g id="ytick_15">
     <g id="line2d_42">
      <g>
       <use xlink:href="#m210b2e1795" x="36.72" y="28.435848" style="stroke: #000000; stroke-width: 0.6"/>
      </g>
     </g>
    </g>
    <g id="ytick_16">
     <g id="line2d_43">
      <g>
       <use xlink:href="#m210b2e1795" x="36.72" y="24.851882" style="stroke: #000000; stroke-width: 0.6"/>
      </g>
     </g>
    </g>
    <g id="ytick_17">
     <g id="line2d_44">
      <g>
       <use xlink:href="#m210b2e1795" x="36.72" y="21.821682" style="stroke: #000000; stroke-width: 0.6"/>
      </g>
     </g>
    </g>
    <g id="ytick_18">
     <g id="line2d_45">
      <g>
       <use xlink:href="#m210b2e1795" x="36.72" y="19.196804" style="stroke: #000000; stroke-width: 0.6"/>
      </g>
     </g>
    </g>
    <g id="ytick_19">
     <g id="line2d_46">
      <g>
       <use xlink:href="#m210b2e1795" x="36.72" y="16.881497" style="stroke: #000000; stroke-width: 0.6"/>
      </g>
     </g>
    </g>
   </g>
   <g id="patch_3">
    <path d="M 36.72 105.336 
L 36.72 6.84 
" style="fill: none; stroke: #000000; stroke-width: 0.8; stroke-linejoin: miter; stroke-linecap: square"/>
   </g>
   <g id="patch_4">
    <path d="M 139.536 105.336 
L 139.536 6.84 
" style="fill: none; stroke: #000000; stroke-width: 0.8; stroke-linejoin: miter; stroke-linecap: square"/>
   </g>
   <g id="patch_5">
    <path d="M 36.72 105.336 
L 139.536 105.336 
" style="fill: none; stroke: #000000; stroke-width: 0.8; stroke-linejoin: miter; stroke-linecap: square"/>
   </g>
   <g id="patch_6">
    <path d="M 36.72 6.84 
L 139.536 6.84 
" style="fill: none; stroke: #000000; stroke-width: 0.8; stroke-linejoin: miter; stroke-linecap: square"/>
   </g>
   <g id="text_7">
    <!-- pCU1 -->
    <g transform="translate(102.68829 26.5392) scale(0.12 -0.12)">
     <defs>
      <path id="Helvetica-70" d="M 1825 378 
Q 2219 378 2480 708 
Q 2741 1038 2741 1694 
Q 2741 2094 2625 2381 
Q 2406 2934 1825 2934 
Q 1241 2934 1025 2350 
Q 909 2038 909 1556 
Q 909 1169 1025 897 
Q 1244 378 1825 378 
z
M 369 3331 
L 916 3331 
L 916 2888 
Q 1084 3116 1284 3241 
Q 1569 3428 1953 3428 
Q 2522 3428 2919 2992 
Q 3316 2556 3316 1747 
Q 3316 653 2744 184 
Q 2381 -113 1900 -113 
Q 1522 -113 1266 53 
Q 1116 147 931 375 
L 931 -1334 
L 369 -1334 
L 369 3331 
z
" transform="scale(0.015625)"/>
      <path id="Helvetica-43" d="M 2422 4716 
Q 3294 4716 3775 4256 
Q 4256 3797 4309 3213 
L 3703 3213 
Q 3600 3656 3292 3915 
Q 2984 4175 2428 4175 
Q 1750 4175 1333 3698 
Q 916 3222 916 2238 
Q 916 1431 1292 929 
Q 1669 428 2416 428 
Q 3103 428 3463 956 
Q 3653 1234 3747 1688 
L 4353 1688 
Q 4272 963 3816 472 
Q 3269 -119 2341 -119 
Q 1541 -119 997 366 
Q 281 1006 281 2344 
Q 281 3359 819 4009 
Q 1400 4716 2422 4716 
z
M 2297 4716 
L 2297 4716 
z
" transform="scale(0.015625)"/>
      <path id="Helvetica-55" d="M 1163 4591 
L 1163 1753 
Q 1163 1253 1350 922 
Q 1628 422 2288 422 
Q 3078 422 3363 963 
Q 3516 1256 3516 1753 
L 3516 4591 
L 4147 4591 
L 4147 2013 
Q 4147 1166 3919 709 
Q 3500 -122 2338 -122 
Q 1175 -122 759 709 
Q 531 1166 531 2013 
L 531 4591 
L 1163 4591 
z
M 2341 4591 
L 2341 4591 
z
" transform="scale(0.015625)"/>
     </defs>
     <use xlink:href="#Helvetica-70"/>
     <use xlink:href="#Helvetica-43" x="55.615234"/>
     <use xlink:href="#Helvetica-55" x="127.832031"/>
     <use xlink:href="#Helvetica-31" x="200.048828"/>
    </g>
   </g>
  </g>
 </g>
 <defs>
  <clipPath id="p13dd77826c">
   <rect x="36.72" y="6.84" width="102.816" height="98.496"/>
  </clipPath>
 </defs>
</svg>
