<?xml version="1.0" encoding="utf-8" standalone="no"?>
<!DOCTYPE svg PUBLIC "-//W3C//DTD SVG 1.1//EN"
  "http://www.w3.org/Graphics/SVG/1.1/DTD/svg11.dtd">
<svg xmlns:xlink="http://www.w3.org/1999/xlink" width="147.6pt" height="136.8pt" viewBox="0 0 147.6 136.8" xmlns="http://www.w3.org/2000/svg" version="1.1">
 <metadata>
  <rdf:RDF xmlns:dc="http://purl.org/dc/elements/1.1/" xmlns:cc="http://creativecommons.org/ns#" xmlns:rdf="http://www.w3.org/1999/02/22-rdf-syntax-ns#">
   <cc:Work>
    <dc:type rdf:resource="http://purl.org/dc/dcmitype/StillImage"/>
    <dc:date>2026-07-21T21:25:47.716840</dc:date>
    <dc:format>image/svg+xml</dc:format>
    <dc:creator>
     <cc:Agent>
      <dc:title>Matplotlib v3.10.8, https://matplotlib.org/</dc:title>
     </cc:Agent>
    </dc:creator>
   </cc:Work>
  </rdf:RDF>
 </metadata>
 <defs>
  <style type="text/css">*{stroke-linejoin: round; stroke-linecap: butt}</style>
 </defs>
 <g id="figure_1">
  <g id="patch_1">
   <path d="M 0 136.8 
L 147.6 136.8 
L 147.6 0 
L 0 0 
z
" style="fill: #ffffff"/>
  </g>
  <g id="axes_1">
   <g id="patch_2">
    <path d="M 36.9 105.336 
L 140.22 105.336 
L 140.22 6.84 
L 36.9 6.84 
z
" style="fill: #ffffff"/>
   </g>
   <g id="FillBetweenPolyCollection_1">
    <defs>
     <path id="m3ec7ef63cb" d="M 50.989091 -129.96 
L 50.989091 -31.464 
L 55.685455 -31.464 
L 55.685455 -129.96 
L 55.685455 -129.96 
L 50.989091 -129.96 
z
" style="stroke: #808080; stroke-opacity: 0.3"/>
    </defs>
    <g clip-path="url(#p502c0339d9)">
     <use xlink:href="#m3ec7ef63cb" x="0" y="136.8" style="fill: #808080; fill-opacity: 0.3; stroke: #808080; stroke-opacity: 0.3"/>
    </g>
   </g>
   <g id="line2d_1">
    <path d="M 41.596364 42.06131 
L 50.989091 68.303944 
L 55.685455 20.100751 
L 74.470909 17.5074 
L 88.56 17.495103 
L 112.041818 47.477147 
L 135.523636 45.6964 
" clip-path="url(#p502c0339d9)" style="fill: none; stroke: #fc8d62; stroke-width: 1.5; stroke-linecap: square"/>
   </g>
   <g id="PathCollection_1">
    <defs>
     <path id="m930be5ddbf" d="M 0 3.872983 
C 1.027127 3.872983 2.012324 3.464901 2.738613 2.738613 
C 3.464901 2.012324 3.872983 1.027127 3.872983 0 
C 3.872983 -1.027127 3.464901 -2.012324 2.738613 -2.738613 
C 2.012324 -3.464901 1.027127 -3.872983 0 -3.872983 
C -1.027127 -3.872983 -2.012324 -3.464901 -2.738613 -2.738613 
C -3.464901 -2.012324 -3.872983 -1.027127 -3.872983 0 
C -3.872983 1.027127 -3.464901 2.012324 -2.738613 2.738613 
C -2.012324 3.464901 -1.027127 3.872983 0 3.872983 
z
" style="stroke: #000000"/>
    </defs>
    <g clip-path="url(#p502c0339d9)">
     <use xlink:href="#m930be5ddbf" x="41.596364" y="42.06131" style="fill: #fc8d62; stroke: #000000"/>
     <use xlink:href="#m930be5ddbf" x="50.989091" y="68.303944" style="fill: #fc8d62; stroke: #000000"/>
     <use xlink:href="#m930be5ddbf" x="55.685455" y="20.100751" style="fill: #fc8d62; stroke: #000000"/>
     <use xlink:href="#m930be5ddbf" x="74.470909" y="17.5074" style="fill: #fc8d62; stroke: #000000"/>
     <use xlink:href="#m930be5ddbf" x="88.56" y="17.495103" style="fill: #fc8d62; stroke: #000000"/>
     <use xlink:href="#m930be5ddbf" x="112.041818" y="47.477147" style="fill: #fc8d62; stroke: #000000"/>
     <use xlink:href="#m930be5ddbf" x="135.523636" y="45.6964" style="fill: #fc8d62; stroke: #000000"/>
    </g>
   </g>
   <g id="LineCollection_1">
    <path d="M 41.596364 42.06131 
L 41.596364 42.06131 
" clip-path="url(#p502c0339d9)" style="fill: none; stroke: #000000"/>
    <path d="M 50.989091 72.858395 
L 50.989091 64.608749 
" clip-path="url(#p502c0339d9)" style="fill: none; stroke: #000000"/>
    <path d="M 55.685455 23.808449 
L 55.685455 16.982646 
" clip-path="url(#p502c0339d9)" style="fill: none; stroke: #000000"/>
    <path d="M 74.470909 23.753506 
L 74.470909 12.774711 
" clip-path="url(#p502c0339d9)" style="fill: none; stroke: #000000"/>
    <path d="M 88.56 22.687656 
L 88.56 13.391514 
" clip-path="url(#p502c0339d9)" style="fill: none; stroke: #000000"/>
    <path d="M 112.041818 52.657506 
L 112.041818 43.381162 
" clip-path="url(#p502c0339d9)" style="fill: none; stroke: #000000"/>
    <path d="M 135.523636 48.465894 
L 135.523636 43.269346 
" clip-path="url(#p502c0339d9)" style="fill: none; stroke: #000000"/>
   </g>
   <g id="line2d_2">
    <defs>
     <path id="m9c9f9675d7" d="M 2 0 
L -2 -0 
" style="stroke: #000000"/>
    </defs>
    <g clip-path="url(#p502c0339d9)">
     <use xlink:href="#m9c9f9675d7" x="41.596364" y="42.06131" style="stroke: #000000"/>
     <use xlink:href="#m9c9f9675d7" x="50.989091" y="72.858395" style="stroke: #000000"/>
     <use xlink:href="#m9c9f9675d7" x="55.685455" y="23.808449" style="stroke: #000000"/>
     <use xlink:href="#m9c9f9675d7" x="74.470909" y="23.753506" style="stroke: #000000"/>
     <use xlink:href="#m9c9f9675d7" x="88.56" y="22.687656" style="stroke: #000000"/>
     <use xlink:href="#m9c9f9675d7" x="112.041818" y="52.657506" style="stroke: #000000"/>
     <use xlink:href="#m9c9f9675d7" x="135.523636" y="48.465894" style="stroke: #000000"/>
    </g>
   </g>
   <g id="line2d_3">
    <g clip-path="url(#p502c0339d9)">
     <use xlink:href="#m9c9f9675d7" x="41.596364" y="42.06131" style="stroke: #000000"/>
     <use xlink:href="#m9c9f9675d7" x="50.989091" y="64.608749" style="stroke: #000000"/>
     <use xlink:href="#m9c9f9675d7" x="55.685455" y="16.982646" style="stroke: #000000"/>
     <use xlink:href="#m9c9f9675d7" x="74.470909" y="12.774711" style="stroke: #000000"/>
     <use xlink:href="#m9c9f9675d7" x="88.56" y="13.391514" style="stroke: #000000"/>
     <use xlink:href="#m9c9f9675d7" x="112.041818" y="43.381162" style="stroke: #000000"/>
     <use xlink:href="#m9c9f9675d7" x="135.523636" y="43.269346" style="stroke: #000000"/>
    </g>
   </g>
   <g id="line2d_4">
    <path d="M 41.596364 42.06131 
L 50.989091 67.08449 
L 55.685455 20.613821 
L 74.470909 19.475637 
L 88.56 17.944318 
L 112.041818 32.628596 
L 135.523636 49.808313 
" clip-path="url(#p502c0339d9)" style="fill: none; stroke: #fc8d62; stroke-width: 1.5; stroke-linecap: square"/>
   </g>
   <g id="PathCollection_2">
    <g clip-path="url(#p502c0339d9)">
     <use xlink:href="#m930be5ddbf" x="41.596364" y="42.06131" style="fill: #fc8d62; stroke: #000000"/>
     <use xlink:href="#m930be5ddbf" x="50.989091" y="67.08449" style="fill: #fc8d62; stroke: #000000"/>
     <use xlink:href="#m930be5ddbf" x="55.685455" y="20.613821" style="fill: #fc8d62; stroke: #000000"/>
     <use xlink:href="#m930be5ddbf" x="74.470909" y="19.475637" style="fill: #fc8d62; stroke: #000000"/>
     <use xlink:href="#m930be5ddbf" x="88.56" y="17.944318" style="fill: #fc8d62; stroke: #000000"/>
     <use xlink:href="#m930be5ddbf" x="112.041818" y="32.628596" style="fill: #fc8d62; stroke: #000000"/>
     <use xlink:href="#m930be5ddbf" x="135.523636" y="49.808313" style="fill: #fc8d62; stroke: #000000"/>
    </g>
   </g>
   <g id="LineCollection_2">
    <path d="M 41.596364 42.06131 
L 41.596364 42.06131 
" clip-path="url(#p502c0339d9)" style="fill: none; stroke: #000000"/>
    <path d="M 50.989091 77.226487 
L 50.989091 60.42741 
" clip-path="url(#p502c0339d9)" style="fill: none; stroke: #000000"/>
    <path d="M 55.685455 22.530079 
L 55.685455 18.867885 
" clip-path="url(#p502c0339d9)" style="fill: none; stroke: #000000"/>
    <path d="M 74.470909 24.653563 
L 74.470909 15.381169 
" clip-path="url(#p502c0339d9)" style="fill: none; stroke: #000000"/>
    <path d="M 88.56 19.591378 
L 88.56 16.424656 
" clip-path="url(#p502c0339d9)" style="fill: none; stroke: #000000"/>
    <path d="M 112.041818 35.538981 
L 112.041818 30.094061 
" clip-path="url(#p502c0339d9)" style="fill: none; stroke: #000000"/>
    <path d="M 135.523636 51.352293 
L 135.523636 48.376823 
" clip-path="url(#p502c0339d9)" style="fill: none; stroke: #000000"/>
   </g>
   <g id="line2d_5">
    <g clip-path="url(#p502c0339d9)">
     <use xlink:href="#m9c9f9675d7" x="41.596364" y="42.06131" style="stroke: #000000"/>
     <use xlink:href="#m9c9f9675d7" x="50.989091" y="77.226487" style="stroke: #000000"/>
     <use xlink:href="#m9c9f9675d7" x="55.685455" y="22.530079" style="stroke: #000000"/>
     <use xlink:href="#m9c9f9675d7" x="74.470909" y="24.653563" style="stroke: #000000"/>
     <use xlink:href="#m9c9f9675d7" x="88.56" y="19.591378" style="stroke: #000000"/>
     <use xlink:href="#m9c9f9675d7" x="112.041818" y="35.538981" style="stroke: #000000"/>
     <use xlink:href="#m9c9f9675d7" x="135.523636" y="51.352293" style="stroke: #000000"/>
    </g>
   </g>
   <g id="line2d_6">
    <g clip-path="url(#p502c0339d9)">
     <use xlink:href="#m9c9f9675d7" x="41.596364" y="42.06131" style="stroke: #000000"/>
     <use xlink:href="#m9c9f9675d7" x="50.989091" y="60.42741" style="stroke: #000000"/>
     <use xlink:href="#m9c9f9675d7" x="55.685455" y="18.867885" style="stroke: #000000"/>
     <use xlink:href="#m9c9f9675d7" x="74.470909" y="15.381169" style="stroke: #000000"/>
     <use xlink:href="#m9c9f9675d7" x="88.56" y="16.424656" style="stroke: #000000"/>
     <use xlink:href="#m9c9f9675d7" x="112.041818" y="30.094061" style="stroke: #000000"/>
     <use xlink:href="#m9c9f9675d7" x="135.523636" y="48.376823" style="stroke: #000000"/>
    </g>
   </g>
   <g id="line2d_7">
    <path d="M 41.596364 42.06131 
L 50.989091 69.617008 
L 55.685455 16.520801 
L 74.470909 17.52606 
L 88.56 11.505252 
L 112.041818 37.706368 
L 135.523636 57.923607 
" clip-path="url(#p502c0339d9)" style="fill: none; stroke: #fc8d62; stroke-width: 1.5; stroke-linecap: square"/>
   </g>
   <g id="PathCollection_3">
    <g clip-path="url(#p502c0339d9)">
     <use xlink:href="#m930be5ddbf" x="41.596364" y="42.06131" style="fill: #fc8d62; stroke: #000000"/>
     <use xlink:href="#m930be5ddbf" x="50.989091" y="69.617008" style="fill: #fc8d62; stroke: #000000"/>
     <use xlink:href="#m930be5ddbf" x="55.685455" y="16.520801" style="fill: #fc8d62; stroke: #000000"/>
     <use xlink:href="#m930be5ddbf" x="74.470909" y="17.52606" style="fill: #fc8d62; stroke: #000000"/>
     <use xlink:href="#m930be5ddbf" x="88.56" y="11.505252" style="fill: #fc8d62; stroke: #000000"/>
     <use xlink:href="#m930be5ddbf" x="112.041818" y="37.706368" style="fill: #fc8d62; stroke: #000000"/>
     <use xlink:href="#m930be5ddbf" x="135.523636" y="57.923607" style="fill: #fc8d62; stroke: #000000"/>
    </g>
   </g>
   <g id="LineCollection_3">
    <path d="M 41.596364 42.06131 
L 41.596364 42.06131 
" clip-path="url(#p502c0339d9)" style="fill: none; stroke: #000000"/>
    <path d="M 50.989091 72.507758 
L 50.989091 67.097369 
" clip-path="url(#p502c0339d9)" style="fill: none; stroke: #000000"/>
    <path d="M 55.685455 23.325889 
L 55.685455 11.475343 
" clip-path="url(#p502c0339d9)" style="fill: none; stroke: #000000"/>
    <path d="M 74.470909 19.300322 
L 74.470909 15.898767 
" clip-path="url(#p502c0339d9)" style="fill: none; stroke: #000000"/>
    <path d="M 88.56 13.905117 
L 88.56 9.366754 
" clip-path="url(#p502c0339d9)" style="fill: none; stroke: #000000"/>
    <path d="M 112.041818 42.893242 
L 112.041818 33.606319 
" clip-path="url(#p502c0339d9)" style="fill: none; stroke: #000000"/>
    <path d="M 135.523636 60.449568 
L 135.523636 55.685582 
" clip-path="url(#p502c0339d9)" style="fill: none; stroke: #000000"/>
   </g>
   <g id="line2d_8">
    <g clip-path="url(#p502c0339d9)">
     <use xlink:href="#m9c9f9675d7" x="41.596364" y="42.06131" style="stroke: #000000"/>
     <use xlink:href="#m9c9f9675d7" x="50.989091" y="72.507758" style="stroke: #000000"/>
     <use xlink:href="#m9c9f9675d7" x="55.685455" y="23.325889" style="stroke: #000000"/>
     <use xlink:href="#m9c9f9675d7" x="74.470909" y="19.300322" style="stroke: #000000"/>
     <use xlink:href="#m9c9f9675d7" x="88.56" y="13.905117" style="stroke: #000000"/>
     <use xlink:href="#m9c9f9675d7" x="112.041818" y="42.893242" style="stroke: #000000"/>
     <use xlink:href="#m9c9f9675d7" x="135.523636" y="60.449568" style="stroke: #000000"/>
    </g>
   </g>
   <g id="line2d_9">
    <g clip-path="url(#p502c0339d9)">
     <use xlink:href="#m9c9f9675d7" x="41.596364" y="42.06131" style="stroke: #000000"/>
     <use xlink:href="#m9c9f9675d7" x="50.989091" y="67.097369" style="stroke: #000000"/>
     <use xlink:href="#m9c9f9675d7" x="55.685455" y="11.475343" style="stroke: #000000"/>
     <use xlink:href="#m9c9f9675d7" x="74.470909" y="15.898767" style="stroke: #000000"/>
     <use xlink:href="#m9c9f9675d7" x="88.56" y="9.366754" style="stroke: #000000"/>
     <use xlink:href="#m9c9f9675d7" x="112.041818" y="33.606319" style="stroke: #000000"/>
     <use xlink:href="#m9c9f9675d7" x="135.523636" y="55.685582" style="stroke: #000000"/>
    </g>
   </g>
   <g id="line2d_10">
    <path d="M 41.596364 42.06131 
L 50.989091 68.303944 
L 55.685455 20.100751 
L 74.470909 17.5074 
L 88.56 17.495103 
L 112.041818 47.477147 
L 135.523636 45.6964 
" clip-path="url(#p502c0339d9)" style="fill: none"/>
   </g>
   <g id="line2d_11">
    <path d="M 41.596364 42.06131 
L 50.989091 67.08449 
L 55.685455 20.613821 
L 74.470909 19.475637 
L 88.56 17.944318 
L 112.041818 32.628596 
L 135.523636 49.808313 
" clip-path="url(#p502c0339d9)" style="fill: none"/>
   </g>
   <g id="line2d_12">
    <path d="M 41.596364 42.06131 
L 50.989091 69.617008 
L 55.685455 16.520801 
L 74.470909 17.52606 
L 88.56 11.505252 
L 112.041818 37.706368 
L 135.523636 57.923607 
" clip-path="url(#p502c0339d9)" style="fill: none"/>
   </g>
   <g id="line2d_13">
    <path d="M 41.596364 42.06131 
L 50.989091 68.303944 
L 55.685455 57.325838 
L 74.470909 72.096715 
L 88.56 84.425582 
L 112.041818 78.482207 
L 131.356229 137.8 
" clip-path="url(#p502c0339d9)" style="fill: none; stroke: #8da0cb; stroke-width: 1.5; stroke-linecap: square"/>
   </g>
   <g id="PathCollection_4">
    <defs>
     <path id="m3c1d06024a" d="M 0 3.872983 
C 1.027127 3.872983 2.012324 3.464901 2.738613 2.738613 
C 3.464901 2.012324 3.872983 1.027127 3.872983 0 
C 3.872983 -1.027127 3.464901 -2.012324 2.738613 -2.738613 
C 2.012324 -3.464901 1.027127 -3.872983 0 -3.872983 
C -1.027127 -3.872983 -2.012324 -3.464901 -2.738613 -2.738613 
C -3.464901 -2.012324 -3.872983 -1.027127 -3.872983 0 
C -3.872983 1.027127 -3.464901 2.012324 -2.738613 2.738613 
C -2.012324 3.464901 -1.027127 3.872983 0 3.872983 
z
" style="stroke: #000000"/>
    </defs>
    <g clip-path="url(#p502c0339d9)">
     <use xlink:href="#m3c1d06024a" x="41.596364" y="42.06131" style="fill: #8da0cb; stroke: #000000"/>
     <use xlink:href="#m3c1d06024a" x="50.989091" y="68.303944" style="fill: #8da0cb; stroke: #000000"/>
     <use xlink:href="#m3c1d06024a" x="55.685455" y="57.325838" style="fill: #8da0cb; stroke: #000000"/>
     <use xlink:href="#m3c1d06024a" x="74.470909" y="72.096715" style="fill: #8da0cb; stroke: #000000"/>
     <use xlink:href="#m3c1d06024a" x="88.56" y="84.425582" style="fill: #8da0cb; stroke: #000000"/>
     <use xlink:href="#m3c1d06024a" x="112.041818" y="78.482207" style="fill: #8da0cb; stroke: #000000"/>
     <use xlink:href="#m3c1d06024a" x="135.523636" y="150.598808" style="fill: #8da0cb; stroke: #000000"/>
    </g>
   </g>
   <g id="LineCollection_4">
    <path d="M 41.596364 42.06131 
L 41.596364 42.06131 
" clip-path="url(#p502c0339d9)" style="fill: none; stroke: #000000"/>
    <path d="M 50.989091 72.858395 
L 50.989091 64.608749 
" clip-path="url(#p502c0339d9)" style="fill: none; stroke: #000000"/>
    <path d="M 55.685455 60.110959 
L 55.685455 54.886795 
" clip-path="url(#p502c0339d9)" style="fill: none; stroke: #000000"/>
    <path d="M 74.470909 76.182179 
L 74.470909 68.715977 
" clip-path="url(#p502c0339d9)" style="fill: none; stroke: #000000"/>
    <path d="M 88.56 90.462368 
L 88.56 79.813646 
" clip-path="url(#p502c0339d9)" style="fill: none; stroke: #000000"/>
    <path d="M 112.041818 85.420214 
L 112.041818 73.364389 
" clip-path="url(#p502c0339d9)" style="fill: none; stroke: #000000"/>
    <path clip-path="url(#p502c0339d9)" style="fill: none; stroke: #000000"/>
   </g>
   <g id="line2d_14">
    <g clip-path="url(#p502c0339d9)">
     <use xlink:href="#m9c9f9675d7" x="41.596364" y="42.06131" style="stroke: #000000"/>
     <use xlink:href="#m9c9f9675d7" x="50.989091" y="72.858395" style="stroke: #000000"/>
     <use xlink:href="#m9c9f9675d7" x="55.685455" y="60.110959" style="stroke: #000000"/>
     <use xlink:href="#m9c9f9675d7" x="74.470909" y="76.182179" style="stroke: #000000"/>
     <use xlink:href="#m9c9f9675d7" x="88.56" y="90.462368" style="stroke: #000000"/>
     <use xlink:href="#m9c9f9675d7" x="112.041818" y="85.420214" style="stroke: #000000"/>
     <use xlink:href="#m9c9f9675d7" x="135.523636" y="150.893515" style="stroke: #000000"/>
    </g>
   </g>
   <g id="line2d_15">
    <g clip-path="url(#p502c0339d9)">
     <use xlink:href="#m9c9f9675d7" x="41.596364" y="42.06131" style="stroke: #000000"/>
     <use xlink:href="#m9c9f9675d7" x="50.989091" y="64.608749" style="stroke: #000000"/>
     <use xlink:href="#m9c9f9675d7" x="55.685455" y="54.886795" style="stroke: #000000"/>
     <use xlink:href="#m9c9f9675d7" x="74.470909" y="68.715977" style="stroke: #000000"/>
     <use xlink:href="#m9c9f9675d7" x="88.56" y="79.813646" style="stroke: #000000"/>
     <use xlink:href="#m9c9f9675d7" x="112.041818" y="73.364389" style="stroke: #000000"/>
     <use xlink:href="#m9c9f9675d7" x="135.523636" y="150.308453" style="stroke: #000000"/>
    </g>
   </g>
   <g id="line2d_16">
    <path d="M 41.596364 42.06131 
L 50.989091 67.08449 
L 55.685455 64.30172 
L 74.470909 77.515255 
L 88.56 89.70173 
L 112.041818 93.526355 
L 130.257711 137.8 
" clip-path="url(#p502c0339d9)" style="fill: none; stroke: #8da0cb; stroke-width: 1.5; stroke-linecap: square"/>
   </g>
   <g id="PathCollection_5">
    <g clip-path="url(#p502c0339d9)">
     <use xlink:href="#m3c1d06024a" x="41.596364" y="42.06131" style="fill: #8da0cb; stroke: #000000"/>
     <use xlink:href="#m3c1d06024a" x="50.989091" y="67.08449" style="fill: #8da0cb; stroke: #000000"/>
     <use xlink:href="#m3c1d06024a" x="55.685455" y="64.30172" style="fill: #8da0cb; stroke: #000000"/>
     <use xlink:href="#m3c1d06024a" x="74.470909" y="77.515255" style="fill: #8da0cb; stroke: #000000"/>
     <use xlink:href="#m3c1d06024a" x="88.56" y="89.70173" style="fill: #8da0cb; stroke: #000000"/>
     <use xlink:href="#m3c1d06024a" x="112.041818" y="93.526355" style="fill: #8da0cb; stroke: #000000"/>
     <use xlink:href="#m3c1d06024a" x="135.523636" y="150.598808" style="fill: #8da0cb; stroke: #000000"/>
    </g>
   </g>
   <g id="LineCollection_5">
    <path d="M 41.596364 42.06131 
L 41.596364 42.06131 
" clip-path="url(#p502c0339d9)" style="fill: none; stroke: #000000"/>
    <path d="M 50.989091 77.226487 
L 50.989091 60.42741 
" clip-path="url(#p502c0339d9)" style="fill: none; stroke: #000000"/>
    <path d="M 55.685455 68.099771 
L 55.685455 61.120017 
" clip-path="url(#p502c0339d9)" style="fill: none; stroke: #000000"/>
    <path d="M 74.470909 84.721644 
L 74.470909 72.253606 
" clip-path="url(#p502c0339d9)" style="fill: none; stroke: #000000"/>
    <path d="M 88.56 92.665749 
L 88.56 87.126634 
" clip-path="url(#p502c0339d9)" style="fill: none; stroke: #000000"/>
    <path d="M 112.041818 100.51301 
L 112.041818 88.382242 
" clip-path="url(#p502c0339d9)" style="fill: none; stroke: #000000"/>
    <path clip-path="url(#p502c0339d9)" style="fill: none; stroke: #000000"/>
   </g>
   <g id="line2d_17">
    <g clip-path="url(#p502c0339d9)">
     <use xlink:href="#m9c9f9675d7" x="41.596364" y="42.06131" style="stroke: #000000"/>
     <use xlink:href="#m9c9f9675d7" x="50.989091" y="77.226487" style="stroke: #000000"/>
     <use xlink:href="#m9c9f9675d7" x="55.685455" y="68.099771" style="stroke: #000000"/>
     <use xlink:href="#m9c9f9675d7" x="74.470909" y="84.721644" style="stroke: #000000"/>
     <use xlink:href="#m9c9f9675d7" x="88.56" y="92.665749" style="stroke: #000000"/>
     <use xlink:href="#m9c9f9675d7" x="112.041818" y="100.51301" style="stroke: #000000"/>
    </g>
   </g>
   <g id="line2d_18">
    <g clip-path="url(#p502c0339d9)">
     <use xlink:href="#m9c9f9675d7" x="41.596364" y="42.06131" style="stroke: #000000"/>
     <use xlink:href="#m9c9f9675d7" x="50.989091" y="60.42741" style="stroke: #000000"/>
     <use xlink:href="#m9c9f9675d7" x="55.685455" y="61.120017" style="stroke: #000000"/>
     <use xlink:href="#m9c9f9675d7" x="74.470909" y="72.253606" style="stroke: #000000"/>
     <use xlink:href="#m9c9f9675d7" x="88.56" y="87.126634" style="stroke: #000000"/>
     <use xlink:href="#m9c9f9675d7" x="112.041818" y="88.382242" style="stroke: #000000"/>
    </g>
   </g>
   <g id="line2d_19">
    <path d="M 41.596364 42.06131 
L 50.989091 69.617008 
L 55.685455 81.227282 
L 74.470909 86.963422 
L 88.56 83.526483 
L 112.041818 71.697873 
L 131.714565 137.8 
" clip-path="url(#p502c0339d9)" style="fill: none; stroke: #8da0cb; stroke-width: 1.5; stroke-linecap: square"/>
   </g>
   <g id="PathCollection_6">
    <g clip-path="url(#p502c0339d9)">
     <use xlink:href="#m3c1d06024a" x="41.596364" y="42.06131" style="fill: #8da0cb; stroke: #000000"/>
     <use xlink:href="#m3c1d06024a" x="50.989091" y="69.617008" style="fill: #8da0cb; stroke: #000000"/>
     <use xlink:href="#m3c1d06024a" x="55.685455" y="81.227282" style="fill: #8da0cb; stroke: #000000"/>
     <use xlink:href="#m3c1d06024a" x="74.470909" y="86.963422" style="fill: #8da0cb; stroke: #000000"/>
     <use xlink:href="#m3c1d06024a" x="88.56" y="83.526483" style="fill: #8da0cb; stroke: #000000"/>
     <use xlink:href="#m3c1d06024a" x="112.041818" y="71.697873" style="fill: #8da0cb; stroke: #000000"/>
     <use xlink:href="#m3c1d06024a" x="135.523636" y="150.598808" style="fill: #8da0cb; stroke: #000000"/>
    </g>
   </g>
   <g id="LineCollection_6">
    <path d="M 41.596364 42.06131 
L 41.596364 42.06131 
" clip-path="url(#p502c0339d9)" style="fill: none; stroke: #000000"/>
    <path d="M 50.989091 72.507758 
L 50.989091 67.097369 
" clip-path="url(#p502c0339d9)" style="fill: none; stroke: #000000"/>
    <path d="M 55.685455 84.379559 
L 55.685455 78.511341 
" clip-path="url(#p502c0339d9)" style="fill: none; stroke: #000000"/>
    <path d="M 74.470909 96.055032 
L 74.470909 80.770836 
" clip-path="url(#p502c0339d9)" style="fill: none; stroke: #000000"/>
    <path d="M 88.56 88.046644 
L 88.56 79.85386 
" clip-path="url(#p502c0339d9)" style="fill: none; stroke: #000000"/>
    <path d="M 112.041818 74.526398 
L 112.041818 69.225621 
" clip-path="url(#p502c0339d9)" style="fill: none; stroke: #000000"/>
    <path clip-path="url(#p502c0339d9)" style="fill: none; stroke: #000000"/>
   </g>
   <g id="line2d_20">
    <g clip-path="url(#p502c0339d9)">
     <use xlink:href="#m9c9f9675d7" x="41.596364" y="42.06131" style="stroke: #000000"/>
     <use xlink:href="#m9c9f9675d7" x="50.989091" y="72.507758" style="stroke: #000000"/>
     <use xlink:href="#m9c9f9675d7" x="55.685455" y="84.379559" style="stroke: #000000"/>
     <use xlink:href="#m9c9f9675d7" x="74.470909" y="96.055032" style="stroke: #000000"/>
     <use xlink:href="#m9c9f9675d7" x="88.56" y="88.046644" style="stroke: #000000"/>
     <use xlink:href="#m9c9f9675d7" x="112.041818" y="74.526398" style="stroke: #000000"/>
     <use xlink:href="#m9c9f9675d7" x="135.523636" y="150.720574" style="stroke: #000000"/>
    </g>
   </g>
   <g id="line2d_21">
    <g clip-path="url(#p502c0339d9)">
     <use xlink:href="#m9c9f9675d7" x="41.596364" y="42.06131" style="stroke: #000000"/>
     <use xlink:href="#m9c9f9675d7" x="50.989091" y="67.097369" style="stroke: #000000"/>
     <use xlink:href="#m9c9f9675d7" x="55.685455" y="78.511341" style="stroke: #000000"/>
     <use xlink:href="#m9c9f9675d7" x="74.470909" y="80.770836" style="stroke: #000000"/>
     <use xlink:href="#m9c9f9675d7" x="88.56" y="79.85386" style="stroke: #000000"/>
     <use xlink:href="#m9c9f9675d7" x="112.041818" y="69.225621" style="stroke: #000000"/>
     <use xlink:href="#m9c9f9675d7" x="135.523636" y="150.47779" style="stroke: #000000"/>
    </g>
   </g>
   <g id="line2d_22">
    <path d="M 41.596364 42.06131 
L 50.989091 68.303944 
L 55.685455 57.325838 
L 74.470909 72.096715 
L 88.56 84.425582 
L 112.041818 78.482207 
L 131.356229 137.8 
" clip-path="url(#p502c0339d9)" style="fill: none"/>
   </g>
   <g id="line2d_23">
    <path d="M 41.596364 42.06131 
L 50.989091 67.08449 
L 55.685455 64.30172 
L 74.470909 77.515255 
L 88.56 89.70173 
L 112.041818 93.526355 
L 130.257711 137.8 
" clip-path="url(#p502c0339d9)" style="fill: none"/>
   </g>
   <g id="line2d_24">
    <path d="M 41.596364 42.06131 
L 50.989091 69.617008 
L 55.685455 81.227282 
L 74.470909 86.963422 
L 88.56 83.526483 
L 112.041818 71.697873 
L 131.714565 137.8 
" clip-path="url(#p502c0339d9)" style="fill: none"/>
   </g>
   <g id="matplotlib.axis_1">
    <g id="xtick_1">
     <g id="line2d_25">
      <defs>
       <path id="m1ff43e0a5d" d="M 0 0 
L 0 -5 
" style="stroke: #000000; stroke-width: 0.8"/>
      </defs>
      <g>
       <use xlink:href="#m1ff43e0a5d" x="41.596364" y="105.336" style="stroke: #000000; stroke-width: 0.8"/>
      </g>
     </g>
     <g id="text_1">
      <!-- 0 -->
      <g transform="translate(38.259801 117.444125) scale(0.12 -0.12)">
       <defs>
        <path id="Helvetica-30" d="M 1731 4475 
Q 2600 4475 2988 3759 
Q 3288 3206 3288 2244 
Q 3288 1331 3016 734 
Q 2622 -122 1728 -122 
Q 922 -122 528 578 
Q 200 1163 200 2147 
Q 200 2909 397 3456 
Q 766 4475 1731 4475 
z
M 1725 391 
Q 2163 391 2422 778 
Q 2681 1166 2681 2222 
Q 2681 2984 2493 3476 
Q 2306 3969 1766 3969 
Q 1269 3969 1039 3501 
Q 809 3034 809 2125 
Q 809 1441 956 1025 
Q 1181 391 1725 391 
z
" transform="scale(0.015625)"/>
       </defs>
       <use xlink:href="#Helvetica-30"/>
      </g>
     </g>
    </g>
    <g id="xtick_2">
     <g id="line2d_26">
      <g>
       <use xlink:href="#m1ff43e0a5d" x="88.56" y="105.336" style="stroke: #000000; stroke-width: 0.8"/>
      </g>
     </g>
     <g id="text_2">
      <!-- 10 -->
      <g transform="translate(81.886875 117.444125) scale(0.12 -0.12)">
       <defs>
        <path id="Helvetica-31" d="M 613 3169 
L 613 3600 
Q 1222 3659 1462 3798 
Q 1703 3938 1822 4456 
L 2266 4456 
L 2266 0 
L 1666 0 
L 1666 3169 
L 613 3169 
z
" transform="scale(0.015625)"/>
       </defs>
       <use xlink:href="#Helvetica-31"/>
       <use xlink:href="#Helvetica-30" transform="translate(55.615234 0)"/>
      </g>
     </g>
    </g>
    <g id="xtick_3">
     <g id="line2d_27">
      <g>
       <use xlink:href="#m1ff43e0a5d" x="135.523636" y="105.336" style="stroke: #000000; stroke-width: 0.8"/>
      </g>
     </g>
     <g id="text_3">
      <!-- 20 -->
      <g transform="translate(128.850511 117.444125) scale(0.12 -0.12)">
       <defs>
        <path id="Helvetica-32" d="M 200 0 
Q 231 578 439 1006 
Q 647 1434 1250 1784 
L 1850 2131 
Q 2253 2366 2416 2531 
Q 2672 2791 2672 3125 
Q 2672 3516 2437 3745 
Q 2203 3975 1813 3975 
Q 1234 3975 1013 3538 
Q 894 3303 881 2888 
L 309 2888 
Q 319 3472 525 3841 
Q 891 4491 1816 4491 
Q 2584 4491 2939 4075 
Q 3294 3659 3294 3150 
Q 3294 2613 2916 2231 
Q 2697 2009 2131 1694 
L 1703 1456 
Q 1397 1288 1222 1134 
Q 909 863 828 531 
L 3272 531 
L 3272 0 
L 200 0 
z
" transform="scale(0.015625)"/>
       </defs>
       <use xlink:href="#Helvetica-32"/>
       <use xlink:href="#Helvetica-30" transform="translate(55.615234 0)"/>
      </g>
     </g>
    </g>
    <g id="text_4">
     <!-- time (days) -->
     <g transform="translate(56.4175 133.423187) scale(0.13 -0.13)">
      <defs>
       <path id="Helvetica-74" d="M 525 4281 
L 1094 4281 
L 1094 3347 
L 1628 3347 
L 1628 2888 
L 1094 2888 
L 1094 703 
Q 1094 528 1213 469 
Q 1278 434 1431 434 
Q 1472 434 1519 436 
Q 1566 438 1628 444 
L 1628 0 
Q 1531 -28 1426 -40 
Q 1322 -53 1200 -53 
Q 806 -53 665 148 
Q 525 350 525 672 
L 525 2888 
L 72 2888 
L 72 3347 
L 525 3347 
L 525 4281 
z
" transform="scale(0.015625)"/>
       <path id="Helvetica-69" d="M 413 3331 
L 984 3331 
L 984 0 
L 413 0 
L 413 3331 
z
M 413 4591 
L 984 4591 
L 984 3953 
L 413 3953 
L 413 4591 
z
" transform="scale(0.015625)"/>
       <path id="Helvetica-6d" d="M 413 3347 
L 969 3347 
L 969 2872 
Q 1169 3119 1331 3231 
Q 1609 3422 1963 3422 
Q 2363 3422 2606 3225 
Q 2744 3113 2856 2894 
Q 3044 3163 3297 3292 
Q 3550 3422 3866 3422 
Q 4541 3422 4784 2934 
Q 4916 2672 4916 2228 
L 4916 0 
L 4331 0 
L 4331 2325 
Q 4331 2659 4164 2784 
Q 3997 2909 3756 2909 
Q 3425 2909 3186 2687 
Q 2947 2466 2947 1947 
L 2947 0 
L 2375 0 
L 2375 2184 
Q 2375 2525 2294 2681 
Q 2166 2916 1816 2916 
Q 1497 2916 1236 2669 
Q 975 2422 975 1775 
L 975 0 
L 413 0 
L 413 3347 
z
" transform="scale(0.015625)"/>
       <path id="Helvetica-65" d="M 1806 3422 
Q 2163 3422 2497 3255 
Q 2831 3088 3006 2822 
Q 3175 2569 3231 2231 
Q 3281 2000 3281 1494 
L 828 1494 
Q 844 984 1069 676 
Q 1294 369 1766 369 
Q 2206 369 2469 659 
Q 2619 828 2681 1050 
L 3234 1050 
Q 3213 866 3089 639 
Q 2966 413 2813 269 
Q 2556 19 2178 -69 
Q 1975 -119 1719 -119 
Q 1094 -119 659 336 
Q 225 791 225 1609 
Q 225 2416 662 2919 
Q 1100 3422 1806 3422 
z
M 2703 1941 
Q 2669 2306 2544 2525 
Q 2313 2931 1772 2931 
Q 1384 2931 1121 2651 
Q 859 2372 844 1941 
L 2703 1941 
z
M 1753 3428 
L 1753 3428 
z
" transform="scale(0.015625)"/>
       <path id="Helvetica-20" transform="scale(0.015625)"/>
       <path id="Helvetica-28" d="M 1894 4666 
Q 1403 3713 1256 3263 
Q 1034 2578 1034 1681 
Q 1034 775 1288 25 
Q 1444 -438 1903 -1306 
L 1525 -1306 
Q 1069 -594 959 -397 
Q 850 -200 722 138 
Q 547 600 478 1125 
Q 444 1397 444 1644 
Q 444 2569 734 3291 
Q 919 3750 1503 4666 
L 1894 4666 
z
" transform="scale(0.015625)"/>
       <path id="Helvetica-64" d="M 769 1634 
Q 769 1097 997 734 
Q 1225 372 1728 372 
Q 2119 372 2370 708 
Q 2622 1044 2622 1672 
Q 2622 2306 2362 2611 
Q 2103 2916 1722 2916 
Q 1297 2916 1033 2591 
Q 769 2266 769 1634 
z
M 1616 3406 
Q 2000 3406 2259 3244 
Q 2409 3150 2600 2916 
L 2600 4606 
L 3141 4606 
L 3141 0 
L 2634 0 
L 2634 466 
Q 2438 156 2169 18 
Q 1900 -119 1553 -119 
Q 994 -119 584 351 
Q 175 822 175 1603 
Q 175 2334 548 2870 
Q 922 3406 1616 3406 
z
" transform="scale(0.015625)"/>
       <path id="Helvetica-61" d="M 844 891 
Q 844 647 1022 506 
Q 1200 366 1444 366 
Q 1741 366 2019 503 
Q 2488 731 2488 1250 
L 2488 1703 
Q 2384 1638 2221 1594 
Q 2059 1550 1903 1531 
L 1563 1488 
Q 1256 1447 1103 1359 
Q 844 1213 844 891 
z
M 2206 2028 
Q 2400 2053 2466 2191 
Q 2503 2266 2503 2406 
Q 2503 2694 2298 2823 
Q 2094 2953 1713 2953 
Q 1272 2953 1088 2716 
Q 984 2584 953 2325 
L 428 2325 
Q 444 2944 830 3186 
Q 1216 3428 1725 3428 
Q 2316 3428 2684 3203 
Q 3050 2978 3050 2503 
L 3050 575 
Q 3050 488 3086 434 
Q 3122 381 3238 381 
Q 3275 381 3322 386 
Q 3369 391 3422 400 
L 3422 -16 
Q 3291 -53 3222 -62 
Q 3153 -72 3034 -72 
Q 2744 -72 2613 134 
Q 2544 244 2516 444 
Q 2344 219 2022 53 
Q 1700 -113 1313 -113 
Q 847 -113 551 170 
Q 256 453 256 878 
Q 256 1344 547 1600 
Q 838 1856 1309 1916 
L 2206 2028 
z
M 1741 3428 
L 1741 3428 
z
" transform="scale(0.015625)"/>
       <path id="Helvetica-79" d="M 2503 3347 
L 3125 3347 
Q 3006 3025 2597 1878 
Q 2291 1016 2084 472 
Q 1597 -809 1397 -1090 
Q 1197 -1372 709 -1372 
Q 591 -1372 527 -1362 
Q 463 -1353 369 -1328 
L 369 -816 
Q 516 -856 581 -865 
Q 647 -875 697 -875 
Q 853 -875 926 -823 
Q 1000 -772 1050 -697 
Q 1066 -672 1162 -440 
Q 1259 -209 1303 -97 
L 66 3347 
L 703 3347 
L 1600 622 
L 2503 3347 
z
M 1597 3428 
L 1597 3428 
z
" transform="scale(0.015625)"/>
       <path id="Helvetica-73" d="M 747 1050 
Q 772 769 888 619 
Q 1100 347 1625 347 
Q 1938 347 2175 483 
Q 2413 619 2413 903 
Q 2413 1119 2222 1231 
Q 2100 1300 1741 1391 
L 1294 1503 
Q 866 1609 663 1741 
Q 300 1969 300 2372 
Q 300 2847 642 3140 
Q 984 3434 1563 3434 
Q 2319 3434 2653 2991 
Q 2863 2709 2856 2384 
L 2325 2384 
Q 2309 2575 2191 2731 
Q 1997 2953 1519 2953 
Q 1200 2953 1036 2831 
Q 872 2709 872 2509 
Q 872 2291 1088 2159 
Q 1213 2081 1456 2022 
L 1828 1931 
Q 2434 1784 2641 1647 
Q 2969 1431 2969 969 
Q 2969 522 2630 197 
Q 2291 -128 1597 -128 
Q 850 -128 539 211 
Q 228 550 206 1050 
L 747 1050 
z
M 1578 3428 
L 1578 3428 
z
" transform="scale(0.015625)"/>
       <path id="Helvetica-29" d="M 222 -1306 
Q 719 -338 863 106 
Q 1081 778 1081 1681 
Q 1081 2584 828 3334 
Q 672 3797 213 4666 
L 591 4666 
Q 1072 3897 1173 3717 
Q 1275 3538 1394 3222 
Q 1544 2831 1608 2450 
Q 1672 2069 1672 1716 
Q 1672 791 1378 66 
Q 1194 -400 613 -1306 
L 222 -1306 
z
" transform="scale(0.015625)"/>
      </defs>
      <use xlink:href="#Helvetica-74"/>
      <use xlink:href="#Helvetica-69" transform="translate(27.783203 0)"/>
      <use xlink:href="#Helvetica-6d" transform="translate(50 0)"/>
      <use xlink:href="#Helvetica-65" transform="translate(133.300781 0)"/>
      <use xlink:href="#Helvetica-20" transform="translate(188.916016 0)"/>
      <use xlink:href="#Helvetica-28" transform="translate(216.699219 0)"/>
      <use xlink:href="#Helvetica-64" transform="translate(250 0)"/>
      <use xlink:href="#Helvetica-61" transform="translate(305.615234 0)"/>
      <use xlink:href="#Helvetica-79" transform="translate(361.230469 0)"/>
      <use xlink:href="#Helvetica-73" transform="translate(411.230469 0)"/>
      <use xlink:href="#Helvetica-29" transform="translate(461.230469 0)"/>
     </g>
    </g>
   </g>
   <g id="matplotlib.axis_2">
    <g id="ytick_1">
     <g id="line2d_28">
      <defs>
       <path id="mee61abdc75" d="M 0 0 
L 5 0 
" style="stroke: #000000; stroke-width: 0.8"/>
      </defs>
      <g>
       <use xlink:href="#mee61abdc75" x="36.9" y="105.336" style="stroke: #000000; stroke-width: 0.8"/>
      </g>
     </g>
     <g id="text_5">
      <!-- $\mathdefault{10^{0}}$ -->
      <g transform="translate(14.92 109.640062) scale(0.12 -0.12)">
       <use xlink:href="#Helvetica-31" transform="translate(0 0.446875)"/>
       <use xlink:href="#Helvetica-30" transform="translate(55.615234 0.446875)"/>
       <use xlink:href="#Helvetica-30" transform="translate(112.145664 37.054688) scale(0.7)"/>
      </g>
     </g>
    </g>
    <g id="ytick_2">
     <g id="line2d_29">
      <g>
       <use xlink:href="#mee61abdc75" x="36.9" y="60.073192" style="stroke: #000000; stroke-width: 0.8"/>
      </g>
     </g>
     <g id="text_6">
      <!-- $\mathdefault{10^{1}}$ -->
      <g transform="translate(14.92 64.377255) scale(0.12 -0.12)">
       <use xlink:href="#Helvetica-31" transform="translate(0 0.654688)"/>
       <use xlink:href="#Helvetica-30" transform="translate(55.615234 0.654688)"/>
       <use xlink:href="#Helvetica-31" transform="translate(112.145664 37.2625) scale(0.7)"/>
      </g>
     </g>
    </g>
    <g id="ytick_3">
     <g id="line2d_30">
      <g>
       <use xlink:href="#mee61abdc75" x="36.9" y="14.810385" style="stroke: #000000; stroke-width: 0.8"/>
      </g>
     </g>
     <g id="text_7">
      <!-- $\mathdefault{10^{2}}$ -->
      <g transform="translate(14.92 19.114447) scale(0.12 -0.12)">
       <use xlink:href="#Helvetica-31" transform="translate(0 0.271875)"/>
       <use xlink:href="#Helvetica-30" transform="translate(55.615234 0.271875)"/>
       <use xlink:href="#Helvetica-32" transform="translate(112.145664 36.879688) scale(0.7)"/>
      </g>
     </g>
    </g>
    <g id="ytick_4">
     <g id="line2d_31">
      <defs>
       <path id="m4bd6931539" d="M 0 0 
L 2 0 
" style="stroke: #000000; stroke-width: 0.6"/>
      </defs>
      <g>
       <use xlink:href="#m4bd6931539" x="36.9" y="91.710537" style="stroke: #000000; stroke-width: 0.6"/>
      </g>
     </g>
    </g>
    <g id="ytick_5">
     <g id="line2d_32">
      <g>
       <use xlink:href="#m4bd6931539" x="36.9" y="83.740152" style="stroke: #000000; stroke-width: 0.6"/>
      </g>
     </g>
    </g>
    <g id="ytick_6">
     <g id="line2d_33">
      <g>
       <use xlink:href="#m4bd6931539" x="36.9" y="78.085074" style="stroke: #000000; stroke-width: 0.6"/>
      </g>
     </g>
    </g>
    <g id="ytick_7">
     <g id="line2d_34">
      <g>
       <use xlink:href="#m4bd6931539" x="36.9" y="73.698655" style="stroke: #000000; stroke-width: 0.6"/>
      </g>
     </g>
    </g>
    <g id="ytick_8">
     <g id="line2d_35">
      <g>
       <use xlink:href="#m4bd6931539" x="36.9" y="70.11469" style="stroke: #000000; stroke-width: 0.6"/>
      </g>
     </g>
    </g>
    <g id="ytick_9">
     <g id="line2d_36">
      <g>
       <use xlink:href="#m4bd6931539" x="36.9" y="67.08449" style="stroke: #000000; stroke-width: 0.6"/>
      </g>
     </g>
    </g>
    <g id="ytick_10">
     <g id="line2d_37">
      <g>
       <use xlink:href="#m4bd6931539" x="36.9" y="64.459612" style="stroke: #000000; stroke-width: 0.6"/>
      </g>
     </g>
    </g>
    <g id="ytick_11">
     <g id="line2d_38">
      <g>
       <use xlink:href="#m4bd6931539" x="36.9" y="62.144305" style="stroke: #000000; stroke-width: 0.6"/>
      </g>
     </g>
    </g>
    <g id="ytick_12">
     <g id="line2d_39">
      <g>
       <use xlink:href="#m4bd6931539" x="36.9" y="46.44773" style="stroke: #000000; stroke-width: 0.6"/>
      </g>
     </g>
    </g>
    <g id="ytick_13">
     <g id="line2d_40">
      <g>
       <use xlink:href="#m4bd6931539" x="36.9" y="38.477345" style="stroke: #000000; stroke-width: 0.6"/>
      </g>
     </g>
    </g>
    <g id="ytick_14">
     <g id="line2d_41">
      <g>
       <use xlink:href="#m4bd6931539" x="36.9" y="32.822267" style="stroke: #000000; stroke-width: 0.6"/>
      </g>
     </g>
    </g>
    <g id="ytick_15">
     <g id="line2d_42">
      <g>
       <use xlink:href="#m4bd6931539" x="36.9" y="28.435848" style="stroke: #000000; stroke-width: 0.6"/>
      </g>
     </g>
    </g>
    <g id="ytick_16">
     <g id="line2d_43">
      <g>
       <use xlink:href="#m4bd6931539" x="36.9" y="24.851882" style="stroke: #000000; stroke-width: 0.6"/>
      </g>
     </g>
    </g>
    <g id="ytick_17">
     <g id="line2d_44">
      <g>
       <use xlink:href="#m4bd6931539" x="36.9" y="21.821682" style="stroke: #000000; stroke-width: 0.6"/>
      </g>
     </g>
    </g>
    <g id="ytick_18">
     <g id="line2d_45">
      <g>
       <use xlink:href="#m4bd6931539" x="36.9" y="19.196804" style="stroke: #000000; stroke-width: 0.6"/>
      </g>
     </g>
    </g>
    <g id="ytick_19">
     <g id="line2d_46">
      <g>
       <use xlink:href="#m4bd6931539" x="36.9" y="16.881497" style="stroke: #000000; stroke-width: 0.6"/>
      </g>
     </g>
    </g>
    <g id="text_8">
     <!-- P% -->
     <g transform="translate(-9.31125 59.395891) scale(0.13 -0.13)">
      <defs>
       <path id="Helvetica-50" d="M 547 4591 
L 2613 4591 
Q 3225 4591 3600 4245 
Q 3975 3900 3975 3275 
Q 3975 2738 3640 2339 
Q 3306 1941 2613 1941 
L 1169 1941 
L 1169 0 
L 547 0 
L 547 4591 
z
M 3347 3272 
Q 3347 3778 2972 3959 
Q 2766 4056 2406 4056 
L 1169 4056 
L 1169 2466 
L 2406 2466 
Q 2825 2466 3086 2644 
Q 3347 2822 3347 3272 
z
" transform="scale(0.015625)"/>
       <path id="Helvetica-25" d="M 4363 2175 
Q 4813 2175 5131 1856 
Q 5450 1538 5450 1088 
Q 5450 638 5131 319 
Q 4813 0 4363 0 
Q 3909 0 3590 319 
Q 3272 638 3272 1088 
Q 3272 1538 3590 1856 
Q 3909 2175 4363 2175 
z
M 3909 4456 
L 4256 4456 
L 1753 -119 
L 1406 -119 
L 3909 4456 
z
M 1294 2606 
Q 1563 2606 1752 2795 
Q 1941 2984 1941 3250 
Q 1941 3516 1752 3705 
Q 1563 3894 1294 3894 
Q 1028 3894 839 3706 
Q 650 3519 650 3250 
Q 650 2984 839 2795 
Q 1028 2606 1294 2606 
z
M 1294 4341 
Q 1747 4341 2065 4020 
Q 2384 3700 2384 3250 
Q 2384 2800 2065 2481 
Q 1747 2163 1294 2163 
Q 844 2163 525 2481 
Q 206 2800 206 3250 
Q 206 3700 525 4020 
Q 844 4341 1294 4341 
z
M 4363 444 
Q 4628 444 4817 633 
Q 5006 822 5006 1088 
Q 5006 1353 4817 1542 
Q 4628 1731 4363 1731 
Q 4094 1731 3905 1542 
Q 3716 1353 3716 1088 
Q 3716 822 3905 633 
Q 4094 444 4363 444 
z
" transform="scale(0.015625)"/>
      </defs>
      <use xlink:href="#Helvetica-50"/>
      <use xlink:href="#Helvetica-25" transform="translate(66.699219 0)"/>
     </g>
    </g>
   </g>
   <g id="patch_3">
    <path d="M 36.9 105.336 
L 36.9 6.84 
" style="fill: none; stroke: #000000; stroke-width: 0.8; stroke-linejoin: miter; stroke-linecap: square"/>
   </g>
   <g id="patch_4">
    <path d="M 140.22 105.336 
L 140.22 6.84 
" style="fill: none; stroke: #000000; stroke-width: 0.8; stroke-linejoin: miter; stroke-linecap: square"/>
   </g>
   <g id="patch_5">
    <path d="M 36.9 105.336 
L 140.22 105.336 
" style="fill: none; stroke: #000000; stroke-width: 0.8; stroke-linejoin: miter; stroke-linecap: square"/>
   </g>
   <g id="patch_6">
    <path d="M 36.9 6.84 
L 140.22 6.84 
" style="fill: none; stroke: #000000; stroke-width: 0.8; stroke-linejoin: miter; stroke-linecap: square"/>
   </g>
   <g id="text_9">
    <!-- Comm57+pCU1 -->
    <g transform="translate(45.377813 0.84) scale(0.12 -0.12)">
     <defs>
      <path id="Helvetica-43" d="M 2422 4716 
Q 3294 4716 3775 4256 
Q 4256 3797 4309 3213 
L 3703 3213 
Q 3600 3656 3292 3915 
Q 2984 4175 2428 4175 
Q 1750 4175 1333 3698 
Q 916 3222 916 2238 
Q 916 1431 1292 929 
Q 1669 428 2416 428 
Q 3103 428 3463 956 
Q 3653 1234 3747 1688 
L 4353 1688 
Q 4272 963 3816 472 
Q 3269 -119 2341 -119 
Q 1541 -119 997 366 
Q 281 1006 281 2344 
Q 281 3359 819 4009 
Q 1400 4716 2422 4716 
z
M 2297 4716 
L 2297 4716 
z
" transform="scale(0.015625)"/>
      <path id="Helvetica-6f" d="M 1741 363 
Q 2300 363 2508 786 
Q 2716 1209 2716 1728 
Q 2716 2197 2566 2491 
Q 2328 2953 1747 2953 
Q 1231 2953 997 2559 
Q 763 2166 763 1609 
Q 763 1075 997 719 
Q 1231 363 1741 363 
z
M 1763 3444 
Q 2409 3444 2856 3012 
Q 3303 2581 3303 1744 
Q 3303 934 2909 406 
Q 2516 -122 1688 -122 
Q 997 -122 590 345 
Q 184 813 184 1600 
Q 184 2444 612 2944 
Q 1041 3444 1763 3444 
z
M 1744 3428 
L 1744 3428 
z
" transform="scale(0.015625)"/>
      <path id="Helvetica-35" d="M 791 1141 
Q 847 659 1238 475 
Q 1438 381 1700 381 
Q 2200 381 2440 700 
Q 2681 1019 2681 1406 
Q 2681 1875 2395 2131 
Q 2109 2388 1709 2388 
Q 1419 2388 1211 2275 
Q 1003 2163 856 1963 
L 369 1991 
L 709 4400 
L 3034 4400 
L 3034 3856 
L 1131 3856 
L 941 2613 
Q 1097 2731 1238 2791 
Q 1488 2894 1816 2894 
Q 2431 2894 2859 2497 
Q 3288 2100 3288 1491 
Q 3288 856 2895 371 
Q 2503 -113 1644 -113 
Q 1097 -113 676 195 
Q 256 503 206 1141 
L 791 1141 
z
" transform="scale(0.015625)"/>
      <path id="Helvetica-37" d="M 3347 4400 
L 3347 3909 
Q 3131 3700 2773 3181 
Q 2416 2663 2141 2063 
Q 1869 1478 1728 997 
Q 1638 688 1494 0 
L 872 0 
Q 1084 1281 1809 2550 
Q 2238 3294 2709 3834 
L 234 3834 
L 234 4400 
L 3347 4400 
z
" transform="scale(0.015625)"/>
      <path id="Helvetica-2b" d="M 288 1369 
L 288 1894 
L 1650 1894 
L 1650 3266 
L 2184 3266 
L 2184 1894 
L 3547 1894 
L 3547 1369 
L 2184 1369 
L 2184 0 
L 1650 0 
L 1650 1369 
L 288 1369 
z
" transform="scale(0.015625)"/>
      <path id="Helvetica-70" d="M 1825 378 
Q 2219 378 2480 708 
Q 2741 1038 2741 1694 
Q 2741 2094 2625 2381 
Q 2406 2934 1825 2934 
Q 1241 2934 1025 2350 
Q 909 2038 909 1556 
Q 909 1169 1025 897 
Q 1244 378 1825 378 
z
M 369 3331 
L 916 3331 
L 916 2888 
Q 1084 3116 1284 3241 
Q 1569 3428 1953 3428 
Q 2522 3428 2919 2992 
Q 3316 2556 3316 1747 
Q 3316 653 2744 184 
Q 2381 -113 1900 -113 
Q 1522 -113 1266 53 
Q 1116 147 931 375 
L 931 -1334 
L 369 -1334 
L 369 3331 
z
" transform="scale(0.015625)"/>
      <path id="Helvetica-55" d="M 1163 4591 
L 1163 1753 
Q 1163 1253 1350 922 
Q 1628 422 2288 422 
Q 3078 422 3363 963 
Q 3516 1256 3516 1753 
L 3516 4591 
L 4147 4591 
L 4147 2013 
Q 4147 1166 3919 709 
Q 3500 -122 2338 -122 
Q 1175 -122 759 709 
Q 531 1166 531 2013 
L 531 4591 
L 1163 4591 
z
M 2341 4591 
L 2341 4591 
z
" transform="scale(0.015625)"/>
     </defs>
     <use xlink:href="#Helvetica-43"/>
     <use xlink:href="#Helvetica-6f" transform="translate(72.216797 0)"/>
     <use xlink:href="#Helvetica-6d" transform="translate(127.832031 0)"/>
     <use xlink:href="#Helvetica-6d" transform="translate(211.132812 0)"/>
     <use xlink:href="#Helvetica-35" transform="translate(294.433594 0)"/>
     <use xlink:href="#Helvetica-37" transform="translate(350.048828 0)"/>
     <use xlink:href="#Helvetica-2b" transform="translate(405.664062 0)"/>
     <use xlink:href="#Helvetica-70" transform="translate(464.0625 0)"/>
     <use xlink:href="#Helvetica-43" transform="translate(519.677734 0)"/>
     <use xlink:href="#Helvetica-55" transform="translate(591.894531 0)"/>
     <use xlink:href="#Helvetica-31" transform="translate(664.111328 0)"/>
    </g>
   </g>
  </g>
 </g>
 <defs>
  <clipPath id="p502c0339d9">
   <rect x="36.9" y="6.84" width="103.32" height="98.496"/>
  </clipPath>
 </defs>
</svg>
