<?xml version="1.0" encoding="utf-8" standalone="no"?>
<!DOCTYPE svg PUBLIC "-//W3C//DTD SVG 1.1//EN"
  "http://www.w3.org/Graphics/SVG/1.1/DTD/svg11.dtd">
<svg xmlns:xlink="http://www.w3.org/1999/xlink" width="146.88pt" height="136.8pt" viewBox="0 0 146.88 136.8" xmlns="http://www.w3.org/2000/svg" version="1.1">
 <metadata>
  <rdf:RDF xmlns:dc="http://purl.org/dc/elements/1.1/" xmlns:cc="http://creativecommons.org/ns#" xmlns:rdf="http://www.w3.org/1999/02/22-rdf-syntax-ns#">
   <cc:Work>
    <dc:type rdf:resource="http://purl.org/dc/dcmitype/StillImage"/>
    <dc:date>2025-11-11T13:11:18.516438</dc:date>
    <dc:format>image/svg+xml</dc:format>
    <dc:creator>
     <cc:Agent>
      <dc:title>Matplotlib v3.7.5, https://matplotlib.org/</dc:title>
     </cc:Agent>
    </dc:creator>
   </cc:Work>
  </rdf:RDF>
 </metadata>
 <defs>
  <style type="text/css">*{stroke-linejoin: round; stroke-linecap: butt}</style>
 </defs>
 <g id="figure_1">
  <g id="patch_1">
   <path d="M 0 136.8 
L 146.88 136.8 
L 146.88 0 
L 0 0 
z
" style="fill: #ffffff"/>
  </g>
  <g id="axes_1">
   <g id="patch_2">
    <path d="M 36.72 105.336 
L 139.536 105.336 
L 139.536 6.84 
L 36.72 6.84 
z
" style="fill: #ffffff"/>
   </g>
   <g id="PolyCollection_1">
    <defs>
     <path id="m6aebeb80d7" d="M 50.740364 -129.96 
L 50.740364 -31.464 
L 55.413818 -31.464 
L 55.413818 -129.96 
L 55.413818 -129.96 
L 50.740364 -129.96 
z
" style="stroke: #808080; stroke-opacity: 0.3"/>
    </defs>
    <g clip-path="url(#pee52406859)">
     <use xlink:href="#m6aebeb80d7" x="0" y="136.8" style="fill: #808080; fill-opacity: 0.3; stroke: #808080; stroke-opacity: 0.3"/>
    </g>
   </g>
   <g id="line2d_1">
    <path d="M 41.393455 42.06131 
L 50.740364 56.810358 
L 55.413818 15.422814 
L 74.107636 20.083754 
L 88.128 18.164437 
L 111.495273 13.001534 
L 134.862545 17.220426 
" clip-path="url(#pee52406859)" style="fill: none; stroke: #fc8d62; stroke-width: 1.5; stroke-linecap: square"/>
   </g>
   <g id="PathCollection_1">
    <defs>
     <path id="m286d923af9" d="M 0 3.872983 
C 1.027127 3.872983 2.012324 3.464901 2.738613 2.738613 
C 3.464901 2.012324 3.872983 1.027127 3.872983 0 
C 3.872983 -1.027127 3.464901 -2.012324 2.738613 -2.738613 
C 2.012324 -3.464901 1.027127 -3.872983 0 -3.872983 
C -1.027127 -3.872983 -2.012324 -3.464901 -2.738613 -2.738613 
C -3.464901 -2.012324 -3.872983 -1.027127 -3.872983 0 
C -3.872983 1.027127 -3.464901 2.012324 -2.738613 2.738613 
C -2.012324 3.464901 -1.027127 3.872983 0 3.872983 
z
" style="stroke: #000000"/>
    </defs>
    <g clip-path="url(#pee52406859)">
     <use xlink:href="#m286d923af9" x="41.393455" y="42.06131" style="fill: #fc8d62; stroke: #000000"/>
     <use xlink:href="#m286d923af9" x="50.740364" y="56.810358" style="fill: #fc8d62; stroke: #000000"/>
     <use xlink:href="#m286d923af9" x="55.413818" y="15.422814" style="fill: #fc8d62; stroke: #000000"/>
     <use xlink:href="#m286d923af9" x="74.107636" y="20.083754" style="fill: #fc8d62; stroke: #000000"/>
     <use xlink:href="#m286d923af9" x="88.128" y="18.164437" style="fill: #fc8d62; stroke: #000000"/>
     <use xlink:href="#m286d923af9" x="111.495273" y="13.001534" style="fill: #fc8d62; stroke: #000000"/>
     <use xlink:href="#m286d923af9" x="134.862545" y="17.220426" style="fill: #fc8d62; stroke: #000000"/>
    </g>
   </g>
   <g id="LineCollection_1">
    <path d="M 41.393455 42.06131 
L 41.393455 42.06131 
" clip-path="url(#pee52406859)" style="fill: none; stroke: #000000"/>
    <path d="M 50.740364 61.930214 
L 50.740364 52.75221 
" clip-path="url(#pee52406859)" style="fill: none; stroke: #000000"/>
    <path d="M 55.413818 16.126307 
L 55.413818 14.74363 
" clip-path="url(#pee52406859)" style="fill: none; stroke: #000000"/>
    <path d="M 74.107636 30.443012 
L 74.107636 13.334963 
" clip-path="url(#pee52406859)" style="fill: none; stroke: #000000"/>
    <path d="M 88.128 21.426169 
L 88.128 15.367681 
" clip-path="url(#pee52406859)" style="fill: none; stroke: #000000"/>
    <path d="M 111.495273 17.524991 
L 111.495273 9.326737 
" clip-path="url(#pee52406859)" style="fill: none; stroke: #000000"/>
    <path d="M 134.862545 20.38167 
L 134.862545 14.497835 
" clip-path="url(#pee52406859)" style="fill: none; stroke: #000000"/>
   </g>
   <g id="line2d_2">
    <defs>
     <path id="m3c4c2cd580" d="M 2 0 
L -2 -0 
" style="stroke: #000000"/>
    </defs>
    <g clip-path="url(#pee52406859)">
     <use xlink:href="#m3c4c2cd580" x="41.393455" y="42.06131" style="stroke: #000000"/>
     <use xlink:href="#m3c4c2cd580" x="50.740364" y="61.930214" style="stroke: #000000"/>
     <use xlink:href="#m3c4c2cd580" x="55.413818" y="16.126307" style="stroke: #000000"/>
     <use xlink:href="#m3c4c2cd580" x="74.107636" y="30.443012" style="stroke: #000000"/>
     <use xlink:href="#m3c4c2cd580" x="88.128" y="21.426169" style="stroke: #000000"/>
     <use xlink:href="#m3c4c2cd580" x="111.495273" y="17.524991" style="stroke: #000000"/>
     <use xlink:href="#m3c4c2cd580" x="134.862545" y="20.38167" style="stroke: #000000"/>
    </g>
   </g>
   <g id="line2d_3">
    <g clip-path="url(#pee52406859)">
     <use xlink:href="#m3c4c2cd580" x="41.393455" y="42.06131" style="stroke: #000000"/>
     <use xlink:href="#m3c4c2cd580" x="50.740364" y="52.75221" style="stroke: #000000"/>
     <use xlink:href="#m3c4c2cd580" x="55.413818" y="14.74363" style="stroke: #000000"/>
     <use xlink:href="#m3c4c2cd580" x="74.107636" y="13.334963" style="stroke: #000000"/>
     <use xlink:href="#m3c4c2cd580" x="88.128" y="15.367681" style="stroke: #000000"/>
     <use xlink:href="#m3c4c2cd580" x="111.495273" y="9.326737" style="stroke: #000000"/>
     <use xlink:href="#m3c4c2cd580" x="134.862545" y="14.497835" style="stroke: #000000"/>
    </g>
   </g>
   <g id="line2d_4">
    <path d="M 41.393455 42.06131 
L 50.740364 43.107958 
L 55.413818 17.125692 
L 74.107636 6.498124 
L 88.128 18.094232 
L 111.495273 14.810385 
L 134.862545 9.991918 
" clip-path="url(#pee52406859)" style="fill: none; stroke: #fc8d62; stroke-width: 1.5; stroke-linecap: square"/>
   </g>
   <g id="PathCollection_2">
    <g clip-path="url(#pee52406859)">
     <use xlink:href="#m286d923af9" x="41.393455" y="42.06131" style="fill: #fc8d62; stroke: #000000"/>
     <use xlink:href="#m286d923af9" x="50.740364" y="43.107958" style="fill: #fc8d62; stroke: #000000"/>
     <use xlink:href="#m286d923af9" x="55.413818" y="17.125692" style="fill: #fc8d62; stroke: #000000"/>
     <use xlink:href="#m286d923af9" x="74.107636" y="6.498124" style="fill: #fc8d62; stroke: #000000"/>
     <use xlink:href="#m286d923af9" x="88.128" y="18.094232" style="fill: #fc8d62; stroke: #000000"/>
     <use xlink:href="#m286d923af9" x="111.495273" y="14.810385" style="fill: #fc8d62; stroke: #000000"/>
     <use xlink:href="#m286d923af9" x="134.862545" y="9.991918" style="fill: #fc8d62; stroke: #000000"/>
    </g>
   </g>
   <g id="LineCollection_2">
    <path d="M 41.393455 42.06131 
L 41.393455 42.06131 
" clip-path="url(#pee52406859)" style="fill: none; stroke: #000000"/>
    <path d="M 50.740364 46.620506 
L 50.740364 40.128931 
" clip-path="url(#pee52406859)" style="fill: none; stroke: #000000"/>
    <path d="M 55.413818 20.125303 
L 55.413818 14.523785 
" clip-path="url(#pee52406859)" style="fill: none; stroke: #000000"/>
    <path d="M 74.107636 15.535224 
L 74.107636 0.330638 
" clip-path="url(#pee52406859)" style="fill: none; stroke: #000000"/>
    <path d="M 88.128 20.818867 
L 88.128 15.701684 
" clip-path="url(#pee52406859)" style="fill: none; stroke: #000000"/>
    <path d="M 111.495273 17.556262 
L 111.495273 12.40148 
" clip-path="url(#pee52406859)" style="fill: none; stroke: #000000"/>
    <path d="M 134.862545 18.07116 
L 134.862545 4.282636 
" clip-path="url(#pee52406859)" style="fill: none; stroke: #000000"/>
   </g>
   <g id="line2d_5">
    <g clip-path="url(#pee52406859)">
     <use xlink:href="#m3c4c2cd580" x="41.393455" y="42.06131" style="stroke: #000000"/>
     <use xlink:href="#m3c4c2cd580" x="50.740364" y="46.620506" style="stroke: #000000"/>
     <use xlink:href="#m3c4c2cd580" x="55.413818" y="20.125303" style="stroke: #000000"/>
     <use xlink:href="#m3c4c2cd580" x="74.107636" y="15.535224" style="stroke: #000000"/>
     <use xlink:href="#m3c4c2cd580" x="88.128" y="20.818867" style="stroke: #000000"/>
     <use xlink:href="#m3c4c2cd580" x="111.495273" y="17.556262" style="stroke: #000000"/>
     <use xlink:href="#m3c4c2cd580" x="134.862545" y="18.07116" style="stroke: #000000"/>
    </g>
   </g>
   <g id="line2d_6">
    <g clip-path="url(#pee52406859)">
     <use xlink:href="#m3c4c2cd580" x="41.393455" y="42.06131" style="stroke: #000000"/>
     <use xlink:href="#m3c4c2cd580" x="50.740364" y="40.128931" style="stroke: #000000"/>
     <use xlink:href="#m3c4c2cd580" x="55.413818" y="14.523785" style="stroke: #000000"/>
     <use xlink:href="#m3c4c2cd580" x="74.107636" y="0.330638" style="stroke: #000000"/>
     <use xlink:href="#m3c4c2cd580" x="88.128" y="15.701684" style="stroke: #000000"/>
     <use xlink:href="#m3c4c2cd580" x="111.495273" y="12.40148" style="stroke: #000000"/>
     <use xlink:href="#m3c4c2cd580" x="134.862545" y="4.282636" style="stroke: #000000"/>
    </g>
   </g>
   <g id="line2d_7">
    <path d="M 41.393455 42.06131 
L 50.740364 45.928121 
L 55.413818 13.555232 
L 74.107636 11.297771 
L 88.128 14.435947 
L 111.495273 13.462256 
L 134.862545 12.787749 
" clip-path="url(#pee52406859)" style="fill: none; stroke: #fc8d62; stroke-width: 1.5; stroke-linecap: square"/>
   </g>
   <g id="PathCollection_3">
    <g clip-path="url(#pee52406859)">
     <use xlink:href="#m286d923af9" x="41.393455" y="42.06131" style="fill: #fc8d62; stroke: #000000"/>
     <use xlink:href="#m286d923af9" x="50.740364" y="45.928121" style="fill: #fc8d62; stroke: #000000"/>
     <use xlink:href="#m286d923af9" x="55.413818" y="13.555232" style="fill: #fc8d62; stroke: #000000"/>
     <use xlink:href="#m286d923af9" x="74.107636" y="11.297771" style="fill: #fc8d62; stroke: #000000"/>
     <use xlink:href="#m286d923af9" x="88.128" y="14.435947" style="fill: #fc8d62; stroke: #000000"/>
     <use xlink:href="#m286d923af9" x="111.495273" y="13.462256" style="fill: #fc8d62; stroke: #000000"/>
     <use xlink:href="#m286d923af9" x="134.862545" y="12.787749" style="fill: #fc8d62; stroke: #000000"/>
    </g>
   </g>
   <g id="LineCollection_3">
    <path d="M 41.393455 42.06131 
L 41.393455 42.06131 
" clip-path="url(#pee52406859)" style="fill: none; stroke: #000000"/>
    <path d="M 50.740364 50.127851 
L 50.740364 42.469607 
" clip-path="url(#pee52406859)" style="fill: none; stroke: #000000"/>
    <path d="M 55.413818 14.799639 
L 55.413818 12.384933 
" clip-path="url(#pee52406859)" style="fill: none; stroke: #000000"/>
    <path d="M 74.107636 17.992622 
L 74.107636 6.312903 
" clip-path="url(#pee52406859)" style="fill: none; stroke: #000000"/>
    <path d="M 88.128 17.301001 
L 88.128 11.935845 
" clip-path="url(#pee52406859)" style="fill: none; stroke: #000000"/>
    <path d="M 111.495273 13.732465 
L 111.495273 13.195712 
" clip-path="url(#pee52406859)" style="fill: none; stroke: #000000"/>
    <path d="M 134.862545 14.514344 
L 134.862545 11.20064 
" clip-path="url(#pee52406859)" style="fill: none; stroke: #000000"/>
   </g>
   <g id="line2d_8">
    <g clip-path="url(#pee52406859)">
     <use xlink:href="#m3c4c2cd580" x="41.393455" y="42.06131" style="stroke: #000000"/>
     <use xlink:href="#m3c4c2cd580" x="50.740364" y="50.127851" style="stroke: #000000"/>
     <use xlink:href="#m3c4c2cd580" x="55.413818" y="14.799639" style="stroke: #000000"/>
     <use xlink:href="#m3c4c2cd580" x="74.107636" y="17.992622" style="stroke: #000000"/>
     <use xlink:href="#m3c4c2cd580" x="88.128" y="17.301001" style="stroke: #000000"/>
     <use xlink:href="#m3c4c2cd580" x="111.495273" y="13.732465" style="stroke: #000000"/>
     <use xlink:href="#m3c4c2cd580" x="134.862545" y="14.514344" style="stroke: #000000"/>
    </g>
   </g>
   <g id="line2d_9">
    <g clip-path="url(#pee52406859)">
     <use xlink:href="#m3c4c2cd580" x="41.393455" y="42.06131" style="stroke: #000000"/>
     <use xlink:href="#m3c4c2cd580" x="50.740364" y="42.469607" style="stroke: #000000"/>
     <use xlink:href="#m3c4c2cd580" x="55.413818" y="12.384933" style="stroke: #000000"/>
     <use xlink:href="#m3c4c2cd580" x="74.107636" y="6.312903" style="stroke: #000000"/>
     <use xlink:href="#m3c4c2cd580" x="88.128" y="11.935845" style="stroke: #000000"/>
     <use xlink:href="#m3c4c2cd580" x="111.495273" y="13.195712" style="stroke: #000000"/>
     <use xlink:href="#m3c4c2cd580" x="134.862545" y="11.20064" style="stroke: #000000"/>
    </g>
   </g>
   <g id="line2d_10">
    <path d="M 41.393455 42.06131 
L 50.740364 56.810358 
L 55.413818 15.422814 
L 74.107636 20.083754 
L 88.128 18.164437 
L 111.495273 13.001534 
L 134.862545 17.220426 
" clip-path="url(#pee52406859)" style="fill: none"/>
   </g>
   <g id="line2d_11">
    <path d="M 41.393455 42.06131 
L 50.740364 43.107958 
L 55.413818 17.125692 
L 74.107636 6.498124 
L 88.128 18.094232 
L 111.495273 14.810385 
L 134.862545 9.991918 
" clip-path="url(#pee52406859)" style="fill: none"/>
   </g>
   <g id="line2d_12">
    <path d="M 41.393455 42.06131 
L 50.740364 45.928121 
L 55.413818 13.555232 
L 74.107636 11.297771 
L 88.128 14.435947 
L 111.495273 13.462256 
L 134.862545 12.787749 
" clip-path="url(#pee52406859)" style="fill: none"/>
   </g>
   <g id="line2d_13">
    <path d="M 41.393455 42.06131 
L 50.740364 56.810358 
L 55.413818 52.492076 
L 74.107636 86.167467 
L 88.128 73.998774 
L 111.495273 75.041633 
L 134.862545 69.935169 
" clip-path="url(#pee52406859)" style="fill: none; stroke: #8da0cb; stroke-width: 1.5; stroke-linecap: square"/>
   </g>
   <g id="PathCollection_4">
    <defs>
     <path id="me4727fb64b" d="M 0 3.872983 
C 1.027127 3.872983 2.012324 3.464901 2.738613 2.738613 
C 3.464901 2.012324 3.872983 1.027127 3.872983 0 
C 3.872983 -1.027127 3.464901 -2.012324 2.738613 -2.738613 
C 2.012324 -3.464901 1.027127 -3.872983 0 -3.872983 
C -1.027127 -3.872983 -2.012324 -3.464901 -2.738613 -2.738613 
C -3.464901 -2.012324 -3.872983 -1.027127 -3.872983 0 
C -3.872983 1.027127 -3.464901 2.012324 -2.738613 2.738613 
C -2.012324 3.464901 -1.027127 3.872983 0 3.872983 
z
" style="stroke: #000000"/>
    </defs>
    <g clip-path="url(#pee52406859)">
     <use xlink:href="#me4727fb64b" x="41.393455" y="42.06131" style="fill: #8da0cb; stroke: #000000"/>
     <use xlink:href="#me4727fb64b" x="50.740364" y="56.810358" style="fill: #8da0cb; stroke: #000000"/>
     <use xlink:href="#me4727fb64b" x="55.413818" y="52.492076" style="fill: #8da0cb; stroke: #000000"/>
     <use xlink:href="#me4727fb64b" x="74.107636" y="86.167467" style="fill: #8da0cb; stroke: #000000"/>
     <use xlink:href="#me4727fb64b" x="88.128" y="73.998774" style="fill: #8da0cb; stroke: #000000"/>
     <use xlink:href="#me4727fb64b" x="111.495273" y="75.041633" style="fill: #8da0cb; stroke: #000000"/>
     <use xlink:href="#me4727fb64b" x="134.862545" y="69.935169" style="fill: #8da0cb; stroke: #000000"/>
    </g>
   </g>
   <g id="LineCollection_4">
    <path d="M 41.393455 42.06131 
L 41.393455 42.06131 
" clip-path="url(#pee52406859)" style="fill: none; stroke: #000000"/>
    <path d="M 50.740364 61.930214 
L 50.740364 52.75221 
" clip-path="url(#pee52406859)" style="fill: none; stroke: #000000"/>
    <path d="M 55.413818 57.744628 
L 55.413818 48.351188 
" clip-path="url(#pee52406859)" style="fill: none; stroke: #000000"/>
    <path d="M 74.107636 92.346364 
L 74.107636 81.473329 
" clip-path="url(#pee52406859)" style="fill: none; stroke: #000000"/>
    <path d="M 88.128 76.484616 
L 88.128 71.79229 
" clip-path="url(#pee52406859)" style="fill: none; stroke: #000000"/>
    <path d="M 111.495273 80.79404 
L 111.495273 70.597047 
" clip-path="url(#pee52406859)" style="fill: none; stroke: #000000"/>
    <path d="M 134.862545 71.350273 
L 134.862545 68.615131 
" clip-path="url(#pee52406859)" style="fill: none; stroke: #000000"/>
   </g>
   <g id="line2d_14">
    <g clip-path="url(#pee52406859)">
     <use xlink:href="#m3c4c2cd580" x="41.393455" y="42.06131" style="stroke: #000000"/>
     <use xlink:href="#m3c4c2cd580" x="50.740364" y="61.930214" style="stroke: #000000"/>
     <use xlink:href="#m3c4c2cd580" x="55.413818" y="57.744628" style="stroke: #000000"/>
     <use xlink:href="#m3c4c2cd580" x="74.107636" y="92.346364" style="stroke: #000000"/>
     <use xlink:href="#m3c4c2cd580" x="88.128" y="76.484616" style="stroke: #000000"/>
     <use xlink:href="#m3c4c2cd580" x="111.495273" y="80.79404" style="stroke: #000000"/>
     <use xlink:href="#m3c4c2cd580" x="134.862545" y="71.350273" style="stroke: #000000"/>
    </g>
   </g>
   <g id="line2d_15">
    <g clip-path="url(#pee52406859)">
     <use xlink:href="#m3c4c2cd580" x="41.393455" y="42.06131" style="stroke: #000000"/>
     <use xlink:href="#m3c4c2cd580" x="50.740364" y="52.75221" style="stroke: #000000"/>
     <use xlink:href="#m3c4c2cd580" x="55.413818" y="48.351188" style="stroke: #000000"/>
     <use xlink:href="#m3c4c2cd580" x="74.107636" y="81.473329" style="stroke: #000000"/>
     <use xlink:href="#m3c4c2cd580" x="88.128" y="71.79229" style="stroke: #000000"/>
     <use xlink:href="#m3c4c2cd580" x="111.495273" y="70.597047" style="stroke: #000000"/>
     <use xlink:href="#m3c4c2cd580" x="134.862545" y="68.615131" style="stroke: #000000"/>
    </g>
   </g>
   <g id="line2d_16">
    <path d="M 41.393455 42.06131 
L 50.740364 43.107958 
L 55.413818 46.82456 
L 74.107636 74.087923 
L 88.128 74.416449 
L 111.495273 70.811159 
L 134.862545 58.163207 
" clip-path="url(#pee52406859)" style="fill: none; stroke: #8da0cb; stroke-width: 1.5; stroke-linecap: square"/>
   </g>
   <g id="PathCollection_5">
    <g clip-path="url(#pee52406859)">
     <use xlink:href="#me4727fb64b" x="41.393455" y="42.06131" style="fill: #8da0cb; stroke: #000000"/>
     <use xlink:href="#me4727fb64b" x="50.740364" y="43.107958" style="fill: #8da0cb; stroke: #000000"/>
     <use xlink:href="#me4727fb64b" x="55.413818" y="46.82456" style="fill: #8da0cb; stroke: #000000"/>
     <use xlink:href="#me4727fb64b" x="74.107636" y="74.087923" style="fill: #8da0cb; stroke: #000000"/>
     <use xlink:href="#me4727fb64b" x="88.128" y="74.416449" style="fill: #8da0cb; stroke: #000000"/>
     <use xlink:href="#me4727fb64b" x="111.495273" y="70.811159" style="fill: #8da0cb; stroke: #000000"/>
     <use xlink:href="#me4727fb64b" x="134.862545" y="58.163207" style="fill: #8da0cb; stroke: #000000"/>
    </g>
   </g>
   <g id="LineCollection_5">
    <path d="M 41.393455 42.06131 
L 41.393455 42.06131 
" clip-path="url(#pee52406859)" style="fill: none; stroke: #000000"/>
    <path d="M 50.740364 46.620506 
L 50.740364 40.128931 
" clip-path="url(#pee52406859)" style="fill: none; stroke: #000000"/>
    <path d="M 55.413818 49.855509 
L 55.413818 44.19912 
" clip-path="url(#pee52406859)" style="fill: none; stroke: #000000"/>
    <path d="M 74.107636 77.596556 
L 74.107636 71.11171 
" clip-path="url(#pee52406859)" style="fill: none; stroke: #000000"/>
    <path d="M 88.128 75.94296 
L 88.128 72.999986 
" clip-path="url(#pee52406859)" style="fill: none; stroke: #000000"/>
    <path d="M 111.495273 73.11971 
L 111.495273 68.745453 
" clip-path="url(#pee52406859)" style="fill: none; stroke: #000000"/>
    <path d="M 134.862545 61.46982 
L 134.862545 55.333539 
" clip-path="url(#pee52406859)" style="fill: none; stroke: #000000"/>
   </g>
   <g id="line2d_17">
    <g clip-path="url(#pee52406859)">
     <use xlink:href="#m3c4c2cd580" x="41.393455" y="42.06131" style="stroke: #000000"/>
     <use xlink:href="#m3c4c2cd580" x="50.740364" y="46.620506" style="stroke: #000000"/>
     <use xlink:href="#m3c4c2cd580" x="55.413818" y="49.855509" style="stroke: #000000"/>
     <use xlink:href="#m3c4c2cd580" x="74.107636" y="77.596556" style="stroke: #000000"/>
     <use xlink:href="#m3c4c2cd580" x="88.128" y="75.94296" style="stroke: #000000"/>
     <use xlink:href="#m3c4c2cd580" x="111.495273" y="73.11971" style="stroke: #000000"/>
     <use xlink:href="#m3c4c2cd580" x="134.862545" y="61.46982" style="stroke: #000000"/>
    </g>
   </g>
   <g id="line2d_18">
    <g clip-path="url(#pee52406859)">
     <use xlink:href="#m3c4c2cd580" x="41.393455" y="42.06131" style="stroke: #000000"/>
     <use xlink:href="#m3c4c2cd580" x="50.740364" y="40.128931" style="stroke: #000000"/>
     <use xlink:href="#m3c4c2cd580" x="55.413818" y="44.19912" style="stroke: #000000"/>
     <use xlink:href="#m3c4c2cd580" x="74.107636" y="71.11171" style="stroke: #000000"/>
     <use xlink:href="#m3c4c2cd580" x="88.128" y="72.999986" style="stroke: #000000"/>
     <use xlink:href="#m3c4c2cd580" x="111.495273" y="68.745453" style="stroke: #000000"/>
     <use xlink:href="#m3c4c2cd580" x="134.862545" y="55.333539" style="stroke: #000000"/>
    </g>
   </g>
   <g id="line2d_19">
    <path d="M 41.393455 42.06131 
L 50.740364 45.928121 
L 55.413818 50.886499 
L 74.107636 72.342436 
L 88.128 74.735593 
L 111.495273 70.533584 
L 134.862545 62.742696 
" clip-path="url(#pee52406859)" style="fill: none; stroke: #8da0cb; stroke-width: 1.5; stroke-linecap: square"/>
   </g>
   <g id="PathCollection_6">
    <g clip-path="url(#pee52406859)">
     <use xlink:href="#me4727fb64b" x="41.393455" y="42.06131" style="fill: #8da0cb; stroke: #000000"/>
     <use xlink:href="#me4727fb64b" x="50.740364" y="45.928121" style="fill: #8da0cb; stroke: #000000"/>
     <use xlink:href="#me4727fb64b" x="55.413818" y="50.886499" style="fill: #8da0cb; stroke: #000000"/>
     <use xlink:href="#me4727fb64b" x="74.107636" y="72.342436" style="fill: #8da0cb; stroke: #000000"/>
     <use xlink:href="#me4727fb64b" x="88.128" y="74.735593" style="fill: #8da0cb; stroke: #000000"/>
     <use xlink:href="#me4727fb64b" x="111.495273" y="70.533584" style="fill: #8da0cb; stroke: #000000"/>
     <use xlink:href="#me4727fb64b" x="134.862545" y="62.742696" style="fill: #8da0cb; stroke: #000000"/>
    </g>
   </g>
   <g id="LineCollection_6">
    <path d="M 41.393455 42.06131 
L 41.393455 42.06131 
" clip-path="url(#pee52406859)" style="fill: none; stroke: #000000"/>
    <path d="M 50.740364 50.127851 
L 50.740364 42.469607 
" clip-path="url(#pee52406859)" style="fill: none; stroke: #000000"/>
    <path d="M 55.413818 57.269379 
L 55.413818 46.075991 
" clip-path="url(#pee52406859)" style="fill: none; stroke: #000000"/>
    <path d="M 74.107636 77.827276 
L 74.107636 68.058871 
" clip-path="url(#pee52406859)" style="fill: none; stroke: #000000"/>
    <path d="M 88.128 76.494702 
L 88.128 73.121056 
" clip-path="url(#pee52406859)" style="fill: none; stroke: #000000"/>
    <path d="M 111.495273 73.050982 
L 111.495273 68.302282 
" clip-path="url(#pee52406859)" style="fill: none; stroke: #000000"/>
    <path d="M 134.862545 68.003268 
L 134.862545 58.596838 
" clip-path="url(#pee52406859)" style="fill: none; stroke: #000000"/>
   </g>
   <g id="line2d_20">
    <g clip-path="url(#pee52406859)">
     <use xlink:href="#m3c4c2cd580" x="41.393455" y="42.06131" style="stroke: #000000"/>
     <use xlink:href="#m3c4c2cd580" x="50.740364" y="50.127851" style="stroke: #000000"/>
     <use xlink:href="#m3c4c2cd580" x="55.413818" y="57.269379" style="stroke: #000000"/>
     <use xlink:href="#m3c4c2cd580" x="74.107636" y="77.827276" style="stroke: #000000"/>
     <use xlink:href="#m3c4c2cd580" x="88.128" y="76.494702" style="stroke: #000000"/>
     <use xlink:href="#m3c4c2cd580" x="111.495273" y="73.050982" style="stroke: #000000"/>
     <use xlink:href="#m3c4c2cd580" x="134.862545" y="68.003268" style="stroke: #000000"/>
    </g>
   </g>
   <g id="line2d_21">
    <g clip-path="url(#pee52406859)">
     <use xlink:href="#m3c4c2cd580" x="41.393455" y="42.06131" style="stroke: #000000"/>
     <use xlink:href="#m3c4c2cd580" x="50.740364" y="42.469607" style="stroke: #000000"/>
     <use xlink:href="#m3c4c2cd580" x="55.413818" y="46.075991" style="stroke: #000000"/>
     <use xlink:href="#m3c4c2cd580" x="74.107636" y="68.058871" style="stroke: #000000"/>
     <use xlink:href="#m3c4c2cd580" x="88.128" y="73.121056" style="stroke: #000000"/>
     <use xlink:href="#m3c4c2cd580" x="111.495273" y="68.302282" style="stroke: #000000"/>
     <use xlink:href="#m3c4c2cd580" x="134.862545" y="58.596838" style="stroke: #000000"/>
    </g>
   </g>
   <g id="line2d_22">
    <path d="M 41.393455 42.06131 
L 50.740364 56.810358 
L 55.413818 52.492076 
L 74.107636 86.167467 
L 88.128 73.998774 
L 111.495273 75.041633 
L 134.862545 69.935169 
" clip-path="url(#pee52406859)" style="fill: none"/>
   </g>
   <g id="line2d_23">
    <path d="M 41.393455 42.06131 
L 50.740364 43.107958 
L 55.413818 46.82456 
L 74.107636 74.087923 
L 88.128 74.416449 
L 111.495273 70.811159 
L 134.862545 58.163207 
" clip-path="url(#pee52406859)" style="fill: none"/>
   </g>
   <g id="line2d_24">
    <path d="M 41.393455 42.06131 
L 50.740364 45.928121 
L 55.413818 50.886499 
L 74.107636 72.342436 
L 88.128 74.735593 
L 111.495273 70.533584 
L 134.862545 62.742696 
" clip-path="url(#pee52406859)" style="fill: none"/>
   </g>
   <g id="matplotlib.axis_1">
    <g id="xtick_1">
     <g id="line2d_25">
      <defs>
       <path id="m46df19e200" d="M 0 0 
L 0 -3.5 
" style="stroke: #000000; stroke-width: 0.8"/>
      </defs>
      <g>
       <use xlink:href="#m46df19e200" x="41.393455" y="105.336" style="stroke: #000000; stroke-width: 0.8"/>
      </g>
     </g>
     <g id="text_1">
      <!-- 0 -->
      <g transform="translate(38.056892 117.444125) scale(0.12 -0.12)">
       <defs>
        <path id="Helvetica-30" d="M 1731 4475 
Q 2600 4475 2988 3759 
Q 3288 3206 3288 2244 
Q 3288 1331 3016 734 
Q 2622 -122 1728 -122 
Q 922 -122 528 578 
Q 200 1163 200 2147 
Q 200 2909 397 3456 
Q 766 4475 1731 4475 
z
M 1725 391 
Q 2163 391 2422 778 
Q 2681 1166 2681 2222 
Q 2681 2984 2493 3476 
Q 2306 3969 1766 3969 
Q 1269 3969 1039 3501 
Q 809 3034 809 2125 
Q 809 1441 956 1025 
Q 1181 391 1725 391 
z
" transform="scale(0.015625)"/>
       </defs>
       <use xlink:href="#Helvetica-30"/>
      </g>
     </g>
    </g>
    <g id="xtick_2">
     <g id="line2d_26">
      <g>
       <use xlink:href="#m46df19e200" x="88.128" y="105.336" style="stroke: #000000; stroke-width: 0.8"/>
      </g>
     </g>
     <g id="text_2">
      <!-- 10 -->
      <g transform="translate(81.454875 117.444125) scale(0.12 -0.12)">
       <defs>
        <path id="Helvetica-31" d="M 613 3169 
L 613 3600 
Q 1222 3659 1462 3798 
Q 1703 3938 1822 4456 
L 2266 4456 
L 2266 0 
L 1666 0 
L 1666 3169 
L 613 3169 
z
" transform="scale(0.015625)"/>
       </defs>
       <use xlink:href="#Helvetica-31"/>
       <use xlink:href="#Helvetica-30" x="55.615234"/>
      </g>
     </g>
    </g>
    <g id="xtick_3">
     <g id="line2d_27">
      <g>
       <use xlink:href="#m46df19e200" x="134.862545" y="105.336" style="stroke: #000000; stroke-width: 0.8"/>
      </g>
     </g>
     <g id="text_3">
      <!-- 20 -->
      <g transform="translate(128.18942 117.444125) scale(0.12 -0.12)">
       <defs>
        <path id="Helvetica-32" d="M 200 0 
Q 231 578 439 1006 
Q 647 1434 1250 1784 
L 1850 2131 
Q 2253 2366 2416 2531 
Q 2672 2791 2672 3125 
Q 2672 3516 2437 3745 
Q 2203 3975 1813 3975 
Q 1234 3975 1013 3538 
Q 894 3303 881 2888 
L 309 2888 
Q 319 3472 525 3841 
Q 891 4491 1816 4491 
Q 2584 4491 2939 4075 
Q 3294 3659 3294 3150 
Q 3294 2613 2916 2231 
Q 2697 2009 2131 1694 
L 1703 1456 
Q 1397 1288 1222 1134 
Q 909 863 828 531 
L 3272 531 
L 3272 0 
L 200 0 
z
" transform="scale(0.015625)"/>
       </defs>
       <use xlink:href="#Helvetica-32"/>
       <use xlink:href="#Helvetica-30" x="55.615234"/>
      </g>
     </g>
    </g>
   </g>
   <g id="matplotlib.axis_2">
    <g id="ytick_1">
     <g id="line2d_28">
      <defs>
       <path id="m7e138dfdcc" d="M 0 0 
L 3.5 0 
" style="stroke: #000000; stroke-width: 0.8"/>
      </defs>
      <g>
       <use xlink:href="#m7e138dfdcc" x="36.72" y="105.336" style="stroke: #000000; stroke-width: 0.8"/>
      </g>
     </g>
     <g id="text_4">
      <!-- $\mathdefault{10^{0}}$ -->
      <g transform="translate(14.74 109.640062) scale(0.12 -0.12)">
       <use xlink:href="#Helvetica-31" transform="translate(0 0.446875)"/>
       <use xlink:href="#Helvetica-30" transform="translate(55.615234 0.446875)"/>
       <use xlink:href="#Helvetica-30" transform="translate(112.145664 37.054688) scale(0.7)"/>
      </g>
     </g>
    </g>
    <g id="ytick_2">
     <g id="line2d_29">
      <g>
       <use xlink:href="#m7e138dfdcc" x="36.72" y="60.073192" style="stroke: #000000; stroke-width: 0.8"/>
      </g>
     </g>
     <g id="text_5">
      <!-- $\mathdefault{10^{1}}$ -->
      <g transform="translate(14.74 64.377255) scale(0.12 -0.12)">
       <use xlink:href="#Helvetica-31" transform="translate(0 0.654688)"/>
       <use xlink:href="#Helvetica-30" transform="translate(55.615234 0.654688)"/>
       <use xlink:href="#Helvetica-31" transform="translate(112.145664 37.2625) scale(0.7)"/>
      </g>
     </g>
    </g>
    <g id="ytick_3">
     <g id="line2d_30">
      <g>
       <use xlink:href="#m7e138dfdcc" x="36.72" y="14.810385" style="stroke: #000000; stroke-width: 0.8"/>
      </g>
     </g>
     <g id="text_6">
      <!-- $\mathdefault{10^{2}}$ -->
      <g transform="translate(14.74 19.114447) scale(0.12 -0.12)">
       <use xlink:href="#Helvetica-31" transform="translate(0 0.271875)"/>
       <use xlink:href="#Helvetica-30" transform="translate(55.615234 0.271875)"/>
       <use xlink:href="#Helvetica-32" transform="translate(112.145664 36.879688) scale(0.7)"/>
      </g>
     </g>
    </g>
    <g id="ytick_4">
     <g id="line2d_31">
      <defs>
       <path id="m52bb24e644" d="M 0 0 
L 2 0 
" style="stroke: #000000; stroke-width: 0.6"/>
      </defs>
      <g>
       <use xlink:href="#m52bb24e644" x="36.72" y="91.710537" style="stroke: #000000; stroke-width: 0.6"/>
      </g>
     </g>
    </g>
    <g id="ytick_5">
     <g id="line2d_32">
      <g>
       <use xlink:href="#m52bb24e644" x="36.72" y="83.740152" style="stroke: #000000; stroke-width: 0.6"/>
      </g>
     </g>
    </g>
    <g id="ytick_6">
     <g id="line2d_33">
      <g>
       <use xlink:href="#m52bb24e644" x="36.72" y="78.085074" style="stroke: #000000; stroke-width: 0.6"/>
      </g>
     </g>
    </g>
    <g id="ytick_7">
     <g id="line2d_34">
      <g>
       <use xlink:href="#m52bb24e644" x="36.72" y="73.698655" style="stroke: #000000; stroke-width: 0.6"/>
      </g>
     </g>
    </g>
    <g id="ytick_8">
     <g id="line2d_35">
      <g>
       <use xlink:href="#m52bb24e644" x="36.72" y="70.11469" style="stroke: #000000; stroke-width: 0.6"/>
      </g>
     </g>
    </g>
    <g id="ytick_9">
     <g id="line2d_36">
      <g>
       <use xlink:href="#m52bb24e644" x="36.72" y="67.08449" style="stroke: #000000; stroke-width: 0.6"/>
      </g>
     </g>
    </g>
    <g id="ytick_10">
     <g id="line2d_37">
      <g>
       <use xlink:href="#m52bb24e644" x="36.72" y="64.459612" style="stroke: #000000; stroke-width: 0.6"/>
      </g>
     </g>
    </g>
    <g id="ytick_11">
     <g id="line2d_38">
      <g>
       <use xlink:href="#m52bb24e644" x="36.72" y="62.144305" style="stroke: #000000; stroke-width: 0.6"/>
      </g>
     </g>
    </g>
    <g id="ytick_12">
     <g id="line2d_39">
      <g>
       <use xlink:href="#m52bb24e644" x="36.72" y="46.44773" style="stroke: #000000; stroke-width: 0.6"/>
      </g>
     </g>
    </g>
    <g id="ytick_13">
     <g id="line2d_40">
      <g>
       <use xlink:href="#m52bb24e644" x="36.72" y="38.477345" style="stroke: #000000; stroke-width: 0.6"/>
      </g>
     </g>
    </g>
    <g id="ytick_14">
     <g id="line2d_41">
      <g>
       <use xlink:href="#m52bb24e644" x="36.72" y="32.822267" style="stroke: #000000; stroke-width: 0.6"/>
      </g>
     </g>
    </g>
    <g id="ytick_15">
     <g id="line2d_42">
      <g>
       <use xlink:href="#m52bb24e644" x="36.72" y="28.435848" style="stroke: #000000; stroke-width: 0.6"/>
      </g>
     </g>
    </g>
    <g id="ytick_16">
     <g id="line2d_43">
      <g>
       <use xlink:href="#m52bb24e644" x="36.72" y="24.851882" style="stroke: #000000; stroke-width: 0.6"/>
      </g>
     </g>
    </g>
    <g id="ytick_17">
     <g id="line2d_44">
      <g>
       <use xlink:href="#m52bb24e644" x="36.72" y="21.821682" style="stroke: #000000; stroke-width: 0.6"/>
      </g>
     </g>
    </g>
    <g id="ytick_18">
     <g id="line2d_45">
      <g>
       <use xlink:href="#m52bb24e644" x="36.72" y="19.196804" style="stroke: #000000; stroke-width: 0.6"/>
      </g>
     </g>
    </g>
    <g id="ytick_19">
     <g id="line2d_46">
      <g>
       <use xlink:href="#m52bb24e644" x="36.72" y="16.881497" style="stroke: #000000; stroke-width: 0.6"/>
      </g>
     </g>
    </g>
   </g>
   <g id="patch_3">
    <path d="M 36.72 105.336 
L 36.72 6.84 
" style="fill: none; stroke: #000000; stroke-width: 0.8; stroke-linejoin: miter; stroke-linecap: square"/>
   </g>
   <g id="patch_4">
    <path d="M 139.536 105.336 
L 139.536 6.84 
" style="fill: none; stroke: #000000; stroke-width: 0.8; stroke-linejoin: miter; stroke-linecap: square"/>
   </g>
   <g id="patch_5">
    <path d="M 36.72 105.336 
L 139.536 105.336 
" style="fill: none; stroke: #000000; stroke-width: 0.8; stroke-linejoin: miter; stroke-linecap: square"/>
   </g>
   <g id="patch_6">
    <path d="M 36.72 6.84 
L 139.536 6.84 
" style="fill: none; stroke: #000000; stroke-width: 0.8; stroke-linejoin: miter; stroke-linecap: square"/>
   </g>
   <g id="text_7">
    <!-- RP4 -->
    <g transform="translate(110.02329 95.4864) scale(0.12 -0.12)">
     <defs>
      <path id="Helvetica-52" d="M 2622 2488 
Q 3059 2488 3314 2663 
Q 3569 2838 3569 3294 
Q 3569 3784 3213 3963 
Q 3022 4056 2703 4056 
L 1184 4056 
L 1184 2488 
L 2622 2488 
z
M 563 4591 
L 2688 4591 
Q 3213 4591 3553 4438 
Q 4200 4144 4200 3353 
Q 4200 2941 4029 2678 
Q 3859 2416 3553 2256 
Q 3822 2147 3958 1969 
Q 4094 1791 4109 1391 
L 4131 775 
Q 4141 513 4175 384 
Q 4231 166 4375 103 
L 4375 0 
L 3613 0 
Q 3581 59 3562 153 
Q 3544 247 3531 516 
L 3494 1281 
Q 3472 1731 3159 1884 
Q 2981 1969 2600 1969 
L 1184 1969 
L 1184 0 
L 563 0 
L 563 4591 
z
" transform="scale(0.015625)"/>
      <path id="Helvetica-50" d="M 547 4591 
L 2613 4591 
Q 3225 4591 3600 4245 
Q 3975 3900 3975 3275 
Q 3975 2738 3640 2339 
Q 3306 1941 2613 1941 
L 1169 1941 
L 1169 0 
L 547 0 
L 547 4591 
z
M 3347 3272 
Q 3347 3778 2972 3959 
Q 2766 4056 2406 4056 
L 1169 4056 
L 1169 2466 
L 2406 2466 
Q 2825 2466 3086 2644 
Q 3347 2822 3347 3272 
z
" transform="scale(0.015625)"/>
      <path id="Helvetica-34" d="M 2116 1584 
L 2116 3613 
L 681 1584 
L 2116 1584 
z
M 2125 0 
L 2125 1094 
L 163 1094 
L 163 1644 
L 2213 4488 
L 2688 4488 
L 2688 1584 
L 3347 1584 
L 3347 1094 
L 2688 1094 
L 2688 0 
L 2125 0 
z
" transform="scale(0.015625)"/>
     </defs>
     <use xlink:href="#Helvetica-52"/>
     <use xlink:href="#Helvetica-50" x="72.216797"/>
     <use xlink:href="#Helvetica-34" x="138.916016"/>
    </g>
   </g>
  </g>
 </g>
 <defs>
  <clipPath id="pee52406859">
   <rect x="36.72" y="6.84" width="102.816" height="98.496"/>
  </clipPath>
 </defs>
</svg>
