<?xml version="1.0" encoding="utf-8" standalone="no"?>
<!DOCTYPE svg PUBLIC "-//W3C//DTD SVG 1.1//EN"
  "http://www.w3.org/Graphics/SVG/1.1/DTD/svg11.dtd">
<svg xmlns:xlink="http://www.w3.org/1999/xlink" width="146.88pt" height="136.8pt" viewBox="0 0 146.88 136.8" xmlns="http://www.w3.org/2000/svg" version="1.1">
 <metadata>
  <rdf:RDF xmlns:dc="http://purl.org/dc/elements/1.1/" xmlns:cc="http://creativecommons.org/ns#" xmlns:rdf="http://www.w3.org/1999/02/22-rdf-syntax-ns#">
   <cc:Work>
    <dc:type rdf:resource="http://purl.org/dc/dcmitype/StillImage"/>
    <dc:date>2025-10-11T21:10:32.310082</dc:date>
    <dc:format>image/svg+xml</dc:format>
    <dc:creator>
     <cc:Agent>
      <dc:title>Matplotlib v3.7.5, https://matplotlib.org/</dc:title>
     </cc:Agent>
    </dc:creator>
   </cc:Work>
  </rdf:RDF>
 </metadata>
 <defs>
  <style type="text/css">*{stroke-linejoin: round; stroke-linecap: butt}</style>
 </defs>
 <g id="figure_1">
  <g id="patch_1">
   <path d="M 0 136.8 
L 146.88 136.8 
L 146.88 0 
L 0 0 
z
" style="fill: #ffffff"/>
  </g>
  <g id="axes_1">
   <g id="patch_2">
    <path d="M 36.72 105.336 
L 139.536 105.336 
L 139.536 6.84 
L 36.72 6.84 
z
" style="fill: #ffffff"/>
   </g>
   <g id="PolyCollection_1">
    <defs>
     <path id="m958f2a73b7" d="M 50.740364 -129.96 
L 50.740364 -31.464 
L 55.413818 -31.464 
L 55.413818 -129.96 
L 55.413818 -129.96 
L 50.740364 -129.96 
z
" style="stroke: #808080; stroke-opacity: 0.3"/>
    </defs>
    <g clip-path="url(#pecdea093cb)">
     <use xlink:href="#m958f2a73b7" x="0" y="136.8" style="fill: #808080; fill-opacity: 0.3; stroke: #808080; stroke-opacity: 0.3"/>
    </g>
   </g>
   <g id="line2d_1">
    <path d="M 41.393455 42.06131 
L 50.740364 51.571495 
L 55.413818 14.256619 
L 74.107636 22.038893 
L 88.128 15.880439 
L 111.495273 12.531718 
L 134.862545 9.779403 
" clip-path="url(#pecdea093cb)" style="fill: none; stroke: #fc8d62; stroke-width: 1.5; stroke-linecap: square"/>
   </g>
   <g id="PathCollection_1">
    <defs>
     <path id="m38caa735b7" d="M 0 3.872983 
C 1.027127 3.872983 2.012324 3.464901 2.738613 2.738613 
C 3.464901 2.012324 3.872983 1.027127 3.872983 0 
C 3.872983 -1.027127 3.464901 -2.012324 2.738613 -2.738613 
C 2.012324 -3.464901 1.027127 -3.872983 0 -3.872983 
C -1.027127 -3.872983 -2.012324 -3.464901 -2.738613 -2.738613 
C -3.464901 -2.012324 -3.872983 -1.027127 -3.872983 0 
C -3.872983 1.027127 -3.464901 2.012324 -2.738613 2.738613 
C -2.012324 3.464901 -1.027127 3.872983 0 3.872983 
z
" style="stroke: #000000"/>
    </defs>
    <g clip-path="url(#pecdea093cb)">
     <use xlink:href="#m38caa735b7" x="41.393455" y="42.06131" style="fill: #fc8d62; stroke: #000000"/>
     <use xlink:href="#m38caa735b7" x="50.740364" y="51.571495" style="fill: #fc8d62; stroke: #000000"/>
     <use xlink:href="#m38caa735b7" x="55.413818" y="14.256619" style="fill: #fc8d62; stroke: #000000"/>
     <use xlink:href="#m38caa735b7" x="74.107636" y="22.038893" style="fill: #fc8d62; stroke: #000000"/>
     <use xlink:href="#m38caa735b7" x="88.128" y="15.880439" style="fill: #fc8d62; stroke: #000000"/>
     <use xlink:href="#m38caa735b7" x="111.495273" y="12.531718" style="fill: #fc8d62; stroke: #000000"/>
     <use xlink:href="#m38caa735b7" x="134.862545" y="9.779403" style="fill: #fc8d62; stroke: #000000"/>
    </g>
   </g>
   <g id="LineCollection_1">
    <path d="M 41.393455 42.06131 
L 41.393455 42.06131 
" clip-path="url(#pecdea093cb)" style="fill: none; stroke: #000000"/>
    <path d="M 50.740364 55.474165 
L 50.740364 48.316771 
" clip-path="url(#pecdea093cb)" style="fill: none; stroke: #000000"/>
    <path d="M 55.413818 15.707997 
L 55.413818 12.905073 
" clip-path="url(#pecdea093cb)" style="fill: none; stroke: #000000"/>
    <path d="M 74.107636 26.092571 
L 74.107636 18.679927 
" clip-path="url(#pecdea093cb)" style="fill: none; stroke: #000000"/>
    <path d="M 88.128 18.103683 
L 88.128 13.883288 
" clip-path="url(#pecdea093cb)" style="fill: none; stroke: #000000"/>
    <path d="M 111.495273 15.42301 
L 111.495273 10.011668 
" clip-path="url(#pecdea093cb)" style="fill: none; stroke: #000000"/>
    <path d="M 134.862545 12.057969 
L 134.862545 7.737733 
" clip-path="url(#pecdea093cb)" style="fill: none; stroke: #000000"/>
   </g>
   <g id="line2d_2">
    <defs>
     <path id="mf4827ff24c" d="M 2 0 
L -2 -0 
" style="stroke: #000000"/>
    </defs>
    <g clip-path="url(#pecdea093cb)">
     <use xlink:href="#mf4827ff24c" x="41.393455" y="42.06131" style="stroke: #000000"/>
     <use xlink:href="#mf4827ff24c" x="50.740364" y="55.474165" style="stroke: #000000"/>
     <use xlink:href="#mf4827ff24c" x="55.413818" y="15.707997" style="stroke: #000000"/>
     <use xlink:href="#mf4827ff24c" x="74.107636" y="26.092571" style="stroke: #000000"/>
     <use xlink:href="#mf4827ff24c" x="88.128" y="18.103683" style="stroke: #000000"/>
     <use xlink:href="#mf4827ff24c" x="111.495273" y="15.42301" style="stroke: #000000"/>
     <use xlink:href="#mf4827ff24c" x="134.862545" y="12.057969" style="stroke: #000000"/>
    </g>
   </g>
   <g id="line2d_3">
    <g clip-path="url(#pecdea093cb)">
     <use xlink:href="#mf4827ff24c" x="41.393455" y="42.06131" style="stroke: #000000"/>
     <use xlink:href="#mf4827ff24c" x="50.740364" y="48.316771" style="stroke: #000000"/>
     <use xlink:href="#mf4827ff24c" x="55.413818" y="12.905073" style="stroke: #000000"/>
     <use xlink:href="#mf4827ff24c" x="74.107636" y="18.679927" style="stroke: #000000"/>
     <use xlink:href="#mf4827ff24c" x="88.128" y="13.883288" style="stroke: #000000"/>
     <use xlink:href="#mf4827ff24c" x="111.495273" y="10.011668" style="stroke: #000000"/>
     <use xlink:href="#mf4827ff24c" x="134.862545" y="7.737733" style="stroke: #000000"/>
    </g>
   </g>
   <g id="line2d_4">
    <path d="M 41.393455 42.06131 
L 50.740364 43.972578 
L 55.413818 17.050231 
L 74.107636 12.936836 
L 88.128 15.971919 
L 111.495273 10.311957 
L 134.862545 17.282682 
" clip-path="url(#pecdea093cb)" style="fill: none; stroke: #fc8d62; stroke-width: 1.5; stroke-linecap: square"/>
   </g>
   <g id="PathCollection_2">
    <g clip-path="url(#pecdea093cb)">
     <use xlink:href="#m38caa735b7" x="41.393455" y="42.06131" style="fill: #fc8d62; stroke: #000000"/>
     <use xlink:href="#m38caa735b7" x="50.740364" y="43.972578" style="fill: #fc8d62; stroke: #000000"/>
     <use xlink:href="#m38caa735b7" x="55.413818" y="17.050231" style="fill: #fc8d62; stroke: #000000"/>
     <use xlink:href="#m38caa735b7" x="74.107636" y="12.936836" style="fill: #fc8d62; stroke: #000000"/>
     <use xlink:href="#m38caa735b7" x="88.128" y="15.971919" style="fill: #fc8d62; stroke: #000000"/>
     <use xlink:href="#m38caa735b7" x="111.495273" y="10.311957" style="fill: #fc8d62; stroke: #000000"/>
     <use xlink:href="#m38caa735b7" x="134.862545" y="17.282682" style="fill: #fc8d62; stroke: #000000"/>
    </g>
   </g>
   <g id="LineCollection_2">
    <path d="M 41.393455 42.06131 
L 41.393455 42.06131 
" clip-path="url(#pecdea093cb)" style="fill: none; stroke: #000000"/>
    <path d="M 50.740364 46.792883 
L 50.740364 41.506604 
" clip-path="url(#pecdea093cb)" style="fill: none; stroke: #000000"/>
    <path d="M 55.413818 20.04893 
L 55.413818 14.449012 
" clip-path="url(#pecdea093cb)" style="fill: none; stroke: #000000"/>
    <path d="M 74.107636 17.961861 
L 74.107636 8.938375 
" clip-path="url(#pecdea093cb)" style="fill: none; stroke: #000000"/>
    <path d="M 88.128 18.18188 
L 88.128 13.985491 
" clip-path="url(#pecdea093cb)" style="fill: none; stroke: #000000"/>
    <path d="M 111.495273 13.906332 
L 111.495273 7.274326 
" clip-path="url(#pecdea093cb)" style="fill: none; stroke: #000000"/>
    <path d="M 134.862545 19.755043 
L 134.862545 15.086824 
" clip-path="url(#pecdea093cb)" style="fill: none; stroke: #000000"/>
   </g>
   <g id="line2d_5">
    <g clip-path="url(#pecdea093cb)">
     <use xlink:href="#mf4827ff24c" x="41.393455" y="42.06131" style="stroke: #000000"/>
     <use xlink:href="#mf4827ff24c" x="50.740364" y="46.792883" style="stroke: #000000"/>
     <use xlink:href="#mf4827ff24c" x="55.413818" y="20.04893" style="stroke: #000000"/>
     <use xlink:href="#mf4827ff24c" x="74.107636" y="17.961861" style="stroke: #000000"/>
     <use xlink:href="#mf4827ff24c" x="88.128" y="18.18188" style="stroke: #000000"/>
     <use xlink:href="#mf4827ff24c" x="111.495273" y="13.906332" style="stroke: #000000"/>
     <use xlink:href="#mf4827ff24c" x="134.862545" y="19.755043" style="stroke: #000000"/>
    </g>
   </g>
   <g id="line2d_6">
    <g clip-path="url(#pecdea093cb)">
     <use xlink:href="#mf4827ff24c" x="41.393455" y="42.06131" style="stroke: #000000"/>
     <use xlink:href="#mf4827ff24c" x="50.740364" y="41.506604" style="stroke: #000000"/>
     <use xlink:href="#mf4827ff24c" x="55.413818" y="14.449012" style="stroke: #000000"/>
     <use xlink:href="#mf4827ff24c" x="74.107636" y="8.938375" style="stroke: #000000"/>
     <use xlink:href="#mf4827ff24c" x="88.128" y="13.985491" style="stroke: #000000"/>
     <use xlink:href="#mf4827ff24c" x="111.495273" y="7.274326" style="stroke: #000000"/>
     <use xlink:href="#mf4827ff24c" x="134.862545" y="15.086824" style="stroke: #000000"/>
    </g>
   </g>
   <g id="line2d_7">
    <path d="M 41.393455 42.06131 
L 50.740364 47.129557 
L 55.413818 12.561376 
L 74.107636 10.639588 
L 88.128 14.630864 
L 111.495273 11.250524 
L 134.862545 14.901603 
" clip-path="url(#pecdea093cb)" style="fill: none; stroke: #fc8d62; stroke-width: 1.5; stroke-linecap: square"/>
   </g>
   <g id="PathCollection_3">
    <g clip-path="url(#pecdea093cb)">
     <use xlink:href="#m38caa735b7" x="41.393455" y="42.06131" style="fill: #fc8d62; stroke: #000000"/>
     <use xlink:href="#m38caa735b7" x="50.740364" y="47.129557" style="fill: #fc8d62; stroke: #000000"/>
     <use xlink:href="#m38caa735b7" x="55.413818" y="12.561376" style="fill: #fc8d62; stroke: #000000"/>
     <use xlink:href="#m38caa735b7" x="74.107636" y="10.639588" style="fill: #fc8d62; stroke: #000000"/>
     <use xlink:href="#m38caa735b7" x="88.128" y="14.630864" style="fill: #fc8d62; stroke: #000000"/>
     <use xlink:href="#m38caa735b7" x="111.495273" y="11.250524" style="fill: #fc8d62; stroke: #000000"/>
     <use xlink:href="#m38caa735b7" x="134.862545" y="14.901603" style="fill: #fc8d62; stroke: #000000"/>
    </g>
   </g>
   <g id="LineCollection_3">
    <path d="M 41.393455 42.06131 
L 41.393455 42.06131 
" clip-path="url(#pecdea093cb)" style="fill: none; stroke: #000000"/>
    <path d="M 50.740364 49.054246 
L 50.740364 45.376626 
" clip-path="url(#pecdea093cb)" style="fill: none; stroke: #000000"/>
    <path d="M 55.413818 13.630172 
L 55.413818 11.547708 
" clip-path="url(#pecdea093cb)" style="fill: none; stroke: #000000"/>
    <path d="M 74.107636 13.952448 
L 74.107636 7.80535 
" clip-path="url(#pecdea093cb)" style="fill: none; stroke: #000000"/>
    <path d="M 88.128 16.017473 
L 88.128 13.335653 
" clip-path="url(#pecdea093cb)" style="fill: none; stroke: #000000"/>
    <path d="M 111.495273 14.330231 
L 111.495273 8.588597 
" clip-path="url(#pecdea093cb)" style="fill: none; stroke: #000000"/>
    <path d="M 134.862545 15.789828 
L 134.862545 14.051782 
" clip-path="url(#pecdea093cb)" style="fill: none; stroke: #000000"/>
   </g>
   <g id="line2d_8">
    <g clip-path="url(#pecdea093cb)">
     <use xlink:href="#mf4827ff24c" x="41.393455" y="42.06131" style="stroke: #000000"/>
     <use xlink:href="#mf4827ff24c" x="50.740364" y="49.054246" style="stroke: #000000"/>
     <use xlink:href="#mf4827ff24c" x="55.413818" y="13.630172" style="stroke: #000000"/>
     <use xlink:href="#mf4827ff24c" x="74.107636" y="13.952448" style="stroke: #000000"/>
     <use xlink:href="#mf4827ff24c" x="88.128" y="16.017473" style="stroke: #000000"/>
     <use xlink:href="#mf4827ff24c" x="111.495273" y="14.330231" style="stroke: #000000"/>
     <use xlink:href="#mf4827ff24c" x="134.862545" y="15.789828" style="stroke: #000000"/>
    </g>
   </g>
   <g id="line2d_9">
    <g clip-path="url(#pecdea093cb)">
     <use xlink:href="#mf4827ff24c" x="41.393455" y="42.06131" style="stroke: #000000"/>
     <use xlink:href="#mf4827ff24c" x="50.740364" y="45.376626" style="stroke: #000000"/>
     <use xlink:href="#mf4827ff24c" x="55.413818" y="11.547708" style="stroke: #000000"/>
     <use xlink:href="#mf4827ff24c" x="74.107636" y="7.80535" style="stroke: #000000"/>
     <use xlink:href="#mf4827ff24c" x="88.128" y="13.335653" style="stroke: #000000"/>
     <use xlink:href="#mf4827ff24c" x="111.495273" y="8.588597" style="stroke: #000000"/>
     <use xlink:href="#mf4827ff24c" x="134.862545" y="14.051782" style="stroke: #000000"/>
    </g>
   </g>
   <g id="line2d_10">
    <path d="M 41.393455 42.06131 
L 50.740364 51.571495 
L 55.413818 14.256619 
L 74.107636 22.038893 
L 88.128 15.880439 
L 111.495273 12.531718 
L 134.862545 9.779403 
" clip-path="url(#pecdea093cb)" style="fill: none"/>
   </g>
   <g id="line2d_11">
    <path d="M 41.393455 42.06131 
L 50.740364 43.972578 
L 55.413818 17.050231 
L 74.107636 12.936836 
L 88.128 15.971919 
L 111.495273 10.311957 
L 134.862545 17.282682 
" clip-path="url(#pecdea093cb)" style="fill: none"/>
   </g>
   <g id="line2d_12">
    <path d="M 41.393455 42.06131 
L 50.740364 47.129557 
L 55.413818 12.561376 
L 74.107636 10.639588 
L 88.128 14.630864 
L 111.495273 11.250524 
L 134.862545 14.901603 
" clip-path="url(#pecdea093cb)" style="fill: none"/>
   </g>
   <g id="line2d_13">
    <path d="M 41.393455 42.06131 
L 50.740364 51.571495 
L 55.413818 61.341851 
L 74.107636 87.152437 
L 88.128 102.897449 
L 105.225572 137.8 
" clip-path="url(#pecdea093cb)" style="fill: none; stroke: #8da0cb; stroke-width: 1.5; stroke-linecap: square"/>
   </g>
   <g id="PathCollection_4">
    <defs>
     <path id="m01ed4cd206" d="M 0 3.872983 
C 1.027127 3.872983 2.012324 3.464901 2.738613 2.738613 
C 3.464901 2.012324 3.872983 1.027127 3.872983 0 
C 3.872983 -1.027127 3.464901 -2.012324 2.738613 -2.738613 
C 2.012324 -3.464901 1.027127 -3.872983 0 -3.872983 
C -1.027127 -3.872983 -2.012324 -3.464901 -2.738613 -2.738613 
C -3.464901 -2.012324 -3.872983 -1.027127 -3.872983 0 
C -3.872983 1.027127 -3.464901 2.012324 -2.738613 2.738613 
C -2.012324 3.464901 -1.027127 3.872983 0 3.872983 
z
" style="stroke: #000000"/>
    </defs>
    <g clip-path="url(#pecdea093cb)">
     <use xlink:href="#m01ed4cd206" x="41.393455" y="42.06131" style="fill: #8da0cb; stroke: #000000"/>
     <use xlink:href="#m01ed4cd206" x="50.740364" y="51.571495" style="fill: #8da0cb; stroke: #000000"/>
     <use xlink:href="#m01ed4cd206" x="55.413818" y="61.341851" style="fill: #8da0cb; stroke: #000000"/>
     <use xlink:href="#m01ed4cd206" x="74.107636" y="87.152437" style="fill: #8da0cb; stroke: #000000"/>
     <use xlink:href="#m01ed4cd206" x="88.128" y="102.897449" style="fill: #8da0cb; stroke: #000000"/>
     <use xlink:href="#m01ed4cd206" x="111.495273" y="150.598808" style="fill: #8da0cb; stroke: #000000"/>
     <use xlink:href="#m01ed4cd206" x="134.862545" y="150.598808" style="fill: #8da0cb; stroke: #000000"/>
    </g>
   </g>
   <g id="LineCollection_4">
    <path d="M 41.393455 42.06131 
L 41.393455 42.06131 
" clip-path="url(#pecdea093cb)" style="fill: none; stroke: #000000"/>
    <path d="M 50.740364 55.474165 
L 50.740364 48.316771 
" clip-path="url(#pecdea093cb)" style="fill: none; stroke: #000000"/>
    <path d="M 55.413818 72.713734 
L 55.413818 54.183976 
" clip-path="url(#pecdea093cb)" style="fill: none; stroke: #000000"/>
    <path d="M 74.107636 90.914915 
L 74.107636 83.995713 
" clip-path="url(#pecdea093cb)" style="fill: none; stroke: #000000"/>
    <path d="M 88.128 117.419256 
L 88.128 94.637141 
" clip-path="url(#pecdea093cb)" style="fill: none; stroke: #000000"/>
    <path clip-path="url(#pecdea093cb)" style="fill: none; stroke: #000000"/>
    <path clip-path="url(#pecdea093cb)" style="fill: none; stroke: #000000"/>
   </g>
   <g id="line2d_14">
    <g clip-path="url(#pecdea093cb)">
     <use xlink:href="#mf4827ff24c" x="41.393455" y="42.06131" style="stroke: #000000"/>
     <use xlink:href="#mf4827ff24c" x="50.740364" y="55.474165" style="stroke: #000000"/>
     <use xlink:href="#mf4827ff24c" x="55.413818" y="72.713734" style="stroke: #000000"/>
     <use xlink:href="#mf4827ff24c" x="74.107636" y="90.914915" style="stroke: #000000"/>
     <use xlink:href="#mf4827ff24c" x="88.128" y="117.419256" style="stroke: #000000"/>
     <use xlink:href="#mf4827ff24c" x="111.495273" y="165.594713" style="stroke: #000000"/>
     <use xlink:href="#mf4827ff24c" x="134.862545" y="151.865367" style="stroke: #000000"/>
    </g>
   </g>
   <g id="line2d_15">
    <g clip-path="url(#pecdea093cb)">
     <use xlink:href="#mf4827ff24c" x="41.393455" y="42.06131" style="stroke: #000000"/>
     <use xlink:href="#mf4827ff24c" x="50.740364" y="48.316771" style="stroke: #000000"/>
     <use xlink:href="#mf4827ff24c" x="55.413818" y="54.183976" style="stroke: #000000"/>
     <use xlink:href="#mf4827ff24c" x="74.107636" y="83.995713" style="stroke: #000000"/>
     <use xlink:href="#mf4827ff24c" x="88.128" y="94.637141" style="stroke: #000000"/>
     <use xlink:href="#mf4827ff24c" x="111.495273" y="142.192048" style="stroke: #000000"/>
     <use xlink:href="#mf4827ff24c" x="134.862545" y="149.408939" style="stroke: #000000"/>
    </g>
   </g>
   <g id="line2d_16">
    <path d="M 41.393455 42.06131 
L 50.740364 43.972578 
L 55.413818 40.126236 
L 74.107636 82.222806 
L 88.128 96.25359 
L 111.24929 137.8 
" clip-path="url(#pecdea093cb)" style="fill: none; stroke: #8da0cb; stroke-width: 1.5; stroke-linecap: square"/>
   </g>
   <g id="PathCollection_5">
    <g clip-path="url(#pecdea093cb)">
     <use xlink:href="#m01ed4cd206" x="41.393455" y="42.06131" style="fill: #8da0cb; stroke: #000000"/>
     <use xlink:href="#m01ed4cd206" x="50.740364" y="43.972578" style="fill: #8da0cb; stroke: #000000"/>
     <use xlink:href="#m01ed4cd206" x="55.413818" y="40.126236" style="fill: #8da0cb; stroke: #000000"/>
     <use xlink:href="#m01ed4cd206" x="74.107636" y="82.222806" style="fill: #8da0cb; stroke: #000000"/>
     <use xlink:href="#m01ed4cd206" x="88.128" y="96.25359" style="fill: #8da0cb; stroke: #000000"/>
     <use xlink:href="#m01ed4cd206" x="111.495273" y="138.242004" style="fill: #8da0cb; stroke: #000000"/>
     <use xlink:href="#m01ed4cd206" x="134.862545" y="150.598808" style="fill: #8da0cb; stroke: #000000"/>
    </g>
   </g>
   <g id="LineCollection_5">
    <path d="M 41.393455 42.06131 
L 41.393455 42.06131 
" clip-path="url(#pecdea093cb)" style="fill: none; stroke: #000000"/>
    <path d="M 50.740364 46.792883 
L 50.740364 41.506604 
" clip-path="url(#pecdea093cb)" style="fill: none; stroke: #000000"/>
    <path d="M 55.413818 48.385895 
L 55.413818 34.328101 
" clip-path="url(#pecdea093cb)" style="fill: none; stroke: #000000"/>
    <path d="M 74.107636 86.726051 
L 74.107636 78.561341 
" clip-path="url(#pecdea093cb)" style="fill: none; stroke: #000000"/>
    <path d="M 88.128 100.118627 
L 88.128 93.025057 
" clip-path="url(#pecdea093cb)" style="fill: none; stroke: #000000"/>
    <path d="M 111.495273 137.8 
L 111.495273 132.596536 
" clip-path="url(#pecdea093cb)" style="fill: none; stroke: #000000"/>
    <path clip-path="url(#pecdea093cb)" style="fill: none; stroke: #000000"/>
   </g>
   <g id="line2d_17">
    <g clip-path="url(#pecdea093cb)">
     <use xlink:href="#mf4827ff24c" x="41.393455" y="42.06131" style="stroke: #000000"/>
     <use xlink:href="#mf4827ff24c" x="50.740364" y="46.792883" style="stroke: #000000"/>
     <use xlink:href="#mf4827ff24c" x="55.413818" y="48.385895" style="stroke: #000000"/>
     <use xlink:href="#mf4827ff24c" x="74.107636" y="86.726051" style="stroke: #000000"/>
     <use xlink:href="#mf4827ff24c" x="88.128" y="100.118627" style="stroke: #000000"/>
     <use xlink:href="#mf4827ff24c" x="111.495273" y="146.193182" style="stroke: #000000"/>
     <use xlink:href="#mf4827ff24c" x="134.862545" y="152.557256" style="stroke: #000000"/>
    </g>
   </g>
   <g id="line2d_18">
    <g clip-path="url(#pecdea093cb)">
     <use xlink:href="#mf4827ff24c" x="41.393455" y="42.06131" style="stroke: #000000"/>
     <use xlink:href="#mf4827ff24c" x="50.740364" y="41.506604" style="stroke: #000000"/>
     <use xlink:href="#mf4827ff24c" x="55.413818" y="34.328101" style="stroke: #000000"/>
     <use xlink:href="#mf4827ff24c" x="74.107636" y="78.561341" style="stroke: #000000"/>
     <use xlink:href="#mf4827ff24c" x="88.128" y="93.025057" style="stroke: #000000"/>
     <use xlink:href="#mf4827ff24c" x="111.495273" y="132.596536" style="stroke: #000000"/>
     <use xlink:href="#mf4827ff24c" x="134.862545" y="148.817921" style="stroke: #000000"/>
    </g>
   </g>
   <g id="line2d_19">
    <path d="M 41.393455 42.06131 
L 50.740364 47.129557 
L 55.413818 53.976357 
L 74.107636 75.103352 
L 88.128 94.604699 
L 110.50047 137.8 
" clip-path="url(#pecdea093cb)" style="fill: none; stroke: #8da0cb; stroke-width: 1.5; stroke-linecap: square"/>
   </g>
   <g id="PathCollection_6">
    <g clip-path="url(#pecdea093cb)">
     <use xlink:href="#m01ed4cd206" x="41.393455" y="42.06131" style="fill: #8da0cb; stroke: #000000"/>
     <use xlink:href="#m01ed4cd206" x="50.740364" y="47.129557" style="fill: #8da0cb; stroke: #000000"/>
     <use xlink:href="#m01ed4cd206" x="55.413818" y="53.976357" style="fill: #8da0cb; stroke: #000000"/>
     <use xlink:href="#m01ed4cd206" x="74.107636" y="75.103352" style="fill: #8da0cb; stroke: #000000"/>
     <use xlink:href="#m01ed4cd206" x="88.128" y="94.604699" style="fill: #8da0cb; stroke: #000000"/>
     <use xlink:href="#m01ed4cd206" x="111.495273" y="139.7207" style="fill: #8da0cb; stroke: #000000"/>
     <use xlink:href="#m01ed4cd206" x="134.862545" y="150.598808" style="fill: #8da0cb; stroke: #000000"/>
    </g>
   </g>
   <g id="LineCollection_6">
    <path d="M 41.393455 42.06131 
L 41.393455 42.06131 
" clip-path="url(#pecdea093cb)" style="fill: none; stroke: #000000"/>
    <path d="M 50.740364 49.054246 
L 50.740364 45.376626 
" clip-path="url(#pecdea093cb)" style="fill: none; stroke: #000000"/>
    <path d="M 55.413818 56.489945 
L 55.413818 51.748047 
" clip-path="url(#pecdea093cb)" style="fill: none; stroke: #000000"/>
    <path d="M 74.107636 82.205649 
L 74.107636 69.89713 
" clip-path="url(#pecdea093cb)" style="fill: none; stroke: #000000"/>
    <path d="M 88.128 101.27152 
L 88.128 89.635321 
" clip-path="url(#pecdea093cb)" style="fill: none; stroke: #000000"/>
    <path d="M 111.495273 137.8 
L 111.495273 136.201475 
" clip-path="url(#pecdea093cb)" style="fill: none; stroke: #000000"/>
    <path clip-path="url(#pecdea093cb)" style="fill: none; stroke: #000000"/>
   </g>
   <g id="line2d_20">
    <g clip-path="url(#pecdea093cb)">
     <use xlink:href="#mf4827ff24c" x="41.393455" y="42.06131" style="stroke: #000000"/>
     <use xlink:href="#mf4827ff24c" x="50.740364" y="49.054246" style="stroke: #000000"/>
     <use xlink:href="#mf4827ff24c" x="55.413818" y="56.489945" style="stroke: #000000"/>
     <use xlink:href="#mf4827ff24c" x="74.107636" y="82.205649" style="stroke: #000000"/>
     <use xlink:href="#mf4827ff24c" x="88.128" y="101.27152" style="stroke: #000000"/>
     <use xlink:href="#mf4827ff24c" x="111.495273" y="144.010405" style="stroke: #000000"/>
     <use xlink:href="#mf4827ff24c" x="134.862545" y="150.859824" style="stroke: #000000"/>
    </g>
   </g>
   <g id="line2d_21">
    <g clip-path="url(#pecdea093cb)">
     <use xlink:href="#mf4827ff24c" x="41.393455" y="42.06131" style="stroke: #000000"/>
     <use xlink:href="#mf4827ff24c" x="50.740364" y="45.376626" style="stroke: #000000"/>
     <use xlink:href="#mf4827ff24c" x="55.413818" y="51.748047" style="stroke: #000000"/>
     <use xlink:href="#mf4827ff24c" x="74.107636" y="69.89713" style="stroke: #000000"/>
     <use xlink:href="#mf4827ff24c" x="88.128" y="89.635321" style="stroke: #000000"/>
     <use xlink:href="#mf4827ff24c" x="111.495273" y="136.201475" style="stroke: #000000"/>
     <use xlink:href="#mf4827ff24c" x="134.862545" y="150.341212" style="stroke: #000000"/>
    </g>
   </g>
   <g id="line2d_22">
    <path d="M 41.393455 42.06131 
L 50.740364 51.571495 
L 55.413818 61.341851 
L 74.107636 87.152437 
L 88.128 102.897449 
L 105.225572 137.8 
" clip-path="url(#pecdea093cb)" style="fill: none"/>
   </g>
   <g id="line2d_23">
    <path d="M 41.393455 42.06131 
L 50.740364 43.972578 
L 55.413818 40.126236 
L 74.107636 82.222806 
L 88.128 96.25359 
L 111.24929 137.8 
" clip-path="url(#pecdea093cb)" style="fill: none"/>
   </g>
   <g id="line2d_24">
    <path d="M 41.393455 42.06131 
L 50.740364 47.129557 
L 55.413818 53.976357 
L 74.107636 75.103352 
L 88.128 94.604699 
L 110.50047 137.8 
" clip-path="url(#pecdea093cb)" style="fill: none"/>
   </g>
   <g id="matplotlib.axis_1">
    <g id="xtick_1">
     <g id="line2d_25">
      <defs>
       <path id="m13148062bf" d="M 0 0 
L 0 -3.5 
" style="stroke: #000000; stroke-width: 0.8"/>
      </defs>
      <g>
       <use xlink:href="#m13148062bf" x="41.393455" y="105.336" style="stroke: #000000; stroke-width: 0.8"/>
      </g>
     </g>
     <g id="text_1">
      <!-- 0 -->
      <g transform="translate(38.056892 117.444125) scale(0.12 -0.12)">
       <defs>
        <path id="Helvetica-30" d="M 1731 4475 
Q 2600 4475 2988 3759 
Q 3288 3206 3288 2244 
Q 3288 1331 3016 734 
Q 2622 -122 1728 -122 
Q 922 -122 528 578 
Q 200 1163 200 2147 
Q 200 2909 397 3456 
Q 766 4475 1731 4475 
z
M 1725 391 
Q 2163 391 2422 778 
Q 2681 1166 2681 2222 
Q 2681 2984 2493 3476 
Q 2306 3969 1766 3969 
Q 1269 3969 1039 3501 
Q 809 3034 809 2125 
Q 809 1441 956 1025 
Q 1181 391 1725 391 
z
" transform="scale(0.015625)"/>
       </defs>
       <use xlink:href="#Helvetica-30"/>
      </g>
     </g>
    </g>
    <g id="xtick_2">
     <g id="line2d_26">
      <g>
       <use xlink:href="#m13148062bf" x="88.128" y="105.336" style="stroke: #000000; stroke-width: 0.8"/>
      </g>
     </g>
     <g id="text_2">
      <!-- 10 -->
      <g transform="translate(81.454875 117.444125) scale(0.12 -0.12)">
       <defs>
        <path id="Helvetica-31" d="M 613 3169 
L 613 3600 
Q 1222 3659 1462 3798 
Q 1703 3938 1822 4456 
L 2266 4456 
L 2266 0 
L 1666 0 
L 1666 3169 
L 613 3169 
z
" transform="scale(0.015625)"/>
       </defs>
       <use xlink:href="#Helvetica-31"/>
       <use xlink:href="#Helvetica-30" x="55.615234"/>
      </g>
     </g>
    </g>
    <g id="xtick_3">
     <g id="line2d_27">
      <g>
       <use xlink:href="#m13148062bf" x="134.862545" y="105.336" style="stroke: #000000; stroke-width: 0.8"/>
      </g>
     </g>
     <g id="text_3">
      <!-- 20 -->
      <g transform="translate(128.18942 117.444125) scale(0.12 -0.12)">
       <defs>
        <path id="Helvetica-32" d="M 200 0 
Q 231 578 439 1006 
Q 647 1434 1250 1784 
L 1850 2131 
Q 2253 2366 2416 2531 
Q 2672 2791 2672 3125 
Q 2672 3516 2437 3745 
Q 2203 3975 1813 3975 
Q 1234 3975 1013 3538 
Q 894 3303 881 2888 
L 309 2888 
Q 319 3472 525 3841 
Q 891 4491 1816 4491 
Q 2584 4491 2939 4075 
Q 3294 3659 3294 3150 
Q 3294 2613 2916 2231 
Q 2697 2009 2131 1694 
L 1703 1456 
Q 1397 1288 1222 1134 
Q 909 863 828 531 
L 3272 531 
L 3272 0 
L 200 0 
z
" transform="scale(0.015625)"/>
       </defs>
       <use xlink:href="#Helvetica-32"/>
       <use xlink:href="#Helvetica-30" x="55.615234"/>
      </g>
     </g>
    </g>
    <g id="text_4">
     <!-- time (days) -->
     <g transform="translate(58.458 132.694125) scale(0.12 -0.12)">
      <defs>
       <path id="Helvetica-74" d="M 525 4281 
L 1094 4281 
L 1094 3347 
L 1628 3347 
L 1628 2888 
L 1094 2888 
L 1094 703 
Q 1094 528 1213 469 
Q 1278 434 1431 434 
Q 1472 434 1519 436 
Q 1566 438 1628 444 
L 1628 0 
Q 1531 -28 1426 -40 
Q 1322 -53 1200 -53 
Q 806 -53 665 148 
Q 525 350 525 672 
L 525 2888 
L 72 2888 
L 72 3347 
L 525 3347 
L 525 4281 
z
" transform="scale(0.015625)"/>
       <path id="Helvetica-69" d="M 413 3331 
L 984 3331 
L 984 0 
L 413 0 
L 413 3331 
z
M 413 4591 
L 984 4591 
L 984 3953 
L 413 3953 
L 413 4591 
z
" transform="scale(0.015625)"/>
       <path id="Helvetica-6d" d="M 413 3347 
L 969 3347 
L 969 2872 
Q 1169 3119 1331 3231 
Q 1609 3422 1963 3422 
Q 2363 3422 2606 3225 
Q 2744 3113 2856 2894 
Q 3044 3163 3297 3292 
Q 3550 3422 3866 3422 
Q 4541 3422 4784 2934 
Q 4916 2672 4916 2228 
L 4916 0 
L 4331 0 
L 4331 2325 
Q 4331 2659 4164 2784 
Q 3997 2909 3756 2909 
Q 3425 2909 3186 2687 
Q 2947 2466 2947 1947 
L 2947 0 
L 2375 0 
L 2375 2184 
Q 2375 2525 2294 2681 
Q 2166 2916 1816 2916 
Q 1497 2916 1236 2669 
Q 975 2422 975 1775 
L 975 0 
L 413 0 
L 413 3347 
z
" transform="scale(0.015625)"/>
       <path id="Helvetica-65" d="M 1806 3422 
Q 2163 3422 2497 3255 
Q 2831 3088 3006 2822 
Q 3175 2569 3231 2231 
Q 3281 2000 3281 1494 
L 828 1494 
Q 844 984 1069 676 
Q 1294 369 1766 369 
Q 2206 369 2469 659 
Q 2619 828 2681 1050 
L 3234 1050 
Q 3213 866 3089 639 
Q 2966 413 2813 269 
Q 2556 19 2178 -69 
Q 1975 -119 1719 -119 
Q 1094 -119 659 336 
Q 225 791 225 1609 
Q 225 2416 662 2919 
Q 1100 3422 1806 3422 
z
M 2703 1941 
Q 2669 2306 2544 2525 
Q 2313 2931 1772 2931 
Q 1384 2931 1121 2651 
Q 859 2372 844 1941 
L 2703 1941 
z
M 1753 3428 
L 1753 3428 
z
" transform="scale(0.015625)"/>
       <path id="Helvetica-20" transform="scale(0.015625)"/>
       <path id="Helvetica-28" d="M 1894 4666 
Q 1403 3713 1256 3263 
Q 1034 2578 1034 1681 
Q 1034 775 1288 25 
Q 1444 -438 1903 -1306 
L 1525 -1306 
Q 1069 -594 959 -397 
Q 850 -200 722 138 
Q 547 600 478 1125 
Q 444 1397 444 1644 
Q 444 2569 734 3291 
Q 919 3750 1503 4666 
L 1894 4666 
z
" transform="scale(0.015625)"/>
       <path id="Helvetica-64" d="M 769 1634 
Q 769 1097 997 734 
Q 1225 372 1728 372 
Q 2119 372 2370 708 
Q 2622 1044 2622 1672 
Q 2622 2306 2362 2611 
Q 2103 2916 1722 2916 
Q 1297 2916 1033 2591 
Q 769 2266 769 1634 
z
M 1616 3406 
Q 2000 3406 2259 3244 
Q 2409 3150 2600 2916 
L 2600 4606 
L 3141 4606 
L 3141 0 
L 2634 0 
L 2634 466 
Q 2438 156 2169 18 
Q 1900 -119 1553 -119 
Q 994 -119 584 351 
Q 175 822 175 1603 
Q 175 2334 548 2870 
Q 922 3406 1616 3406 
z
" transform="scale(0.015625)"/>
       <path id="Helvetica-61" d="M 844 891 
Q 844 647 1022 506 
Q 1200 366 1444 366 
Q 1741 366 2019 503 
Q 2488 731 2488 1250 
L 2488 1703 
Q 2384 1638 2221 1594 
Q 2059 1550 1903 1531 
L 1563 1488 
Q 1256 1447 1103 1359 
Q 844 1213 844 891 
z
M 2206 2028 
Q 2400 2053 2466 2191 
Q 2503 2266 2503 2406 
Q 2503 2694 2298 2823 
Q 2094 2953 1713 2953 
Q 1272 2953 1088 2716 
Q 984 2584 953 2325 
L 428 2325 
Q 444 2944 830 3186 
Q 1216 3428 1725 3428 
Q 2316 3428 2684 3203 
Q 3050 2978 3050 2503 
L 3050 575 
Q 3050 488 3086 434 
Q 3122 381 3238 381 
Q 3275 381 3322 386 
Q 3369 391 3422 400 
L 3422 -16 
Q 3291 -53 3222 -62 
Q 3153 -72 3034 -72 
Q 2744 -72 2613 134 
Q 2544 244 2516 444 
Q 2344 219 2022 53 
Q 1700 -113 1313 -113 
Q 847 -113 551 170 
Q 256 453 256 878 
Q 256 1344 547 1600 
Q 838 1856 1309 1916 
L 2206 2028 
z
M 1741 3428 
L 1741 3428 
z
" transform="scale(0.015625)"/>
       <path id="Helvetica-79" d="M 2503 3347 
L 3125 3347 
Q 3006 3025 2597 1878 
Q 2291 1016 2084 472 
Q 1597 -809 1397 -1090 
Q 1197 -1372 709 -1372 
Q 591 -1372 527 -1362 
Q 463 -1353 369 -1328 
L 369 -816 
Q 516 -856 581 -865 
Q 647 -875 697 -875 
Q 853 -875 926 -823 
Q 1000 -772 1050 -697 
Q 1066 -672 1162 -440 
Q 1259 -209 1303 -97 
L 66 3347 
L 703 3347 
L 1600 622 
L 2503 3347 
z
M 1597 3428 
L 1597 3428 
z
" transform="scale(0.015625)"/>
       <path id="Helvetica-73" d="M 747 1050 
Q 772 769 888 619 
Q 1100 347 1625 347 
Q 1938 347 2175 483 
Q 2413 619 2413 903 
Q 2413 1119 2222 1231 
Q 2100 1300 1741 1391 
L 1294 1503 
Q 866 1609 663 1741 
Q 300 1969 300 2372 
Q 300 2847 642 3140 
Q 984 3434 1563 3434 
Q 2319 3434 2653 2991 
Q 2863 2709 2856 2384 
L 2325 2384 
Q 2309 2575 2191 2731 
Q 1997 2953 1519 2953 
Q 1200 2953 1036 2831 
Q 872 2709 872 2509 
Q 872 2291 1088 2159 
Q 1213 2081 1456 2022 
L 1828 1931 
Q 2434 1784 2641 1647 
Q 2969 1431 2969 969 
Q 2969 522 2630 197 
Q 2291 -128 1597 -128 
Q 850 -128 539 211 
Q 228 550 206 1050 
L 747 1050 
z
M 1578 3428 
L 1578 3428 
z
" transform="scale(0.015625)"/>
       <path id="Helvetica-29" d="M 222 -1306 
Q 719 -338 863 106 
Q 1081 778 1081 1681 
Q 1081 2584 828 3334 
Q 672 3797 213 4666 
L 591 4666 
Q 1072 3897 1173 3717 
Q 1275 3538 1394 3222 
Q 1544 2831 1608 2450 
Q 1672 2069 1672 1716 
Q 1672 791 1378 66 
Q 1194 -400 613 -1306 
L 222 -1306 
z
" transform="scale(0.015625)"/>
      </defs>
      <use xlink:href="#Helvetica-74"/>
      <use xlink:href="#Helvetica-69" x="27.783203"/>
      <use xlink:href="#Helvetica-6d" x="50"/>
      <use xlink:href="#Helvetica-65" x="133.300781"/>
      <use xlink:href="#Helvetica-20" x="188.916016"/>
      <use xlink:href="#Helvetica-28" x="216.699219"/>
      <use xlink:href="#Helvetica-64" x="250"/>
      <use xlink:href="#Helvetica-61" x="305.615234"/>
      <use xlink:href="#Helvetica-79" x="361.230469"/>
      <use xlink:href="#Helvetica-73" x="411.230469"/>
      <use xlink:href="#Helvetica-29" x="461.230469"/>
     </g>
    </g>
   </g>
   <g id="matplotlib.axis_2">
    <g id="ytick_1">
     <g id="line2d_28">
      <defs>
       <path id="m19a03fa2d3" d="M 0 0 
L 3.5 0 
" style="stroke: #000000; stroke-width: 0.8"/>
      </defs>
      <g>
       <use xlink:href="#m19a03fa2d3" x="36.72" y="105.336" style="stroke: #000000; stroke-width: 0.8"/>
      </g>
     </g>
     <g id="text_5">
      <!-- $\mathdefault{10^{0}}$ -->
      <g transform="translate(14.74 109.640062) scale(0.12 -0.12)">
       <use xlink:href="#Helvetica-31" transform="translate(0 0.446875)"/>
       <use xlink:href="#Helvetica-30" transform="translate(55.615234 0.446875)"/>
       <use xlink:href="#Helvetica-30" transform="translate(112.145664 37.054688) scale(0.7)"/>
      </g>
     </g>
    </g>
    <g id="ytick_2">
     <g id="line2d_29">
      <g>
       <use xlink:href="#m19a03fa2d3" x="36.72" y="60.073192" style="stroke: #000000; stroke-width: 0.8"/>
      </g>
     </g>
     <g id="text_6">
      <!-- $\mathdefault{10^{1}}$ -->
      <g transform="translate(14.74 64.377255) scale(0.12 -0.12)">
       <use xlink:href="#Helvetica-31" transform="translate(0 0.654688)"/>
       <use xlink:href="#Helvetica-30" transform="translate(55.615234 0.654688)"/>
       <use xlink:href="#Helvetica-31" transform="translate(112.145664 37.2625) scale(0.7)"/>
      </g>
     </g>
    </g>
    <g id="ytick_3">
     <g id="line2d_30">
      <g>
       <use xlink:href="#m19a03fa2d3" x="36.72" y="14.810385" style="stroke: #000000; stroke-width: 0.8"/>
      </g>
     </g>
     <g id="text_7">
      <!-- $\mathdefault{10^{2}}$ -->
      <g transform="translate(14.74 19.114447) scale(0.12 -0.12)">
       <use xlink:href="#Helvetica-31" transform="translate(0 0.271875)"/>
       <use xlink:href="#Helvetica-30" transform="translate(55.615234 0.271875)"/>
       <use xlink:href="#Helvetica-32" transform="translate(112.145664 36.879688) scale(0.7)"/>
      </g>
     </g>
    </g>
    <g id="ytick_4">
     <g id="line2d_31">
      <defs>
       <path id="m273a2fefab" d="M 0 0 
L 2 0 
" style="stroke: #000000; stroke-width: 0.6"/>
      </defs>
      <g>
       <use xlink:href="#m273a2fefab" x="36.72" y="91.710537" style="stroke: #000000; stroke-width: 0.6"/>
      </g>
     </g>
    </g>
    <g id="ytick_5">
     <g id="line2d_32">
      <g>
       <use xlink:href="#m273a2fefab" x="36.72" y="83.740152" style="stroke: #000000; stroke-width: 0.6"/>
      </g>
     </g>
    </g>
    <g id="ytick_6">
     <g id="line2d_33">
      <g>
       <use xlink:href="#m273a2fefab" x="36.72" y="78.085074" style="stroke: #000000; stroke-width: 0.6"/>
      </g>
     </g>
    </g>
    <g id="ytick_7">
     <g id="line2d_34">
      <g>
       <use xlink:href="#m273a2fefab" x="36.72" y="73.698655" style="stroke: #000000; stroke-width: 0.6"/>
      </g>
     </g>
    </g>
    <g id="ytick_8">
     <g id="line2d_35">
      <g>
       <use xlink:href="#m273a2fefab" x="36.72" y="70.11469" style="stroke: #000000; stroke-width: 0.6"/>
      </g>
     </g>
    </g>
    <g id="ytick_9">
     <g id="line2d_36">
      <g>
       <use xlink:href="#m273a2fefab" x="36.72" y="67.08449" style="stroke: #000000; stroke-width: 0.6"/>
      </g>
     </g>
    </g>
    <g id="ytick_10">
     <g id="line2d_37">
      <g>
       <use xlink:href="#m273a2fefab" x="36.72" y="64.459612" style="stroke: #000000; stroke-width: 0.6"/>
      </g>
     </g>
    </g>
    <g id="ytick_11">
     <g id="line2d_38">
      <g>
       <use xlink:href="#m273a2fefab" x="36.72" y="62.144305" style="stroke: #000000; stroke-width: 0.6"/>
      </g>
     </g>
    </g>
    <g id="ytick_12">
     <g id="line2d_39">
      <g>
       <use xlink:href="#m273a2fefab" x="36.72" y="46.44773" style="stroke: #000000; stroke-width: 0.6"/>
      </g>
     </g>
    </g>
    <g id="ytick_13">
     <g id="line2d_40">
      <g>
       <use xlink:href="#m273a2fefab" x="36.72" y="38.477345" style="stroke: #000000; stroke-width: 0.6"/>
      </g>
     </g>
    </g>
    <g id="ytick_14">
     <g id="line2d_41">
      <g>
       <use xlink:href="#m273a2fefab" x="36.72" y="32.822267" style="stroke: #000000; stroke-width: 0.6"/>
      </g>
     </g>
    </g>
    <g id="ytick_15">
     <g id="line2d_42">
      <g>
       <use xlink:href="#m273a2fefab" x="36.72" y="28.435848" style="stroke: #000000; stroke-width: 0.6"/>
      </g>
     </g>
    </g>
    <g id="ytick_16">
     <g id="line2d_43">
      <g>
       <use xlink:href="#m273a2fefab" x="36.72" y="24.851882" style="stroke: #000000; stroke-width: 0.6"/>
      </g>
     </g>
    </g>
    <g id="ytick_17">
     <g id="line2d_44">
      <g>
       <use xlink:href="#m273a2fefab" x="36.72" y="21.821682" style="stroke: #000000; stroke-width: 0.6"/>
      </g>
     </g>
    </g>
    <g id="ytick_18">
     <g id="line2d_45">
      <g>
       <use xlink:href="#m273a2fefab" x="36.72" y="19.196804" style="stroke: #000000; stroke-width: 0.6"/>
      </g>
     </g>
    </g>
    <g id="ytick_19">
     <g id="line2d_46">
      <g>
       <use xlink:href="#m273a2fefab" x="36.72" y="16.881497" style="stroke: #000000; stroke-width: 0.6"/>
      </g>
     </g>
    </g>
    <g id="text_8">
     <!-- P% -->
     <g transform="translate(-7.935 59.141437) scale(0.12 -0.12)">
      <defs>
       <path id="Helvetica-50" d="M 547 4591 
L 2613 4591 
Q 3225 4591 3600 4245 
Q 3975 3900 3975 3275 
Q 3975 2738 3640 2339 
Q 3306 1941 2613 1941 
L 1169 1941 
L 1169 0 
L 547 0 
L 547 4591 
z
M 3347 3272 
Q 3347 3778 2972 3959 
Q 2766 4056 2406 4056 
L 1169 4056 
L 1169 2466 
L 2406 2466 
Q 2825 2466 3086 2644 
Q 3347 2822 3347 3272 
z
" transform="scale(0.015625)"/>
       <path id="Helvetica-25" d="M 4363 2175 
Q 4813 2175 5131 1856 
Q 5450 1538 5450 1088 
Q 5450 638 5131 319 
Q 4813 0 4363 0 
Q 3909 0 3590 319 
Q 3272 638 3272 1088 
Q 3272 1538 3590 1856 
Q 3909 2175 4363 2175 
z
M 3909 4456 
L 4256 4456 
L 1753 -119 
L 1406 -119 
L 3909 4456 
z
M 1294 2606 
Q 1563 2606 1752 2795 
Q 1941 2984 1941 3250 
Q 1941 3516 1752 3705 
Q 1563 3894 1294 3894 
Q 1028 3894 839 3706 
Q 650 3519 650 3250 
Q 650 2984 839 2795 
Q 1028 2606 1294 2606 
z
M 1294 4341 
Q 1747 4341 2065 4020 
Q 2384 3700 2384 3250 
Q 2384 2800 2065 2481 
Q 1747 2163 1294 2163 
Q 844 2163 525 2481 
Q 206 2800 206 3250 
Q 206 3700 525 4020 
Q 844 4341 1294 4341 
z
M 4363 444 
Q 4628 444 4817 633 
Q 5006 822 5006 1088 
Q 5006 1353 4817 1542 
Q 4628 1731 4363 1731 
Q 4094 1731 3905 1542 
Q 3716 1353 3716 1088 
Q 3716 822 3905 633 
Q 4094 444 4363 444 
z
" transform="scale(0.015625)"/>
      </defs>
      <use xlink:href="#Helvetica-50"/>
      <use xlink:href="#Helvetica-25" x="66.699219"/>
     </g>
    </g>
   </g>
   <g id="patch_3">
    <path d="M 36.72 105.336 
L 36.72 6.84 
" style="fill: none; stroke: #000000; stroke-width: 0.8; stroke-linejoin: miter; stroke-linecap: square"/>
   </g>
   <g id="patch_4">
    <path d="M 139.536 105.336 
L 139.536 6.84 
" style="fill: none; stroke: #000000; stroke-width: 0.8; stroke-linejoin: miter; stroke-linecap: square"/>
   </g>
   <g id="patch_5">
    <path d="M 36.72 105.336 
L 139.536 105.336 
" style="fill: none; stroke: #000000; stroke-width: 0.8; stroke-linejoin: miter; stroke-linecap: square"/>
   </g>
   <g id="patch_6">
    <path d="M 36.72 6.84 
L 139.536 6.84 
" style="fill: none; stroke: #000000; stroke-width: 0.8; stroke-linejoin: miter; stroke-linecap: square"/>
   </g>
   <g id="text_9">
    <!-- Comm57 -->
    <g transform="translate(84.690165 72.8058) scale(0.12 -0.12)">
     <defs>
      <path id="Helvetica-43" d="M 2422 4716 
Q 3294 4716 3775 4256 
Q 4256 3797 4309 3213 
L 3703 3213 
Q 3600 3656 3292 3915 
Q 2984 4175 2428 4175 
Q 1750 4175 1333 3698 
Q 916 3222 916 2238 
Q 916 1431 1292 929 
Q 1669 428 2416 428 
Q 3103 428 3463 956 
Q 3653 1234 3747 1688 
L 4353 1688 
Q 4272 963 3816 472 
Q 3269 -119 2341 -119 
Q 1541 -119 997 366 
Q 281 1006 281 2344 
Q 281 3359 819 4009 
Q 1400 4716 2422 4716 
z
M 2297 4716 
L 2297 4716 
z
" transform="scale(0.015625)"/>
      <path id="Helvetica-6f" d="M 1741 363 
Q 2300 363 2508 786 
Q 2716 1209 2716 1728 
Q 2716 2197 2566 2491 
Q 2328 2953 1747 2953 
Q 1231 2953 997 2559 
Q 763 2166 763 1609 
Q 763 1075 997 719 
Q 1231 363 1741 363 
z
M 1763 3444 
Q 2409 3444 2856 3012 
Q 3303 2581 3303 1744 
Q 3303 934 2909 406 
Q 2516 -122 1688 -122 
Q 997 -122 590 345 
Q 184 813 184 1600 
Q 184 2444 612 2944 
Q 1041 3444 1763 3444 
z
M 1744 3428 
L 1744 3428 
z
" transform="scale(0.015625)"/>
      <path id="Helvetica-35" d="M 791 1141 
Q 847 659 1238 475 
Q 1438 381 1700 381 
Q 2200 381 2440 700 
Q 2681 1019 2681 1406 
Q 2681 1875 2395 2131 
Q 2109 2388 1709 2388 
Q 1419 2388 1211 2275 
Q 1003 2163 856 1963 
L 369 1991 
L 709 4400 
L 3034 4400 
L 3034 3856 
L 1131 3856 
L 941 2613 
Q 1097 2731 1238 2791 
Q 1488 2894 1816 2894 
Q 2431 2894 2859 2497 
Q 3288 2100 3288 1491 
Q 3288 856 2895 371 
Q 2503 -113 1644 -113 
Q 1097 -113 676 195 
Q 256 503 206 1141 
L 791 1141 
z
" transform="scale(0.015625)"/>
      <path id="Helvetica-37" d="M 3347 4400 
L 3347 3909 
Q 3131 3700 2773 3181 
Q 2416 2663 2141 2063 
Q 1869 1478 1728 997 
Q 1638 688 1494 0 
L 872 0 
Q 1084 1281 1809 2550 
Q 2238 3294 2709 3834 
L 234 3834 
L 234 4400 
L 3347 4400 
z
" transform="scale(0.015625)"/>
     </defs>
     <use xlink:href="#Helvetica-43"/>
     <use xlink:href="#Helvetica-6f" x="72.216797"/>
     <use xlink:href="#Helvetica-6d" x="127.832031"/>
     <use xlink:href="#Helvetica-6d" x="211.132812"/>
     <use xlink:href="#Helvetica-35" x="294.433594"/>
     <use xlink:href="#Helvetica-37" x="350.048828"/>
    </g>
    <!-- R6K -->
    <g transform="translate(110.02329 85.6368) scale(0.12 -0.12)">
     <defs>
      <path id="Helvetica-52" d="M 2622 2488 
Q 3059 2488 3314 2663 
Q 3569 2838 3569 3294 
Q 3569 3784 3213 3963 
Q 3022 4056 2703 4056 
L 1184 4056 
L 1184 2488 
L 2622 2488 
z
M 563 4591 
L 2688 4591 
Q 3213 4591 3553 4438 
Q 4200 4144 4200 3353 
Q 4200 2941 4029 2678 
Q 3859 2416 3553 2256 
Q 3822 2147 3958 1969 
Q 4094 1791 4109 1391 
L 4131 775 
Q 4141 513 4175 384 
Q 4231 166 4375 103 
L 4375 0 
L 3613 0 
Q 3581 59 3562 153 
Q 3544 247 3531 516 
L 3494 1281 
Q 3472 1731 3159 1884 
Q 2981 1969 2600 1969 
L 1184 1969 
L 1184 0 
L 563 0 
L 563 4591 
z
" transform="scale(0.015625)"/>
      <path id="Helvetica-36" d="M 1872 4494 
Q 2622 4494 2917 4105 
Q 3213 3716 3213 3303 
L 2656 3303 
Q 2606 3569 2497 3719 
Q 2294 4000 1881 4000 
Q 1409 4000 1131 3564 
Q 853 3128 822 2316 
Q 1016 2600 1309 2741 
Q 1578 2866 1909 2866 
Q 2472 2866 2890 2506 
Q 3309 2147 3309 1434 
Q 3309 825 2912 354 
Q 2516 -116 1781 -116 
Q 1153 -116 697 361 
Q 241 838 241 1966 
Q 241 2800 444 3381 
Q 834 4494 1872 4494 
z
M 1831 384 
Q 2275 384 2495 682 
Q 2716 981 2716 1388 
Q 2716 1731 2519 2042 
Q 2322 2353 1803 2353 
Q 1441 2353 1167 2112 
Q 894 1872 894 1388 
Q 894 963 1142 673 
Q 1391 384 1831 384 
z
" transform="scale(0.015625)"/>
      <path id="Helvetica-4b" d="M 488 4591 
L 1094 4591 
L 1094 2353 
L 3331 4591 
L 4191 4591 
L 2281 2741 
L 4244 0 
L 3434 0 
L 1828 2303 
L 1094 1600 
L 1094 0 
L 488 0 
L 488 4591 
z
" transform="scale(0.015625)"/>
     </defs>
     <use xlink:href="#Helvetica-52"/>
     <use xlink:href="#Helvetica-36" x="72.216797"/>
     <use xlink:href="#Helvetica-4b" x="127.832031"/>
    </g>
   </g>
  </g>
 </g>
 <defs>
  <clipPath id="pecdea093cb">
   <rect x="36.72" y="6.84" width="102.816" height="98.496"/>
  </clipPath>
 </defs>
</svg>
