<?xml version="1.0" encoding="utf-8" standalone="no"?>
<!DOCTYPE svg PUBLIC "-//W3C//DTD SVG 1.1//EN"
  "http://www.w3.org/Graphics/SVG/1.1/DTD/svg11.dtd">
<svg xmlns:xlink="http://www.w3.org/1999/xlink" width="146.88pt" height="136.8pt" viewBox="0 0 146.88 136.8" xmlns="http://www.w3.org/2000/svg" version="1.1">
 <metadata>
  <rdf:RDF xmlns:dc="http://purl.org/dc/elements/1.1/" xmlns:cc="http://creativecommons.org/ns#" xmlns:rdf="http://www.w3.org/1999/02/22-rdf-syntax-ns#">
   <cc:Work>
    <dc:type rdf:resource="http://purl.org/dc/dcmitype/StillImage"/>
    <dc:date>2025-08-24T16:44:14.991395</dc:date>
    <dc:format>image/svg+xml</dc:format>
    <dc:creator>
     <cc:Agent>
      <dc:title>Matplotlib v3.7.5, https://matplotlib.org/</dc:title>
     </cc:Agent>
    </dc:creator>
   </cc:Work>
  </rdf:RDF>
 </metadata>
 <defs>
  <style type="text/css">*{stroke-linejoin: round; stroke-linecap: butt}</style>
 </defs>
 <g id="figure_1">
  <g id="patch_1">
   <path d="M 0 136.8 
L 146.88 136.8 
L 146.88 0 
L 0 0 
z
" style="fill: #ffffff"/>
  </g>
  <g id="axes_1">
   <g id="patch_2">
    <path d="M 36.72 105.336 
L 139.536 105.336 
L 139.536 6.84 
L 36.72 6.84 
z
" style="fill: #ffffff"/>
   </g>
   <g id="PolyCollection_1">
    <defs>
     <path id="mda2c3c5b6c" d="M 48.403636 -129.96 
L 48.403636 -31.464 
L 53.077091 -31.464 
L 53.077091 -129.96 
L 53.077091 -129.96 
L 48.403636 -129.96 
z
" style="stroke: #808080; stroke-opacity: 0.3"/>
    </defs>
    <g clip-path="url(#pa51ca3036d)">
     <use xlink:href="#mda2c3c5b6c" x="0" y="136.8" style="fill: #808080; fill-opacity: 0.3; stroke: #808080; stroke-opacity: 0.3"/>
    </g>
   </g>
   <g id="line2d_1">
    <path d="M 39.056727 28.435848 
L 43.730182 35.032511 
L 48.403636 45.038049 
L 53.077091 57.305131 
L 57.750545 72.701425 
L 62.424 87.547617 
L 67.097455 100.842546 
L 71.770909 109.011671 
L 76.444364 111.161599 
L 81.117818 112.458494 
L 85.791273 113.37449 
L 88.857857 137.8 
M 92.292796 137.8 
L 95.138182 117.878672 
L 99.811636 117.957038 
L 104.485091 114.753282 
L 109.158545 112.341491 
L 113.832 113.144727 
L 118.505455 114.434739 
L 123.178909 112.232579 
L 127.852364 112.908719 
L 132.525818 111.127899 
" clip-path="url(#pa51ca3036d)" style="fill: none; stroke: #fc8d62; stroke-width: 1.5; stroke-linecap: square"/>
   </g>
   <g id="line2d_2">
    <path d="M 39.056727 28.435848 
L 43.730182 35.032511 
L 48.403636 45.038049 
L 53.077091 41.5406 
L 57.750545 35.85021 
L 62.424 48.882497 
L 67.097455 64.730026 
L 71.770909 82.251454 
L 76.444364 92.345424 
L 81.117818 100.482898 
L 85.791273 105.470764 
L 90.181922 137.8 
M 90.825387 137.8 
L 95.138182 112.899056 
L 99.811636 112.414499 
L 104.485091 111.3221 
L 109.158545 108.732865 
L 113.832 110.530215 
L 118.505455 112.366312 
L 123.178909 108.97042 
L 127.852364 108.623711 
L 132.525818 108.436363 
" clip-path="url(#pa51ca3036d)" style="fill: none; stroke: #fc8d62; stroke-width: 1.5; stroke-linecap: square"/>
   </g>
   <g id="line2d_3">
    <path d="M 39.056727 28.435848 
L 43.730182 35.032511 
L 48.403636 45.038049 
L 53.077091 17.420117 
L 57.750545 15.836701 
L 62.424 17.304573 
L 67.097455 16.356038 
L 71.770909 17.649528 
L 76.444364 15.899027 
L 81.117818 17.29867 
L 85.791273 18.302791 
L 90.464727 19.672508 
L 95.138182 19.781045 
L 99.811636 19.563113 
L 104.485091 17.988242 
L 109.158545 18.832011 
L 113.832 19.074084 
L 118.505455 17.579337 
L 123.178909 15.826418 
L 127.852364 12.430136 
L 132.525818 13.281383 
" clip-path="url(#pa51ca3036d)" style="fill: none; stroke: #fc8d62; stroke-width: 1.5; stroke-linecap: square"/>
   </g>
   <g id="PathCollection_1">
    <defs>
     <path id="m040da15bf9" d="M 0 4.472136 
C 1.186024 4.472136 2.323632 4.000923 3.162278 3.162278 
C 4.000923 2.323632 4.472136 1.186024 4.472136 0 
C 4.472136 -1.186024 4.000923 -2.323632 3.162278 -3.162278 
C 2.323632 -4.000923 1.186024 -4.472136 0 -4.472136 
C -1.186024 -4.472136 -2.323632 -4.000923 -3.162278 -3.162278 
C -4.000923 -2.323632 -4.472136 -1.186024 -4.472136 0 
C -4.472136 1.186024 -4.000923 2.323632 -3.162278 3.162278 
C -2.323632 4.000923 -1.186024 4.472136 0 4.472136 
z
" style="stroke: #000000"/>
    </defs>
    <g clip-path="url(#pa51ca3036d)">
     <use xlink:href="#m040da15bf9" x="39.056727" y="28.435848" style="fill: #fc8d62; stroke: #000000"/>
     <use xlink:href="#m040da15bf9" x="43.730182" y="35.032511" style="fill: #fc8d62; stroke: #000000"/>
     <use xlink:href="#m040da15bf9" x="48.403636" y="45.038049" style="fill: #fc8d62; stroke: #000000"/>
     <use xlink:href="#m040da15bf9" x="53.077091" y="57.305131" style="fill: #fc8d62; stroke: #000000"/>
     <use xlink:href="#m040da15bf9" x="57.750545" y="72.701425" style="fill: #fc8d62; stroke: #000000"/>
     <use xlink:href="#m040da15bf9" x="62.424" y="87.547617" style="fill: #fc8d62; stroke: #000000"/>
     <use xlink:href="#m040da15bf9" x="67.097455" y="100.842546" style="fill: #fc8d62; stroke: #000000"/>
     <use xlink:href="#m040da15bf9" x="71.770909" y="109.011671" style="fill: #fc8d62; stroke: #000000"/>
     <use xlink:href="#m040da15bf9" x="76.444364" y="111.161599" style="fill: #fc8d62; stroke: #000000"/>
     <use xlink:href="#m040da15bf9" x="81.117818" y="112.458494" style="fill: #fc8d62; stroke: #000000"/>
     <use xlink:href="#m040da15bf9" x="85.791273" y="113.37449" style="fill: #fc8d62; stroke: #000000"/>
     <use xlink:href="#m040da15bf9" x="90.464727" y="150.598808" style="fill: #fc8d62; stroke: #000000"/>
     <use xlink:href="#m040da15bf9" x="95.138182" y="117.878672" style="fill: #fc8d62; stroke: #000000"/>
     <use xlink:href="#m040da15bf9" x="99.811636" y="117.957038" style="fill: #fc8d62; stroke: #000000"/>
     <use xlink:href="#m040da15bf9" x="104.485091" y="114.753282" style="fill: #fc8d62; stroke: #000000"/>
     <use xlink:href="#m040da15bf9" x="109.158545" y="112.341491" style="fill: #fc8d62; stroke: #000000"/>
     <use xlink:href="#m040da15bf9" x="113.832" y="113.144727" style="fill: #fc8d62; stroke: #000000"/>
     <use xlink:href="#m040da15bf9" x="118.505455" y="114.434739" style="fill: #fc8d62; stroke: #000000"/>
     <use xlink:href="#m040da15bf9" x="123.178909" y="112.232579" style="fill: #fc8d62; stroke: #000000"/>
     <use xlink:href="#m040da15bf9" x="127.852364" y="112.908719" style="fill: #fc8d62; stroke: #000000"/>
     <use xlink:href="#m040da15bf9" x="132.525818" y="111.127899" style="fill: #fc8d62; stroke: #000000"/>
    </g>
   </g>
   <g id="PathCollection_2">
    <defs>
     <path id="mc023d03eb4" d="M 0 -4.472136 
L -4.472136 4.472136 
L 4.472136 4.472136 
z
" style="stroke: #000000"/>
    </defs>
    <g clip-path="url(#pa51ca3036d)">
     <use xlink:href="#mc023d03eb4" x="39.056727" y="28.435848" style="fill: #fc8d62; stroke: #000000"/>
     <use xlink:href="#mc023d03eb4" x="43.730182" y="35.032511" style="fill: #fc8d62; stroke: #000000"/>
     <use xlink:href="#mc023d03eb4" x="48.403636" y="45.038049" style="fill: #fc8d62; stroke: #000000"/>
     <use xlink:href="#mc023d03eb4" x="53.077091" y="41.5406" style="fill: #fc8d62; stroke: #000000"/>
     <use xlink:href="#mc023d03eb4" x="57.750545" y="35.85021" style="fill: #fc8d62; stroke: #000000"/>
     <use xlink:href="#mc023d03eb4" x="62.424" y="48.882497" style="fill: #fc8d62; stroke: #000000"/>
     <use xlink:href="#mc023d03eb4" x="67.097455" y="64.730026" style="fill: #fc8d62; stroke: #000000"/>
     <use xlink:href="#mc023d03eb4" x="71.770909" y="82.251454" style="fill: #fc8d62; stroke: #000000"/>
     <use xlink:href="#mc023d03eb4" x="76.444364" y="92.345424" style="fill: #fc8d62; stroke: #000000"/>
     <use xlink:href="#mc023d03eb4" x="81.117818" y="100.482898" style="fill: #fc8d62; stroke: #000000"/>
     <use xlink:href="#mc023d03eb4" x="85.791273" y="105.470764" style="fill: #fc8d62; stroke: #000000"/>
     <use xlink:href="#mc023d03eb4" x="90.464727" y="139.882354" style="fill: #fc8d62; stroke: #000000"/>
     <use xlink:href="#mc023d03eb4" x="95.138182" y="112.899056" style="fill: #fc8d62; stroke: #000000"/>
     <use xlink:href="#mc023d03eb4" x="99.811636" y="112.414499" style="fill: #fc8d62; stroke: #000000"/>
     <use xlink:href="#mc023d03eb4" x="104.485091" y="111.3221" style="fill: #fc8d62; stroke: #000000"/>
     <use xlink:href="#mc023d03eb4" x="109.158545" y="108.732865" style="fill: #fc8d62; stroke: #000000"/>
     <use xlink:href="#mc023d03eb4" x="113.832" y="110.530215" style="fill: #fc8d62; stroke: #000000"/>
     <use xlink:href="#mc023d03eb4" x="118.505455" y="112.366312" style="fill: #fc8d62; stroke: #000000"/>
     <use xlink:href="#mc023d03eb4" x="123.178909" y="108.97042" style="fill: #fc8d62; stroke: #000000"/>
     <use xlink:href="#mc023d03eb4" x="127.852364" y="108.623711" style="fill: #fc8d62; stroke: #000000"/>
     <use xlink:href="#mc023d03eb4" x="132.525818" y="108.436363" style="fill: #fc8d62; stroke: #000000"/>
    </g>
   </g>
   <g id="PathCollection_3">
    <defs>
     <path id="m3378654fe6" d="M -4.472136 4.472136 
L 4.472136 4.472136 
L 4.472136 -4.472136 
L -4.472136 -4.472136 
z
" style="stroke: #000000"/>
    </defs>
    <g clip-path="url(#pa51ca3036d)">
     <use xlink:href="#m3378654fe6" x="39.056727" y="28.435848" style="fill: #fc8d62; stroke: #000000"/>
     <use xlink:href="#m3378654fe6" x="43.730182" y="35.032511" style="fill: #fc8d62; stroke: #000000"/>
     <use xlink:href="#m3378654fe6" x="48.403636" y="45.038049" style="fill: #fc8d62; stroke: #000000"/>
     <use xlink:href="#m3378654fe6" x="53.077091" y="17.420117" style="fill: #fc8d62; stroke: #000000"/>
     <use xlink:href="#m3378654fe6" x="57.750545" y="15.836701" style="fill: #fc8d62; stroke: #000000"/>
     <use xlink:href="#m3378654fe6" x="62.424" y="17.304573" style="fill: #fc8d62; stroke: #000000"/>
     <use xlink:href="#m3378654fe6" x="67.097455" y="16.356038" style="fill: #fc8d62; stroke: #000000"/>
     <use xlink:href="#m3378654fe6" x="71.770909" y="17.649528" style="fill: #fc8d62; stroke: #000000"/>
     <use xlink:href="#m3378654fe6" x="76.444364" y="15.899027" style="fill: #fc8d62; stroke: #000000"/>
     <use xlink:href="#m3378654fe6" x="81.117818" y="17.29867" style="fill: #fc8d62; stroke: #000000"/>
     <use xlink:href="#m3378654fe6" x="85.791273" y="18.302791" style="fill: #fc8d62; stroke: #000000"/>
     <use xlink:href="#m3378654fe6" x="90.464727" y="19.672508" style="fill: #fc8d62; stroke: #000000"/>
     <use xlink:href="#m3378654fe6" x="95.138182" y="19.781045" style="fill: #fc8d62; stroke: #000000"/>
     <use xlink:href="#m3378654fe6" x="99.811636" y="19.563113" style="fill: #fc8d62; stroke: #000000"/>
     <use xlink:href="#m3378654fe6" x="104.485091" y="17.988242" style="fill: #fc8d62; stroke: #000000"/>
     <use xlink:href="#m3378654fe6" x="109.158545" y="18.832011" style="fill: #fc8d62; stroke: #000000"/>
     <use xlink:href="#m3378654fe6" x="113.832" y="19.074084" style="fill: #fc8d62; stroke: #000000"/>
     <use xlink:href="#m3378654fe6" x="118.505455" y="17.579337" style="fill: #fc8d62; stroke: #000000"/>
     <use xlink:href="#m3378654fe6" x="123.178909" y="15.826418" style="fill: #fc8d62; stroke: #000000"/>
     <use xlink:href="#m3378654fe6" x="127.852364" y="12.430136" style="fill: #fc8d62; stroke: #000000"/>
     <use xlink:href="#m3378654fe6" x="132.525818" y="13.281383" style="fill: #fc8d62; stroke: #000000"/>
    </g>
   </g>
   <g id="matplotlib.axis_1">
    <g id="xtick_1">
     <g id="line2d_4">
      <defs>
       <path id="m56acd5f5e6" d="M 0 0 
L 0 -3.5 
" style="stroke: #000000; stroke-width: 0.8"/>
      </defs>
      <g>
       <use xlink:href="#m56acd5f5e6" x="39.056727" y="105.336" style="stroke: #000000; stroke-width: 0.8"/>
      </g>
     </g>
     <g id="text_1">
      <!-- 0 -->
      <g transform="translate(35.720165 117.444125) scale(0.12 -0.12)">
       <defs>
        <path id="Helvetica-30" d="M 1731 4475 
Q 2600 4475 2988 3759 
Q 3288 3206 3288 2244 
Q 3288 1331 3016 734 
Q 2622 -122 1728 -122 
Q 922 -122 528 578 
Q 200 1163 200 2147 
Q 200 2909 397 3456 
Q 766 4475 1731 4475 
z
M 1725 391 
Q 2163 391 2422 778 
Q 2681 1166 2681 2222 
Q 2681 2984 2493 3476 
Q 2306 3969 1766 3969 
Q 1269 3969 1039 3501 
Q 809 3034 809 2125 
Q 809 1441 956 1025 
Q 1181 391 1725 391 
z
" transform="scale(0.015625)"/>
       </defs>
       <use xlink:href="#Helvetica-30"/>
      </g>
     </g>
    </g>
    <g id="xtick_2">
     <g id="line2d_5">
      <g>
       <use xlink:href="#m56acd5f5e6" x="85.791273" y="105.336" style="stroke: #000000; stroke-width: 0.8"/>
      </g>
     </g>
     <g id="text_2">
      <!-- 10 -->
      <g transform="translate(79.118148 117.444125) scale(0.12 -0.12)">
       <defs>
        <path id="Helvetica-31" d="M 613 3169 
L 613 3600 
Q 1222 3659 1462 3798 
Q 1703 3938 1822 4456 
L 2266 4456 
L 2266 0 
L 1666 0 
L 1666 3169 
L 613 3169 
z
" transform="scale(0.015625)"/>
       </defs>
       <use xlink:href="#Helvetica-31"/>
       <use xlink:href="#Helvetica-30" x="55.615234"/>
      </g>
     </g>
    </g>
    <g id="xtick_3">
     <g id="line2d_6">
      <g>
       <use xlink:href="#m56acd5f5e6" x="132.525818" y="105.336" style="stroke: #000000; stroke-width: 0.8"/>
      </g>
     </g>
     <g id="text_3">
      <!-- 20 -->
      <g transform="translate(125.852693 117.444125) scale(0.12 -0.12)">
       <defs>
        <path id="Helvetica-32" d="M 200 0 
Q 231 578 439 1006 
Q 647 1434 1250 1784 
L 1850 2131 
Q 2253 2366 2416 2531 
Q 2672 2791 2672 3125 
Q 2672 3516 2437 3745 
Q 2203 3975 1813 3975 
Q 1234 3975 1013 3538 
Q 894 3303 881 2888 
L 309 2888 
Q 319 3472 525 3841 
Q 891 4491 1816 4491 
Q 2584 4491 2939 4075 
Q 3294 3659 3294 3150 
Q 3294 2613 2916 2231 
Q 2697 2009 2131 1694 
L 1703 1456 
Q 1397 1288 1222 1134 
Q 909 863 828 531 
L 3272 531 
L 3272 0 
L 200 0 
z
" transform="scale(0.015625)"/>
       </defs>
       <use xlink:href="#Helvetica-32"/>
       <use xlink:href="#Helvetica-30" x="55.615234"/>
      </g>
     </g>
    </g>
   </g>
   <g id="matplotlib.axis_2">
    <g id="ytick_1">
     <g id="line2d_7">
      <defs>
       <path id="m76751ffa58" d="M 0 0 
L 3.5 0 
" style="stroke: #000000; stroke-width: 0.8"/>
      </defs>
      <g>
       <use xlink:href="#m76751ffa58" x="36.72" y="105.336" style="stroke: #000000; stroke-width: 0.8"/>
      </g>
     </g>
     <g id="text_4">
      <!-- $\mathdefault{10^{0}}$ -->
      <g transform="translate(14.74 109.640062) scale(0.12 -0.12)">
       <use xlink:href="#Helvetica-31" transform="translate(0 0.446875)"/>
       <use xlink:href="#Helvetica-30" transform="translate(55.615234 0.446875)"/>
       <use xlink:href="#Helvetica-30" transform="translate(112.145664 37.054688) scale(0.7)"/>
      </g>
     </g>
    </g>
    <g id="ytick_2">
     <g id="line2d_8">
      <g>
       <use xlink:href="#m76751ffa58" x="36.72" y="60.073192" style="stroke: #000000; stroke-width: 0.8"/>
      </g>
     </g>
     <g id="text_5">
      <!-- $\mathdefault{10^{1}}$ -->
      <g transform="translate(14.74 64.377255) scale(0.12 -0.12)">
       <use xlink:href="#Helvetica-31" transform="translate(0 0.654688)"/>
       <use xlink:href="#Helvetica-30" transform="translate(55.615234 0.654688)"/>
       <use xlink:href="#Helvetica-31" transform="translate(112.145664 37.2625) scale(0.7)"/>
      </g>
     </g>
    </g>
    <g id="ytick_3">
     <g id="line2d_9">
      <g>
       <use xlink:href="#m76751ffa58" x="36.72" y="14.810385" style="stroke: #000000; stroke-width: 0.8"/>
      </g>
     </g>
     <g id="text_6">
      <!-- $\mathdefault{10^{2}}$ -->
      <g transform="translate(14.74 19.114447) scale(0.12 -0.12)">
       <use xlink:href="#Helvetica-31" transform="translate(0 0.271875)"/>
       <use xlink:href="#Helvetica-30" transform="translate(55.615234 0.271875)"/>
       <use xlink:href="#Helvetica-32" transform="translate(112.145664 36.879688) scale(0.7)"/>
      </g>
     </g>
    </g>
    <g id="ytick_4">
     <g id="line2d_10">
      <defs>
       <path id="m9b1546c446" d="M 0 0 
L 2 0 
" style="stroke: #000000; stroke-width: 0.6"/>
      </defs>
      <g>
       <use xlink:href="#m9b1546c446" x="36.72" y="91.710537" style="stroke: #000000; stroke-width: 0.6"/>
      </g>
     </g>
    </g>
    <g id="ytick_5">
     <g id="line2d_11">
      <g>
       <use xlink:href="#m9b1546c446" x="36.72" y="83.740152" style="stroke: #000000; stroke-width: 0.6"/>
      </g>
     </g>
    </g>
    <g id="ytick_6">
     <g id="line2d_12">
      <g>
       <use xlink:href="#m9b1546c446" x="36.72" y="78.085074" style="stroke: #000000; stroke-width: 0.6"/>
      </g>
     </g>
    </g>
    <g id="ytick_7">
     <g id="line2d_13">
      <g>
       <use xlink:href="#m9b1546c446" x="36.72" y="73.698655" style="stroke: #000000; stroke-width: 0.6"/>
      </g>
     </g>
    </g>
    <g id="ytick_8">
     <g id="line2d_14">
      <g>
       <use xlink:href="#m9b1546c446" x="36.72" y="70.11469" style="stroke: #000000; stroke-width: 0.6"/>
      </g>
     </g>
    </g>
    <g id="ytick_9">
     <g id="line2d_15">
      <g>
       <use xlink:href="#m9b1546c446" x="36.72" y="67.08449" style="stroke: #000000; stroke-width: 0.6"/>
      </g>
     </g>
    </g>
    <g id="ytick_10">
     <g id="line2d_16">
      <g>
       <use xlink:href="#m9b1546c446" x="36.72" y="64.459612" style="stroke: #000000; stroke-width: 0.6"/>
      </g>
     </g>
    </g>
    <g id="ytick_11">
     <g id="line2d_17">
      <g>
       <use xlink:href="#m9b1546c446" x="36.72" y="62.144305" style="stroke: #000000; stroke-width: 0.6"/>
      </g>
     </g>
    </g>
    <g id="ytick_12">
     <g id="line2d_18">
      <g>
       <use xlink:href="#m9b1546c446" x="36.72" y="46.44773" style="stroke: #000000; stroke-width: 0.6"/>
      </g>
     </g>
    </g>
    <g id="ytick_13">
     <g id="line2d_19">
      <g>
       <use xlink:href="#m9b1546c446" x="36.72" y="38.477345" style="stroke: #000000; stroke-width: 0.6"/>
      </g>
     </g>
    </g>
    <g id="ytick_14">
     <g id="line2d_20">
      <g>
       <use xlink:href="#m9b1546c446" x="36.72" y="32.822267" style="stroke: #000000; stroke-width: 0.6"/>
      </g>
     </g>
    </g>
    <g id="ytick_15">
     <g id="line2d_21">
      <g>
       <use xlink:href="#m9b1546c446" x="36.72" y="28.435848" style="stroke: #000000; stroke-width: 0.6"/>
      </g>
     </g>
    </g>
    <g id="ytick_16">
     <g id="line2d_22">
      <g>
       <use xlink:href="#m9b1546c446" x="36.72" y="24.851882" style="stroke: #000000; stroke-width: 0.6"/>
      </g>
     </g>
    </g>
    <g id="ytick_17">
     <g id="line2d_23">
      <g>
       <use xlink:href="#m9b1546c446" x="36.72" y="21.821682" style="stroke: #000000; stroke-width: 0.6"/>
      </g>
     </g>
    </g>
    <g id="ytick_18">
     <g id="line2d_24">
      <g>
       <use xlink:href="#m9b1546c446" x="36.72" y="19.196804" style="stroke: #000000; stroke-width: 0.6"/>
      </g>
     </g>
    </g>
    <g id="ytick_19">
     <g id="line2d_25">
      <g>
       <use xlink:href="#m9b1546c446" x="36.72" y="16.881497" style="stroke: #000000; stroke-width: 0.6"/>
      </g>
     </g>
    </g>
   </g>
   <g id="LineCollection_1">
    <path d="M 39.056727 28.435848 
L 39.056727 28.435848 
" clip-path="url(#pa51ca3036d)" style="fill: none; stroke: #000000"/>
    <path d="M 43.730182 35.208803 
L 43.730182 34.857786 
" clip-path="url(#pa51ca3036d)" style="fill: none; stroke: #000000"/>
    <path d="M 48.403636 45.747267 
L 48.403636 44.353531 
" clip-path="url(#pa51ca3036d)" style="fill: none; stroke: #000000"/>
    <path d="M 53.077091 57.852752 
L 53.077091 56.772353 
" clip-path="url(#pa51ca3036d)" style="fill: none; stroke: #000000"/>
    <path d="M 57.750545 74.041008 
L 57.750545 71.447334 
" clip-path="url(#pa51ca3036d)" style="fill: none; stroke: #000000"/>
    <path d="M 62.424 89.22859 
L 62.424 85.999134 
" clip-path="url(#pa51ca3036d)" style="fill: none; stroke: #000000"/>
    <path d="M 67.097455 102.498322 
L 67.097455 99.315468 
" clip-path="url(#pa51ca3036d)" style="fill: none; stroke: #000000"/>
    <path d="M 71.770909 109.869387 
L 71.770909 108.189821 
" clip-path="url(#pa51ca3036d)" style="fill: none; stroke: #000000"/>
    <path d="M 76.444364 112.158435 
L 76.444364 110.212883 
" clip-path="url(#pa51ca3036d)" style="fill: none; stroke: #000000"/>
    <path d="M 81.117818 113.019152 
L 81.117818 111.913384 
" clip-path="url(#pa51ca3036d)" style="fill: none; stroke: #000000"/>
    <path d="M 85.791273 114.011 
L 85.791273 112.757945 
" clip-path="url(#pa51ca3036d)" style="fill: none; stroke: #000000"/>
    <path clip-path="url(#pa51ca3036d)" style="fill: none; stroke: #000000"/>
    <path d="M 95.138182 119.529731 
L 95.138182 116.355607 
" clip-path="url(#pa51ca3036d)" style="fill: none; stroke: #000000"/>
    <path d="M 99.811636 119.015688 
L 99.811636 116.9525 
" clip-path="url(#pa51ca3036d)" style="fill: none; stroke: #000000"/>
    <path d="M 104.485091 116.947284 
L 104.485091 112.779756 
" clip-path="url(#pa51ca3036d)" style="fill: none; stroke: #000000"/>
    <path d="M 109.158545 115.907115 
L 109.158545 109.324403 
" clip-path="url(#pa51ca3036d)" style="fill: none; stroke: #000000"/>
    <path d="M 113.832 115.2378 
L 113.832 111.253228 
" clip-path="url(#pa51ca3036d)" style="fill: none; stroke: #000000"/>
    <path d="M 118.505455 117.062224 
L 118.505455 112.117405 
" clip-path="url(#pa51ca3036d)" style="fill: none; stroke: #000000"/>
    <path d="M 123.178909 113.367019 
L 123.178909 111.160051 
" clip-path="url(#pa51ca3036d)" style="fill: none; stroke: #000000"/>
    <path d="M 127.852364 114.232545 
L 127.852364 111.66845 
" clip-path="url(#pa51ca3036d)" style="fill: none; stroke: #000000"/>
    <path d="M 132.525818 113.037978 
L 132.525818 109.387093 
" clip-path="url(#pa51ca3036d)" style="fill: none; stroke: #000000"/>
   </g>
   <g id="line2d_26">
    <defs>
     <path id="m22f038dc29" d="M 2 0 
L -2 -0 
" style="stroke: #000000"/>
    </defs>
    <g clip-path="url(#pa51ca3036d)">
     <use xlink:href="#m22f038dc29" x="39.056727" y="28.435848" style="stroke: #000000"/>
     <use xlink:href="#m22f038dc29" x="43.730182" y="35.208803" style="stroke: #000000"/>
     <use xlink:href="#m22f038dc29" x="48.403636" y="45.747267" style="stroke: #000000"/>
     <use xlink:href="#m22f038dc29" x="53.077091" y="57.852752" style="stroke: #000000"/>
     <use xlink:href="#m22f038dc29" x="57.750545" y="74.041008" style="stroke: #000000"/>
     <use xlink:href="#m22f038dc29" x="62.424" y="89.22859" style="stroke: #000000"/>
     <use xlink:href="#m22f038dc29" x="67.097455" y="102.498322" style="stroke: #000000"/>
     <use xlink:href="#m22f038dc29" x="71.770909" y="109.869387" style="stroke: #000000"/>
     <use xlink:href="#m22f038dc29" x="76.444364" y="112.158435" style="stroke: #000000"/>
     <use xlink:href="#m22f038dc29" x="81.117818" y="113.019152" style="stroke: #000000"/>
     <use xlink:href="#m22f038dc29" x="85.791273" y="114.011" style="stroke: #000000"/>
     <use xlink:href="#m22f038dc29" x="90.464727" y="150.598808" style="stroke: #000000"/>
     <use xlink:href="#m22f038dc29" x="95.138182" y="119.529731" style="stroke: #000000"/>
     <use xlink:href="#m22f038dc29" x="99.811636" y="119.015688" style="stroke: #000000"/>
     <use xlink:href="#m22f038dc29" x="104.485091" y="116.947284" style="stroke: #000000"/>
     <use xlink:href="#m22f038dc29" x="109.158545" y="115.907115" style="stroke: #000000"/>
     <use xlink:href="#m22f038dc29" x="113.832" y="115.2378" style="stroke: #000000"/>
     <use xlink:href="#m22f038dc29" x="118.505455" y="117.062224" style="stroke: #000000"/>
     <use xlink:href="#m22f038dc29" x="123.178909" y="113.367019" style="stroke: #000000"/>
     <use xlink:href="#m22f038dc29" x="127.852364" y="114.232545" style="stroke: #000000"/>
     <use xlink:href="#m22f038dc29" x="132.525818" y="113.037978" style="stroke: #000000"/>
    </g>
   </g>
   <g id="line2d_27">
    <g clip-path="url(#pa51ca3036d)">
     <use xlink:href="#m22f038dc29" x="39.056727" y="28.435848" style="stroke: #000000"/>
     <use xlink:href="#m22f038dc29" x="43.730182" y="34.857786" style="stroke: #000000"/>
     <use xlink:href="#m22f038dc29" x="48.403636" y="44.353531" style="stroke: #000000"/>
     <use xlink:href="#m22f038dc29" x="53.077091" y="56.772353" style="stroke: #000000"/>
     <use xlink:href="#m22f038dc29" x="57.750545" y="71.447334" style="stroke: #000000"/>
     <use xlink:href="#m22f038dc29" x="62.424" y="85.999134" style="stroke: #000000"/>
     <use xlink:href="#m22f038dc29" x="67.097455" y="99.315468" style="stroke: #000000"/>
     <use xlink:href="#m22f038dc29" x="71.770909" y="108.189821" style="stroke: #000000"/>
     <use xlink:href="#m22f038dc29" x="76.444364" y="110.212883" style="stroke: #000000"/>
     <use xlink:href="#m22f038dc29" x="81.117818" y="111.913384" style="stroke: #000000"/>
     <use xlink:href="#m22f038dc29" x="85.791273" y="112.757945" style="stroke: #000000"/>
     <use xlink:href="#m22f038dc29" x="90.464727" y="150.598808" style="stroke: #000000"/>
     <use xlink:href="#m22f038dc29" x="95.138182" y="116.355607" style="stroke: #000000"/>
     <use xlink:href="#m22f038dc29" x="99.811636" y="116.9525" style="stroke: #000000"/>
     <use xlink:href="#m22f038dc29" x="104.485091" y="112.779756" style="stroke: #000000"/>
     <use xlink:href="#m22f038dc29" x="109.158545" y="109.324403" style="stroke: #000000"/>
     <use xlink:href="#m22f038dc29" x="113.832" y="111.253228" style="stroke: #000000"/>
     <use xlink:href="#m22f038dc29" x="118.505455" y="112.117405" style="stroke: #000000"/>
     <use xlink:href="#m22f038dc29" x="123.178909" y="111.160051" style="stroke: #000000"/>
     <use xlink:href="#m22f038dc29" x="127.852364" y="111.66845" style="stroke: #000000"/>
     <use xlink:href="#m22f038dc29" x="132.525818" y="109.387093" style="stroke: #000000"/>
    </g>
   </g>
   <g id="LineCollection_2">
    <path d="M 39.056727 28.435848 
L 39.056727 28.435848 
" clip-path="url(#pa51ca3036d)" style="fill: none; stroke: #000000"/>
    <path d="M 43.730182 35.208803 
L 43.730182 34.857786 
" clip-path="url(#pa51ca3036d)" style="fill: none; stroke: #000000"/>
    <path d="M 48.403636 45.747267 
L 48.403636 44.353531 
" clip-path="url(#pa51ca3036d)" style="fill: none; stroke: #000000"/>
    <path d="M 53.077091 43.074537 
L 53.077091 40.117746 
" clip-path="url(#pa51ca3036d)" style="fill: none; stroke: #000000"/>
    <path d="M 57.750545 36.849345 
L 57.750545 34.899412 
" clip-path="url(#pa51ca3036d)" style="fill: none; stroke: #000000"/>
    <path d="M 62.424 49.945807 
L 62.424 47.873764 
" clip-path="url(#pa51ca3036d)" style="fill: none; stroke: #000000"/>
    <path d="M 67.097455 65.713817 
L 67.097455 63.793132 
" clip-path="url(#pa51ca3036d)" style="fill: none; stroke: #000000"/>
    <path d="M 71.770909 83.261509 
L 71.770909 81.290773 
" clip-path="url(#pa51ca3036d)" style="fill: none; stroke: #000000"/>
    <path d="M 76.444364 95.957024 
L 76.444364 89.295509 
" clip-path="url(#pa51ca3036d)" style="fill: none; stroke: #000000"/>
    <path d="M 81.117818 103.207663 
L 81.117818 98.09025 
" clip-path="url(#pa51ca3036d)" style="fill: none; stroke: #000000"/>
    <path d="M 85.791273 107.501781 
L 85.791273 103.630081 
" clip-path="url(#pa51ca3036d)" style="fill: none; stroke: #000000"/>
    <path d="M 90.464727 137.8 
L 90.464727 130.211188 
" clip-path="url(#pa51ca3036d)" style="fill: none; stroke: #000000"/>
    <path d="M 95.138182 116.497729 
L 95.138182 109.858357 
" clip-path="url(#pa51ca3036d)" style="fill: none; stroke: #000000"/>
    <path d="M 99.811636 118.270207 
L 99.811636 107.908678 
" clip-path="url(#pa51ca3036d)" style="fill: none; stroke: #000000"/>
    <path d="M 104.485091 115.729991 
L 104.485091 107.723834 
" clip-path="url(#pa51ca3036d)" style="fill: none; stroke: #000000"/>
    <path d="M 109.158545 114.19011 
L 109.158545 104.466109 
" clip-path="url(#pa51ca3036d)" style="fill: none; stroke: #000000"/>
    <path d="M 113.832 116.216871 
L 113.832 106.124874 
" clip-path="url(#pa51ca3036d)" style="fill: none; stroke: #000000"/>
    <path d="M 118.505455 117.222162 
L 118.505455 108.475507 
" clip-path="url(#pa51ca3036d)" style="fill: none; stroke: #000000"/>
    <path d="M 123.178909 110.833026 
L 123.178909 107.269129 
" clip-path="url(#pa51ca3036d)" style="fill: none; stroke: #000000"/>
    <path d="M 127.852364 109.173068 
L 127.852364 108.08929 
" clip-path="url(#pa51ca3036d)" style="fill: none; stroke: #000000"/>
    <path d="M 132.525818 109.471335 
L 132.525818 107.453168 
" clip-path="url(#pa51ca3036d)" style="fill: none; stroke: #000000"/>
   </g>
   <g id="line2d_28">
    <g clip-path="url(#pa51ca3036d)">
     <use xlink:href="#m22f038dc29" x="39.056727" y="28.435848" style="stroke: #000000"/>
     <use xlink:href="#m22f038dc29" x="43.730182" y="35.208803" style="stroke: #000000"/>
     <use xlink:href="#m22f038dc29" x="48.403636" y="45.747267" style="stroke: #000000"/>
     <use xlink:href="#m22f038dc29" x="53.077091" y="43.074537" style="stroke: #000000"/>
     <use xlink:href="#m22f038dc29" x="57.750545" y="36.849345" style="stroke: #000000"/>
     <use xlink:href="#m22f038dc29" x="62.424" y="49.945807" style="stroke: #000000"/>
     <use xlink:href="#m22f038dc29" x="67.097455" y="65.713817" style="stroke: #000000"/>
     <use xlink:href="#m22f038dc29" x="71.770909" y="83.261509" style="stroke: #000000"/>
     <use xlink:href="#m22f038dc29" x="76.444364" y="95.957024" style="stroke: #000000"/>
     <use xlink:href="#m22f038dc29" x="81.117818" y="103.207663" style="stroke: #000000"/>
     <use xlink:href="#m22f038dc29" x="85.791273" y="107.501781" style="stroke: #000000"/>
     <use xlink:href="#m22f038dc29" x="90.464727" y="159.724489" style="stroke: #000000"/>
     <use xlink:href="#m22f038dc29" x="95.138182" y="116.497729" style="stroke: #000000"/>
     <use xlink:href="#m22f038dc29" x="99.811636" y="118.270207" style="stroke: #000000"/>
     <use xlink:href="#m22f038dc29" x="104.485091" y="115.729991" style="stroke: #000000"/>
     <use xlink:href="#m22f038dc29" x="109.158545" y="114.19011" style="stroke: #000000"/>
     <use xlink:href="#m22f038dc29" x="113.832" y="116.216871" style="stroke: #000000"/>
     <use xlink:href="#m22f038dc29" x="118.505455" y="117.222162" style="stroke: #000000"/>
     <use xlink:href="#m22f038dc29" x="123.178909" y="110.833026" style="stroke: #000000"/>
     <use xlink:href="#m22f038dc29" x="127.852364" y="109.173068" style="stroke: #000000"/>
     <use xlink:href="#m22f038dc29" x="132.525818" y="109.471335" style="stroke: #000000"/>
    </g>
   </g>
   <g id="line2d_29">
    <g clip-path="url(#pa51ca3036d)">
     <use xlink:href="#m22f038dc29" x="39.056727" y="28.435848" style="stroke: #000000"/>
     <use xlink:href="#m22f038dc29" x="43.730182" y="34.857786" style="stroke: #000000"/>
     <use xlink:href="#m22f038dc29" x="48.403636" y="44.353531" style="stroke: #000000"/>
     <use xlink:href="#m22f038dc29" x="53.077091" y="40.117746" style="stroke: #000000"/>
     <use xlink:href="#m22f038dc29" x="57.750545" y="34.899412" style="stroke: #000000"/>
     <use xlink:href="#m22f038dc29" x="62.424" y="47.873764" style="stroke: #000000"/>
     <use xlink:href="#m22f038dc29" x="67.097455" y="63.793132" style="stroke: #000000"/>
     <use xlink:href="#m22f038dc29" x="71.770909" y="81.290773" style="stroke: #000000"/>
     <use xlink:href="#m22f038dc29" x="76.444364" y="89.295509" style="stroke: #000000"/>
     <use xlink:href="#m22f038dc29" x="81.117818" y="98.09025" style="stroke: #000000"/>
     <use xlink:href="#m22f038dc29" x="85.791273" y="103.630081" style="stroke: #000000"/>
     <use xlink:href="#m22f038dc29" x="90.464727" y="130.211188" style="stroke: #000000"/>
     <use xlink:href="#m22f038dc29" x="95.138182" y="109.858357" style="stroke: #000000"/>
     <use xlink:href="#m22f038dc29" x="99.811636" y="107.908678" style="stroke: #000000"/>
     <use xlink:href="#m22f038dc29" x="104.485091" y="107.723834" style="stroke: #000000"/>
     <use xlink:href="#m22f038dc29" x="109.158545" y="104.466109" style="stroke: #000000"/>
     <use xlink:href="#m22f038dc29" x="113.832" y="106.124874" style="stroke: #000000"/>
     <use xlink:href="#m22f038dc29" x="118.505455" y="108.475507" style="stroke: #000000"/>
     <use xlink:href="#m22f038dc29" x="123.178909" y="107.269129" style="stroke: #000000"/>
     <use xlink:href="#m22f038dc29" x="127.852364" y="108.08929" style="stroke: #000000"/>
     <use xlink:href="#m22f038dc29" x="132.525818" y="107.453168" style="stroke: #000000"/>
    </g>
   </g>
   <g id="LineCollection_3">
    <path d="M 39.056727 28.435848 
L 39.056727 28.435848 
" clip-path="url(#pa51ca3036d)" style="fill: none; stroke: #000000"/>
    <path d="M 43.730182 35.208803 
L 43.730182 34.857786 
" clip-path="url(#pa51ca3036d)" style="fill: none; stroke: #000000"/>
    <path d="M 48.403636 45.747267 
L 48.403636 44.353531 
" clip-path="url(#pa51ca3036d)" style="fill: none; stroke: #000000"/>
    <path d="M 53.077091 17.754287 
L 53.077091 17.091533 
" clip-path="url(#pa51ca3036d)" style="fill: none; stroke: #000000"/>
    <path d="M 57.750545 16.027522 
L 57.750545 15.647716 
" clip-path="url(#pa51ca3036d)" style="fill: none; stroke: #000000"/>
    <path d="M 62.424 17.483331 
L 62.424 17.127427 
" clip-path="url(#pa51ca3036d)" style="fill: none; stroke: #000000"/>
    <path d="M 67.097455 16.593785 
L 67.097455 16.121133 
" clip-path="url(#pa51ca3036d)" style="fill: none; stroke: #000000"/>
    <path d="M 71.770909 18.059685 
L 71.770909 17.247755 
" clip-path="url(#pa51ca3036d)" style="fill: none; stroke: #000000"/>
    <path d="M 76.444364 16.436229 
L 76.444364 15.376117 
" clip-path="url(#pa51ca3036d)" style="fill: none; stroke: #000000"/>
    <path d="M 81.117818 17.638654 
L 81.117818 16.964466 
" clip-path="url(#pa51ca3036d)" style="fill: none; stroke: #000000"/>
    <path d="M 85.791273 18.946707 
L 85.791273 17.6793 
" clip-path="url(#pa51ca3036d)" style="fill: none; stroke: #000000"/>
    <path d="M 90.464727 20.245595 
L 90.464727 19.115656 
" clip-path="url(#pa51ca3036d)" style="fill: none; stroke: #000000"/>
    <path d="M 95.138182 20.09271 
L 95.138182 19.474245 
" clip-path="url(#pa51ca3036d)" style="fill: none; stroke: #000000"/>
    <path d="M 99.811636 20.679561 
L 99.811636 18.506682 
" clip-path="url(#pa51ca3036d)" style="fill: none; stroke: #000000"/>
    <path d="M 104.485091 19.043003 
L 104.485091 16.987206 
" clip-path="url(#pa51ca3036d)" style="fill: none; stroke: #000000"/>
    <path d="M 109.158545 19.916344 
L 109.158545 17.804378 
" clip-path="url(#pa51ca3036d)" style="fill: none; stroke: #000000"/>
    <path d="M 113.832 20.1002 
L 113.832 18.098885 
" clip-path="url(#pa51ca3036d)" style="fill: none; stroke: #000000"/>
    <path d="M 118.505455 18.734582 
L 118.505455 16.488233 
" clip-path="url(#pa51ca3036d)" style="fill: none; stroke: #000000"/>
    <path d="M 123.178909 17.375803 
L 123.178909 14.390282 
" clip-path="url(#pa51ca3036d)" style="fill: none; stroke: #000000"/>
    <path d="M 127.852364 13.867444 
L 127.852364 11.090798 
" clip-path="url(#pa51ca3036d)" style="fill: none; stroke: #000000"/>
    <path d="M 132.525818 15.53354 
L 132.525818 11.260938 
" clip-path="url(#pa51ca3036d)" style="fill: none; stroke: #000000"/>
   </g>
   <g id="line2d_30">
    <g clip-path="url(#pa51ca3036d)">
     <use xlink:href="#m22f038dc29" x="39.056727" y="28.435848" style="stroke: #000000"/>
     <use xlink:href="#m22f038dc29" x="43.730182" y="35.208803" style="stroke: #000000"/>
     <use xlink:href="#m22f038dc29" x="48.403636" y="45.747267" style="stroke: #000000"/>
     <use xlink:href="#m22f038dc29" x="53.077091" y="17.754287" style="stroke: #000000"/>
     <use xlink:href="#m22f038dc29" x="57.750545" y="16.027522" style="stroke: #000000"/>
     <use xlink:href="#m22f038dc29" x="62.424" y="17.483331" style="stroke: #000000"/>
     <use xlink:href="#m22f038dc29" x="67.097455" y="16.593785" style="stroke: #000000"/>
     <use xlink:href="#m22f038dc29" x="71.770909" y="18.059685" style="stroke: #000000"/>
     <use xlink:href="#m22f038dc29" x="76.444364" y="16.436229" style="stroke: #000000"/>
     <use xlink:href="#m22f038dc29" x="81.117818" y="17.638654" style="stroke: #000000"/>
     <use xlink:href="#m22f038dc29" x="85.791273" y="18.946707" style="stroke: #000000"/>
     <use xlink:href="#m22f038dc29" x="90.464727" y="20.245595" style="stroke: #000000"/>
     <use xlink:href="#m22f038dc29" x="95.138182" y="20.09271" style="stroke: #000000"/>
     <use xlink:href="#m22f038dc29" x="99.811636" y="20.679561" style="stroke: #000000"/>
     <use xlink:href="#m22f038dc29" x="104.485091" y="19.043003" style="stroke: #000000"/>
     <use xlink:href="#m22f038dc29" x="109.158545" y="19.916344" style="stroke: #000000"/>
     <use xlink:href="#m22f038dc29" x="113.832" y="20.1002" style="stroke: #000000"/>
     <use xlink:href="#m22f038dc29" x="118.505455" y="18.734582" style="stroke: #000000"/>
     <use xlink:href="#m22f038dc29" x="123.178909" y="17.375803" style="stroke: #000000"/>
     <use xlink:href="#m22f038dc29" x="127.852364" y="13.867444" style="stroke: #000000"/>
     <use xlink:href="#m22f038dc29" x="132.525818" y="15.53354" style="stroke: #000000"/>
    </g>
   </g>
   <g id="line2d_31">
    <g clip-path="url(#pa51ca3036d)">
     <use xlink:href="#m22f038dc29" x="39.056727" y="28.435848" style="stroke: #000000"/>
     <use xlink:href="#m22f038dc29" x="43.730182" y="34.857786" style="stroke: #000000"/>
     <use xlink:href="#m22f038dc29" x="48.403636" y="44.353531" style="stroke: #000000"/>
     <use xlink:href="#m22f038dc29" x="53.077091" y="17.091533" style="stroke: #000000"/>
     <use xlink:href="#m22f038dc29" x="57.750545" y="15.647716" style="stroke: #000000"/>
     <use xlink:href="#m22f038dc29" x="62.424" y="17.127427" style="stroke: #000000"/>
     <use xlink:href="#m22f038dc29" x="67.097455" y="16.121133" style="stroke: #000000"/>
     <use xlink:href="#m22f038dc29" x="71.770909" y="17.247755" style="stroke: #000000"/>
     <use xlink:href="#m22f038dc29" x="76.444364" y="15.376117" style="stroke: #000000"/>
     <use xlink:href="#m22f038dc29" x="81.117818" y="16.964466" style="stroke: #000000"/>
     <use xlink:href="#m22f038dc29" x="85.791273" y="17.6793" style="stroke: #000000"/>
     <use xlink:href="#m22f038dc29" x="90.464727" y="19.115656" style="stroke: #000000"/>
     <use xlink:href="#m22f038dc29" x="95.138182" y="19.474245" style="stroke: #000000"/>
     <use xlink:href="#m22f038dc29" x="99.811636" y="18.506682" style="stroke: #000000"/>
     <use xlink:href="#m22f038dc29" x="104.485091" y="16.987206" style="stroke: #000000"/>
     <use xlink:href="#m22f038dc29" x="109.158545" y="17.804378" style="stroke: #000000"/>
     <use xlink:href="#m22f038dc29" x="113.832" y="18.098885" style="stroke: #000000"/>
     <use xlink:href="#m22f038dc29" x="118.505455" y="16.488233" style="stroke: #000000"/>
     <use xlink:href="#m22f038dc29" x="123.178909" y="14.390282" style="stroke: #000000"/>
     <use xlink:href="#m22f038dc29" x="127.852364" y="11.090798" style="stroke: #000000"/>
     <use xlink:href="#m22f038dc29" x="132.525818" y="11.260938" style="stroke: #000000"/>
    </g>
   </g>
   <g id="line2d_32">
    <path d="M 39.056727 28.435848 
L 43.730182 35.032511 
L 48.403636 45.038049 
L 53.077091 57.305131 
L 57.750545 72.701425 
L 62.424 87.547617 
L 67.097455 100.842546 
L 71.770909 109.011671 
L 76.444364 111.161599 
L 81.117818 112.458494 
L 85.791273 113.37449 
L 88.857857 137.8 
M 92.292796 137.8 
L 95.138182 117.878672 
L 99.811636 117.957038 
L 104.485091 114.753282 
L 109.158545 112.341491 
L 113.832 113.144727 
L 118.505455 114.434739 
L 123.178909 112.232579 
L 127.852364 112.908719 
L 132.525818 111.127899 
" clip-path="url(#pa51ca3036d)" style="fill: none"/>
   </g>
   <g id="line2d_33">
    <path d="M 39.056727 28.435848 
L 43.730182 35.032511 
L 48.403636 45.038049 
L 53.077091 41.5406 
L 57.750545 35.85021 
L 62.424 48.882497 
L 67.097455 64.730026 
L 71.770909 82.251454 
L 76.444364 92.345424 
L 81.117818 100.482898 
L 85.791273 105.470764 
L 90.181922 137.8 
M 90.825387 137.8 
L 95.138182 112.899056 
L 99.811636 112.414499 
L 104.485091 111.3221 
L 109.158545 108.732865 
L 113.832 110.530215 
L 118.505455 112.366312 
L 123.178909 108.97042 
L 127.852364 108.623711 
L 132.525818 108.436363 
" clip-path="url(#pa51ca3036d)" style="fill: none"/>
   </g>
   <g id="line2d_34">
    <path d="M 39.056727 28.435848 
L 43.730182 35.032511 
L 48.403636 45.038049 
L 53.077091 17.420117 
L 57.750545 15.836701 
L 62.424 17.304573 
L 67.097455 16.356038 
L 71.770909 17.649528 
L 76.444364 15.899027 
L 81.117818 17.29867 
L 85.791273 18.302791 
L 90.464727 19.672508 
L 95.138182 19.781045 
L 99.811636 19.563113 
L 104.485091 17.988242 
L 109.158545 18.832011 
L 113.832 19.074084 
L 118.505455 17.579337 
L 123.178909 15.826418 
L 127.852364 12.430136 
L 132.525818 13.281383 
" clip-path="url(#pa51ca3036d)" style="fill: none"/>
   </g>
   <g id="patch_3">
    <path d="M 36.72 105.336 
L 36.72 6.84 
" style="fill: none; stroke: #000000; stroke-width: 0.8; stroke-linejoin: miter; stroke-linecap: square"/>
   </g>
   <g id="patch_4">
    <path d="M 139.536 105.336 
L 139.536 6.84 
" style="fill: none; stroke: #000000; stroke-width: 0.8; stroke-linejoin: miter; stroke-linecap: square"/>
   </g>
   <g id="patch_5">
    <path d="M 36.72 105.336 
L 139.536 105.336 
" style="fill: none; stroke: #000000; stroke-width: 0.8; stroke-linejoin: miter; stroke-linecap: square"/>
   </g>
   <g id="patch_6">
    <path d="M 36.72 6.84 
L 139.536 6.84 
" style="fill: none; stroke: #000000; stroke-width: 0.8; stroke-linejoin: miter; stroke-linecap: square"/>
   </g>
   <g id="text_7">
    <!-- colE1 -->
    <g transform="translate(69.367453 0.84) scale(0.15 -0.15)">
     <defs>
      <path id="Helvetica-63" d="M 1703 3444 
Q 2269 3444 2623 3169 
Q 2978 2894 3050 2222 
L 2503 2222 
Q 2453 2531 2275 2736 
Q 2097 2941 1703 2941 
Q 1166 2941 934 2416 
Q 784 2075 784 1575 
Q 784 1072 996 728 
Q 1209 384 1666 384 
Q 2016 384 2220 598 
Q 2425 813 2503 1184 
L 3050 1184 
Q 2956 519 2581 211 
Q 2206 -97 1622 -97 
Q 966 -97 575 383 
Q 184 863 184 1581 
Q 184 2463 612 2953 
Q 1041 3444 1703 3444 
z
M 1616 3428 
L 1616 3428 
z
" transform="scale(0.015625)"/>
      <path id="Helvetica-6f" d="M 1741 363 
Q 2300 363 2508 786 
Q 2716 1209 2716 1728 
Q 2716 2197 2566 2491 
Q 2328 2953 1747 2953 
Q 1231 2953 997 2559 
Q 763 2166 763 1609 
Q 763 1075 997 719 
Q 1231 363 1741 363 
z
M 1763 3444 
Q 2409 3444 2856 3012 
Q 3303 2581 3303 1744 
Q 3303 934 2909 406 
Q 2516 -122 1688 -122 
Q 997 -122 590 345 
Q 184 813 184 1600 
Q 184 2444 612 2944 
Q 1041 3444 1763 3444 
z
M 1744 3428 
L 1744 3428 
z
" transform="scale(0.015625)"/>
      <path id="Helvetica-6c" d="M 428 4591 
L 991 4591 
L 991 0 
L 428 0 
L 428 4591 
z
" transform="scale(0.015625)"/>
      <path id="Helvetica-45" d="M 547 4591 
L 3894 4591 
L 3894 4028 
L 1153 4028 
L 1153 2634 
L 3688 2634 
L 3688 2103 
L 1153 2103 
L 1153 547 
L 3941 547 
L 3941 0 
L 547 0 
L 547 4591 
z
M 2244 4591 
L 2244 4591 
z
" transform="scale(0.015625)"/>
     </defs>
     <use xlink:href="#Helvetica-63"/>
     <use xlink:href="#Helvetica-6f" x="50"/>
     <use xlink:href="#Helvetica-6c" x="105.615234"/>
     <use xlink:href="#Helvetica-45" x="127.832031"/>
     <use xlink:href="#Helvetica-31" x="194.53125"/>
    </g>
   </g>
  </g>
 </g>
 <defs>
  <clipPath id="pa51ca3036d">
   <rect x="36.72" y="6.84" width="102.816" height="98.496"/>
  </clipPath>
 </defs>
</svg>
