<?xml version="1.0" encoding="utf-8" standalone="no"?>
<!DOCTYPE svg PUBLIC "-//W3C//DTD SVG 1.1//EN"
  "http://www.w3.org/Graphics/SVG/1.1/DTD/svg11.dtd">
<svg xmlns:xlink="http://www.w3.org/1999/xlink" width="146.88pt" height="136.8pt" viewBox="0 0 146.88 136.8" xmlns="http://www.w3.org/2000/svg" version="1.1">
 <metadata>
  <rdf:RDF xmlns:dc="http://purl.org/dc/elements/1.1/" xmlns:cc="http://creativecommons.org/ns#" xmlns:rdf="http://www.w3.org/1999/02/22-rdf-syntax-ns#">
   <cc:Work>
    <dc:type rdf:resource="http://purl.org/dc/dcmitype/StillImage"/>
    <dc:date>2025-08-24T17:33:57.404818</dc:date>
    <dc:format>image/svg+xml</dc:format>
    <dc:creator>
     <cc:Agent>
      <dc:title>Matplotlib v3.7.5, https://matplotlib.org/</dc:title>
     </cc:Agent>
    </dc:creator>
   </cc:Work>
  </rdf:RDF>
 </metadata>
 <defs>
  <style type="text/css">*{stroke-linejoin: round; stroke-linecap: butt}</style>
 </defs>
 <g id="figure_1">
  <g id="patch_1">
   <path d="M 0 136.8 
L 146.88 136.8 
L 146.88 0 
L 0 0 
z
" style="fill: #ffffff"/>
  </g>
  <g id="axes_1">
   <g id="patch_2">
    <path d="M 36.72 105.336 
L 139.536 105.336 
L 139.536 6.84 
L 36.72 6.84 
z
" style="fill: #ffffff"/>
   </g>
   <g id="line2d_1">
    <path d="M 134.124632 34.41541 
L 133.042358 70.181819 
L 123.301895 84.590453 
L 80.010947 95.008055 
L 47.542737 97.96187 
" clip-path="url(#pd8cf040ced)" style="fill: none; stroke: #000000; stroke-linecap: square"/>
   </g>
   <g id="matplotlib.axis_1">
    <g id="xtick_1">
     <g id="line2d_2">
      <defs>
       <path id="m7fb3787ba9" d="M 0 0 
L 0 -3.5 
" style="stroke: #000000; stroke-width: 0.8"/>
      </defs>
      <g>
       <use xlink:href="#m7fb3787ba9" x="80.010947" y="105.336" style="stroke: #000000; stroke-width: 0.8"/>
      </g>
     </g>
     <g id="text_1">
      <!-- 50 -->
      <g transform="translate(73.337822 117.444125) scale(0.12 -0.12)">
       <defs>
        <path id="Helvetica-35" d="M 791 1141 
Q 847 659 1238 475 
Q 1438 381 1700 381 
Q 2200 381 2440 700 
Q 2681 1019 2681 1406 
Q 2681 1875 2395 2131 
Q 2109 2388 1709 2388 
Q 1419 2388 1211 2275 
Q 1003 2163 856 1963 
L 369 1991 
L 709 4400 
L 3034 4400 
L 3034 3856 
L 1131 3856 
L 941 2613 
Q 1097 2731 1238 2791 
Q 1488 2894 1816 2894 
Q 2431 2894 2859 2497 
Q 3288 2100 3288 1491 
Q 3288 856 2895 371 
Q 2503 -113 1644 -113 
Q 1097 -113 676 195 
Q 256 503 206 1141 
L 791 1141 
z
" transform="scale(0.015625)"/>
        <path id="Helvetica-30" d="M 1731 4475 
Q 2600 4475 2988 3759 
Q 3288 3206 3288 2244 
Q 3288 1331 3016 734 
Q 2622 -122 1728 -122 
Q 922 -122 528 578 
Q 200 1163 200 2147 
Q 200 2909 397 3456 
Q 766 4475 1731 4475 
z
M 1725 391 
Q 2163 391 2422 778 
Q 2681 1166 2681 2222 
Q 2681 2984 2493 3476 
Q 2306 3969 1766 3969 
Q 1269 3969 1039 3501 
Q 809 3034 809 2125 
Q 809 1441 956 1025 
Q 1181 391 1725 391 
z
" transform="scale(0.015625)"/>
       </defs>
       <use xlink:href="#Helvetica-35"/>
       <use xlink:href="#Helvetica-30" x="55.615234"/>
      </g>
     </g>
    </g>
    <g id="xtick_2">
     <g id="line2d_3">
      <g>
       <use xlink:href="#m7fb3787ba9" x="134.124632" y="105.336" style="stroke: #000000; stroke-width: 0.8"/>
      </g>
     </g>
     <g id="text_2">
      <!-- 100 -->
      <g transform="translate(124.114944 117.444125) scale(0.12 -0.12)">
       <defs>
        <path id="Helvetica-31" d="M 613 3169 
L 613 3600 
Q 1222 3659 1462 3798 
Q 1703 3938 1822 4456 
L 2266 4456 
L 2266 0 
L 1666 0 
L 1666 3169 
L 613 3169 
z
" transform="scale(0.015625)"/>
       </defs>
       <use xlink:href="#Helvetica-31"/>
       <use xlink:href="#Helvetica-30" x="55.615234"/>
       <use xlink:href="#Helvetica-30" x="111.230469"/>
      </g>
     </g>
    </g>
   </g>
   <g id="matplotlib.axis_2">
    <g id="ytick_1">
     <g id="line2d_4">
      <defs>
       <path id="m6ba5a0184b" d="M 0 0 
L 3.5 0 
" style="stroke: #000000; stroke-width: 0.8"/>
      </defs>
      <g>
       <use xlink:href="#m6ba5a0184b" x="36.72" y="105.336" style="stroke: #000000; stroke-width: 0.8"/>
      </g>
     </g>
     <g id="text_3">
      <!-- 0 -->
      <g transform="translate(26.546875 109.640062) scale(0.12 -0.12)">
       <use xlink:href="#Helvetica-30"/>
      </g>
     </g>
    </g>
    <g id="ytick_2">
     <g id="line2d_5">
      <g>
       <use xlink:href="#m6ba5a0184b" x="36.72" y="64.296" style="stroke: #000000; stroke-width: 0.8"/>
      </g>
     </g>
     <g id="text_4">
      <!-- 5 -->
      <g transform="translate(26.546875 68.600062) scale(0.12 -0.12)">
       <use xlink:href="#Helvetica-35"/>
      </g>
     </g>
    </g>
    <g id="ytick_3">
     <g id="line2d_6">
      <g>
       <use xlink:href="#m6ba5a0184b" x="36.72" y="23.256" style="stroke: #000000; stroke-width: 0.8"/>
      </g>
     </g>
     <g id="text_5">
      <!-- 10 -->
      <g transform="translate(19.87375 27.560063) scale(0.12 -0.12)">
       <use xlink:href="#Helvetica-31"/>
       <use xlink:href="#Helvetica-30" x="55.615234"/>
      </g>
     </g>
    </g>
   </g>
   <g id="patch_3">
    <path d="M 36.72 105.336 
L 36.72 6.84 
" style="fill: none; stroke: #000000; stroke-width: 0.8; stroke-linejoin: miter; stroke-linecap: square"/>
   </g>
   <g id="patch_4">
    <path d="M 139.536 105.336 
L 139.536 6.84 
" style="fill: none; stroke: #000000; stroke-width: 0.8; stroke-linejoin: miter; stroke-linecap: square"/>
   </g>
   <g id="patch_5">
    <path d="M 36.72 105.336 
L 139.536 105.336 
" style="fill: none; stroke: #000000; stroke-width: 0.8; stroke-linejoin: miter; stroke-linecap: square"/>
   </g>
   <g id="patch_6">
    <path d="M 36.72 6.84 
L 139.536 6.84 
" style="fill: none; stroke: #000000; stroke-width: 0.8; stroke-linejoin: miter; stroke-linecap: square"/>
   </g>
   <g id="text_6">
    <!-- MG1655 -->
    <g transform="translate(47.0016 26.015069) scale(0.13 -0.13)">
     <defs>
      <path id="Helvetica-4d" d="M 472 4591 
L 1363 4591 
L 2681 709 
L 3991 4591 
L 4872 4591 
L 4872 0 
L 4281 0 
L 4281 2709 
Q 4281 2850 4287 3175 
Q 4294 3500 4294 3872 
L 2984 0 
L 2369 0 
L 1050 3872 
L 1050 3731 
Q 1050 3563 1058 3217 
Q 1066 2872 1066 2709 
L 1066 0 
L 472 0 
L 472 4591 
z
" transform="scale(0.015625)"/>
      <path id="Helvetica-47" d="M 2472 4709 
Q 3119 4709 3591 4459 
Q 4275 4100 4428 3200 
L 3813 3200 
Q 3700 3703 3347 3933 
Q 2994 4163 2456 4163 
Q 1819 4163 1383 3684 
Q 947 3206 947 2259 
Q 947 1441 1306 927 
Q 1666 413 2478 413 
Q 3100 413 3508 773 
Q 3916 1134 3925 1941 
L 2488 1941 
L 2488 2456 
L 4503 2456 
L 4503 0 
L 4103 0 
L 3953 591 
Q 3638 244 3394 109 
Q 2984 -122 2353 -122 
Q 1538 -122 950 406 
Q 309 1069 309 2225 
Q 309 3378 934 4059 
Q 1528 4709 2472 4709 
z
M 2369 4716 
L 2369 4716 
z
" transform="scale(0.015625)"/>
      <path id="Helvetica-36" d="M 1872 4494 
Q 2622 4494 2917 4105 
Q 3213 3716 3213 3303 
L 2656 3303 
Q 2606 3569 2497 3719 
Q 2294 4000 1881 4000 
Q 1409 4000 1131 3564 
Q 853 3128 822 2316 
Q 1016 2600 1309 2741 
Q 1578 2866 1909 2866 
Q 2472 2866 2890 2506 
Q 3309 2147 3309 1434 
Q 3309 825 2912 354 
Q 2516 -116 1781 -116 
Q 1153 -116 697 361 
Q 241 838 241 1966 
Q 241 2800 444 3381 
Q 834 4494 1872 4494 
z
M 1831 384 
Q 2275 384 2495 682 
Q 2716 981 2716 1388 
Q 2716 1731 2519 2042 
Q 2322 2353 1803 2353 
Q 1441 2353 1167 2112 
Q 894 1872 894 1388 
Q 894 963 1142 673 
Q 1391 384 1831 384 
z
" transform="scale(0.015625)"/>
     </defs>
     <use xlink:href="#Helvetica-4d"/>
     <use xlink:href="#Helvetica-47" x="83.300781"/>
     <use xlink:href="#Helvetica-31" x="161.083984"/>
     <use xlink:href="#Helvetica-36" x="216.699219"/>
     <use xlink:href="#Helvetica-35" x="272.314453"/>
     <use xlink:href="#Helvetica-35" x="327.929688"/>
    </g>
    <!-- colE1 -->
    <g transform="translate(47.0016 39.915319) scale(0.13 -0.13)">
     <defs>
      <path id="Helvetica-63" d="M 1703 3444 
Q 2269 3444 2623 3169 
Q 2978 2894 3050 2222 
L 2503 2222 
Q 2453 2531 2275 2736 
Q 2097 2941 1703 2941 
Q 1166 2941 934 2416 
Q 784 2075 784 1575 
Q 784 1072 996 728 
Q 1209 384 1666 384 
Q 2016 384 2220 598 
Q 2425 813 2503 1184 
L 3050 1184 
Q 2956 519 2581 211 
Q 2206 -97 1622 -97 
Q 966 -97 575 383 
Q 184 863 184 1581 
Q 184 2463 612 2953 
Q 1041 3444 1703 3444 
z
M 1616 3428 
L 1616 3428 
z
" transform="scale(0.015625)"/>
      <path id="Helvetica-6f" d="M 1741 363 
Q 2300 363 2508 786 
Q 2716 1209 2716 1728 
Q 2716 2197 2566 2491 
Q 2328 2953 1747 2953 
Q 1231 2953 997 2559 
Q 763 2166 763 1609 
Q 763 1075 997 719 
Q 1231 363 1741 363 
z
M 1763 3444 
Q 2409 3444 2856 3012 
Q 3303 2581 3303 1744 
Q 3303 934 2909 406 
Q 2516 -122 1688 -122 
Q 997 -122 590 345 
Q 184 813 184 1600 
Q 184 2444 612 2944 
Q 1041 3444 1763 3444 
z
M 1744 3428 
L 1744 3428 
z
" transform="scale(0.015625)"/>
      <path id="Helvetica-6c" d="M 428 4591 
L 991 4591 
L 991 0 
L 428 0 
L 428 4591 
z
" transform="scale(0.015625)"/>
      <path id="Helvetica-45" d="M 547 4591 
L 3894 4591 
L 3894 4028 
L 1153 4028 
L 1153 2634 
L 3688 2634 
L 3688 2103 
L 1153 2103 
L 1153 547 
L 3941 547 
L 3941 0 
L 547 0 
L 547 4591 
z
M 2244 4591 
L 2244 4591 
z
" transform="scale(0.015625)"/>
     </defs>
     <use xlink:href="#Helvetica-63"/>
     <use xlink:href="#Helvetica-6f" x="50"/>
     <use xlink:href="#Helvetica-6c" x="105.615234"/>
     <use xlink:href="#Helvetica-45" x="127.832031"/>
     <use xlink:href="#Helvetica-31" x="194.53125"/>
    </g>
   </g>
   <g id="PathCollection_1">
    <defs>
     <path id="C0_0_41b2a07b08" d="M 0 5 
C 1.326016 5 2.597899 4.473168 3.535534 3.535534 
C 4.473168 2.597899 5 1.326016 5 -0 
C 5 -1.326016 4.473168 -2.597899 3.535534 -3.535534 
C 2.597899 -4.473168 1.326016 -5 0 -5 
C -1.326016 -5 -2.597899 -4.473168 -3.535534 -3.535534 
C -4.473168 -2.597899 -5 -1.326016 -5 0 
C -5 1.326016 -4.473168 2.597899 -3.535534 3.535534 
C -2.597899 4.473168 -1.326016 5 0 5 
z
"/>
    </defs>
    <g clip-path="url(#pd8cf040ced)">
     <use xlink:href="#C0_0_41b2a07b08" x="134.124632" y="32.158509" style="fill: #66c2a5; stroke: #000000"/>
    </g>
    <g clip-path="url(#pd8cf040ced)">
     <use xlink:href="#C0_0_41b2a07b08" x="133.042358" y="67.479973" style="fill: #fc8d62; stroke: #000000"/>
    </g>
    <g clip-path="url(#pd8cf040ced)">
     <use xlink:href="#C0_0_41b2a07b08" x="123.301895" y="84.590453" style="fill: #8da0cb; stroke: #000000"/>
    </g>
    <g clip-path="url(#pd8cf040ced)">
     <use xlink:href="#C0_0_41b2a07b08" x="80.010947" y="96.138372" style="fill: #e78ac3; stroke: #000000"/>
    </g>
    <g clip-path="url(#pd8cf040ced)">
     <use xlink:href="#C0_0_41b2a07b08" x="47.542737" y="96.230513" style="fill: #a6d854; stroke: #000000"/>
    </g>
   </g>
   <g id="LineCollection_1">
    <path d="M 134.124632 32.192171 
L 134.124632 32.124848 
" clip-path="url(#pd8cf040ced)" style="fill: none; stroke: #000000"/>
    <path d="M 133.042358 67.491466 
L 133.042358 67.468481 
" clip-path="url(#pd8cf040ced)" style="fill: none; stroke: #000000"/>
    <path d="M 123.301895 84.602093 
L 123.301895 84.578813 
" clip-path="url(#pd8cf040ced)" style="fill: none; stroke: #000000"/>
    <path d="M 80.010947 96.175768 
L 80.010947 96.100975 
" clip-path="url(#pd8cf040ced)" style="fill: none; stroke: #000000"/>
    <path d="M 47.542737 96.278539 
L 47.542737 96.182488 
" clip-path="url(#pd8cf040ced)" style="fill: none; stroke: #000000"/>
   </g>
   <g id="line2d_7">
    <defs>
     <path id="mf1321e0860" d="M 2 0 
L -2 -0 
" style="stroke: #000000"/>
    </defs>
    <g clip-path="url(#pd8cf040ced)">
     <use xlink:href="#mf1321e0860" x="134.124632" y="32.192171" style="stroke: #000000"/>
     <use xlink:href="#mf1321e0860" x="133.042358" y="67.491466" style="stroke: #000000"/>
     <use xlink:href="#mf1321e0860" x="123.301895" y="84.602093" style="stroke: #000000"/>
     <use xlink:href="#mf1321e0860" x="80.010947" y="96.175768" style="stroke: #000000"/>
     <use xlink:href="#mf1321e0860" x="47.542737" y="96.278539" style="stroke: #000000"/>
    </g>
   </g>
   <g id="line2d_8">
    <g clip-path="url(#pd8cf040ced)">
     <use xlink:href="#mf1321e0860" x="134.124632" y="32.124848" style="stroke: #000000"/>
     <use xlink:href="#mf1321e0860" x="133.042358" y="67.468481" style="stroke: #000000"/>
     <use xlink:href="#mf1321e0860" x="123.301895" y="84.578813" style="stroke: #000000"/>
     <use xlink:href="#mf1321e0860" x="80.010947" y="96.100975" style="stroke: #000000"/>
     <use xlink:href="#mf1321e0860" x="47.542737" y="96.182488" style="stroke: #000000"/>
    </g>
   </g>
   <g id="PathCollection_2">
    <defs>
     <path id="C1_0_3544762059" d="M 0 5 
C 1.326016 5 2.597899 4.473168 3.535534 3.535534 
C 4.473168 2.597899 5 1.326016 5 -0 
C 5 -1.326016 4.473168 -2.597899 3.535534 -3.535534 
C 2.597899 -4.473168 1.326016 -5 0 -5 
C -1.326016 -5 -2.597899 -4.473168 -3.535534 -3.535534 
C -4.473168 -2.597899 -5 -1.326016 -5 0 
C -5 1.326016 -4.473168 2.597899 -3.535534 3.535534 
C -2.597899 4.473168 -1.326016 5 0 5 
z
"/>
    </defs>
    <g clip-path="url(#pd8cf040ced)">
     <use xlink:href="#C1_0_3544762059" x="134.124632" y="83.003783" style="fill: #66c2a5; stroke: #000000"/>
    </g>
    <g clip-path="url(#pd8cf040ced)">
     <use xlink:href="#C1_0_3544762059" x="133.042358" y="81.081357" style="fill: #fc8d62; stroke: #000000"/>
    </g>
    <g clip-path="url(#pd8cf040ced)">
     <use xlink:href="#C1_0_3544762059" x="123.301895" y="86.592118" style="fill: #8da0cb; stroke: #000000"/>
    </g>
    <g clip-path="url(#pd8cf040ced)">
     <use xlink:href="#C1_0_3544762059" x="80.010947" y="95.008055" style="fill: #e78ac3; stroke: #000000"/>
    </g>
    <g clip-path="url(#pd8cf040ced)">
     <use xlink:href="#C1_0_3544762059" x="47.542737" y="98.929156" style="fill: #a6d854; stroke: #000000"/>
    </g>
   </g>
   <g id="LineCollection_2">
    <path d="M 134.124632 83.033296 
L 134.124632 82.974271 
" clip-path="url(#pd8cf040ced)" style="fill: none; stroke: #000000"/>
    <path d="M 133.042358 81.108718 
L 133.042358 81.053997 
" clip-path="url(#pd8cf040ced)" style="fill: none; stroke: #000000"/>
    <path d="M 123.301895 86.600201 
L 123.301895 86.584035 
" clip-path="url(#pd8cf040ced)" style="fill: none; stroke: #000000"/>
    <path d="M 80.010947 95.037776 
L 80.010947 94.978334 
" clip-path="url(#pd8cf040ced)" style="fill: none; stroke: #000000"/>
    <path d="M 47.542737 98.944973 
L 47.542737 98.913339 
" clip-path="url(#pd8cf040ced)" style="fill: none; stroke: #000000"/>
   </g>
   <g id="line2d_9">
    <g clip-path="url(#pd8cf040ced)">
     <use xlink:href="#mf1321e0860" x="134.124632" y="83.033296" style="stroke: #000000"/>
     <use xlink:href="#mf1321e0860" x="133.042358" y="81.108718" style="stroke: #000000"/>
     <use xlink:href="#mf1321e0860" x="123.301895" y="86.600201" style="stroke: #000000"/>
     <use xlink:href="#mf1321e0860" x="80.010947" y="95.037776" style="stroke: #000000"/>
     <use xlink:href="#mf1321e0860" x="47.542737" y="98.944973" style="stroke: #000000"/>
    </g>
   </g>
   <g id="line2d_10">
    <g clip-path="url(#pd8cf040ced)">
     <use xlink:href="#mf1321e0860" x="134.124632" y="82.974271" style="stroke: #000000"/>
     <use xlink:href="#mf1321e0860" x="133.042358" y="81.053997" style="stroke: #000000"/>
     <use xlink:href="#mf1321e0860" x="123.301895" y="86.584035" style="stroke: #000000"/>
     <use xlink:href="#mf1321e0860" x="80.010947" y="94.978334" style="stroke: #000000"/>
     <use xlink:href="#mf1321e0860" x="47.542737" y="98.913339" style="stroke: #000000"/>
    </g>
   </g>
   <g id="PathCollection_3">
    <defs>
     <path id="C2_0_5d0f728b89" d="M 0 5 
C 1.326016 5 2.597899 4.473168 3.535534 3.535534 
C 4.473168 2.597899 5 1.326016 5 -0 
C 5 -1.326016 4.473168 -2.597899 3.535534 -3.535534 
C 2.597899 -4.473168 1.326016 -5 0 -5 
C -1.326016 -5 -2.597899 -4.473168 -3.535534 -3.535534 
C -4.473168 -2.597899 -5 -1.326016 -5 0 
C -5 1.326016 -4.473168 2.597899 -3.535534 3.535534 
C -2.597899 4.473168 -1.326016 5 0 5 
z
"/>
    </defs>
    <g clip-path="url(#pd8cf040ced)">
     <use xlink:href="#C2_0_5d0f728b89" x="134.124632" y="34.41541" style="fill: #66c2a5; stroke: #000000"/>
    </g>
    <g clip-path="url(#pd8cf040ced)">
     <use xlink:href="#C2_0_5d0f728b89" x="133.042358" y="70.181819" style="fill: #fc8d62; stroke: #000000"/>
    </g>
    <g clip-path="url(#pd8cf040ced)">
     <use xlink:href="#C2_0_5d0f728b89" x="123.301895" y="80.261537" style="fill: #8da0cb; stroke: #000000"/>
    </g>
    <g clip-path="url(#pd8cf040ced)">
     <use xlink:href="#C2_0_5d0f728b89" x="80.010947" y="94.395233" style="fill: #e78ac3; stroke: #000000"/>
    </g>
    <g clip-path="url(#pd8cf040ced)">
     <use xlink:href="#C2_0_5d0f728b89" x="47.542737" y="97.96187" style="fill: #a6d854; stroke: #000000"/>
    </g>
   </g>
   <g id="LineCollection_3">
    <path d="M 134.124632 34.428729 
L 134.124632 34.402091 
" clip-path="url(#pd8cf040ced)" style="fill: none; stroke: #000000"/>
    <path d="M 133.042358 70.185964 
L 133.042358 70.177674 
" clip-path="url(#pd8cf040ced)" style="fill: none; stroke: #000000"/>
    <path d="M 123.301895 80.284162 
L 123.301895 80.238911 
" clip-path="url(#pd8cf040ced)" style="fill: none; stroke: #000000"/>
    <path d="M 80.010947 94.439972 
L 80.010947 94.350494 
" clip-path="url(#pd8cf040ced)" style="fill: none; stroke: #000000"/>
    <path d="M 47.542737 97.982873 
L 47.542737 97.940867 
" clip-path="url(#pd8cf040ced)" style="fill: none; stroke: #000000"/>
   </g>
   <g id="line2d_11">
    <g clip-path="url(#pd8cf040ced)">
     <use xlink:href="#mf1321e0860" x="134.124632" y="34.428729" style="stroke: #000000"/>
     <use xlink:href="#mf1321e0860" x="133.042358" y="70.185964" style="stroke: #000000"/>
     <use xlink:href="#mf1321e0860" x="123.301895" y="80.284162" style="stroke: #000000"/>
     <use xlink:href="#mf1321e0860" x="80.010947" y="94.439972" style="stroke: #000000"/>
     <use xlink:href="#mf1321e0860" x="47.542737" y="97.982873" style="stroke: #000000"/>
    </g>
   </g>
   <g id="line2d_12">
    <g clip-path="url(#pd8cf040ced)">
     <use xlink:href="#mf1321e0860" x="134.124632" y="34.402091" style="stroke: #000000"/>
     <use xlink:href="#mf1321e0860" x="133.042358" y="70.177674" style="stroke: #000000"/>
     <use xlink:href="#mf1321e0860" x="123.301895" y="80.238911" style="stroke: #000000"/>
     <use xlink:href="#mf1321e0860" x="80.010947" y="94.350494" style="stroke: #000000"/>
     <use xlink:href="#mf1321e0860" x="47.542737" y="97.940867" style="stroke: #000000"/>
    </g>
   </g>
   <g id="line2d_13">
    <path d="M 134.124632 32.158509 
L 133.042358 67.479973 
L 123.301895 84.590453 
L 80.010947 96.138372 
L 47.542737 96.230513 
" clip-path="url(#pd8cf040ced)" style="fill: none"/>
   </g>
   <g id="line2d_14">
    <path d="M 134.124632 83.003783 
L 133.042358 81.081357 
L 123.301895 86.592118 
L 80.010947 95.008055 
L 47.542737 98.929156 
" clip-path="url(#pd8cf040ced)" style="fill: none"/>
   </g>
   <g id="line2d_15">
    <path d="M 134.124632 34.41541 
L 133.042358 70.181819 
L 123.301895 80.261537 
L 80.010947 94.395233 
L 47.542737 97.96187 
" clip-path="url(#pd8cf040ced)" style="fill: none"/>
   </g>
  </g>
 </g>
 <defs>
  <clipPath id="pd8cf040ced">
   <rect x="36.72" y="6.84" width="102.816" height="98.496"/>
  </clipPath>
 </defs>
</svg>
