<?xml version="1.0" encoding="utf-8" standalone="no"?>
<!DOCTYPE svg PUBLIC "-//W3C//DTD SVG 1.1//EN"
  "http://www.w3.org/Graphics/SVG/1.1/DTD/svg11.dtd">
<svg xmlns:xlink="http://www.w3.org/1999/xlink" width="194.4pt" height="182.88pt" viewBox="0 0 194.4 182.88" xmlns="http://www.w3.org/2000/svg" version="1.1">
 <metadata>
  <rdf:RDF xmlns:dc="http://purl.org/dc/elements/1.1/" xmlns:cc="http://creativecommons.org/ns#" xmlns:rdf="http://www.w3.org/1999/02/22-rdf-syntax-ns#">
   <cc:Work>
    <dc:type rdf:resource="http://purl.org/dc/dcmitype/StillImage"/>
    <dc:date>2025-07-31T15:52:39.627078</dc:date>
    <dc:format>image/svg+xml</dc:format>
    <dc:creator>
     <cc:Agent>
      <dc:title>Matplotlib v3.7.5, https://matplotlib.org/</dc:title>
     </cc:Agent>
    </dc:creator>
   </cc:Work>
  </rdf:RDF>
 </metadata>
 <defs>
  <style type="text/css">*{stroke-linejoin: round; stroke-linecap: butt}</style>
 </defs>
 <g id="figure_1">
  <g id="patch_1">
   <path d="M 0 182.88 
L 194.4 182.88 
L 194.4 0 
L 0 0 
z
" style="fill: #ffffff"/>
  </g>
  <g id="axes_1">
   <g id="patch_2">
    <path d="M 48.6 146.304 
L 184.68 146.304 
L 184.68 9.144 
L 48.6 9.144 
z
" style="fill: #ffffff"/>
   </g>
   <g id="PathCollection_1">
    <defs>
     <path id="C0_0_0d0b0c1249" d="M 0 3.872983 
C 1.027127 3.872983 2.012324 3.464901 2.738613 2.738613 
C 3.464901 2.012324 3.872983 1.027127 3.872983 -0 
C 3.872983 -1.027127 3.464901 -2.012324 2.738613 -2.738613 
C 2.012324 -3.464901 1.027127 -3.872983 0 -3.872983 
C -1.027127 -3.872983 -2.012324 -3.464901 -2.738613 -2.738613 
C -3.464901 -2.012324 -3.872983 -1.027127 -3.872983 0 
C -3.872983 1.027127 -3.464901 2.012324 -2.738613 2.738613 
C -2.012324 3.464901 -1.027127 3.872983 0 3.872983 
z
"/>
    </defs>
    <use xlink:href="#C0_0_0d0b0c1249" x="177.517895" y="33.146556" style="fill: #0072bd; stroke: #0072bd"/>
    <use xlink:href="#C0_0_0d0b0c1249" x="177.517895" y="32.276552" style="fill: #0072bd; stroke: #0072bd"/>
    <use xlink:href="#C0_0_0d0b0c1249" x="177.517895" y="32.438105" style="fill: #0072bd; stroke: #0072bd"/>
    <use xlink:href="#C0_0_0d0b0c1249" x="176.085474" y="84.356589" style="fill: #d95319; stroke: #d95319"/>
    <use xlink:href="#C0_0_0d0b0c1249" x="176.085474" y="77.690678" style="fill: #d95319; stroke: #d95319"/>
    <use xlink:href="#C0_0_0d0b0c1249" x="176.085474" y="93.250912" style="fill: #d95319; stroke: #d95319"/>
    <use xlink:href="#C0_0_0d0b0c1249" x="163.193684" y="111.581917" style="fill: #edb120; stroke: #edb120"/>
    <use xlink:href="#C0_0_0d0b0c1249" x="163.193684" y="115.831449" style="fill: #edb120; stroke: #edb120"/>
    <use xlink:href="#C0_0_0d0b0c1249" x="163.193684" y="103.520476" style="fill: #edb120; stroke: #edb120"/>
    <use xlink:href="#C0_0_0d0b0c1249" x="105.896842" y="124.044686" style="fill: #7e2f8e; stroke: #7e2f8e"/>
    <use xlink:href="#C0_0_0d0b0c1249" x="105.896842" y="122.898022" style="fill: #7e2f8e; stroke: #7e2f8e"/>
    <use xlink:href="#C0_0_0d0b0c1249" x="105.896842" y="120.74931" style="fill: #7e2f8e; stroke: #7e2f8e"/>
    <use xlink:href="#C0_0_0d0b0c1249" x="62.924211" y="122.953397" style="fill: #77ac30; stroke: #77ac30"/>
    <use xlink:href="#C0_0_0d0b0c1249" x="62.924211" y="131.082426" style="fill: #77ac30; stroke: #77ac30"/>
    <use xlink:href="#C0_0_0d0b0c1249" x="62.924211" y="122.961618" style="fill: #77ac30; stroke: #77ac30"/>
   </g>
   <g id="matplotlib.axis_1">
    <g id="xtick_1">
     <g id="line2d_1">
      <defs>
       <path id="mafd61aa664" d="M 0 0 
L 0 -3.5 
" style="stroke: #000000; stroke-width: 0.8"/>
      </defs>
      <g>
       <use xlink:href="#mafd61aa664" x="105.896842" y="146.304" style="stroke: #000000; stroke-width: 0.8"/>
      </g>
     </g>
     <g id="text_1">
      <!-- 50 -->
      <g transform="translate(99.223717 158.412125) scale(0.12 -0.12)">
       <defs>
        <path id="Helvetica-35" d="M 791 1141 
Q 847 659 1238 475 
Q 1438 381 1700 381 
Q 2200 381 2440 700 
Q 2681 1019 2681 1406 
Q 2681 1875 2395 2131 
Q 2109 2388 1709 2388 
Q 1419 2388 1211 2275 
Q 1003 2163 856 1963 
L 369 1991 
L 709 4400 
L 3034 4400 
L 3034 3856 
L 1131 3856 
L 941 2613 
Q 1097 2731 1238 2791 
Q 1488 2894 1816 2894 
Q 2431 2894 2859 2497 
Q 3288 2100 3288 1491 
Q 3288 856 2895 371 
Q 2503 -113 1644 -113 
Q 1097 -113 676 195 
Q 256 503 206 1141 
L 791 1141 
z
" transform="scale(0.015625)"/>
        <path id="Helvetica-30" d="M 1731 4475 
Q 2600 4475 2988 3759 
Q 3288 3206 3288 2244 
Q 3288 1331 3016 734 
Q 2622 -122 1728 -122 
Q 922 -122 528 578 
Q 200 1163 200 2147 
Q 200 2909 397 3456 
Q 766 4475 1731 4475 
z
M 1725 391 
Q 2163 391 2422 778 
Q 2681 1166 2681 2222 
Q 2681 2984 2493 3476 
Q 2306 3969 1766 3969 
Q 1269 3969 1039 3501 
Q 809 3034 809 2125 
Q 809 1441 956 1025 
Q 1181 391 1725 391 
z
" transform="scale(0.015625)"/>
       </defs>
       <use xlink:href="#Helvetica-35"/>
       <use xlink:href="#Helvetica-30" x="55.615234"/>
      </g>
     </g>
    </g>
    <g id="xtick_2">
     <g id="line2d_2">
      <g>
       <use xlink:href="#mafd61aa664" x="177.517895" y="146.304" style="stroke: #000000; stroke-width: 0.8"/>
      </g>
     </g>
     <g id="text_2">
      <!-- 100 -->
      <g transform="translate(167.508207 158.412125) scale(0.12 -0.12)">
       <defs>
        <path id="Helvetica-31" d="M 613 3169 
L 613 3600 
Q 1222 3659 1462 3798 
Q 1703 3938 1822 4456 
L 2266 4456 
L 2266 0 
L 1666 0 
L 1666 3169 
L 613 3169 
z
" transform="scale(0.015625)"/>
       </defs>
       <use xlink:href="#Helvetica-31"/>
       <use xlink:href="#Helvetica-30" x="55.615234"/>
       <use xlink:href="#Helvetica-30" x="111.230469"/>
      </g>
     </g>
    </g>
   </g>
   <g id="matplotlib.axis_2">
    <g id="ytick_1">
     <g id="line2d_3">
      <defs>
       <path id="m4c4e87f6da" d="M 0 0 
L 3.5 0 
" style="stroke: #000000; stroke-width: 0.8"/>
      </defs>
      <g>
       <use xlink:href="#m4c4e87f6da" x="48.6" y="146.304" style="stroke: #000000; stroke-width: 0.8"/>
      </g>
     </g>
     <g id="text_3">
      <!-- 0 -->
      <g transform="translate(38.426875 150.608063) scale(0.12 -0.12)">
       <use xlink:href="#Helvetica-30"/>
      </g>
     </g>
    </g>
    <g id="ytick_2">
     <g id="line2d_4">
      <g>
       <use xlink:href="#m4c4e87f6da" x="48.6" y="89.154" style="stroke: #000000; stroke-width: 0.8"/>
      </g>
     </g>
     <g id="text_4">
      <!-- 5 -->
      <g transform="translate(38.426875 93.458062) scale(0.12 -0.12)">
       <use xlink:href="#Helvetica-35"/>
      </g>
     </g>
    </g>
    <g id="ytick_3">
     <g id="line2d_5">
      <g>
       <use xlink:href="#m4c4e87f6da" x="48.6" y="32.004" style="stroke: #000000; stroke-width: 0.8"/>
      </g>
     </g>
     <g id="text_5">
      <!-- 10 -->
      <g transform="translate(31.75375 36.308063) scale(0.12 -0.12)">
       <use xlink:href="#Helvetica-31"/>
       <use xlink:href="#Helvetica-30" x="55.615234"/>
      </g>
     </g>
    </g>
   </g>
   <g id="line2d_6">
    <path d="M 35.708211 136.272568 
L 37.140632 136.19911 
L 38.573053 136.124524 
L 40.005474 136.048781 
L 41.437895 135.971854 
L 42.870316 135.893714 
L 44.302737 135.81433 
L 45.735158 135.733672 
L 47.167579 135.651707 
L 48.6 135.568402 
L 50.032421 135.483722 
L 51.464842 135.397632 
L 52.897263 135.310094 
L 54.329684 135.221069 
L 55.762105 135.130519 
L 57.194526 135.0384 
L 58.626947 134.944672 
L 60.059368 134.849288 
L 61.491789 134.752202 
L 62.924211 134.653367 
L 64.356632 134.552731 
L 65.789053 134.450244 
L 67.221474 134.34585 
L 68.653895 134.239493 
L 70.086316 134.131114 
L 71.518737 134.020652 
L 72.951158 133.908043 
L 74.383579 133.79322 
L 75.816 133.676113 
L 77.248421 133.556649 
L 78.680842 133.434753 
L 80.113263 133.310344 
L 81.545684 133.18334 
L 82.978105 133.053653 
L 84.410526 132.921192 
L 85.842947 132.785861 
L 87.275368 132.647559 
L 88.707789 132.506182 
L 90.140211 132.361618 
L 91.572632 132.21375 
L 93.005053 132.062457 
L 94.437474 131.907608 
L 95.869895 131.749068 
L 97.302316 131.586694 
L 98.734737 131.420332 
L 100.167158 131.249825 
L 101.599579 131.075001 
L 103.032 130.895681 
L 104.464421 130.711676 
L 105.896842 130.522784 
L 107.329263 130.328789 
L 108.761684 130.129465 
L 110.194105 129.924568 
L 111.626526 129.71384 
L 113.058947 129.497005 
L 114.491368 129.273767 
L 115.923789 129.04381 
L 117.356211 128.806796 
L 118.788632 128.562361 
L 120.221053 128.310113 
L 121.653474 128.049631 
L 123.085895 127.780461 
L 124.518316 127.50211 
L 125.950737 127.214046 
L 127.383158 126.91569 
L 128.815579 126.606413 
L 130.248 126.285528 
L 131.680421 125.952284 
L 133.112842 125.605858 
L 134.545263 125.245345 
L 135.977684 124.869748 
L 137.410105 124.477962 
L 138.842526 124.068763 
L 140.274947 123.640785 
L 141.707368 123.192501 
L 143.139789 122.722197 
L 144.572211 122.227937 
L 146.004632 121.707527 
L 147.437053 121.158465 
L 148.869474 120.57788 
L 150.301895 119.96246 
L 151.734316 119.308353 
L 153.166737 118.611046 
L 154.599158 117.865201 
L 156.031579 117.064448 
L 157.464 116.201096 
L 158.896421 115.265743 
L 160.328842 114.24673 
L 161.761263 113.129353 
L 163.193684 111.894706 
L 164.626105 110.517912 
L 166.058526 108.965309 
L 167.490947 107.189762 
L 168.923368 105.122356 
L 170.355789 102.65649 
L 171.788211 99.614169 
L 173.220632 95.663377 
L 174.653053 90.065117 
L 176.085474 80.506407 
L 177.517895 32.773778 
" clip-path="url(#p848add3db7)" style="fill: none; stroke: #000000; stroke-linecap: square"/>
   </g>
   <g id="patch_3">
    <path d="M 48.6 146.304 
L 48.6 9.144 
" style="fill: none; stroke: #000000; stroke-width: 0.8; stroke-linejoin: miter; stroke-linecap: square"/>
   </g>
   <g id="patch_4">
    <path d="M 184.68 146.304 
L 184.68 9.144 
" style="fill: none; stroke: #000000; stroke-width: 0.8; stroke-linejoin: miter; stroke-linecap: square"/>
   </g>
   <g id="patch_5">
    <path d="M 48.6 146.304 
L 184.68 146.304 
" style="fill: none; stroke: #000000; stroke-width: 0.8; stroke-linejoin: miter; stroke-linecap: square"/>
   </g>
   <g id="patch_6">
    <path d="M 48.6 9.144 
L 184.68 9.144 
" style="fill: none; stroke: #000000; stroke-width: 0.8; stroke-linejoin: miter; stroke-linecap: square"/>
   </g>
   <g id="text_6">
    <!-- DA28102 -->
    <g transform="translate(62.208 30.603) scale(0.12 -0.12)">
     <defs>
      <path id="Helvetica-44" d="M 2250 531 
Q 2566 531 2769 597 
Q 3131 719 3363 1066 
Q 3547 1344 3628 1778 
Q 3675 2038 3675 2259 
Q 3675 3113 3336 3584 
Q 2997 4056 2244 4056 
L 1141 4056 
L 1141 531 
L 2250 531 
z
M 516 4591 
L 2375 4591 
Q 3322 4591 3844 3919 
Q 4309 3313 4309 2366 
Q 4309 1634 4034 1044 
Q 3550 0 2369 0 
L 516 0 
L 516 4591 
z
" transform="scale(0.015625)"/>
      <path id="Helvetica-41" d="M 2844 1881 
L 2147 3909 
L 1406 1881 
L 2844 1881 
z
M 1822 4591 
L 2525 4591 
L 4191 0 
L 3509 0 
L 3044 1375 
L 1228 1375 
L 731 0 
L 94 0 
L 1822 4591 
z
" transform="scale(0.015625)"/>
      <path id="Helvetica-32" d="M 200 0 
Q 231 578 439 1006 
Q 647 1434 1250 1784 
L 1850 2131 
Q 2253 2366 2416 2531 
Q 2672 2791 2672 3125 
Q 2672 3516 2437 3745 
Q 2203 3975 1813 3975 
Q 1234 3975 1013 3538 
Q 894 3303 881 2888 
L 309 2888 
Q 319 3472 525 3841 
Q 891 4491 1816 4491 
Q 2584 4491 2939 4075 
Q 3294 3659 3294 3150 
Q 3294 2613 2916 2231 
Q 2697 2009 2131 1694 
L 1703 1456 
Q 1397 1288 1222 1134 
Q 909 863 828 531 
L 3272 531 
L 3272 0 
L 200 0 
z
" transform="scale(0.015625)"/>
      <path id="Helvetica-38" d="M 1741 2600 
Q 2113 2600 2322 2808 
Q 2531 3016 2531 3303 
Q 2531 3553 2331 3762 
Q 2131 3972 1722 3972 
Q 1316 3972 1134 3762 
Q 953 3553 953 3272 
Q 953 2956 1187 2778 
Q 1422 2600 1741 2600 
z
M 1775 384 
Q 2166 384 2423 595 
Q 2681 806 2681 1225 
Q 2681 1659 2415 1884 
Q 2150 2109 1734 2109 
Q 1331 2109 1076 1879 
Q 822 1650 822 1244 
Q 822 894 1055 639 
Q 1288 384 1775 384 
z
M 975 2384 
Q 741 2484 609 2619 
Q 363 2869 363 3269 
Q 363 3769 725 4128 
Q 1088 4488 1753 4488 
Q 2397 4488 2762 4148 
Q 3128 3809 3128 3356 
Q 3128 2938 2916 2678 
Q 2797 2531 2547 2391 
Q 2825 2263 2984 2097 
Q 3281 1784 3281 1284 
Q 3281 694 2884 283 
Q 2488 -128 1763 -128 
Q 1109 -128 657 226 
Q 206 581 206 1256 
Q 206 1653 400 1942 
Q 594 2231 975 2384 
z
" transform="scale(0.015625)"/>
     </defs>
     <use xlink:href="#Helvetica-44"/>
     <use xlink:href="#Helvetica-41" x="72.216797"/>
     <use xlink:href="#Helvetica-32" x="138.916016"/>
     <use xlink:href="#Helvetica-38" x="194.53125"/>
     <use xlink:href="#Helvetica-31" x="250.146484"/>
     <use xlink:href="#Helvetica-30" x="305.761719"/>
     <use xlink:href="#Helvetica-32" x="361.376953"/>
    </g>
    <!-- colE1 -->
    <g transform="translate(62.208 43.434) scale(0.12 -0.12)">
     <defs>
      <path id="Helvetica-63" d="M 1703 3444 
Q 2269 3444 2623 3169 
Q 2978 2894 3050 2222 
L 2503 2222 
Q 2453 2531 2275 2736 
Q 2097 2941 1703 2941 
Q 1166 2941 934 2416 
Q 784 2075 784 1575 
Q 784 1072 996 728 
Q 1209 384 1666 384 
Q 2016 384 2220 598 
Q 2425 813 2503 1184 
L 3050 1184 
Q 2956 519 2581 211 
Q 2206 -97 1622 -97 
Q 966 -97 575 383 
Q 184 863 184 1581 
Q 184 2463 612 2953 
Q 1041 3444 1703 3444 
z
M 1616 3428 
L 1616 3428 
z
" transform="scale(0.015625)"/>
      <path id="Helvetica-6f" d="M 1741 363 
Q 2300 363 2508 786 
Q 2716 1209 2716 1728 
Q 2716 2197 2566 2491 
Q 2328 2953 1747 2953 
Q 1231 2953 997 2559 
Q 763 2166 763 1609 
Q 763 1075 997 719 
Q 1231 363 1741 363 
z
M 1763 3444 
Q 2409 3444 2856 3012 
Q 3303 2581 3303 1744 
Q 3303 934 2909 406 
Q 2516 -122 1688 -122 
Q 997 -122 590 345 
Q 184 813 184 1600 
Q 184 2444 612 2944 
Q 1041 3444 1763 3444 
z
M 1744 3428 
L 1744 3428 
z
" transform="scale(0.015625)"/>
      <path id="Helvetica-6c" d="M 428 4591 
L 991 4591 
L 991 0 
L 428 0 
L 428 4591 
z
" transform="scale(0.015625)"/>
      <path id="Helvetica-45" d="M 547 4591 
L 3894 4591 
L 3894 4028 
L 1153 4028 
L 1153 2634 
L 3688 2634 
L 3688 2103 
L 1153 2103 
L 1153 547 
L 3941 547 
L 3941 0 
L 547 0 
L 547 4591 
z
M 2244 4591 
L 2244 4591 
z
" transform="scale(0.015625)"/>
     </defs>
     <use xlink:href="#Helvetica-63"/>
     <use xlink:href="#Helvetica-6f" x="50"/>
     <use xlink:href="#Helvetica-6c" x="105.615234"/>
     <use xlink:href="#Helvetica-45" x="127.832031"/>
     <use xlink:href="#Helvetica-31" x="194.53125"/>
    </g>
   </g>
   <g id="LineCollection_1">
    <path d="M 177.517895 33.187606 
L 177.517895 33.105505 
" style="fill: none; stroke: #000000"/>
    <path d="M 177.517895 32.32038 
L 177.517895 32.232723 
" style="fill: none; stroke: #000000"/>
    <path d="M 177.517895 32.524469 
L 177.517895 32.351741 
" style="fill: none; stroke: #000000"/>
    <path d="M 176.085474 84.379225 
L 176.085474 84.333954 
" style="fill: none; stroke: #000000"/>
    <path d="M 176.085474 77.712095 
L 176.085474 77.669262 
" style="fill: none; stroke: #000000"/>
    <path d="M 176.085474 93.254809 
L 176.085474 93.247016 
" style="fill: none; stroke: #000000"/>
    <path d="M 163.193684 111.5986 
L 163.193684 111.565233 
" style="fill: none; stroke: #000000"/>
    <path d="M 163.193684 115.838933 
L 163.193684 115.823964 
" style="fill: none; stroke: #000000"/>
    <path d="M 163.193684 103.528309 
L 163.193684 103.512643 
" style="fill: none; stroke: #000000"/>
    <path d="M 105.896842 124.064125 
L 105.896842 124.025246 
" style="fill: none; stroke: #000000"/>
    <path d="M 105.896842 122.904329 
L 105.896842 122.891716 
" style="fill: none; stroke: #000000"/>
    <path d="M 105.896842 120.757928 
L 105.896842 120.740693 
" style="fill: none; stroke: #000000"/>
    <path d="M 62.924211 122.961473 
L 62.924211 122.945322 
" style="fill: none; stroke: #000000"/>
    <path d="M 62.924211 131.104763 
L 62.924211 131.060089 
" style="fill: none; stroke: #000000"/>
    <path d="M 62.924211 122.973967 
L 62.924211 122.949268 
" style="fill: none; stroke: #000000"/>
   </g>
   <g id="line2d_7">
    <defs>
     <path id="m197a6347d5" d="M 2 0 
L -2 -0 
" style="stroke: #000000"/>
    </defs>
    <g>
     <use xlink:href="#m197a6347d5" x="177.517895" y="33.187606" style="stroke: #000000"/>
     <use xlink:href="#m197a6347d5" x="177.517895" y="32.32038" style="stroke: #000000"/>
     <use xlink:href="#m197a6347d5" x="177.517895" y="32.524469" style="stroke: #000000"/>
     <use xlink:href="#m197a6347d5" x="176.085474" y="84.379225" style="stroke: #000000"/>
     <use xlink:href="#m197a6347d5" x="176.085474" y="77.712095" style="stroke: #000000"/>
     <use xlink:href="#m197a6347d5" x="176.085474" y="93.254809" style="stroke: #000000"/>
     <use xlink:href="#m197a6347d5" x="163.193684" y="111.5986" style="stroke: #000000"/>
     <use xlink:href="#m197a6347d5" x="163.193684" y="115.838933" style="stroke: #000000"/>
     <use xlink:href="#m197a6347d5" x="163.193684" y="103.528309" style="stroke: #000000"/>
     <use xlink:href="#m197a6347d5" x="105.896842" y="124.064125" style="stroke: #000000"/>
     <use xlink:href="#m197a6347d5" x="105.896842" y="122.904329" style="stroke: #000000"/>
     <use xlink:href="#m197a6347d5" x="105.896842" y="120.757928" style="stroke: #000000"/>
     <use xlink:href="#m197a6347d5" x="62.924211" y="122.961473" style="stroke: #000000"/>
     <use xlink:href="#m197a6347d5" x="62.924211" y="131.104763" style="stroke: #000000"/>
     <use xlink:href="#m197a6347d5" x="62.924211" y="122.973967" style="stroke: #000000"/>
    </g>
   </g>
   <g id="line2d_8">
    <g>
     <use xlink:href="#m197a6347d5" x="177.517895" y="33.105505" style="stroke: #000000"/>
     <use xlink:href="#m197a6347d5" x="177.517895" y="32.232723" style="stroke: #000000"/>
     <use xlink:href="#m197a6347d5" x="177.517895" y="32.351741" style="stroke: #000000"/>
     <use xlink:href="#m197a6347d5" x="176.085474" y="84.333954" style="stroke: #000000"/>
     <use xlink:href="#m197a6347d5" x="176.085474" y="77.669262" style="stroke: #000000"/>
     <use xlink:href="#m197a6347d5" x="176.085474" y="93.247016" style="stroke: #000000"/>
     <use xlink:href="#m197a6347d5" x="163.193684" y="111.565233" style="stroke: #000000"/>
     <use xlink:href="#m197a6347d5" x="163.193684" y="115.823964" style="stroke: #000000"/>
     <use xlink:href="#m197a6347d5" x="163.193684" y="103.512643" style="stroke: #000000"/>
     <use xlink:href="#m197a6347d5" x="105.896842" y="124.025246" style="stroke: #000000"/>
     <use xlink:href="#m197a6347d5" x="105.896842" y="122.891716" style="stroke: #000000"/>
     <use xlink:href="#m197a6347d5" x="105.896842" y="120.740693" style="stroke: #000000"/>
     <use xlink:href="#m197a6347d5" x="62.924211" y="122.945322" style="stroke: #000000"/>
     <use xlink:href="#m197a6347d5" x="62.924211" y="131.060089" style="stroke: #000000"/>
     <use xlink:href="#m197a6347d5" x="62.924211" y="122.949268" style="stroke: #000000"/>
    </g>
   </g>
   <g id="line2d_9">
    <path d="M 177.517895 33.146556 
L 177.517895 32.276552 
L 177.517895 32.438105 
L 176.085474 84.356589 
L 176.085474 77.690678 
L 176.085474 93.250912 
L 163.193684 111.581917 
L 163.193684 115.831449 
L 163.193684 103.520476 
L 105.896842 124.044686 
L 105.896842 122.898022 
L 105.896842 120.74931 
L 62.924211 122.953397 
L 62.924211 131.082426 
L 62.924211 122.961618 
" style="fill: none"/>
   </g>
  </g>
 </g>
 <defs>
  <clipPath id="p848add3db7">
   <rect x="48.6" y="9.144" width="136.08" height="137.16"/>
  </clipPath>
 </defs>
</svg>
