<?xml version="1.0" encoding="utf-8" standalone="no"?>
<!DOCTYPE svg PUBLIC "-//W3C//DTD SVG 1.1//EN"
  "http://www.w3.org/Graphics/SVG/1.1/DTD/svg11.dtd">
<svg xmlns:xlink="http://www.w3.org/1999/xlink" width="146.88pt" height="136.8pt" viewBox="0 0 146.88 136.8" xmlns="http://www.w3.org/2000/svg" version="1.1">
 <metadata>
  <rdf:RDF xmlns:dc="http://purl.org/dc/elements/1.1/" xmlns:cc="http://creativecommons.org/ns#" xmlns:rdf="http://www.w3.org/1999/02/22-rdf-syntax-ns#">
   <cc:Work>
    <dc:type rdf:resource="http://purl.org/dc/dcmitype/StillImage"/>
    <dc:date>2025-11-11T15:18:26.187271</dc:date>
    <dc:format>image/svg+xml</dc:format>
    <dc:creator>
     <cc:Agent>
      <dc:title>Matplotlib v3.7.5, https://matplotlib.org/</dc:title>
     </cc:Agent>
    </dc:creator>
   </cc:Work>
  </rdf:RDF>
 </metadata>
 <defs>
  <style type="text/css">*{stroke-linejoin: round; stroke-linecap: butt}</style>
 </defs>
 <g id="figure_1">
  <g id="patch_1">
   <path d="M 0 136.8 
L 146.88 136.8 
L 146.88 0 
L 0 0 
z
" style="fill: #ffffff"/>
  </g>
  <g id="axes_1">
   <g id="patch_2">
    <path d="M 36.72 105.336 
L 139.536 105.336 
L 139.536 6.84 
L 36.72 6.84 
z
" style="fill: #ffffff"/>
   </g>
   <g id="line2d_1">
    <path d="M 41.393455 92.140697 
L 54.746182 69.450522 
L 68.098909 66.256461 
L 81.451636 41.488578 
L 94.804364 39.619439 
L 108.157091 17.208 
L 121.509818 17.208 
L 134.862545 17.208 
" clip-path="url(#pf0d273e343)" style="fill: none; stroke: #8da0cb; stroke-width: 1.5; stroke-linecap: square"/>
   </g>
   <g id="PathCollection_1">
    <defs>
     <path id="m8f351ffa37" d="M 0 4.472136 
C 1.186024 4.472136 2.323632 4.000923 3.162278 3.162278 
C 4.000923 2.323632 4.472136 1.186024 4.472136 0 
C 4.472136 -1.186024 4.000923 -2.323632 3.162278 -3.162278 
C 2.323632 -4.000923 1.186024 -4.472136 0 -4.472136 
C -1.186024 -4.472136 -2.323632 -4.000923 -3.162278 -3.162278 
C -4.000923 -2.323632 -4.472136 -1.186024 -4.472136 0 
C -4.472136 1.186024 -4.000923 2.323632 -3.162278 3.162278 
C -2.323632 4.000923 -1.186024 4.472136 0 4.472136 
z
" style="stroke: #000000"/>
    </defs>
    <g clip-path="url(#pf0d273e343)">
     <use xlink:href="#m8f351ffa37" x="41.393455" y="86.449182" style="fill: #8da0cb; stroke: #000000"/>
     <use xlink:href="#m8f351ffa37" x="54.746182" y="69.450522" style="fill: #8da0cb; stroke: #000000"/>
     <use xlink:href="#m8f351ffa37" x="68.098909" y="67.220476" style="fill: #8da0cb; stroke: #000000"/>
     <use xlink:href="#m8f351ffa37" x="81.451636" y="65.145923" style="fill: #8da0cb; stroke: #000000"/>
     <use xlink:href="#m8f351ffa37" x="94.804364" y="58.357861" style="fill: #8da0cb; stroke: #000000"/>
     <use xlink:href="#m8f351ffa37" x="108.157091" y="17.208" style="fill: #8da0cb; stroke: #000000"/>
     <use xlink:href="#m8f351ffa37" x="121.509818" y="17.208" style="fill: #8da0cb; stroke: #000000"/>
     <use xlink:href="#m8f351ffa37" x="134.862545" y="17.208" style="fill: #8da0cb; stroke: #000000"/>
    </g>
   </g>
   <g id="PathCollection_2">
    <g clip-path="url(#pf0d273e343)">
     <use xlink:href="#m8f351ffa37" x="41.393455" y="92.140697" style="fill: #8da0cb; stroke: #000000"/>
     <use xlink:href="#m8f351ffa37" x="54.746182" y="68.98961" style="fill: #8da0cb; stroke: #000000"/>
     <use xlink:href="#m8f351ffa37" x="68.098909" y="66.111111" style="fill: #8da0cb; stroke: #000000"/>
     <use xlink:href="#m8f351ffa37" x="81.451636" y="35.393791" style="fill: #8da0cb; stroke: #000000"/>
     <use xlink:href="#m8f351ffa37" x="94.804364" y="17.208" style="fill: #8da0cb; stroke: #000000"/>
     <use xlink:href="#m8f351ffa37" x="108.157091" y="17.208" style="fill: #8da0cb; stroke: #000000"/>
     <use xlink:href="#m8f351ffa37" x="121.509818" y="17.208" style="fill: #8da0cb; stroke: #000000"/>
     <use xlink:href="#m8f351ffa37" x="134.862545" y="17.208" style="fill: #8da0cb; stroke: #000000"/>
    </g>
   </g>
   <g id="PathCollection_3">
    <g clip-path="url(#pf0d273e343)">
     <use xlink:href="#m8f351ffa37" x="41.393455" y="93.05776" style="fill: #8da0cb; stroke: #000000"/>
     <use xlink:href="#m8f351ffa37" x="54.746182" y="70.770781" style="fill: #8da0cb; stroke: #000000"/>
     <use xlink:href="#m8f351ffa37" x="68.098909" y="66.256461" style="fill: #8da0cb; stroke: #000000"/>
     <use xlink:href="#m8f351ffa37" x="81.451636" y="41.488578" style="fill: #8da0cb; stroke: #000000"/>
     <use xlink:href="#m8f351ffa37" x="94.804364" y="39.619439" style="fill: #8da0cb; stroke: #000000"/>
     <use xlink:href="#m8f351ffa37" x="108.157091" y="17.208" style="fill: #8da0cb; stroke: #000000"/>
     <use xlink:href="#m8f351ffa37" x="121.509818" y="17.208" style="fill: #8da0cb; stroke: #000000"/>
     <use xlink:href="#m8f351ffa37" x="134.862545" y="17.208" style="fill: #8da0cb; stroke: #000000"/>
    </g>
   </g>
   <g id="matplotlib.axis_1">
    <g id="xtick_1">
     <g id="line2d_2">
      <defs>
       <path id="m16c80f80c4" d="M 0 0 
L 0 -3.5 
" style="stroke: #000000; stroke-width: 0.8"/>
      </defs>
      <g>
       <use xlink:href="#m16c80f80c4" x="41.393455" y="105.336" style="stroke: #000000; stroke-width: 0.8"/>
      </g>
     </g>
     <g id="text_1">
      <!-- 0 -->
      <g transform="translate(38.056892 117.444125) scale(0.12 -0.12)">
       <defs>
        <path id="Helvetica-30" d="M 1731 4475 
Q 2600 4475 2988 3759 
Q 3288 3206 3288 2244 
Q 3288 1331 3016 734 
Q 2622 -122 1728 -122 
Q 922 -122 528 578 
Q 200 1163 200 2147 
Q 200 2909 397 3456 
Q 766 4475 1731 4475 
z
M 1725 391 
Q 2163 391 2422 778 
Q 2681 1166 2681 2222 
Q 2681 2984 2493 3476 
Q 2306 3969 1766 3969 
Q 1269 3969 1039 3501 
Q 809 3034 809 2125 
Q 809 1441 956 1025 
Q 1181 391 1725 391 
z
" transform="scale(0.015625)"/>
       </defs>
       <use xlink:href="#Helvetica-30"/>
      </g>
     </g>
    </g>
    <g id="xtick_2">
     <g id="line2d_3">
      <g>
       <use xlink:href="#m16c80f80c4" x="54.746182" y="105.336" style="stroke: #000000; stroke-width: 0.8"/>
      </g>
     </g>
     <g id="text_2">
      <!-- 2$^{-6}$ -->
      <g transform="translate(46.406182 117.444125) scale(0.12 -0.12)">
       <defs>
        <path id="Helvetica-32" d="M 200 0 
Q 231 578 439 1006 
Q 647 1434 1250 1784 
L 1850 2131 
Q 2253 2366 2416 2531 
Q 2672 2791 2672 3125 
Q 2672 3516 2437 3745 
Q 2203 3975 1813 3975 
Q 1234 3975 1013 3538 
Q 894 3303 881 2888 
L 309 2888 
Q 319 3472 525 3841 
Q 891 4491 1816 4491 
Q 2584 4491 2939 4075 
Q 3294 3659 3294 3150 
Q 3294 2613 2916 2231 
Q 2697 2009 2131 1694 
L 1703 1456 
Q 1397 1288 1222 1134 
Q 909 863 828 531 
L 3272 531 
L 3272 0 
L 200 0 
z
" transform="scale(0.015625)"/>
        <path id="Helvetica-2212" d="M 3547 1894 
L 3547 1369 
L 288 1369 
L 288 1894 
L 3547 1894 
z
" transform="scale(0.015625)"/>
        <path id="Helvetica-36" d="M 1872 4494 
Q 2622 4494 2917 4105 
Q 3213 3716 3213 3303 
L 2656 3303 
Q 2606 3569 2497 3719 
Q 2294 4000 1881 4000 
Q 1409 4000 1131 3564 
Q 853 3128 822 2316 
Q 1016 2600 1309 2741 
Q 1578 2866 1909 2866 
Q 2472 2866 2890 2506 
Q 3309 2147 3309 1434 
Q 3309 825 2912 354 
Q 2516 -116 1781 -116 
Q 1153 -116 697 361 
Q 241 838 241 1966 
Q 241 2800 444 3381 
Q 834 4494 1872 4494 
z
M 1831 384 
Q 2275 384 2495 682 
Q 2716 981 2716 1388 
Q 2716 1731 2519 2042 
Q 2322 2353 1803 2353 
Q 1441 2353 1167 2112 
Q 894 1872 894 1388 
Q 894 963 1142 673 
Q 1391 384 1831 384 
z
" transform="scale(0.015625)"/>
       </defs>
       <use xlink:href="#Helvetica-32" transform="translate(0 0.239063)"/>
       <use xlink:href="#Helvetica-2212" transform="translate(56.53043 36.846875) scale(0.7)"/>
       <use xlink:href="#Helvetica-36" transform="translate(97.409336 36.846875) scale(0.7)"/>
      </g>
     </g>
    </g>
    <g id="xtick_3">
     <g id="line2d_4">
      <g>
       <use xlink:href="#m16c80f80c4" x="81.451636" y="105.336" style="stroke: #000000; stroke-width: 0.8"/>
      </g>
     </g>
     <g id="text_3">
      <!-- 2$^{-4}$ -->
      <g transform="translate(73.111636 117.444125) scale(0.12 -0.12)">
       <defs>
        <path id="Helvetica-34" d="M 2116 1584 
L 2116 3613 
L 681 1584 
L 2116 1584 
z
M 2125 0 
L 2125 1094 
L 163 1094 
L 163 1644 
L 2213 4488 
L 2688 4488 
L 2688 1584 
L 3347 1584 
L 3347 1094 
L 2688 1094 
L 2688 0 
L 2125 0 
z
" transform="scale(0.015625)"/>
       </defs>
       <use xlink:href="#Helvetica-32" transform="translate(0 0.304688)"/>
       <use xlink:href="#Helvetica-2212" transform="translate(56.53043 36.9125) scale(0.7)"/>
       <use xlink:href="#Helvetica-34" transform="translate(97.409336 36.9125) scale(0.7)"/>
      </g>
     </g>
    </g>
    <g id="xtick_4">
     <g id="line2d_5">
      <g>
       <use xlink:href="#m16c80f80c4" x="108.157091" y="105.336" style="stroke: #000000; stroke-width: 0.8"/>
      </g>
     </g>
     <g id="text_4">
      <!-- 2$^{-2}$ -->
      <g transform="translate(99.817091 117.444125) scale(0.12 -0.12)">
       <use xlink:href="#Helvetica-32" transform="translate(0 0.271875)"/>
       <use xlink:href="#Helvetica-2212" transform="translate(56.53043 36.879688) scale(0.7)"/>
       <use xlink:href="#Helvetica-32" transform="translate(97.409336 36.879688) scale(0.7)"/>
      </g>
     </g>
    </g>
    <g id="xtick_5">
     <g id="line2d_6">
      <g>
       <use xlink:href="#m16c80f80c4" x="134.862545" y="105.336" style="stroke: #000000; stroke-width: 0.8"/>
      </g>
     </g>
     <g id="text_5">
      <!-- 2$^{0}$ -->
      <g transform="translate(128.922545 117.444125) scale(0.12 -0.12)">
       <use xlink:href="#Helvetica-32" transform="translate(0 0.446875)"/>
       <use xlink:href="#Helvetica-30" transform="translate(56.53043 37.054688) scale(0.7)"/>
      </g>
     </g>
    </g>
    <g id="text_6">
     <!-- Spec ($\times$50 $\mu$g/mL) -->
     <g transform="translate(39.888 132.825375) scale(0.12 -0.12)">
      <defs>
       <path id="Helvetica-53" d="M 894 1481 
Q 916 1091 1078 847 
Q 1388 391 2169 391 
Q 2519 391 2806 491 
Q 3363 684 3363 1184 
Q 3363 1559 3128 1719 
Q 2891 1875 2384 1991 
L 1763 2131 
Q 1153 2269 900 2434 
Q 463 2722 463 3294 
Q 463 3913 891 4309 
Q 1319 4706 2103 4706 
Q 2825 4706 3329 4357 
Q 3834 4009 3834 3244 
L 3250 3244 
Q 3203 3613 3050 3809 
Q 2766 4169 2084 4169 
Q 1534 4169 1293 3937 
Q 1053 3706 1053 3400 
Q 1053 3063 1334 2906 
Q 1519 2806 2169 2656 
L 2813 2509 
Q 3278 2403 3531 2219 
Q 3969 1897 3969 1284 
Q 3969 522 3414 194 
Q 2859 -134 2125 -134 
Q 1269 -134 784 303 
Q 300 738 309 1481 
L 894 1481 
z
M 2150 4716 
L 2150 4716 
z
" transform="scale(0.015625)"/>
       <path id="Helvetica-70" d="M 1825 378 
Q 2219 378 2480 708 
Q 2741 1038 2741 1694 
Q 2741 2094 2625 2381 
Q 2406 2934 1825 2934 
Q 1241 2934 1025 2350 
Q 909 2038 909 1556 
Q 909 1169 1025 897 
Q 1244 378 1825 378 
z
M 369 3331 
L 916 3331 
L 916 2888 
Q 1084 3116 1284 3241 
Q 1569 3428 1953 3428 
Q 2522 3428 2919 2992 
Q 3316 2556 3316 1747 
Q 3316 653 2744 184 
Q 2381 -113 1900 -113 
Q 1522 -113 1266 53 
Q 1116 147 931 375 
L 931 -1334 
L 369 -1334 
L 369 3331 
z
" transform="scale(0.015625)"/>
       <path id="Helvetica-65" d="M 1806 3422 
Q 2163 3422 2497 3255 
Q 2831 3088 3006 2822 
Q 3175 2569 3231 2231 
Q 3281 2000 3281 1494 
L 828 1494 
Q 844 984 1069 676 
Q 1294 369 1766 369 
Q 2206 369 2469 659 
Q 2619 828 2681 1050 
L 3234 1050 
Q 3213 866 3089 639 
Q 2966 413 2813 269 
Q 2556 19 2178 -69 
Q 1975 -119 1719 -119 
Q 1094 -119 659 336 
Q 225 791 225 1609 
Q 225 2416 662 2919 
Q 1100 3422 1806 3422 
z
M 2703 1941 
Q 2669 2306 2544 2525 
Q 2313 2931 1772 2931 
Q 1384 2931 1121 2651 
Q 859 2372 844 1941 
L 2703 1941 
z
M 1753 3428 
L 1753 3428 
z
" transform="scale(0.015625)"/>
       <path id="Helvetica-63" d="M 1703 3444 
Q 2269 3444 2623 3169 
Q 2978 2894 3050 2222 
L 2503 2222 
Q 2453 2531 2275 2736 
Q 2097 2941 1703 2941 
Q 1166 2941 934 2416 
Q 784 2075 784 1575 
Q 784 1072 996 728 
Q 1209 384 1666 384 
Q 2016 384 2220 598 
Q 2425 813 2503 1184 
L 3050 1184 
Q 2956 519 2581 211 
Q 2206 -97 1622 -97 
Q 966 -97 575 383 
Q 184 863 184 1581 
Q 184 2463 612 2953 
Q 1041 3444 1703 3444 
z
M 1616 3428 
L 1616 3428 
z
" transform="scale(0.015625)"/>
       <path id="Helvetica-20" transform="scale(0.015625)"/>
       <path id="Helvetica-28" d="M 1894 4666 
Q 1403 3713 1256 3263 
Q 1034 2578 1034 1681 
Q 1034 775 1288 25 
Q 1444 -438 1903 -1306 
L 1525 -1306 
Q 1069 -594 959 -397 
Q 850 -200 722 138 
Q 547 600 478 1125 
Q 444 1397 444 1644 
Q 444 2569 734 3291 
Q 919 3750 1503 4666 
L 1894 4666 
z
" transform="scale(0.015625)"/>
       <path id="Helvetica-d7" d="M 363 2822 
L 731 3191 
L 1916 2006 
L 3103 3191 
L 3481 2822 
L 2294 1634 
L 3481 450 
L 3103 72 
L 1916 1256 
L 731 72 
L 363 450 
L 1547 1634 
L 363 2822 
z
" transform="scale(0.015625)"/>
       <path id="Helvetica-35" d="M 791 1141 
Q 847 659 1238 475 
Q 1438 381 1700 381 
Q 2200 381 2440 700 
Q 2681 1019 2681 1406 
Q 2681 1875 2395 2131 
Q 2109 2388 1709 2388 
Q 1419 2388 1211 2275 
Q 1003 2163 856 1963 
L 369 1991 
L 709 4400 
L 3034 4400 
L 3034 3856 
L 1131 3856 
L 941 2613 
Q 1097 2731 1238 2791 
Q 1488 2894 1816 2894 
Q 2431 2894 2859 2497 
Q 3288 2100 3288 1491 
Q 3288 856 2895 371 
Q 2503 -113 1644 -113 
Q 1097 -113 676 195 
Q 256 503 206 1141 
L 791 1141 
z
" transform="scale(0.015625)"/>
       <path id="Helvetica-3bc" d="M 575 3328 
L 1153 3328 
L 1153 1369 
Q 1147 934 1325 691 
Q 1497 434 1953 434 
Q 2419 434 2591 697 
Q 2759 941 2759 1369 
L 2759 3328 
L 3334 3328 
L 3334 806 
Q 3316 434 3547 434 
Q 3634 434 3725 453 
L 3725 0 
Q 3641 -56 3372 -63 
Q 3109 -44 2994 63 
Q 2872 166 2803 384 
Q 2503 -50 1966 -63 
Q 1503 -63 1166 359 
L 1153 359 
L 1153 -1253 
L 575 -1253 
L 575 3328 
z
" transform="scale(0.015625)"/>
       <path id="Helvetica-67" d="M 1594 3406 
Q 1988 3406 2281 3213 
Q 2441 3103 2606 2894 
L 2606 3316 
L 3125 3316 
L 3125 272 
Q 3125 -366 2938 -734 
Q 2588 -1416 1616 -1416 
Q 1075 -1416 706 -1173 
Q 338 -931 294 -416 
L 866 -416 
Q 906 -641 1028 -763 
Q 1219 -950 1628 -950 
Q 2275 -950 2475 -494 
Q 2594 -225 2584 466 
Q 2416 209 2178 84 
Q 1941 -41 1550 -41 
Q 1006 -41 598 345 
Q 191 731 191 1622 
Q 191 2463 602 2934 
Q 1013 3406 1594 3406 
z
M 2606 1688 
Q 2606 2309 2350 2609 
Q 2094 2909 1697 2909 
Q 1103 2909 884 2353 
Q 769 2056 769 1575 
Q 769 1009 998 714 
Q 1228 419 1616 419 
Q 2222 419 2469 966 
Q 2606 1275 2606 1688 
z
M 1659 3428 
L 1659 3428 
z
" transform="scale(0.015625)"/>
       <path id="Helvetica-2f" d="M 1456 4591 
L 1931 4591 
L 475 0 
L 0 0 
L 1456 4591 
z
" transform="scale(0.015625)"/>
       <path id="Helvetica-6d" d="M 413 3347 
L 969 3347 
L 969 2872 
Q 1169 3119 1331 3231 
Q 1609 3422 1963 3422 
Q 2363 3422 2606 3225 
Q 2744 3113 2856 2894 
Q 3044 3163 3297 3292 
Q 3550 3422 3866 3422 
Q 4541 3422 4784 2934 
Q 4916 2672 4916 2228 
L 4916 0 
L 4331 0 
L 4331 2325 
Q 4331 2659 4164 2784 
Q 3997 2909 3756 2909 
Q 3425 2909 3186 2687 
Q 2947 2466 2947 1947 
L 2947 0 
L 2375 0 
L 2375 2184 
Q 2375 2525 2294 2681 
Q 2166 2916 1816 2916 
Q 1497 2916 1236 2669 
Q 975 2422 975 1775 
L 975 0 
L 413 0 
L 413 3347 
z
" transform="scale(0.015625)"/>
       <path id="Helvetica-4c" d="M 488 4591 
L 1109 4591 
L 1109 547 
L 3434 547 
L 3434 0 
L 488 0 
L 488 4591 
z
" transform="scale(0.015625)"/>
       <path id="Helvetica-29" d="M 222 -1306 
Q 719 -338 863 106 
Q 1081 778 1081 1681 
Q 1081 2584 828 3334 
Q 672 3797 213 4666 
L 591 4666 
Q 1072 3897 1173 3717 
Q 1275 3538 1394 3222 
Q 1544 2831 1608 2450 
Q 1672 2069 1672 1716 
Q 1672 791 1378 66 
Q 1194 -400 613 -1306 
L 222 -1306 
z
" transform="scale(0.015625)"/>
      </defs>
      <use xlink:href="#Helvetica-53" transform="translate(0 0.3125)"/>
      <use xlink:href="#Helvetica-70" transform="translate(66.699219 0.3125)"/>
      <use xlink:href="#Helvetica-65" transform="translate(122.314453 0.3125)"/>
      <use xlink:href="#Helvetica-63" transform="translate(177.929688 0.3125)"/>
      <use xlink:href="#Helvetica-20" transform="translate(227.929688 0.3125)"/>
      <use xlink:href="#Helvetica-28" transform="translate(255.712891 0.3125)"/>
      <use xlink:href="#Helvetica-d7" transform="translate(289.013672 0.3125)"/>
      <use xlink:href="#Helvetica-35" transform="translate(347.412109 0.3125)"/>
      <use xlink:href="#Helvetica-30" transform="translate(403.027344 0.3125)"/>
      <use xlink:href="#Helvetica-20" transform="translate(458.642578 0.3125)"/>
      <use xlink:href="#Helvetica-3bc" transform="translate(486.425781 0.3125)"/>
      <use xlink:href="#Helvetica-67" transform="translate(547.509766 0.3125)"/>
      <use xlink:href="#Helvetica-2f" transform="translate(603.125 0.3125)"/>
      <use xlink:href="#Helvetica-6d" transform="translate(630.908203 0.3125)"/>
      <use xlink:href="#Helvetica-4c" transform="translate(714.208984 0.3125)"/>
      <use xlink:href="#Helvetica-29" transform="translate(769.824219 0.3125)"/>
     </g>
    </g>
   </g>
   <g id="matplotlib.axis_2">
    <g id="ytick_1">
     <g id="line2d_7">
      <defs>
       <path id="md9f07dbd99" d="M 0 0 
L 3.5 0 
" style="stroke: #000000; stroke-width: 0.8"/>
      </defs>
      <g>
       <use xlink:href="#md9f07dbd99" x="36.72" y="105.336" style="stroke: #000000; stroke-width: 0.8"/>
      </g>
     </g>
     <g id="text_7">
      <!-- 0 -->
      <g transform="translate(26.546875 109.640062) scale(0.12 -0.12)">
       <use xlink:href="#Helvetica-30"/>
      </g>
     </g>
    </g>
    <g id="ytick_2">
     <g id="line2d_8">
      <g>
       <use xlink:href="#md9f07dbd99" x="36.72" y="63.864" style="stroke: #000000; stroke-width: 0.8"/>
      </g>
     </g>
     <g id="text_8">
      <!-- 8 -->
      <g transform="translate(26.546875 68.168063) scale(0.12 -0.12)">
       <defs>
        <path id="Helvetica-38" d="M 1741 2600 
Q 2113 2600 2322 2808 
Q 2531 3016 2531 3303 
Q 2531 3553 2331 3762 
Q 2131 3972 1722 3972 
Q 1316 3972 1134 3762 
Q 953 3553 953 3272 
Q 953 2956 1187 2778 
Q 1422 2600 1741 2600 
z
M 1775 384 
Q 2166 384 2423 595 
Q 2681 806 2681 1225 
Q 2681 1659 2415 1884 
Q 2150 2109 1734 2109 
Q 1331 2109 1076 1879 
Q 822 1650 822 1244 
Q 822 894 1055 639 
Q 1288 384 1775 384 
z
M 975 2384 
Q 741 2484 609 2619 
Q 363 2869 363 3269 
Q 363 3769 725 4128 
Q 1088 4488 1753 4488 
Q 2397 4488 2762 4148 
Q 3128 3809 3128 3356 
Q 3128 2938 2916 2678 
Q 2797 2531 2547 2391 
Q 2825 2263 2984 2097 
Q 3281 1784 3281 1284 
Q 3281 694 2884 283 
Q 2488 -128 1763 -128 
Q 1109 -128 657 226 
Q 206 581 206 1256 
Q 206 1653 400 1942 
Q 594 2231 975 2384 
z
" transform="scale(0.015625)"/>
       </defs>
       <use xlink:href="#Helvetica-38"/>
      </g>
     </g>
    </g>
    <g id="ytick_3">
     <g id="line2d_9">
      <g>
       <use xlink:href="#md9f07dbd99" x="36.72" y="17.208" style="stroke: #000000; stroke-width: 0.8"/>
      </g>
     </g>
     <g id="text_9">
      <!-- &gt;17 -->
      <g transform="translate(12.865 21.512063) scale(0.12 -0.12)">
       <defs>
        <path id="Helvetica-3e" d="M 3741 1369 
L 88 -59 
L 88 503 
L 3072 1634 
L 88 2763 
L 88 3325 
L 3741 1894 
L 3741 1369 
z
" transform="scale(0.015625)"/>
        <path id="Helvetica-31" d="M 613 3169 
L 613 3600 
Q 1222 3659 1462 3798 
Q 1703 3938 1822 4456 
L 2266 4456 
L 2266 0 
L 1666 0 
L 1666 3169 
L 613 3169 
z
" transform="scale(0.015625)"/>
        <path id="Helvetica-37" d="M 3347 4400 
L 3347 3909 
Q 3131 3700 2773 3181 
Q 2416 2663 2141 2063 
Q 1869 1478 1728 997 
Q 1638 688 1494 0 
L 872 0 
Q 1084 1281 1809 2550 
Q 2238 3294 2709 3834 
L 234 3834 
L 234 4400 
L 3347 4400 
z
" transform="scale(0.015625)"/>
       </defs>
       <use xlink:href="#Helvetica-3e"/>
       <use xlink:href="#Helvetica-31" x="58.398438"/>
       <use xlink:href="#Helvetica-37" x="114.013672"/>
      </g>
     </g>
    </g>
    <g id="text_10">
     <!-- $\tau_{1/2}$ (days) -->
     <g transform="translate(6.225 83.508) rotate(-90) scale(0.12 -0.12)">
      <defs>
       <path id="Helvetica-3c4" d="M 184 3328 
L 3016 3328 
L 3016 2828 
L 1888 2828 
L 1888 775 
Q 1881 428 2125 434 
Q 2291 434 2394 466 
L 2394 -31 
Q 2253 -63 1925 -63 
Q 1728 -63 1606 6 
Q 1484 63 1422 172 
Q 1356 288 1338 434 
Q 1313 575 1313 750 
L 1313 2828 
L 184 2828 
L 184 3328 
z
" transform="scale(0.015625)"/>
       <path id="Helvetica-64" d="M 769 1634 
Q 769 1097 997 734 
Q 1225 372 1728 372 
Q 2119 372 2370 708 
Q 2622 1044 2622 1672 
Q 2622 2306 2362 2611 
Q 2103 2916 1722 2916 
Q 1297 2916 1033 2591 
Q 769 2266 769 1634 
z
M 1616 3406 
Q 2000 3406 2259 3244 
Q 2409 3150 2600 2916 
L 2600 4606 
L 3141 4606 
L 3141 0 
L 2634 0 
L 2634 466 
Q 2438 156 2169 18 
Q 1900 -119 1553 -119 
Q 994 -119 584 351 
Q 175 822 175 1603 
Q 175 2334 548 2870 
Q 922 3406 1616 3406 
z
" transform="scale(0.015625)"/>
       <path id="Helvetica-61" d="M 844 891 
Q 844 647 1022 506 
Q 1200 366 1444 366 
Q 1741 366 2019 503 
Q 2488 731 2488 1250 
L 2488 1703 
Q 2384 1638 2221 1594 
Q 2059 1550 1903 1531 
L 1563 1488 
Q 1256 1447 1103 1359 
Q 844 1213 844 891 
z
M 2206 2028 
Q 2400 2053 2466 2191 
Q 2503 2266 2503 2406 
Q 2503 2694 2298 2823 
Q 2094 2953 1713 2953 
Q 1272 2953 1088 2716 
Q 984 2584 953 2325 
L 428 2325 
Q 444 2944 830 3186 
Q 1216 3428 1725 3428 
Q 2316 3428 2684 3203 
Q 3050 2978 3050 2503 
L 3050 575 
Q 3050 488 3086 434 
Q 3122 381 3238 381 
Q 3275 381 3322 386 
Q 3369 391 3422 400 
L 3422 -16 
Q 3291 -53 3222 -62 
Q 3153 -72 3034 -72 
Q 2744 -72 2613 134 
Q 2544 244 2516 444 
Q 2344 219 2022 53 
Q 1700 -113 1313 -113 
Q 847 -113 551 170 
Q 256 453 256 878 
Q 256 1344 547 1600 
Q 838 1856 1309 1916 
L 2206 2028 
z
M 1741 3428 
L 1741 3428 
z
" transform="scale(0.015625)"/>
       <path id="Helvetica-79" d="M 2503 3347 
L 3125 3347 
Q 3006 3025 2597 1878 
Q 2291 1016 2084 472 
Q 1597 -809 1397 -1090 
Q 1197 -1372 709 -1372 
Q 591 -1372 527 -1362 
Q 463 -1353 369 -1328 
L 369 -816 
Q 516 -856 581 -865 
Q 647 -875 697 -875 
Q 853 -875 926 -823 
Q 1000 -772 1050 -697 
Q 1066 -672 1162 -440 
Q 1259 -209 1303 -97 
L 66 3347 
L 703 3347 
L 1600 622 
L 2503 3347 
z
M 1597 3428 
L 1597 3428 
z
" transform="scale(0.015625)"/>
       <path id="Helvetica-73" d="M 747 1050 
Q 772 769 888 619 
Q 1100 347 1625 347 
Q 1938 347 2175 483 
Q 2413 619 2413 903 
Q 2413 1119 2222 1231 
Q 2100 1300 1741 1391 
L 1294 1503 
Q 866 1609 663 1741 
Q 300 1969 300 2372 
Q 300 2847 642 3140 
Q 984 3434 1563 3434 
Q 2319 3434 2653 2991 
Q 2863 2709 2856 2384 
L 2325 2384 
Q 2309 2575 2191 2731 
Q 1997 2953 1519 2953 
Q 1200 2953 1036 2831 
Q 872 2709 872 2509 
Q 872 2291 1088 2159 
Q 1213 2081 1456 2022 
L 1828 1931 
Q 2434 1784 2641 1647 
Q 2969 1431 2969 969 
Q 2969 522 2630 197 
Q 2291 -128 1597 -128 
Q 850 -128 539 211 
Q 228 550 206 1050 
L 747 1050 
z
M 1578 3428 
L 1578 3428 
z
" transform="scale(0.015625)"/>
      </defs>
      <use xlink:href="#Helvetica-3c4" transform="translate(0 0.09375)"/>
      <use xlink:href="#Helvetica-31" transform="translate(50.915195 -15.595313) scale(0.7)"/>
      <use xlink:href="#Helvetica-2f" transform="translate(89.845859 -15.595313) scale(0.7)"/>
      <use xlink:href="#Helvetica-32" transform="translate(109.294102 -15.595313) scale(0.7)"/>
      <use xlink:href="#Helvetica-20" transform="translate(150.839609 0.09375)"/>
      <use xlink:href="#Helvetica-28" transform="translate(178.622813 0.09375)"/>
      <use xlink:href="#Helvetica-64" transform="translate(211.923594 0.09375)"/>
      <use xlink:href="#Helvetica-61" transform="translate(267.538828 0.09375)"/>
      <use xlink:href="#Helvetica-79" transform="translate(323.154063 0.09375)"/>
      <use xlink:href="#Helvetica-73" transform="translate(373.154063 0.09375)"/>
      <use xlink:href="#Helvetica-29" transform="translate(423.154063 0.09375)"/>
     </g>
    </g>
   </g>
   <g id="LineCollection_1">
    <path d="M 41.393455 87.396745 
L 41.393455 85.501619 
" clip-path="url(#pf0d273e343)" style="fill: none; stroke: #000000; stroke-width: 1.5"/>
    <path d="M 54.746182 70.321136 
L 54.746182 68.579909 
" clip-path="url(#pf0d273e343)" style="fill: none; stroke: #000000; stroke-width: 1.5"/>
    <path d="M 68.098909 67.460829 
L 68.098909 66.980123 
" clip-path="url(#pf0d273e343)" style="fill: none; stroke: #000000; stroke-width: 1.5"/>
    <path d="M 81.451636 65.412884 
L 81.451636 64.878961 
" clip-path="url(#pf0d273e343)" style="fill: none; stroke: #000000; stroke-width: 1.5"/>
    <path d="M 94.804364 58.891831 
L 94.804364 57.823892 
" clip-path="url(#pf0d273e343)" style="fill: none; stroke: #000000; stroke-width: 1.5"/>
    <path clip-path="url(#pf0d273e343)" style="fill: none; stroke: #000000; stroke-width: 1.5"/>
    <path clip-path="url(#pf0d273e343)" style="fill: none; stroke: #000000; stroke-width: 1.5"/>
    <path clip-path="url(#pf0d273e343)" style="fill: none; stroke: #000000; stroke-width: 1.5"/>
   </g>
   <g id="line2d_10">
    <defs>
     <path id="m5702215c6d" d="M 2 0 
L -2 -0 
" style="stroke: #000000"/>
    </defs>
    <g clip-path="url(#pf0d273e343)">
     <use xlink:href="#m5702215c6d" x="41.393455" y="87.396745" style="stroke: #000000"/>
     <use xlink:href="#m5702215c6d" x="54.746182" y="70.321136" style="stroke: #000000"/>
     <use xlink:href="#m5702215c6d" x="68.098909" y="67.460829" style="stroke: #000000"/>
     <use xlink:href="#m5702215c6d" x="81.451636" y="65.412884" style="stroke: #000000"/>
     <use xlink:href="#m5702215c6d" x="94.804364" y="58.891831" style="stroke: #000000"/>
    </g>
   </g>
   <g id="line2d_11">
    <g clip-path="url(#pf0d273e343)">
     <use xlink:href="#m5702215c6d" x="41.393455" y="85.501619" style="stroke: #000000"/>
     <use xlink:href="#m5702215c6d" x="54.746182" y="68.579909" style="stroke: #000000"/>
     <use xlink:href="#m5702215c6d" x="68.098909" y="66.980123" style="stroke: #000000"/>
     <use xlink:href="#m5702215c6d" x="81.451636" y="64.878961" style="stroke: #000000"/>
     <use xlink:href="#m5702215c6d" x="94.804364" y="57.823892" style="stroke: #000000"/>
    </g>
   </g>
   <g id="LineCollection_2">
    <path d="M 41.393455 92.995171 
L 41.393455 91.286224 
" clip-path="url(#pf0d273e343)" style="fill: none; stroke: #000000; stroke-width: 1.5"/>
    <path d="M 54.746182 69.182315 
L 54.746182 68.796906 
" clip-path="url(#pf0d273e343)" style="fill: none; stroke: #000000; stroke-width: 1.5"/>
    <path d="M 68.098909 66.385124 
L 68.098909 65.837099 
" clip-path="url(#pf0d273e343)" style="fill: none; stroke: #000000; stroke-width: 1.5"/>
    <path d="M 81.451636 36.338506 
L 81.451636 34.449076 
" clip-path="url(#pf0d273e343)" style="fill: none; stroke: #000000; stroke-width: 1.5"/>
    <path clip-path="url(#pf0d273e343)" style="fill: none; stroke: #000000; stroke-width: 1.5"/>
    <path clip-path="url(#pf0d273e343)" style="fill: none; stroke: #000000; stroke-width: 1.5"/>
    <path clip-path="url(#pf0d273e343)" style="fill: none; stroke: #000000; stroke-width: 1.5"/>
    <path clip-path="url(#pf0d273e343)" style="fill: none; stroke: #000000; stroke-width: 1.5"/>
   </g>
   <g id="line2d_12">
    <g clip-path="url(#pf0d273e343)">
     <use xlink:href="#m5702215c6d" x="41.393455" y="92.995171" style="stroke: #000000"/>
     <use xlink:href="#m5702215c6d" x="54.746182" y="69.182315" style="stroke: #000000"/>
     <use xlink:href="#m5702215c6d" x="68.098909" y="66.385124" style="stroke: #000000"/>
     <use xlink:href="#m5702215c6d" x="81.451636" y="36.338506" style="stroke: #000000"/>
    </g>
   </g>
   <g id="line2d_13">
    <g clip-path="url(#pf0d273e343)">
     <use xlink:href="#m5702215c6d" x="41.393455" y="91.286224" style="stroke: #000000"/>
     <use xlink:href="#m5702215c6d" x="54.746182" y="68.796906" style="stroke: #000000"/>
     <use xlink:href="#m5702215c6d" x="68.098909" y="65.837099" style="stroke: #000000"/>
     <use xlink:href="#m5702215c6d" x="81.451636" y="34.449076" style="stroke: #000000"/>
    </g>
   </g>
   <g id="LineCollection_3">
    <path d="M 41.393455 94.184935 
L 41.393455 91.930585 
" clip-path="url(#pf0d273e343)" style="fill: none; stroke: #000000; stroke-width: 1.5"/>
    <path d="M 54.746182 71.47596 
L 54.746182 70.065601 
" clip-path="url(#pf0d273e343)" style="fill: none; stroke: #000000; stroke-width: 1.5"/>
    <path d="M 68.098909 66.526277 
L 68.098909 65.986646 
" clip-path="url(#pf0d273e343)" style="fill: none; stroke: #000000; stroke-width: 1.5"/>
    <path d="M 81.451636 41.886962 
L 81.451636 41.090195 
" clip-path="url(#pf0d273e343)" style="fill: none; stroke: #000000; stroke-width: 1.5"/>
    <path d="M 94.804364 39.962374 
L 94.804364 39.276503 
" clip-path="url(#pf0d273e343)" style="fill: none; stroke: #000000; stroke-width: 1.5"/>
    <path clip-path="url(#pf0d273e343)" style="fill: none; stroke: #000000; stroke-width: 1.5"/>
    <path clip-path="url(#pf0d273e343)" style="fill: none; stroke: #000000; stroke-width: 1.5"/>
    <path clip-path="url(#pf0d273e343)" style="fill: none; stroke: #000000; stroke-width: 1.5"/>
   </g>
   <g id="line2d_14">
    <g clip-path="url(#pf0d273e343)">
     <use xlink:href="#m5702215c6d" x="41.393455" y="94.184935" style="stroke: #000000"/>
     <use xlink:href="#m5702215c6d" x="54.746182" y="71.47596" style="stroke: #000000"/>
     <use xlink:href="#m5702215c6d" x="68.098909" y="66.526277" style="stroke: #000000"/>
     <use xlink:href="#m5702215c6d" x="81.451636" y="41.886962" style="stroke: #000000"/>
     <use xlink:href="#m5702215c6d" x="94.804364" y="39.962374" style="stroke: #000000"/>
    </g>
   </g>
   <g id="line2d_15">
    <g clip-path="url(#pf0d273e343)">
     <use xlink:href="#m5702215c6d" x="41.393455" y="91.930585" style="stroke: #000000"/>
     <use xlink:href="#m5702215c6d" x="54.746182" y="70.065601" style="stroke: #000000"/>
     <use xlink:href="#m5702215c6d" x="68.098909" y="65.986646" style="stroke: #000000"/>
     <use xlink:href="#m5702215c6d" x="81.451636" y="41.090195" style="stroke: #000000"/>
     <use xlink:href="#m5702215c6d" x="94.804364" y="39.276503" style="stroke: #000000"/>
    </g>
   </g>
   <g id="line2d_16">
    <path d="M 41.393455 86.449182 
L 54.746182 69.450522 
L 68.098909 67.220476 
L 81.451636 65.145923 
L 94.804364 58.357861 
L 108.157091 17.208 
L 121.509818 17.208 
L 134.862545 17.208 
" clip-path="url(#pf0d273e343)" style="fill: none"/>
   </g>
   <g id="line2d_17">
    <path d="M 41.393455 92.140697 
L 54.746182 68.98961 
L 68.098909 66.111111 
L 81.451636 35.393791 
L 94.804364 17.208 
L 108.157091 17.208 
L 121.509818 17.208 
L 134.862545 17.208 
" clip-path="url(#pf0d273e343)" style="fill: none"/>
   </g>
   <g id="line2d_18">
    <path d="M 41.393455 93.05776 
L 54.746182 70.770781 
L 68.098909 66.256461 
L 81.451636 41.488578 
L 94.804364 39.619439 
L 108.157091 17.208 
L 121.509818 17.208 
L 134.862545 17.208 
" clip-path="url(#pf0d273e343)" style="fill: none"/>
   </g>
   <g id="patch_3">
    <path d="M 36.72 105.336 
L 36.72 6.84 
" style="fill: none; stroke: #000000; stroke-width: 0.8; stroke-linejoin: miter; stroke-linecap: square"/>
   </g>
   <g id="patch_4">
    <path d="M 36.72 105.336 
L 139.536 105.336 
" style="fill: none; stroke: #000000; stroke-width: 0.8; stroke-linejoin: miter; stroke-linecap: square"/>
   </g>
  </g>
 </g>
 <defs>
  <clipPath id="pf0d273e343">
   <rect x="36.72" y="6.84" width="102.816" height="98.496"/>
  </clipPath>
 </defs>
</svg>
