<?xml version="1.0" encoding="utf-8" standalone="no"?>
<!DOCTYPE svg PUBLIC "-//W3C//DTD SVG 1.1//EN"
  "http://www.w3.org/Graphics/SVG/1.1/DTD/svg11.dtd">
<svg xmlns:xlink="http://www.w3.org/1999/xlink" width="432pt" height="144pt" viewBox="0 0 432 144" xmlns="http://www.w3.org/2000/svg" version="1.1">
 <metadata>
  <rdf:RDF xmlns:dc="http://purl.org/dc/elements/1.1/" xmlns:cc="http://creativecommons.org/ns#" xmlns:rdf="http://www.w3.org/1999/02/22-rdf-syntax-ns#">
   <cc:Work>
    <dc:type rdf:resource="http://purl.org/dc/dcmitype/StillImage"/>
    <dc:date>2025-08-24T16:44:15.235080</dc:date>
    <dc:format>image/svg+xml</dc:format>
    <dc:creator>
     <cc:Agent>
      <dc:title>Matplotlib v3.7.5, https://matplotlib.org/</dc:title>
     </cc:Agent>
    </dc:creator>
   </cc:Work>
  </rdf:RDF>
 </metadata>
 <defs>
  <style type="text/css">*{stroke-linejoin: round; stroke-linecap: butt}</style>
 </defs>
 <g id="figure_1">
  <g id="patch_1">
   <path d="M 0 144 
L 432 144 
L 432 0 
L 0 0 
z
" style="fill: #ffffff"/>
  </g>
  <g id="axes_1">
   <g id="patch_2">
    <path d="M 54 128.16 
L 388.8 128.16 
L 388.8 17.28 
L 54 17.28 
z
" style="fill: #ffffff"/>
   </g>
   <g id="PathCollection_1"/>
   <g id="PathCollection_2"/>
   <g id="PathCollection_3"/>
   <g id="matplotlib.axis_1">
    <g id="xtick_1">
     <g id="line2d_1">
      <defs>
       <path id="ma2ae980432" d="M 0 0 
L 0 -3.5 
" style="stroke: #000000; stroke-width: 0.8"/>
      </defs>
      <g>
       <use xlink:href="#ma2ae980432" x="99.654545" y="128.16" style="stroke: #000000; stroke-width: 0.8"/>
      </g>
     </g>
     <g id="text_1">
      <!-- −0.04 -->
      <g transform="translate(84.473608 140.268125) scale(0.12 -0.12)">
       <defs>
        <path id="Helvetica-2212" d="M 3547 1894 
L 3547 1369 
L 288 1369 
L 288 1894 
L 3547 1894 
z
" transform="scale(0.015625)"/>
        <path id="Helvetica-30" d="M 1731 4475 
Q 2600 4475 2988 3759 
Q 3288 3206 3288 2244 
Q 3288 1331 3016 734 
Q 2622 -122 1728 -122 
Q 922 -122 528 578 
Q 200 1163 200 2147 
Q 200 2909 397 3456 
Q 766 4475 1731 4475 
z
M 1725 391 
Q 2163 391 2422 778 
Q 2681 1166 2681 2222 
Q 2681 2984 2493 3476 
Q 2306 3969 1766 3969 
Q 1269 3969 1039 3501 
Q 809 3034 809 2125 
Q 809 1441 956 1025 
Q 1181 391 1725 391 
z
" transform="scale(0.015625)"/>
        <path id="Helvetica-2e" d="M 547 681 
L 1200 681 
L 1200 0 
L 547 0 
L 547 681 
z
" transform="scale(0.015625)"/>
        <path id="Helvetica-34" d="M 2116 1584 
L 2116 3613 
L 681 1584 
L 2116 1584 
z
M 2125 0 
L 2125 1094 
L 163 1094 
L 163 1644 
L 2213 4488 
L 2688 4488 
L 2688 1584 
L 3347 1584 
L 3347 1094 
L 2688 1094 
L 2688 0 
L 2125 0 
z
" transform="scale(0.015625)"/>
       </defs>
       <use xlink:href="#Helvetica-2212"/>
       <use xlink:href="#Helvetica-30" x="58.398438"/>
       <use xlink:href="#Helvetica-2e" x="114.013672"/>
       <use xlink:href="#Helvetica-30" x="141.796875"/>
       <use xlink:href="#Helvetica-34" x="197.412109"/>
      </g>
     </g>
    </g>
    <g id="xtick_2">
     <g id="line2d_2">
      <g>
       <use xlink:href="#ma2ae980432" x="160.527273" y="128.16" style="stroke: #000000; stroke-width: 0.8"/>
      </g>
     </g>
     <g id="text_2">
      <!-- −0.02 -->
      <g transform="translate(145.346335 140.268125) scale(0.12 -0.12)">
       <defs>
        <path id="Helvetica-32" d="M 200 0 
Q 231 578 439 1006 
Q 647 1434 1250 1784 
L 1850 2131 
Q 2253 2366 2416 2531 
Q 2672 2791 2672 3125 
Q 2672 3516 2437 3745 
Q 2203 3975 1813 3975 
Q 1234 3975 1013 3538 
Q 894 3303 881 2888 
L 309 2888 
Q 319 3472 525 3841 
Q 891 4491 1816 4491 
Q 2584 4491 2939 4075 
Q 3294 3659 3294 3150 
Q 3294 2613 2916 2231 
Q 2697 2009 2131 1694 
L 1703 1456 
Q 1397 1288 1222 1134 
Q 909 863 828 531 
L 3272 531 
L 3272 0 
L 200 0 
z
" transform="scale(0.015625)"/>
       </defs>
       <use xlink:href="#Helvetica-2212"/>
       <use xlink:href="#Helvetica-30" x="58.398438"/>
       <use xlink:href="#Helvetica-2e" x="114.013672"/>
       <use xlink:href="#Helvetica-30" x="141.796875"/>
       <use xlink:href="#Helvetica-32" x="197.412109"/>
      </g>
     </g>
    </g>
    <g id="xtick_3">
     <g id="line2d_3">
      <g>
       <use xlink:href="#ma2ae980432" x="221.4" y="128.16" style="stroke: #000000; stroke-width: 0.8"/>
      </g>
     </g>
     <g id="text_3">
      <!-- 0.00 -->
      <g transform="translate(209.723438 140.268125) scale(0.12 -0.12)">
       <use xlink:href="#Helvetica-30"/>
       <use xlink:href="#Helvetica-2e" x="55.615234"/>
       <use xlink:href="#Helvetica-30" x="83.398438"/>
       <use xlink:href="#Helvetica-30" x="139.013672"/>
      </g>
     </g>
    </g>
    <g id="xtick_4">
     <g id="line2d_4">
      <g>
       <use xlink:href="#ma2ae980432" x="282.272727" y="128.16" style="stroke: #000000; stroke-width: 0.8"/>
      </g>
     </g>
     <g id="text_4">
      <!-- 0.02 -->
      <g transform="translate(270.596165 140.268125) scale(0.12 -0.12)">
       <use xlink:href="#Helvetica-30"/>
       <use xlink:href="#Helvetica-2e" x="55.615234"/>
       <use xlink:href="#Helvetica-30" x="83.398438"/>
       <use xlink:href="#Helvetica-32" x="139.013672"/>
      </g>
     </g>
    </g>
    <g id="xtick_5">
     <g id="line2d_5">
      <g>
       <use xlink:href="#ma2ae980432" x="343.145455" y="128.16" style="stroke: #000000; stroke-width: 0.8"/>
      </g>
     </g>
     <g id="text_5">
      <!-- 0.04 -->
      <g transform="translate(331.468892 140.268125) scale(0.12 -0.12)">
       <use xlink:href="#Helvetica-30"/>
       <use xlink:href="#Helvetica-2e" x="55.615234"/>
       <use xlink:href="#Helvetica-30" x="83.398438"/>
       <use xlink:href="#Helvetica-34" x="139.013672"/>
      </g>
     </g>
    </g>
   </g>
   <g id="matplotlib.axis_2">
    <g id="ytick_1">
     <g id="line2d_6">
      <defs>
       <path id="m2d828df17f" d="M 0 0 
L 3.5 0 
" style="stroke: #000000; stroke-width: 0.8"/>
      </defs>
      <g>
       <use xlink:href="#m2d828df17f" x="54" y="123.12" style="stroke: #000000; stroke-width: 0.8"/>
      </g>
     </g>
     <g id="text_6">
      <!-- −0.05 -->
      <g transform="translate(20.138125 127.424062) scale(0.12 -0.12)">
       <defs>
        <path id="Helvetica-35" d="M 791 1141 
Q 847 659 1238 475 
Q 1438 381 1700 381 
Q 2200 381 2440 700 
Q 2681 1019 2681 1406 
Q 2681 1875 2395 2131 
Q 2109 2388 1709 2388 
Q 1419 2388 1211 2275 
Q 1003 2163 856 1963 
L 369 1991 
L 709 4400 
L 3034 4400 
L 3034 3856 
L 1131 3856 
L 941 2613 
Q 1097 2731 1238 2791 
Q 1488 2894 1816 2894 
Q 2431 2894 2859 2497 
Q 3288 2100 3288 1491 
Q 3288 856 2895 371 
Q 2503 -113 1644 -113 
Q 1097 -113 676 195 
Q 256 503 206 1141 
L 791 1141 
z
" transform="scale(0.015625)"/>
       </defs>
       <use xlink:href="#Helvetica-2212"/>
       <use xlink:href="#Helvetica-30" x="58.398438"/>
       <use xlink:href="#Helvetica-2e" x="114.013672"/>
       <use xlink:href="#Helvetica-30" x="141.796875"/>
       <use xlink:href="#Helvetica-35" x="197.412109"/>
      </g>
     </g>
    </g>
    <g id="ytick_2">
     <g id="line2d_7">
      <g>
       <use xlink:href="#m2d828df17f" x="54" y="72.72" style="stroke: #000000; stroke-width: 0.8"/>
      </g>
     </g>
     <g id="text_7">
      <!-- 0.00 -->
      <g transform="translate(27.146875 77.024062) scale(0.12 -0.12)">
       <use xlink:href="#Helvetica-30"/>
       <use xlink:href="#Helvetica-2e" x="55.615234"/>
       <use xlink:href="#Helvetica-30" x="83.398438"/>
       <use xlink:href="#Helvetica-30" x="139.013672"/>
      </g>
     </g>
    </g>
    <g id="ytick_3">
     <g id="line2d_8">
      <g>
       <use xlink:href="#m2d828df17f" x="54" y="22.32" style="stroke: #000000; stroke-width: 0.8"/>
      </g>
     </g>
     <g id="text_8">
      <!-- 0.05 -->
      <g transform="translate(27.146875 26.624062) scale(0.12 -0.12)">
       <use xlink:href="#Helvetica-30"/>
       <use xlink:href="#Helvetica-2e" x="55.615234"/>
       <use xlink:href="#Helvetica-30" x="83.398438"/>
       <use xlink:href="#Helvetica-35" x="139.013672"/>
      </g>
     </g>
    </g>
   </g>
   <g id="patch_3">
    <path d="M 54 128.16 
L 54 17.28 
" style="fill: none; stroke: #000000; stroke-width: 0.8; stroke-linejoin: miter; stroke-linecap: square"/>
   </g>
   <g id="patch_4">
    <path d="M 388.8 128.16 
L 388.8 17.28 
" style="fill: none; stroke: #000000; stroke-width: 0.8; stroke-linejoin: miter; stroke-linecap: square"/>
   </g>
   <g id="patch_5">
    <path d="M 54 128.16 
L 388.8 128.16 
" style="fill: none; stroke: #000000; stroke-width: 0.8; stroke-linejoin: miter; stroke-linecap: square"/>
   </g>
   <g id="patch_6">
    <path d="M 54 17.28 
L 388.8 17.28 
" style="fill: none; stroke: #000000; stroke-width: 0.8; stroke-linejoin: miter; stroke-linecap: square"/>
   </g>
   <g id="legend_1">
    <g id="patch_7">
     <path d="M 181.726875 44.4 
L 380.4 44.4 
Q 382.8 44.4 382.8 42 
L 382.8 25.68 
Q 382.8 23.28 380.4 23.28 
L 181.726875 23.28 
Q 179.326875 23.28 179.326875 25.68 
L 179.326875 42 
Q 179.326875 44.4 181.726875 44.4 
z
" style="fill: #ffffff; opacity: 0.8; stroke: #cccccc; stroke-linejoin: miter"/>
    </g>
    <g id="PathCollection_4">
     <defs>
      <path id="m757fd728b6" d="M 0 4.472136 
C 1.186024 4.472136 2.323632 4.000923 3.162278 3.162278 
C 4.000923 2.323632 4.472136 1.186024 4.472136 0 
C 4.472136 -1.186024 4.000923 -2.323632 3.162278 -3.162278 
C 2.323632 -4.000923 1.186024 -4.472136 0 -4.472136 
C -1.186024 -4.472136 -2.323632 -4.000923 -3.162278 -3.162278 
C -4.000923 -2.323632 -4.472136 -1.186024 -4.472136 0 
C -4.472136 1.186024 -4.000923 2.323632 -3.162278 3.162278 
C -2.323632 4.000923 -1.186024 4.472136 0 4.472136 
z
" style="stroke: #000000"/>
     </defs>
     <g>
      <use xlink:href="#m757fd728b6" x="187.126875" y="33.69" style="fill: #b3b3b3; stroke: #000000"/>
     </g>
    </g>
    <g id="text_9">
     <!-- 0 -->
     <g transform="translate(199.726875 36.84) scale(0.12 -0.12)">
      <use xlink:href="#Helvetica-30"/>
     </g>
    </g>
    <g id="PathCollection_5">
     <defs>
      <path id="m783f629409" d="M 0 -4.472136 
L -4.472136 4.472136 
L 4.472136 4.472136 
z
" style="stroke: #000000"/>
     </defs>
     <g>
      <use xlink:href="#m783f629409" x="233.4" y="33.69" style="fill: #b3b3b3; stroke: #000000"/>
     </g>
    </g>
    <g id="text_10">
     <!-- 2$^{-5}$ -->
     <g transform="translate(246 36.84) scale(0.12 -0.12)">
      <use xlink:href="#Helvetica-32" transform="translate(0 0.267188)"/>
      <use xlink:href="#Helvetica-2212" transform="translate(56.53043 36.875) scale(0.7)"/>
      <use xlink:href="#Helvetica-35" transform="translate(97.409336 36.875) scale(0.7)"/>
     </g>
    </g>
    <g id="PathCollection_6">
     <defs>
      <path id="m3870f229c5" d="M -4.472136 4.472136 
L 4.472136 4.472136 
L 4.472136 -4.472136 
L -4.472136 -4.472136 
z
" style="stroke: #000000"/>
     </defs>
     <g>
      <use xlink:href="#m3870f229c5" x="289.68" y="33.69" style="fill: #b3b3b3; stroke: #000000"/>
     </g>
    </g>
    <g id="text_11">
     <!-- 1 ($\times$50 $\mu$g/mL) -->
     <g transform="translate(302.28 36.84) scale(0.12 -0.12)">
      <defs>
       <path id="Helvetica-31" d="M 613 3169 
L 613 3600 
Q 1222 3659 1462 3798 
Q 1703 3938 1822 4456 
L 2266 4456 
L 2266 0 
L 1666 0 
L 1666 3169 
L 613 3169 
z
" transform="scale(0.015625)"/>
       <path id="Helvetica-20" transform="scale(0.015625)"/>
       <path id="Helvetica-28" d="M 1894 4666 
Q 1403 3713 1256 3263 
Q 1034 2578 1034 1681 
Q 1034 775 1288 25 
Q 1444 -438 1903 -1306 
L 1525 -1306 
Q 1069 -594 959 -397 
Q 850 -200 722 138 
Q 547 600 478 1125 
Q 444 1397 444 1644 
Q 444 2569 734 3291 
Q 919 3750 1503 4666 
L 1894 4666 
z
" transform="scale(0.015625)"/>
       <path id="Helvetica-d7" d="M 363 2822 
L 731 3191 
L 1916 2006 
L 3103 3191 
L 3481 2822 
L 2294 1634 
L 3481 450 
L 3103 72 
L 1916 1256 
L 731 72 
L 363 450 
L 1547 1634 
L 363 2822 
z
" transform="scale(0.015625)"/>
       <path id="Helvetica-3bc" d="M 575 3328 
L 1153 3328 
L 1153 1369 
Q 1147 934 1325 691 
Q 1497 434 1953 434 
Q 2419 434 2591 697 
Q 2759 941 2759 1369 
L 2759 3328 
L 3334 3328 
L 3334 806 
Q 3316 434 3547 434 
Q 3634 434 3725 453 
L 3725 0 
Q 3641 -56 3372 -63 
Q 3109 -44 2994 63 
Q 2872 166 2803 384 
Q 2503 -50 1966 -63 
Q 1503 -63 1166 359 
L 1153 359 
L 1153 -1253 
L 575 -1253 
L 575 3328 
z
" transform="scale(0.015625)"/>
       <path id="Helvetica-67" d="M 1594 3406 
Q 1988 3406 2281 3213 
Q 2441 3103 2606 2894 
L 2606 3316 
L 3125 3316 
L 3125 272 
Q 3125 -366 2938 -734 
Q 2588 -1416 1616 -1416 
Q 1075 -1416 706 -1173 
Q 338 -931 294 -416 
L 866 -416 
Q 906 -641 1028 -763 
Q 1219 -950 1628 -950 
Q 2275 -950 2475 -494 
Q 2594 -225 2584 466 
Q 2416 209 2178 84 
Q 1941 -41 1550 -41 
Q 1006 -41 598 345 
Q 191 731 191 1622 
Q 191 2463 602 2934 
Q 1013 3406 1594 3406 
z
M 2606 1688 
Q 2606 2309 2350 2609 
Q 2094 2909 1697 2909 
Q 1103 2909 884 2353 
Q 769 2056 769 1575 
Q 769 1009 998 714 
Q 1228 419 1616 419 
Q 2222 419 2469 966 
Q 2606 1275 2606 1688 
z
M 1659 3428 
L 1659 3428 
z
" transform="scale(0.015625)"/>
       <path id="Helvetica-2f" d="M 1456 4591 
L 1931 4591 
L 475 0 
L 0 0 
L 1456 4591 
z
" transform="scale(0.015625)"/>
       <path id="Helvetica-6d" d="M 413 3347 
L 969 3347 
L 969 2872 
Q 1169 3119 1331 3231 
Q 1609 3422 1963 3422 
Q 2363 3422 2606 3225 
Q 2744 3113 2856 2894 
Q 3044 3163 3297 3292 
Q 3550 3422 3866 3422 
Q 4541 3422 4784 2934 
Q 4916 2672 4916 2228 
L 4916 0 
L 4331 0 
L 4331 2325 
Q 4331 2659 4164 2784 
Q 3997 2909 3756 2909 
Q 3425 2909 3186 2687 
Q 2947 2466 2947 1947 
L 2947 0 
L 2375 0 
L 2375 2184 
Q 2375 2525 2294 2681 
Q 2166 2916 1816 2916 
Q 1497 2916 1236 2669 
Q 975 2422 975 1775 
L 975 0 
L 413 0 
L 413 3347 
z
" transform="scale(0.015625)"/>
       <path id="Helvetica-4c" d="M 488 4591 
L 1109 4591 
L 1109 547 
L 3434 547 
L 3434 0 
L 488 0 
L 488 4591 
z
" transform="scale(0.015625)"/>
       <path id="Helvetica-29" d="M 222 -1306 
Q 719 -338 863 106 
Q 1081 778 1081 1681 
Q 1081 2584 828 3334 
Q 672 3797 213 4666 
L 591 4666 
Q 1072 3897 1173 3717 
Q 1275 3538 1394 3222 
Q 1544 2831 1608 2450 
Q 1672 2069 1672 1716 
Q 1672 791 1378 66 
Q 1194 -400 613 -1306 
L 222 -1306 
z
" transform="scale(0.015625)"/>
      </defs>
      <use xlink:href="#Helvetica-31" transform="translate(0 0.09375)"/>
      <use xlink:href="#Helvetica-20" transform="translate(55.615234 0.09375)"/>
      <use xlink:href="#Helvetica-28" transform="translate(83.398438 0.09375)"/>
      <use xlink:href="#Helvetica-d7" transform="translate(116.699219 0.09375)"/>
      <use xlink:href="#Helvetica-35" transform="translate(175.097656 0.09375)"/>
      <use xlink:href="#Helvetica-30" transform="translate(230.712891 0.09375)"/>
      <use xlink:href="#Helvetica-20" transform="translate(286.328125 0.09375)"/>
      <use xlink:href="#Helvetica-3bc" transform="translate(314.111328 0.09375)"/>
      <use xlink:href="#Helvetica-67" transform="translate(375.195312 0.09375)"/>
      <use xlink:href="#Helvetica-2f" transform="translate(430.810547 0.09375)"/>
      <use xlink:href="#Helvetica-6d" transform="translate(458.59375 0.09375)"/>
      <use xlink:href="#Helvetica-4c" transform="translate(541.894531 0.09375)"/>
      <use xlink:href="#Helvetica-29" transform="translate(597.509766 0.09375)"/>
     </g>
    </g>
   </g>
  </g>
 </g>
</svg>
