<?xml version="1.0" encoding="utf-8" standalone="no"?>
<!DOCTYPE svg PUBLIC "-//W3C//DTD SVG 1.1//EN"
  "http://www.w3.org/Graphics/SVG/1.1/DTD/svg11.dtd">
<svg xmlns:xlink="http://www.w3.org/1999/xlink" width="146.88pt" height="136.8pt" viewBox="0 0 146.88 136.8" xmlns="http://www.w3.org/2000/svg" version="1.1">
 <metadata>
  <rdf:RDF xmlns:dc="http://purl.org/dc/elements/1.1/" xmlns:cc="http://creativecommons.org/ns#" xmlns:rdf="http://www.w3.org/1999/02/22-rdf-syntax-ns#">
   <cc:Work>
    <dc:type rdf:resource="http://purl.org/dc/dcmitype/StillImage"/>
    <dc:date>2025-11-11T15:18:25.910897</dc:date>
    <dc:format>image/svg+xml</dc:format>
    <dc:creator>
     <cc:Agent>
      <dc:title>Matplotlib v3.7.5, https://matplotlib.org/</dc:title>
     </cc:Agent>
    </dc:creator>
   </cc:Work>
  </rdf:RDF>
 </metadata>
 <defs>
  <style type="text/css">*{stroke-linejoin: round; stroke-linecap: butt}</style>
 </defs>
 <g id="figure_1">
  <g id="patch_1">
   <path d="M 0 136.8 
L 146.88 136.8 
L 146.88 0 
L 0 0 
z
" style="fill: #ffffff"/>
  </g>
  <g id="axes_1">
   <g id="patch_2">
    <path d="M 36.72 105.336 
L 139.536 105.336 
L 139.536 6.84 
L 36.72 6.84 
z
" style="fill: #ffffff"/>
   </g>
   <g id="line2d_1">
    <path d="M 41.393455 89.591026 
L 54.746182 74.991773 
L 68.098909 74.433726 
L 81.451636 32.041487 
L 94.804364 32.242291 
L 108.157091 34.496222 
L 121.509818 32.322141 
L 134.862545 24.230006 
" clip-path="url(#p603f2a0e1c)" style="fill: none; stroke: #66c2a5; stroke-width: 1.5; stroke-linecap: square"/>
   </g>
   <g id="PathCollection_1">
    <defs>
     <path id="m0ffd05481c" d="M 0 4.472136 
C 1.186024 4.472136 2.323632 4.000923 3.162278 3.162278 
C 4.000923 2.323632 4.472136 1.186024 4.472136 0 
C 4.472136 -1.186024 4.000923 -2.323632 3.162278 -3.162278 
C 2.323632 -4.000923 1.186024 -4.472136 0 -4.472136 
C -1.186024 -4.472136 -2.323632 -4.000923 -3.162278 -3.162278 
C -4.000923 -2.323632 -4.472136 -1.186024 -4.472136 0 
C -4.472136 1.186024 -4.000923 2.323632 -3.162278 3.162278 
C -2.323632 4.000923 -1.186024 4.472136 0 4.472136 
z
" style="stroke: #000000"/>
    </defs>
    <g clip-path="url(#p603f2a0e1c)">
     <use xlink:href="#m0ffd05481c" x="41.393455" y="87.036183" style="fill: #66c2a5; stroke: #000000"/>
     <use xlink:href="#m0ffd05481c" x="54.746182" y="70.029887" style="fill: #66c2a5; stroke: #000000"/>
     <use xlink:href="#m0ffd05481c" x="68.098909" y="72.603966" style="fill: #66c2a5; stroke: #000000"/>
     <use xlink:href="#m0ffd05481c" x="81.451636" y="29.288397" style="fill: #66c2a5; stroke: #000000"/>
     <use xlink:href="#m0ffd05481c" x="94.804364" y="29.437052" style="fill: #66c2a5; stroke: #000000"/>
     <use xlink:href="#m0ffd05481c" x="108.157091" y="33.211035" style="fill: #66c2a5; stroke: #000000"/>
     <use xlink:href="#m0ffd05481c" x="121.509818" y="28.289994" style="fill: #66c2a5; stroke: #000000"/>
     <use xlink:href="#m0ffd05481c" x="134.862545" y="21.276488" style="fill: #66c2a5; stroke: #000000"/>
    </g>
   </g>
   <g id="PathCollection_2">
    <g clip-path="url(#p603f2a0e1c)">
     <use xlink:href="#m0ffd05481c" x="41.393455" y="89.591026" style="fill: #66c2a5; stroke: #000000"/>
     <use xlink:href="#m0ffd05481c" x="54.746182" y="75.792329" style="fill: #66c2a5; stroke: #000000"/>
     <use xlink:href="#m0ffd05481c" x="68.098909" y="74.433726" style="fill: #66c2a5; stroke: #000000"/>
     <use xlink:href="#m0ffd05481c" x="81.451636" y="32.609743" style="fill: #66c2a5; stroke: #000000"/>
     <use xlink:href="#m0ffd05481c" x="94.804364" y="32.242291" style="fill: #66c2a5; stroke: #000000"/>
     <use xlink:href="#m0ffd05481c" x="108.157091" y="36.616184" style="fill: #66c2a5; stroke: #000000"/>
     <use xlink:href="#m0ffd05481c" x="121.509818" y="32.425668" style="fill: #66c2a5; stroke: #000000"/>
     <use xlink:href="#m0ffd05481c" x="134.862545" y="24.230006" style="fill: #66c2a5; stroke: #000000"/>
    </g>
   </g>
   <g id="PathCollection_3">
    <g clip-path="url(#p603f2a0e1c)">
     <use xlink:href="#m0ffd05481c" x="41.393455" y="90.722202" style="fill: #66c2a5; stroke: #000000"/>
     <use xlink:href="#m0ffd05481c" x="54.746182" y="74.991773" style="fill: #66c2a5; stroke: #000000"/>
     <use xlink:href="#m0ffd05481c" x="68.098909" y="74.887956" style="fill: #66c2a5; stroke: #000000"/>
     <use xlink:href="#m0ffd05481c" x="81.451636" y="32.041487" style="fill: #66c2a5; stroke: #000000"/>
     <use xlink:href="#m0ffd05481c" x="94.804364" y="32.93151" style="fill: #66c2a5; stroke: #000000"/>
     <use xlink:href="#m0ffd05481c" x="108.157091" y="34.496222" style="fill: #66c2a5; stroke: #000000"/>
     <use xlink:href="#m0ffd05481c" x="121.509818" y="32.322141" style="fill: #66c2a5; stroke: #000000"/>
     <use xlink:href="#m0ffd05481c" x="134.862545" y="26.768964" style="fill: #66c2a5; stroke: #000000"/>
    </g>
   </g>
   <g id="matplotlib.axis_1">
    <g id="xtick_1">
     <g id="line2d_2">
      <defs>
       <path id="mb42b0b62ce" d="M 0 0 
L 0 -3.5 
" style="stroke: #000000; stroke-width: 0.8"/>
      </defs>
      <g>
       <use xlink:href="#mb42b0b62ce" x="41.393455" y="105.336" style="stroke: #000000; stroke-width: 0.8"/>
      </g>
     </g>
     <g id="text_1">
      <!-- 0 -->
      <g transform="translate(38.056892 117.444125) scale(0.12 -0.12)">
       <defs>
        <path id="Helvetica-30" d="M 1731 4475 
Q 2600 4475 2988 3759 
Q 3288 3206 3288 2244 
Q 3288 1331 3016 734 
Q 2622 -122 1728 -122 
Q 922 -122 528 578 
Q 200 1163 200 2147 
Q 200 2909 397 3456 
Q 766 4475 1731 4475 
z
M 1725 391 
Q 2163 391 2422 778 
Q 2681 1166 2681 2222 
Q 2681 2984 2493 3476 
Q 2306 3969 1766 3969 
Q 1269 3969 1039 3501 
Q 809 3034 809 2125 
Q 809 1441 956 1025 
Q 1181 391 1725 391 
z
" transform="scale(0.015625)"/>
       </defs>
       <use xlink:href="#Helvetica-30"/>
      </g>
     </g>
    </g>
    <g id="xtick_2">
     <g id="line2d_3">
      <g>
       <use xlink:href="#mb42b0b62ce" x="54.746182" y="105.336" style="stroke: #000000; stroke-width: 0.8"/>
      </g>
     </g>
     <g id="text_2">
      <!-- 2$^{-6}$ -->
      <g transform="translate(46.406182 117.444125) scale(0.12 -0.12)">
       <defs>
        <path id="Helvetica-32" d="M 200 0 
Q 231 578 439 1006 
Q 647 1434 1250 1784 
L 1850 2131 
Q 2253 2366 2416 2531 
Q 2672 2791 2672 3125 
Q 2672 3516 2437 3745 
Q 2203 3975 1813 3975 
Q 1234 3975 1013 3538 
Q 894 3303 881 2888 
L 309 2888 
Q 319 3472 525 3841 
Q 891 4491 1816 4491 
Q 2584 4491 2939 4075 
Q 3294 3659 3294 3150 
Q 3294 2613 2916 2231 
Q 2697 2009 2131 1694 
L 1703 1456 
Q 1397 1288 1222 1134 
Q 909 863 828 531 
L 3272 531 
L 3272 0 
L 200 0 
z
" transform="scale(0.015625)"/>
        <path id="Helvetica-2212" d="M 3547 1894 
L 3547 1369 
L 288 1369 
L 288 1894 
L 3547 1894 
z
" transform="scale(0.015625)"/>
        <path id="Helvetica-36" d="M 1872 4494 
Q 2622 4494 2917 4105 
Q 3213 3716 3213 3303 
L 2656 3303 
Q 2606 3569 2497 3719 
Q 2294 4000 1881 4000 
Q 1409 4000 1131 3564 
Q 853 3128 822 2316 
Q 1016 2600 1309 2741 
Q 1578 2866 1909 2866 
Q 2472 2866 2890 2506 
Q 3309 2147 3309 1434 
Q 3309 825 2912 354 
Q 2516 -116 1781 -116 
Q 1153 -116 697 361 
Q 241 838 241 1966 
Q 241 2800 444 3381 
Q 834 4494 1872 4494 
z
M 1831 384 
Q 2275 384 2495 682 
Q 2716 981 2716 1388 
Q 2716 1731 2519 2042 
Q 2322 2353 1803 2353 
Q 1441 2353 1167 2112 
Q 894 1872 894 1388 
Q 894 963 1142 673 
Q 1391 384 1831 384 
z
" transform="scale(0.015625)"/>
       </defs>
       <use xlink:href="#Helvetica-32" transform="translate(0 0.239063)"/>
       <use xlink:href="#Helvetica-2212" transform="translate(56.53043 36.846875) scale(0.7)"/>
       <use xlink:href="#Helvetica-36" transform="translate(97.409336 36.846875) scale(0.7)"/>
      </g>
     </g>
    </g>
    <g id="xtick_3">
     <g id="line2d_4">
      <g>
       <use xlink:href="#mb42b0b62ce" x="81.451636" y="105.336" style="stroke: #000000; stroke-width: 0.8"/>
      </g>
     </g>
     <g id="text_3">
      <!-- 2$^{-4}$ -->
      <g transform="translate(73.111636 117.444125) scale(0.12 -0.12)">
       <defs>
        <path id="Helvetica-34" d="M 2116 1584 
L 2116 3613 
L 681 1584 
L 2116 1584 
z
M 2125 0 
L 2125 1094 
L 163 1094 
L 163 1644 
L 2213 4488 
L 2688 4488 
L 2688 1584 
L 3347 1584 
L 3347 1094 
L 2688 1094 
L 2688 0 
L 2125 0 
z
" transform="scale(0.015625)"/>
       </defs>
       <use xlink:href="#Helvetica-32" transform="translate(0 0.304688)"/>
       <use xlink:href="#Helvetica-2212" transform="translate(56.53043 36.9125) scale(0.7)"/>
       <use xlink:href="#Helvetica-34" transform="translate(97.409336 36.9125) scale(0.7)"/>
      </g>
     </g>
    </g>
    <g id="xtick_4">
     <g id="line2d_5">
      <g>
       <use xlink:href="#mb42b0b62ce" x="108.157091" y="105.336" style="stroke: #000000; stroke-width: 0.8"/>
      </g>
     </g>
     <g id="text_4">
      <!-- 2$^{-2}$ -->
      <g transform="translate(99.817091 117.444125) scale(0.12 -0.12)">
       <use xlink:href="#Helvetica-32" transform="translate(0 0.271875)"/>
       <use xlink:href="#Helvetica-2212" transform="translate(56.53043 36.879688) scale(0.7)"/>
       <use xlink:href="#Helvetica-32" transform="translate(97.409336 36.879688) scale(0.7)"/>
      </g>
     </g>
    </g>
    <g id="xtick_5">
     <g id="line2d_6">
      <g>
       <use xlink:href="#mb42b0b62ce" x="134.862545" y="105.336" style="stroke: #000000; stroke-width: 0.8"/>
      </g>
     </g>
     <g id="text_5">
      <!-- 2$^{0}$ -->
      <g transform="translate(128.922545 117.444125) scale(0.12 -0.12)">
       <use xlink:href="#Helvetica-32" transform="translate(0 0.446875)"/>
       <use xlink:href="#Helvetica-30" transform="translate(56.53043 37.054688) scale(0.7)"/>
      </g>
     </g>
    </g>
    <g id="text_6">
     <!-- Kan ($\times$50 $\mu$g/mL) -->
     <g transform="translate(42.888 132.705375) scale(0.12 -0.12)">
      <defs>
       <path id="Helvetica-4b" d="M 488 4591 
L 1094 4591 
L 1094 2353 
L 3331 4591 
L 4191 4591 
L 2281 2741 
L 4244 0 
L 3434 0 
L 1828 2303 
L 1094 1600 
L 1094 0 
L 488 0 
L 488 4591 
z
" transform="scale(0.015625)"/>
       <path id="Helvetica-61" d="M 844 891 
Q 844 647 1022 506 
Q 1200 366 1444 366 
Q 1741 366 2019 503 
Q 2488 731 2488 1250 
L 2488 1703 
Q 2384 1638 2221 1594 
Q 2059 1550 1903 1531 
L 1563 1488 
Q 1256 1447 1103 1359 
Q 844 1213 844 891 
z
M 2206 2028 
Q 2400 2053 2466 2191 
Q 2503 2266 2503 2406 
Q 2503 2694 2298 2823 
Q 2094 2953 1713 2953 
Q 1272 2953 1088 2716 
Q 984 2584 953 2325 
L 428 2325 
Q 444 2944 830 3186 
Q 1216 3428 1725 3428 
Q 2316 3428 2684 3203 
Q 3050 2978 3050 2503 
L 3050 575 
Q 3050 488 3086 434 
Q 3122 381 3238 381 
Q 3275 381 3322 386 
Q 3369 391 3422 400 
L 3422 -16 
Q 3291 -53 3222 -62 
Q 3153 -72 3034 -72 
Q 2744 -72 2613 134 
Q 2544 244 2516 444 
Q 2344 219 2022 53 
Q 1700 -113 1313 -113 
Q 847 -113 551 170 
Q 256 453 256 878 
Q 256 1344 547 1600 
Q 838 1856 1309 1916 
L 2206 2028 
z
M 1741 3428 
L 1741 3428 
z
" transform="scale(0.015625)"/>
       <path id="Helvetica-6e" d="M 413 3347 
L 947 3347 
L 947 2872 
Q 1184 3166 1450 3294 
Q 1716 3422 2041 3422 
Q 2753 3422 3003 2925 
Q 3141 2653 3141 2147 
L 3141 0 
L 2569 0 
L 2569 2109 
Q 2569 2416 2478 2603 
Q 2328 2916 1934 2916 
Q 1734 2916 1606 2875 
Q 1375 2806 1200 2600 
Q 1059 2434 1017 2257 
Q 975 2081 975 1753 
L 975 0 
L 413 0 
L 413 3347 
z
M 1734 3428 
L 1734 3428 
z
" transform="scale(0.015625)"/>
       <path id="Helvetica-20" transform="scale(0.015625)"/>
       <path id="Helvetica-28" d="M 1894 4666 
Q 1403 3713 1256 3263 
Q 1034 2578 1034 1681 
Q 1034 775 1288 25 
Q 1444 -438 1903 -1306 
L 1525 -1306 
Q 1069 -594 959 -397 
Q 850 -200 722 138 
Q 547 600 478 1125 
Q 444 1397 444 1644 
Q 444 2569 734 3291 
Q 919 3750 1503 4666 
L 1894 4666 
z
" transform="scale(0.015625)"/>
       <path id="Helvetica-d7" d="M 363 2822 
L 731 3191 
L 1916 2006 
L 3103 3191 
L 3481 2822 
L 2294 1634 
L 3481 450 
L 3103 72 
L 1916 1256 
L 731 72 
L 363 450 
L 1547 1634 
L 363 2822 
z
" transform="scale(0.015625)"/>
       <path id="Helvetica-35" d="M 791 1141 
Q 847 659 1238 475 
Q 1438 381 1700 381 
Q 2200 381 2440 700 
Q 2681 1019 2681 1406 
Q 2681 1875 2395 2131 
Q 2109 2388 1709 2388 
Q 1419 2388 1211 2275 
Q 1003 2163 856 1963 
L 369 1991 
L 709 4400 
L 3034 4400 
L 3034 3856 
L 1131 3856 
L 941 2613 
Q 1097 2731 1238 2791 
Q 1488 2894 1816 2894 
Q 2431 2894 2859 2497 
Q 3288 2100 3288 1491 
Q 3288 856 2895 371 
Q 2503 -113 1644 -113 
Q 1097 -113 676 195 
Q 256 503 206 1141 
L 791 1141 
z
" transform="scale(0.015625)"/>
       <path id="Helvetica-3bc" d="M 575 3328 
L 1153 3328 
L 1153 1369 
Q 1147 934 1325 691 
Q 1497 434 1953 434 
Q 2419 434 2591 697 
Q 2759 941 2759 1369 
L 2759 3328 
L 3334 3328 
L 3334 806 
Q 3316 434 3547 434 
Q 3634 434 3725 453 
L 3725 0 
Q 3641 -56 3372 -63 
Q 3109 -44 2994 63 
Q 2872 166 2803 384 
Q 2503 -50 1966 -63 
Q 1503 -63 1166 359 
L 1153 359 
L 1153 -1253 
L 575 -1253 
L 575 3328 
z
" transform="scale(0.015625)"/>
       <path id="Helvetica-67" d="M 1594 3406 
Q 1988 3406 2281 3213 
Q 2441 3103 2606 2894 
L 2606 3316 
L 3125 3316 
L 3125 272 
Q 3125 -366 2938 -734 
Q 2588 -1416 1616 -1416 
Q 1075 -1416 706 -1173 
Q 338 -931 294 -416 
L 866 -416 
Q 906 -641 1028 -763 
Q 1219 -950 1628 -950 
Q 2275 -950 2475 -494 
Q 2594 -225 2584 466 
Q 2416 209 2178 84 
Q 1941 -41 1550 -41 
Q 1006 -41 598 345 
Q 191 731 191 1622 
Q 191 2463 602 2934 
Q 1013 3406 1594 3406 
z
M 2606 1688 
Q 2606 2309 2350 2609 
Q 2094 2909 1697 2909 
Q 1103 2909 884 2353 
Q 769 2056 769 1575 
Q 769 1009 998 714 
Q 1228 419 1616 419 
Q 2222 419 2469 966 
Q 2606 1275 2606 1688 
z
M 1659 3428 
L 1659 3428 
z
" transform="scale(0.015625)"/>
       <path id="Helvetica-2f" d="M 1456 4591 
L 1931 4591 
L 475 0 
L 0 0 
L 1456 4591 
z
" transform="scale(0.015625)"/>
       <path id="Helvetica-6d" d="M 413 3347 
L 969 3347 
L 969 2872 
Q 1169 3119 1331 3231 
Q 1609 3422 1963 3422 
Q 2363 3422 2606 3225 
Q 2744 3113 2856 2894 
Q 3044 3163 3297 3292 
Q 3550 3422 3866 3422 
Q 4541 3422 4784 2934 
Q 4916 2672 4916 2228 
L 4916 0 
L 4331 0 
L 4331 2325 
Q 4331 2659 4164 2784 
Q 3997 2909 3756 2909 
Q 3425 2909 3186 2687 
Q 2947 2466 2947 1947 
L 2947 0 
L 2375 0 
L 2375 2184 
Q 2375 2525 2294 2681 
Q 2166 2916 1816 2916 
Q 1497 2916 1236 2669 
Q 975 2422 975 1775 
L 975 0 
L 413 0 
L 413 3347 
z
" transform="scale(0.015625)"/>
       <path id="Helvetica-4c" d="M 488 4591 
L 1109 4591 
L 1109 547 
L 3434 547 
L 3434 0 
L 488 0 
L 488 4591 
z
" transform="scale(0.015625)"/>
       <path id="Helvetica-29" d="M 222 -1306 
Q 719 -338 863 106 
Q 1081 778 1081 1681 
Q 1081 2584 828 3334 
Q 672 3797 213 4666 
L 591 4666 
Q 1072 3897 1173 3717 
Q 1275 3538 1394 3222 
Q 1544 2831 1608 2450 
Q 1672 2069 1672 1716 
Q 1672 791 1378 66 
Q 1194 -400 613 -1306 
L 222 -1306 
z
" transform="scale(0.015625)"/>
      </defs>
      <use xlink:href="#Helvetica-4b" transform="translate(0 0.09375)"/>
      <use xlink:href="#Helvetica-61" transform="translate(66.699219 0.09375)"/>
      <use xlink:href="#Helvetica-6e" transform="translate(122.314453 0.09375)"/>
      <use xlink:href="#Helvetica-20" transform="translate(177.929688 0.09375)"/>
      <use xlink:href="#Helvetica-28" transform="translate(205.712891 0.09375)"/>
      <use xlink:href="#Helvetica-d7" transform="translate(239.013672 0.09375)"/>
      <use xlink:href="#Helvetica-35" transform="translate(297.412109 0.09375)"/>
      <use xlink:href="#Helvetica-30" transform="translate(353.027344 0.09375)"/>
      <use xlink:href="#Helvetica-20" transform="translate(408.642578 0.09375)"/>
      <use xlink:href="#Helvetica-3bc" transform="translate(436.425781 0.09375)"/>
      <use xlink:href="#Helvetica-67" transform="translate(497.509766 0.09375)"/>
      <use xlink:href="#Helvetica-2f" transform="translate(553.125 0.09375)"/>
      <use xlink:href="#Helvetica-6d" transform="translate(580.908203 0.09375)"/>
      <use xlink:href="#Helvetica-4c" transform="translate(664.208984 0.09375)"/>
      <use xlink:href="#Helvetica-29" transform="translate(719.824219 0.09375)"/>
     </g>
    </g>
   </g>
   <g id="matplotlib.axis_2">
    <g id="ytick_1">
     <g id="line2d_7">
      <defs>
       <path id="mc43806601f" d="M 0 0 
L 3.5 0 
" style="stroke: #000000; stroke-width: 0.8"/>
      </defs>
      <g>
       <use xlink:href="#mc43806601f" x="36.72" y="105.336" style="stroke: #000000; stroke-width: 0.8"/>
      </g>
     </g>
     <g id="text_7">
      <!-- 0 -->
      <g transform="translate(26.546875 109.640062) scale(0.12 -0.12)">
       <use xlink:href="#Helvetica-30"/>
      </g>
     </g>
    </g>
    <g id="ytick_2">
     <g id="line2d_8">
      <g>
       <use xlink:href="#mc43806601f" x="36.72" y="65.9376" style="stroke: #000000; stroke-width: 0.8"/>
      </g>
     </g>
     <g id="text_8">
      <!-- 3 -->
      <g transform="translate(26.546875 70.241662) scale(0.12 -0.12)">
       <defs>
        <path id="Helvetica-33" d="M 1663 -122 
Q 869 -122 511 314 
Q 153 750 153 1375 
L 741 1375 
Q 778 941 903 744 
Q 1122 391 1694 391 
Q 2138 391 2406 628 
Q 2675 866 2675 1241 
Q 2675 1703 2392 1887 
Q 2109 2072 1606 2072 
Q 1550 2072 1492 2070 
Q 1434 2069 1375 2066 
L 1375 2563 
Q 1463 2553 1522 2550 
Q 1581 2547 1650 2547 
Q 1966 2547 2169 2647 
Q 2525 2822 2525 3272 
Q 2525 3606 2287 3787 
Q 2050 3969 1734 3969 
Q 1172 3969 956 3594 
Q 838 3388 822 3006 
L 266 3006 
Q 266 3506 466 3856 
Q 809 4481 1675 4481 
Q 2359 4481 2734 4176 
Q 3109 3872 3109 3294 
Q 3109 2881 2888 2625 
Q 2750 2466 2531 2375 
Q 2884 2278 3082 2001 
Q 3281 1725 3281 1325 
Q 3281 684 2859 281 
Q 2438 -122 1663 -122 
z
" transform="scale(0.015625)"/>
       </defs>
       <use xlink:href="#Helvetica-33"/>
      </g>
     </g>
    </g>
    <g id="ytick_3">
     <g id="line2d_9">
      <g>
       <use xlink:href="#mc43806601f" x="36.72" y="26.5392" style="stroke: #000000; stroke-width: 0.8"/>
      </g>
     </g>
     <g id="text_9">
      <!-- 6 -->
      <g transform="translate(26.546875 30.843262) scale(0.12 -0.12)">
       <use xlink:href="#Helvetica-36"/>
      </g>
     </g>
    </g>
    <g id="text_10">
     <!-- $\tau_{1/2}$ (days) -->
     <g transform="translate(19.906875 83.508) rotate(-90) scale(0.12 -0.12)">
      <defs>
       <path id="Helvetica-3c4" d="M 184 3328 
L 3016 3328 
L 3016 2828 
L 1888 2828 
L 1888 775 
Q 1881 428 2125 434 
Q 2291 434 2394 466 
L 2394 -31 
Q 2253 -63 1925 -63 
Q 1728 -63 1606 6 
Q 1484 63 1422 172 
Q 1356 288 1338 434 
Q 1313 575 1313 750 
L 1313 2828 
L 184 2828 
L 184 3328 
z
" transform="scale(0.015625)"/>
       <path id="Helvetica-31" d="M 613 3169 
L 613 3600 
Q 1222 3659 1462 3798 
Q 1703 3938 1822 4456 
L 2266 4456 
L 2266 0 
L 1666 0 
L 1666 3169 
L 613 3169 
z
" transform="scale(0.015625)"/>
       <path id="Helvetica-64" d="M 769 1634 
Q 769 1097 997 734 
Q 1225 372 1728 372 
Q 2119 372 2370 708 
Q 2622 1044 2622 1672 
Q 2622 2306 2362 2611 
Q 2103 2916 1722 2916 
Q 1297 2916 1033 2591 
Q 769 2266 769 1634 
z
M 1616 3406 
Q 2000 3406 2259 3244 
Q 2409 3150 2600 2916 
L 2600 4606 
L 3141 4606 
L 3141 0 
L 2634 0 
L 2634 466 
Q 2438 156 2169 18 
Q 1900 -119 1553 -119 
Q 994 -119 584 351 
Q 175 822 175 1603 
Q 175 2334 548 2870 
Q 922 3406 1616 3406 
z
" transform="scale(0.015625)"/>
       <path id="Helvetica-79" d="M 2503 3347 
L 3125 3347 
Q 3006 3025 2597 1878 
Q 2291 1016 2084 472 
Q 1597 -809 1397 -1090 
Q 1197 -1372 709 -1372 
Q 591 -1372 527 -1362 
Q 463 -1353 369 -1328 
L 369 -816 
Q 516 -856 581 -865 
Q 647 -875 697 -875 
Q 853 -875 926 -823 
Q 1000 -772 1050 -697 
Q 1066 -672 1162 -440 
Q 1259 -209 1303 -97 
L 66 3347 
L 703 3347 
L 1600 622 
L 2503 3347 
z
M 1597 3428 
L 1597 3428 
z
" transform="scale(0.015625)"/>
       <path id="Helvetica-73" d="M 747 1050 
Q 772 769 888 619 
Q 1100 347 1625 347 
Q 1938 347 2175 483 
Q 2413 619 2413 903 
Q 2413 1119 2222 1231 
Q 2100 1300 1741 1391 
L 1294 1503 
Q 866 1609 663 1741 
Q 300 1969 300 2372 
Q 300 2847 642 3140 
Q 984 3434 1563 3434 
Q 2319 3434 2653 2991 
Q 2863 2709 2856 2384 
L 2325 2384 
Q 2309 2575 2191 2731 
Q 1997 2953 1519 2953 
Q 1200 2953 1036 2831 
Q 872 2709 872 2509 
Q 872 2291 1088 2159 
Q 1213 2081 1456 2022 
L 1828 1931 
Q 2434 1784 2641 1647 
Q 2969 1431 2969 969 
Q 2969 522 2630 197 
Q 2291 -128 1597 -128 
Q 850 -128 539 211 
Q 228 550 206 1050 
L 747 1050 
z
M 1578 3428 
L 1578 3428 
z
" transform="scale(0.015625)"/>
      </defs>
      <use xlink:href="#Helvetica-3c4" transform="translate(0 0.09375)"/>
      <use xlink:href="#Helvetica-31" transform="translate(50.915195 -15.595313) scale(0.7)"/>
      <use xlink:href="#Helvetica-2f" transform="translate(89.845859 -15.595313) scale(0.7)"/>
      <use xlink:href="#Helvetica-32" transform="translate(109.294102 -15.595313) scale(0.7)"/>
      <use xlink:href="#Helvetica-20" transform="translate(150.839609 0.09375)"/>
      <use xlink:href="#Helvetica-28" transform="translate(178.622813 0.09375)"/>
      <use xlink:href="#Helvetica-64" transform="translate(211.923594 0.09375)"/>
      <use xlink:href="#Helvetica-61" transform="translate(267.538828 0.09375)"/>
      <use xlink:href="#Helvetica-79" transform="translate(323.154063 0.09375)"/>
      <use xlink:href="#Helvetica-73" transform="translate(373.154063 0.09375)"/>
      <use xlink:href="#Helvetica-29" transform="translate(423.154063 0.09375)"/>
     </g>
    </g>
   </g>
   <g id="LineCollection_1">
    <path d="M 41.393455 88.311425 
L 41.393455 85.760941 
" clip-path="url(#p603f2a0e1c)" style="fill: none; stroke: #000000; stroke-width: 1.5"/>
    <path d="M 54.746182 71.206347 
L 54.746182 68.853427 
" clip-path="url(#p603f2a0e1c)" style="fill: none; stroke: #000000; stroke-width: 1.5"/>
    <path d="M 68.098909 73.13316 
L 68.098909 72.074772 
" clip-path="url(#p603f2a0e1c)" style="fill: none; stroke: #000000; stroke-width: 1.5"/>
    <path d="M 81.451636 29.802288 
L 81.451636 28.774505 
" clip-path="url(#p603f2a0e1c)" style="fill: none; stroke: #000000; stroke-width: 1.5"/>
    <path d="M 94.804364 29.850688 
L 94.804364 29.023416 
" clip-path="url(#p603f2a0e1c)" style="fill: none; stroke: #000000; stroke-width: 1.5"/>
    <path d="M 108.157091 33.535635 
L 108.157091 32.886435 
" clip-path="url(#p603f2a0e1c)" style="fill: none; stroke: #000000; stroke-width: 1.5"/>
    <path d="M 121.509818 28.809949 
L 121.509818 27.770039 
" clip-path="url(#p603f2a0e1c)" style="fill: none; stroke: #000000; stroke-width: 1.5"/>
    <path d="M 134.862545 21.634873 
L 134.862545 20.918103 
" clip-path="url(#p603f2a0e1c)" style="fill: none; stroke: #000000; stroke-width: 1.5"/>
   </g>
   <g id="line2d_10">
    <defs>
     <path id="m4210a442d4" d="M 2 0 
L -2 -0 
" style="stroke: #000000"/>
    </defs>
    <g clip-path="url(#p603f2a0e1c)">
     <use xlink:href="#m4210a442d4" x="41.393455" y="88.311425" style="stroke: #000000"/>
     <use xlink:href="#m4210a442d4" x="54.746182" y="71.206347" style="stroke: #000000"/>
     <use xlink:href="#m4210a442d4" x="68.098909" y="73.13316" style="stroke: #000000"/>
     <use xlink:href="#m4210a442d4" x="81.451636" y="29.802288" style="stroke: #000000"/>
     <use xlink:href="#m4210a442d4" x="94.804364" y="29.850688" style="stroke: #000000"/>
     <use xlink:href="#m4210a442d4" x="108.157091" y="33.535635" style="stroke: #000000"/>
     <use xlink:href="#m4210a442d4" x="121.509818" y="28.809949" style="stroke: #000000"/>
     <use xlink:href="#m4210a442d4" x="134.862545" y="21.634873" style="stroke: #000000"/>
    </g>
   </g>
   <g id="line2d_11">
    <g clip-path="url(#p603f2a0e1c)">
     <use xlink:href="#m4210a442d4" x="41.393455" y="85.760941" style="stroke: #000000"/>
     <use xlink:href="#m4210a442d4" x="54.746182" y="68.853427" style="stroke: #000000"/>
     <use xlink:href="#m4210a442d4" x="68.098909" y="72.074772" style="stroke: #000000"/>
     <use xlink:href="#m4210a442d4" x="81.451636" y="28.774505" style="stroke: #000000"/>
     <use xlink:href="#m4210a442d4" x="94.804364" y="29.023416" style="stroke: #000000"/>
     <use xlink:href="#m4210a442d4" x="108.157091" y="32.886435" style="stroke: #000000"/>
     <use xlink:href="#m4210a442d4" x="121.509818" y="27.770039" style="stroke: #000000"/>
     <use xlink:href="#m4210a442d4" x="134.862545" y="20.918103" style="stroke: #000000"/>
    </g>
   </g>
   <g id="LineCollection_2">
    <path d="M 41.393455 91.099541 
L 41.393455 88.082511 
" clip-path="url(#p603f2a0e1c)" style="fill: none; stroke: #000000; stroke-width: 1.5"/>
    <path d="M 54.746182 76.589245 
L 54.746182 74.995412 
" clip-path="url(#p603f2a0e1c)" style="fill: none; stroke: #000000; stroke-width: 1.5"/>
    <path d="M 68.098909 74.959368 
L 68.098909 73.908083 
" clip-path="url(#p603f2a0e1c)" style="fill: none; stroke: #000000; stroke-width: 1.5"/>
    <path d="M 81.451636 32.955798 
L 81.451636 32.263688 
" clip-path="url(#p603f2a0e1c)" style="fill: none; stroke: #000000; stroke-width: 1.5"/>
    <path d="M 94.804364 32.527344 
L 94.804364 31.957239 
" clip-path="url(#p603f2a0e1c)" style="fill: none; stroke: #000000; stroke-width: 1.5"/>
    <path d="M 108.157091 36.843882 
L 108.157091 36.388486 
" clip-path="url(#p603f2a0e1c)" style="fill: none; stroke: #000000; stroke-width: 1.5"/>
    <path d="M 121.509818 32.728077 
L 121.509818 32.12326 
" clip-path="url(#p603f2a0e1c)" style="fill: none; stroke: #000000; stroke-width: 1.5"/>
    <path d="M 134.862545 24.604117 
L 134.862545 23.855895 
" clip-path="url(#p603f2a0e1c)" style="fill: none; stroke: #000000; stroke-width: 1.5"/>
   </g>
   <g id="line2d_12">
    <g clip-path="url(#p603f2a0e1c)">
     <use xlink:href="#m4210a442d4" x="41.393455" y="91.099541" style="stroke: #000000"/>
     <use xlink:href="#m4210a442d4" x="54.746182" y="76.589245" style="stroke: #000000"/>
     <use xlink:href="#m4210a442d4" x="68.098909" y="74.959368" style="stroke: #000000"/>
     <use xlink:href="#m4210a442d4" x="81.451636" y="32.955798" style="stroke: #000000"/>
     <use xlink:href="#m4210a442d4" x="94.804364" y="32.527344" style="stroke: #000000"/>
     <use xlink:href="#m4210a442d4" x="108.157091" y="36.843882" style="stroke: #000000"/>
     <use xlink:href="#m4210a442d4" x="121.509818" y="32.728077" style="stroke: #000000"/>
     <use xlink:href="#m4210a442d4" x="134.862545" y="24.604117" style="stroke: #000000"/>
    </g>
   </g>
   <g id="line2d_13">
    <g clip-path="url(#p603f2a0e1c)">
     <use xlink:href="#m4210a442d4" x="41.393455" y="88.082511" style="stroke: #000000"/>
     <use xlink:href="#m4210a442d4" x="54.746182" y="74.995412" style="stroke: #000000"/>
     <use xlink:href="#m4210a442d4" x="68.098909" y="73.908083" style="stroke: #000000"/>
     <use xlink:href="#m4210a442d4" x="81.451636" y="32.263688" style="stroke: #000000"/>
     <use xlink:href="#m4210a442d4" x="94.804364" y="31.957239" style="stroke: #000000"/>
     <use xlink:href="#m4210a442d4" x="108.157091" y="36.388486" style="stroke: #000000"/>
     <use xlink:href="#m4210a442d4" x="121.509818" y="32.12326" style="stroke: #000000"/>
     <use xlink:href="#m4210a442d4" x="134.862545" y="23.855895" style="stroke: #000000"/>
    </g>
   </g>
   <g id="LineCollection_3">
    <path d="M 41.393455 92.154588 
L 41.393455 89.289817 
" clip-path="url(#p603f2a0e1c)" style="fill: none; stroke: #000000; stroke-width: 1.5"/>
    <path d="M 54.746182 75.936933 
L 54.746182 74.046613 
" clip-path="url(#p603f2a0e1c)" style="fill: none; stroke: #000000; stroke-width: 1.5"/>
    <path d="M 68.098909 75.430277 
L 68.098909 74.345635 
" clip-path="url(#p603f2a0e1c)" style="fill: none; stroke: #000000; stroke-width: 1.5"/>
    <path d="M 81.451636 32.459851 
L 81.451636 31.623124 
" clip-path="url(#p603f2a0e1c)" style="fill: none; stroke: #000000; stroke-width: 1.5"/>
    <path d="M 94.804364 33.348909 
L 94.804364 32.51411 
" clip-path="url(#p603f2a0e1c)" style="fill: none; stroke: #000000; stroke-width: 1.5"/>
    <path d="M 108.157091 34.984389 
L 108.157091 34.008055 
" clip-path="url(#p603f2a0e1c)" style="fill: none; stroke: #000000; stroke-width: 1.5"/>
    <path d="M 121.509818 32.64751 
L 121.509818 31.996773 
" clip-path="url(#p603f2a0e1c)" style="fill: none; stroke: #000000; stroke-width: 1.5"/>
    <path d="M 134.862545 27.142137 
L 134.862545 26.395791 
" clip-path="url(#p603f2a0e1c)" style="fill: none; stroke: #000000; stroke-width: 1.5"/>
   </g>
   <g id="line2d_14">
    <g clip-path="url(#p603f2a0e1c)">
     <use xlink:href="#m4210a442d4" x="41.393455" y="92.154588" style="stroke: #000000"/>
     <use xlink:href="#m4210a442d4" x="54.746182" y="75.936933" style="stroke: #000000"/>
     <use xlink:href="#m4210a442d4" x="68.098909" y="75.430277" style="stroke: #000000"/>
     <use xlink:href="#m4210a442d4" x="81.451636" y="32.459851" style="stroke: #000000"/>
     <use xlink:href="#m4210a442d4" x="94.804364" y="33.348909" style="stroke: #000000"/>
     <use xlink:href="#m4210a442d4" x="108.157091" y="34.984389" style="stroke: #000000"/>
     <use xlink:href="#m4210a442d4" x="121.509818" y="32.64751" style="stroke: #000000"/>
     <use xlink:href="#m4210a442d4" x="134.862545" y="27.142137" style="stroke: #000000"/>
    </g>
   </g>
   <g id="line2d_15">
    <g clip-path="url(#p603f2a0e1c)">
     <use xlink:href="#m4210a442d4" x="41.393455" y="89.289817" style="stroke: #000000"/>
     <use xlink:href="#m4210a442d4" x="54.746182" y="74.046613" style="stroke: #000000"/>
     <use xlink:href="#m4210a442d4" x="68.098909" y="74.345635" style="stroke: #000000"/>
     <use xlink:href="#m4210a442d4" x="81.451636" y="31.623124" style="stroke: #000000"/>
     <use xlink:href="#m4210a442d4" x="94.804364" y="32.51411" style="stroke: #000000"/>
     <use xlink:href="#m4210a442d4" x="108.157091" y="34.008055" style="stroke: #000000"/>
     <use xlink:href="#m4210a442d4" x="121.509818" y="31.996773" style="stroke: #000000"/>
     <use xlink:href="#m4210a442d4" x="134.862545" y="26.395791" style="stroke: #000000"/>
    </g>
   </g>
   <g id="line2d_16">
    <path d="M 41.393455 87.036183 
L 54.746182 70.029887 
L 68.098909 72.603966 
L 81.451636 29.288397 
L 94.804364 29.437052 
L 108.157091 33.211035 
L 121.509818 28.289994 
L 134.862545 21.276488 
" clip-path="url(#p603f2a0e1c)" style="fill: none"/>
   </g>
   <g id="line2d_17">
    <path d="M 41.393455 89.591026 
L 54.746182 75.792329 
L 68.098909 74.433726 
L 81.451636 32.609743 
L 94.804364 32.242291 
L 108.157091 36.616184 
L 121.509818 32.425668 
L 134.862545 24.230006 
" clip-path="url(#p603f2a0e1c)" style="fill: none"/>
   </g>
   <g id="line2d_18">
    <path d="M 41.393455 90.722202 
L 54.746182 74.991773 
L 68.098909 74.887956 
L 81.451636 32.041487 
L 94.804364 32.93151 
L 108.157091 34.496222 
L 121.509818 32.322141 
L 134.862545 26.768964 
" clip-path="url(#p603f2a0e1c)" style="fill: none"/>
   </g>
   <g id="patch_3">
    <path d="M 36.72 105.336 
L 36.72 6.84 
" style="fill: none; stroke: #000000; stroke-width: 0.8; stroke-linejoin: miter; stroke-linecap: square"/>
   </g>
   <g id="patch_4">
    <path d="M 36.72 105.336 
L 139.536 105.336 
" style="fill: none; stroke: #000000; stroke-width: 0.8; stroke-linejoin: miter; stroke-linecap: square"/>
   </g>
  </g>
 </g>
 <defs>
  <clipPath id="p603f2a0e1c">
   <rect x="36.72" y="6.84" width="102.816" height="98.496"/>
  </clipPath>
 </defs>
</svg>
