<?xml version="1.0" encoding="utf-8" standalone="no"?>
<!DOCTYPE svg PUBLIC "-//W3C//DTD SVG 1.1//EN"
  "http://www.w3.org/Graphics/SVG/1.1/DTD/svg11.dtd">
<svg xmlns:xlink="http://www.w3.org/1999/xlink" width="576pt" height="237.6pt" viewBox="0 0 576 237.6" xmlns="http://www.w3.org/2000/svg" version="1.1">
 <metadata>
  <rdf:RDF xmlns:dc="http://purl.org/dc/elements/1.1/" xmlns:cc="http://creativecommons.org/ns#" xmlns:rdf="http://www.w3.org/1999/02/22-rdf-syntax-ns#">
   <cc:Work>
    <dc:type rdf:resource="http://purl.org/dc/dcmitype/StillImage"/>
    <dc:date>2025-08-24T17:24:42.741675</dc:date>
    <dc:format>image/svg+xml</dc:format>
    <dc:creator>
     <cc:Agent>
      <dc:title>Matplotlib v3.7.5, https://matplotlib.org/</dc:title>
     </cc:Agent>
    </dc:creator>
   </cc:Work>
  </rdf:RDF>
 </metadata>
 <defs>
  <style type="text/css">*{stroke-linejoin: round; stroke-linecap: butt}</style>
 </defs>
 <g id="figure_1">
  <g id="patch_1">
   <path d="M 0 237.6 
L 576 237.6 
L 576 0 
L 0 0 
z
" style="fill: #ffffff"/>
  </g>
  <g id="axes_1">
   <g id="patch_2">
    <path d="M 57.99 195.54 
L 189.144581 195.54 
L 189.144581 56.47875 
L 57.99 56.47875 
z
" style="fill: #ffffff"/>
   </g>
   <g id="PathCollection_1">
    <defs>
     <path id="C0_0_160b065784" d="M 0 3.535534 
C 0.937635 3.535534 1.836992 3.163008 2.5 2.5 
C 3.163008 1.836992 3.535534 0.937635 3.535534 -0 
C 3.535534 -0.937635 3.163008 -1.836992 2.5 -2.5 
C 1.836992 -3.163008 0.937635 -3.535534 0 -3.535534 
C -0.937635 -3.535534 -1.836992 -3.163008 -2.5 -2.5 
C -3.163008 -1.836992 -3.535534 -0.937635 -3.535534 0 
C -3.535534 0.937635 -3.163008 1.836992 -2.5 2.5 
C -1.836992 3.163008 -0.937635 3.535534 0 3.535534 
z
"/>
    </defs>
    <g clip-path="url(#p406dfd75f2)">
     <use xlink:href="#C0_0_160b065784" x="183.183009" y="69.230432" style="fill: none; stroke: #4682b4; stroke-width: 1.5"/>
    </g>
    <g clip-path="url(#p406dfd75f2)">
     <use xlink:href="#C0_0_160b065784" x="159.336722" y="92.543428" style="fill: none; stroke: #4682b4; stroke-width: 1.5"/>
    </g>
    <g clip-path="url(#p406dfd75f2)">
     <use xlink:href="#C0_0_160b065784" x="123.567291" y="125.628564" style="fill: none; stroke: #4682b4; stroke-width: 1.5"/>
    </g>
    <g clip-path="url(#p406dfd75f2)">
     <use xlink:href="#C0_0_160b065784" x="87.797859" y="159.944892" style="fill: none; stroke: #4682b4; stroke-width: 1.5"/>
    </g>
    <g clip-path="url(#p406dfd75f2)">
     <use xlink:href="#C0_0_160b065784" x="63.951572" y="182.699559" style="fill: none; stroke: #4682b4; stroke-width: 1.5"/>
    </g>
   </g>
   <g id="PolyCollection_1">
    <defs>
     <path id="mb7c955d4d6" d="M 57.99 -50.314251 
L 57.99 -48.380966 
L 58.428644 -48.801763 
L 58.867288 -49.222551 
L 59.305932 -49.643329 
L 59.744576 -50.064097 
L 60.18322 -50.484856 
L 60.621865 -50.905605 
L 61.060509 -51.326344 
L 61.499153 -51.747072 
L 61.937797 -52.16779 
L 62.376441 -52.588498 
L 62.815085 -53.009195 
L 63.253729 -53.429881 
L 63.692373 -53.850557 
L 64.131017 -54.271221 
L 64.569661 -54.691874 
L 65.008305 -55.112515 
L 65.446949 -55.533145 
L 65.885594 -55.953763 
L 66.324238 -56.37437 
L 66.762882 -56.794964 
L 67.201526 -57.215546 
L 67.64017 -57.636115 
L 68.078814 -58.056672 
L 68.517458 -58.477215 
L 68.956102 -58.897746 
L 69.394746 -59.318264 
L 69.83339 -59.738768 
L 70.272034 -60.159259 
L 70.710678 -60.579735 
L 71.149323 -61.000198 
L 71.587967 -61.420647 
L 72.026611 -61.841081 
L 72.465255 -62.2615 
L 72.903899 -62.681905 
L 73.342543 -63.102294 
L 73.781187 -63.522669 
L 74.219831 -63.943027 
L 74.658475 -64.36337 
L 75.097119 -64.783697 
L 75.535763 -65.204008 
L 75.974407 -65.624302 
L 76.413052 -66.044579 
L 76.851696 -66.46484 
L 77.29034 -66.885083 
L 77.728984 -67.305308 
L 78.167628 -67.725516 
L 78.606272 -68.145706 
L 79.044916 -68.565878 
L 79.48356 -68.986031 
L 79.922204 -69.406165 
L 80.360848 -69.82628 
L 80.799492 -70.246375 
L 81.238136 -70.666451 
L 81.676781 -71.086507 
L 82.115425 -71.506542 
L 82.554069 -71.926557 
L 82.992713 -72.34655 
L 83.431357 -72.766523 
L 83.870001 -73.186474 
L 84.308645 -73.606403 
L 84.747289 -74.02631 
L 85.185933 -74.446194 
L 85.624577 -74.866055 
L 86.063221 -75.285893 
L 86.501865 -75.705708 
L 86.94051 -76.125498 
L 87.379154 -76.545264 
L 87.817798 -76.965006 
L 88.256442 -77.384722 
L 88.695086 -77.804414 
L 89.13373 -78.224079 
L 89.572374 -78.643718 
L 90.011018 -79.063331 
L 90.449662 -79.482917 
L 90.888306 -79.902475 
L 91.32695 -80.322006 
L 91.765594 -80.741508 
L 92.204239 -81.160983 
L 92.642883 -81.580428 
L 93.081527 -81.999844 
L 93.520171 -82.41923 
L 93.958815 -82.838586 
L 94.397459 -83.257912 
L 94.836103 -83.677206 
L 95.274747 -84.096469 
L 95.713391 -84.5157 
L 96.152035 -84.934899 
L 96.590679 -85.354065 
L 97.029323 -85.773198 
L 97.467968 -86.192298 
L 97.906612 -86.611363 
L 98.345256 -87.030394 
L 98.7839 -87.449389 
L 99.222544 -87.86835 
L 99.661188 -88.287274 
L 100.099832 -88.706163 
L 100.538476 -89.125014 
L 100.97712 -89.543828 
L 101.415764 -89.962605 
L 101.854408 -90.381343 
L 102.293052 -90.800043 
L 102.731697 -91.218703 
L 103.170341 -91.637324 
L 103.608985 -92.055905 
L 104.047629 -92.474446 
L 104.486273 -92.892946 
L 104.924917 -93.311404 
L 105.363561 -93.72982 
L 105.802205 -94.148195 
L 106.240849 -94.566526 
L 106.679493 -94.984815 
L 107.118137 -95.40306 
L 107.556781 -95.82126 
L 107.995426 -96.239417 
L 108.43407 -96.657528 
L 108.872714 -97.075595 
L 109.311358 -97.493615 
L 109.750002 -97.911589 
L 110.188646 -98.329517 
L 110.62729 -98.747398 
L 111.065934 -99.165232 
L 111.504578 -99.583018 
L 111.943222 -100.000756 
L 112.381866 -100.418446 
L 112.82051 -100.836086 
L 113.259155 -101.253678 
L 113.697799 -101.67122 
L 114.136443 -102.088713 
L 114.575087 -102.506155 
L 115.013731 -102.923547 
L 115.452375 -103.340888 
L 115.891019 -103.758179 
L 116.329663 -104.175418 
L 116.768307 -104.592606 
L 117.206951 -105.009742 
L 117.645595 -105.426826 
L 118.08424 -105.843858 
L 118.522884 -106.260837 
L 118.961528 -106.677764 
L 119.400172 -107.094639 
L 119.838816 -107.51146 
L 120.27746 -107.928229 
L 120.716104 -108.344944 
L 121.154748 -108.761606 
L 121.593392 -109.178215 
L 122.032036 -109.59477 
L 122.47068 -110.011272 
L 122.909324 -110.42772 
L 123.347969 -110.844115 
L 123.786613 -111.260457 
L 124.225257 -111.676744 
L 124.663901 -112.092978 
L 125.102545 -112.509159 
L 125.541189 -112.925286 
L 125.979833 -113.34136 
L 126.418477 -113.75738 
L 126.857121 -114.173347 
L 127.295765 -114.589261 
L 127.734409 -115.005122 
L 128.173053 -115.42093 
L 128.611698 -115.836686 
L 129.050342 -116.252389 
L 129.488986 -116.668039 
L 129.92763 -117.083638 
L 130.366274 -117.499184 
L 130.804918 -117.914679 
L 131.243562 -118.330122 
L 131.682206 -118.745515 
L 132.12085 -119.160856 
L 132.559494 -119.576146 
L 132.998138 -119.991386 
L 133.436782 -120.406576 
L 133.875427 -120.821717 
L 134.314071 -121.236807 
L 134.752715 -121.651849 
L 135.191359 -122.066842 
L 135.630003 -122.481787 
L 136.068647 -122.896683 
L 136.507291 -123.311532 
L 136.945935 -123.726333 
L 137.384579 -124.141088 
L 137.823223 -124.555796 
L 138.261867 -124.970458 
L 138.700511 -125.385074 
L 139.139156 -125.799645 
L 139.5778 -126.214172 
L 140.016444 -126.628653 
L 140.455088 -127.043091 
L 140.893732 -127.457485 
L 141.332376 -127.871836 
L 141.77102 -128.286144 
L 142.209664 -128.70041 
L 142.648308 -129.114634 
L 143.086952 -129.528817 
L 143.525596 -129.942959 
L 143.96424 -130.35706 
L 144.402885 -130.771122 
L 144.841529 -131.185144 
L 145.280173 -131.599126 
L 145.718817 -132.013071 
L 146.157461 -132.426977 
L 146.596105 -132.840845 
L 147.034749 -133.254676 
L 147.473393 -133.66847 
L 147.912037 -134.082228 
L 148.350681 -134.495951 
L 148.789325 -134.909637 
L 149.227969 -135.323289 
L 149.666614 -135.736906 
L 150.105258 -136.150489 
L 150.543902 -136.564039 
L 150.982546 -136.977555 
L 151.42119 -137.391039 
L 151.859834 -137.80449 
L 152.298478 -138.21791 
L 152.737122 -138.631298 
L 153.175766 -139.044655 
L 153.61441 -139.457981 
L 154.053054 -139.871277 
L 154.491698 -140.284544 
L 154.930343 -140.697781 
L 155.368987 -141.110989 
L 155.807631 -141.524169 
L 156.246275 -141.937321 
L 156.684919 -142.350445 
L 157.123563 -142.763542 
L 157.562207 -143.176612 
L 158.000851 -143.589655 
L 158.439495 -144.002672 
L 158.878139 -144.415663 
L 159.316783 -144.828629 
L 159.755427 -145.24157 
L 160.194072 -145.654487 
L 160.632716 -146.067379 
L 161.07136 -146.480247 
L 161.510004 -146.893091 
L 161.948648 -147.305912 
L 162.387292 -147.718711 
L 162.825936 -148.131486 
L 163.26458 -148.54424 
L 163.703224 -148.956971 
L 164.141868 -149.369681 
L 164.580512 -149.78237 
L 165.019156 -150.195038 
L 165.457801 -150.607685 
L 165.896445 -151.020312 
L 166.335089 -151.432918 
L 166.773733 -151.845505 
L 167.212377 -152.258073 
L 167.651021 -152.670622 
L 168.089665 -153.083151 
L 168.528309 -153.495662 
L 168.966953 -153.908155 
L 169.405597 -154.320629 
L 169.844241 -154.733086 
L 170.282885 -155.145526 
L 170.72153 -155.557948 
L 171.160174 -155.970353 
L 171.598818 -156.382741 
L 172.037462 -156.795113 
L 172.476106 -157.207469 
L 172.91475 -157.619808 
L 173.353394 -158.032132 
L 173.792038 -158.44444 
L 174.230682 -158.856733 
L 174.669326 -159.269011 
L 175.10797 -159.681274 
L 175.546615 -160.093523 
L 175.985259 -160.505756 
L 176.423903 -160.917976 
L 176.862547 -161.330182 
L 177.301191 -161.742374 
L 177.739835 -162.154552 
L 178.178479 -162.566717 
L 178.617123 -162.978869 
L 179.055767 -163.391007 
L 179.494411 -163.803133 
L 179.933055 -164.215246 
L 180.371699 -164.627347 
L 180.810344 -165.039435 
L 181.248988 -165.451512 
L 181.687632 -165.863576 
L 182.126276 -166.275629 
L 182.56492 -166.68767 
L 183.003564 -167.099699 
L 183.442208 -167.511718 
L 183.880852 -167.923725 
L 184.319496 -168.335721 
L 184.75814 -168.747706 
L 185.196784 -169.159681 
L 185.635428 -169.571645 
L 186.074073 -169.983599 
L 186.512717 -170.395543 
L 186.951361 -170.807477 
L 187.390005 -171.219401 
L 187.828649 -171.631315 
L 188.267293 -172.043219 
L 188.705937 -172.455114 
L 189.144581 -172.866999 
L 189.144581 -174.800284 
L 189.144581 -174.800284 
L 188.705937 -174.379487 
L 188.267293 -173.958699 
L 187.828649 -173.537921 
L 187.390005 -173.117153 
L 186.951361 -172.696394 
L 186.512717 -172.275645 
L 186.074073 -171.854906 
L 185.635428 -171.434178 
L 185.196784 -171.01346 
L 184.75814 -170.592752 
L 184.319496 -170.172055 
L 183.880852 -169.751369 
L 183.442208 -169.330693 
L 183.003564 -168.910029 
L 182.56492 -168.489376 
L 182.126276 -168.068735 
L 181.687632 -167.648105 
L 181.248988 -167.227487 
L 180.810344 -166.80688 
L 180.371699 -166.386286 
L 179.933055 -165.965704 
L 179.494411 -165.545135 
L 179.055767 -165.124578 
L 178.617123 -164.704035 
L 178.178479 -164.283504 
L 177.739835 -163.862986 
L 177.301191 -163.442482 
L 176.862547 -163.021991 
L 176.423903 -162.601515 
L 175.985259 -162.181052 
L 175.546615 -161.760603 
L 175.10797 -161.340169 
L 174.669326 -160.91975 
L 174.230682 -160.499345 
L 173.792038 -160.078956 
L 173.353394 -159.658581 
L 172.91475 -159.238223 
L 172.476106 -158.81788 
L 172.037462 -158.397553 
L 171.598818 -157.977242 
L 171.160174 -157.556948 
L 170.72153 -157.136671 
L 170.282885 -156.71641 
L 169.844241 -156.296167 
L 169.405597 -155.875942 
L 168.966953 -155.455734 
L 168.528309 -155.035544 
L 168.089665 -154.615372 
L 167.651021 -154.195219 
L 167.212377 -153.775085 
L 166.773733 -153.35497 
L 166.335089 -152.934875 
L 165.896445 -152.514799 
L 165.457801 -152.094743 
L 165.019156 -151.674708 
L 164.580512 -151.254693 
L 164.141868 -150.8347 
L 163.703224 -150.414727 
L 163.26458 -149.994776 
L 162.825936 -149.574847 
L 162.387292 -149.15494 
L 161.948648 -148.735056 
L 161.510004 -148.315195 
L 161.07136 -147.895357 
L 160.632716 -147.475542 
L 160.194072 -147.055752 
L 159.755427 -146.635986 
L 159.316783 -146.216244 
L 158.878139 -145.796528 
L 158.439495 -145.376836 
L 158.000851 -144.957171 
L 157.562207 -144.537532 
L 157.123563 -144.117919 
L 156.684919 -143.698333 
L 156.246275 -143.278775 
L 155.807631 -142.859244 
L 155.368987 -142.439742 
L 154.930343 -142.020267 
L 154.491698 -141.600822 
L 154.053054 -141.181406 
L 153.61441 -140.76202 
L 153.175766 -140.342664 
L 152.737122 -139.923338 
L 152.298478 -139.504044 
L 151.859834 -139.084781 
L 151.42119 -138.66555 
L 150.982546 -138.246351 
L 150.543902 -137.827185 
L 150.105258 -137.408052 
L 149.666614 -136.988952 
L 149.227969 -136.569887 
L 148.789325 -136.150856 
L 148.350681 -135.731861 
L 147.912037 -135.3129 
L 147.473393 -134.893976 
L 147.034749 -134.475087 
L 146.596105 -134.056236 
L 146.157461 -133.637422 
L 145.718817 -133.218645 
L 145.280173 -132.799907 
L 144.841529 -132.381207 
L 144.402885 -131.962547 
L 143.96424 -131.543926 
L 143.525596 -131.125345 
L 143.086952 -130.706804 
L 142.648308 -130.288304 
L 142.209664 -129.869846 
L 141.77102 -129.45143 
L 141.332376 -129.033055 
L 140.893732 -128.614724 
L 140.455088 -128.196435 
L 140.016444 -127.77819 
L 139.5778 -127.35999 
L 139.139156 -126.941833 
L 138.700511 -126.523722 
L 138.261867 -126.105655 
L 137.823223 -125.687635 
L 137.384579 -125.269661 
L 136.945935 -124.851733 
L 136.507291 -124.433852 
L 136.068647 -124.016018 
L 135.630003 -123.598232 
L 135.191359 -123.180494 
L 134.752715 -122.762804 
L 134.314071 -122.345164 
L 133.875427 -121.927572 
L 133.436782 -121.51003 
L 132.998138 -121.092537 
L 132.559494 -120.675095 
L 132.12085 -120.257703 
L 131.682206 -119.840362 
L 131.243562 -119.423071 
L 130.804918 -119.005832 
L 130.366274 -118.588644 
L 129.92763 -118.171508 
L 129.488986 -117.754424 
L 129.050342 -117.337392 
L 128.611698 -116.920413 
L 128.173053 -116.503486 
L 127.734409 -116.086611 
L 127.295765 -115.66979 
L 126.857121 -115.253021 
L 126.418477 -114.836306 
L 125.979833 -114.419644 
L 125.541189 -114.003035 
L 125.102545 -113.58648 
L 124.663901 -113.169978 
L 124.225257 -112.75353 
L 123.786613 -112.337135 
L 123.347969 -111.920793 
L 122.909324 -111.504506 
L 122.47068 -111.088272 
L 122.032036 -110.672091 
L 121.593392 -110.255964 
L 121.154748 -109.83989 
L 120.716104 -109.42387 
L 120.27746 -109.007903 
L 119.838816 -108.591989 
L 119.400172 -108.176128 
L 118.961528 -107.76032 
L 118.522884 -107.344564 
L 118.08424 -106.928861 
L 117.645595 -106.513211 
L 117.206951 -106.097612 
L 116.768307 -105.682066 
L 116.329663 -105.266571 
L 115.891019 -104.851128 
L 115.452375 -104.435735 
L 115.013731 -104.020394 
L 114.575087 -103.605104 
L 114.136443 -103.189864 
L 113.697799 -102.774674 
L 113.259155 -102.359533 
L 112.82051 -101.944443 
L 112.381866 -101.529401 
L 111.943222 -101.114408 
L 111.504578 -100.699463 
L 111.065934 -100.284567 
L 110.62729 -99.869718 
L 110.188646 -99.454917 
L 109.750002 -99.040162 
L 109.311358 -98.625454 
L 108.872714 -98.210792 
L 108.43407 -97.796176 
L 107.995426 -97.381605 
L 107.556781 -96.967078 
L 107.118137 -96.552597 
L 106.679493 -96.138159 
L 106.240849 -95.723765 
L 105.802205 -95.309414 
L 105.363561 -94.895106 
L 104.924917 -94.48084 
L 104.486273 -94.066616 
L 104.047629 -93.652433 
L 103.608985 -93.238291 
L 103.170341 -92.82419 
L 102.731697 -92.410128 
L 102.293052 -91.996106 
L 101.854408 -91.582124 
L 101.415764 -91.168179 
L 100.97712 -90.754273 
L 100.538476 -90.340405 
L 100.099832 -89.926574 
L 99.661188 -89.51278 
L 99.222544 -89.099022 
L 98.7839 -88.685299 
L 98.345256 -88.271613 
L 97.906612 -87.857961 
L 97.467968 -87.444344 
L 97.029323 -87.030761 
L 96.590679 -86.617211 
L 96.152035 -86.203695 
L 95.713391 -85.790211 
L 95.274747 -85.37676 
L 94.836103 -84.96334 
L 94.397459 -84.549952 
L 93.958815 -84.136595 
L 93.520171 -83.723269 
L 93.081527 -83.309973 
L 92.642883 -82.896706 
L 92.204239 -82.483469 
L 91.765594 -82.070261 
L 91.32695 -81.657081 
L 90.888306 -81.243929 
L 90.449662 -80.830805 
L 90.011018 -80.417708 
L 89.572374 -80.004638 
L 89.13373 -79.591595 
L 88.695086 -79.178578 
L 88.256442 -78.765587 
L 87.817798 -78.352621 
L 87.379154 -77.93968 
L 86.94051 -77.526763 
L 86.501865 -77.113871 
L 86.063221 -76.701003 
L 85.624577 -76.288159 
L 85.185933 -75.875338 
L 84.747289 -75.462539 
L 84.308645 -75.049764 
L 83.870001 -74.63701 
L 83.431357 -74.224279 
L 82.992713 -73.811569 
L 82.554069 -73.39888 
L 82.115425 -72.986212 
L 81.676781 -72.573565 
L 81.238136 -72.160938 
L 80.799492 -71.748332 
L 80.360848 -71.335745 
L 79.922204 -70.923177 
L 79.48356 -70.510628 
L 79.044916 -70.098099 
L 78.606272 -69.685588 
L 78.167628 -69.273095 
L 77.728984 -68.860621 
L 77.29034 -68.448164 
L 76.851696 -68.035724 
L 76.413052 -67.623302 
L 75.974407 -67.210897 
L 75.535763 -66.798509 
L 75.097119 -66.386137 
L 74.658475 -65.973781 
L 74.219831 -65.561442 
L 73.781187 -65.149118 
L 73.342543 -64.73681 
L 72.903899 -64.324517 
L 72.465255 -63.912239 
L 72.026611 -63.499976 
L 71.587967 -63.087727 
L 71.149323 -62.675494 
L 70.710678 -62.263274 
L 70.272034 -61.851068 
L 69.83339 -61.438876 
L 69.394746 -61.026698 
L 68.956102 -60.614533 
L 68.517458 -60.202381 
L 68.078814 -59.790243 
L 67.64017 -59.378117 
L 67.201526 -58.966004 
L 66.762882 -58.553903 
L 66.324238 -58.141815 
L 65.885594 -57.729738 
L 65.446949 -57.317674 
L 65.008305 -56.905621 
L 64.569661 -56.49358 
L 64.131017 -56.081551 
L 63.692373 -55.669532 
L 63.253729 -55.257525 
L 62.815085 -54.845529 
L 62.376441 -54.433544 
L 61.937797 -54.021569 
L 61.499153 -53.609605 
L 61.060509 -53.197651 
L 60.621865 -52.785707 
L 60.18322 -52.373773 
L 59.744576 -51.961849 
L 59.305932 -51.549935 
L 58.867288 -51.138031 
L 58.428644 -50.726136 
L 57.99 -50.314251 
z
"/>
    </defs>
    <g clip-path="url(#p406dfd75f2)">
     <use xlink:href="#mb7c955d4d6" x="0" y="237.6" style="fill: #4682b4; fill-opacity: 0.5"/>
    </g>
   </g>
   <g id="matplotlib.axis_1">
    <g id="xtick_1">
     <g id="line2d_1">
      <defs>
       <path id="m744e18d488" d="M 0 0 
L 0 -3.5 
" style="stroke: #000000; stroke-width: 0.8"/>
      </defs>
      <g>
       <use xlink:href="#m744e18d488" x="63.951572" y="195.54" style="stroke: #000000; stroke-width: 0.8"/>
      </g>
     </g>
     <g id="text_1">
      <!-- 0 -->
      <g transform="translate(60.615009 207.648125) scale(0.12 -0.12)">
       <defs>
        <path id="Helvetica-30" d="M 1731 4475 
Q 2600 4475 2988 3759 
Q 3288 3206 3288 2244 
Q 3288 1331 3016 734 
Q 2622 -122 1728 -122 
Q 922 -122 528 578 
Q 200 1163 200 2147 
Q 200 2909 397 3456 
Q 766 4475 1731 4475 
z
M 1725 391 
Q 2163 391 2422 778 
Q 2681 1166 2681 2222 
Q 2681 2984 2493 3476 
Q 2306 3969 1766 3969 
Q 1269 3969 1039 3501 
Q 809 3034 809 2125 
Q 809 1441 956 1025 
Q 1181 391 1725 391 
z
" transform="scale(0.015625)"/>
       </defs>
       <use xlink:href="#Helvetica-30"/>
      </g>
     </g>
    </g>
    <g id="xtick_2">
     <g id="line2d_2">
      <g>
       <use xlink:href="#m744e18d488" x="123.567291" y="195.54" style="stroke: #000000; stroke-width: 0.8"/>
      </g>
     </g>
     <g id="text_2">
      <!-- 50 -->
      <g transform="translate(116.894166 207.648125) scale(0.12 -0.12)">
       <defs>
        <path id="Helvetica-35" d="M 791 1141 
Q 847 659 1238 475 
Q 1438 381 1700 381 
Q 2200 381 2440 700 
Q 2681 1019 2681 1406 
Q 2681 1875 2395 2131 
Q 2109 2388 1709 2388 
Q 1419 2388 1211 2275 
Q 1003 2163 856 1963 
L 369 1991 
L 709 4400 
L 3034 4400 
L 3034 3856 
L 1131 3856 
L 941 2613 
Q 1097 2731 1238 2791 
Q 1488 2894 1816 2894 
Q 2431 2894 2859 2497 
Q 3288 2100 3288 1491 
Q 3288 856 2895 371 
Q 2503 -113 1644 -113 
Q 1097 -113 676 195 
Q 256 503 206 1141 
L 791 1141 
z
" transform="scale(0.015625)"/>
       </defs>
       <use xlink:href="#Helvetica-35"/>
       <use xlink:href="#Helvetica-30" x="55.615234"/>
      </g>
     </g>
    </g>
    <g id="xtick_3">
     <g id="line2d_3">
      <g>
       <use xlink:href="#m744e18d488" x="183.183009" y="195.54" style="stroke: #000000; stroke-width: 0.8"/>
      </g>
     </g>
     <g id="text_3">
      <!-- 100 -->
      <g transform="translate(173.173322 207.648125) scale(0.12 -0.12)">
       <defs>
        <path id="Helvetica-31" d="M 613 3169 
L 613 3600 
Q 1222 3659 1462 3798 
Q 1703 3938 1822 4456 
L 2266 4456 
L 2266 0 
L 1666 0 
L 1666 3169 
L 613 3169 
z
" transform="scale(0.015625)"/>
       </defs>
       <use xlink:href="#Helvetica-31"/>
       <use xlink:href="#Helvetica-30" x="55.615234"/>
       <use xlink:href="#Helvetica-30" x="111.230469"/>
      </g>
     </g>
    </g>
    <g id="text_4">
     <!-- P% -->
     <g transform="translate(114.229791 222.7575) scale(0.12 -0.12)">
      <defs>
       <path id="Helvetica-50" d="M 547 4591 
L 2613 4591 
Q 3225 4591 3600 4245 
Q 3975 3900 3975 3275 
Q 3975 2738 3640 2339 
Q 3306 1941 2613 1941 
L 1169 1941 
L 1169 0 
L 547 0 
L 547 4591 
z
M 3347 3272 
Q 3347 3778 2972 3959 
Q 2766 4056 2406 4056 
L 1169 4056 
L 1169 2466 
L 2406 2466 
Q 2825 2466 3086 2644 
Q 3347 2822 3347 3272 
z
" transform="scale(0.015625)"/>
       <path id="Helvetica-25" d="M 4363 2175 
Q 4813 2175 5131 1856 
Q 5450 1538 5450 1088 
Q 5450 638 5131 319 
Q 4813 0 4363 0 
Q 3909 0 3590 319 
Q 3272 638 3272 1088 
Q 3272 1538 3590 1856 
Q 3909 2175 4363 2175 
z
M 3909 4456 
L 4256 4456 
L 1753 -119 
L 1406 -119 
L 3909 4456 
z
M 1294 2606 
Q 1563 2606 1752 2795 
Q 1941 2984 1941 3250 
Q 1941 3516 1752 3705 
Q 1563 3894 1294 3894 
Q 1028 3894 839 3706 
Q 650 3519 650 3250 
Q 650 2984 839 2795 
Q 1028 2606 1294 2606 
z
M 1294 4341 
Q 1747 4341 2065 4020 
Q 2384 3700 2384 3250 
Q 2384 2800 2065 2481 
Q 1747 2163 1294 2163 
Q 844 2163 525 2481 
Q 206 2800 206 3250 
Q 206 3700 525 4020 
Q 844 4341 1294 4341 
z
M 4363 444 
Q 4628 444 4817 633 
Q 5006 822 5006 1088 
Q 5006 1353 4817 1542 
Q 4628 1731 4363 1731 
Q 4094 1731 3905 1542 
Q 3716 1353 3716 1088 
Q 3716 822 3905 633 
Q 4094 444 4363 444 
z
" transform="scale(0.015625)"/>
      </defs>
      <use xlink:href="#Helvetica-50"/>
      <use xlink:href="#Helvetica-25" x="66.699219"/>
     </g>
    </g>
   </g>
   <g id="matplotlib.axis_2">
    <g id="ytick_1">
     <g id="line2d_4">
      <defs>
       <path id="mffd813feac" d="M 0 0 
L 3.5 0 
" style="stroke: #000000; stroke-width: 0.8"/>
      </defs>
      <g>
       <use xlink:href="#mffd813feac" x="57.99" y="189.225489" style="stroke: #000000; stroke-width: 0.8"/>
      </g>
     </g>
     <g id="text_5">
      <!-- 0 -->
      <g transform="translate(47.816875 193.529551) scale(0.12 -0.12)">
       <use xlink:href="#Helvetica-30"/>
      </g>
     </g>
    </g>
    <g id="ytick_2">
     <g id="line2d_5">
      <g>
       <use xlink:href="#mffd813feac" x="57.99" y="145.445821" style="stroke: #000000; stroke-width: 0.8"/>
      </g>
     </g>
     <g id="text_6">
      <!-- 1000 -->
      <g transform="translate(27.7975 149.749883) scale(0.12 -0.12)">
       <use xlink:href="#Helvetica-31"/>
       <use xlink:href="#Helvetica-30" x="55.615234"/>
       <use xlink:href="#Helvetica-30" x="111.230469"/>
       <use xlink:href="#Helvetica-30" x="166.845703"/>
      </g>
     </g>
    </g>
    <g id="ytick_3">
     <g id="line2d_6">
      <g>
       <use xlink:href="#mffd813feac" x="57.99" y="101.666152" style="stroke: #000000; stroke-width: 0.8"/>
      </g>
     </g>
     <g id="text_7">
      <!-- 2000 -->
      <g transform="translate(27.7975 105.970215) scale(0.12 -0.12)">
       <defs>
        <path id="Helvetica-32" d="M 200 0 
Q 231 578 439 1006 
Q 647 1434 1250 1784 
L 1850 2131 
Q 2253 2366 2416 2531 
Q 2672 2791 2672 3125 
Q 2672 3516 2437 3745 
Q 2203 3975 1813 3975 
Q 1234 3975 1013 3538 
Q 894 3303 881 2888 
L 309 2888 
Q 319 3472 525 3841 
Q 891 4491 1816 4491 
Q 2584 4491 2939 4075 
Q 3294 3659 3294 3150 
Q 3294 2613 2916 2231 
Q 2697 2009 2131 1694 
L 1703 1456 
Q 1397 1288 1222 1134 
Q 909 863 828 531 
L 3272 531 
L 3272 0 
L 200 0 
z
" transform="scale(0.015625)"/>
       </defs>
       <use xlink:href="#Helvetica-32"/>
       <use xlink:href="#Helvetica-30" x="55.615234"/>
       <use xlink:href="#Helvetica-30" x="111.230469"/>
       <use xlink:href="#Helvetica-30" x="166.845703"/>
      </g>
     </g>
    </g>
    <g id="ytick_4">
     <g id="line2d_7">
      <g>
       <use xlink:href="#mffd813feac" x="57.99" y="57.886484" style="stroke: #000000; stroke-width: 0.8"/>
      </g>
     </g>
     <g id="text_8">
      <!-- 3000 -->
      <g transform="translate(27.7975 62.190547) scale(0.12 -0.12)">
       <defs>
        <path id="Helvetica-33" d="M 1663 -122 
Q 869 -122 511 314 
Q 153 750 153 1375 
L 741 1375 
Q 778 941 903 744 
Q 1122 391 1694 391 
Q 2138 391 2406 628 
Q 2675 866 2675 1241 
Q 2675 1703 2392 1887 
Q 2109 2072 1606 2072 
Q 1550 2072 1492 2070 
Q 1434 2069 1375 2066 
L 1375 2563 
Q 1463 2553 1522 2550 
Q 1581 2547 1650 2547 
Q 1966 2547 2169 2647 
Q 2525 2822 2525 3272 
Q 2525 3606 2287 3787 
Q 2050 3969 1734 3969 
Q 1172 3969 956 3594 
Q 838 3388 822 3006 
L 266 3006 
Q 266 3506 466 3856 
Q 809 4481 1675 4481 
Q 2359 4481 2734 4176 
Q 3109 3872 3109 3294 
Q 3109 2881 2888 2625 
Q 2750 2466 2531 2375 
Q 2884 2278 3082 2001 
Q 3281 1725 3281 1325 
Q 3281 684 2859 281 
Q 2438 -122 1663 -122 
z
" transform="scale(0.015625)"/>
       </defs>
       <use xlink:href="#Helvetica-33"/>
       <use xlink:href="#Helvetica-30" x="55.615234"/>
       <use xlink:href="#Helvetica-30" x="111.230469"/>
       <use xlink:href="#Helvetica-30" x="166.845703"/>
      </g>
     </g>
    </g>
    <g id="text_9">
     <!-- GFP/OD -->
     <g transform="translate(21.29625 149.01) rotate(-90) scale(0.12 -0.12)">
      <defs>
       <path id="Helvetica-47" d="M 2472 4709 
Q 3119 4709 3591 4459 
Q 4275 4100 4428 3200 
L 3813 3200 
Q 3700 3703 3347 3933 
Q 2994 4163 2456 4163 
Q 1819 4163 1383 3684 
Q 947 3206 947 2259 
Q 947 1441 1306 927 
Q 1666 413 2478 413 
Q 3100 413 3508 773 
Q 3916 1134 3925 1941 
L 2488 1941 
L 2488 2456 
L 4503 2456 
L 4503 0 
L 4103 0 
L 3953 591 
Q 3638 244 3394 109 
Q 2984 -122 2353 -122 
Q 1538 -122 950 406 
Q 309 1069 309 2225 
Q 309 3378 934 4059 
Q 1528 4709 2472 4709 
z
M 2369 4716 
L 2369 4716 
z
" transform="scale(0.015625)"/>
       <path id="Helvetica-46" d="M 547 4591 
L 3731 4591 
L 3731 4028 
L 1169 4028 
L 1169 2634 
L 3422 2634 
L 3422 2088 
L 1169 2088 
L 1169 0 
L 547 0 
L 547 4591 
z
" transform="scale(0.015625)"/>
       <path id="Helvetica-2f" d="M 1456 4591 
L 1931 4591 
L 475 0 
L 0 0 
L 1456 4591 
z
" transform="scale(0.015625)"/>
       <path id="Helvetica-4f" d="M 2469 4716 
Q 3684 4716 4269 3934 
Q 4725 3325 4725 2375 
Q 4725 1347 4203 666 
Q 3591 -134 2456 -134 
Q 1397 -134 791 566 
Q 250 1241 250 2272 
Q 250 3203 713 3866 
Q 1306 4716 2469 4716 
z
M 2531 422 
Q 3353 422 3720 1011 
Q 4088 1600 4088 2366 
Q 4088 3175 3664 3669 
Q 3241 4163 2506 4163 
Q 1794 4163 1344 3673 
Q 894 3184 894 2231 
Q 894 1469 1280 945 
Q 1666 422 2531 422 
z
M 2488 4716 
L 2488 4716 
z
" transform="scale(0.015625)"/>
       <path id="Helvetica-44" d="M 2250 531 
Q 2566 531 2769 597 
Q 3131 719 3363 1066 
Q 3547 1344 3628 1778 
Q 3675 2038 3675 2259 
Q 3675 3113 3336 3584 
Q 2997 4056 2244 4056 
L 1141 4056 
L 1141 531 
L 2250 531 
z
M 516 4591 
L 2375 4591 
Q 3322 4591 3844 3919 
Q 4309 3313 4309 2366 
Q 4309 1634 4034 1044 
Q 3550 0 2369 0 
L 516 0 
L 516 4591 
z
" transform="scale(0.015625)"/>
      </defs>
      <use xlink:href="#Helvetica-47"/>
      <use xlink:href="#Helvetica-46" x="77.783203"/>
      <use xlink:href="#Helvetica-50" x="138.867188"/>
      <use xlink:href="#Helvetica-2f" x="205.566406"/>
      <use xlink:href="#Helvetica-4f" x="233.349609"/>
      <use xlink:href="#Helvetica-44" x="311.132812"/>
     </g>
    </g>
   </g>
   <g id="line2d_8">
    <path d="M 57.99 188.252392 
L 189.144581 63.766358 
L 189.144581 63.766358 
" clip-path="url(#p406dfd75f2)" style="fill: none; stroke: #000000; stroke-linecap: square"/>
   </g>
   <g id="patch_3">
    <path d="M 57.99 195.54 
L 57.99 56.47875 
" style="fill: none; stroke: #000000; stroke-width: 0.8; stroke-linejoin: miter; stroke-linecap: square"/>
   </g>
   <g id="patch_4">
    <path d="M 189.144581 195.54 
L 189.144581 56.47875 
" style="fill: none; stroke: #000000; stroke-width: 0.8; stroke-linejoin: miter; stroke-linecap: square"/>
   </g>
   <g id="patch_5">
    <path d="M 57.99 195.54 
L 189.144581 195.54 
" style="fill: none; stroke: #000000; stroke-width: 0.8; stroke-linejoin: miter; stroke-linecap: square"/>
   </g>
   <g id="patch_6">
    <path d="M 57.99 56.47875 
L 189.144581 56.47875 
" style="fill: none; stroke: #000000; stroke-width: 0.8; stroke-linejoin: miter; stroke-linecap: square"/>
   </g>
   <g id="text_10">
    <!--  -->
    <g transform="translate(71.105458 61.338975) scale(0.12 -0.12)"/>
    <!-- y = 26 x + 151 -->
    <g transform="translate(71.105458 74.169975) scale(0.12 -0.12)">
     <defs>
      <path id="Helvetica-79" d="M 2503 3347 
L 3125 3347 
Q 3006 3025 2597 1878 
Q 2291 1016 2084 472 
Q 1597 -809 1397 -1090 
Q 1197 -1372 709 -1372 
Q 591 -1372 527 -1362 
Q 463 -1353 369 -1328 
L 369 -816 
Q 516 -856 581 -865 
Q 647 -875 697 -875 
Q 853 -875 926 -823 
Q 1000 -772 1050 -697 
Q 1066 -672 1162 -440 
Q 1259 -209 1303 -97 
L 66 3347 
L 703 3347 
L 1600 622 
L 2503 3347 
z
M 1597 3428 
L 1597 3428 
z
" transform="scale(0.015625)"/>
      <path id="Helvetica-20" transform="scale(0.015625)"/>
      <path id="Helvetica-3d" d="M 3547 2569 
L 3547 2044 
L 288 2044 
L 288 2569 
L 3547 2569 
z
M 3547 1228 
L 3547 694 
L 288 694 
L 288 1228 
L 3547 1228 
z
" transform="scale(0.015625)"/>
      <path id="Helvetica-36" d="M 1872 4494 
Q 2622 4494 2917 4105 
Q 3213 3716 3213 3303 
L 2656 3303 
Q 2606 3569 2497 3719 
Q 2294 4000 1881 4000 
Q 1409 4000 1131 3564 
Q 853 3128 822 2316 
Q 1016 2600 1309 2741 
Q 1578 2866 1909 2866 
Q 2472 2866 2890 2506 
Q 3309 2147 3309 1434 
Q 3309 825 2912 354 
Q 2516 -116 1781 -116 
Q 1153 -116 697 361 
Q 241 838 241 1966 
Q 241 2800 444 3381 
Q 834 4494 1872 4494 
z
M 1831 384 
Q 2275 384 2495 682 
Q 2716 981 2716 1388 
Q 2716 1731 2519 2042 
Q 2322 2353 1803 2353 
Q 1441 2353 1167 2112 
Q 894 1872 894 1388 
Q 894 963 1142 673 
Q 1391 384 1831 384 
z
" transform="scale(0.015625)"/>
      <path id="Helvetica-78" d="M 94 3347 
L 822 3347 
L 1591 2169 
L 2369 3347 
L 3053 3331 
L 1925 1716 
L 3103 0 
L 2384 0 
L 1553 1256 
L 747 0 
L 34 0 
L 1213 1716 
L 94 3347 
z
" transform="scale(0.015625)"/>
      <path id="Helvetica-2b" d="M 288 1369 
L 288 1894 
L 1650 1894 
L 1650 3266 
L 2184 3266 
L 2184 1894 
L 3547 1894 
L 3547 1369 
L 2184 1369 
L 2184 0 
L 1650 0 
L 1650 1369 
L 288 1369 
z
" transform="scale(0.015625)"/>
     </defs>
     <use xlink:href="#Helvetica-79"/>
     <use xlink:href="#Helvetica-20" x="50"/>
     <use xlink:href="#Helvetica-3d" x="77.783203"/>
     <use xlink:href="#Helvetica-20" x="136.181641"/>
     <use xlink:href="#Helvetica-32" x="163.964844"/>
     <use xlink:href="#Helvetica-36" x="219.580078"/>
     <use xlink:href="#Helvetica-20" x="275.195312"/>
     <use xlink:href="#Helvetica-78" x="302.978516"/>
     <use xlink:href="#Helvetica-20" x="352.978516"/>
     <use xlink:href="#Helvetica-2b" x="380.761719"/>
     <use xlink:href="#Helvetica-20" x="439.160156"/>
     <use xlink:href="#Helvetica-31" x="466.943359"/>
     <use xlink:href="#Helvetica-35" x="522.558594"/>
     <use xlink:href="#Helvetica-31" x="578.173828"/>
    </g>
    <!-- R$^2$ = 1.000 -->
    <g transform="translate(71.105458 87.072225) scale(0.12 -0.12)">
     <defs>
      <path id="Helvetica-52" d="M 2622 2488 
Q 3059 2488 3314 2663 
Q 3569 2838 3569 3294 
Q 3569 3784 3213 3963 
Q 3022 4056 2703 4056 
L 1184 4056 
L 1184 2488 
L 2622 2488 
z
M 563 4591 
L 2688 4591 
Q 3213 4591 3553 4438 
Q 4200 4144 4200 3353 
Q 4200 2941 4029 2678 
Q 3859 2416 3553 2256 
Q 3822 2147 3958 1969 
Q 4094 1791 4109 1391 
L 4131 775 
Q 4141 513 4175 384 
Q 4231 166 4375 103 
L 4375 0 
L 3613 0 
Q 3581 59 3562 153 
Q 3544 247 3531 516 
L 3494 1281 
Q 3472 1731 3159 1884 
Q 2981 1969 2600 1969 
L 1184 1969 
L 1184 0 
L 563 0 
L 563 4591 
z
" transform="scale(0.015625)"/>
      <path id="Helvetica-2e" d="M 547 681 
L 1200 681 
L 1200 0 
L 547 0 
L 547 681 
z
" transform="scale(0.015625)"/>
     </defs>
     <use xlink:href="#Helvetica-52" transform="translate(0 0.271875)"/>
     <use xlink:href="#Helvetica-32" transform="translate(73.131992 36.879688) scale(0.7)"/>
     <use xlink:href="#Helvetica-20" transform="translate(114.6775 0.271875)"/>
     <use xlink:href="#Helvetica-3d" transform="translate(142.460703 0.271875)"/>
     <use xlink:href="#Helvetica-20" transform="translate(200.859141 0.271875)"/>
     <use xlink:href="#Helvetica-31" transform="translate(228.642344 0.271875)"/>
     <use xlink:href="#Helvetica-2e" transform="translate(284.257578 0.271875)"/>
     <use xlink:href="#Helvetica-30" transform="translate(312.040781 0.271875)"/>
     <use xlink:href="#Helvetica-30" transform="translate(367.656016 0.271875)"/>
     <use xlink:href="#Helvetica-30" transform="translate(423.27125 0.271875)"/>
    </g>
   </g>
   <g id="text_11">
    <!-- pSC101 -->
    <g transform="translate(97.549416 50.47875) scale(0.144 -0.144)">
     <defs>
      <path id="Helvetica-70" d="M 1825 378 
Q 2219 378 2480 708 
Q 2741 1038 2741 1694 
Q 2741 2094 2625 2381 
Q 2406 2934 1825 2934 
Q 1241 2934 1025 2350 
Q 909 2038 909 1556 
Q 909 1169 1025 897 
Q 1244 378 1825 378 
z
M 369 3331 
L 916 3331 
L 916 2888 
Q 1084 3116 1284 3241 
Q 1569 3428 1953 3428 
Q 2522 3428 2919 2992 
Q 3316 2556 3316 1747 
Q 3316 653 2744 184 
Q 2381 -113 1900 -113 
Q 1522 -113 1266 53 
Q 1116 147 931 375 
L 931 -1334 
L 369 -1334 
L 369 3331 
z
" transform="scale(0.015625)"/>
      <path id="Helvetica-53" d="M 894 1481 
Q 916 1091 1078 847 
Q 1388 391 2169 391 
Q 2519 391 2806 491 
Q 3363 684 3363 1184 
Q 3363 1559 3128 1719 
Q 2891 1875 2384 1991 
L 1763 2131 
Q 1153 2269 900 2434 
Q 463 2722 463 3294 
Q 463 3913 891 4309 
Q 1319 4706 2103 4706 
Q 2825 4706 3329 4357 
Q 3834 4009 3834 3244 
L 3250 3244 
Q 3203 3613 3050 3809 
Q 2766 4169 2084 4169 
Q 1534 4169 1293 3937 
Q 1053 3706 1053 3400 
Q 1053 3063 1334 2906 
Q 1519 2806 2169 2656 
L 2813 2509 
Q 3278 2403 3531 2219 
Q 3969 1897 3969 1284 
Q 3969 522 3414 194 
Q 2859 -134 2125 -134 
Q 1269 -134 784 303 
Q 300 738 309 1481 
L 894 1481 
z
M 2150 4716 
L 2150 4716 
z
" transform="scale(0.015625)"/>
      <path id="Helvetica-43" d="M 2422 4716 
Q 3294 4716 3775 4256 
Q 4256 3797 4309 3213 
L 3703 3213 
Q 3600 3656 3292 3915 
Q 2984 4175 2428 4175 
Q 1750 4175 1333 3698 
Q 916 3222 916 2238 
Q 916 1431 1292 929 
Q 1669 428 2416 428 
Q 3103 428 3463 956 
Q 3653 1234 3747 1688 
L 4353 1688 
Q 4272 963 3816 472 
Q 3269 -119 2341 -119 
Q 1541 -119 997 366 
Q 281 1006 281 2344 
Q 281 3359 819 4009 
Q 1400 4716 2422 4716 
z
M 2297 4716 
L 2297 4716 
z
" transform="scale(0.015625)"/>
     </defs>
     <use xlink:href="#Helvetica-70"/>
     <use xlink:href="#Helvetica-53" x="55.615234"/>
     <use xlink:href="#Helvetica-43" x="122.314453"/>
     <use xlink:href="#Helvetica-31" x="194.53125"/>
     <use xlink:href="#Helvetica-30" x="250.146484"/>
     <use xlink:href="#Helvetica-31" x="305.761719"/>
    </g>
   </g>
  </g>
  <g id="axes_2">
   <g id="patch_7">
    <path d="M 242.926667 195.54 
L 374.081248 195.54 
L 374.081248 56.47875 
L 242.926667 56.47875 
z
" style="fill: #ffffff"/>
   </g>
   <g id="PathCollection_2">
    <defs>
     <path id="C1_0_5e1d0894a7" d="M 0 3.535534 
C 0.937635 3.535534 1.836992 3.163008 2.5 2.5 
C 3.163008 1.836992 3.535534 0.937635 3.535534 -0 
C 3.535534 -0.937635 3.163008 -1.836992 2.5 -2.5 
C 1.836992 -3.163008 0.937635 -3.535534 0 -3.535534 
C -0.937635 -3.535534 -1.836992 -3.163008 -2.5 -2.5 
C -3.163008 -1.836992 -3.535534 -0.937635 -3.535534 0 
C -3.535534 0.937635 -3.163008 1.836992 -2.5 2.5 
C -1.836992 3.163008 -0.937635 3.535534 0 3.535534 
z
"/>
    </defs>
    <g clip-path="url(#p7689311a1a)">
     <use xlink:href="#C1_0_5e1d0894a7" x="368.119676" y="69.405313" style="fill: none; stroke: #4682b4; stroke-width: 1.5"/>
    </g>
    <g clip-path="url(#p7689311a1a)">
     <use xlink:href="#C1_0_5e1d0894a7" x="344.273388" y="92.520283" style="fill: none; stroke: #4682b4; stroke-width: 1.5"/>
    </g>
    <g clip-path="url(#p7689311a1a)">
     <use xlink:href="#C1_0_5e1d0894a7" x="308.503957" y="125.566501" style="fill: none; stroke: #4682b4; stroke-width: 1.5"/>
    </g>
    <g clip-path="url(#p7689311a1a)">
     <use xlink:href="#C1_0_5e1d0894a7" x="272.734526" y="160.298457" style="fill: none; stroke: #4682b4; stroke-width: 1.5"/>
    </g>
    <g clip-path="url(#p7689311a1a)">
     <use xlink:href="#C1_0_5e1d0894a7" x="248.888239" y="182.25632" style="fill: none; stroke: #4682b4; stroke-width: 1.5"/>
    </g>
   </g>
   <g id="PolyCollection_2">
    <defs>
     <path id="m18c2363da2" d="M 242.926667 -50.631385 
L 242.926667 -48.380966 
L 243.365311 -48.801433 
L 243.803955 -49.22189 
L 244.242599 -49.642335 
L 244.681243 -50.062769 
L 245.119887 -50.483192 
L 245.558531 -50.903603 
L 245.997175 -51.324003 
L 246.435819 -51.74439 
L 246.874463 -52.164766 
L 247.313108 -52.585129 
L 247.751752 -53.00548 
L 248.190396 -53.425818 
L 248.62904 -53.846144 
L 249.067684 -54.266457 
L 249.506328 -54.686756 
L 249.944972 -55.107042 
L 250.383616 -55.527315 
L 250.82226 -55.947574 
L 251.260904 -56.367819 
L 251.699548 -56.78805 
L 252.138192 -57.208267 
L 252.576837 -57.62847 
L 253.015481 -58.048657 
L 253.454125 -58.46883 
L 253.892769 -58.888987 
L 254.331413 -59.309129 
L 254.770057 -59.729256 
L 255.208701 -60.149366 
L 255.647345 -60.569461 
L 256.085989 -60.989539 
L 256.524633 -61.409601 
L 256.963277 -61.829645 
L 257.401921 -62.249673 
L 257.840566 -62.669684 
L 258.27921 -63.089677 
L 258.717854 -63.509652 
L 259.156498 -63.929609 
L 259.595142 -64.349548 
L 260.033786 -64.769468 
L 260.47243 -65.189369 
L 260.911074 -65.609251 
L 261.349718 -66.029113 
L 261.788362 -66.448956 
L 262.227006 -66.868778 
L 262.66565 -67.28858 
L 263.104295 -67.708362 
L 263.542939 -68.128122 
L 263.981583 -68.547862 
L 264.420227 -68.967579 
L 264.858871 -69.387275 
L 265.297515 -69.806948 
L 265.736159 -70.226599 
L 266.174803 -70.646226 
L 266.613447 -71.065831 
L 267.052091 -71.485411 
L 267.490735 -71.904968 
L 267.929379 -72.3245 
L 268.368024 -72.744008 
L 268.806668 -73.16349 
L 269.245312 -73.582947 
L 269.683956 -74.002378 
L 270.1226 -74.421783 
L 270.561244 -74.841161 
L 270.999888 -75.260512 
L 271.438532 -75.679836 
L 271.877176 -76.099131 
L 272.31582 -76.518399 
L 272.754464 -76.937637 
L 273.193108 -77.356847 
L 273.631753 -77.776027 
L 274.070397 -78.195177 
L 274.509041 -78.614296 
L 274.947685 -79.033385 
L 275.386329 -79.452442 
L 275.824973 -79.871468 
L 276.263617 -80.290461 
L 276.702261 -80.709422 
L 277.140905 -81.128349 
L 277.579549 -81.547243 
L 278.018193 -81.966103 
L 278.456837 -82.384928 
L 278.895482 -82.803718 
L 279.334126 -83.222472 
L 279.77277 -83.64119 
L 280.211414 -84.059872 
L 280.650058 -84.478517 
L 281.088702 -84.897124 
L 281.527346 -85.315693 
L 281.96599 -85.734223 
L 282.404634 -86.152714 
L 282.843278 -86.571166 
L 283.281922 -86.989577 
L 283.720566 -87.407947 
L 284.159211 -87.826277 
L 284.597855 -88.244564 
L 285.036499 -88.66281 
L 285.475143 -89.081012 
L 285.913787 -89.499171 
L 286.352431 -89.917287 
L 286.791075 -90.335358 
L 287.229719 -90.753383 
L 287.668363 -91.171364 
L 288.107007 -91.589298 
L 288.545651 -92.007186 
L 288.984295 -92.425027 
L 289.42294 -92.84282 
L 289.861584 -93.260565 
L 290.300228 -93.678261 
L 290.738872 -94.095908 
L 291.177516 -94.513506 
L 291.61616 -94.931053 
L 292.054804 -95.348549 
L 292.493448 -95.765995 
L 292.932092 -96.183388 
L 293.370736 -96.600729 
L 293.80938 -97.018018 
L 294.248024 -97.435253 
L 294.686669 -97.852435 
L 295.125313 -98.269563 
L 295.563957 -98.686635 
L 296.002601 -99.103653 
L 296.441245 -99.520616 
L 296.879889 -99.937522 
L 297.318533 -100.354372 
L 297.757177 -100.771165 
L 298.195821 -101.187902 
L 298.634465 -101.60458 
L 299.073109 -102.021201 
L 299.511753 -102.437763 
L 299.950398 -102.854267 
L 300.389042 -103.270712 
L 300.827686 -103.687097 
L 301.26633 -104.103423 
L 301.704974 -104.519689 
L 302.143618 -104.935895 
L 302.582262 -105.35204 
L 303.020906 -105.768124 
L 303.45955 -106.184148 
L 303.898194 -106.60011 
L 304.336838 -107.016012 
L 304.775483 -107.431851 
L 305.214127 -107.847629 
L 305.652771 -108.263345 
L 306.091415 -108.678999 
L 306.530059 -109.094591 
L 306.968703 -109.510121 
L 307.407347 -109.925589 
L 307.845991 -110.340994 
L 308.284635 -110.756337 
L 308.723279 -111.171618 
L 309.161923 -111.586836 
L 309.600567 -112.001992 
L 310.039212 -112.417085 
L 310.477856 -112.832117 
L 310.9165 -113.247086 
L 311.355144 -113.661993 
L 311.793788 -114.076838 
L 312.232432 -114.491621 
L 312.671076 -114.906343 
L 313.10972 -115.321003 
L 313.548364 -115.735602 
L 313.987008 -116.150139 
L 314.425652 -116.564616 
L 314.864296 -116.979032 
L 315.302941 -117.393387 
L 315.741585 -117.807683 
L 316.180229 -118.221918 
L 316.618873 -118.636094 
L 317.057517 -119.05021 
L 317.496161 -119.464268 
L 317.934805 -119.878267 
L 318.373449 -120.292207 
L 318.812093 -120.70609 
L 319.250737 -121.119915 
L 319.689381 -121.533683 
L 320.128025 -121.947394 
L 320.56667 -122.361049 
L 321.005314 -122.774647 
L 321.443958 -123.188191 
L 321.882602 -123.601679 
L 322.321246 -124.015113 
L 322.75989 -124.428492 
L 323.198534 -124.841818 
L 323.637178 -125.255091 
L 324.075822 -125.668311 
L 324.514466 -126.081478 
L 324.95311 -126.494594 
L 325.391754 -126.907659 
L 325.830399 -127.320673 
L 326.269043 -127.733637 
L 326.707687 -128.146551 
L 327.146331 -128.559416 
L 327.584975 -128.972232 
L 328.023619 -129.385 
L 328.462263 -129.797721 
L 328.900907 -130.210394 
L 329.339551 -130.623021 
L 329.778195 -131.035602 
L 330.216839 -131.448137 
L 330.655483 -131.860627 
L 331.094128 -132.273073 
L 331.532772 -132.685475 
L 331.971416 -133.097834 
L 332.41006 -133.51015 
L 332.848704 -133.922423 
L 333.287348 -134.334655 
L 333.725992 -134.746846 
L 334.164636 -135.158996 
L 334.60328 -135.571105 
L 335.041924 -135.983175 
L 335.480568 -136.395206 
L 335.919212 -136.807199 
L 336.357857 -137.219153 
L 336.796501 -137.631069 
L 337.235145 -138.042949 
L 337.673789 -138.454792 
L 338.112433 -138.866599 
L 338.551077 -139.27837 
L 338.989721 -139.690106 
L 339.428365 -140.101808 
L 339.867009 -140.513475 
L 340.305653 -140.925109 
L 340.744297 -141.336709 
L 341.182941 -141.748277 
L 341.621586 -142.159813 
L 342.06023 -142.571317 
L 342.498874 -142.982789 
L 342.937518 -143.394231 
L 343.376162 -143.805642 
L 343.814806 -144.217023 
L 344.25345 -144.628375 
L 344.692094 -145.039698 
L 345.130738 -145.450991 
L 345.569382 -145.862257 
L 346.008026 -146.273495 
L 346.44667 -146.684705 
L 346.885315 -147.095888 
L 347.323959 -147.507044 
L 347.762603 -147.918174 
L 348.201247 -148.329279 
L 348.639891 -148.740358 
L 349.078535 -149.151411 
L 349.517179 -149.56244 
L 349.955823 -149.973445 
L 350.394467 -150.384425 
L 350.833111 -150.795382 
L 351.271755 -151.206316 
L 351.710399 -151.617226 
L 352.149044 -152.028114 
L 352.587688 -152.43898 
L 353.026332 -152.849823 
L 353.464976 -153.260645 
L 353.90362 -153.671446 
L 354.342264 -154.082226 
L 354.780908 -154.492985 
L 355.219552 -154.903723 
L 355.658196 -155.314442 
L 356.09684 -155.725141 
L 356.535484 -156.13582 
L 356.974128 -156.54648 
L 357.412773 -156.957121 
L 357.851417 -157.367744 
L 358.290061 -157.778348 
L 358.728705 -158.188934 
L 359.167349 -158.599502 
L 359.605993 -159.010053 
L 360.044637 -159.420586 
L 360.483281 -159.831103 
L 360.921925 -160.241602 
L 361.360569 -160.652085 
L 361.799213 -161.062552 
L 362.237858 -161.473002 
L 362.676502 -161.883437 
L 363.115146 -162.293856 
L 363.55379 -162.70426 
L 363.992434 -163.114649 
L 364.431078 -163.525022 
L 364.869722 -163.935381 
L 365.308366 -164.345726 
L 365.74701 -164.756056 
L 366.185654 -165.166372 
L 366.624298 -165.576674 
L 367.062942 -165.986962 
L 367.501587 -166.397237 
L 367.940231 -166.807499 
L 368.378875 -167.217747 
L 368.817519 -167.627983 
L 369.256163 -168.038206 
L 369.694807 -168.448416 
L 370.133451 -168.858614 
L 370.572095 -169.2688 
L 371.010739 -169.678973 
L 371.449383 -170.089135 
L 371.888027 -170.499285 
L 372.326671 -170.909423 
L 372.765316 -171.319551 
L 373.20396 -171.729666 
L 373.642604 -172.139771 
L 374.081248 -172.549865 
L 374.081248 -174.800284 
L 374.081248 -174.800284 
L 373.642604 -174.379817 
L 373.20396 -173.95936 
L 372.765316 -173.538915 
L 372.326671 -173.118481 
L 371.888027 -172.698058 
L 371.449383 -172.277647 
L 371.010739 -171.857247 
L 370.572095 -171.43686 
L 370.133451 -171.016484 
L 369.694807 -170.596121 
L 369.256163 -170.17577 
L 368.817519 -169.755432 
L 368.378875 -169.335106 
L 367.940231 -168.914793 
L 367.501587 -168.494494 
L 367.062942 -168.074208 
L 366.624298 -167.653935 
L 366.185654 -167.233676 
L 365.74701 -166.813431 
L 365.308366 -166.393199 
L 364.869722 -165.972983 
L 364.431078 -165.55278 
L 363.992434 -165.132593 
L 363.55379 -164.71242 
L 363.115146 -164.292263 
L 362.676502 -163.872121 
L 362.237858 -163.451994 
L 361.799213 -163.031884 
L 361.360569 -162.611789 
L 360.921925 -162.191711 
L 360.483281 -161.771649 
L 360.044637 -161.351605 
L 359.605993 -160.931577 
L 359.167349 -160.511566 
L 358.728705 -160.091573 
L 358.290061 -159.671598 
L 357.851417 -159.251641 
L 357.412773 -158.831702 
L 356.974128 -158.411782 
L 356.535484 -157.991881 
L 356.09684 -157.571999 
L 355.658196 -157.152137 
L 355.219552 -156.732294 
L 354.780908 -156.312472 
L 354.342264 -155.89267 
L 353.90362 -155.472888 
L 353.464976 -155.053128 
L 353.026332 -154.633388 
L 352.587688 -154.213671 
L 352.149044 -153.793975 
L 351.710399 -153.374302 
L 351.271755 -152.954651 
L 350.833111 -152.535024 
L 350.394467 -152.115419 
L 349.955823 -151.695839 
L 349.517179 -151.276282 
L 349.078535 -150.85675 
L 348.639891 -150.437242 
L 348.201247 -150.01776 
L 347.762603 -149.598303 
L 347.323959 -149.178872 
L 346.885315 -148.759467 
L 346.44667 -148.340089 
L 346.008026 -147.920738 
L 345.569382 -147.501414 
L 345.130738 -147.082119 
L 344.692094 -146.662851 
L 344.25345 -146.243613 
L 343.814806 -145.824403 
L 343.376162 -145.405223 
L 342.937518 -144.986073 
L 342.498874 -144.566954 
L 342.06023 -144.147865 
L 341.621586 -143.728807 
L 341.182941 -143.309782 
L 340.744297 -142.890789 
L 340.305653 -142.471828 
L 339.867009 -142.052901 
L 339.428365 -141.634007 
L 338.989721 -141.215147 
L 338.551077 -140.796322 
L 338.112433 -140.377532 
L 337.673789 -139.958778 
L 337.235145 -139.540059 
L 336.796501 -139.121378 
L 336.357857 -138.702733 
L 335.919212 -138.284126 
L 335.480568 -137.865557 
L 335.041924 -137.447027 
L 334.60328 -137.028536 
L 334.164636 -136.610084 
L 333.725992 -136.191673 
L 333.287348 -135.773303 
L 332.848704 -135.354973 
L 332.41006 -134.936686 
L 331.971416 -134.51844 
L 331.532772 -134.100238 
L 331.094128 -133.682079 
L 330.655483 -133.263963 
L 330.216839 -132.845892 
L 329.778195 -132.427867 
L 329.339551 -132.009886 
L 328.900907 -131.591952 
L 328.462263 -131.174064 
L 328.023619 -130.756223 
L 327.584975 -130.33843 
L 327.146331 -129.920685 
L 326.707687 -129.502989 
L 326.269043 -129.085342 
L 325.830399 -128.667744 
L 325.391754 -128.250197 
L 324.95311 -127.8327 
L 324.514466 -127.415255 
L 324.075822 -126.997862 
L 323.637178 -126.580521 
L 323.198534 -126.163232 
L 322.75989 -125.745997 
L 322.321246 -125.328815 
L 321.882602 -124.911687 
L 321.443958 -124.494615 
L 321.005314 -124.077597 
L 320.56667 -123.660634 
L 320.128025 -123.243728 
L 319.689381 -122.826878 
L 319.250737 -122.410085 
L 318.812093 -121.993348 
L 318.373449 -121.57667 
L 317.934805 -121.160049 
L 317.496161 -120.743487 
L 317.057517 -120.326983 
L 316.618873 -119.910538 
L 316.180229 -119.494153 
L 315.741585 -119.077827 
L 315.302941 -118.661561 
L 314.864296 -118.245355 
L 314.425652 -117.82921 
L 313.987008 -117.413126 
L 313.548364 -116.997102 
L 313.10972 -116.581139 
L 312.671076 -116.165238 
L 312.232432 -115.749399 
L 311.793788 -115.333621 
L 311.355144 -114.917905 
L 310.9165 -114.502251 
L 310.477856 -114.086659 
L 310.039212 -113.671129 
L 309.600567 -113.255661 
L 309.161923 -112.840256 
L 308.723279 -112.424913 
L 308.284635 -112.009632 
L 307.845991 -111.594414 
L 307.407347 -111.179258 
L 306.968703 -110.764165 
L 306.530059 -110.349133 
L 306.091415 -109.934164 
L 305.652771 -109.519257 
L 305.214127 -109.104412 
L 304.775483 -108.689629 
L 304.336838 -108.274907 
L 303.898194 -107.860247 
L 303.45955 -107.445648 
L 303.020906 -107.031111 
L 302.582262 -106.616634 
L 302.143618 -106.202218 
L 301.704974 -105.787863 
L 301.26633 -105.373567 
L 300.827686 -104.959332 
L 300.389042 -104.545156 
L 299.950398 -104.13104 
L 299.511753 -103.716982 
L 299.073109 -103.302983 
L 298.634465 -102.889043 
L 298.195821 -102.47516 
L 297.757177 -102.061335 
L 297.318533 -101.647567 
L 296.879889 -101.233856 
L 296.441245 -100.820201 
L 296.002601 -100.406603 
L 295.563957 -99.993059 
L 295.125313 -99.579571 
L 294.686669 -99.166137 
L 294.248024 -98.752758 
L 293.80938 -98.339432 
L 293.370736 -97.926159 
L 292.932092 -97.512939 
L 292.493448 -97.099772 
L 292.054804 -96.686656 
L 291.61616 -96.273591 
L 291.177516 -95.860577 
L 290.738872 -95.447613 
L 290.300228 -95.034699 
L 289.861584 -94.621834 
L 289.42294 -94.209018 
L 288.984295 -93.79625 
L 288.545651 -93.383529 
L 288.107007 -92.970856 
L 287.668363 -92.558229 
L 287.229719 -92.145648 
L 286.791075 -91.733113 
L 286.352431 -91.320623 
L 285.913787 -90.908177 
L 285.475143 -90.495775 
L 285.036499 -90.083416 
L 284.597855 -89.6711 
L 284.159211 -89.258827 
L 283.720566 -88.846595 
L 283.281922 -88.434404 
L 282.843278 -88.022254 
L 282.404634 -87.610145 
L 281.96599 -87.198075 
L 281.527346 -86.786044 
L 281.088702 -86.374051 
L 280.650058 -85.962097 
L 280.211414 -85.55018 
L 279.77277 -85.138301 
L 279.334126 -84.726458 
L 278.895482 -84.314651 
L 278.456837 -83.90288 
L 278.018193 -83.491144 
L 277.579549 -83.079442 
L 277.140905 -82.667775 
L 276.702261 -82.256141 
L 276.263617 -81.84454 
L 275.824973 -81.432973 
L 275.386329 -81.021437 
L 274.947685 -80.609933 
L 274.509041 -80.198461 
L 274.070397 -79.787019 
L 273.631753 -79.375608 
L 273.193108 -78.964227 
L 272.754464 -78.552875 
L 272.31582 -78.141552 
L 271.877176 -77.730259 
L 271.438532 -77.318993 
L 270.999888 -76.907755 
L 270.561244 -76.496545 
L 270.1226 -76.085362 
L 269.683956 -75.674206 
L 269.245312 -75.263075 
L 268.806668 -74.851971 
L 268.368024 -74.440892 
L 267.929379 -74.029839 
L 267.490735 -73.61881 
L 267.052091 -73.207805 
L 266.613447 -72.796825 
L 266.174803 -72.385868 
L 265.736159 -71.974934 
L 265.297515 -71.564024 
L 264.858871 -71.153136 
L 264.420227 -70.74227 
L 263.981583 -70.331427 
L 263.542939 -69.920605 
L 263.104295 -69.509804 
L 262.66565 -69.099024 
L 262.227006 -68.688265 
L 261.788362 -68.277527 
L 261.349718 -67.866808 
L 260.911074 -67.456109 
L 260.47243 -67.04543 
L 260.033786 -66.63477 
L 259.595142 -66.224129 
L 259.156498 -65.813506 
L 258.717854 -65.402902 
L 258.27921 -64.992316 
L 257.840566 -64.581748 
L 257.401921 -64.171197 
L 256.963277 -63.760664 
L 256.524633 -63.350147 
L 256.085989 -62.939648 
L 255.647345 -62.529165 
L 255.208701 -62.118698 
L 254.770057 -61.708248 
L 254.331413 -61.297813 
L 253.892769 -60.887394 
L 253.454125 -60.47699 
L 253.015481 -60.066601 
L 252.576837 -59.656228 
L 252.138192 -59.245869 
L 251.699548 -58.835524 
L 251.260904 -58.425194 
L 250.82226 -58.014878 
L 250.383616 -57.604576 
L 249.944972 -57.194288 
L 249.506328 -56.784013 
L 249.067684 -56.373751 
L 248.62904 -55.963502 
L 248.190396 -55.553267 
L 247.751752 -55.143044 
L 247.313108 -54.732834 
L 246.874463 -54.322636 
L 246.435819 -53.91245 
L 245.997175 -53.502277 
L 245.558531 -53.092115 
L 245.119887 -52.681965 
L 244.681243 -52.271826 
L 244.242599 -51.861699 
L 243.803955 -51.451583 
L 243.365311 -51.041479 
L 242.926667 -50.631385 
z
"/>
    </defs>
    <g clip-path="url(#p7689311a1a)">
     <use xlink:href="#m18c2363da2" x="0" y="237.6" style="fill: #4682b4; fill-opacity: 0.5"/>
    </g>
   </g>
   <g id="matplotlib.axis_3">
    <g id="xtick_4">
     <g id="line2d_9">
      <g>
       <use xlink:href="#m744e18d488" x="248.888239" y="195.54" style="stroke: #000000; stroke-width: 0.8"/>
      </g>
     </g>
     <g id="text_12">
      <!-- 0 -->
      <g transform="translate(245.551676 207.648125) scale(0.12 -0.12)">
       <use xlink:href="#Helvetica-30"/>
      </g>
     </g>
    </g>
    <g id="xtick_5">
     <g id="line2d_10">
      <g>
       <use xlink:href="#m744e18d488" x="308.503957" y="195.54" style="stroke: #000000; stroke-width: 0.8"/>
      </g>
     </g>
     <g id="text_13">
      <!-- 50 -->
      <g transform="translate(301.830832 207.648125) scale(0.12 -0.12)">
       <use xlink:href="#Helvetica-35"/>
       <use xlink:href="#Helvetica-30" x="55.615234"/>
      </g>
     </g>
    </g>
    <g id="xtick_6">
     <g id="line2d_11">
      <g>
       <use xlink:href="#m744e18d488" x="368.119676" y="195.54" style="stroke: #000000; stroke-width: 0.8"/>
      </g>
     </g>
     <g id="text_14">
      <!-- 100 -->
      <g transform="translate(358.109988 207.648125) scale(0.12 -0.12)">
       <use xlink:href="#Helvetica-31"/>
       <use xlink:href="#Helvetica-30" x="55.615234"/>
       <use xlink:href="#Helvetica-30" x="111.230469"/>
      </g>
     </g>
    </g>
   </g>
   <g id="matplotlib.axis_4">
    <g id="ytick_5">
     <g id="line2d_12">
      <g>
       <use xlink:href="#mffd813feac" x="242.926667" y="183.20393" style="stroke: #000000; stroke-width: 0.8"/>
      </g>
     </g>
     <g id="text_15">
      <!-- 0 -->
      <g transform="translate(232.753542 187.507992) scale(0.12 -0.12)">
       <use xlink:href="#Helvetica-30"/>
      </g>
     </g>
    </g>
    <g id="ytick_6">
     <g id="line2d_13">
      <g>
       <use xlink:href="#mffd813feac" x="242.926667" y="151.418387" style="stroke: #000000; stroke-width: 0.8"/>
      </g>
     </g>
     <g id="text_16">
      <!-- 5000 -->
      <g transform="translate(212.734167 155.72245) scale(0.12 -0.12)">
       <use xlink:href="#Helvetica-35"/>
       <use xlink:href="#Helvetica-30" x="55.615234"/>
       <use xlink:href="#Helvetica-30" x="111.230469"/>
       <use xlink:href="#Helvetica-30" x="166.845703"/>
      </g>
     </g>
    </g>
    <g id="ytick_7">
     <g id="line2d_14">
      <g>
       <use xlink:href="#mffd813feac" x="242.926667" y="119.632844" style="stroke: #000000; stroke-width: 0.8"/>
      </g>
     </g>
     <g id="text_17">
      <!-- 10000 -->
      <g transform="translate(206.061042 123.936907) scale(0.12 -0.12)">
       <use xlink:href="#Helvetica-31"/>
       <use xlink:href="#Helvetica-30" x="55.615234"/>
       <use xlink:href="#Helvetica-30" x="111.230469"/>
       <use xlink:href="#Helvetica-30" x="166.845703"/>
       <use xlink:href="#Helvetica-30" x="222.460938"/>
      </g>
     </g>
    </g>
    <g id="ytick_8">
     <g id="line2d_15">
      <g>
       <use xlink:href="#mffd813feac" x="242.926667" y="87.847301" style="stroke: #000000; stroke-width: 0.8"/>
      </g>
     </g>
     <g id="text_18">
      <!-- 15000 -->
      <g transform="translate(206.061042 92.151364) scale(0.12 -0.12)">
       <use xlink:href="#Helvetica-31"/>
       <use xlink:href="#Helvetica-35" x="55.615234"/>
       <use xlink:href="#Helvetica-30" x="111.230469"/>
       <use xlink:href="#Helvetica-30" x="166.845703"/>
       <use xlink:href="#Helvetica-30" x="222.460938"/>
      </g>
     </g>
    </g>
   </g>
   <g id="line2d_16">
    <path d="M 242.926667 188.093825 
L 374.081248 63.924925 
L 374.081248 63.924925 
" clip-path="url(#p7689311a1a)" style="fill: none; stroke: #000000; stroke-linecap: square"/>
   </g>
   <g id="patch_8">
    <path d="M 242.926667 195.54 
L 242.926667 56.47875 
" style="fill: none; stroke: #000000; stroke-width: 0.8; stroke-linejoin: miter; stroke-linecap: square"/>
   </g>
   <g id="patch_9">
    <path d="M 374.081248 195.54 
L 374.081248 56.47875 
" style="fill: none; stroke: #000000; stroke-width: 0.8; stroke-linejoin: miter; stroke-linecap: square"/>
   </g>
   <g id="patch_10">
    <path d="M 242.926667 195.54 
L 374.081248 195.54 
" style="fill: none; stroke: #000000; stroke-width: 0.8; stroke-linejoin: miter; stroke-linecap: square"/>
   </g>
   <g id="patch_11">
    <path d="M 242.926667 56.47875 
L 374.081248 56.47875 
" style="fill: none; stroke: #000000; stroke-width: 0.8; stroke-linejoin: miter; stroke-linecap: square"/>
   </g>
   <g id="text_19">
    <!--  -->
    <g transform="translate(256.042125 61.338975) scale(0.12 -0.12)"/>
    <!-- y = 178 x + 119 -->
    <g transform="translate(256.042125 74.169975) scale(0.12 -0.12)">
     <defs>
      <path id="Helvetica-37" d="M 3347 4400 
L 3347 3909 
Q 3131 3700 2773 3181 
Q 2416 2663 2141 2063 
Q 1869 1478 1728 997 
Q 1638 688 1494 0 
L 872 0 
Q 1084 1281 1809 2550 
Q 2238 3294 2709 3834 
L 234 3834 
L 234 4400 
L 3347 4400 
z
" transform="scale(0.015625)"/>
      <path id="Helvetica-38" d="M 1741 2600 
Q 2113 2600 2322 2808 
Q 2531 3016 2531 3303 
Q 2531 3553 2331 3762 
Q 2131 3972 1722 3972 
Q 1316 3972 1134 3762 
Q 953 3553 953 3272 
Q 953 2956 1187 2778 
Q 1422 2600 1741 2600 
z
M 1775 384 
Q 2166 384 2423 595 
Q 2681 806 2681 1225 
Q 2681 1659 2415 1884 
Q 2150 2109 1734 2109 
Q 1331 2109 1076 1879 
Q 822 1650 822 1244 
Q 822 894 1055 639 
Q 1288 384 1775 384 
z
M 975 2384 
Q 741 2484 609 2619 
Q 363 2869 363 3269 
Q 363 3769 725 4128 
Q 1088 4488 1753 4488 
Q 2397 4488 2762 4148 
Q 3128 3809 3128 3356 
Q 3128 2938 2916 2678 
Q 2797 2531 2547 2391 
Q 2825 2263 2984 2097 
Q 3281 1784 3281 1284 
Q 3281 694 2884 283 
Q 2488 -128 1763 -128 
Q 1109 -128 657 226 
Q 206 581 206 1256 
Q 206 1653 400 1942 
Q 594 2231 975 2384 
z
" transform="scale(0.015625)"/>
      <path id="Helvetica-39" d="M 850 1081 
Q 875 616 1209 438 
Q 1381 344 1597 344 
Q 2000 344 2284 680 
Q 2569 1016 2688 2044 
Q 2500 1747 2223 1626 
Q 1947 1506 1628 1506 
Q 981 1506 604 1909 
Q 228 2313 228 2947 
Q 228 3556 600 4018 
Q 972 4481 1697 4481 
Q 2675 4481 3047 3600 
Q 3253 3116 3253 2388 
Q 3253 1566 3006 931 
Q 2597 -125 1619 -125 
Q 963 -125 622 219 
Q 281 563 281 1081 
L 850 1081 
z
M 1703 2000 
Q 2038 2000 2314 2220 
Q 2591 2441 2591 2991 
Q 2591 3484 2342 3726 
Q 2094 3969 1709 3969 
Q 1297 3969 1055 3692 
Q 813 3416 813 2953 
Q 813 2516 1025 2258 
Q 1238 2000 1703 2000 
z
" transform="scale(0.015625)"/>
     </defs>
     <use xlink:href="#Helvetica-79"/>
     <use xlink:href="#Helvetica-20" x="50"/>
     <use xlink:href="#Helvetica-3d" x="77.783203"/>
     <use xlink:href="#Helvetica-20" x="136.181641"/>
     <use xlink:href="#Helvetica-31" x="163.964844"/>
     <use xlink:href="#Helvetica-37" x="219.580078"/>
     <use xlink:href="#Helvetica-38" x="275.195312"/>
     <use xlink:href="#Helvetica-20" x="330.810547"/>
     <use xlink:href="#Helvetica-78" x="358.59375"/>
     <use xlink:href="#Helvetica-20" x="408.59375"/>
     <use xlink:href="#Helvetica-2b" x="436.376953"/>
     <use xlink:href="#Helvetica-20" x="494.775391"/>
     <use xlink:href="#Helvetica-31" x="522.558594"/>
     <use xlink:href="#Helvetica-31" x="578.173828"/>
     <use xlink:href="#Helvetica-39" x="633.789062"/>
    </g>
    <!-- R$^2$ = 1.000 -->
    <g transform="translate(256.042125 87.072225) scale(0.12 -0.12)">
     <use xlink:href="#Helvetica-52" transform="translate(0 0.271875)"/>
     <use xlink:href="#Helvetica-32" transform="translate(73.131992 36.879688) scale(0.7)"/>
     <use xlink:href="#Helvetica-20" transform="translate(114.6775 0.271875)"/>
     <use xlink:href="#Helvetica-3d" transform="translate(142.460703 0.271875)"/>
     <use xlink:href="#Helvetica-20" transform="translate(200.859141 0.271875)"/>
     <use xlink:href="#Helvetica-31" transform="translate(228.642344 0.271875)"/>
     <use xlink:href="#Helvetica-2e" transform="translate(284.257578 0.271875)"/>
     <use xlink:href="#Helvetica-30" transform="translate(312.040781 0.271875)"/>
     <use xlink:href="#Helvetica-30" transform="translate(367.656016 0.271875)"/>
     <use xlink:href="#Helvetica-30" transform="translate(423.27125 0.271875)"/>
    </g>
   </g>
   <g id="text_20">
    <!-- colE1 -->
    <g transform="translate(290.493832 50.47875) scale(0.144 -0.144)">
     <defs>
      <path id="Helvetica-63" d="M 1703 3444 
Q 2269 3444 2623 3169 
Q 2978 2894 3050 2222 
L 2503 2222 
Q 2453 2531 2275 2736 
Q 2097 2941 1703 2941 
Q 1166 2941 934 2416 
Q 784 2075 784 1575 
Q 784 1072 996 728 
Q 1209 384 1666 384 
Q 2016 384 2220 598 
Q 2425 813 2503 1184 
L 3050 1184 
Q 2956 519 2581 211 
Q 2206 -97 1622 -97 
Q 966 -97 575 383 
Q 184 863 184 1581 
Q 184 2463 612 2953 
Q 1041 3444 1703 3444 
z
M 1616 3428 
L 1616 3428 
z
" transform="scale(0.015625)"/>
      <path id="Helvetica-6f" d="M 1741 363 
Q 2300 363 2508 786 
Q 2716 1209 2716 1728 
Q 2716 2197 2566 2491 
Q 2328 2953 1747 2953 
Q 1231 2953 997 2559 
Q 763 2166 763 1609 
Q 763 1075 997 719 
Q 1231 363 1741 363 
z
M 1763 3444 
Q 2409 3444 2856 3012 
Q 3303 2581 3303 1744 
Q 3303 934 2909 406 
Q 2516 -122 1688 -122 
Q 997 -122 590 345 
Q 184 813 184 1600 
Q 184 2444 612 2944 
Q 1041 3444 1763 3444 
z
M 1744 3428 
L 1744 3428 
z
" transform="scale(0.015625)"/>
      <path id="Helvetica-6c" d="M 428 4591 
L 991 4591 
L 991 0 
L 428 0 
L 428 4591 
z
" transform="scale(0.015625)"/>
      <path id="Helvetica-45" d="M 547 4591 
L 3894 4591 
L 3894 4028 
L 1153 4028 
L 1153 2634 
L 3688 2634 
L 3688 2103 
L 1153 2103 
L 1153 547 
L 3941 547 
L 3941 0 
L 547 0 
L 547 4591 
z
M 2244 4591 
L 2244 4591 
z
" transform="scale(0.015625)"/>
     </defs>
     <use xlink:href="#Helvetica-63"/>
     <use xlink:href="#Helvetica-6f" x="50"/>
     <use xlink:href="#Helvetica-6c" x="105.615234"/>
     <use xlink:href="#Helvetica-45" x="127.832031"/>
     <use xlink:href="#Helvetica-31" x="194.53125"/>
    </g>
   </g>
  </g>
  <g id="axes_3">
   <g id="patch_12">
    <path d="M 427.863333 195.54 
L 559.017914 195.54 
L 559.017914 56.47875 
L 427.863333 56.47875 
z
" style="fill: #ffffff"/>
   </g>
   <g id="PathCollection_3">
    <defs>
     <path id="C2_0_3699f83bc1" d="M 0 3.535534 
C 0.937635 3.535534 1.836992 3.163008 2.5 2.5 
C 3.163008 1.836992 3.535534 0.937635 3.535534 -0 
C 3.535534 -0.937635 3.163008 -1.836992 2.5 -2.5 
C 1.836992 -3.163008 0.937635 -3.535534 0 -3.535534 
C -0.937635 -3.535534 -1.836992 -3.163008 -2.5 -2.5 
C -3.163008 -1.836992 -3.535534 -0.937635 -3.535534 0 
C -3.535534 0.937635 -3.163008 1.836992 -2.5 2.5 
C -1.836992 3.163008 -0.937635 3.535534 0 3.535534 
z
"/>
    </defs>
    <g clip-path="url(#paab9b78cd1)">
     <use xlink:href="#C2_0_3699f83bc1" x="553.056343" y="70.141931" style="fill: none; stroke: #4682b4; stroke-width: 1.5"/>
    </g>
    <g clip-path="url(#paab9b78cd1)">
     <use xlink:href="#C2_0_3699f83bc1" x="529.210055" y="92.206299" style="fill: none; stroke: #4682b4; stroke-width: 1.5"/>
    </g>
    <g clip-path="url(#paab9b78cd1)">
     <use xlink:href="#C2_0_3699f83bc1" x="493.440624" y="126.286801" style="fill: none; stroke: #4682b4; stroke-width: 1.5"/>
    </g>
    <g clip-path="url(#paab9b78cd1)">
     <use xlink:href="#C2_0_3699f83bc1" x="457.671193" y="160.360844" style="fill: none; stroke: #4682b4; stroke-width: 1.5"/>
    </g>
    <g clip-path="url(#paab9b78cd1)">
     <use xlink:href="#C2_0_3699f83bc1" x="433.824905" y="181.050999" style="fill: none; stroke: #4682b4; stroke-width: 1.5"/>
    </g>
   </g>
   <g id="PolyCollection_3">
    <defs>
     <path id="m869f007756" d="M 427.863333 -52.01942 
L 427.863333 -48.380966 
L 428.301977 -48.79999 
L 428.740622 -49.218997 
L 429.179266 -49.637985 
L 429.61791 -50.056956 
L 430.056554 -50.475908 
L 430.495198 -50.894841 
L 430.933842 -51.313756 
L 431.372486 -51.732651 
L 431.81113 -52.151527 
L 432.249774 -52.570383 
L 432.688418 -52.989219 
L 433.127062 -53.408035 
L 433.565706 -53.82683 
L 434.004351 -54.245604 
L 434.442995 -54.664357 
L 434.881639 -55.083088 
L 435.320283 -55.501798 
L 435.758927 -55.920485 
L 436.197571 -56.33915 
L 436.636215 -56.757793 
L 437.074859 -57.176412 
L 437.513503 -57.595007 
L 437.952147 -58.013579 
L 438.390791 -58.432127 
L 438.829435 -58.85065 
L 439.26808 -59.269148 
L 439.706724 -59.687621 
L 440.145368 -60.106069 
L 440.584012 -60.52449 
L 441.022656 -60.942885 
L 441.4613 -61.361254 
L 441.899944 -61.779595 
L 442.338588 -62.197908 
L 442.777232 -62.616194 
L 443.215876 -63.034451 
L 443.65452 -63.452679 
L 444.093164 -63.870879 
L 444.531809 -64.289048 
L 444.970453 -64.707187 
L 445.409097 -65.125296 
L 445.847741 -65.543374 
L 446.286385 -65.96142 
L 446.725029 -66.379434 
L 447.163673 -66.797416 
L 447.602317 -67.215365 
L 448.040961 -67.63328 
L 448.479605 -68.051162 
L 448.918249 -68.469009 
L 449.356893 -68.88682 
L 449.795538 -69.304597 
L 450.234182 -69.722337 
L 450.672826 -70.140041 
L 451.11147 -70.557708 
L 451.550114 -70.975337 
L 451.988758 -71.392927 
L 452.427402 -71.810479 
L 452.866046 -72.227992 
L 453.30469 -72.645464 
L 453.743334 -73.062896 
L 454.181978 -73.480286 
L 454.620622 -73.897635 
L 455.059267 -74.314941 
L 455.497911 -74.732204 
L 455.936555 -75.149424 
L 456.375199 -75.566599 
L 456.813843 -75.983729 
L 457.252487 -76.400813 
L 457.691131 -76.81785 
L 458.129775 -77.234841 
L 458.568419 -77.651784 
L 459.007063 -78.068678 
L 459.445707 -78.485523 
L 459.884351 -78.902319 
L 460.322996 -79.319063 
L 460.76164 -79.735756 
L 461.200284 -80.152397 
L 461.638928 -80.568986 
L 462.077572 -80.98552 
L 462.516216 -81.402 
L 462.95486 -81.818425 
L 463.393504 -82.234794 
L 463.832148 -82.651106 
L 464.270792 -83.067361 
L 464.709436 -83.483557 
L 465.14808 -83.899694 
L 465.586725 -84.315772 
L 466.025369 -84.731788 
L 466.464013 -85.147743 
L 466.902657 -85.563635 
L 467.341301 -85.979464 
L 467.779945 -86.395229 
L 468.218589 -86.810929 
L 468.657233 -87.226564 
L 469.095877 -87.642131 
L 469.534521 -88.057631 
L 469.973165 -88.473063 
L 470.411809 -88.888425 
L 470.850454 -89.303718 
L 471.289098 -89.718939 
L 471.727742 -90.134089 
L 472.166386 -90.549166 
L 472.60503 -90.964169 
L 473.043674 -91.379098 
L 473.482318 -91.793952 
L 473.920962 -92.208729 
L 474.359606 -92.62343 
L 474.79825 -93.038052 
L 475.236894 -93.452597 
L 475.675538 -93.867061 
L 476.114183 -94.281445 
L 476.552827 -94.695748 
L 476.991471 -95.109969 
L 477.430115 -95.524107 
L 477.868759 -95.938162 
L 478.307403 -96.352132 
L 478.746047 -96.766016 
L 479.184691 -97.179815 
L 479.623335 -97.593527 
L 480.061979 -98.007152 
L 480.500623 -98.420688 
L 480.939267 -98.834135 
L 481.377912 -99.247492 
L 481.816556 -99.660759 
L 482.2552 -100.073935 
L 482.693844 -100.487019 
L 483.132488 -100.900011 
L 483.571132 -101.312909 
L 484.009776 -101.725714 
L 484.44842 -102.138425 
L 484.887064 -102.551041 
L 485.325708 -102.963561 
L 485.764352 -103.375986 
L 486.202997 -103.788314 
L 486.641641 -104.200546 
L 487.080285 -104.61268 
L 487.518929 -105.024716 
L 487.957573 -105.436654 
L 488.396217 -105.848494 
L 488.834861 -106.260235 
L 489.273505 -106.671876 
L 489.712149 -107.083418 
L 490.150793 -107.494861 
L 490.589437 -107.906203 
L 491.028081 -108.317445 
L 491.466726 -108.728587 
L 491.90537 -109.139629 
L 492.344014 -109.550569 
L 492.782658 -109.961409 
L 493.221302 -110.372148 
L 493.659946 -110.782787 
L 494.09859 -111.193324 
L 494.537234 -111.603761 
L 494.975878 -112.014097 
L 495.414522 -112.424332 
L 495.853166 -112.834467 
L 496.29181 -113.244502 
L 496.730455 -113.654436 
L 497.169099 -114.06427 
L 497.607743 -114.474005 
L 498.046387 -114.88364 
L 498.485031 -115.293176 
L 498.923675 -115.702613 
L 499.362319 -116.111951 
L 499.800963 -116.521192 
L 500.239607 -116.930334 
L 500.678251 -117.339379 
L 501.116895 -117.748328 
L 501.555539 -118.15718 
L 501.994184 -118.565936 
L 502.432828 -118.974597 
L 502.871472 -119.383163 
L 503.310116 -119.791635 
L 503.74876 -120.200013 
L 504.187404 -120.608298 
L 504.626048 -121.01649 
L 505.064692 -121.424591 
L 505.503336 -121.832601 
L 505.94198 -122.24052 
L 506.380624 -122.64835 
L 506.819268 -123.05609 
L 507.257913 -123.463743 
L 507.696557 -123.871307 
L 508.135201 -124.278785 
L 508.573845 -124.686177 
L 509.012489 -125.093484 
L 509.451133 -125.500706 
L 509.889777 -125.907845 
L 510.328421 -126.3149 
L 510.767065 -126.721874 
L 511.205709 -127.128767 
L 511.644353 -127.535579 
L 512.082997 -127.942312 
L 512.521642 -128.348965 
L 512.960286 -128.755542 
L 513.39893 -129.162041 
L 513.837574 -129.568464 
L 514.276218 -129.974811 
L 514.714862 -130.381085 
L 515.153506 -130.787285 
L 515.59215 -131.193412 
L 516.030794 -131.599467 
L 516.469438 -132.005451 
L 516.908082 -132.411365 
L 517.346726 -132.81721 
L 517.785371 -133.222987 
L 518.224015 -133.628696 
L 518.662659 -134.034339 
L 519.101303 -134.439915 
L 519.539947 -134.845427 
L 519.978591 -135.250875 
L 520.417235 -135.656259 
L 520.855879 -136.061581 
L 521.294523 -136.466841 
L 521.733167 -136.87204 
L 522.171811 -137.27718 
L 522.610455 -137.68226 
L 523.0491 -138.087282 
L 523.487744 -138.492247 
L 523.926388 -138.897155 
L 524.365032 -139.302006 
L 524.803676 -139.706803 
L 525.24232 -140.111545 
L 525.680964 -140.516234 
L 526.119608 -140.920869 
L 526.558252 -141.325453 
L 526.996896 -141.729985 
L 527.43554 -142.134466 
L 527.874184 -142.538898 
L 528.312829 -142.94328 
L 528.751473 -143.347614 
L 529.190117 -143.7519 
L 529.628761 -144.156139 
L 530.067405 -144.560332 
L 530.506049 -144.964478 
L 530.944693 -145.36858 
L 531.383337 -145.772638 
L 531.821981 -146.176651 
L 532.260625 -146.580622 
L 532.699269 -146.98455 
L 533.137913 -147.388436 
L 533.576558 -147.792281 
L 534.015202 -148.196085 
L 534.453846 -148.599849 
L 534.89249 -149.003574 
L 535.331134 -149.40726 
L 535.769778 -149.810908 
L 536.208422 -150.214518 
L 536.647066 -150.618091 
L 537.08571 -151.021627 
L 537.524354 -151.425127 
L 537.962998 -151.828592 
L 538.401642 -152.232022 
L 538.840287 -152.635417 
L 539.278931 -153.038778 
L 539.717575 -153.442106 
L 540.156219 -153.845401 
L 540.594863 -154.248664 
L 541.033507 -154.651894 
L 541.472151 -155.055093 
L 541.910795 -155.458261 
L 542.349439 -155.861398 
L 542.788083 -156.264505 
L 543.226727 -156.667583 
L 543.665371 -157.070631 
L 544.104016 -157.473651 
L 544.54266 -157.876642 
L 544.981304 -158.279605 
L 545.419948 -158.68254 
L 545.858592 -159.085449 
L 546.297236 -159.48833 
L 546.73588 -159.891186 
L 547.174524 -160.294015 
L 547.613168 -160.696819 
L 548.051812 -161.099597 
L 548.490456 -161.502351 
L 548.929101 -161.90508 
L 549.367745 -162.307784 
L 549.806389 -162.710465 
L 550.245033 -163.113123 
L 550.683677 -163.515758 
L 551.122321 -163.918369 
L 551.560965 -164.320958 
L 551.999609 -164.723525 
L 552.438253 -165.126071 
L 552.876897 -165.528594 
L 553.315541 -165.931097 
L 553.754185 -166.333579 
L 554.19283 -166.73604 
L 554.631474 -167.13848 
L 555.070118 -167.540901 
L 555.508762 -167.943302 
L 555.947406 -168.345683 
L 556.38605 -168.748045 
L 556.824694 -169.150389 
L 557.263338 -169.552713 
L 557.701982 -169.955019 
L 558.140626 -170.357307 
L 558.57927 -170.759578 
L 559.017914 -171.16183 
L 559.017914 -174.800284 
L 559.017914 -174.800284 
L 558.57927 -174.38126 
L 558.140626 -173.962253 
L 557.701982 -173.543265 
L 557.263338 -173.124294 
L 556.824694 -172.705342 
L 556.38605 -172.286409 
L 555.947406 -171.867494 
L 555.508762 -171.448599 
L 555.070118 -171.029723 
L 554.631474 -170.610867 
L 554.19283 -170.192031 
L 553.754185 -169.773215 
L 553.315541 -169.35442 
L 552.876897 -168.935646 
L 552.438253 -168.516893 
L 551.999609 -168.098162 
L 551.560965 -167.679452 
L 551.122321 -167.260765 
L 550.683677 -166.8421 
L 550.245033 -166.423457 
L 549.806389 -166.004838 
L 549.367745 -165.586243 
L 548.929101 -165.167671 
L 548.490456 -164.749123 
L 548.051812 -164.3306 
L 547.613168 -163.912102 
L 547.174524 -163.493629 
L 546.73588 -163.075181 
L 546.297236 -162.65676 
L 545.858592 -162.238365 
L 545.419948 -161.819996 
L 544.981304 -161.401655 
L 544.54266 -160.983342 
L 544.104016 -160.565056 
L 543.665371 -160.146799 
L 543.226727 -159.728571 
L 542.788083 -159.310371 
L 542.349439 -158.892202 
L 541.910795 -158.474063 
L 541.472151 -158.055954 
L 541.033507 -157.637876 
L 540.594863 -157.21983 
L 540.156219 -156.801816 
L 539.717575 -156.383834 
L 539.278931 -155.965885 
L 538.840287 -155.54797 
L 538.401642 -155.130088 
L 537.962998 -154.712241 
L 537.524354 -154.29443 
L 537.08571 -153.876653 
L 536.647066 -153.458913 
L 536.208422 -153.041209 
L 535.769778 -152.623542 
L 535.331134 -152.205913 
L 534.89249 -151.788323 
L 534.453846 -151.370771 
L 534.015202 -150.953258 
L 533.576558 -150.535786 
L 533.137913 -150.118354 
L 532.699269 -149.700964 
L 532.260625 -149.283615 
L 531.821981 -148.866309 
L 531.383337 -148.449046 
L 530.944693 -148.031826 
L 530.506049 -147.614651 
L 530.067405 -147.197521 
L 529.628761 -146.780437 
L 529.190117 -146.3634 
L 528.751473 -145.946409 
L 528.312829 -145.529466 
L 527.874184 -145.112572 
L 527.43554 -144.695727 
L 526.996896 -144.278931 
L 526.558252 -143.862187 
L 526.119608 -143.445494 
L 525.680964 -143.028853 
L 525.24232 -142.612265 
L 524.803676 -142.19573 
L 524.365032 -141.77925 
L 523.926388 -141.362825 
L 523.487744 -140.946456 
L 523.0491 -140.530144 
L 522.610455 -140.113889 
L 522.171811 -139.697693 
L 521.733167 -139.281556 
L 521.294523 -138.865478 
L 520.855879 -138.449462 
L 520.417235 -138.033507 
L 519.978591 -137.617615 
L 519.539947 -137.201786 
L 519.101303 -136.786021 
L 518.662659 -136.370321 
L 518.224015 -135.954686 
L 517.785371 -135.539119 
L 517.346726 -135.123619 
L 516.908082 -134.708187 
L 516.469438 -134.292825 
L 516.030794 -133.877532 
L 515.59215 -133.462311 
L 515.153506 -133.047161 
L 514.714862 -132.632084 
L 514.276218 -132.217081 
L 513.837574 -131.802152 
L 513.39893 -131.387298 
L 512.960286 -130.972521 
L 512.521642 -130.55782 
L 512.082997 -130.143198 
L 511.644353 -129.728653 
L 511.205709 -129.314189 
L 510.767065 -128.899805 
L 510.328421 -128.485502 
L 509.889777 -128.071281 
L 509.451133 -127.657143 
L 509.012489 -127.243088 
L 508.573845 -126.829118 
L 508.135201 -126.415234 
L 507.696557 -126.001435 
L 507.257913 -125.587723 
L 506.819268 -125.174099 
L 506.380624 -124.760562 
L 505.94198 -124.347115 
L 505.503336 -123.933758 
L 505.064692 -123.520491 
L 504.626048 -123.107315 
L 504.187404 -122.694231 
L 503.74876 -122.281239 
L 503.310116 -121.868341 
L 502.871472 -121.455536 
L 502.432828 -121.042825 
L 501.994184 -120.630209 
L 501.555539 -120.217689 
L 501.116895 -119.805264 
L 500.678251 -119.392936 
L 500.239607 -118.980705 
L 499.800963 -118.56857 
L 499.362319 -118.156534 
L 498.923675 -117.744596 
L 498.485031 -117.332756 
L 498.046387 -116.921015 
L 497.607743 -116.509374 
L 497.169099 -116.097832 
L 496.730455 -115.686389 
L 496.29181 -115.275047 
L 495.853166 -114.863805 
L 495.414522 -114.452663 
L 494.975878 -114.041622 
L 494.537234 -113.630681 
L 494.09859 -113.219841 
L 493.659946 -112.809102 
L 493.221302 -112.398463 
L 492.782658 -111.987926 
L 492.344014 -111.577489 
L 491.90537 -111.167153 
L 491.466726 -110.756918 
L 491.028081 -110.346783 
L 490.589437 -109.936748 
L 490.150793 -109.526814 
L 489.712149 -109.11698 
L 489.273505 -108.707245 
L 488.834861 -108.29761 
L 488.396217 -107.888074 
L 487.957573 -107.478637 
L 487.518929 -107.069299 
L 487.080285 -106.660059 
L 486.641641 -106.250916 
L 486.202997 -105.841871 
L 485.764352 -105.432922 
L 485.325708 -105.02407 
L 484.887064 -104.615314 
L 484.44842 -104.206653 
L 484.009776 -103.798087 
L 483.571132 -103.389615 
L 483.132488 -102.981237 
L 482.693844 -102.572952 
L 482.2552 -102.16476 
L 481.816556 -101.756659 
L 481.377912 -101.348649 
L 480.939267 -100.94073 
L 480.500623 -100.5329 
L 480.061979 -100.12516 
L 479.623335 -99.717507 
L 479.184691 -99.309943 
L 478.746047 -98.902465 
L 478.307403 -98.495073 
L 477.868759 -98.087766 
L 477.430115 -97.680544 
L 476.991471 -97.273405 
L 476.552827 -96.86635 
L 476.114183 -96.459376 
L 475.675538 -96.052483 
L 475.236894 -95.645671 
L 474.79825 -95.238939 
L 474.359606 -94.832285 
L 473.920962 -94.425709 
L 473.482318 -94.019209 
L 473.043674 -93.612786 
L 472.60503 -93.206439 
L 472.166386 -92.800165 
L 471.727742 -92.393966 
L 471.289098 -91.987838 
L 470.850454 -91.581783 
L 470.411809 -91.175799 
L 469.973165 -90.769885 
L 469.534521 -90.36404 
L 469.095877 -89.958263 
L 468.657233 -89.552554 
L 468.218589 -89.146911 
L 467.779945 -88.741335 
L 467.341301 -88.335823 
L 466.902657 -87.930375 
L 466.464013 -87.524991 
L 466.025369 -87.119669 
L 465.586725 -86.714409 
L 465.14808 -86.30921 
L 464.709436 -85.90407 
L 464.270792 -85.49899 
L 463.832148 -85.093968 
L 463.393504 -84.689003 
L 462.95486 -84.284096 
L 462.516216 -83.879244 
L 462.077572 -83.474447 
L 461.638928 -83.069705 
L 461.200284 -82.665017 
L 460.76164 -82.260381 
L 460.322996 -81.855797 
L 459.884351 -81.451265 
L 459.445707 -81.046784 
L 459.007063 -80.642352 
L 458.568419 -80.23797 
L 458.129775 -79.833636 
L 457.691131 -79.42935 
L 457.252487 -79.025111 
L 456.813843 -78.620918 
L 456.375199 -78.216772 
L 455.936555 -77.81267 
L 455.497911 -77.408613 
L 455.059267 -77.004599 
L 454.620622 -76.600629 
L 454.181978 -76.196701 
L 453.743334 -75.792814 
L 453.30469 -75.388969 
L 452.866046 -74.985165 
L 452.427402 -74.581401 
L 451.988758 -74.177676 
L 451.550114 -73.77399 
L 451.11147 -73.370342 
L 450.672826 -72.966732 
L 450.234182 -72.56316 
L 449.795538 -72.159623 
L 449.356893 -71.756123 
L 448.918249 -71.352658 
L 448.479605 -70.949229 
L 448.040961 -70.545833 
L 447.602317 -70.142472 
L 447.163673 -69.739144 
L 446.725029 -69.335849 
L 446.286385 -68.932587 
L 445.847741 -68.529356 
L 445.409097 -68.126157 
L 444.970453 -67.722989 
L 444.531809 -67.319852 
L 444.093164 -66.916745 
L 443.65452 -66.513667 
L 443.215876 -66.110619 
L 442.777232 -65.707599 
L 442.338588 -65.304608 
L 441.899944 -64.901645 
L 441.4613 -64.49871 
L 441.022656 -64.095801 
L 440.584012 -63.69292 
L 440.145368 -63.290064 
L 439.706724 -62.887235 
L 439.26808 -62.484432 
L 438.829435 -62.081653 
L 438.390791 -61.6789 
L 437.952147 -61.276171 
L 437.513503 -60.873466 
L 437.074859 -60.470785 
L 436.636215 -60.068127 
L 436.197571 -59.665493 
L 435.758927 -59.262881 
L 435.320283 -58.860292 
L 434.881639 -58.457725 
L 434.442995 -58.055179 
L 434.004351 -57.652656 
L 433.565706 -57.250153 
L 433.127062 -56.847672 
L 432.688418 -56.445211 
L 432.249774 -56.04277 
L 431.81113 -55.640349 
L 431.372486 -55.237948 
L 430.933842 -54.835567 
L 430.495198 -54.433205 
L 430.056554 -54.030861 
L 429.61791 -53.628537 
L 429.179266 -53.226231 
L 428.740622 -52.823943 
L 428.301977 -52.421673 
L 427.863333 -52.01942 
z
"/>
    </defs>
    <g clip-path="url(#paab9b78cd1)">
     <use xlink:href="#m869f007756" x="0" y="237.6" style="fill: #4682b4; fill-opacity: 0.5"/>
    </g>
   </g>
   <g id="matplotlib.axis_5">
    <g id="xtick_7">
     <g id="line2d_17">
      <g>
       <use xlink:href="#m744e18d488" x="433.824905" y="195.54" style="stroke: #000000; stroke-width: 0.8"/>
      </g>
     </g>
     <g id="text_21">
      <!-- 0 -->
      <g transform="translate(430.488343 207.648125) scale(0.12 -0.12)">
       <use xlink:href="#Helvetica-30"/>
      </g>
     </g>
    </g>
    <g id="xtick_8">
     <g id="line2d_18">
      <g>
       <use xlink:href="#m744e18d488" x="493.440624" y="195.54" style="stroke: #000000; stroke-width: 0.8"/>
      </g>
     </g>
     <g id="text_22">
      <!-- 50 -->
      <g transform="translate(486.767499 207.648125) scale(0.12 -0.12)">
       <use xlink:href="#Helvetica-35"/>
       <use xlink:href="#Helvetica-30" x="55.615234"/>
      </g>
     </g>
    </g>
    <g id="xtick_9">
     <g id="line2d_19">
      <g>
       <use xlink:href="#m744e18d488" x="553.056343" y="195.54" style="stroke: #000000; stroke-width: 0.8"/>
      </g>
     </g>
     <g id="text_23">
      <!-- 100 -->
      <g transform="translate(543.046655 207.648125) scale(0.12 -0.12)">
       <use xlink:href="#Helvetica-31"/>
       <use xlink:href="#Helvetica-30" x="55.615234"/>
       <use xlink:href="#Helvetica-30" x="111.230469"/>
      </g>
     </g>
    </g>
   </g>
   <g id="matplotlib.axis_6">
    <g id="ytick_9">
     <g id="line2d_20">
      <g>
       <use xlink:href="#mffd813feac" x="427.863333" y="188.526022" style="stroke: #000000; stroke-width: 0.8"/>
      </g>
     </g>
     <g id="text_24">
      <!-- 0 -->
      <g transform="translate(417.690208 192.830084) scale(0.12 -0.12)">
       <use xlink:href="#Helvetica-30"/>
      </g>
     </g>
    </g>
    <g id="ytick_10">
     <g id="line2d_21">
      <g>
       <use xlink:href="#mffd813feac" x="427.863333" y="138.379297" style="stroke: #000000; stroke-width: 0.8"/>
      </g>
     </g>
     <g id="text_25">
      <!-- 1000 -->
      <g transform="translate(397.670833 142.683359) scale(0.12 -0.12)">
       <use xlink:href="#Helvetica-31"/>
       <use xlink:href="#Helvetica-30" x="55.615234"/>
       <use xlink:href="#Helvetica-30" x="111.230469"/>
       <use xlink:href="#Helvetica-30" x="166.845703"/>
      </g>
     </g>
    </g>
    <g id="ytick_11">
     <g id="line2d_22">
      <g>
       <use xlink:href="#mffd813feac" x="427.863333" y="88.232572" style="stroke: #000000; stroke-width: 0.8"/>
      </g>
     </g>
     <g id="text_26">
      <!-- 2000 -->
      <g transform="translate(397.670833 92.536635) scale(0.12 -0.12)">
       <use xlink:href="#Helvetica-32"/>
       <use xlink:href="#Helvetica-30" x="55.615234"/>
       <use xlink:href="#Helvetica-30" x="111.230469"/>
       <use xlink:href="#Helvetica-30" x="166.845703"/>
      </g>
     </g>
    </g>
   </g>
   <g id="line2d_23">
    <path d="M 427.863333 187.399807 
L 559.017914 64.618943 
L 559.017914 64.618943 
" clip-path="url(#paab9b78cd1)" style="fill: none; stroke: #000000; stroke-linecap: square"/>
   </g>
   <g id="patch_13">
    <path d="M 427.863333 195.54 
L 427.863333 56.47875 
" style="fill: none; stroke: #000000; stroke-width: 0.8; stroke-linejoin: miter; stroke-linecap: square"/>
   </g>
   <g id="patch_14">
    <path d="M 559.017914 195.54 
L 559.017914 56.47875 
" style="fill: none; stroke: #000000; stroke-width: 0.8; stroke-linejoin: miter; stroke-linecap: square"/>
   </g>
   <g id="patch_15">
    <path d="M 427.863333 195.54 
L 559.017914 195.54 
" style="fill: none; stroke: #000000; stroke-width: 0.8; stroke-linejoin: miter; stroke-linecap: square"/>
   </g>
   <g id="patch_16">
    <path d="M 427.863333 56.47875 
L 559.017914 56.47875 
" style="fill: none; stroke: #000000; stroke-width: 0.8; stroke-linejoin: miter; stroke-linecap: square"/>
   </g>
   <g id="text_27">
    <!--  -->
    <g transform="translate(440.978791 61.338975) scale(0.12 -0.12)"/>
    <!-- y = 22 x + 134 -->
    <g transform="translate(440.978791 74.169975) scale(0.12 -0.12)">
     <defs>
      <path id="Helvetica-34" d="M 2116 1584 
L 2116 3613 
L 681 1584 
L 2116 1584 
z
M 2125 0 
L 2125 1094 
L 163 1094 
L 163 1644 
L 2213 4488 
L 2688 4488 
L 2688 1584 
L 3347 1584 
L 3347 1094 
L 2688 1094 
L 2688 0 
L 2125 0 
z
" transform="scale(0.015625)"/>
     </defs>
     <use xlink:href="#Helvetica-79"/>
     <use xlink:href="#Helvetica-20" x="50"/>
     <use xlink:href="#Helvetica-3d" x="77.783203"/>
     <use xlink:href="#Helvetica-20" x="136.181641"/>
     <use xlink:href="#Helvetica-32" x="163.964844"/>
     <use xlink:href="#Helvetica-32" x="219.580078"/>
     <use xlink:href="#Helvetica-20" x="275.195312"/>
     <use xlink:href="#Helvetica-78" x="302.978516"/>
     <use xlink:href="#Helvetica-20" x="352.978516"/>
     <use xlink:href="#Helvetica-2b" x="380.761719"/>
     <use xlink:href="#Helvetica-20" x="439.160156"/>
     <use xlink:href="#Helvetica-31" x="466.943359"/>
     <use xlink:href="#Helvetica-33" x="522.558594"/>
     <use xlink:href="#Helvetica-34" x="578.173828"/>
    </g>
    <!-- R$^2$ = 1.000 -->
    <g transform="translate(440.978791 87.072225) scale(0.12 -0.12)">
     <use xlink:href="#Helvetica-52" transform="translate(0 0.271875)"/>
     <use xlink:href="#Helvetica-32" transform="translate(73.131992 36.879688) scale(0.7)"/>
     <use xlink:href="#Helvetica-20" transform="translate(114.6775 0.271875)"/>
     <use xlink:href="#Helvetica-3d" transform="translate(142.460703 0.271875)"/>
     <use xlink:href="#Helvetica-20" transform="translate(200.859141 0.271875)"/>
     <use xlink:href="#Helvetica-31" transform="translate(228.642344 0.271875)"/>
     <use xlink:href="#Helvetica-2e" transform="translate(284.257578 0.271875)"/>
     <use xlink:href="#Helvetica-30" transform="translate(312.040781 0.271875)"/>
     <use xlink:href="#Helvetica-30" transform="translate(367.656016 0.271875)"/>
     <use xlink:href="#Helvetica-30" transform="translate(423.27125 0.271875)"/>
    </g>
   </g>
   <g id="text_28">
    <!-- pUC -->
    <g transform="translate(479.037249 50.47875) scale(0.144 -0.144)">
     <defs>
      <path id="Helvetica-55" d="M 1163 4591 
L 1163 1753 
Q 1163 1253 1350 922 
Q 1628 422 2288 422 
Q 3078 422 3363 963 
Q 3516 1256 3516 1753 
L 3516 4591 
L 4147 4591 
L 4147 2013 
Q 4147 1166 3919 709 
Q 3500 -122 2338 -122 
Q 1175 -122 759 709 
Q 531 1166 531 2013 
L 531 4591 
L 1163 4591 
z
M 2341 4591 
L 2341 4591 
z
" transform="scale(0.015625)"/>
     </defs>
     <use xlink:href="#Helvetica-70"/>
     <use xlink:href="#Helvetica-55" x="55.615234"/>
     <use xlink:href="#Helvetica-43" x="127.832031"/>
    </g>
   </g>
  </g>
  <g id="text_29">
   <!-- no Ab treatment -->
   <g transform="translate(236.77425 15.08175) scale(0.144 -0.144)">
    <defs>
     <path id="Helvetica-6e" d="M 413 3347 
L 947 3347 
L 947 2872 
Q 1184 3166 1450 3294 
Q 1716 3422 2041 3422 
Q 2753 3422 3003 2925 
Q 3141 2653 3141 2147 
L 3141 0 
L 2569 0 
L 2569 2109 
Q 2569 2416 2478 2603 
Q 2328 2916 1934 2916 
Q 1734 2916 1606 2875 
Q 1375 2806 1200 2600 
Q 1059 2434 1017 2257 
Q 975 2081 975 1753 
L 975 0 
L 413 0 
L 413 3347 
z
M 1734 3428 
L 1734 3428 
z
" transform="scale(0.015625)"/>
     <path id="Helvetica-41" d="M 2844 1881 
L 2147 3909 
L 1406 1881 
L 2844 1881 
z
M 1822 4591 
L 2525 4591 
L 4191 0 
L 3509 0 
L 3044 1375 
L 1228 1375 
L 731 0 
L 94 0 
L 1822 4591 
z
" transform="scale(0.015625)"/>
     <path id="Helvetica-62" d="M 369 4606 
L 916 4606 
L 916 2941 
Q 1100 3181 1356 3307 
Q 1613 3434 1913 3434 
Q 2538 3434 2927 3004 
Q 3316 2575 3316 1738 
Q 3316 944 2931 419 
Q 2547 -106 1866 -106 
Q 1484 -106 1222 78 
Q 1066 188 888 428 
L 888 0 
L 369 0 
L 369 4606 
z
M 1831 391 
Q 2288 391 2514 753 
Q 2741 1116 2741 1709 
Q 2741 2238 2514 2584 
Q 2288 2931 1847 2931 
Q 1463 2931 1173 2647 
Q 884 2363 884 1709 
Q 884 1238 1003 944 
Q 1225 391 1831 391 
z
" transform="scale(0.015625)"/>
     <path id="Helvetica-74" d="M 525 4281 
L 1094 4281 
L 1094 3347 
L 1628 3347 
L 1628 2888 
L 1094 2888 
L 1094 703 
Q 1094 528 1213 469 
Q 1278 434 1431 434 
Q 1472 434 1519 436 
Q 1566 438 1628 444 
L 1628 0 
Q 1531 -28 1426 -40 
Q 1322 -53 1200 -53 
Q 806 -53 665 148 
Q 525 350 525 672 
L 525 2888 
L 72 2888 
L 72 3347 
L 525 3347 
L 525 4281 
z
" transform="scale(0.015625)"/>
     <path id="Helvetica-72" d="M 428 3347 
L 963 3347 
L 963 2769 
Q 1028 2938 1284 3180 
Q 1541 3422 1875 3422 
Q 1891 3422 1928 3419 
Q 1966 3416 2056 3406 
L 2056 2813 
Q 2006 2822 1964 2825 
Q 1922 2828 1872 2828 
Q 1447 2828 1219 2554 
Q 991 2281 991 1925 
L 991 0 
L 428 0 
L 428 3347 
z
" transform="scale(0.015625)"/>
     <path id="Helvetica-65" d="M 1806 3422 
Q 2163 3422 2497 3255 
Q 2831 3088 3006 2822 
Q 3175 2569 3231 2231 
Q 3281 2000 3281 1494 
L 828 1494 
Q 844 984 1069 676 
Q 1294 369 1766 369 
Q 2206 369 2469 659 
Q 2619 828 2681 1050 
L 3234 1050 
Q 3213 866 3089 639 
Q 2966 413 2813 269 
Q 2556 19 2178 -69 
Q 1975 -119 1719 -119 
Q 1094 -119 659 336 
Q 225 791 225 1609 
Q 225 2416 662 2919 
Q 1100 3422 1806 3422 
z
M 2703 1941 
Q 2669 2306 2544 2525 
Q 2313 2931 1772 2931 
Q 1384 2931 1121 2651 
Q 859 2372 844 1941 
L 2703 1941 
z
M 1753 3428 
L 1753 3428 
z
" transform="scale(0.015625)"/>
     <path id="Helvetica-61" d="M 844 891 
Q 844 647 1022 506 
Q 1200 366 1444 366 
Q 1741 366 2019 503 
Q 2488 731 2488 1250 
L 2488 1703 
Q 2384 1638 2221 1594 
Q 2059 1550 1903 1531 
L 1563 1488 
Q 1256 1447 1103 1359 
Q 844 1213 844 891 
z
M 2206 2028 
Q 2400 2053 2466 2191 
Q 2503 2266 2503 2406 
Q 2503 2694 2298 2823 
Q 2094 2953 1713 2953 
Q 1272 2953 1088 2716 
Q 984 2584 953 2325 
L 428 2325 
Q 444 2944 830 3186 
Q 1216 3428 1725 3428 
Q 2316 3428 2684 3203 
Q 3050 2978 3050 2503 
L 3050 575 
Q 3050 488 3086 434 
Q 3122 381 3238 381 
Q 3275 381 3322 386 
Q 3369 391 3422 400 
L 3422 -16 
Q 3291 -53 3222 -62 
Q 3153 -72 3034 -72 
Q 2744 -72 2613 134 
Q 2544 244 2516 444 
Q 2344 219 2022 53 
Q 1700 -113 1313 -113 
Q 847 -113 551 170 
Q 256 453 256 878 
Q 256 1344 547 1600 
Q 838 1856 1309 1916 
L 2206 2028 
z
M 1741 3428 
L 1741 3428 
z
" transform="scale(0.015625)"/>
     <path id="Helvetica-6d" d="M 413 3347 
L 969 3347 
L 969 2872 
Q 1169 3119 1331 3231 
Q 1609 3422 1963 3422 
Q 2363 3422 2606 3225 
Q 2744 3113 2856 2894 
Q 3044 3163 3297 3292 
Q 3550 3422 3866 3422 
Q 4541 3422 4784 2934 
Q 4916 2672 4916 2228 
L 4916 0 
L 4331 0 
L 4331 2325 
Q 4331 2659 4164 2784 
Q 3997 2909 3756 2909 
Q 3425 2909 3186 2687 
Q 2947 2466 2947 1947 
L 2947 0 
L 2375 0 
L 2375 2184 
Q 2375 2525 2294 2681 
Q 2166 2916 1816 2916 
Q 1497 2916 1236 2669 
Q 975 2422 975 1775 
L 975 0 
L 413 0 
L 413 3347 
z
" transform="scale(0.015625)"/>
    </defs>
    <use xlink:href="#Helvetica-6e"/>
    <use xlink:href="#Helvetica-6f" x="55.615234"/>
    <use xlink:href="#Helvetica-20" x="111.230469"/>
    <use xlink:href="#Helvetica-41" x="139.013672"/>
    <use xlink:href="#Helvetica-62" x="205.712891"/>
    <use xlink:href="#Helvetica-20" x="261.328125"/>
    <use xlink:href="#Helvetica-74" x="289.111328"/>
    <use xlink:href="#Helvetica-72" x="316.894531"/>
    <use xlink:href="#Helvetica-65" x="350.195312"/>
    <use xlink:href="#Helvetica-61" x="405.810547"/>
    <use xlink:href="#Helvetica-74" x="461.425781"/>
    <use xlink:href="#Helvetica-6d" x="489.208984"/>
    <use xlink:href="#Helvetica-65" x="572.509766"/>
    <use xlink:href="#Helvetica-6e" x="628.125"/>
    <use xlink:href="#Helvetica-74" x="683.740234"/>
   </g>
  </g>
 </g>
 <defs>
  <clipPath id="p406dfd75f2">
   <rect x="57.99" y="56.47875" width="131.154581" height="139.06125"/>
  </clipPath>
  <clipPath id="p7689311a1a">
   <rect x="242.926667" y="56.47875" width="131.154581" height="139.06125"/>
  </clipPath>
  <clipPath id="paab9b78cd1">
   <rect x="427.863333" y="56.47875" width="131.154581" height="139.06125"/>
  </clipPath>
 </defs>
</svg>
