<?xml version="1.0" encoding="utf-8" standalone="no"?>
<!DOCTYPE svg PUBLIC "-//W3C//DTD SVG 1.1//EN"
  "http://www.w3.org/Graphics/SVG/1.1/DTD/svg11.dtd">
<svg xmlns:xlink="http://www.w3.org/1999/xlink" width="576pt" height="237.6pt" viewBox="0 0 576 237.6" xmlns="http://www.w3.org/2000/svg" version="1.1">
 <metadata>
  <rdf:RDF xmlns:dc="http://purl.org/dc/elements/1.1/" xmlns:cc="http://creativecommons.org/ns#" xmlns:rdf="http://www.w3.org/1999/02/22-rdf-syntax-ns#">
   <cc:Work>
    <dc:type rdf:resource="http://purl.org/dc/dcmitype/StillImage"/>
    <dc:date>2025-08-24T17:23:53.391603</dc:date>
    <dc:format>image/svg+xml</dc:format>
    <dc:creator>
     <cc:Agent>
      <dc:title>Matplotlib v3.7.5, https://matplotlib.org/</dc:title>
     </cc:Agent>
    </dc:creator>
   </cc:Work>
  </rdf:RDF>
 </metadata>
 <defs>
  <style type="text/css">*{stroke-linejoin: round; stroke-linecap: butt}</style>
 </defs>
 <g id="figure_1">
  <g id="patch_1">
   <path d="M 0 237.6 
L 576 237.6 
L 576 0 
L 0 0 
z
" style="fill: #ffffff"/>
  </g>
  <g id="axes_1">
   <g id="patch_2">
    <path d="M 57.99 195.54 
L 189.144581 195.54 
L 189.144581 56.47875 
L 57.99 56.47875 
z
" style="fill: #ffffff"/>
   </g>
   <g id="PathCollection_1">
    <defs>
     <path id="C0_0_66902e66de" d="M 0 3.535534 
C 0.937635 3.535534 1.836992 3.163008 2.5 2.5 
C 3.163008 1.836992 3.535534 0.937635 3.535534 -0 
C 3.535534 -0.937635 3.163008 -1.836992 2.5 -2.5 
C 1.836992 -3.163008 0.937635 -3.535534 0 -3.535534 
C -0.937635 -3.535534 -1.836992 -3.163008 -2.5 -2.5 
C -3.163008 -1.836992 -3.535534 -0.937635 -3.535534 0 
C -3.535534 0.937635 -3.163008 1.836992 -2.5 2.5 
C -1.836992 3.163008 -0.937635 3.535534 0 3.535534 
z
"/>
    </defs>
    <g clip-path="url(#p0a85b2c80a)">
     <use xlink:href="#C0_0_66902e66de" x="183.183009" y="69.802787" style="fill: none; stroke: #4682b4; stroke-width: 1.5"/>
    </g>
    <g clip-path="url(#p0a85b2c80a)">
     <use xlink:href="#C0_0_66902e66de" x="159.336722" y="93.2306" style="fill: none; stroke: #4682b4; stroke-width: 1.5"/>
    </g>
    <g clip-path="url(#p0a85b2c80a)">
     <use xlink:href="#C0_0_66902e66de" x="123.567291" y="125.996968" style="fill: none; stroke: #4682b4; stroke-width: 1.5"/>
    </g>
    <g clip-path="url(#p0a85b2c80a)">
     <use xlink:href="#C0_0_66902e66de" x="87.797859" y="160.177039" style="fill: none; stroke: #4682b4; stroke-width: 1.5"/>
    </g>
    <g clip-path="url(#p0a85b2c80a)">
     <use xlink:href="#C0_0_66902e66de" x="63.951572" y="180.839481" style="fill: none; stroke: #4682b4; stroke-width: 1.5"/>
    </g>
   </g>
   <g id="PolyCollection_1">
    <defs>
     <path id="m98172196cd" d="M 57.99 -52.50248 
L 57.99 -48.380966 
L 58.428644 -48.799488 
L 58.867288 -49.21799 
L 59.305932 -49.636472 
L 59.744576 -50.054933 
L 60.18322 -50.473373 
L 60.621865 -50.891792 
L 61.060509 -51.31019 
L 61.499153 -51.728566 
L 61.937797 -52.14692 
L 62.376441 -52.565251 
L 62.815085 -52.98356 
L 63.253729 -53.401846 
L 63.692373 -53.820108 
L 64.131017 -54.238347 
L 64.569661 -54.656562 
L 65.008305 -55.074752 
L 65.446949 -55.492917 
L 65.885594 -55.911058 
L 66.324238 -56.329173 
L 66.762882 -56.747262 
L 67.201526 -57.165325 
L 67.64017 -57.583362 
L 68.078814 -58.001371 
L 68.517458 -58.419354 
L 68.956102 -58.837308 
L 69.394746 -59.255234 
L 69.83339 -59.673132 
L 70.272034 -60.091 
L 70.710678 -60.50884 
L 71.149323 -60.926649 
L 71.587967 -61.344428 
L 72.026611 -61.762176 
L 72.465255 -62.179893 
L 72.903899 -62.597578 
L 73.342543 -63.015232 
L 73.781187 -63.432852 
L 74.219831 -63.85044 
L 74.658475 -64.267993 
L 75.097119 -64.685513 
L 75.535763 -65.102998 
L 75.974407 -65.520448 
L 76.413052 -65.937862 
L 76.851696 -66.35524 
L 77.29034 -66.772581 
L 77.728984 -67.189885 
L 78.167628 -67.60715 
L 78.606272 -68.024378 
L 79.044916 -68.441566 
L 79.48356 -68.858715 
L 79.922204 -69.275824 
L 80.360848 -69.692891 
L 80.799492 -70.109918 
L 81.238136 -70.526902 
L 81.676781 -70.943843 
L 82.115425 -71.360741 
L 82.554069 -71.777596 
L 82.992713 -72.194405 
L 83.431357 -72.611169 
L 83.870001 -73.027887 
L 84.308645 -73.444559 
L 84.747289 -73.861183 
L 85.185933 -74.277759 
L 85.624577 -74.694286 
L 86.063221 -75.110763 
L 86.501865 -75.52719 
L 86.94051 -75.943567 
L 87.379154 -76.359891 
L 87.817798 -76.776163 
L 88.256442 -77.192381 
L 88.695086 -77.608545 
L 89.13373 -78.024655 
L 89.572374 -78.440708 
L 90.011018 -78.856705 
L 90.449662 -79.272645 
L 90.888306 -79.688526 
L 91.32695 -80.104349 
L 91.765594 -80.520111 
L 92.204239 -80.935813 
L 92.642883 -81.351453 
L 93.081527 -81.767031 
L 93.520171 -82.182545 
L 93.958815 -82.597995 
L 94.397459 -83.01338 
L 94.836103 -83.428698 
L 95.274747 -83.84395 
L 95.713391 -84.259134 
L 96.152035 -84.674248 
L 96.590679 -85.089294 
L 97.029323 -85.504268 
L 97.467968 -85.919171 
L 97.906612 -86.334001 
L 98.345256 -86.748757 
L 98.7839 -87.163439 
L 99.222544 -87.578045 
L 99.661188 -87.992575 
L 100.099832 -88.407028 
L 100.538476 -88.821402 
L 100.97712 -89.235697 
L 101.415764 -89.649911 
L 101.854408 -90.064044 
L 102.293052 -90.478094 
L 102.731697 -90.892062 
L 103.170341 -91.305945 
L 103.608985 -91.719742 
L 104.047629 -92.133454 
L 104.486273 -92.547078 
L 104.924917 -92.960614 
L 105.363561 -93.374061 
L 105.802205 -93.787418 
L 106.240849 -94.200684 
L 106.679493 -94.613858 
L 107.118137 -95.026939 
L 107.556781 -95.439926 
L 107.995426 -95.852819 
L 108.43407 -96.265615 
L 108.872714 -96.678316 
L 109.311358 -97.090918 
L 109.750002 -97.503423 
L 110.188646 -97.915828 
L 110.62729 -98.328133 
L 111.065934 -98.740338 
L 111.504578 -99.152441 
L 111.943222 -99.564441 
L 112.381866 -99.976338 
L 112.82051 -100.388131 
L 113.259155 -100.79982 
L 113.697799 -101.211403 
L 114.136443 -101.62288 
L 114.575087 -102.03425 
L 115.013731 -102.445513 
L 115.452375 -102.856668 
L 115.891019 -103.267714 
L 116.329663 -103.678651 
L 116.768307 -104.089478 
L 117.206951 -104.500195 
L 117.645595 -104.910802 
L 118.08424 -105.321297 
L 118.522884 -105.73168 
L 118.961528 -106.141952 
L 119.400172 -106.552111 
L 119.838816 -106.962158 
L 120.27746 -107.372091 
L 120.716104 -107.781912 
L 121.154748 -108.191618 
L 121.593392 -108.601212 
L 122.032036 -109.010691 
L 122.47068 -109.420056 
L 122.909324 -109.829307 
L 123.347969 -110.238444 
L 123.786613 -110.647467 
L 124.225257 -111.056375 
L 124.663901 -111.46517 
L 125.102545 -111.87385 
L 125.541189 -112.282416 
L 125.979833 -112.690869 
L 126.418477 -113.099208 
L 126.857121 -113.507433 
L 127.295765 -113.915545 
L 127.734409 -114.323544 
L 128.173053 -114.73143 
L 128.611698 -115.139204 
L 129.050342 -115.546866 
L 129.488986 -115.954416 
L 129.92763 -116.361855 
L 130.366274 -116.769184 
L 130.804918 -117.176402 
L 131.243562 -117.58351 
L 131.682206 -117.99051 
L 132.12085 -118.3974 
L 132.559494 -118.804183 
L 132.998138 -119.210858 
L 133.436782 -119.617427 
L 133.875427 -120.023889 
L 134.314071 -120.430246 
L 134.752715 -120.836499 
L 135.191359 -121.242647 
L 135.630003 -121.648692 
L 136.068647 -122.054635 
L 136.507291 -122.460476 
L 136.945935 -122.866216 
L 137.384579 -123.271857 
L 137.823223 -123.677398 
L 138.261867 -124.08284 
L 138.700511 -124.488186 
L 139.139156 -124.893434 
L 139.5778 -125.298588 
L 140.016444 -125.703646 
L 140.455088 -126.10861 
L 140.893732 -126.513482 
L 141.332376 -126.918262 
L 141.77102 -127.32295 
L 142.209664 -127.727549 
L 142.648308 -128.132058 
L 143.086952 -128.536479 
L 143.525596 -128.940813 
L 143.96424 -129.345061 
L 144.402885 -129.749224 
L 144.841529 -130.153302 
L 145.280173 -130.557297 
L 145.718817 -130.961209 
L 146.157461 -131.365041 
L 146.596105 -131.768791 
L 147.034749 -132.172463 
L 147.473393 -132.576056 
L 147.912037 -132.979571 
L 148.350681 -133.383011 
L 148.789325 -133.786374 
L 149.227969 -134.189663 
L 149.666614 -134.592879 
L 150.105258 -134.996022 
L 150.543902 -135.399093 
L 150.982546 -135.802093 
L 151.42119 -136.205024 
L 151.859834 -136.607886 
L 152.298478 -137.010679 
L 152.737122 -137.413406 
L 153.175766 -137.816067 
L 153.61441 -138.218663 
L 154.053054 -138.621194 
L 154.491698 -139.023662 
L 154.930343 -139.426067 
L 155.368987 -139.828411 
L 155.807631 -140.230694 
L 156.246275 -140.632917 
L 156.684919 -141.035081 
L 157.123563 -141.437187 
L 157.562207 -141.839236 
L 158.000851 -142.241228 
L 158.439495 -142.643164 
L 158.878139 -143.045045 
L 159.316783 -143.446872 
L 159.755427 -143.848646 
L 160.194072 -144.250367 
L 160.632716 -144.652036 
L 161.07136 -145.053655 
L 161.510004 -145.455223 
L 161.948648 -145.856741 
L 162.387292 -146.258211 
L 162.825936 -146.659632 
L 163.26458 -147.061006 
L 163.703224 -147.462334 
L 164.141868 -147.863615 
L 164.580512 -148.264851 
L 165.019156 -148.666043 
L 165.457801 -149.06719 
L 165.896445 -149.468294 
L 166.335089 -149.869355 
L 166.773733 -150.270375 
L 167.212377 -150.671352 
L 167.651021 -151.072289 
L 168.089665 -151.473186 
L 168.528309 -151.874043 
L 168.966953 -152.274861 
L 169.405597 -152.675641 
L 169.844241 -153.076383 
L 170.282885 -153.477087 
L 170.72153 -153.877755 
L 171.160174 -154.278386 
L 171.598818 -154.678982 
L 172.037462 -155.079542 
L 172.476106 -155.480068 
L 172.91475 -155.88056 
L 173.353394 -156.281018 
L 173.792038 -156.681443 
L 174.230682 -157.081835 
L 174.669326 -157.482196 
L 175.10797 -157.882524 
L 175.546615 -158.282821 
L 175.985259 -158.683088 
L 176.423903 -159.083324 
L 176.862547 -159.483531 
L 177.301191 -159.883707 
L 177.739835 -160.283855 
L 178.178479 -160.683975 
L 178.617123 -161.084066 
L 179.055767 -161.484129 
L 179.494411 -161.884165 
L 179.933055 -162.284174 
L 180.371699 -162.684157 
L 180.810344 -163.084113 
L 181.248988 -163.484043 
L 181.687632 -163.883948 
L 182.126276 -164.283828 
L 182.56492 -164.683683 
L 183.003564 -165.083514 
L 183.442208 -165.483321 
L 183.880852 -165.883104 
L 184.319496 -166.282864 
L 184.75814 -166.6826 
L 185.196784 -167.082314 
L 185.635428 -167.482006 
L 186.074073 -167.881676 
L 186.512717 -168.281324 
L 186.951361 -168.68095 
L 187.390005 -169.080555 
L 187.828649 -169.48014 
L 188.267293 -169.879703 
L 188.705937 -170.279247 
L 189.144581 -170.67877 
L 189.144581 -174.800284 
L 189.144581 -174.800284 
L 188.705937 -174.381762 
L 188.267293 -173.96326 
L 187.828649 -173.544778 
L 187.390005 -173.126317 
L 186.951361 -172.707877 
L 186.512717 -172.289458 
L 186.074073 -171.87106 
L 185.635428 -171.452684 
L 185.196784 -171.03433 
L 184.75814 -170.615999 
L 184.319496 -170.19769 
L 183.880852 -169.779404 
L 183.442208 -169.361142 
L 183.003564 -168.942903 
L 182.56492 -168.524688 
L 182.126276 -168.106498 
L 181.687632 -167.688333 
L 181.248988 -167.270192 
L 180.810344 -166.852077 
L 180.371699 -166.433988 
L 179.933055 -166.015925 
L 179.494411 -165.597888 
L 179.055767 -165.179879 
L 178.617123 -164.761896 
L 178.178479 -164.343942 
L 177.739835 -163.926016 
L 177.301191 -163.508118 
L 176.862547 -163.09025 
L 176.423903 -162.67241 
L 175.985259 -162.254601 
L 175.546615 -161.836822 
L 175.10797 -161.419074 
L 174.669326 -161.001357 
L 174.230682 -160.583672 
L 173.792038 -160.166018 
L 173.353394 -159.748398 
L 172.91475 -159.33081 
L 172.476106 -158.913257 
L 172.037462 -158.495737 
L 171.598818 -158.078252 
L 171.160174 -157.660802 
L 170.72153 -157.243388 
L 170.282885 -156.82601 
L 169.844241 -156.408669 
L 169.405597 -155.991365 
L 168.966953 -155.5741 
L 168.528309 -155.156872 
L 168.089665 -154.739684 
L 167.651021 -154.322535 
L 167.212377 -153.905426 
L 166.773733 -153.488359 
L 166.335089 -153.071332 
L 165.896445 -152.654348 
L 165.457801 -152.237407 
L 165.019156 -151.820509 
L 164.580512 -151.403654 
L 164.141868 -150.986845 
L 163.703224 -150.570081 
L 163.26458 -150.153363 
L 162.825936 -149.736691 
L 162.387292 -149.320067 
L 161.948648 -148.903491 
L 161.510004 -148.486964 
L 161.07136 -148.070487 
L 160.632716 -147.65406 
L 160.194072 -147.237683 
L 159.755427 -146.821359 
L 159.316783 -146.405087 
L 158.878139 -145.988869 
L 158.439495 -145.572705 
L 158.000851 -145.156595 
L 157.562207 -144.740542 
L 157.123563 -144.324545 
L 156.684919 -143.908605 
L 156.246275 -143.492724 
L 155.807631 -143.076901 
L 155.368987 -142.661139 
L 154.930343 -142.245437 
L 154.491698 -141.829797 
L 154.053054 -141.414219 
L 153.61441 -140.998705 
L 153.175766 -140.583255 
L 152.737122 -140.16787 
L 152.298478 -139.752552 
L 151.859834 -139.3373 
L 151.42119 -138.922116 
L 150.982546 -138.507002 
L 150.543902 -138.091956 
L 150.105258 -137.676982 
L 149.666614 -137.262079 
L 149.227969 -136.847249 
L 148.789325 -136.432493 
L 148.350681 -136.017811 
L 147.912037 -135.603205 
L 147.473393 -135.188675 
L 147.034749 -134.774222 
L 146.596105 -134.359848 
L 146.157461 -133.945553 
L 145.718817 -133.531339 
L 145.280173 -133.117206 
L 144.841529 -132.703156 
L 144.402885 -132.289188 
L 143.96424 -131.875305 
L 143.525596 -131.461508 
L 143.086952 -131.047796 
L 142.648308 -130.634172 
L 142.209664 -130.220636 
L 141.77102 -129.807189 
L 141.332376 -129.393832 
L 140.893732 -128.980566 
L 140.455088 -128.567392 
L 140.016444 -128.154311 
L 139.5778 -127.741324 
L 139.139156 -127.328431 
L 138.700511 -126.915635 
L 138.261867 -126.502934 
L 137.823223 -126.090332 
L 137.384579 -125.677827 
L 136.945935 -125.265422 
L 136.507291 -124.853117 
L 136.068647 -124.440912 
L 135.630003 -124.028809 
L 135.191359 -123.616809 
L 134.752715 -123.204912 
L 134.314071 -122.793119 
L 133.875427 -122.38143 
L 133.436782 -121.969847 
L 132.998138 -121.55837 
L 132.559494 -121.147 
L 132.12085 -120.735737 
L 131.682206 -120.324582 
L 131.243562 -119.913536 
L 130.804918 -119.502599 
L 130.366274 -119.091772 
L 129.92763 -118.681055 
L 129.488986 -118.270448 
L 129.050342 -117.859953 
L 128.611698 -117.44957 
L 128.173053 -117.039298 
L 127.734409 -116.629139 
L 127.295765 -116.219092 
L 126.857121 -115.809159 
L 126.418477 -115.399338 
L 125.979833 -114.989632 
L 125.541189 -114.580038 
L 125.102545 -114.170559 
L 124.663901 -113.761194 
L 124.225257 -113.351943 
L 123.786613 -112.942806 
L 123.347969 -112.533783 
L 122.909324 -112.124875 
L 122.47068 -111.71608 
L 122.032036 -111.3074 
L 121.593392 -110.898834 
L 121.154748 -110.490381 
L 120.716104 -110.082042 
L 120.27746 -109.673817 
L 119.838816 -109.265705 
L 119.400172 -108.857706 
L 118.961528 -108.44982 
L 118.522884 -108.042046 
L 118.08424 -107.634384 
L 117.645595 -107.226834 
L 117.206951 -106.819395 
L 116.768307 -106.412066 
L 116.329663 -106.004848 
L 115.891019 -105.59774 
L 115.452375 -105.19074 
L 115.013731 -104.783849 
L 114.575087 -104.377067 
L 114.136443 -103.970392 
L 113.697799 -103.563823 
L 113.259155 -103.157361 
L 112.82051 -102.751004 
L 112.381866 -102.344751 
L 111.943222 -101.938603 
L 111.504578 -101.532558 
L 111.065934 -101.126615 
L 110.62729 -100.720774 
L 110.188646 -100.315034 
L 109.750002 -99.909393 
L 109.311358 -99.503852 
L 108.872714 -99.09841 
L 108.43407 -98.693064 
L 107.995426 -98.287815 
L 107.556781 -97.882662 
L 107.118137 -97.477604 
L 106.679493 -97.07264 
L 106.240849 -96.667768 
L 105.802205 -96.262988 
L 105.363561 -95.8583 
L 104.924917 -95.453701 
L 104.486273 -95.049192 
L 104.047629 -94.644771 
L 103.608985 -94.240437 
L 103.170341 -93.836189 
L 102.731697 -93.432026 
L 102.293052 -93.027948 
L 101.854408 -92.623953 
L 101.415764 -92.220041 
L 100.97712 -91.816209 
L 100.538476 -91.412459 
L 100.099832 -91.008787 
L 99.661188 -90.605194 
L 99.222544 -90.201679 
L 98.7839 -89.798239 
L 98.345256 -89.394876 
L 97.906612 -88.991587 
L 97.467968 -88.588371 
L 97.029323 -88.185228 
L 96.590679 -87.782157 
L 96.152035 -87.379157 
L 95.713391 -86.976226 
L 95.274747 -86.573364 
L 94.836103 -86.170571 
L 94.397459 -85.767844 
L 93.958815 -85.365183 
L 93.520171 -84.962587 
L 93.081527 -84.560056 
L 92.642883 -84.157588 
L 92.204239 -83.755183 
L 91.765594 -83.352839 
L 91.32695 -82.950556 
L 90.888306 -82.548333 
L 90.449662 -82.146169 
L 90.011018 -81.744063 
L 89.572374 -81.342014 
L 89.13373 -80.940022 
L 88.695086 -80.538086 
L 88.256442 -80.136205 
L 87.817798 -79.734378 
L 87.379154 -79.332604 
L 86.94051 -78.930883 
L 86.501865 -78.529214 
L 86.063221 -78.127595 
L 85.624577 -77.726027 
L 85.185933 -77.324509 
L 84.747289 -76.923039 
L 84.308645 -76.521618 
L 83.870001 -76.120244 
L 83.431357 -75.718916 
L 82.992713 -75.317635 
L 82.554069 -74.916399 
L 82.115425 -74.515207 
L 81.676781 -74.11406 
L 81.238136 -73.712956 
L 80.799492 -73.311895 
L 80.360848 -72.910875 
L 79.922204 -72.509898 
L 79.48356 -72.108961 
L 79.044916 -71.708064 
L 78.606272 -71.307207 
L 78.167628 -70.906389 
L 77.728984 -70.505609 
L 77.29034 -70.104867 
L 76.851696 -69.704163 
L 76.413052 -69.303495 
L 75.974407 -68.902864 
L 75.535763 -68.502268 
L 75.097119 -68.101708 
L 74.658475 -67.701182 
L 74.219831 -67.30069 
L 73.781187 -66.900232 
L 73.342543 -66.499807 
L 72.903899 -66.099415 
L 72.465255 -65.699054 
L 72.026611 -65.298726 
L 71.587967 -64.898429 
L 71.149323 -64.498162 
L 70.710678 -64.097926 
L 70.272034 -63.697719 
L 69.83339 -63.297543 
L 69.394746 -62.897395 
L 68.956102 -62.497275 
L 68.517458 -62.097184 
L 68.078814 -61.697121 
L 67.64017 -61.297085 
L 67.201526 -60.897076 
L 66.762882 -60.497093 
L 66.324238 -60.097137 
L 65.885594 -59.697207 
L 65.446949 -59.297302 
L 65.008305 -58.897422 
L 64.569661 -58.497567 
L 64.131017 -58.097736 
L 63.692373 -57.697929 
L 63.253729 -57.298146 
L 62.815085 -56.898386 
L 62.376441 -56.49865 
L 61.937797 -56.098936 
L 61.499153 -55.699244 
L 61.060509 -55.299574 
L 60.621865 -54.899926 
L 60.18322 -54.5003 
L 59.744576 -54.100695 
L 59.305932 -53.70111 
L 58.867288 -53.301547 
L 58.428644 -52.902003 
L 57.99 -52.50248 
z
"/>
    </defs>
    <g clip-path="url(#p0a85b2c80a)">
     <use xlink:href="#m98172196cd" x="0" y="237.6" style="fill: #4682b4; fill-opacity: 0.5"/>
    </g>
   </g>
   <g id="matplotlib.axis_1">
    <g id="xtick_1">
     <g id="line2d_1">
      <defs>
       <path id="m636969ddb0" d="M 0 0 
L 0 -3.5 
" style="stroke: #000000; stroke-width: 0.8"/>
      </defs>
      <g>
       <use xlink:href="#m636969ddb0" x="63.951572" y="195.54" style="stroke: #000000; stroke-width: 0.8"/>
      </g>
     </g>
     <g id="text_1">
      <!-- 0 -->
      <g transform="translate(60.615009 207.648125) scale(0.12 -0.12)">
       <defs>
        <path id="Helvetica-30" d="M 1731 4475 
Q 2600 4475 2988 3759 
Q 3288 3206 3288 2244 
Q 3288 1331 3016 734 
Q 2622 -122 1728 -122 
Q 922 -122 528 578 
Q 200 1163 200 2147 
Q 200 2909 397 3456 
Q 766 4475 1731 4475 
z
M 1725 391 
Q 2163 391 2422 778 
Q 2681 1166 2681 2222 
Q 2681 2984 2493 3476 
Q 2306 3969 1766 3969 
Q 1269 3969 1039 3501 
Q 809 3034 809 2125 
Q 809 1441 956 1025 
Q 1181 391 1725 391 
z
" transform="scale(0.015625)"/>
       </defs>
       <use xlink:href="#Helvetica-30"/>
      </g>
     </g>
    </g>
    <g id="xtick_2">
     <g id="line2d_2">
      <g>
       <use xlink:href="#m636969ddb0" x="123.567291" y="195.54" style="stroke: #000000; stroke-width: 0.8"/>
      </g>
     </g>
     <g id="text_2">
      <!-- 50 -->
      <g transform="translate(116.894166 207.648125) scale(0.12 -0.12)">
       <defs>
        <path id="Helvetica-35" d="M 791 1141 
Q 847 659 1238 475 
Q 1438 381 1700 381 
Q 2200 381 2440 700 
Q 2681 1019 2681 1406 
Q 2681 1875 2395 2131 
Q 2109 2388 1709 2388 
Q 1419 2388 1211 2275 
Q 1003 2163 856 1963 
L 369 1991 
L 709 4400 
L 3034 4400 
L 3034 3856 
L 1131 3856 
L 941 2613 
Q 1097 2731 1238 2791 
Q 1488 2894 1816 2894 
Q 2431 2894 2859 2497 
Q 3288 2100 3288 1491 
Q 3288 856 2895 371 
Q 2503 -113 1644 -113 
Q 1097 -113 676 195 
Q 256 503 206 1141 
L 791 1141 
z
" transform="scale(0.015625)"/>
       </defs>
       <use xlink:href="#Helvetica-35"/>
       <use xlink:href="#Helvetica-30" x="55.615234"/>
      </g>
     </g>
    </g>
    <g id="xtick_3">
     <g id="line2d_3">
      <g>
       <use xlink:href="#m636969ddb0" x="183.183009" y="195.54" style="stroke: #000000; stroke-width: 0.8"/>
      </g>
     </g>
     <g id="text_3">
      <!-- 100 -->
      <g transform="translate(173.173322 207.648125) scale(0.12 -0.12)">
       <defs>
        <path id="Helvetica-31" d="M 613 3169 
L 613 3600 
Q 1222 3659 1462 3798 
Q 1703 3938 1822 4456 
L 2266 4456 
L 2266 0 
L 1666 0 
L 1666 3169 
L 613 3169 
z
" transform="scale(0.015625)"/>
       </defs>
       <use xlink:href="#Helvetica-31"/>
       <use xlink:href="#Helvetica-30" x="55.615234"/>
       <use xlink:href="#Helvetica-30" x="111.230469"/>
      </g>
     </g>
    </g>
    <g id="text_4">
     <!-- P% -->
     <g transform="translate(114.229791 222.7575) scale(0.12 -0.12)">
      <defs>
       <path id="Helvetica-50" d="M 547 4591 
L 2613 4591 
Q 3225 4591 3600 4245 
Q 3975 3900 3975 3275 
Q 3975 2738 3640 2339 
Q 3306 1941 2613 1941 
L 1169 1941 
L 1169 0 
L 547 0 
L 547 4591 
z
M 3347 3272 
Q 3347 3778 2972 3959 
Q 2766 4056 2406 4056 
L 1169 4056 
L 1169 2466 
L 2406 2466 
Q 2825 2466 3086 2644 
Q 3347 2822 3347 3272 
z
" transform="scale(0.015625)"/>
       <path id="Helvetica-25" d="M 4363 2175 
Q 4813 2175 5131 1856 
Q 5450 1538 5450 1088 
Q 5450 638 5131 319 
Q 4813 0 4363 0 
Q 3909 0 3590 319 
Q 3272 638 3272 1088 
Q 3272 1538 3590 1856 
Q 3909 2175 4363 2175 
z
M 3909 4456 
L 4256 4456 
L 1753 -119 
L 1406 -119 
L 3909 4456 
z
M 1294 2606 
Q 1563 2606 1752 2795 
Q 1941 2984 1941 3250 
Q 1941 3516 1752 3705 
Q 1563 3894 1294 3894 
Q 1028 3894 839 3706 
Q 650 3519 650 3250 
Q 650 2984 839 2795 
Q 1028 2606 1294 2606 
z
M 1294 4341 
Q 1747 4341 2065 4020 
Q 2384 3700 2384 3250 
Q 2384 2800 2065 2481 
Q 1747 2163 1294 2163 
Q 844 2163 525 2481 
Q 206 2800 206 3250 
Q 206 3700 525 4020 
Q 844 4341 1294 4341 
z
M 4363 444 
Q 4628 444 4817 633 
Q 5006 822 5006 1088 
Q 5006 1353 4817 1542 
Q 4628 1731 4363 1731 
Q 4094 1731 3905 1542 
Q 3716 1353 3716 1088 
Q 3716 822 3905 633 
Q 4094 444 4363 444 
z
" transform="scale(0.015625)"/>
      </defs>
      <use xlink:href="#Helvetica-50"/>
      <use xlink:href="#Helvetica-25" x="66.699219"/>
     </g>
    </g>
   </g>
   <g id="matplotlib.axis_2">
    <g id="ytick_1">
     <g id="line2d_4">
      <defs>
       <path id="md77ffe7d4a" d="M 0 0 
L 3.5 0 
" style="stroke: #000000; stroke-width: 0.8"/>
      </defs>
      <g>
       <use xlink:href="#md77ffe7d4a" x="57.99" y="187.235259" style="stroke: #000000; stroke-width: 0.8"/>
      </g>
     </g>
     <g id="text_5">
      <!-- 0 -->
      <g transform="translate(47.816875 191.539321) scale(0.12 -0.12)">
       <use xlink:href="#Helvetica-30"/>
      </g>
     </g>
    </g>
    <g id="ytick_2">
     <g id="line2d_5">
      <g>
       <use xlink:href="#md77ffe7d4a" x="57.99" y="149.330156" style="stroke: #000000; stroke-width: 0.8"/>
      </g>
     </g>
     <g id="text_6">
      <!-- 1000 -->
      <g transform="translate(27.7975 153.634219) scale(0.12 -0.12)">
       <use xlink:href="#Helvetica-31"/>
       <use xlink:href="#Helvetica-30" x="55.615234"/>
       <use xlink:href="#Helvetica-30" x="111.230469"/>
       <use xlink:href="#Helvetica-30" x="166.845703"/>
      </g>
     </g>
    </g>
    <g id="ytick_3">
     <g id="line2d_6">
      <g>
       <use xlink:href="#md77ffe7d4a" x="57.99" y="111.425054" style="stroke: #000000; stroke-width: 0.8"/>
      </g>
     </g>
     <g id="text_7">
      <!-- 2000 -->
      <g transform="translate(27.7975 115.729116) scale(0.12 -0.12)">
       <defs>
        <path id="Helvetica-32" d="M 200 0 
Q 231 578 439 1006 
Q 647 1434 1250 1784 
L 1850 2131 
Q 2253 2366 2416 2531 
Q 2672 2791 2672 3125 
Q 2672 3516 2437 3745 
Q 2203 3975 1813 3975 
Q 1234 3975 1013 3538 
Q 894 3303 881 2888 
L 309 2888 
Q 319 3472 525 3841 
Q 891 4491 1816 4491 
Q 2584 4491 2939 4075 
Q 3294 3659 3294 3150 
Q 3294 2613 2916 2231 
Q 2697 2009 2131 1694 
L 1703 1456 
Q 1397 1288 1222 1134 
Q 909 863 828 531 
L 3272 531 
L 3272 0 
L 200 0 
z
" transform="scale(0.015625)"/>
       </defs>
       <use xlink:href="#Helvetica-32"/>
       <use xlink:href="#Helvetica-30" x="55.615234"/>
       <use xlink:href="#Helvetica-30" x="111.230469"/>
       <use xlink:href="#Helvetica-30" x="166.845703"/>
      </g>
     </g>
    </g>
    <g id="ytick_4">
     <g id="line2d_7">
      <g>
       <use xlink:href="#md77ffe7d4a" x="57.99" y="73.519951" style="stroke: #000000; stroke-width: 0.8"/>
      </g>
     </g>
     <g id="text_8">
      <!-- 3000 -->
      <g transform="translate(27.7975 77.824014) scale(0.12 -0.12)">
       <defs>
        <path id="Helvetica-33" d="M 1663 -122 
Q 869 -122 511 314 
Q 153 750 153 1375 
L 741 1375 
Q 778 941 903 744 
Q 1122 391 1694 391 
Q 2138 391 2406 628 
Q 2675 866 2675 1241 
Q 2675 1703 2392 1887 
Q 2109 2072 1606 2072 
Q 1550 2072 1492 2070 
Q 1434 2069 1375 2066 
L 1375 2563 
Q 1463 2553 1522 2550 
Q 1581 2547 1650 2547 
Q 1966 2547 2169 2647 
Q 2525 2822 2525 3272 
Q 2525 3606 2287 3787 
Q 2050 3969 1734 3969 
Q 1172 3969 956 3594 
Q 838 3388 822 3006 
L 266 3006 
Q 266 3506 466 3856 
Q 809 4481 1675 4481 
Q 2359 4481 2734 4176 
Q 3109 3872 3109 3294 
Q 3109 2881 2888 2625 
Q 2750 2466 2531 2375 
Q 2884 2278 3082 2001 
Q 3281 1725 3281 1325 
Q 3281 684 2859 281 
Q 2438 -122 1663 -122 
z
" transform="scale(0.015625)"/>
       </defs>
       <use xlink:href="#Helvetica-33"/>
       <use xlink:href="#Helvetica-30" x="55.615234"/>
       <use xlink:href="#Helvetica-30" x="111.230469"/>
       <use xlink:href="#Helvetica-30" x="166.845703"/>
      </g>
     </g>
    </g>
    <g id="text_9">
     <!-- GFP/OD -->
     <g transform="translate(21.29625 149.01) rotate(-90) scale(0.12 -0.12)">
      <defs>
       <path id="Helvetica-47" d="M 2472 4709 
Q 3119 4709 3591 4459 
Q 4275 4100 4428 3200 
L 3813 3200 
Q 3700 3703 3347 3933 
Q 2994 4163 2456 4163 
Q 1819 4163 1383 3684 
Q 947 3206 947 2259 
Q 947 1441 1306 927 
Q 1666 413 2478 413 
Q 3100 413 3508 773 
Q 3916 1134 3925 1941 
L 2488 1941 
L 2488 2456 
L 4503 2456 
L 4503 0 
L 4103 0 
L 3953 591 
Q 3638 244 3394 109 
Q 2984 -122 2353 -122 
Q 1538 -122 950 406 
Q 309 1069 309 2225 
Q 309 3378 934 4059 
Q 1528 4709 2472 4709 
z
M 2369 4716 
L 2369 4716 
z
" transform="scale(0.015625)"/>
       <path id="Helvetica-46" d="M 547 4591 
L 3731 4591 
L 3731 4028 
L 1169 4028 
L 1169 2634 
L 3422 2634 
L 3422 2088 
L 1169 2088 
L 1169 0 
L 547 0 
L 547 4591 
z
" transform="scale(0.015625)"/>
       <path id="Helvetica-2f" d="M 1456 4591 
L 1931 4591 
L 475 0 
L 0 0 
L 1456 4591 
z
" transform="scale(0.015625)"/>
       <path id="Helvetica-4f" d="M 2469 4716 
Q 3684 4716 4269 3934 
Q 4725 3325 4725 2375 
Q 4725 1347 4203 666 
Q 3591 -134 2456 -134 
Q 1397 -134 791 566 
Q 250 1241 250 2272 
Q 250 3203 713 3866 
Q 1306 4716 2469 4716 
z
M 2531 422 
Q 3353 422 3720 1011 
Q 4088 1600 4088 2366 
Q 4088 3175 3664 3669 
Q 3241 4163 2506 4163 
Q 1794 4163 1344 3673 
Q 894 3184 894 2231 
Q 894 1469 1280 945 
Q 1666 422 2531 422 
z
M 2488 4716 
L 2488 4716 
z
" transform="scale(0.015625)"/>
       <path id="Helvetica-44" d="M 2250 531 
Q 2566 531 2769 597 
Q 3131 719 3363 1066 
Q 3547 1344 3628 1778 
Q 3675 2038 3675 2259 
Q 3675 3113 3336 3584 
Q 2997 4056 2244 4056 
L 1141 4056 
L 1141 531 
L 2250 531 
z
M 516 4591 
L 2375 4591 
Q 3322 4591 3844 3919 
Q 4309 3313 4309 2366 
Q 4309 1634 4034 1044 
Q 3550 0 2369 0 
L 516 0 
L 516 4591 
z
" transform="scale(0.015625)"/>
      </defs>
      <use xlink:href="#Helvetica-47"/>
      <use xlink:href="#Helvetica-46" x="77.783203"/>
      <use xlink:href="#Helvetica-50" x="138.867188"/>
      <use xlink:href="#Helvetica-2f" x="205.566406"/>
      <use xlink:href="#Helvetica-4f" x="233.349609"/>
      <use xlink:href="#Helvetica-44" x="311.132812"/>
     </g>
    </g>
   </g>
   <g id="line2d_8">
    <path d="M 57.99 187.158277 
L 189.144581 64.860473 
L 189.144581 64.860473 
" clip-path="url(#p0a85b2c80a)" style="fill: none; stroke: #000000; stroke-linecap: square"/>
   </g>
   <g id="patch_3">
    <path d="M 57.99 195.54 
L 57.99 56.47875 
" style="fill: none; stroke: #000000; stroke-width: 0.8; stroke-linejoin: miter; stroke-linecap: square"/>
   </g>
   <g id="patch_4">
    <path d="M 189.144581 195.54 
L 189.144581 56.47875 
" style="fill: none; stroke: #000000; stroke-width: 0.8; stroke-linejoin: miter; stroke-linecap: square"/>
   </g>
   <g id="patch_5">
    <path d="M 57.99 195.54 
L 189.144581 195.54 
" style="fill: none; stroke: #000000; stroke-width: 0.8; stroke-linejoin: miter; stroke-linecap: square"/>
   </g>
   <g id="patch_6">
    <path d="M 57.99 56.47875 
L 189.144581 56.47875 
" style="fill: none; stroke: #000000; stroke-width: 0.8; stroke-linejoin: miter; stroke-linecap: square"/>
   </g>
   <g id="text_10">
    <!--  -->
    <g transform="translate(71.105458 61.338975) scale(0.12 -0.12)"/>
    <!-- y = 29 x + 149 -->
    <g transform="translate(71.105458 74.169975) scale(0.12 -0.12)">
     <defs>
      <path id="Helvetica-79" d="M 2503 3347 
L 3125 3347 
Q 3006 3025 2597 1878 
Q 2291 1016 2084 472 
Q 1597 -809 1397 -1090 
Q 1197 -1372 709 -1372 
Q 591 -1372 527 -1362 
Q 463 -1353 369 -1328 
L 369 -816 
Q 516 -856 581 -865 
Q 647 -875 697 -875 
Q 853 -875 926 -823 
Q 1000 -772 1050 -697 
Q 1066 -672 1162 -440 
Q 1259 -209 1303 -97 
L 66 3347 
L 703 3347 
L 1600 622 
L 2503 3347 
z
M 1597 3428 
L 1597 3428 
z
" transform="scale(0.015625)"/>
      <path id="Helvetica-20" transform="scale(0.015625)"/>
      <path id="Helvetica-3d" d="M 3547 2569 
L 3547 2044 
L 288 2044 
L 288 2569 
L 3547 2569 
z
M 3547 1228 
L 3547 694 
L 288 694 
L 288 1228 
L 3547 1228 
z
" transform="scale(0.015625)"/>
      <path id="Helvetica-39" d="M 850 1081 
Q 875 616 1209 438 
Q 1381 344 1597 344 
Q 2000 344 2284 680 
Q 2569 1016 2688 2044 
Q 2500 1747 2223 1626 
Q 1947 1506 1628 1506 
Q 981 1506 604 1909 
Q 228 2313 228 2947 
Q 228 3556 600 4018 
Q 972 4481 1697 4481 
Q 2675 4481 3047 3600 
Q 3253 3116 3253 2388 
Q 3253 1566 3006 931 
Q 2597 -125 1619 -125 
Q 963 -125 622 219 
Q 281 563 281 1081 
L 850 1081 
z
M 1703 2000 
Q 2038 2000 2314 2220 
Q 2591 2441 2591 2991 
Q 2591 3484 2342 3726 
Q 2094 3969 1709 3969 
Q 1297 3969 1055 3692 
Q 813 3416 813 2953 
Q 813 2516 1025 2258 
Q 1238 2000 1703 2000 
z
" transform="scale(0.015625)"/>
      <path id="Helvetica-78" d="M 94 3347 
L 822 3347 
L 1591 2169 
L 2369 3347 
L 3053 3331 
L 1925 1716 
L 3103 0 
L 2384 0 
L 1553 1256 
L 747 0 
L 34 0 
L 1213 1716 
L 94 3347 
z
" transform="scale(0.015625)"/>
      <path id="Helvetica-2b" d="M 288 1369 
L 288 1894 
L 1650 1894 
L 1650 3266 
L 2184 3266 
L 2184 1894 
L 3547 1894 
L 3547 1369 
L 2184 1369 
L 2184 0 
L 1650 0 
L 1650 1369 
L 288 1369 
z
" transform="scale(0.015625)"/>
      <path id="Helvetica-34" d="M 2116 1584 
L 2116 3613 
L 681 1584 
L 2116 1584 
z
M 2125 0 
L 2125 1094 
L 163 1094 
L 163 1644 
L 2213 4488 
L 2688 4488 
L 2688 1584 
L 3347 1584 
L 3347 1094 
L 2688 1094 
L 2688 0 
L 2125 0 
z
" transform="scale(0.015625)"/>
     </defs>
     <use xlink:href="#Helvetica-79"/>
     <use xlink:href="#Helvetica-20" x="50"/>
     <use xlink:href="#Helvetica-3d" x="77.783203"/>
     <use xlink:href="#Helvetica-20" x="136.181641"/>
     <use xlink:href="#Helvetica-32" x="163.964844"/>
     <use xlink:href="#Helvetica-39" x="219.580078"/>
     <use xlink:href="#Helvetica-20" x="275.195312"/>
     <use xlink:href="#Helvetica-78" x="302.978516"/>
     <use xlink:href="#Helvetica-20" x="352.978516"/>
     <use xlink:href="#Helvetica-2b" x="380.761719"/>
     <use xlink:href="#Helvetica-20" x="439.160156"/>
     <use xlink:href="#Helvetica-31" x="466.943359"/>
     <use xlink:href="#Helvetica-34" x="522.558594"/>
     <use xlink:href="#Helvetica-39" x="578.173828"/>
    </g>
    <!-- R$^2$ = 1.000 -->
    <g transform="translate(71.105458 87.072225) scale(0.12 -0.12)">
     <defs>
      <path id="Helvetica-52" d="M 2622 2488 
Q 3059 2488 3314 2663 
Q 3569 2838 3569 3294 
Q 3569 3784 3213 3963 
Q 3022 4056 2703 4056 
L 1184 4056 
L 1184 2488 
L 2622 2488 
z
M 563 4591 
L 2688 4591 
Q 3213 4591 3553 4438 
Q 4200 4144 4200 3353 
Q 4200 2941 4029 2678 
Q 3859 2416 3553 2256 
Q 3822 2147 3958 1969 
Q 4094 1791 4109 1391 
L 4131 775 
Q 4141 513 4175 384 
Q 4231 166 4375 103 
L 4375 0 
L 3613 0 
Q 3581 59 3562 153 
Q 3544 247 3531 516 
L 3494 1281 
Q 3472 1731 3159 1884 
Q 2981 1969 2600 1969 
L 1184 1969 
L 1184 0 
L 563 0 
L 563 4591 
z
" transform="scale(0.015625)"/>
      <path id="Helvetica-2e" d="M 547 681 
L 1200 681 
L 1200 0 
L 547 0 
L 547 681 
z
" transform="scale(0.015625)"/>
     </defs>
     <use xlink:href="#Helvetica-52" transform="translate(0 0.271875)"/>
     <use xlink:href="#Helvetica-32" transform="translate(73.131992 36.879688) scale(0.7)"/>
     <use xlink:href="#Helvetica-20" transform="translate(114.6775 0.271875)"/>
     <use xlink:href="#Helvetica-3d" transform="translate(142.460703 0.271875)"/>
     <use xlink:href="#Helvetica-20" transform="translate(200.859141 0.271875)"/>
     <use xlink:href="#Helvetica-31" transform="translate(228.642344 0.271875)"/>
     <use xlink:href="#Helvetica-2e" transform="translate(284.257578 0.271875)"/>
     <use xlink:href="#Helvetica-30" transform="translate(312.040781 0.271875)"/>
     <use xlink:href="#Helvetica-30" transform="translate(367.656016 0.271875)"/>
     <use xlink:href="#Helvetica-30" transform="translate(423.27125 0.271875)"/>
    </g>
   </g>
   <g id="text_11">
    <!-- pSC101 -->
    <g transform="translate(97.549416 50.47875) scale(0.144 -0.144)">
     <defs>
      <path id="Helvetica-70" d="M 1825 378 
Q 2219 378 2480 708 
Q 2741 1038 2741 1694 
Q 2741 2094 2625 2381 
Q 2406 2934 1825 2934 
Q 1241 2934 1025 2350 
Q 909 2038 909 1556 
Q 909 1169 1025 897 
Q 1244 378 1825 378 
z
M 369 3331 
L 916 3331 
L 916 2888 
Q 1084 3116 1284 3241 
Q 1569 3428 1953 3428 
Q 2522 3428 2919 2992 
Q 3316 2556 3316 1747 
Q 3316 653 2744 184 
Q 2381 -113 1900 -113 
Q 1522 -113 1266 53 
Q 1116 147 931 375 
L 931 -1334 
L 369 -1334 
L 369 3331 
z
" transform="scale(0.015625)"/>
      <path id="Helvetica-53" d="M 894 1481 
Q 916 1091 1078 847 
Q 1388 391 2169 391 
Q 2519 391 2806 491 
Q 3363 684 3363 1184 
Q 3363 1559 3128 1719 
Q 2891 1875 2384 1991 
L 1763 2131 
Q 1153 2269 900 2434 
Q 463 2722 463 3294 
Q 463 3913 891 4309 
Q 1319 4706 2103 4706 
Q 2825 4706 3329 4357 
Q 3834 4009 3834 3244 
L 3250 3244 
Q 3203 3613 3050 3809 
Q 2766 4169 2084 4169 
Q 1534 4169 1293 3937 
Q 1053 3706 1053 3400 
Q 1053 3063 1334 2906 
Q 1519 2806 2169 2656 
L 2813 2509 
Q 3278 2403 3531 2219 
Q 3969 1897 3969 1284 
Q 3969 522 3414 194 
Q 2859 -134 2125 -134 
Q 1269 -134 784 303 
Q 300 738 309 1481 
L 894 1481 
z
M 2150 4716 
L 2150 4716 
z
" transform="scale(0.015625)"/>
      <path id="Helvetica-43" d="M 2422 4716 
Q 3294 4716 3775 4256 
Q 4256 3797 4309 3213 
L 3703 3213 
Q 3600 3656 3292 3915 
Q 2984 4175 2428 4175 
Q 1750 4175 1333 3698 
Q 916 3222 916 2238 
Q 916 1431 1292 929 
Q 1669 428 2416 428 
Q 3103 428 3463 956 
Q 3653 1234 3747 1688 
L 4353 1688 
Q 4272 963 3816 472 
Q 3269 -119 2341 -119 
Q 1541 -119 997 366 
Q 281 1006 281 2344 
Q 281 3359 819 4009 
Q 1400 4716 2422 4716 
z
M 2297 4716 
L 2297 4716 
z
" transform="scale(0.015625)"/>
     </defs>
     <use xlink:href="#Helvetica-70"/>
     <use xlink:href="#Helvetica-53" x="55.615234"/>
     <use xlink:href="#Helvetica-43" x="122.314453"/>
     <use xlink:href="#Helvetica-31" x="194.53125"/>
     <use xlink:href="#Helvetica-30" x="250.146484"/>
     <use xlink:href="#Helvetica-31" x="305.761719"/>
    </g>
   </g>
  </g>
  <g id="axes_2">
   <g id="patch_7">
    <path d="M 242.926667 195.54 
L 374.081248 195.54 
L 374.081248 56.47875 
L 242.926667 56.47875 
z
" style="fill: #ffffff"/>
   </g>
   <g id="PathCollection_2">
    <defs>
     <path id="C1_0_09d3f0dd77" d="M 0 3.535534 
C 0.937635 3.535534 1.836992 3.163008 2.5 2.5 
C 3.163008 1.836992 3.535534 0.937635 3.535534 -0 
C 3.535534 -0.937635 3.163008 -1.836992 2.5 -2.5 
C 1.836992 -3.163008 0.937635 -3.535534 0 -3.535534 
C -0.937635 -3.535534 -1.836992 -3.163008 -2.5 -2.5 
C -3.163008 -1.836992 -3.535534 -0.937635 -3.535534 0 
C -3.535534 0.937635 -3.163008 1.836992 -2.5 2.5 
C -1.836992 3.163008 -0.937635 3.535534 0 3.535534 
z
"/>
    </defs>
    <g clip-path="url(#p401cc0c973)">
     <use xlink:href="#C1_0_09d3f0dd77" x="368.119676" y="69.70448" style="fill: none; stroke: #4682b4; stroke-width: 1.5"/>
    </g>
    <g clip-path="url(#p401cc0c973)">
     <use xlink:href="#C1_0_09d3f0dd77" x="344.273388" y="92.815327" style="fill: none; stroke: #4682b4; stroke-width: 1.5"/>
    </g>
    <g clip-path="url(#p401cc0c973)">
     <use xlink:href="#C1_0_09d3f0dd77" x="308.503957" y="126.85773" style="fill: none; stroke: #4682b4; stroke-width: 1.5"/>
    </g>
    <g clip-path="url(#p401cc0c973)">
     <use xlink:href="#C1_0_09d3f0dd77" x="272.734526" y="159.730733" style="fill: none; stroke: #4682b4; stroke-width: 1.5"/>
    </g>
    <g clip-path="url(#p401cc0c973)">
     <use xlink:href="#C1_0_09d3f0dd77" x="248.888239" y="180.938607" style="fill: none; stroke: #4682b4; stroke-width: 1.5"/>
    </g>
   </g>
   <g id="PolyCollection_2">
    <defs>
     <path id="mfbce916314" d="M 242.926667 -52.357852 
L 242.926667 -48.380966 
L 243.365311 -48.799638 
L 243.803955 -49.218291 
L 244.242599 -49.636925 
L 244.681243 -50.055538 
L 245.119887 -50.474132 
L 245.558531 -50.892705 
L 245.997175 -51.311257 
L 246.435819 -51.729789 
L 246.874463 -52.148299 
L 247.313108 -52.566787 
L 247.751752 -52.985254 
L 248.190396 -53.403698 
L 248.62904 -53.82212 
L 249.067684 -54.240519 
L 249.506328 -54.658895 
L 249.944972 -55.077248 
L 250.383616 -55.495576 
L 250.82226 -55.91388 
L 251.260904 -56.33216 
L 251.699548 -56.750415 
L 252.138192 -57.168644 
L 252.576837 -57.586848 
L 253.015481 -58.005026 
L 253.454125 -58.423178 
L 253.892769 -58.841302 
L 254.331413 -59.2594 
L 254.770057 -59.67747 
L 255.208701 -60.095511 
L 255.647345 -60.513525 
L 256.085989 -60.93151 
L 256.524633 -61.349465 
L 256.963277 -61.767391 
L 257.401921 -62.185286 
L 257.840566 -62.603151 
L 258.27921 -63.020985 
L 258.717854 -63.438788 
L 259.156498 -63.856558 
L 259.595142 -64.274297 
L 260.033786 -64.692002 
L 260.47243 -65.109673 
L 260.911074 -65.527311 
L 261.349718 -65.944915 
L 261.788362 -66.362483 
L 262.227006 -66.780016 
L 262.66565 -67.197513 
L 263.104295 -67.614973 
L 263.542939 -68.032396 
L 263.981583 -68.449782 
L 264.420227 -68.867129 
L 264.858871 -69.284438 
L 265.297515 -69.701707 
L 265.736159 -70.118936 
L 266.174803 -70.536124 
L 266.613447 -70.953272 
L 267.052091 -71.370377 
L 267.490735 -71.78744 
L 267.929379 -72.20446 
L 268.368024 -72.621436 
L 268.806668 -73.038368 
L 269.245312 -73.455255 
L 269.683956 -73.872096 
L 270.1226 -74.28889 
L 270.561244 -74.705638 
L 270.999888 -75.122337 
L 271.438532 -75.538988 
L 271.877176 -75.95559 
L 272.31582 -76.372142 
L 272.754464 -76.788643 
L 273.193108 -77.205093 
L 273.631753 -77.62149 
L 274.070397 -78.037834 
L 274.509041 -78.454125 
L 274.947685 -78.870361 
L 275.386329 -79.286541 
L 275.824973 -79.702666 
L 276.263617 -80.118733 
L 276.702261 -80.534743 
L 277.140905 -80.950694 
L 277.579549 -81.366586 
L 278.018193 -81.782417 
L 278.456837 -82.198187 
L 278.895482 -82.613895 
L 279.334126 -83.02954 
L 279.77277 -83.445122 
L 280.211414 -83.860638 
L 280.650058 -84.27609 
L 281.088702 -84.691474 
L 281.527346 -85.106792 
L 281.96599 -85.522041 
L 282.404634 -85.937221 
L 282.843278 -86.352331 
L 283.281922 -86.76737 
L 283.720566 -87.182337 
L 284.159211 -87.597231 
L 284.597855 -88.012052 
L 285.036499 -88.426797 
L 285.475143 -88.841467 
L 285.913787 -89.256061 
L 286.352431 -89.670576 
L 286.791075 -90.085014 
L 287.229719 -90.499371 
L 287.668363 -90.913649 
L 288.107007 -91.327845 
L 288.545651 -91.741959 
L 288.984295 -92.15599 
L 289.42294 -92.569936 
L 289.861584 -92.983798 
L 290.300228 -93.397573 
L 290.738872 -93.811262 
L 291.177516 -94.224862 
L 291.61616 -94.638374 
L 292.054804 -95.051797 
L 292.493448 -95.465128 
L 292.932092 -95.878369 
L 293.370736 -96.291517 
L 293.80938 -96.704571 
L 294.248024 -97.117532 
L 294.686669 -97.530398 
L 295.125313 -97.943168 
L 295.563957 -98.355842 
L 296.002601 -98.768419 
L 296.441245 -99.180897 
L 296.879889 -99.593277 
L 297.318533 -100.005557 
L 297.757177 -100.417736 
L 298.195821 -100.829815 
L 298.634465 -101.241792 
L 299.073109 -101.653666 
L 299.511753 -102.065438 
L 299.950398 -102.477106 
L 300.389042 -102.88867 
L 300.827686 -103.300129 
L 301.26633 -103.711482 
L 301.704974 -104.12273 
L 302.143618 -104.533871 
L 302.582262 -104.944906 
L 303.020906 -105.355833 
L 303.45955 -105.766652 
L 303.898194 -106.177364 
L 304.336838 -106.587967 
L 304.775483 -106.998461 
L 305.214127 -107.408846 
L 305.652771 -107.819122 
L 306.091415 -108.229289 
L 306.530059 -108.639346 
L 306.968703 -109.049293 
L 307.407347 -109.45913 
L 307.845991 -109.868856 
L 308.284635 -110.278473 
L 308.723279 -110.687979 
L 309.161923 -111.097376 
L 309.600567 -111.506662 
L 310.039212 -111.915838 
L 310.477856 -112.324904 
L 310.9165 -112.73386 
L 311.355144 -113.142706 
L 311.793788 -113.551443 
L 312.232432 -113.960071 
L 312.671076 -114.368589 
L 313.10972 -114.776999 
L 313.548364 -115.185301 
L 313.987008 -115.593494 
L 314.425652 -116.00158 
L 314.864296 -116.409558 
L 315.302941 -116.81743 
L 315.741585 -117.225195 
L 316.180229 -117.632855 
L 316.618873 -118.040409 
L 317.057517 -118.447858 
L 317.496161 -118.855203 
L 317.934805 -119.262444 
L 318.373449 -119.669582 
L 318.812093 -120.076618 
L 319.250737 -120.483553 
L 319.689381 -120.890386 
L 320.128025 -121.297119 
L 320.56667 -121.703752 
L 321.005314 -122.110287 
L 321.443958 -122.516723 
L 321.882602 -122.923062 
L 322.321246 -123.329305 
L 322.75989 -123.735452 
L 323.198534 -124.141504 
L 323.637178 -124.547462 
L 324.075822 -124.953327 
L 324.514466 -125.3591 
L 324.95311 -125.764781 
L 325.391754 -126.170371 
L 325.830399 -126.575872 
L 326.269043 -126.981285 
L 326.707687 -127.386609 
L 327.146331 -127.791847 
L 327.584975 -128.196998 
L 328.023619 -128.602064 
L 328.462263 -129.007047 
L 328.900907 -129.411946 
L 329.339551 -129.816762 
L 329.778195 -130.221498 
L 330.216839 -130.626153 
L 330.655483 -131.030729 
L 331.094128 -131.435226 
L 331.532772 -131.839645 
L 331.971416 -132.243988 
L 332.41006 -132.648255 
L 332.848704 -133.052448 
L 333.287348 -133.456567 
L 333.725992 -133.860613 
L 334.164636 -134.264587 
L 334.60328 -134.66849 
L 335.041924 -135.072322 
L 335.480568 -135.476086 
L 335.919212 -135.879782 
L 336.357857 -136.28341 
L 336.796501 -136.686971 
L 337.235145 -137.090468 
L 337.673789 -137.493899 
L 338.112433 -137.897267 
L 338.551077 -138.300572 
L 338.989721 -138.703815 
L 339.428365 -139.106996 
L 339.867009 -139.510118 
L 340.305653 -139.913179 
L 340.744297 -140.316183 
L 341.182941 -140.719128 
L 341.621586 -141.122017 
L 342.06023 -141.524849 
L 342.498874 -141.927626 
L 342.937518 -142.330348 
L 343.376162 -142.733017 
L 343.814806 -143.135632 
L 344.25345 -143.538196 
L 344.692094 -143.940707 
L 345.130738 -144.343169 
L 345.569382 -144.74558 
L 346.008026 -145.147942 
L 346.44667 -145.550255 
L 346.885315 -145.95252 
L 347.323959 -146.354739 
L 347.762603 -146.756911 
L 348.201247 -147.159037 
L 348.639891 -147.561118 
L 349.078535 -147.963155 
L 349.517179 -148.365148 
L 349.955823 -148.767098 
L 350.394467 -149.169005 
L 350.833111 -149.570871 
L 351.271755 -149.972695 
L 351.710399 -150.374479 
L 352.149044 -150.776223 
L 352.587688 -151.177927 
L 353.026332 -151.579593 
L 353.464976 -151.98122 
L 353.90362 -152.38281 
L 354.342264 -152.784363 
L 354.780908 -153.185879 
L 355.219552 -153.587359 
L 355.658196 -153.988803 
L 356.09684 -154.390213 
L 356.535484 -154.791588 
L 356.974128 -155.192929 
L 357.412773 -155.594237 
L 357.851417 -155.995512 
L 358.290061 -156.396754 
L 358.728705 -156.797964 
L 359.167349 -157.199143 
L 359.605993 -157.600291 
L 360.044637 -158.001409 
L 360.483281 -158.402496 
L 360.921925 -158.803553 
L 361.360569 -159.204581 
L 361.799213 -159.605581 
L 362.237858 -160.006552 
L 362.676502 -160.407495 
L 363.115146 -160.80841 
L 363.55379 -161.209299 
L 363.992434 -161.61016 
L 364.431078 -162.010995 
L 364.869722 -162.411804 
L 365.308366 -162.812588 
L 365.74701 -163.213346 
L 366.185654 -163.614079 
L 366.624298 -164.014788 
L 367.062942 -164.415472 
L 367.501587 -164.816133 
L 367.940231 -165.21677 
L 368.378875 -165.617384 
L 368.817519 -166.017975 
L 369.256163 -166.418543 
L 369.694807 -166.819089 
L 370.133451 -167.219614 
L 370.572095 -167.620117 
L 371.010739 -168.020598 
L 371.449383 -168.421059 
L 371.888027 -168.821499 
L 372.326671 -169.221918 
L 372.765316 -169.622317 
L 373.20396 -170.022697 
L 373.642604 -170.423057 
L 374.081248 -170.823397 
L 374.081248 -174.800284 
L 374.081248 -174.800284 
L 373.642604 -174.381612 
L 373.20396 -173.962959 
L 372.765316 -173.544325 
L 372.326671 -173.125712 
L 371.888027 -172.707118 
L 371.449383 -172.288545 
L 371.010739 -171.869993 
L 370.572095 -171.451461 
L 370.133451 -171.032951 
L 369.694807 -170.614463 
L 369.256163 -170.195996 
L 368.817519 -169.777552 
L 368.378875 -169.35913 
L 367.940231 -168.940731 
L 367.501587 -168.522355 
L 367.062942 -168.104002 
L 366.624298 -167.685674 
L 366.185654 -167.26737 
L 365.74701 -166.84909 
L 365.308366 -166.430835 
L 364.869722 -166.012606 
L 364.431078 -165.594402 
L 363.992434 -165.176224 
L 363.55379 -164.758072 
L 363.115146 -164.339948 
L 362.676502 -163.92185 
L 362.237858 -163.50378 
L 361.799213 -163.085738 
L 361.360569 -162.667725 
L 360.921925 -162.24974 
L 360.483281 -161.831785 
L 360.044637 -161.413859 
L 359.605993 -160.995964 
L 359.167349 -160.578099 
L 358.728705 -160.160265 
L 358.290061 -159.742462 
L 357.851417 -159.324692 
L 357.412773 -158.906953 
L 356.974128 -158.489248 
L 356.535484 -158.071577 
L 356.09684 -157.653939 
L 355.658196 -157.236335 
L 355.219552 -156.818767 
L 354.780908 -156.401234 
L 354.342264 -155.983737 
L 353.90362 -155.566277 
L 353.464976 -155.148854 
L 353.026332 -154.731468 
L 352.587688 -154.314121 
L 352.149044 -153.896812 
L 351.710399 -153.479543 
L 351.271755 -153.062314 
L 350.833111 -152.645126 
L 350.394467 -152.227978 
L 349.955823 -151.810873 
L 349.517179 -151.39381 
L 349.078535 -150.97679 
L 348.639891 -150.559814 
L 348.201247 -150.142882 
L 347.762603 -149.725995 
L 347.323959 -149.309154 
L 346.885315 -148.89236 
L 346.44667 -148.475612 
L 346.008026 -148.058913 
L 345.569382 -147.642262 
L 345.130738 -147.22566 
L 344.692094 -146.809108 
L 344.25345 -146.392607 
L 343.814806 -145.976157 
L 343.376162 -145.55976 
L 342.937518 -145.143416 
L 342.498874 -144.727125 
L 342.06023 -144.310889 
L 341.621586 -143.894708 
L 341.182941 -143.478584 
L 340.744297 -143.062517 
L 340.305653 -142.646507 
L 339.867009 -142.230556 
L 339.428365 -141.814664 
L 338.989721 -141.398833 
L 338.551077 -140.983063 
L 338.112433 -140.567355 
L 337.673789 -140.15171 
L 337.235145 -139.736128 
L 336.796501 -139.320611 
L 336.357857 -138.90516 
L 335.919212 -138.489775 
L 335.480568 -138.074458 
L 335.041924 -137.659209 
L 334.60328 -137.244029 
L 334.164636 -136.828919 
L 333.725992 -136.41388 
L 333.287348 -135.998913 
L 332.848704 -135.584019 
L 332.41006 -135.169198 
L 331.971416 -134.754453 
L 331.532772 -134.339783 
L 331.094128 -133.925189 
L 330.655483 -133.510673 
L 330.216839 -133.096236 
L 329.778195 -132.681878 
L 329.339551 -132.267601 
L 328.900907 -131.853405 
L 328.462263 -131.439291 
L 328.023619 -131.02526 
L 327.584975 -130.611313 
L 327.146331 -130.197452 
L 326.707687 -129.783677 
L 326.269043 -129.369988 
L 325.830399 -128.956387 
L 325.391754 -128.542875 
L 324.95311 -128.129453 
L 324.514466 -127.716121 
L 324.075822 -127.302881 
L 323.637178 -126.889733 
L 323.198534 -126.476678 
L 322.75989 -126.063717 
L 322.321246 -125.650851 
L 321.882602 -125.238081 
L 321.443958 -124.825407 
L 321.005314 -124.412831 
L 320.56667 -124.000352 
L 320.128025 -123.587973 
L 319.689381 -123.175693 
L 319.250737 -122.763513 
L 318.812093 -122.351435 
L 318.373449 -121.939458 
L 317.934805 -121.527583 
L 317.496161 -121.115812 
L 317.057517 -120.704144 
L 316.618873 -120.29258 
L 316.180229 -119.881121 
L 315.741585 -119.469767 
L 315.302941 -119.05852 
L 314.864296 -118.647378 
L 314.425652 -118.236344 
L 313.987008 -117.825417 
L 313.548364 -117.414597 
L 313.10972 -117.003886 
L 312.671076 -116.593283 
L 312.232432 -116.182788 
L 311.793788 -115.772403 
L 311.355144 -115.362127 
L 310.9165 -114.951961 
L 310.477856 -114.541904 
L 310.039212 -114.131957 
L 309.600567 -113.72212 
L 309.161923 -113.312393 
L 308.723279 -112.902776 
L 308.284635 -112.49327 
L 307.845991 -112.083874 
L 307.407347 -111.674588 
L 306.968703 -111.265412 
L 306.530059 -110.856346 
L 306.091415 -110.447389 
L 305.652771 -110.038543 
L 305.214127 -109.629806 
L 304.775483 -109.221178 
L 304.336838 -108.81266 
L 303.898194 -108.40425 
L 303.45955 -107.995948 
L 303.020906 -107.587755 
L 302.582262 -107.179669 
L 302.143618 -106.771691 
L 301.704974 -106.363819 
L 301.26633 -105.956054 
L 300.827686 -105.548395 
L 300.389042 -105.140841 
L 299.950398 -104.733391 
L 299.511753 -104.326046 
L 299.073109 -103.918805 
L 298.634465 -103.511667 
L 298.195821 -103.104631 
L 297.757177 -102.697696 
L 297.318533 -102.290863 
L 296.879889 -101.88413 
L 296.441245 -101.477497 
L 296.002601 -101.070962 
L 295.563957 -100.664526 
L 295.125313 -100.258187 
L 294.686669 -99.851944 
L 294.248024 -99.445797 
L 293.80938 -99.039745 
L 293.370736 -98.633787 
L 292.932092 -98.227922 
L 292.493448 -97.822149 
L 292.054804 -97.416468 
L 291.61616 -97.010878 
L 291.177516 -96.605377 
L 290.738872 -96.199964 
L 290.300228 -95.79464 
L 289.861584 -95.389403 
L 289.42294 -94.984251 
L 288.984295 -94.579185 
L 288.545651 -94.174202 
L 288.107007 -93.769303 
L 287.668363 -93.364487 
L 287.229719 -92.959751 
L 286.791075 -92.555096 
L 286.352431 -92.15052 
L 285.913787 -91.746023 
L 285.475143 -91.341604 
L 285.036499 -90.937261 
L 284.597855 -90.532994 
L 284.159211 -90.128801 
L 283.720566 -89.724682 
L 283.281922 -89.320636 
L 282.843278 -88.916662 
L 282.404634 -88.512759 
L 281.96599 -88.108927 
L 281.527346 -87.705163 
L 281.088702 -87.301467 
L 280.650058 -86.897839 
L 280.211414 -86.494277 
L 279.77277 -86.090781 
L 279.334126 -85.68735 
L 278.895482 -85.283982 
L 278.456837 -84.880677 
L 278.018193 -84.477434 
L 277.579549 -84.074253 
L 277.140905 -83.671131 
L 276.702261 -83.26807 
L 276.263617 -82.865066 
L 275.824973 -82.462121 
L 275.386329 -82.059232 
L 274.947685 -81.6564 
L 274.509041 -81.253623 
L 274.070397 -80.850901 
L 273.631753 -80.448232 
L 273.193108 -80.045617 
L 272.754464 -79.643053 
L 272.31582 -79.240541 
L 271.877176 -78.83808 
L 271.438532 -78.435669 
L 270.999888 -78.033307 
L 270.561244 -77.630994 
L 270.1226 -77.228728 
L 269.683956 -76.82651 
L 269.245312 -76.424338 
L 268.806668 -76.022212 
L 268.368024 -75.620131 
L 267.929379 -75.218094 
L 267.490735 -74.816101 
L 267.052091 -74.414151 
L 266.613447 -74.012244 
L 266.174803 -73.610378 
L 265.736159 -73.208554 
L 265.297515 -72.80677 
L 264.858871 -72.405026 
L 264.420227 -72.003322 
L 263.981583 -71.601656 
L 263.542939 -71.200029 
L 263.104295 -70.798439 
L 262.66565 -70.396886 
L 262.227006 -69.99537 
L 261.788362 -69.59389 
L 261.349718 -69.192446 
L 260.911074 -68.791036 
L 260.47243 -68.389661 
L 260.033786 -67.98832 
L 259.595142 -67.587012 
L 259.156498 -67.185737 
L 258.717854 -66.784495 
L 258.27921 -66.383284 
L 257.840566 -65.982105 
L 257.401921 -65.580958 
L 256.963277 -65.17984 
L 256.524633 -64.778753 
L 256.085989 -64.377696 
L 255.647345 -63.976667 
L 255.208701 -63.575668 
L 254.770057 -63.174697 
L 254.331413 -62.773754 
L 253.892769 -62.372838 
L 253.454125 -61.97195 
L 253.015481 -61.571089 
L 252.576837 -61.170254 
L 252.138192 -60.769445 
L 251.699548 -60.368661 
L 251.260904 -59.967903 
L 250.82226 -59.56717 
L 250.383616 -59.166461 
L 249.944972 -58.765777 
L 249.506328 -58.365116 
L 249.067684 -57.964479 
L 248.62904 -57.563865 
L 248.190396 -57.163274 
L 247.751752 -56.762706 
L 247.313108 -56.362159 
L 246.874463 -55.961635 
L 246.435819 -55.561132 
L 245.997175 -55.160651 
L 245.558531 -54.76019 
L 245.119887 -54.35975 
L 244.681243 -53.959331 
L 244.242599 -53.558932 
L 243.803955 -53.158552 
L 243.365311 -52.758192 
L 242.926667 -52.357852 
z
"/>
    </defs>
    <g clip-path="url(#p401cc0c973)">
     <use xlink:href="#mfbce916314" x="0" y="237.6" style="fill: #4682b4; fill-opacity: 0.5"/>
    </g>
   </g>
   <g id="matplotlib.axis_3">
    <g id="xtick_4">
     <g id="line2d_9">
      <g>
       <use xlink:href="#m636969ddb0" x="248.888239" y="195.54" style="stroke: #000000; stroke-width: 0.8"/>
      </g>
     </g>
     <g id="text_12">
      <!-- 0 -->
      <g transform="translate(245.551676 207.648125) scale(0.12 -0.12)">
       <use xlink:href="#Helvetica-30"/>
      </g>
     </g>
    </g>
    <g id="xtick_5">
     <g id="line2d_10">
      <g>
       <use xlink:href="#m636969ddb0" x="308.503957" y="195.54" style="stroke: #000000; stroke-width: 0.8"/>
      </g>
     </g>
     <g id="text_13">
      <!-- 50 -->
      <g transform="translate(301.830832 207.648125) scale(0.12 -0.12)">
       <use xlink:href="#Helvetica-35"/>
       <use xlink:href="#Helvetica-30" x="55.615234"/>
      </g>
     </g>
    </g>
    <g id="xtick_6">
     <g id="line2d_11">
      <g>
       <use xlink:href="#m636969ddb0" x="368.119676" y="195.54" style="stroke: #000000; stroke-width: 0.8"/>
      </g>
     </g>
     <g id="text_14">
      <!-- 100 -->
      <g transform="translate(358.109988 207.648125) scale(0.12 -0.12)">
       <use xlink:href="#Helvetica-31"/>
       <use xlink:href="#Helvetica-30" x="55.615234"/>
       <use xlink:href="#Helvetica-30" x="111.230469"/>
      </g>
     </g>
    </g>
   </g>
   <g id="matplotlib.axis_4">
    <g id="ytick_5">
     <g id="line2d_12">
      <g>
       <use xlink:href="#md77ffe7d4a" x="242.926667" y="181.863037" style="stroke: #000000; stroke-width: 0.8"/>
      </g>
     </g>
     <g id="text_15">
      <!-- 0 -->
      <g transform="translate(232.753542 186.167099) scale(0.12 -0.12)">
       <use xlink:href="#Helvetica-30"/>
      </g>
     </g>
    </g>
    <g id="ytick_6">
     <g id="line2d_13">
      <g>
       <use xlink:href="#md77ffe7d4a" x="242.926667" y="127.075959" style="stroke: #000000; stroke-width: 0.8"/>
      </g>
     </g>
     <g id="text_16">
      <!-- 10000 -->
      <g transform="translate(206.061042 131.380022) scale(0.12 -0.12)">
       <use xlink:href="#Helvetica-31"/>
       <use xlink:href="#Helvetica-30" x="55.615234"/>
       <use xlink:href="#Helvetica-30" x="111.230469"/>
       <use xlink:href="#Helvetica-30" x="166.845703"/>
       <use xlink:href="#Helvetica-30" x="222.460938"/>
      </g>
     </g>
    </g>
    <g id="ytick_7">
     <g id="line2d_14">
      <g>
       <use xlink:href="#md77ffe7d4a" x="242.926667" y="72.288882" style="stroke: #000000; stroke-width: 0.8"/>
      </g>
     </g>
     <g id="text_17">
      <!-- 20000 -->
      <g transform="translate(206.061042 76.592944) scale(0.12 -0.12)">
       <use xlink:href="#Helvetica-32"/>
       <use xlink:href="#Helvetica-30" x="55.615234"/>
       <use xlink:href="#Helvetica-30" x="111.230469"/>
       <use xlink:href="#Helvetica-30" x="166.845703"/>
       <use xlink:href="#Helvetica-30" x="222.460938"/>
      </g>
     </g>
    </g>
   </g>
   <g id="line2d_15">
    <path d="M 242.926667 187.230591 
L 374.081248 64.788159 
L 374.081248 64.788159 
" clip-path="url(#p401cc0c973)" style="fill: none; stroke: #000000; stroke-linecap: square"/>
   </g>
   <g id="patch_8">
    <path d="M 242.926667 195.54 
L 242.926667 56.47875 
" style="fill: none; stroke: #000000; stroke-width: 0.8; stroke-linejoin: miter; stroke-linecap: square"/>
   </g>
   <g id="patch_9">
    <path d="M 374.081248 195.54 
L 374.081248 56.47875 
" style="fill: none; stroke: #000000; stroke-width: 0.8; stroke-linejoin: miter; stroke-linecap: square"/>
   </g>
   <g id="patch_10">
    <path d="M 242.926667 195.54 
L 374.081248 195.54 
" style="fill: none; stroke: #000000; stroke-width: 0.8; stroke-linejoin: miter; stroke-linecap: square"/>
   </g>
   <g id="patch_11">
    <path d="M 242.926667 56.47875 
L 374.081248 56.47875 
" style="fill: none; stroke: #000000; stroke-width: 0.8; stroke-linejoin: miter; stroke-linecap: square"/>
   </g>
   <g id="text_18">
    <!--  -->
    <g transform="translate(256.042125 61.338975) scale(0.12 -0.12)"/>
    <!-- y = 203 x + 36 -->
    <g transform="translate(256.042125 74.169975) scale(0.12 -0.12)">
     <defs>
      <path id="Helvetica-36" d="M 1872 4494 
Q 2622 4494 2917 4105 
Q 3213 3716 3213 3303 
L 2656 3303 
Q 2606 3569 2497 3719 
Q 2294 4000 1881 4000 
Q 1409 4000 1131 3564 
Q 853 3128 822 2316 
Q 1016 2600 1309 2741 
Q 1578 2866 1909 2866 
Q 2472 2866 2890 2506 
Q 3309 2147 3309 1434 
Q 3309 825 2912 354 
Q 2516 -116 1781 -116 
Q 1153 -116 697 361 
Q 241 838 241 1966 
Q 241 2800 444 3381 
Q 834 4494 1872 4494 
z
M 1831 384 
Q 2275 384 2495 682 
Q 2716 981 2716 1388 
Q 2716 1731 2519 2042 
Q 2322 2353 1803 2353 
Q 1441 2353 1167 2112 
Q 894 1872 894 1388 
Q 894 963 1142 673 
Q 1391 384 1831 384 
z
" transform="scale(0.015625)"/>
     </defs>
     <use xlink:href="#Helvetica-79"/>
     <use xlink:href="#Helvetica-20" x="50"/>
     <use xlink:href="#Helvetica-3d" x="77.783203"/>
     <use xlink:href="#Helvetica-20" x="136.181641"/>
     <use xlink:href="#Helvetica-32" x="163.964844"/>
     <use xlink:href="#Helvetica-30" x="219.580078"/>
     <use xlink:href="#Helvetica-33" x="275.195312"/>
     <use xlink:href="#Helvetica-20" x="330.810547"/>
     <use xlink:href="#Helvetica-78" x="358.59375"/>
     <use xlink:href="#Helvetica-20" x="408.59375"/>
     <use xlink:href="#Helvetica-2b" x="436.376953"/>
     <use xlink:href="#Helvetica-20" x="494.775391"/>
     <use xlink:href="#Helvetica-33" x="522.558594"/>
     <use xlink:href="#Helvetica-36" x="578.173828"/>
    </g>
    <!-- R$^2$ = 1.000 -->
    <g transform="translate(256.042125 87.072225) scale(0.12 -0.12)">
     <use xlink:href="#Helvetica-52" transform="translate(0 0.271875)"/>
     <use xlink:href="#Helvetica-32" transform="translate(73.131992 36.879688) scale(0.7)"/>
     <use xlink:href="#Helvetica-20" transform="translate(114.6775 0.271875)"/>
     <use xlink:href="#Helvetica-3d" transform="translate(142.460703 0.271875)"/>
     <use xlink:href="#Helvetica-20" transform="translate(200.859141 0.271875)"/>
     <use xlink:href="#Helvetica-31" transform="translate(228.642344 0.271875)"/>
     <use xlink:href="#Helvetica-2e" transform="translate(284.257578 0.271875)"/>
     <use xlink:href="#Helvetica-30" transform="translate(312.040781 0.271875)"/>
     <use xlink:href="#Helvetica-30" transform="translate(367.656016 0.271875)"/>
     <use xlink:href="#Helvetica-30" transform="translate(423.27125 0.271875)"/>
    </g>
   </g>
   <g id="text_19">
    <!-- colE1 -->
    <g transform="translate(290.493832 50.47875) scale(0.144 -0.144)">
     <defs>
      <path id="Helvetica-63" d="M 1703 3444 
Q 2269 3444 2623 3169 
Q 2978 2894 3050 2222 
L 2503 2222 
Q 2453 2531 2275 2736 
Q 2097 2941 1703 2941 
Q 1166 2941 934 2416 
Q 784 2075 784 1575 
Q 784 1072 996 728 
Q 1209 384 1666 384 
Q 2016 384 2220 598 
Q 2425 813 2503 1184 
L 3050 1184 
Q 2956 519 2581 211 
Q 2206 -97 1622 -97 
Q 966 -97 575 383 
Q 184 863 184 1581 
Q 184 2463 612 2953 
Q 1041 3444 1703 3444 
z
M 1616 3428 
L 1616 3428 
z
" transform="scale(0.015625)"/>
      <path id="Helvetica-6f" d="M 1741 363 
Q 2300 363 2508 786 
Q 2716 1209 2716 1728 
Q 2716 2197 2566 2491 
Q 2328 2953 1747 2953 
Q 1231 2953 997 2559 
Q 763 2166 763 1609 
Q 763 1075 997 719 
Q 1231 363 1741 363 
z
M 1763 3444 
Q 2409 3444 2856 3012 
Q 3303 2581 3303 1744 
Q 3303 934 2909 406 
Q 2516 -122 1688 -122 
Q 997 -122 590 345 
Q 184 813 184 1600 
Q 184 2444 612 2944 
Q 1041 3444 1763 3444 
z
M 1744 3428 
L 1744 3428 
z
" transform="scale(0.015625)"/>
      <path id="Helvetica-6c" d="M 428 4591 
L 991 4591 
L 991 0 
L 428 0 
L 428 4591 
z
" transform="scale(0.015625)"/>
      <path id="Helvetica-45" d="M 547 4591 
L 3894 4591 
L 3894 4028 
L 1153 4028 
L 1153 2634 
L 3688 2634 
L 3688 2103 
L 1153 2103 
L 1153 547 
L 3941 547 
L 3941 0 
L 547 0 
L 547 4591 
z
M 2244 4591 
L 2244 4591 
z
" transform="scale(0.015625)"/>
     </defs>
     <use xlink:href="#Helvetica-63"/>
     <use xlink:href="#Helvetica-6f" x="50"/>
     <use xlink:href="#Helvetica-6c" x="105.615234"/>
     <use xlink:href="#Helvetica-45" x="127.832031"/>
     <use xlink:href="#Helvetica-31" x="194.53125"/>
    </g>
   </g>
  </g>
  <g id="axes_3">
   <g id="patch_12">
    <path d="M 427.863333 195.54 
L 559.017914 195.54 
L 559.017914 56.47875 
L 427.863333 56.47875 
z
" style="fill: #ffffff"/>
   </g>
   <g id="PathCollection_3">
    <defs>
     <path id="C2_0_3f3e879b45" d="M 0 3.535534 
C 0.937635 3.535534 1.836992 3.163008 2.5 2.5 
C 3.163008 1.836992 3.535534 0.937635 3.535534 -0 
C 3.535534 -0.937635 3.163008 -1.836992 2.5 -2.5 
C 1.836992 -3.163008 0.937635 -3.535534 0 -3.535534 
C -0.937635 -3.535534 -1.836992 -3.163008 -2.5 -2.5 
C -3.163008 -1.836992 -3.535534 -0.937635 -3.535534 0 
C -3.535534 0.937635 -3.163008 1.836992 -2.5 2.5 
C -1.836992 3.163008 -0.937635 3.535534 0 3.535534 
z
"/>
    </defs>
    <g clip-path="url(#p1c3dfe97e2)">
     <use xlink:href="#C2_0_3f3e879b45" x="553.056343" y="70.995801" style="fill: none; stroke: #4682b4; stroke-width: 1.5"/>
    </g>
    <g clip-path="url(#p1c3dfe97e2)">
     <use xlink:href="#C2_0_3f3e879b45" x="529.210055" y="93.110708" style="fill: none; stroke: #4682b4; stroke-width: 1.5"/>
    </g>
    <g clip-path="url(#p1c3dfe97e2)">
     <use xlink:href="#C2_0_3f3e879b45" x="493.440624" y="127.937415" style="fill: none; stroke: #4682b4; stroke-width: 1.5"/>
    </g>
    <g clip-path="url(#p1c3dfe97e2)">
     <use xlink:href="#C2_0_3f3e879b45" x="457.671193" y="158.830236" style="fill: none; stroke: #4682b4; stroke-width: 1.5"/>
    </g>
    <g clip-path="url(#p1c3dfe97e2)">
     <use xlink:href="#C2_0_3f3e879b45" x="433.824905" y="179.172715" style="fill: none; stroke: #4682b4; stroke-width: 1.5"/>
    </g>
   </g>
   <g id="PolyCollection_3">
    <defs>
     <path id="m1a3c7e90d0" d="M 427.863333 -55.410951 
L 427.863333 -48.380966 
L 428.301977 -48.796464 
L 428.740622 -49.211928 
L 429.179266 -49.627357 
L 429.61791 -50.042752 
L 430.056554 -50.45811 
L 430.495198 -50.873433 
L 430.933842 -51.288719 
L 431.372486 -51.703968 
L 431.81113 -52.119179 
L 432.249774 -52.534352 
L 432.688418 -52.949487 
L 433.127062 -53.364582 
L 433.565706 -53.779637 
L 434.004351 -54.194652 
L 434.442995 -54.609626 
L 434.881639 -55.024559 
L 435.320283 -55.439449 
L 435.758927 -55.854296 
L 436.197571 -56.2691 
L 436.636215 -56.68386 
L 437.074859 -57.098576 
L 437.513503 -57.513246 
L 437.952147 -57.92787 
L 438.390791 -58.342447 
L 438.829435 -58.756977 
L 439.26808 -59.171459 
L 439.706724 -59.585892 
L 440.145368 -60.000275 
L 440.584012 -60.414609 
L 441.022656 -60.828891 
L 441.4613 -61.243122 
L 441.899944 -61.6573 
L 442.338588 -62.071426 
L 442.777232 -62.485496 
L 443.215876 -62.899513 
L 443.65452 -63.313473 
L 444.093164 -63.727377 
L 444.531809 -64.141224 
L 444.970453 -64.555012 
L 445.409097 -64.968741 
L 445.847741 -65.38241 
L 446.286385 -65.796019 
L 446.725029 -66.209565 
L 447.163673 -66.623049 
L 447.602317 -67.03647 
L 448.040961 -67.449825 
L 448.479605 -67.863115 
L 448.918249 -68.276339 
L 449.356893 -68.689494 
L 449.795538 -69.102582 
L 450.234182 -69.515599 
L 450.672826 -69.928546 
L 451.11147 -70.341421 
L 451.550114 -70.754223 
L 451.988758 -71.166952 
L 452.427402 -71.579605 
L 452.866046 -71.992182 
L 453.30469 -72.404682 
L 453.743334 -72.817103 
L 454.181978 -73.229445 
L 454.620622 -73.641705 
L 455.059267 -74.053884 
L 455.497911 -74.465979 
L 455.936555 -74.87799 
L 456.375199 -75.289915 
L 456.813843 -75.701753 
L 457.252487 -76.113503 
L 457.691131 -76.525163 
L 458.129775 -76.936732 
L 458.568419 -77.348208 
L 459.007063 -77.759591 
L 459.445707 -78.170879 
L 459.884351 -78.58207 
L 460.322996 -78.993164 
L 460.76164 -79.404158 
L 461.200284 -79.815051 
L 461.638928 -80.225842 
L 462.077572 -80.63653 
L 462.516216 -81.047113 
L 462.95486 -81.457589 
L 463.393504 -81.867956 
L 463.832148 -82.278214 
L 464.270792 -82.688361 
L 464.709436 -83.098396 
L 465.14808 -83.508315 
L 465.586725 -83.91812 
L 466.025369 -84.327806 
L 466.464013 -84.737374 
L 466.902657 -85.146821 
L 467.341301 -85.556145 
L 467.779945 -85.965346 
L 468.218589 -86.374422 
L 468.657233 -86.78337 
L 469.095877 -87.192189 
L 469.534521 -87.600878 
L 469.973165 -88.009435 
L 470.411809 -88.417858 
L 470.850454 -88.826145 
L 471.289098 -89.234296 
L 471.727742 -89.642308 
L 472.166386 -90.050179 
L 472.60503 -90.457908 
L 473.043674 -90.865494 
L 473.482318 -91.272934 
L 473.920962 -91.680227 
L 474.359606 -92.087371 
L 474.79825 -92.494365 
L 475.236894 -92.901207 
L 475.675538 -93.307895 
L 476.114183 -93.714428 
L 476.552827 -94.120804 
L 476.991471 -94.527021 
L 477.430115 -94.933078 
L 477.868759 -95.338974 
L 478.307403 -95.744707 
L 478.746047 -96.150275 
L 479.184691 -96.555677 
L 479.623335 -96.960911 
L 480.061979 -97.365976 
L 480.500623 -97.77087 
L 480.939267 -98.175592 
L 481.377912 -98.580141 
L 481.816556 -98.984515 
L 482.2552 -99.388714 
L 482.693844 -99.792735 
L 483.132488 -100.196577 
L 483.571132 -100.600239 
L 484.009776 -101.003721 
L 484.44842 -101.407021 
L 484.887064 -101.810137 
L 485.325708 -102.213069 
L 485.764352 -102.615816 
L 486.202997 -103.018376 
L 486.641641 -103.42075 
L 487.080285 -103.822935 
L 487.518929 -104.224932 
L 487.957573 -104.626738 
L 488.396217 -105.028355 
L 488.834861 -105.429781 
L 489.273505 -105.831014 
L 489.712149 -106.232056 
L 490.150793 -106.632905 
L 490.589437 -107.033561 
L 491.028081 -107.434023 
L 491.466726 -107.834291 
L 491.90537 -108.234365 
L 492.344014 -108.634245 
L 492.782658 -109.03393 
L 493.221302 -109.43342 
L 493.659946 -109.832716 
L 494.09859 -110.231816 
L 494.537234 -110.630722 
L 494.975878 -111.029433 
L 495.414522 -111.42795 
L 495.853166 -111.826273 
L 496.29181 -112.224401 
L 496.730455 -112.622337 
L 497.169099 -113.020078 
L 497.607743 -113.417628 
L 498.046387 -113.814985 
L 498.485031 -114.21215 
L 498.923675 -114.609124 
L 499.362319 -115.005908 
L 499.800963 -115.402502 
L 500.239607 -115.798908 
L 500.678251 -116.195125 
L 501.116895 -116.591156 
L 501.555539 -116.987 
L 501.994184 -117.382659 
L 502.432828 -117.778133 
L 502.871472 -118.173425 
L 503.310116 -118.568534 
L 503.74876 -118.963462 
L 504.187404 -119.358211 
L 504.626048 -119.752781 
L 505.064692 -120.147173 
L 505.503336 -120.54139 
L 505.94198 -120.935432 
L 506.380624 -121.3293 
L 506.819268 -121.722997 
L 507.257913 -122.116523 
L 507.696557 -122.50988 
L 508.135201 -122.903069 
L 508.573845 -123.296092 
L 509.012489 -123.68895 
L 509.451133 -124.081645 
L 509.889777 -124.474178 
L 510.328421 -124.866552 
L 510.767065 -125.258767 
L 511.205709 -125.650825 
L 511.644353 -126.042727 
L 512.082997 -126.434476 
L 512.521642 -126.826073 
L 512.960286 -127.21752 
L 513.39893 -127.608818 
L 513.837574 -127.999969 
L 514.276218 -128.390974 
L 514.714862 -128.781836 
L 515.153506 -129.172555 
L 515.59215 -129.563134 
L 516.030794 -129.953575 
L 516.469438 -130.343878 
L 516.908082 -130.734046 
L 517.346726 -131.12408 
L 517.785371 -131.513982 
L 518.224015 -131.903753 
L 518.662659 -132.293396 
L 519.101303 -132.682912 
L 519.539947 -133.072302 
L 519.978591 -133.461568 
L 520.417235 -133.850712 
L 520.855879 -134.239735 
L 521.294523 -134.628639 
L 521.733167 -135.017426 
L 522.171811 -135.406097 
L 522.610455 -135.794654 
L 523.0491 -136.183097 
L 523.487744 -136.57143 
L 523.926388 -136.959653 
L 524.365032 -137.347768 
L 524.803676 -137.735777 
L 525.24232 -138.12368 
L 525.680964 -138.511479 
L 526.119608 -138.899177 
L 526.558252 -139.286774 
L 526.996896 -139.674271 
L 527.43554 -140.06167 
L 527.874184 -140.448974 
L 528.312829 -140.836182 
L 528.751473 -141.223296 
L 529.190117 -141.610318 
L 529.628761 -141.997249 
L 530.067405 -142.38409 
L 530.506049 -142.770843 
L 530.944693 -143.157509 
L 531.383337 -143.544089 
L 531.821981 -143.930584 
L 532.260625 -144.316997 
L 532.699269 -144.703327 
L 533.137913 -145.089576 
L 533.576558 -145.475745 
L 534.015202 -145.861837 
L 534.453846 -146.24785 
L 534.89249 -146.633788 
L 535.331134 -147.019651 
L 535.769778 -147.405439 
L 536.208422 -147.791155 
L 536.647066 -148.176799 
L 537.08571 -148.562372 
L 537.524354 -148.947876 
L 537.962998 -149.333311 
L 538.401642 -149.718678 
L 538.840287 -150.103979 
L 539.278931 -150.489214 
L 539.717575 -150.874385 
L 540.156219 -151.259492 
L 540.594863 -151.644536 
L 541.033507 -152.029519 
L 541.472151 -152.41444 
L 541.910795 -152.799302 
L 542.349439 -153.184104 
L 542.788083 -153.568849 
L 543.226727 -153.953536 
L 543.665371 -154.338166 
L 544.104016 -154.722741 
L 544.54266 -155.107261 
L 544.981304 -155.491727 
L 545.419948 -155.876139 
L 545.858592 -156.260499 
L 546.297236 -156.644808 
L 546.73588 -157.029065 
L 547.174524 -157.413272 
L 547.613168 -157.79743 
L 548.051812 -158.181539 
L 548.490456 -158.5656 
L 548.929101 -158.949613 
L 549.367745 -159.33358 
L 549.806389 -159.717501 
L 550.245033 -160.101377 
L 550.683677 -160.485208 
L 551.122321 -160.868994 
L 551.560965 -161.252738 
L 551.999609 -161.636438 
L 552.438253 -162.020097 
L 552.876897 -162.403714 
L 553.315541 -162.78729 
L 553.754185 -163.170825 
L 554.19283 -163.554321 
L 554.631474 -163.937777 
L 555.070118 -164.321195 
L 555.508762 -164.704575 
L 555.947406 -165.087917 
L 556.38605 -165.471221 
L 556.824694 -165.85449 
L 557.263338 -166.237722 
L 557.701982 -166.620918 
L 558.140626 -167.00408 
L 558.57927 -167.387207 
L 559.017914 -167.770299 
L 559.017914 -174.800284 
L 559.017914 -174.800284 
L 558.57927 -174.384786 
L 558.140626 -173.969322 
L 557.701982 -173.553893 
L 557.263338 -173.138498 
L 556.824694 -172.72314 
L 556.38605 -172.307817 
L 555.947406 -171.892531 
L 555.508762 -171.477282 
L 555.070118 -171.062071 
L 554.631474 -170.646898 
L 554.19283 -170.231763 
L 553.754185 -169.816668 
L 553.315541 -169.401613 
L 552.876897 -168.986598 
L 552.438253 -168.571624 
L 551.999609 -168.156691 
L 551.560965 -167.741801 
L 551.122321 -167.326954 
L 550.683677 -166.91215 
L 550.245033 -166.49739 
L 549.806389 -166.082674 
L 549.367745 -165.668004 
L 548.929101 -165.25338 
L 548.490456 -164.838803 
L 548.051812 -164.424273 
L 547.613168 -164.009791 
L 547.174524 -163.595358 
L 546.73588 -163.180975 
L 546.297236 -162.766641 
L 545.858592 -162.352359 
L 545.419948 -161.938128 
L 544.981304 -161.52395 
L 544.54266 -161.109824 
L 544.104016 -160.695754 
L 543.665371 -160.281737 
L 543.226727 -159.867777 
L 542.788083 -159.453873 
L 542.349439 -159.040026 
L 541.910795 -158.626238 
L 541.472151 -158.212509 
L 541.033507 -157.79884 
L 540.594863 -157.385231 
L 540.156219 -156.971685 
L 539.717575 -156.558201 
L 539.278931 -156.14478 
L 538.840287 -155.731425 
L 538.401642 -155.318135 
L 537.962998 -154.904911 
L 537.524354 -154.491756 
L 537.08571 -154.078668 
L 536.647066 -153.665651 
L 536.208422 -153.252704 
L 535.769778 -152.839829 
L 535.331134 -152.427027 
L 534.89249 -152.014298 
L 534.453846 -151.601645 
L 534.015202 -151.189068 
L 533.576558 -150.776568 
L 533.137913 -150.364147 
L 532.699269 -149.951805 
L 532.260625 -149.539545 
L 531.821981 -149.127366 
L 531.383337 -148.715271 
L 530.944693 -148.30326 
L 530.506049 -147.891335 
L 530.067405 -147.479497 
L 529.628761 -147.067747 
L 529.190117 -146.656087 
L 528.751473 -146.244518 
L 528.312829 -145.833042 
L 527.874184 -145.421659 
L 527.43554 -145.010371 
L 526.996896 -144.59918 
L 526.558252 -144.188086 
L 526.119608 -143.777092 
L 525.680964 -143.366199 
L 525.24232 -142.955408 
L 524.803676 -142.54472 
L 524.365032 -142.134137 
L 523.926388 -141.723662 
L 523.487744 -141.313294 
L 523.0491 -140.903036 
L 522.610455 -140.492889 
L 522.171811 -140.082854 
L 521.733167 -139.672935 
L 521.294523 -139.26313 
L 520.855879 -138.853444 
L 520.417235 -138.443876 
L 519.978591 -138.034429 
L 519.539947 -137.625105 
L 519.101303 -137.215904 
L 518.662659 -136.806829 
L 518.224015 -136.39788 
L 517.785371 -135.989061 
L 517.346726 -135.580372 
L 516.908082 -135.171815 
L 516.469438 -134.763392 
L 516.030794 -134.355105 
L 515.59215 -133.946954 
L 515.153506 -133.538942 
L 514.714862 -133.131071 
L 514.276218 -132.723342 
L 513.837574 -132.315756 
L 513.39893 -131.908316 
L 512.960286 -131.501023 
L 512.521642 -131.093879 
L 512.082997 -130.686885 
L 511.644353 -130.280043 
L 511.205709 -129.873355 
L 510.767065 -129.466822 
L 510.328421 -129.060446 
L 509.889777 -128.654229 
L 509.451133 -128.248172 
L 509.012489 -127.842276 
L 508.573845 -127.436543 
L 508.135201 -127.030975 
L 507.696557 -126.625573 
L 507.257913 -126.220339 
L 506.819268 -125.815274 
L 506.380624 -125.41038 
L 505.94198 -125.005658 
L 505.503336 -124.601109 
L 505.064692 -124.196735 
L 504.626048 -123.792536 
L 504.187404 -123.388515 
L 503.74876 -122.984673 
L 503.310116 -122.581011 
L 502.871472 -122.177529 
L 502.432828 -121.774229 
L 501.994184 -121.371113 
L 501.555539 -120.968181 
L 501.116895 -120.565434 
L 500.678251 -120.162874 
L 500.239607 -119.7605 
L 499.800963 -119.358315 
L 499.362319 -118.956318 
L 498.923675 -118.554512 
L 498.485031 -118.152895 
L 498.046387 -117.751469 
L 497.607743 -117.350236 
L 497.169099 -116.949194 
L 496.730455 -116.548345 
L 496.29181 -116.147689 
L 495.853166 -115.747227 
L 495.414522 -115.346959 
L 494.975878 -114.946885 
L 494.537234 -114.547005 
L 494.09859 -114.14732 
L 493.659946 -113.74783 
L 493.221302 -113.348534 
L 492.782658 -112.949434 
L 492.344014 -112.550528 
L 491.90537 -112.151817 
L 491.466726 -111.7533 
L 491.028081 -111.354977 
L 490.589437 -110.956849 
L 490.150793 -110.558913 
L 489.712149 -110.161172 
L 489.273505 -109.763622 
L 488.834861 -109.366265 
L 488.396217 -108.9691 
L 487.957573 -108.572126 
L 487.518929 -108.175342 
L 487.080285 -107.778748 
L 486.641641 -107.382342 
L 486.202997 -106.986125 
L 485.764352 -106.590094 
L 485.325708 -106.19425 
L 484.887064 -105.798591 
L 484.44842 -105.403117 
L 484.009776 -105.007825 
L 483.571132 -104.612716 
L 483.132488 -104.217788 
L 482.693844 -103.823039 
L 482.2552 -103.428469 
L 481.816556 -103.034077 
L 481.377912 -102.63986 
L 480.939267 -102.245818 
L 480.500623 -101.85195 
L 480.061979 -101.458253 
L 479.623335 -101.064727 
L 479.184691 -100.67137 
L 478.746047 -100.278181 
L 478.307403 -99.885158 
L 477.868759 -99.4923 
L 477.430115 -99.099605 
L 476.991471 -98.707072 
L 476.552827 -98.314698 
L 476.114183 -97.922484 
L 475.675538 -97.530426 
L 475.236894 -97.138523 
L 474.79825 -96.746774 
L 474.359606 -96.355177 
L 473.920962 -95.96373 
L 473.482318 -95.572432 
L 473.043674 -95.181281 
L 472.60503 -94.790276 
L 472.166386 -94.399414 
L 471.727742 -94.008695 
L 471.289098 -93.618116 
L 470.850454 -93.227675 
L 470.411809 -92.837372 
L 469.973165 -92.447204 
L 469.534521 -92.05717 
L 469.095877 -91.667268 
L 468.657233 -91.277497 
L 468.218589 -90.887854 
L 467.779945 -90.498339 
L 467.341301 -90.108948 
L 466.902657 -89.719682 
L 466.464013 -89.330538 
L 466.025369 -88.941515 
L 465.586725 -88.552611 
L 465.14808 -88.163824 
L 464.709436 -87.775153 
L 464.270792 -87.386597 
L 463.832148 -86.998153 
L 463.393504 -86.60982 
L 462.95486 -86.221597 
L 462.516216 -85.833482 
L 462.077572 -85.445473 
L 461.638928 -85.05757 
L 461.200284 -84.669771 
L 460.76164 -84.282073 
L 460.322996 -83.894476 
L 459.884351 -83.506979 
L 459.445707 -83.11958 
L 459.007063 -82.732276 
L 458.568419 -82.345068 
L 458.129775 -81.957954 
L 457.691131 -81.570932 
L 457.252487 -81.184001 
L 456.813843 -80.79716 
L 456.375199 -80.410407 
L 455.936555 -80.023741 
L 455.497911 -79.637161 
L 455.059267 -79.250666 
L 454.620622 -78.864254 
L 454.181978 -78.477923 
L 453.743334 -78.091674 
L 453.30469 -77.705505 
L 452.866046 -77.319413 
L 452.427402 -76.9334 
L 451.988758 -76.547462 
L 451.550114 -76.1616 
L 451.11147 -75.775811 
L 450.672826 -75.390095 
L 450.234182 -75.004451 
L 449.795538 -74.618878 
L 449.356893 -74.233374 
L 448.918249 -73.847939 
L 448.479605 -73.462572 
L 448.040961 -73.077271 
L 447.602317 -72.692036 
L 447.163673 -72.306865 
L 446.725029 -71.921758 
L 446.286385 -71.536714 
L 445.847741 -71.151731 
L 445.409097 -70.76681 
L 444.970453 -70.381948 
L 444.531809 -69.997146 
L 444.093164 -69.612401 
L 443.65452 -69.227714 
L 443.215876 -68.843084 
L 442.777232 -68.458509 
L 442.338588 -68.073989 
L 441.899944 -67.689524 
L 441.4613 -67.305111 
L 441.022656 -66.920751 
L 440.584012 -66.536442 
L 440.145368 -66.152185 
L 439.706724 -65.767978 
L 439.26808 -65.38382 
L 438.829435 -64.999711 
L 438.390791 -64.61565 
L 437.952147 -64.231637 
L 437.513503 -63.84767 
L 437.074859 -63.463749 
L 436.636215 -63.079873 
L 436.197571 -62.696043 
L 435.758927 -62.312256 
L 435.320283 -61.928512 
L 434.881639 -61.544812 
L 434.442995 -61.161153 
L 434.004351 -60.777536 
L 433.565706 -60.39396 
L 433.127062 -60.010425 
L 432.688418 -59.626929 
L 432.249774 -59.243473 
L 431.81113 -58.860055 
L 431.372486 -58.476675 
L 430.933842 -58.093333 
L 430.495198 -57.710029 
L 430.056554 -57.32676 
L 429.61791 -56.943528 
L 429.179266 -56.560332 
L 428.740622 -56.17717 
L 428.301977 -55.794043 
L 427.863333 -55.410951 
z
"/>
    </defs>
    <g clip-path="url(#p1c3dfe97e2)">
     <use xlink:href="#m1a3c7e90d0" x="0" y="237.6" style="fill: #4682b4; fill-opacity: 0.5"/>
    </g>
   </g>
   <g id="matplotlib.axis_5">
    <g id="xtick_7">
     <g id="line2d_16">
      <g>
       <use xlink:href="#m636969ddb0" x="433.824905" y="195.54" style="stroke: #000000; stroke-width: 0.8"/>
      </g>
     </g>
     <g id="text_20">
      <!-- 0 -->
      <g transform="translate(430.488343 207.648125) scale(0.12 -0.12)">
       <use xlink:href="#Helvetica-30"/>
      </g>
     </g>
    </g>
    <g id="xtick_8">
     <g id="line2d_17">
      <g>
       <use xlink:href="#m636969ddb0" x="493.440624" y="195.54" style="stroke: #000000; stroke-width: 0.8"/>
      </g>
     </g>
     <g id="text_21">
      <!-- 50 -->
      <g transform="translate(486.767499 207.648125) scale(0.12 -0.12)">
       <use xlink:href="#Helvetica-35"/>
       <use xlink:href="#Helvetica-30" x="55.615234"/>
      </g>
     </g>
    </g>
    <g id="xtick_9">
     <g id="line2d_18">
      <g>
       <use xlink:href="#m636969ddb0" x="553.056343" y="195.54" style="stroke: #000000; stroke-width: 0.8"/>
      </g>
     </g>
     <g id="text_22">
      <!-- 100 -->
      <g transform="translate(543.046655 207.648125) scale(0.12 -0.12)">
       <use xlink:href="#Helvetica-31"/>
       <use xlink:href="#Helvetica-30" x="55.615234"/>
       <use xlink:href="#Helvetica-30" x="111.230469"/>
      </g>
     </g>
    </g>
   </g>
   <g id="matplotlib.axis_6">
    <g id="ytick_8">
     <g id="line2d_19">
      <g>
       <use xlink:href="#md77ffe7d4a" x="427.863333" y="185.97431" style="stroke: #000000; stroke-width: 0.8"/>
      </g>
     </g>
     <g id="text_23">
      <!-- 0 -->
      <g transform="translate(417.690208 190.278373) scale(0.12 -0.12)">
       <use xlink:href="#Helvetica-30"/>
      </g>
     </g>
    </g>
    <g id="ytick_9">
     <g id="line2d_20">
      <g>
       <use xlink:href="#md77ffe7d4a" x="427.863333" y="145.664092" style="stroke: #000000; stroke-width: 0.8"/>
      </g>
     </g>
     <g id="text_24">
      <!-- 1000 -->
      <g transform="translate(397.670833 149.968154) scale(0.12 -0.12)">
       <use xlink:href="#Helvetica-31"/>
       <use xlink:href="#Helvetica-30" x="55.615234"/>
       <use xlink:href="#Helvetica-30" x="111.230469"/>
       <use xlink:href="#Helvetica-30" x="166.845703"/>
      </g>
     </g>
    </g>
    <g id="ytick_10">
     <g id="line2d_21">
      <g>
       <use xlink:href="#md77ffe7d4a" x="427.863333" y="105.353873" style="stroke: #000000; stroke-width: 0.8"/>
      </g>
     </g>
     <g id="text_25">
      <!-- 2000 -->
      <g transform="translate(397.670833 109.657935) scale(0.12 -0.12)">
       <use xlink:href="#Helvetica-32"/>
       <use xlink:href="#Helvetica-30" x="55.615234"/>
       <use xlink:href="#Helvetica-30" x="111.230469"/>
       <use xlink:href="#Helvetica-30" x="166.845703"/>
      </g>
     </g>
    </g>
    <g id="ytick_11">
     <g id="line2d_22">
      <g>
       <use xlink:href="#md77ffe7d4a" x="427.863333" y="65.043654" style="stroke: #000000; stroke-width: 0.8"/>
      </g>
     </g>
     <g id="text_26">
      <!-- 3000 -->
      <g transform="translate(397.670833 69.347716) scale(0.12 -0.12)">
       <use xlink:href="#Helvetica-33"/>
       <use xlink:href="#Helvetica-30" x="55.615234"/>
       <use xlink:href="#Helvetica-30" x="111.230469"/>
       <use xlink:href="#Helvetica-30" x="166.845703"/>
      </g>
     </g>
    </g>
   </g>
   <g id="line2d_23">
    <path d="M 427.863333 185.704042 
L 559.017914 66.314708 
L 559.017914 66.314708 
" clip-path="url(#p1c3dfe97e2)" style="fill: none; stroke: #000000; stroke-linecap: square"/>
   </g>
   <g id="patch_13">
    <path d="M 427.863333 195.54 
L 427.863333 56.47875 
" style="fill: none; stroke: #000000; stroke-width: 0.8; stroke-linejoin: miter; stroke-linecap: square"/>
   </g>
   <g id="patch_14">
    <path d="M 559.017914 195.54 
L 559.017914 56.47875 
" style="fill: none; stroke: #000000; stroke-width: 0.8; stroke-linejoin: miter; stroke-linecap: square"/>
   </g>
   <g id="patch_15">
    <path d="M 427.863333 195.54 
L 559.017914 195.54 
" style="fill: none; stroke: #000000; stroke-width: 0.8; stroke-linejoin: miter; stroke-linecap: square"/>
   </g>
   <g id="patch_16">
    <path d="M 427.863333 56.47875 
L 559.017914 56.47875 
" style="fill: none; stroke: #000000; stroke-width: 0.8; stroke-linejoin: miter; stroke-linecap: square"/>
   </g>
   <g id="text_27">
    <!--  -->
    <g transform="translate(440.978791 61.338975) scale(0.12 -0.12)"/>
    <!-- y = 27 x + 141 -->
    <g transform="translate(440.978791 74.169975) scale(0.12 -0.12)">
     <defs>
      <path id="Helvetica-37" d="M 3347 4400 
L 3347 3909 
Q 3131 3700 2773 3181 
Q 2416 2663 2141 2063 
Q 1869 1478 1728 997 
Q 1638 688 1494 0 
L 872 0 
Q 1084 1281 1809 2550 
Q 2238 3294 2709 3834 
L 234 3834 
L 234 4400 
L 3347 4400 
z
" transform="scale(0.015625)"/>
     </defs>
     <use xlink:href="#Helvetica-79"/>
     <use xlink:href="#Helvetica-20" x="50"/>
     <use xlink:href="#Helvetica-3d" x="77.783203"/>
     <use xlink:href="#Helvetica-20" x="136.181641"/>
     <use xlink:href="#Helvetica-32" x="163.964844"/>
     <use xlink:href="#Helvetica-37" x="219.580078"/>
     <use xlink:href="#Helvetica-20" x="275.195312"/>
     <use xlink:href="#Helvetica-78" x="302.978516"/>
     <use xlink:href="#Helvetica-20" x="352.978516"/>
     <use xlink:href="#Helvetica-2b" x="380.761719"/>
     <use xlink:href="#Helvetica-20" x="439.160156"/>
     <use xlink:href="#Helvetica-31" x="466.943359"/>
     <use xlink:href="#Helvetica-34" x="522.558594"/>
     <use xlink:href="#Helvetica-31" x="578.173828"/>
    </g>
    <!-- R$^2$ = 0.999 -->
    <g transform="translate(440.978791 87.072225) scale(0.12 -0.12)">
     <use xlink:href="#Helvetica-52" transform="translate(0 0.271875)"/>
     <use xlink:href="#Helvetica-32" transform="translate(73.131992 36.879688) scale(0.7)"/>
     <use xlink:href="#Helvetica-20" transform="translate(114.6775 0.271875)"/>
     <use xlink:href="#Helvetica-3d" transform="translate(142.460703 0.271875)"/>
     <use xlink:href="#Helvetica-20" transform="translate(200.859141 0.271875)"/>
     <use xlink:href="#Helvetica-30" transform="translate(228.642344 0.271875)"/>
     <use xlink:href="#Helvetica-2e" transform="translate(284.257578 0.271875)"/>
     <use xlink:href="#Helvetica-39" transform="translate(312.040781 0.271875)"/>
     <use xlink:href="#Helvetica-39" transform="translate(367.656016 0.271875)"/>
     <use xlink:href="#Helvetica-39" transform="translate(423.27125 0.271875)"/>
    </g>
   </g>
   <g id="text_28">
    <!-- pUC -->
    <g transform="translate(479.037249 50.47875) scale(0.144 -0.144)">
     <defs>
      <path id="Helvetica-55" d="M 1163 4591 
L 1163 1753 
Q 1163 1253 1350 922 
Q 1628 422 2288 422 
Q 3078 422 3363 963 
Q 3516 1256 3516 1753 
L 3516 4591 
L 4147 4591 
L 4147 2013 
Q 4147 1166 3919 709 
Q 3500 -122 2338 -122 
Q 1175 -122 759 709 
Q 531 1166 531 2013 
L 531 4591 
L 1163 4591 
z
M 2341 4591 
L 2341 4591 
z
" transform="scale(0.015625)"/>
     </defs>
     <use xlink:href="#Helvetica-70"/>
     <use xlink:href="#Helvetica-55" x="55.615234"/>
     <use xlink:href="#Helvetica-43" x="127.832031"/>
    </g>
   </g>
  </g>
  <g id="text_29">
   <!-- after Ab treatment -->
   <g transform="translate(230.376375 15.08175) scale(0.144 -0.144)">
    <defs>
     <path id="Helvetica-61" d="M 844 891 
Q 844 647 1022 506 
Q 1200 366 1444 366 
Q 1741 366 2019 503 
Q 2488 731 2488 1250 
L 2488 1703 
Q 2384 1638 2221 1594 
Q 2059 1550 1903 1531 
L 1563 1488 
Q 1256 1447 1103 1359 
Q 844 1213 844 891 
z
M 2206 2028 
Q 2400 2053 2466 2191 
Q 2503 2266 2503 2406 
Q 2503 2694 2298 2823 
Q 2094 2953 1713 2953 
Q 1272 2953 1088 2716 
Q 984 2584 953 2325 
L 428 2325 
Q 444 2944 830 3186 
Q 1216 3428 1725 3428 
Q 2316 3428 2684 3203 
Q 3050 2978 3050 2503 
L 3050 575 
Q 3050 488 3086 434 
Q 3122 381 3238 381 
Q 3275 381 3322 386 
Q 3369 391 3422 400 
L 3422 -16 
Q 3291 -53 3222 -62 
Q 3153 -72 3034 -72 
Q 2744 -72 2613 134 
Q 2544 244 2516 444 
Q 2344 219 2022 53 
Q 1700 -113 1313 -113 
Q 847 -113 551 170 
Q 256 453 256 878 
Q 256 1344 547 1600 
Q 838 1856 1309 1916 
L 2206 2028 
z
M 1741 3428 
L 1741 3428 
z
" transform="scale(0.015625)"/>
     <path id="Helvetica-66" d="M 553 3856 
Q 566 4206 675 4369 
Q 872 4656 1434 4656 
Q 1488 4656 1544 4653 
Q 1600 4650 1672 4644 
L 1672 4131 
Q 1584 4138 1545 4139 
Q 1506 4141 1472 4141 
Q 1216 4141 1166 4008 
Q 1116 3875 1116 3331 
L 1672 3331 
L 1672 2888 
L 1109 2888 
L 1109 0 
L 553 0 
L 553 2888 
L 88 2888 
L 88 3331 
L 553 3331 
L 553 3856 
z
" transform="scale(0.015625)"/>
     <path id="Helvetica-74" d="M 525 4281 
L 1094 4281 
L 1094 3347 
L 1628 3347 
L 1628 2888 
L 1094 2888 
L 1094 703 
Q 1094 528 1213 469 
Q 1278 434 1431 434 
Q 1472 434 1519 436 
Q 1566 438 1628 444 
L 1628 0 
Q 1531 -28 1426 -40 
Q 1322 -53 1200 -53 
Q 806 -53 665 148 
Q 525 350 525 672 
L 525 2888 
L 72 2888 
L 72 3347 
L 525 3347 
L 525 4281 
z
" transform="scale(0.015625)"/>
     <path id="Helvetica-65" d="M 1806 3422 
Q 2163 3422 2497 3255 
Q 2831 3088 3006 2822 
Q 3175 2569 3231 2231 
Q 3281 2000 3281 1494 
L 828 1494 
Q 844 984 1069 676 
Q 1294 369 1766 369 
Q 2206 369 2469 659 
Q 2619 828 2681 1050 
L 3234 1050 
Q 3213 866 3089 639 
Q 2966 413 2813 269 
Q 2556 19 2178 -69 
Q 1975 -119 1719 -119 
Q 1094 -119 659 336 
Q 225 791 225 1609 
Q 225 2416 662 2919 
Q 1100 3422 1806 3422 
z
M 2703 1941 
Q 2669 2306 2544 2525 
Q 2313 2931 1772 2931 
Q 1384 2931 1121 2651 
Q 859 2372 844 1941 
L 2703 1941 
z
M 1753 3428 
L 1753 3428 
z
" transform="scale(0.015625)"/>
     <path id="Helvetica-72" d="M 428 3347 
L 963 3347 
L 963 2769 
Q 1028 2938 1284 3180 
Q 1541 3422 1875 3422 
Q 1891 3422 1928 3419 
Q 1966 3416 2056 3406 
L 2056 2813 
Q 2006 2822 1964 2825 
Q 1922 2828 1872 2828 
Q 1447 2828 1219 2554 
Q 991 2281 991 1925 
L 991 0 
L 428 0 
L 428 3347 
z
" transform="scale(0.015625)"/>
     <path id="Helvetica-41" d="M 2844 1881 
L 2147 3909 
L 1406 1881 
L 2844 1881 
z
M 1822 4591 
L 2525 4591 
L 4191 0 
L 3509 0 
L 3044 1375 
L 1228 1375 
L 731 0 
L 94 0 
L 1822 4591 
z
" transform="scale(0.015625)"/>
     <path id="Helvetica-62" d="M 369 4606 
L 916 4606 
L 916 2941 
Q 1100 3181 1356 3307 
Q 1613 3434 1913 3434 
Q 2538 3434 2927 3004 
Q 3316 2575 3316 1738 
Q 3316 944 2931 419 
Q 2547 -106 1866 -106 
Q 1484 -106 1222 78 
Q 1066 188 888 428 
L 888 0 
L 369 0 
L 369 4606 
z
M 1831 391 
Q 2288 391 2514 753 
Q 2741 1116 2741 1709 
Q 2741 2238 2514 2584 
Q 2288 2931 1847 2931 
Q 1463 2931 1173 2647 
Q 884 2363 884 1709 
Q 884 1238 1003 944 
Q 1225 391 1831 391 
z
" transform="scale(0.015625)"/>
     <path id="Helvetica-6d" d="M 413 3347 
L 969 3347 
L 969 2872 
Q 1169 3119 1331 3231 
Q 1609 3422 1963 3422 
Q 2363 3422 2606 3225 
Q 2744 3113 2856 2894 
Q 3044 3163 3297 3292 
Q 3550 3422 3866 3422 
Q 4541 3422 4784 2934 
Q 4916 2672 4916 2228 
L 4916 0 
L 4331 0 
L 4331 2325 
Q 4331 2659 4164 2784 
Q 3997 2909 3756 2909 
Q 3425 2909 3186 2687 
Q 2947 2466 2947 1947 
L 2947 0 
L 2375 0 
L 2375 2184 
Q 2375 2525 2294 2681 
Q 2166 2916 1816 2916 
Q 1497 2916 1236 2669 
Q 975 2422 975 1775 
L 975 0 
L 413 0 
L 413 3347 
z
" transform="scale(0.015625)"/>
     <path id="Helvetica-6e" d="M 413 3347 
L 947 3347 
L 947 2872 
Q 1184 3166 1450 3294 
Q 1716 3422 2041 3422 
Q 2753 3422 3003 2925 
Q 3141 2653 3141 2147 
L 3141 0 
L 2569 0 
L 2569 2109 
Q 2569 2416 2478 2603 
Q 2328 2916 1934 2916 
Q 1734 2916 1606 2875 
Q 1375 2806 1200 2600 
Q 1059 2434 1017 2257 
Q 975 2081 975 1753 
L 975 0 
L 413 0 
L 413 3347 
z
M 1734 3428 
L 1734 3428 
z
" transform="scale(0.015625)"/>
    </defs>
    <use xlink:href="#Helvetica-61"/>
    <use xlink:href="#Helvetica-66" x="55.615234"/>
    <use xlink:href="#Helvetica-74" x="83.398438"/>
    <use xlink:href="#Helvetica-65" x="111.181641"/>
    <use xlink:href="#Helvetica-72" x="166.796875"/>
    <use xlink:href="#Helvetica-20" x="200.097656"/>
    <use xlink:href="#Helvetica-41" x="227.880859"/>
    <use xlink:href="#Helvetica-62" x="294.580078"/>
    <use xlink:href="#Helvetica-20" x="350.195312"/>
    <use xlink:href="#Helvetica-74" x="377.978516"/>
    <use xlink:href="#Helvetica-72" x="405.761719"/>
    <use xlink:href="#Helvetica-65" x="439.0625"/>
    <use xlink:href="#Helvetica-61" x="494.677734"/>
    <use xlink:href="#Helvetica-74" x="550.292969"/>
    <use xlink:href="#Helvetica-6d" x="578.076172"/>
    <use xlink:href="#Helvetica-65" x="661.376953"/>
    <use xlink:href="#Helvetica-6e" x="716.992188"/>
    <use xlink:href="#Helvetica-74" x="772.607422"/>
   </g>
  </g>
 </g>
 <defs>
  <clipPath id="p0a85b2c80a">
   <rect x="57.99" y="56.47875" width="131.154581" height="139.06125"/>
  </clipPath>
  <clipPath id="p401cc0c973">
   <rect x="242.926667" y="56.47875" width="131.154581" height="139.06125"/>
  </clipPath>
  <clipPath id="p1c3dfe97e2">
   <rect x="427.863333" y="56.47875" width="131.154581" height="139.06125"/>
  </clipPath>
 </defs>
</svg>
