<?xml version="1.0" encoding="utf-8" standalone="no"?>
<!DOCTYPE svg PUBLIC "-//W3C//DTD SVG 1.1//EN"
  "http://www.w3.org/Graphics/SVG/1.1/DTD/svg11.dtd">
<svg xmlns:xlink="http://www.w3.org/1999/xlink" width="576pt" height="216pt" viewBox="0 0 576 216" xmlns="http://www.w3.org/2000/svg" version="1.1">
 <metadata>
  <rdf:RDF xmlns:dc="http://purl.org/dc/elements/1.1/" xmlns:cc="http://creativecommons.org/ns#" xmlns:rdf="http://www.w3.org/1999/02/22-rdf-syntax-ns#">
   <cc:Work>
    <dc:type rdf:resource="http://purl.org/dc/dcmitype/StillImage"/>
    <dc:date>2025-08-24T17:38:16.692313</dc:date>
    <dc:format>image/svg+xml</dc:format>
    <dc:creator>
     <cc:Agent>
      <dc:title>Matplotlib v3.7.5, https://matplotlib.org/</dc:title>
     </cc:Agent>
    </dc:creator>
   </cc:Work>
  </rdf:RDF>
 </metadata>
 <defs>
  <style type="text/css">*{stroke-linejoin: round; stroke-linecap: butt}</style>
 </defs>
 <g id="figure_1">
  <g id="patch_1">
   <path d="M 0 216 
L 576 216 
L 576 0 
L 0 0 
z
" style="fill: #ffffff"/>
  </g>
  <g id="axes_1">
   <g id="patch_2">
    <path d="M 57.99 173.94 
L 189.084581 173.94 
L 189.084581 29.83875 
L 57.99 29.83875 
z
" style="fill: #ffffff"/>
   </g>
   <g id="PolyCollection_1">
    <defs>
     <path id="mfc45fd2103" d="M 57.99 -49.128969 
L 57.99 -48.610057 
L 58.428443 -49.047655 
L 58.866887 -49.485251 
L 59.30533 -49.922845 
L 59.743774 -50.360436 
L 60.182217 -50.798026 
L 60.62066 -51.235613 
L 61.059104 -51.673197 
L 61.497547 -52.110779 
L 61.935991 -52.548359 
L 62.374434 -52.985937 
L 62.812878 -53.423512 
L 63.251321 -53.861084 
L 63.689764 -54.298654 
L 64.128208 -54.736221 
L 64.566651 -55.173786 
L 65.005095 -55.611348 
L 65.443538 -56.048908 
L 65.881981 -56.486464 
L 66.320425 -56.924018 
L 66.758868 -57.36157 
L 67.197312 -57.799118 
L 67.635755 -58.236663 
L 68.074199 -58.674206 
L 68.512642 -59.111746 
L 68.951085 -59.549282 
L 69.389529 -59.986816 
L 69.827972 -60.424347 
L 70.266416 -60.861874 
L 70.704859 -61.299398 
L 71.143302 -61.73692 
L 71.581746 -62.174438 
L 72.020189 -62.611952 
L 72.458633 -63.049463 
L 72.897076 -63.486971 
L 73.33552 -63.924476 
L 73.773963 -64.361977 
L 74.212406 -64.799474 
L 74.65085 -65.236968 
L 75.089293 -65.674459 
L 75.527737 -66.111945 
L 75.96618 -66.549428 
L 76.404623 -66.986907 
L 76.843067 -67.424383 
L 77.28151 -67.861854 
L 77.719954 -68.299321 
L 78.158397 -68.736785 
L 78.596841 -69.174244 
L 79.035284 -69.6117 
L 79.473727 -70.049151 
L 79.912171 -70.486598 
L 80.350614 -70.92404 
L 80.789058 -71.361479 
L 81.227501 -71.798912 
L 81.665944 -72.236342 
L 82.104388 -72.673767 
L 82.542831 -73.111187 
L 82.981275 -73.548602 
L 83.419718 -73.986013 
L 83.858161 -74.423419 
L 84.296605 -74.86082 
L 84.735048 -75.298217 
L 85.173492 -75.735608 
L 85.611935 -76.172994 
L 86.050379 -76.610375 
L 86.488822 -77.047751 
L 86.927265 -77.485121 
L 87.365709 -77.922486 
L 87.804152 -78.359846 
L 88.242596 -78.7972 
L 88.681039 -79.234548 
L 89.119482 -79.671891 
L 89.557926 -80.109228 
L 89.996369 -80.546559 
L 90.434813 -80.983884 
L 90.873256 -81.421203 
L 91.3117 -81.858516 
L 91.750143 -82.295823 
L 92.188586 -82.733124 
L 92.62703 -83.170418 
L 93.065473 -83.607706 
L 93.503917 -84.044987 
L 93.94236 -84.482262 
L 94.380803 -84.91953 
L 94.819247 -85.356791 
L 95.25769 -85.794045 
L 95.696134 -86.231292 
L 96.134577 -86.668532 
L 96.573021 -87.105765 
L 97.011464 -87.542991 
L 97.449907 -87.980209 
L 97.888351 -88.41742 
L 98.326794 -88.854624 
L 98.765238 -89.291819 
L 99.203681 -89.729007 
L 99.642124 -90.166187 
L 100.080568 -90.603359 
L 100.519011 -91.040523 
L 100.957455 -91.477679 
L 101.395898 -91.914827 
L 101.834342 -92.351966 
L 102.272785 -92.789097 
L 102.711228 -93.226219 
L 103.149672 -93.663332 
L 103.588115 -94.100437 
L 104.026559 -94.537533 
L 104.465002 -94.97462 
L 104.903445 -95.411698 
L 105.341889 -95.848766 
L 105.780332 -96.285825 
L 106.218776 -96.722875 
L 106.657219 -97.159916 
L 107.095662 -97.596946 
L 107.534106 -98.033968 
L 107.972549 -98.470979 
L 108.410993 -98.90798 
L 108.849436 -99.344971 
L 109.28788 -99.781953 
L 109.726323 -100.218924 
L 110.164766 -100.655884 
L 110.60321 -101.092835 
L 111.041653 -101.529774 
L 111.480097 -101.966703 
L 111.91854 -102.403622 
L 112.356983 -102.840529 
L 112.795427 -103.277426 
L 113.23387 -103.714312 
L 113.672314 -104.151186 
L 114.110757 -104.58805 
L 114.549201 -105.024902 
L 114.987644 -105.461743 
L 115.426087 -105.898572 
L 115.864531 -106.33539 
L 116.302974 -106.772196 
L 116.741418 -107.208991 
L 117.179861 -107.645774 
L 117.618304 -108.082545 
L 118.056748 -108.519304 
L 118.495191 -108.956051 
L 118.933635 -109.392786 
L 119.372078 -109.829509 
L 119.810522 -110.26622 
L 120.248965 -110.702919 
L 120.687408 -111.139605 
L 121.125852 -111.576279 
L 121.564295 -112.012941 
L 122.002739 -112.44959 
L 122.441182 -112.886226 
L 122.879625 -113.322851 
L 123.318069 -113.759462 
L 123.756512 -114.196061 
L 124.194956 -114.632647 
L 124.633399 -115.069221 
L 125.071843 -115.505782 
L 125.510286 -115.94233 
L 125.948729 -116.378865 
L 126.387173 -116.815388 
L 126.825616 -117.251898 
L 127.26406 -117.688395 
L 127.702503 -118.124879 
L 128.140946 -118.561351 
L 128.57939 -118.99781 
L 129.017833 -119.434255 
L 129.456277 -119.870689 
L 129.89472 -120.307109 
L 130.333163 -120.743516 
L 130.771607 -121.179911 
L 131.21005 -121.616293 
L 131.648494 -122.052663 
L 132.086937 -122.489019 
L 132.525381 -122.925363 
L 132.963824 -123.361695 
L 133.402267 -123.798014 
L 133.840711 -124.23432 
L 134.279154 -124.670614 
L 134.717598 -125.106895 
L 135.156041 -125.543164 
L 135.594484 -125.97942 
L 136.032928 -126.415665 
L 136.471371 -126.851897 
L 136.909815 -127.288117 
L 137.348258 -127.724324 
L 137.786702 -128.16052 
L 138.225145 -128.596704 
L 138.663588 -129.032875 
L 139.102032 -129.469035 
L 139.540475 -129.905184 
L 139.978919 -130.34132 
L 140.417362 -130.777445 
L 140.855805 -131.213558 
L 141.294249 -131.64966 
L 141.732692 -132.08575 
L 142.171136 -132.52183 
L 142.609579 -132.957898 
L 143.048023 -133.393955 
L 143.486466 -133.83 
L 143.924909 -134.266035 
L 144.363353 -134.70206 
L 144.801796 -135.138073 
L 145.24024 -135.574076 
L 145.678683 -136.010068 
L 146.117126 -136.44605 
L 146.55557 -136.882021 
L 146.994013 -137.317983 
L 147.432457 -137.753934 
L 147.8709 -138.189875 
L 148.309344 -138.625806 
L 148.747787 -139.061727 
L 149.18623 -139.497639 
L 149.624674 -139.933541 
L 150.063117 -140.369433 
L 150.501561 -140.805316 
L 150.940004 -141.24119 
L 151.378447 -141.677054 
L 151.816891 -142.112909 
L 152.255334 -142.548756 
L 152.693778 -142.984593 
L 153.132221 -143.420422 
L 153.570664 -143.856242 
L 154.009108 -144.292053 
L 154.447551 -144.727856 
L 154.885995 -145.16365 
L 155.324438 -145.599436 
L 155.762882 -146.035214 
L 156.201325 -146.470984 
L 156.639768 -146.906746 
L 157.078212 -147.3425 
L 157.516655 -147.778246 
L 157.955099 -148.213985 
L 158.393542 -148.649716 
L 158.831985 -149.085439 
L 159.270429 -149.521156 
L 159.708872 -149.956864 
L 160.147316 -150.392566 
L 160.585759 -150.828261 
L 161.024203 -151.263948 
L 161.462646 -151.699629 
L 161.901089 -152.135302 
L 162.339533 -152.570969 
L 162.777976 -153.00663 
L 163.21642 -153.442284 
L 163.654863 -153.877931 
L 164.093306 -154.313572 
L 164.53175 -154.749207 
L 164.970193 -155.184835 
L 165.408637 -155.620458 
L 165.84708 -156.056074 
L 166.285524 -156.491684 
L 166.723967 -156.927289 
L 167.16241 -157.362888 
L 167.600854 -157.798481 
L 168.039297 -158.234068 
L 168.477741 -158.66965 
L 168.916184 -159.105226 
L 169.354627 -159.540797 
L 169.793071 -159.976363 
L 170.231514 -160.411923 
L 170.669958 -160.847479 
L 171.108401 -161.283029 
L 171.546845 -161.718574 
L 171.985288 -162.154114 
L 172.423731 -162.589649 
L 172.862175 -163.02518 
L 173.300618 -163.460705 
L 173.739062 -163.896226 
L 174.177505 -164.331743 
L 174.615948 -164.767255 
L 175.054392 -165.202762 
L 175.492835 -165.638265 
L 175.931279 -166.073763 
L 176.369722 -166.509258 
L 176.808165 -166.944748 
L 177.246609 -167.380234 
L 177.685052 -167.815715 
L 178.123496 -168.251193 
L 178.561939 -168.686666 
L 179.000383 -169.122136 
L 179.438826 -169.557602 
L 179.877269 -169.993064 
L 180.315713 -170.428522 
L 180.754156 -170.863976 
L 181.1926 -171.299427 
L 181.631043 -171.734874 
L 182.069486 -172.170318 
L 182.50793 -172.605758 
L 182.946373 -173.041194 
L 183.384817 -173.476627 
L 183.82326 -173.912057 
L 184.261704 -174.347483 
L 184.700147 -174.782906 
L 185.13859 -175.218326 
L 185.577034 -175.653743 
L 186.015477 -176.089156 
L 186.453921 -176.524566 
L 186.892364 -176.959974 
L 187.330807 -177.395378 
L 187.769251 -177.830779 
L 188.207694 -178.266177 
L 188.646138 -178.701573 
L 189.084581 -179.136965 
L 189.084581 -179.611193 
L 189.084581 -179.611193 
L 188.646138 -179.173645 
L 188.207694 -178.736101 
L 187.769251 -178.298559 
L 187.330807 -177.86102 
L 186.892364 -177.423483 
L 186.453921 -176.98595 
L 186.015477 -176.548421 
L 185.577034 -176.110894 
L 185.13859 -175.67337 
L 184.700147 -175.23585 
L 184.261704 -174.798332 
L 183.82326 -174.360818 
L 183.384817 -173.923308 
L 182.946373 -173.485801 
L 182.50793 -173.048297 
L 182.069486 -172.610797 
L 181.631043 -172.1733 
L 181.1926 -171.735807 
L 180.754156 -171.298317 
L 180.315713 -170.860831 
L 179.877269 -170.423349 
L 179.438826 -169.985871 
L 179.000383 -169.548397 
L 178.561939 -169.110926 
L 178.123496 -168.673459 
L 177.685052 -168.235997 
L 177.246609 -167.798538 
L 176.808165 -167.361084 
L 176.369722 -166.923634 
L 175.931279 -166.486188 
L 175.492835 -166.048746 
L 175.054392 -165.611309 
L 174.615948 -165.173876 
L 174.177505 -164.736447 
L 173.739062 -164.299023 
L 173.300618 -163.861604 
L 172.862175 -163.42419 
L 172.423731 -162.98678 
L 171.985288 -162.549375 
L 171.546845 -162.111975 
L 171.108401 -161.67458 
L 170.669958 -161.237189 
L 170.231514 -160.799804 
L 169.793071 -160.362425 
L 169.354627 -159.92505 
L 168.916184 -159.487681 
L 168.477741 -159.050317 
L 168.039297 -158.612959 
L 167.600854 -158.175606 
L 167.16241 -157.738259 
L 166.723967 -157.300917 
L 166.285524 -156.863581 
L 165.84708 -156.426251 
L 165.408637 -155.988928 
L 164.970193 -155.55161 
L 164.53175 -155.114298 
L 164.093306 -154.676992 
L 163.654863 -154.239693 
L 163.21642 -153.8024 
L 162.777976 -153.365114 
L 162.339533 -152.927834 
L 161.901089 -152.490561 
L 161.462646 -152.053294 
L 161.024203 -151.616035 
L 160.585759 -151.178782 
L 160.147316 -150.741536 
L 159.708872 -150.304298 
L 159.270429 -149.867066 
L 158.831985 -149.429842 
L 158.393542 -148.992625 
L 157.955099 -148.555416 
L 157.516655 -148.118214 
L 157.078212 -147.68102 
L 156.639768 -147.243834 
L 156.201325 -146.806656 
L 155.762882 -146.369485 
L 155.324438 -145.932323 
L 154.885995 -145.495169 
L 154.447551 -145.058023 
L 154.009108 -144.620886 
L 153.570664 -144.183757 
L 153.132221 -143.746637 
L 152.693778 -143.309525 
L 152.255334 -142.872422 
L 151.816891 -142.435328 
L 151.378447 -141.998243 
L 150.940004 -141.561168 
L 150.501561 -141.124101 
L 150.063117 -140.687044 
L 149.624674 -140.249996 
L 149.18623 -139.812957 
L 148.747787 -139.375929 
L 148.309344 -138.93891 
L 147.8709 -138.501901 
L 147.432457 -138.064901 
L 146.994013 -137.627912 
L 146.55557 -137.190933 
L 146.117126 -136.753965 
L 145.678683 -136.317006 
L 145.24024 -135.880058 
L 144.801796 -135.443121 
L 144.363353 -135.006194 
L 143.924909 -134.569278 
L 143.486466 -134.132372 
L 143.048023 -133.695478 
L 142.609579 -133.258595 
L 142.171136 -132.821723 
L 141.732692 -132.384861 
L 141.294249 -131.948012 
L 140.855805 -131.511173 
L 140.417362 -131.074346 
L 139.978919 -130.637531 
L 139.540475 -130.200727 
L 139.102032 -129.763935 
L 138.663588 -129.327155 
L 138.225145 -128.890386 
L 137.786702 -128.45363 
L 137.348258 -128.016885 
L 136.909815 -127.580153 
L 136.471371 -127.143432 
L 136.032928 -126.706724 
L 135.594484 -126.270028 
L 135.156041 -125.833344 
L 134.717598 -125.396673 
L 134.279154 -124.960014 
L 133.840711 -124.523368 
L 133.402267 -124.086734 
L 132.963824 -123.650112 
L 132.525381 -123.213503 
L 132.086937 -122.776907 
L 131.648494 -122.340324 
L 131.21005 -121.903753 
L 130.771607 -121.467195 
L 130.333163 -121.030649 
L 129.89472 -120.594116 
L 129.456277 -120.157597 
L 129.017833 -119.721089 
L 128.57939 -119.284595 
L 128.140946 -118.848114 
L 127.702503 -118.411645 
L 127.26406 -117.975189 
L 126.825616 -117.538746 
L 126.387173 -117.102315 
L 125.948729 -116.665898 
L 125.510286 -116.229493 
L 125.071843 -115.793101 
L 124.633399 -115.356722 
L 124.194956 -114.920355 
L 123.756512 -114.484001 
L 123.318069 -114.04766 
L 122.879625 -113.611331 
L 122.441182 -113.175015 
L 122.002739 -112.738711 
L 121.564295 -112.30242 
L 121.125852 -111.866141 
L 120.687408 -111.429875 
L 120.248965 -110.993621 
L 119.810522 -110.55738 
L 119.372078 -110.12115 
L 118.933635 -109.684933 
L 118.495191 -109.248728 
L 118.056748 -108.812535 
L 117.618304 -108.376354 
L 117.179861 -107.940184 
L 116.741418 -107.504027 
L 116.302974 -107.067881 
L 115.864531 -106.631747 
L 115.426087 -106.195625 
L 114.987644 -105.759514 
L 114.549201 -105.323415 
L 114.110757 -104.887327 
L 113.672314 -104.45125 
L 113.23387 -104.015184 
L 112.795427 -103.57913 
L 112.356983 -103.143086 
L 111.91854 -102.707054 
L 111.480097 -102.271032 
L 111.041653 -101.835021 
L 110.60321 -101.39902 
L 110.164766 -100.96303 
L 109.726323 -100.527051 
L 109.28788 -100.091081 
L 108.849436 -99.655122 
L 108.410993 -99.219173 
L 107.972549 -98.783234 
L 107.534106 -98.347305 
L 107.095662 -97.911386 
L 106.657219 -97.475477 
L 106.218776 -97.039577 
L 105.780332 -96.603687 
L 105.341889 -96.167806 
L 104.903445 -95.731934 
L 104.465002 -95.296071 
L 104.026559 -94.860218 
L 103.588115 -94.424374 
L 103.149672 -93.988538 
L 102.711228 -93.552711 
L 102.272785 -93.116893 
L 101.834342 -92.681084 
L 101.395898 -92.245283 
L 100.957455 -91.80949 
L 100.519011 -91.373706 
L 100.080568 -90.937929 
L 99.642124 -90.502161 
L 99.203681 -90.066401 
L 98.765238 -89.630649 
L 98.326794 -89.194904 
L 97.888351 -88.759167 
L 97.449907 -88.323438 
L 97.011464 -87.887716 
L 96.573021 -87.452001 
L 96.134577 -87.016294 
L 95.696134 -86.580594 
L 95.25769 -86.144901 
L 94.819247 -85.709215 
L 94.380803 -85.273536 
L 93.94236 -84.837864 
L 93.503917 -84.402198 
L 93.065473 -83.966539 
L 92.62703 -83.530887 
L 92.188586 -83.095241 
L 91.750143 -82.659601 
L 91.3117 -82.223968 
L 90.873256 -81.78834 
L 90.434813 -81.352719 
L 89.996369 -80.917104 
L 89.557926 -80.481495 
L 89.119482 -80.045892 
L 88.681039 -79.610294 
L 88.242596 -79.174703 
L 87.804152 -78.739116 
L 87.365709 -78.303536 
L 86.927265 -77.86796 
L 86.488822 -77.432391 
L 86.050379 -76.996826 
L 85.611935 -76.561267 
L 85.173492 -76.125713 
L 84.735048 -75.690164 
L 84.296605 -75.25462 
L 83.858161 -74.81908 
L 83.419718 -74.383546 
L 82.981275 -73.948017 
L 82.542831 -73.512492 
L 82.104388 -73.076972 
L 81.665944 -72.641457 
L 81.227501 -72.205946 
L 80.789058 -71.770439 
L 80.350614 -71.334937 
L 79.912171 -70.89944 
L 79.473727 -70.463946 
L 79.035284 -70.028457 
L 78.596841 -69.592972 
L 78.158397 -69.157492 
L 77.719954 -68.722015 
L 77.28151 -68.286542 
L 76.843067 -67.851073 
L 76.404623 -67.415608 
L 75.96618 -66.980147 
L 75.527737 -66.54469 
L 75.089293 -66.109236 
L 74.65085 -65.673786 
L 74.212406 -65.23834 
L 73.773963 -64.802897 
L 73.33552 -64.367458 
L 72.897076 -63.932022 
L 72.458633 -63.49659 
L 72.020189 -63.061161 
L 71.581746 -62.625735 
L 71.143302 -62.190313 
L 70.704859 -61.754894 
L 70.266416 -61.319478 
L 69.827972 -60.884065 
L 69.389529 -60.448656 
L 68.951085 -60.013249 
L 68.512642 -59.577846 
L 68.074199 -59.142445 
L 67.635755 -58.707047 
L 67.197312 -58.271653 
L 66.758868 -57.836261 
L 66.320425 -57.400872 
L 65.881981 -56.965485 
L 65.443538 -56.530102 
L 65.005095 -56.094721 
L 64.566651 -55.659343 
L 64.128208 -55.223967 
L 63.689764 -54.788595 
L 63.251321 -54.353224 
L 62.812878 -53.917856 
L 62.374434 -53.482491 
L 61.935991 -53.047128 
L 61.497547 -52.611768 
L 61.059104 -52.17641 
L 60.62066 -51.741054 
L 60.182217 -51.305701 
L 59.743774 -50.87035 
L 59.30533 -50.435001 
L 58.866887 -49.999655 
L 58.428443 -49.564311 
L 57.99 -49.128969 
z
"/>
    </defs>
    <g clip-path="url(#pb25898fc3d)">
     <use xlink:href="#mfc45fd2103" x="0" y="216" style="fill: #4682b4; fill-opacity: 0.5"/>
    </g>
   </g>
   <g id="matplotlib.axis_1">
    <g id="xtick_1">
     <g id="line2d_1">
      <defs>
       <path id="mc9f68ab9e0" d="M 0 0 
L 0 -3.5 
" style="stroke: #000000; stroke-width: 0.8"/>
      </defs>
      <g>
       <use xlink:href="#mc9f68ab9e0" x="63.948845" y="173.94" style="stroke: #000000; stroke-width: 0.8"/>
      </g>
     </g>
     <g id="text_1">
      <!-- 0 -->
      <g transform="translate(60.612282 186.048125) scale(0.12 -0.12)">
       <defs>
        <path id="Helvetica-30" d="M 1731 4475 
Q 2600 4475 2988 3759 
Q 3288 3206 3288 2244 
Q 3288 1331 3016 734 
Q 2622 -122 1728 -122 
Q 922 -122 528 578 
Q 200 1163 200 2147 
Q 200 2909 397 3456 
Q 766 4475 1731 4475 
z
M 1725 391 
Q 2163 391 2422 778 
Q 2681 1166 2681 2222 
Q 2681 2984 2493 3476 
Q 2306 3969 1766 3969 
Q 1269 3969 1039 3501 
Q 809 3034 809 2125 
Q 809 1441 956 1025 
Q 1181 391 1725 391 
z
" transform="scale(0.015625)"/>
       </defs>
       <use xlink:href="#Helvetica-30"/>
      </g>
     </g>
    </g>
    <g id="xtick_2">
     <g id="line2d_2">
      <g>
       <use xlink:href="#mc9f68ab9e0" x="123.537291" y="173.94" style="stroke: #000000; stroke-width: 0.8"/>
      </g>
     </g>
     <g id="text_2">
      <!-- 50 -->
      <g transform="translate(116.864166 186.048125) scale(0.12 -0.12)">
       <defs>
        <path id="Helvetica-35" d="M 791 1141 
Q 847 659 1238 475 
Q 1438 381 1700 381 
Q 2200 381 2440 700 
Q 2681 1019 2681 1406 
Q 2681 1875 2395 2131 
Q 2109 2388 1709 2388 
Q 1419 2388 1211 2275 
Q 1003 2163 856 1963 
L 369 1991 
L 709 4400 
L 3034 4400 
L 3034 3856 
L 1131 3856 
L 941 2613 
Q 1097 2731 1238 2791 
Q 1488 2894 1816 2894 
Q 2431 2894 2859 2497 
Q 3288 2100 3288 1491 
Q 3288 856 2895 371 
Q 2503 -113 1644 -113 
Q 1097 -113 676 195 
Q 256 503 206 1141 
L 791 1141 
z
" transform="scale(0.015625)"/>
       </defs>
       <use xlink:href="#Helvetica-35"/>
       <use xlink:href="#Helvetica-30" x="55.615234"/>
      </g>
     </g>
    </g>
    <g id="xtick_3">
     <g id="line2d_3">
      <g>
       <use xlink:href="#mc9f68ab9e0" x="183.125737" y="173.94" style="stroke: #000000; stroke-width: 0.8"/>
      </g>
     </g>
     <g id="text_3">
      <!-- 100 -->
      <g transform="translate(173.116049 186.048125) scale(0.12 -0.12)">
       <defs>
        <path id="Helvetica-31" d="M 613 3169 
L 613 3600 
Q 1222 3659 1462 3798 
Q 1703 3938 1822 4456 
L 2266 4456 
L 2266 0 
L 1666 0 
L 1666 3169 
L 613 3169 
z
" transform="scale(0.015625)"/>
       </defs>
       <use xlink:href="#Helvetica-31"/>
       <use xlink:href="#Helvetica-30" x="55.615234"/>
       <use xlink:href="#Helvetica-30" x="111.230469"/>
      </g>
     </g>
    </g>
    <g id="text_4">
     <!-- P% -->
     <g transform="translate(114.199791 201.1575) scale(0.12 -0.12)">
      <defs>
       <path id="Helvetica-50" d="M 547 4591 
L 2613 4591 
Q 3225 4591 3600 4245 
Q 3975 3900 3975 3275 
Q 3975 2738 3640 2339 
Q 3306 1941 2613 1941 
L 1169 1941 
L 1169 0 
L 547 0 
L 547 4591 
z
M 3347 3272 
Q 3347 3778 2972 3959 
Q 2766 4056 2406 4056 
L 1169 4056 
L 1169 2466 
L 2406 2466 
Q 2825 2466 3086 2644 
Q 3347 2822 3347 3272 
z
" transform="scale(0.015625)"/>
       <path id="Helvetica-25" d="M 4363 2175 
Q 4813 2175 5131 1856 
Q 5450 1538 5450 1088 
Q 5450 638 5131 319 
Q 4813 0 4363 0 
Q 3909 0 3590 319 
Q 3272 638 3272 1088 
Q 3272 1538 3590 1856 
Q 3909 2175 4363 2175 
z
M 3909 4456 
L 4256 4456 
L 1753 -119 
L 1406 -119 
L 3909 4456 
z
M 1294 2606 
Q 1563 2606 1752 2795 
Q 1941 2984 1941 3250 
Q 1941 3516 1752 3705 
Q 1563 3894 1294 3894 
Q 1028 3894 839 3706 
Q 650 3519 650 3250 
Q 650 2984 839 2795 
Q 1028 2606 1294 2606 
z
M 1294 4341 
Q 1747 4341 2065 4020 
Q 2384 3700 2384 3250 
Q 2384 2800 2065 2481 
Q 1747 2163 1294 2163 
Q 844 2163 525 2481 
Q 206 2800 206 3250 
Q 206 3700 525 4020 
Q 844 4341 1294 4341 
z
M 4363 444 
Q 4628 444 4817 633 
Q 5006 822 5006 1088 
Q 5006 1353 4817 1542 
Q 4628 1731 4363 1731 
Q 4094 1731 3905 1542 
Q 3716 1353 3716 1088 
Q 3716 822 3905 633 
Q 4094 444 4363 444 
z
" transform="scale(0.015625)"/>
      </defs>
      <use xlink:href="#Helvetica-50"/>
      <use xlink:href="#Helvetica-25" x="66.699219"/>
     </g>
    </g>
   </g>
   <g id="matplotlib.axis_2">
    <g id="ytick_1">
     <g id="line2d_4">
      <defs>
       <path id="m2e05ea604c" d="M 0 0 
L 3.5 0 
" style="stroke: #000000; stroke-width: 0.8"/>
      </defs>
      <g>
       <use xlink:href="#m2e05ea604c" x="57.99" y="171.426095" style="stroke: #000000; stroke-width: 0.8"/>
      </g>
     </g>
     <g id="text_5">
      <!-- 0 -->
      <g transform="translate(47.816875 175.730157) scale(0.12 -0.12)">
       <use xlink:href="#Helvetica-30"/>
      </g>
     </g>
    </g>
    <g id="ytick_2">
     <g id="line2d_5">
      <g>
       <use xlink:href="#m2e05ea604c" x="57.99" y="128.300001" style="stroke: #000000; stroke-width: 0.8"/>
      </g>
     </g>
     <g id="text_6">
      <!-- 1000 -->
      <g transform="translate(27.7975 132.604063) scale(0.12 -0.12)">
       <use xlink:href="#Helvetica-31"/>
       <use xlink:href="#Helvetica-30" x="55.615234"/>
       <use xlink:href="#Helvetica-30" x="111.230469"/>
       <use xlink:href="#Helvetica-30" x="166.845703"/>
      </g>
     </g>
    </g>
    <g id="ytick_3">
     <g id="line2d_6">
      <g>
       <use xlink:href="#m2e05ea604c" x="57.99" y="85.173906" style="stroke: #000000; stroke-width: 0.8"/>
      </g>
     </g>
     <g id="text_7">
      <!-- 2000 -->
      <g transform="translate(27.7975 89.477969) scale(0.12 -0.12)">
       <defs>
        <path id="Helvetica-32" d="M 200 0 
Q 231 578 439 1006 
Q 647 1434 1250 1784 
L 1850 2131 
Q 2253 2366 2416 2531 
Q 2672 2791 2672 3125 
Q 2672 3516 2437 3745 
Q 2203 3975 1813 3975 
Q 1234 3975 1013 3538 
Q 894 3303 881 2888 
L 309 2888 
Q 319 3472 525 3841 
Q 891 4491 1816 4491 
Q 2584 4491 2939 4075 
Q 3294 3659 3294 3150 
Q 3294 2613 2916 2231 
Q 2697 2009 2131 1694 
L 1703 1456 
Q 1397 1288 1222 1134 
Q 909 863 828 531 
L 3272 531 
L 3272 0 
L 200 0 
z
" transform="scale(0.015625)"/>
       </defs>
       <use xlink:href="#Helvetica-32"/>
       <use xlink:href="#Helvetica-30" x="55.615234"/>
       <use xlink:href="#Helvetica-30" x="111.230469"/>
       <use xlink:href="#Helvetica-30" x="166.845703"/>
      </g>
     </g>
    </g>
    <g id="ytick_4">
     <g id="line2d_7">
      <g>
       <use xlink:href="#m2e05ea604c" x="57.99" y="42.047812" style="stroke: #000000; stroke-width: 0.8"/>
      </g>
     </g>
     <g id="text_8">
      <!-- 3000 -->
      <g transform="translate(27.7975 46.351874) scale(0.12 -0.12)">
       <defs>
        <path id="Helvetica-33" d="M 1663 -122 
Q 869 -122 511 314 
Q 153 750 153 1375 
L 741 1375 
Q 778 941 903 744 
Q 1122 391 1694 391 
Q 2138 391 2406 628 
Q 2675 866 2675 1241 
Q 2675 1703 2392 1887 
Q 2109 2072 1606 2072 
Q 1550 2072 1492 2070 
Q 1434 2069 1375 2066 
L 1375 2563 
Q 1463 2553 1522 2550 
Q 1581 2547 1650 2547 
Q 1966 2547 2169 2647 
Q 2525 2822 2525 3272 
Q 2525 3606 2287 3787 
Q 2050 3969 1734 3969 
Q 1172 3969 956 3594 
Q 838 3388 822 3006 
L 266 3006 
Q 266 3506 466 3856 
Q 809 4481 1675 4481 
Q 2359 4481 2734 4176 
Q 3109 3872 3109 3294 
Q 3109 2881 2888 2625 
Q 2750 2466 2531 2375 
Q 2884 2278 3082 2001 
Q 3281 1725 3281 1325 
Q 3281 684 2859 281 
Q 2438 -122 1663 -122 
z
" transform="scale(0.015625)"/>
       </defs>
       <use xlink:href="#Helvetica-33"/>
       <use xlink:href="#Helvetica-30" x="55.615234"/>
       <use xlink:href="#Helvetica-30" x="111.230469"/>
       <use xlink:href="#Helvetica-30" x="166.845703"/>
      </g>
     </g>
    </g>
    <g id="text_9">
     <!-- GFP/OD -->
     <g transform="translate(21.29625 124.89) rotate(-90) scale(0.12 -0.12)">
      <defs>
       <path id="Helvetica-47" d="M 2472 4709 
Q 3119 4709 3591 4459 
Q 4275 4100 4428 3200 
L 3813 3200 
Q 3700 3703 3347 3933 
Q 2994 4163 2456 4163 
Q 1819 4163 1383 3684 
Q 947 3206 947 2259 
Q 947 1441 1306 927 
Q 1666 413 2478 413 
Q 3100 413 3508 773 
Q 3916 1134 3925 1941 
L 2488 1941 
L 2488 2456 
L 4503 2456 
L 4503 0 
L 4103 0 
L 3953 591 
Q 3638 244 3394 109 
Q 2984 -122 2353 -122 
Q 1538 -122 950 406 
Q 309 1069 309 2225 
Q 309 3378 934 4059 
Q 1528 4709 2472 4709 
z
M 2369 4716 
L 2369 4716 
z
" transform="scale(0.015625)"/>
       <path id="Helvetica-46" d="M 547 4591 
L 3731 4591 
L 3731 4028 
L 1169 4028 
L 1169 2634 
L 3422 2634 
L 3422 2088 
L 1169 2088 
L 1169 0 
L 547 0 
L 547 4591 
z
" transform="scale(0.015625)"/>
       <path id="Helvetica-2f" d="M 1456 4591 
L 1931 4591 
L 475 0 
L 0 0 
L 1456 4591 
z
" transform="scale(0.015625)"/>
       <path id="Helvetica-4f" d="M 2469 4716 
Q 3684 4716 4269 3934 
Q 4725 3325 4725 2375 
Q 4725 1347 4203 666 
Q 3591 -134 2456 -134 
Q 1397 -134 791 566 
Q 250 1241 250 2272 
Q 250 3203 713 3866 
Q 1306 4716 2469 4716 
z
M 2531 422 
Q 3353 422 3720 1011 
Q 4088 1600 4088 2366 
Q 4088 3175 3664 3669 
Q 3241 4163 2506 4163 
Q 1794 4163 1344 3673 
Q 894 3184 894 2231 
Q 894 1469 1280 945 
Q 1666 422 2531 422 
z
M 2488 4716 
L 2488 4716 
z
" transform="scale(0.015625)"/>
       <path id="Helvetica-44" d="M 2250 531 
Q 2566 531 2769 597 
Q 3131 719 3363 1066 
Q 3547 1344 3628 1778 
Q 3675 2038 3675 2259 
Q 3675 3113 3336 3584 
Q 2997 4056 2244 4056 
L 1141 4056 
L 1141 531 
L 2250 531 
z
M 516 4591 
L 2375 4591 
Q 3322 4591 3844 3919 
Q 4309 3313 4309 2366 
Q 4309 1634 4034 1044 
Q 3550 0 2369 0 
L 516 0 
L 516 4591 
z
" transform="scale(0.015625)"/>
      </defs>
      <use xlink:href="#Helvetica-47"/>
      <use xlink:href="#Helvetica-46" x="77.783203"/>
      <use xlink:href="#Helvetica-50" x="138.867188"/>
      <use xlink:href="#Helvetica-2f" x="205.566406"/>
      <use xlink:href="#Helvetica-4f" x="233.349609"/>
      <use xlink:href="#Helvetica-44" x="311.132812"/>
     </g>
    </g>
   </g>
   <g id="LineCollection_1">
    <path d="M 183.125737 42.534917 
L 183.125737 42.250806 
" clip-path="url(#pb25898fc3d)" style="fill: none; stroke: #4682b4"/>
    <path d="M 181.933968 44.923703 
L 181.933968 44.644447 
" clip-path="url(#pb25898fc3d)" style="fill: none; stroke: #4682b4"/>
    <path d="M 171.208047 54.395816 
L 171.208047 54.125113 
" clip-path="url(#pb25898fc3d)" style="fill: none; stroke: #4682b4"/>
    <path d="M 123.537291 100.531812 
L 123.537291 100.294014 
" clip-path="url(#pb25898fc3d)" style="fill: none; stroke: #4682b4"/>
    <path d="M 87.784223 138.492476 
L 87.784223 138.272943 
" clip-path="url(#pb25898fc3d)" style="fill: none; stroke: #4682b4"/>
    <path d="M 63.948845 161.194018 
L 63.948845 160.947472 
" clip-path="url(#pb25898fc3d)" style="fill: none; stroke: #4682b4"/>
   </g>
   <g id="line2d_8">
    <defs>
     <path id="mcbff72d413" d="M 2 0 
L -2 -0 
" style="stroke: #4682b4"/>
    </defs>
    <g clip-path="url(#pb25898fc3d)">
     <use xlink:href="#mcbff72d413" x="183.125737" y="42.534917" style="fill: #4682b4; stroke: #4682b4"/>
     <use xlink:href="#mcbff72d413" x="181.933968" y="44.923703" style="fill: #4682b4; stroke: #4682b4"/>
     <use xlink:href="#mcbff72d413" x="171.208047" y="54.395816" style="fill: #4682b4; stroke: #4682b4"/>
     <use xlink:href="#mcbff72d413" x="123.537291" y="100.531812" style="fill: #4682b4; stroke: #4682b4"/>
     <use xlink:href="#mcbff72d413" x="87.784223" y="138.492476" style="fill: #4682b4; stroke: #4682b4"/>
     <use xlink:href="#mcbff72d413" x="63.948845" y="161.194018" style="fill: #4682b4; stroke: #4682b4"/>
    </g>
   </g>
   <g id="line2d_9">
    <g clip-path="url(#pb25898fc3d)">
     <use xlink:href="#mcbff72d413" x="183.125737" y="42.250806" style="fill: #4682b4; stroke: #4682b4"/>
     <use xlink:href="#mcbff72d413" x="181.933968" y="44.644447" style="fill: #4682b4; stroke: #4682b4"/>
     <use xlink:href="#mcbff72d413" x="171.208047" y="54.125113" style="fill: #4682b4; stroke: #4682b4"/>
     <use xlink:href="#mcbff72d413" x="123.537291" y="100.294014" style="fill: #4682b4; stroke: #4682b4"/>
     <use xlink:href="#mcbff72d413" x="87.784223" y="138.272943" style="fill: #4682b4; stroke: #4682b4"/>
     <use xlink:href="#mcbff72d413" x="63.948845" y="160.947472" style="fill: #4682b4; stroke: #4682b4"/>
    </g>
   </g>
   <g id="line2d_10">
    <path d="M 57.99 167.130487 
L 189.084581 36.625921 
L 189.084581 36.625921 
" clip-path="url(#pb25898fc3d)" style="fill: none; stroke: #000000; stroke-linecap: square"/>
   </g>
   <g id="line2d_11">
    <path d="M 183.125737 42.392861 
L 181.933968 44.784075 
L 171.208047 54.260464 
L 123.537291 100.412913 
L 87.784223 138.382709 
L 63.948845 161.070745 
" clip-path="url(#pb25898fc3d)" style="fill: none"/>
    <defs>
     <path id="mb40d8995bd" d="M 0 5 
C 1.326016 5 2.597899 4.473168 3.535534 3.535534 
C 4.473168 2.597899 5 1.326016 5 0 
C 5 -1.326016 4.473168 -2.597899 3.535534 -3.535534 
C 2.597899 -4.473168 1.326016 -5 0 -5 
C -1.326016 -5 -2.597899 -4.473168 -3.535534 -3.535534 
C -4.473168 -2.597899 -5 -1.326016 -5 0 
C -5 1.326016 -4.473168 2.597899 -3.535534 3.535534 
C -2.597899 4.473168 -1.326016 5 0 5 
z
" style="stroke: #4682b4"/>
    </defs>
    <g clip-path="url(#pb25898fc3d)">
     <use xlink:href="#mb40d8995bd" x="183.125737" y="42.392861" style="fill-opacity: 0; stroke: #4682b4"/>
     <use xlink:href="#mb40d8995bd" x="181.933968" y="44.784075" style="fill-opacity: 0; stroke: #4682b4"/>
     <use xlink:href="#mb40d8995bd" x="171.208047" y="54.260464" style="fill-opacity: 0; stroke: #4682b4"/>
     <use xlink:href="#mb40d8995bd" x="123.537291" y="100.412913" style="fill-opacity: 0; stroke: #4682b4"/>
     <use xlink:href="#mb40d8995bd" x="87.784223" y="138.382709" style="fill-opacity: 0; stroke: #4682b4"/>
     <use xlink:href="#mb40d8995bd" x="63.948845" y="161.070745" style="fill-opacity: 0; stroke: #4682b4"/>
    </g>
   </g>
   <g id="patch_3">
    <path d="M 57.99 173.94 
L 57.99 29.83875 
" style="fill: none; stroke: #000000; stroke-width: 0.8; stroke-linejoin: miter; stroke-linecap: square"/>
   </g>
   <g id="patch_4">
    <path d="M 189.084581 173.94 
L 189.084581 29.83875 
" style="fill: none; stroke: #000000; stroke-width: 0.8; stroke-linejoin: miter; stroke-linecap: square"/>
   </g>
   <g id="patch_5">
    <path d="M 57.99 173.94 
L 189.084581 173.94 
" style="fill: none; stroke: #000000; stroke-width: 0.8; stroke-linejoin: miter; stroke-linecap: square"/>
   </g>
   <g id="patch_6">
    <path d="M 57.99 29.83875 
L 189.084581 29.83875 
" style="fill: none; stroke: #000000; stroke-width: 0.8; stroke-linejoin: miter; stroke-linecap: square"/>
   </g>
   <g id="text_10">
    <!--  -->
    <g transform="translate(71.099458 35.807775) scale(0.12 -0.12)"/>
    <!-- y = 28 x + 237 -->
    <g transform="translate(71.099458 48.638775) scale(0.12 -0.12)">
     <defs>
      <path id="Helvetica-79" d="M 2503 3347 
L 3125 3347 
Q 3006 3025 2597 1878 
Q 2291 1016 2084 472 
Q 1597 -809 1397 -1090 
Q 1197 -1372 709 -1372 
Q 591 -1372 527 -1362 
Q 463 -1353 369 -1328 
L 369 -816 
Q 516 -856 581 -865 
Q 647 -875 697 -875 
Q 853 -875 926 -823 
Q 1000 -772 1050 -697 
Q 1066 -672 1162 -440 
Q 1259 -209 1303 -97 
L 66 3347 
L 703 3347 
L 1600 622 
L 2503 3347 
z
M 1597 3428 
L 1597 3428 
z
" transform="scale(0.015625)"/>
      <path id="Helvetica-20" transform="scale(0.015625)"/>
      <path id="Helvetica-3d" d="M 3547 2569 
L 3547 2044 
L 288 2044 
L 288 2569 
L 3547 2569 
z
M 3547 1228 
L 3547 694 
L 288 694 
L 288 1228 
L 3547 1228 
z
" transform="scale(0.015625)"/>
      <path id="Helvetica-38" d="M 1741 2600 
Q 2113 2600 2322 2808 
Q 2531 3016 2531 3303 
Q 2531 3553 2331 3762 
Q 2131 3972 1722 3972 
Q 1316 3972 1134 3762 
Q 953 3553 953 3272 
Q 953 2956 1187 2778 
Q 1422 2600 1741 2600 
z
M 1775 384 
Q 2166 384 2423 595 
Q 2681 806 2681 1225 
Q 2681 1659 2415 1884 
Q 2150 2109 1734 2109 
Q 1331 2109 1076 1879 
Q 822 1650 822 1244 
Q 822 894 1055 639 
Q 1288 384 1775 384 
z
M 975 2384 
Q 741 2484 609 2619 
Q 363 2869 363 3269 
Q 363 3769 725 4128 
Q 1088 4488 1753 4488 
Q 2397 4488 2762 4148 
Q 3128 3809 3128 3356 
Q 3128 2938 2916 2678 
Q 2797 2531 2547 2391 
Q 2825 2263 2984 2097 
Q 3281 1784 3281 1284 
Q 3281 694 2884 283 
Q 2488 -128 1763 -128 
Q 1109 -128 657 226 
Q 206 581 206 1256 
Q 206 1653 400 1942 
Q 594 2231 975 2384 
z
" transform="scale(0.015625)"/>
      <path id="Helvetica-78" d="M 94 3347 
L 822 3347 
L 1591 2169 
L 2369 3347 
L 3053 3331 
L 1925 1716 
L 3103 0 
L 2384 0 
L 1553 1256 
L 747 0 
L 34 0 
L 1213 1716 
L 94 3347 
z
" transform="scale(0.015625)"/>
      <path id="Helvetica-2b" d="M 288 1369 
L 288 1894 
L 1650 1894 
L 1650 3266 
L 2184 3266 
L 2184 1894 
L 3547 1894 
L 3547 1369 
L 2184 1369 
L 2184 0 
L 1650 0 
L 1650 1369 
L 288 1369 
z
" transform="scale(0.015625)"/>
      <path id="Helvetica-37" d="M 3347 4400 
L 3347 3909 
Q 3131 3700 2773 3181 
Q 2416 2663 2141 2063 
Q 1869 1478 1728 997 
Q 1638 688 1494 0 
L 872 0 
Q 1084 1281 1809 2550 
Q 2238 3294 2709 3834 
L 234 3834 
L 234 4400 
L 3347 4400 
z
" transform="scale(0.015625)"/>
     </defs>
     <use xlink:href="#Helvetica-79"/>
     <use xlink:href="#Helvetica-20" x="50"/>
     <use xlink:href="#Helvetica-3d" x="77.783203"/>
     <use xlink:href="#Helvetica-20" x="136.181641"/>
     <use xlink:href="#Helvetica-32" x="163.964844"/>
     <use xlink:href="#Helvetica-38" x="219.580078"/>
     <use xlink:href="#Helvetica-20" x="275.195312"/>
     <use xlink:href="#Helvetica-78" x="302.978516"/>
     <use xlink:href="#Helvetica-20" x="352.978516"/>
     <use xlink:href="#Helvetica-2b" x="380.761719"/>
     <use xlink:href="#Helvetica-20" x="439.160156"/>
     <use xlink:href="#Helvetica-32" x="466.943359"/>
     <use xlink:href="#Helvetica-33" x="522.558594"/>
     <use xlink:href="#Helvetica-37" x="578.173828"/>
    </g>
    <!-- R$^2$ = 1.000 -->
    <g transform="translate(71.099458 61.541025) scale(0.12 -0.12)">
     <defs>
      <path id="Helvetica-52" d="M 2622 2488 
Q 3059 2488 3314 2663 
Q 3569 2838 3569 3294 
Q 3569 3784 3213 3963 
Q 3022 4056 2703 4056 
L 1184 4056 
L 1184 2488 
L 2622 2488 
z
M 563 4591 
L 2688 4591 
Q 3213 4591 3553 4438 
Q 4200 4144 4200 3353 
Q 4200 2941 4029 2678 
Q 3859 2416 3553 2256 
Q 3822 2147 3958 1969 
Q 4094 1791 4109 1391 
L 4131 775 
Q 4141 513 4175 384 
Q 4231 166 4375 103 
L 4375 0 
L 3613 0 
Q 3581 59 3562 153 
Q 3544 247 3531 516 
L 3494 1281 
Q 3472 1731 3159 1884 
Q 2981 1969 2600 1969 
L 1184 1969 
L 1184 0 
L 563 0 
L 563 4591 
z
" transform="scale(0.015625)"/>
      <path id="Helvetica-2e" d="M 547 681 
L 1200 681 
L 1200 0 
L 547 0 
L 547 681 
z
" transform="scale(0.015625)"/>
     </defs>
     <use xlink:href="#Helvetica-52" transform="translate(0 0.271875)"/>
     <use xlink:href="#Helvetica-32" transform="translate(73.131992 36.879688) scale(0.7)"/>
     <use xlink:href="#Helvetica-20" transform="translate(114.6775 0.271875)"/>
     <use xlink:href="#Helvetica-3d" transform="translate(142.460703 0.271875)"/>
     <use xlink:href="#Helvetica-20" transform="translate(200.859141 0.271875)"/>
     <use xlink:href="#Helvetica-31" transform="translate(228.642344 0.271875)"/>
     <use xlink:href="#Helvetica-2e" transform="translate(284.257578 0.271875)"/>
     <use xlink:href="#Helvetica-30" transform="translate(312.040781 0.271875)"/>
     <use xlink:href="#Helvetica-30" transform="translate(367.656016 0.271875)"/>
     <use xlink:href="#Helvetica-30" transform="translate(423.27125 0.271875)"/>
    </g>
   </g>
   <g id="text_11">
    <!-- pSC101 -->
    <g transform="translate(97.519416 23.83875) scale(0.144 -0.144)">
     <defs>
      <path id="Helvetica-70" d="M 1825 378 
Q 2219 378 2480 708 
Q 2741 1038 2741 1694 
Q 2741 2094 2625 2381 
Q 2406 2934 1825 2934 
Q 1241 2934 1025 2350 
Q 909 2038 909 1556 
Q 909 1169 1025 897 
Q 1244 378 1825 378 
z
M 369 3331 
L 916 3331 
L 916 2888 
Q 1084 3116 1284 3241 
Q 1569 3428 1953 3428 
Q 2522 3428 2919 2992 
Q 3316 2556 3316 1747 
Q 3316 653 2744 184 
Q 2381 -113 1900 -113 
Q 1522 -113 1266 53 
Q 1116 147 931 375 
L 931 -1334 
L 369 -1334 
L 369 3331 
z
" transform="scale(0.015625)"/>
      <path id="Helvetica-53" d="M 894 1481 
Q 916 1091 1078 847 
Q 1388 391 2169 391 
Q 2519 391 2806 491 
Q 3363 684 3363 1184 
Q 3363 1559 3128 1719 
Q 2891 1875 2384 1991 
L 1763 2131 
Q 1153 2269 900 2434 
Q 463 2722 463 3294 
Q 463 3913 891 4309 
Q 1319 4706 2103 4706 
Q 2825 4706 3329 4357 
Q 3834 4009 3834 3244 
L 3250 3244 
Q 3203 3613 3050 3809 
Q 2766 4169 2084 4169 
Q 1534 4169 1293 3937 
Q 1053 3706 1053 3400 
Q 1053 3063 1334 2906 
Q 1519 2806 2169 2656 
L 2813 2509 
Q 3278 2403 3531 2219 
Q 3969 1897 3969 1284 
Q 3969 522 3414 194 
Q 2859 -134 2125 -134 
Q 1269 -134 784 303 
Q 300 738 309 1481 
L 894 1481 
z
M 2150 4716 
L 2150 4716 
z
" transform="scale(0.015625)"/>
      <path id="Helvetica-43" d="M 2422 4716 
Q 3294 4716 3775 4256 
Q 4256 3797 4309 3213 
L 3703 3213 
Q 3600 3656 3292 3915 
Q 2984 4175 2428 4175 
Q 1750 4175 1333 3698 
Q 916 3222 916 2238 
Q 916 1431 1292 929 
Q 1669 428 2416 428 
Q 3103 428 3463 956 
Q 3653 1234 3747 1688 
L 4353 1688 
Q 4272 963 3816 472 
Q 3269 -119 2341 -119 
Q 1541 -119 997 366 
Q 281 1006 281 2344 
Q 281 3359 819 4009 
Q 1400 4716 2422 4716 
z
M 2297 4716 
L 2297 4716 
z
" transform="scale(0.015625)"/>
     </defs>
     <use xlink:href="#Helvetica-70"/>
     <use xlink:href="#Helvetica-53" x="55.615234"/>
     <use xlink:href="#Helvetica-43" x="122.314453"/>
     <use xlink:href="#Helvetica-31" x="194.53125"/>
     <use xlink:href="#Helvetica-30" x="250.146484"/>
     <use xlink:href="#Helvetica-31" x="305.761719"/>
    </g>
   </g>
  </g>
  <g id="axes_2">
   <g id="patch_7">
    <path d="M 242.956667 173.94 
L 374.051248 173.94 
L 374.051248 29.83875 
L 242.956667 29.83875 
z
" style="fill: #ffffff"/>
   </g>
   <g id="PolyCollection_2">
    <defs>
     <path id="m03a6d77a70" d="M 242.956667 -48.658827 
L 242.956667 -48.610057 
L 243.39511 -49.047946 
L 243.833553 -49.48583 
L 244.271997 -49.923708 
L 244.71044 -50.36158 
L 245.148884 -50.799445 
L 245.587327 -51.237304 
L 246.025771 -51.675157 
L 246.464214 -52.113003 
L 246.902657 -52.550842 
L 247.341101 -52.988674 
L 247.779544 -53.426499 
L 248.217988 -53.864316 
L 248.656431 -54.302125 
L 249.094874 -54.739927 
L 249.533318 -55.177721 
L 249.971761 -55.615506 
L 250.410205 -56.053284 
L 250.848648 -56.491053 
L 251.287092 -56.928813 
L 251.725535 -57.366565 
L 252.163978 -57.804307 
L 252.602422 -58.242041 
L 253.040865 -58.679766 
L 253.479309 -59.117481 
L 253.917752 -59.555187 
L 254.356195 -59.992884 
L 254.794639 -60.430571 
L 255.233082 -60.868249 
L 255.671526 -61.305918 
L 256.109969 -61.743576 
L 256.548413 -62.181226 
L 256.986856 -62.618865 
L 257.425299 -63.056495 
L 257.863743 -63.494116 
L 258.302186 -63.931727 
L 258.74063 -64.369328 
L 259.179073 -64.80692 
L 259.617516 -65.244503 
L 260.05596 -65.682077 
L 260.494403 -66.119641 
L 260.932847 -66.557197 
L 261.37129 -66.994743 
L 261.809734 -67.432281 
L 262.248177 -67.86981 
L 262.68662 -68.307331 
L 263.125064 -68.744843 
L 263.563507 -69.182347 
L 264.001951 -69.619844 
L 264.440394 -70.057332 
L 264.878837 -70.494812 
L 265.317281 -70.932286 
L 265.755724 -71.369751 
L 266.194168 -71.80721 
L 266.632611 -72.244662 
L 267.071054 -72.682106 
L 267.509498 -73.119545 
L 267.947941 -73.556976 
L 268.386385 -73.994402 
L 268.824828 -74.431821 
L 269.263272 -74.869235 
L 269.701715 -75.306643 
L 270.140158 -75.744045 
L 270.578602 -76.181442 
L 271.017045 -76.618833 
L 271.455489 -77.05622 
L 271.893932 -77.493601 
L 272.332375 -77.930978 
L 272.770819 -78.36835 
L 273.209262 -78.805718 
L 273.647706 -79.243081 
L 274.086149 -79.68044 
L 274.524593 -80.117795 
L 274.963036 -80.555146 
L 275.401479 -80.992493 
L 275.839923 -81.429837 
L 276.278366 -81.867177 
L 276.71681 -82.304513 
L 277.155253 -82.741846 
L 277.593696 -83.179176 
L 278.03214 -83.616503 
L 278.470583 -84.053827 
L 278.909027 -84.491148 
L 279.34747 -84.928466 
L 279.785914 -85.365781 
L 280.224357 -85.803093 
L 280.6628 -86.240403 
L 281.101244 -86.677711 
L 281.539687 -87.115016 
L 281.978131 -87.552318 
L 282.416574 -87.989619 
L 282.855017 -88.426917 
L 283.293461 -88.864213 
L 283.731904 -89.301507 
L 284.170348 -89.738799 
L 284.608791 -90.176089 
L 285.047235 -90.613377 
L 285.485678 -91.050663 
L 285.924121 -91.487947 
L 286.362565 -91.92523 
L 286.801008 -92.362511 
L 287.239452 -92.799791 
L 287.677895 -93.237069 
L 288.116338 -93.674345 
L 288.554782 -94.11162 
L 288.993225 -94.548894 
L 289.431669 -94.986166 
L 289.870112 -95.423436 
L 290.308555 -95.860706 
L 290.746999 -96.297974 
L 291.185442 -96.735241 
L 291.623886 -97.172506 
L 292.062329 -97.609771 
L 292.500773 -98.047034 
L 292.939216 -98.484297 
L 293.377659 -98.921558 
L 293.816103 -99.358818 
L 294.254546 -99.796077 
L 294.69299 -100.233335 
L 295.131433 -100.670592 
L 295.569876 -101.107848 
L 296.00832 -101.545103 
L 296.446763 -101.982358 
L 296.885207 -102.419611 
L 297.32365 -102.856864 
L 297.762094 -103.294116 
L 298.200537 -103.731367 
L 298.63898 -104.168617 
L 299.077424 -104.605866 
L 299.515867 -105.043115 
L 299.954311 -105.480363 
L 300.392754 -105.91761 
L 300.831197 -106.354857 
L 301.269641 -106.792103 
L 301.708084 -107.229348 
L 302.146528 -107.666592 
L 302.584971 -108.103836 
L 303.023415 -108.54108 
L 303.461858 -108.978322 
L 303.900301 -109.415564 
L 304.338745 -109.852806 
L 304.777188 -110.290047 
L 305.215632 -110.727287 
L 305.654075 -111.164527 
L 306.092518 -111.601767 
L 306.530962 -112.039006 
L 306.969405 -112.476244 
L 307.407849 -112.913482 
L 307.846292 -113.350719 
L 308.284736 -113.787956 
L 308.723179 -114.225193 
L 309.161622 -114.662429 
L 309.600066 -115.099665 
L 310.038509 -115.5369 
L 310.476953 -115.974134 
L 310.915396 -116.411369 
L 311.353839 -116.848603 
L 311.792283 -117.285836 
L 312.230726 -117.72307 
L 312.66917 -118.160302 
L 313.107613 -118.597535 
L 313.546056 -119.034767 
L 313.9845 -119.471999 
L 314.422943 -119.90923 
L 314.861387 -120.346461 
L 315.29983 -120.783692 
L 315.738274 -121.220922 
L 316.176717 -121.658152 
L 316.61516 -122.095382 
L 317.053604 -122.532611 
L 317.492047 -122.969841 
L 317.930491 -123.407069 
L 318.368934 -123.844298 
L 318.807377 -124.281526 
L 319.245821 -124.718754 
L 319.684264 -125.155982 
L 320.122708 -125.593209 
L 320.561151 -126.030437 
L 320.999595 -126.467664 
L 321.438038 -126.90489 
L 321.876481 -127.342117 
L 322.314925 -127.779343 
L 322.753368 -128.216569 
L 323.191812 -128.653794 
L 323.630255 -129.09102 
L 324.068698 -129.528245 
L 324.507142 -129.96547 
L 324.945585 -130.402695 
L 325.384029 -130.83992 
L 325.822472 -131.277144 
L 326.260916 -131.714368 
L 326.699359 -132.151592 
L 327.137802 -132.588816 
L 327.576246 -133.026039 
L 328.014689 -133.463263 
L 328.453133 -133.900486 
L 328.891576 -134.337709 
L 329.330019 -134.774932 
L 329.768463 -135.212154 
L 330.206906 -135.649377 
L 330.64535 -136.086599 
L 331.083793 -136.523821 
L 331.522237 -136.961043 
L 331.96068 -137.398265 
L 332.399123 -137.835486 
L 332.837567 -138.272708 
L 333.27601 -138.709929 
L 333.714454 -139.14715 
L 334.152897 -139.584371 
L 334.59134 -140.021592 
L 335.029784 -140.458813 
L 335.468227 -140.896033 
L 335.906671 -141.333254 
L 336.345114 -141.770474 
L 336.783557 -142.207694 
L 337.222001 -142.644914 
L 337.660444 -143.082134 
L 338.098888 -143.519353 
L 338.537331 -143.956573 
L 338.975775 -144.393792 
L 339.414218 -144.831012 
L 339.852661 -145.268231 
L 340.291105 -145.70545 
L 340.729548 -146.142669 
L 341.167992 -146.579887 
L 341.606435 -147.017106 
L 342.044878 -147.454325 
L 342.483322 -147.891543 
L 342.921765 -148.328761 
L 343.360209 -148.76598 
L 343.798652 -149.203198 
L 344.237096 -149.640416 
L 344.675539 -150.077634 
L 345.113982 -150.514851 
L 345.552426 -150.952069 
L 345.990869 -151.389287 
L 346.429313 -151.826504 
L 346.867756 -152.263721 
L 347.306199 -152.700939 
L 347.744643 -153.138156 
L 348.183086 -153.575373 
L 348.62153 -154.01259 
L 349.059973 -154.449807 
L 349.498417 -154.887024 
L 349.93686 -155.32424 
L 350.375303 -155.761457 
L 350.813747 -156.198674 
L 351.25219 -156.63589 
L 351.690634 -157.073106 
L 352.129077 -157.510323 
L 352.56752 -157.947539 
L 353.005964 -158.384755 
L 353.444407 -158.821971 
L 353.882851 -159.259187 
L 354.321294 -159.696403 
L 354.759738 -160.133618 
L 355.198181 -160.570834 
L 355.636624 -161.00805 
L 356.075068 -161.445265 
L 356.513511 -161.882481 
L 356.951955 -162.319696 
L 357.390398 -162.756912 
L 357.828841 -163.194127 
L 358.267285 -163.631342 
L 358.705728 -164.068557 
L 359.144172 -164.505772 
L 359.582615 -164.942987 
L 360.021058 -165.380202 
L 360.459502 -165.817417 
L 360.897945 -166.254632 
L 361.336389 -166.691846 
L 361.774832 -167.129061 
L 362.213276 -167.566276 
L 362.651719 -168.00349 
L 363.090162 -168.440705 
L 363.528606 -168.877919 
L 363.967049 -169.315133 
L 364.405493 -169.752348 
L 364.843936 -170.189562 
L 365.282379 -170.626776 
L 365.720823 -171.06399 
L 366.159266 -171.501204 
L 366.59771 -171.938418 
L 367.036153 -172.375632 
L 367.474597 -172.812846 
L 367.91304 -173.25006 
L 368.351483 -173.687274 
L 368.789927 -174.124487 
L 369.22837 -174.561701 
L 369.666814 -174.998915 
L 370.105257 -175.436128 
L 370.5437 -175.873342 
L 370.982144 -176.310555 
L 371.420587 -176.747768 
L 371.859031 -177.184982 
L 372.297474 -177.622195 
L 372.735918 -178.059408 
L 373.174361 -178.496622 
L 373.612804 -178.933835 
L 374.051248 -179.371048 
L 374.051248 -179.611193 
L 374.051248 -179.611193 
L 373.612804 -179.173111 
L 373.174361 -178.735028 
L 372.735918 -178.296946 
L 372.297474 -177.858864 
L 371.859031 -177.420782 
L 371.420587 -176.9827 
L 370.982144 -176.544617 
L 370.5437 -176.106535 
L 370.105257 -175.668453 
L 369.666814 -175.230371 
L 369.22837 -174.79229 
L 368.789927 -174.354208 
L 368.351483 -173.916126 
L 367.91304 -173.478044 
L 367.474597 -173.039962 
L 367.036153 -172.601881 
L 366.59771 -172.163799 
L 366.159266 -171.725718 
L 365.720823 -171.287636 
L 365.282379 -170.849555 
L 364.843936 -170.411473 
L 364.405493 -169.973392 
L 363.967049 -169.535311 
L 363.528606 -169.09723 
L 363.090162 -168.659149 
L 362.651719 -168.221068 
L 362.213276 -167.782987 
L 361.774832 -167.344906 
L 361.336389 -166.906825 
L 360.897945 -166.468744 
L 360.459502 -166.030663 
L 360.021058 -165.592583 
L 359.582615 -165.154502 
L 359.144172 -164.716421 
L 358.705728 -164.278341 
L 358.267285 -163.840261 
L 357.828841 -163.40218 
L 357.390398 -162.9641 
L 356.951955 -162.52602 
L 356.513511 -162.08794 
L 356.075068 -161.64986 
L 355.636624 -161.21178 
L 355.198181 -160.7737 
L 354.759738 -160.33562 
L 354.321294 -159.89754 
L 353.882851 -159.459461 
L 353.444407 -159.021381 
L 353.005964 -158.583302 
L 352.56752 -158.145222 
L 352.129077 -157.707143 
L 351.690634 -157.269064 
L 351.25219 -156.830985 
L 350.813747 -156.392905 
L 350.375303 -155.954826 
L 349.93686 -155.516748 
L 349.498417 -155.078669 
L 349.059973 -154.64059 
L 348.62153 -154.202511 
L 348.183086 -153.764433 
L 347.744643 -153.326354 
L 347.306199 -152.888276 
L 346.867756 -152.450198 
L 346.429313 -152.01212 
L 345.990869 -151.574042 
L 345.552426 -151.135964 
L 345.113982 -150.697886 
L 344.675539 -150.259808 
L 344.237096 -149.821731 
L 343.798652 -149.383653 
L 343.360209 -148.945576 
L 342.921765 -148.507498 
L 342.483322 -148.069421 
L 342.044878 -147.631344 
L 341.606435 -147.193267 
L 341.167992 -146.75519 
L 340.729548 -146.317114 
L 340.291105 -145.879037 
L 339.852661 -145.440961 
L 339.414218 -145.002884 
L 338.975775 -144.564808 
L 338.537331 -144.126732 
L 338.098888 -143.688656 
L 337.660444 -143.25058 
L 337.222001 -142.812504 
L 336.783557 -142.374429 
L 336.345114 -141.936353 
L 335.906671 -141.498278 
L 335.468227 -141.060203 
L 335.029784 -140.622128 
L 334.59134 -140.184053 
L 334.152897 -139.745978 
L 333.714454 -139.307904 
L 333.27601 -138.869829 
L 332.837567 -138.431755 
L 332.399123 -137.993681 
L 331.96068 -137.555607 
L 331.522237 -137.117533 
L 331.083793 -136.67946 
L 330.64535 -136.241386 
L 330.206906 -135.803313 
L 329.768463 -135.36524 
L 329.330019 -134.927167 
L 328.891576 -134.489095 
L 328.453133 -134.051022 
L 328.014689 -133.61295 
L 327.576246 -133.174878 
L 327.137802 -132.736806 
L 326.699359 -132.298734 
L 326.260916 -131.860662 
L 325.822472 -131.422591 
L 325.384029 -130.98452 
L 324.945585 -130.546449 
L 324.507142 -130.108378 
L 324.068698 -129.670308 
L 323.630255 -129.232237 
L 323.191812 -128.794167 
L 322.753368 -128.356098 
L 322.314925 -127.918028 
L 321.876481 -127.479959 
L 321.438038 -127.04189 
L 320.999595 -126.603821 
L 320.561151 -126.165752 
L 320.122708 -125.727684 
L 319.684264 -125.289616 
L 319.245821 -124.851548 
L 318.807377 -124.413481 
L 318.368934 -123.975413 
L 317.930491 -123.537346 
L 317.492047 -123.09928 
L 317.053604 -122.661213 
L 316.61516 -122.223147 
L 316.176717 -121.785081 
L 315.738274 -121.347016 
L 315.29983 -120.908951 
L 314.861387 -120.470886 
L 314.422943 -120.032822 
L 313.9845 -119.594758 
L 313.546056 -119.156694 
L 313.107613 -118.71863 
L 312.66917 -118.280567 
L 312.230726 -117.842505 
L 311.792283 -117.404442 
L 311.353839 -116.96638 
L 310.915396 -116.528319 
L 310.476953 -116.090258 
L 310.038509 -115.652197 
L 309.600066 -115.214137 
L 309.161622 -114.776077 
L 308.723179 -114.338017 
L 308.284736 -113.899958 
L 307.846292 -113.4619 
L 307.407849 -113.023842 
L 306.969405 -112.585784 
L 306.530962 -112.147727 
L 306.092518 -111.70967 
L 305.654075 -111.271614 
L 305.215632 -110.833559 
L 304.777188 -110.395503 
L 304.338745 -109.957449 
L 303.900301 -109.519395 
L 303.461858 -109.081342 
L 303.023415 -108.643289 
L 302.584971 -108.205237 
L 302.146528 -107.767185 
L 301.708084 -107.329134 
L 301.269641 -106.891084 
L 300.831197 -106.453034 
L 300.392754 -106.014985 
L 299.954311 -105.576937 
L 299.515867 -105.138889 
L 299.077424 -104.700843 
L 298.63898 -104.262796 
L 298.200537 -103.824751 
L 297.762094 -103.386707 
L 297.32365 -102.948663 
L 296.885207 -102.51062 
L 296.446763 -102.072578 
L 296.00832 -101.634537 
L 295.569876 -101.196497 
L 295.131433 -100.758457 
L 294.69299 -100.320419 
L 294.254546 -99.882381 
L 293.816103 -99.444345 
L 293.377659 -99.00631 
L 292.939216 -98.568275 
L 292.500773 -98.130242 
L 292.062329 -97.69221 
L 291.623886 -97.254179 
L 291.185442 -96.816149 
L 290.746999 -96.37812 
L 290.308555 -95.940093 
L 289.870112 -95.502067 
L 289.431669 -95.064042 
L 288.993225 -94.626019 
L 288.554782 -94.187996 
L 288.116338 -93.749976 
L 287.677895 -93.311957 
L 287.239452 -92.873939 
L 286.801008 -92.435923 
L 286.362565 -91.997909 
L 285.924121 -91.559896 
L 285.485678 -91.121885 
L 285.047235 -90.683876 
L 284.608791 -90.245868 
L 284.170348 -89.807863 
L 283.731904 -89.369859 
L 283.293461 -88.931858 
L 282.855017 -88.493858 
L 282.416574 -88.055861 
L 281.978131 -87.617866 
L 281.539687 -87.179873 
L 281.101244 -86.741882 
L 280.6628 -86.303894 
L 280.224357 -85.865909 
L 279.785914 -85.427926 
L 279.34747 -84.989945 
L 278.909027 -84.551968 
L 278.470583 -84.113993 
L 278.03214 -83.676021 
L 277.593696 -83.238052 
L 277.155253 -82.800087 
L 276.71681 -82.362125 
L 276.278366 -81.924166 
L 275.839923 -81.48621 
L 275.401479 -81.048258 
L 274.963036 -80.61031 
L 274.524593 -80.172365 
L 274.086149 -79.734425 
L 273.647706 -79.296488 
L 273.209262 -78.858556 
L 272.770819 -78.420628 
L 272.332375 -77.982705 
L 271.893932 -77.544786 
L 271.455489 -77.106872 
L 271.017045 -76.668963 
L 270.578602 -76.231059 
L 270.140158 -75.79316 
L 269.701715 -75.355267 
L 269.263272 -74.917379 
L 268.824828 -74.479497 
L 268.386385 -74.041621 
L 267.947941 -73.603751 
L 267.509498 -73.165888 
L 267.071054 -72.72803 
L 266.632611 -72.29018 
L 266.194168 -71.852336 
L 265.755724 -71.414499 
L 265.317281 -70.976669 
L 264.878837 -70.538847 
L 264.440394 -70.101032 
L 264.001951 -69.663224 
L 263.563507 -69.225425 
L 263.125064 -68.787634 
L 262.68662 -68.349851 
L 262.248177 -67.912076 
L 261.809734 -67.474309 
L 261.37129 -67.036552 
L 260.932847 -66.598803 
L 260.494403 -66.161063 
L 260.05596 -65.723332 
L 259.617516 -65.28561 
L 259.179073 -64.847897 
L 258.74063 -64.410194 
L 258.302186 -63.9725 
L 257.863743 -63.534815 
L 257.425299 -63.09714 
L 256.986856 -62.659475 
L 256.548413 -62.221819 
L 256.109969 -61.784172 
L 255.671526 -61.346536 
L 255.233082 -60.908909 
L 254.794639 -60.471291 
L 254.356195 -60.033683 
L 253.917752 -59.596084 
L 253.479309 -59.158495 
L 253.040865 -58.720915 
L 252.602422 -58.283344 
L 252.163978 -57.845782 
L 251.725535 -57.408229 
L 251.287092 -56.970685 
L 250.848648 -56.53315 
L 250.410205 -56.095623 
L 249.971761 -55.658105 
L 249.533318 -55.220595 
L 249.094874 -54.783094 
L 248.656431 -54.3456 
L 248.217988 -53.908114 
L 247.779544 -53.470636 
L 247.341101 -53.033165 
L 246.902657 -52.595701 
L 246.464214 -52.158245 
L 246.025771 -51.720795 
L 245.587327 -51.283352 
L 245.148884 -50.845916 
L 244.71044 -50.408486 
L 244.271997 -49.971062 
L 243.833553 -49.533645 
L 243.39511 -49.096233 
L 242.956667 -48.658827 
z
"/>
    </defs>
    <g clip-path="url(#p6185c2eadf)">
     <use xlink:href="#m03a6d77a70" x="0" y="216" style="fill: #4682b4; fill-opacity: 0.5"/>
    </g>
   </g>
   <g id="matplotlib.axis_3">
    <g id="xtick_4">
     <g id="line2d_12">
      <g>
       <use xlink:href="#mc9f68ab9e0" x="248.915511" y="173.94" style="stroke: #000000; stroke-width: 0.8"/>
      </g>
     </g>
     <g id="text_12">
      <!-- 0 -->
      <g transform="translate(245.578949 186.048125) scale(0.12 -0.12)">
       <use xlink:href="#Helvetica-30"/>
      </g>
     </g>
    </g>
    <g id="xtick_5">
     <g id="line2d_13">
      <g>
       <use xlink:href="#mc9f68ab9e0" x="308.503957" y="173.94" style="stroke: #000000; stroke-width: 0.8"/>
      </g>
     </g>
     <g id="text_13">
      <!-- 50 -->
      <g transform="translate(301.830832 186.048125) scale(0.12 -0.12)">
       <use xlink:href="#Helvetica-35"/>
       <use xlink:href="#Helvetica-30" x="55.615234"/>
      </g>
     </g>
    </g>
    <g id="xtick_6">
     <g id="line2d_14">
      <g>
       <use xlink:href="#mc9f68ab9e0" x="368.092403" y="173.94" style="stroke: #000000; stroke-width: 0.8"/>
      </g>
     </g>
     <g id="text_14">
      <!-- 100 -->
      <g transform="translate(358.082716 186.048125) scale(0.12 -0.12)">
       <use xlink:href="#Helvetica-31"/>
       <use xlink:href="#Helvetica-30" x="55.615234"/>
       <use xlink:href="#Helvetica-30" x="111.230469"/>
      </g>
     </g>
    </g>
   </g>
   <g id="matplotlib.axis_4">
    <g id="ytick_5">
     <g id="line2d_15">
      <g>
       <use xlink:href="#m2e05ea604c" x="242.956667" y="162.087928" style="stroke: #000000; stroke-width: 0.8"/>
      </g>
     </g>
     <g id="text_15">
      <!-- 0 -->
      <g transform="translate(232.783542 166.39199) scale(0.12 -0.12)">
       <use xlink:href="#Helvetica-30"/>
      </g>
     </g>
    </g>
    <g id="ytick_6">
     <g id="line2d_16">
      <g>
       <use xlink:href="#m2e05ea604c" x="242.956667" y="133.627611" style="stroke: #000000; stroke-width: 0.8"/>
      </g>
     </g>
     <g id="text_16">
      <!-- 10000 -->
      <g transform="translate(206.091042 137.931674) scale(0.12 -0.12)">
       <use xlink:href="#Helvetica-31"/>
       <use xlink:href="#Helvetica-30" x="55.615234"/>
       <use xlink:href="#Helvetica-30" x="111.230469"/>
       <use xlink:href="#Helvetica-30" x="166.845703"/>
       <use xlink:href="#Helvetica-30" x="222.460938"/>
      </g>
     </g>
    </g>
    <g id="ytick_7">
     <g id="line2d_17">
      <g>
       <use xlink:href="#m2e05ea604c" x="242.956667" y="105.167294" style="stroke: #000000; stroke-width: 0.8"/>
      </g>
     </g>
     <g id="text_17">
      <!-- 20000 -->
      <g transform="translate(206.091042 109.471357) scale(0.12 -0.12)">
       <use xlink:href="#Helvetica-32"/>
       <use xlink:href="#Helvetica-30" x="55.615234"/>
       <use xlink:href="#Helvetica-30" x="111.230469"/>
       <use xlink:href="#Helvetica-30" x="166.845703"/>
       <use xlink:href="#Helvetica-30" x="222.460938"/>
      </g>
     </g>
    </g>
    <g id="ytick_8">
     <g id="line2d_18">
      <g>
       <use xlink:href="#m2e05ea604c" x="242.956667" y="76.706977" style="stroke: #000000; stroke-width: 0.8"/>
      </g>
     </g>
     <g id="text_18">
      <!-- 30000 -->
      <g transform="translate(206.091042 81.01104) scale(0.12 -0.12)">
       <use xlink:href="#Helvetica-33"/>
       <use xlink:href="#Helvetica-30" x="55.615234"/>
       <use xlink:href="#Helvetica-30" x="111.230469"/>
       <use xlink:href="#Helvetica-30" x="166.845703"/>
       <use xlink:href="#Helvetica-30" x="222.460938"/>
      </g>
     </g>
    </g>
    <g id="ytick_9">
     <g id="line2d_19">
      <g>
       <use xlink:href="#m2e05ea604c" x="242.956667" y="48.24666" style="stroke: #000000; stroke-width: 0.8"/>
      </g>
     </g>
     <g id="text_19">
      <!-- 40000 -->
      <g transform="translate(206.091042 52.550723) scale(0.12 -0.12)">
       <defs>
        <path id="Helvetica-34" d="M 2116 1584 
L 2116 3613 
L 681 1584 
L 2116 1584 
z
M 2125 0 
L 2125 1094 
L 163 1094 
L 163 1644 
L 2213 4488 
L 2688 4488 
L 2688 1584 
L 3347 1584 
L 3347 1094 
L 2688 1094 
L 2688 0 
L 2125 0 
z
" transform="scale(0.015625)"/>
       </defs>
       <use xlink:href="#Helvetica-34"/>
       <use xlink:href="#Helvetica-30" x="55.615234"/>
       <use xlink:href="#Helvetica-30" x="111.230469"/>
       <use xlink:href="#Helvetica-30" x="166.845703"/>
       <use xlink:href="#Helvetica-30" x="222.460938"/>
      </g>
     </g>
    </g>
   </g>
   <g id="LineCollection_2">
    <path d="M 368.092403 43.104851 
L 368.092403 42.927388 
" clip-path="url(#p6185c2eadf)" style="fill: none; stroke: #4682b4"/>
    <path d="M 366.900634 45.904702 
L 366.900634 45.735071 
" clip-path="url(#p6185c2eadf)" style="fill: none; stroke: #4682b4"/>
    <path d="M 356.174714 54.278749 
L 356.174714 54.118855 
" clip-path="url(#p6185c2eadf)" style="fill: none; stroke: #4682b4"/>
    <path d="M 308.503957 99.590295 
L 308.503957 99.495215 
" clip-path="url(#p6185c2eadf)" style="fill: none; stroke: #4682b4"/>
    <path d="M 272.75089 137.975564 
L 272.75089 137.937346 
" clip-path="url(#p6185c2eadf)" style="fill: none; stroke: #4682b4"/>
    <path d="M 248.915511 161.41268 
L 248.915511 161.396409 
" clip-path="url(#p6185c2eadf)" style="fill: none; stroke: #4682b4"/>
   </g>
   <g id="line2d_20">
    <g clip-path="url(#p6185c2eadf)">
     <use xlink:href="#mcbff72d413" x="368.092403" y="43.104851" style="fill: #4682b4; stroke: #4682b4"/>
     <use xlink:href="#mcbff72d413" x="366.900634" y="45.904702" style="fill: #4682b4; stroke: #4682b4"/>
     <use xlink:href="#mcbff72d413" x="356.174714" y="54.278749" style="fill: #4682b4; stroke: #4682b4"/>
     <use xlink:href="#mcbff72d413" x="308.503957" y="99.590295" style="fill: #4682b4; stroke: #4682b4"/>
     <use xlink:href="#mcbff72d413" x="272.75089" y="137.975564" style="fill: #4682b4; stroke: #4682b4"/>
     <use xlink:href="#mcbff72d413" x="248.915511" y="161.41268" style="fill: #4682b4; stroke: #4682b4"/>
    </g>
   </g>
   <g id="line2d_21">
    <g clip-path="url(#p6185c2eadf)">
     <use xlink:href="#mcbff72d413" x="368.092403" y="42.927388" style="fill: #4682b4; stroke: #4682b4"/>
     <use xlink:href="#mcbff72d413" x="366.900634" y="45.735071" style="fill: #4682b4; stroke: #4682b4"/>
     <use xlink:href="#mcbff72d413" x="356.174714" y="54.118855" style="fill: #4682b4; stroke: #4682b4"/>
     <use xlink:href="#mcbff72d413" x="308.503957" y="99.495215" style="fill: #4682b4; stroke: #4682b4"/>
     <use xlink:href="#mcbff72d413" x="272.75089" y="137.937346" style="fill: #4682b4; stroke: #4682b4"/>
     <use xlink:href="#mcbff72d413" x="248.915511" y="161.396409" style="fill: #4682b4; stroke: #4682b4"/>
    </g>
   </g>
   <g id="line2d_22">
    <path d="M 242.956667 167.365558 
L 374.051248 36.508879 
L 374.051248 36.508879 
" clip-path="url(#p6185c2eadf)" style="fill: none; stroke: #000000; stroke-linecap: square"/>
   </g>
   <g id="line2d_23">
    <path d="M 368.092403 43.016119 
L 366.900634 45.819886 
L 356.174714 54.198802 
L 308.503957 99.542755 
L 272.75089 137.956455 
L 248.915511 161.404545 
" clip-path="url(#p6185c2eadf)" style="fill: none"/>
    <g clip-path="url(#p6185c2eadf)">
     <use xlink:href="#mb40d8995bd" x="368.092403" y="43.016119" style="fill-opacity: 0; stroke: #4682b4"/>
     <use xlink:href="#mb40d8995bd" x="366.900634" y="45.819886" style="fill-opacity: 0; stroke: #4682b4"/>
     <use xlink:href="#mb40d8995bd" x="356.174714" y="54.198802" style="fill-opacity: 0; stroke: #4682b4"/>
     <use xlink:href="#mb40d8995bd" x="308.503957" y="99.542755" style="fill-opacity: 0; stroke: #4682b4"/>
     <use xlink:href="#mb40d8995bd" x="272.75089" y="137.956455" style="fill-opacity: 0; stroke: #4682b4"/>
     <use xlink:href="#mb40d8995bd" x="248.915511" y="161.404545" style="fill-opacity: 0; stroke: #4682b4"/>
    </g>
   </g>
   <g id="patch_8">
    <path d="M 242.956667 173.94 
L 242.956667 29.83875 
" style="fill: none; stroke: #000000; stroke-width: 0.8; stroke-linejoin: miter; stroke-linecap: square"/>
   </g>
   <g id="patch_9">
    <path d="M 374.051248 173.94 
L 374.051248 29.83875 
" style="fill: none; stroke: #000000; stroke-width: 0.8; stroke-linejoin: miter; stroke-linecap: square"/>
   </g>
   <g id="patch_10">
    <path d="M 242.956667 173.94 
L 374.051248 173.94 
" style="fill: none; stroke: #000000; stroke-width: 0.8; stroke-linejoin: miter; stroke-linecap: square"/>
   </g>
   <g id="patch_11">
    <path d="M 242.956667 29.83875 
L 374.051248 29.83875 
" style="fill: none; stroke: #000000; stroke-width: 0.8; stroke-linejoin: miter; stroke-linecap: square"/>
   </g>
   <g id="text_20">
    <!--  -->
    <g transform="translate(256.066125 35.807775) scale(0.12 -0.12)"/>
    <!-- y = 418 x + 236 -->
    <g transform="translate(256.066125 48.638775) scale(0.12 -0.12)">
     <defs>
      <path id="Helvetica-36" d="M 1872 4494 
Q 2622 4494 2917 4105 
Q 3213 3716 3213 3303 
L 2656 3303 
Q 2606 3569 2497 3719 
Q 2294 4000 1881 4000 
Q 1409 4000 1131 3564 
Q 853 3128 822 2316 
Q 1016 2600 1309 2741 
Q 1578 2866 1909 2866 
Q 2472 2866 2890 2506 
Q 3309 2147 3309 1434 
Q 3309 825 2912 354 
Q 2516 -116 1781 -116 
Q 1153 -116 697 361 
Q 241 838 241 1966 
Q 241 2800 444 3381 
Q 834 4494 1872 4494 
z
M 1831 384 
Q 2275 384 2495 682 
Q 2716 981 2716 1388 
Q 2716 1731 2519 2042 
Q 2322 2353 1803 2353 
Q 1441 2353 1167 2112 
Q 894 1872 894 1388 
Q 894 963 1142 673 
Q 1391 384 1831 384 
z
" transform="scale(0.015625)"/>
     </defs>
     <use xlink:href="#Helvetica-79"/>
     <use xlink:href="#Helvetica-20" x="50"/>
     <use xlink:href="#Helvetica-3d" x="77.783203"/>
     <use xlink:href="#Helvetica-20" x="136.181641"/>
     <use xlink:href="#Helvetica-34" x="163.964844"/>
     <use xlink:href="#Helvetica-31" x="219.580078"/>
     <use xlink:href="#Helvetica-38" x="275.195312"/>
     <use xlink:href="#Helvetica-20" x="330.810547"/>
     <use xlink:href="#Helvetica-78" x="358.59375"/>
     <use xlink:href="#Helvetica-20" x="408.59375"/>
     <use xlink:href="#Helvetica-2b" x="436.376953"/>
     <use xlink:href="#Helvetica-20" x="494.775391"/>
     <use xlink:href="#Helvetica-32" x="522.558594"/>
     <use xlink:href="#Helvetica-33" x="578.173828"/>
     <use xlink:href="#Helvetica-36" x="633.789062"/>
    </g>
    <!-- R$^2$ = 1.000 -->
    <g transform="translate(256.066125 61.541025) scale(0.12 -0.12)">
     <use xlink:href="#Helvetica-52" transform="translate(0 0.271875)"/>
     <use xlink:href="#Helvetica-32" transform="translate(73.131992 36.879688) scale(0.7)"/>
     <use xlink:href="#Helvetica-20" transform="translate(114.6775 0.271875)"/>
     <use xlink:href="#Helvetica-3d" transform="translate(142.460703 0.271875)"/>
     <use xlink:href="#Helvetica-20" transform="translate(200.859141 0.271875)"/>
     <use xlink:href="#Helvetica-31" transform="translate(228.642344 0.271875)"/>
     <use xlink:href="#Helvetica-2e" transform="translate(284.257578 0.271875)"/>
     <use xlink:href="#Helvetica-30" transform="translate(312.040781 0.271875)"/>
     <use xlink:href="#Helvetica-30" transform="translate(367.656016 0.271875)"/>
     <use xlink:href="#Helvetica-30" transform="translate(423.27125 0.271875)"/>
    </g>
   </g>
   <g id="text_21">
    <!-- colE1 -->
    <g transform="translate(290.493832 23.83875) scale(0.144 -0.144)">
     <defs>
      <path id="Helvetica-63" d="M 1703 3444 
Q 2269 3444 2623 3169 
Q 2978 2894 3050 2222 
L 2503 2222 
Q 2453 2531 2275 2736 
Q 2097 2941 1703 2941 
Q 1166 2941 934 2416 
Q 784 2075 784 1575 
Q 784 1072 996 728 
Q 1209 384 1666 384 
Q 2016 384 2220 598 
Q 2425 813 2503 1184 
L 3050 1184 
Q 2956 519 2581 211 
Q 2206 -97 1622 -97 
Q 966 -97 575 383 
Q 184 863 184 1581 
Q 184 2463 612 2953 
Q 1041 3444 1703 3444 
z
M 1616 3428 
L 1616 3428 
z
" transform="scale(0.015625)"/>
      <path id="Helvetica-6f" d="M 1741 363 
Q 2300 363 2508 786 
Q 2716 1209 2716 1728 
Q 2716 2197 2566 2491 
Q 2328 2953 1747 2953 
Q 1231 2953 997 2559 
Q 763 2166 763 1609 
Q 763 1075 997 719 
Q 1231 363 1741 363 
z
M 1763 3444 
Q 2409 3444 2856 3012 
Q 3303 2581 3303 1744 
Q 3303 934 2909 406 
Q 2516 -122 1688 -122 
Q 997 -122 590 345 
Q 184 813 184 1600 
Q 184 2444 612 2944 
Q 1041 3444 1763 3444 
z
M 1744 3428 
L 1744 3428 
z
" transform="scale(0.015625)"/>
      <path id="Helvetica-6c" d="M 428 4591 
L 991 4591 
L 991 0 
L 428 0 
L 428 4591 
z
" transform="scale(0.015625)"/>
      <path id="Helvetica-45" d="M 547 4591 
L 3894 4591 
L 3894 4028 
L 1153 4028 
L 1153 2634 
L 3688 2634 
L 3688 2103 
L 1153 2103 
L 1153 547 
L 3941 547 
L 3941 0 
L 547 0 
L 547 4591 
z
M 2244 4591 
L 2244 4591 
z
" transform="scale(0.015625)"/>
     </defs>
     <use xlink:href="#Helvetica-63"/>
     <use xlink:href="#Helvetica-6f" x="50"/>
     <use xlink:href="#Helvetica-6c" x="105.615234"/>
     <use xlink:href="#Helvetica-45" x="127.832031"/>
     <use xlink:href="#Helvetica-31" x="194.53125"/>
    </g>
   </g>
  </g>
  <g id="axes_3">
   <g id="patch_12">
    <path d="M 427.923333 173.94 
L 559.017914 173.94 
L 559.017914 29.83875 
L 427.923333 29.83875 
z
" style="fill: #ffffff"/>
   </g>
   <g id="PolyCollection_3">
    <defs>
     <path id="m6d3b2a6548" d="M 427.923333 -49.066696 
L 427.923333 -48.610057 
L 428.361777 -49.047694 
L 428.80022 -49.48533 
L 429.238664 -49.922963 
L 429.677107 -50.360594 
L 430.11555 -50.798223 
L 430.553994 -51.235849 
L 430.992437 -51.673473 
L 431.430881 -52.111095 
L 431.869324 -52.548714 
L 432.307767 -52.986331 
L 432.746211 -53.423946 
L 433.184654 -53.861558 
L 433.623098 -54.299168 
L 434.061541 -54.736774 
L 434.499985 -55.174379 
L 434.938428 -55.611981 
L 435.376871 -56.04958 
L 435.815315 -56.487176 
L 436.253758 -56.92477 
L 436.692202 -57.362361 
L 437.130645 -57.799949 
L 437.569088 -58.237534 
L 438.007532 -58.675116 
L 438.445975 -59.112696 
L 438.884419 -59.550272 
L 439.322862 -59.987846 
L 439.761306 -60.425416 
L 440.199749 -60.862983 
L 440.638192 -61.300548 
L 441.076636 -61.738109 
L 441.515079 -62.175666 
L 441.953523 -62.613221 
L 442.391966 -63.050772 
L 442.830409 -63.48832 
L 443.268853 -63.925864 
L 443.707296 -64.363405 
L 444.14574 -64.800942 
L 444.584183 -65.238476 
L 445.022627 -65.676006 
L 445.46107 -66.113533 
L 445.899513 -66.551055 
L 446.337957 -66.988574 
L 446.7764 -67.42609 
L 447.214844 -67.863601 
L 447.653287 -68.301108 
L 448.09173 -68.738612 
L 448.530174 -69.176111 
L 448.968617 -69.613606 
L 449.407061 -70.051097 
L 449.845504 -70.488584 
L 450.283948 -70.926066 
L 450.722391 -71.363544 
L 451.160834 -71.801018 
L 451.599278 -72.238487 
L 452.037721 -72.675952 
L 452.476165 -73.113412 
L 452.914608 -73.550867 
L 453.353051 -73.988318 
L 453.791495 -74.425764 
L 454.229938 -74.863205 
L 454.668382 -75.300641 
L 455.106825 -75.738072 
L 455.545268 -76.175498 
L 455.983712 -76.612919 
L 456.422155 -77.050334 
L 456.860599 -77.487744 
L 457.299042 -77.925149 
L 457.737486 -78.362548 
L 458.175929 -78.799942 
L 458.614372 -79.23733 
L 459.052816 -79.674713 
L 459.491259 -80.11209 
L 459.929703 -80.549461 
L 460.368146 -80.986826 
L 460.806589 -81.424185 
L 461.245033 -81.861537 
L 461.683476 -82.298884 
L 462.12192 -82.736224 
L 462.560363 -83.173558 
L 462.998807 -83.610886 
L 463.43725 -84.048207 
L 463.875693 -84.485522 
L 464.314137 -84.922829 
L 464.75258 -85.36013 
L 465.191024 -85.797425 
L 465.629467 -86.234712 
L 466.06791 -86.671992 
L 466.506354 -87.109265 
L 466.944797 -87.54653 
L 467.383241 -87.983789 
L 467.821684 -88.42104 
L 468.260128 -88.858283 
L 468.698571 -89.295519 
L 469.137014 -89.732747 
L 469.575458 -90.169968 
L 470.013901 -90.60718 
L 470.452345 -91.044384 
L 470.890788 -91.481581 
L 471.329231 -91.918769 
L 471.767675 -92.355949 
L 472.206118 -92.79312 
L 472.644562 -93.230283 
L 473.083005 -93.667438 
L 473.521449 -94.104584 
L 473.959892 -94.541721 
L 474.398335 -94.978849 
L 474.836779 -95.415969 
L 475.275222 -95.853079 
L 475.713666 -96.29018 
L 476.152109 -96.727272 
L 476.590552 -97.164354 
L 477.028996 -97.601428 
L 477.467439 -98.038491 
L 477.905883 -98.475546 
L 478.344326 -98.91259 
L 478.782769 -99.349625 
L 479.221213 -99.786649 
L 479.659656 -100.223664 
L 480.0981 -100.660669 
L 480.536543 -101.097664 
L 480.974987 -101.534648 
L 481.41343 -101.971623 
L 481.851873 -102.408587 
L 482.290317 -102.84554 
L 482.72876 -103.282483 
L 483.167204 -103.719415 
L 483.605647 -104.156337 
L 484.04409 -104.593248 
L 484.482534 -105.030148 
L 484.920977 -105.467038 
L 485.359421 -105.903916 
L 485.797864 -106.340784 
L 486.236308 -106.77764 
L 486.674751 -107.214485 
L 487.113194 -107.651319 
L 487.551638 -108.088142 
L 487.990081 -108.524954 
L 488.428525 -108.961754 
L 488.866968 -109.398543 
L 489.305411 -109.83532 
L 489.743855 -110.272086 
L 490.182298 -110.708841 
L 490.620742 -111.145584 
L 491.059185 -111.582315 
L 491.497629 -112.019035 
L 491.936072 -112.455743 
L 492.374515 -112.89244 
L 492.812959 -113.329125 
L 493.251402 -113.765798 
L 493.689846 -114.20246 
L 494.128289 -114.63911 
L 494.566732 -115.075748 
L 495.005176 -115.512374 
L 495.443619 -115.948989 
L 495.882063 -116.385592 
L 496.320506 -116.822184 
L 496.758949 -117.258764 
L 497.197393 -117.695332 
L 497.635836 -118.131888 
L 498.07428 -118.568433 
L 498.512723 -119.004966 
L 498.951167 -119.441488 
L 499.38961 -119.877998 
L 499.828053 -120.314496 
L 500.266497 -120.750983 
L 500.70494 -121.187459 
L 501.143384 -121.623923 
L 501.581827 -122.060376 
L 502.02027 -122.496817 
L 502.458714 -122.933247 
L 502.897157 -123.369666 
L 503.335601 -123.806074 
L 503.774044 -124.24247 
L 504.212488 -124.678856 
L 504.650931 -125.11523 
L 505.089374 -125.551594 
L 505.527818 -125.987946 
L 505.966261 -126.424288 
L 506.404705 -126.860619 
L 506.843148 -127.29694 
L 507.281591 -127.733249 
L 507.720035 -128.169549 
L 508.158478 -128.605837 
L 508.596922 -129.042116 
L 509.035365 -129.478384 
L 509.473809 -129.914642 
L 509.912252 -130.35089 
L 510.350695 -130.787127 
L 510.789139 -131.223355 
L 511.227582 -131.659573 
L 511.666026 -132.095781 
L 512.104469 -132.531979 
L 512.542912 -132.968168 
L 512.981356 -133.404347 
L 513.419799 -133.840517 
L 513.858243 -134.276677 
L 514.296686 -134.712829 
L 514.73513 -135.148971 
L 515.173573 -135.585104 
L 515.612016 -136.021228 
L 516.05046 -136.457343 
L 516.488903 -136.893449 
L 516.927347 -137.329547 
L 517.36579 -137.765636 
L 517.804233 -138.201716 
L 518.242677 -138.637789 
L 518.68112 -139.073853 
L 519.119564 -139.509908 
L 519.558007 -139.945956 
L 519.99645 -140.381995 
L 520.434894 -140.818027 
L 520.873337 -141.254051 
L 521.311781 -141.690067 
L 521.750224 -142.126075 
L 522.188668 -142.562076 
L 522.627111 -142.99807 
L 523.065554 -143.434056 
L 523.503998 -143.870035 
L 523.942441 -144.306006 
L 524.380885 -144.741971 
L 524.819328 -145.177928 
L 525.257771 -145.613879 
L 525.696215 -146.049823 
L 526.134658 -146.48576 
L 526.573102 -146.921691 
L 527.011545 -147.357614 
L 527.449989 -147.793532 
L 527.888432 -148.229443 
L 528.326875 -148.665348 
L 528.765319 -149.101247 
L 529.203762 -149.537139 
L 529.642206 -149.973026 
L 530.080649 -150.408906 
L 530.519092 -150.844781 
L 530.957536 -151.280649 
L 531.395979 -151.716513 
L 531.834423 -152.15237 
L 532.272866 -152.588222 
L 532.71131 -153.024068 
L 533.149753 -153.45991 
L 533.588196 -153.895745 
L 534.02664 -154.331576 
L 534.465083 -154.767401 
L 534.903527 -155.203221 
L 535.34197 -155.639036 
L 535.780413 -156.074846 
L 536.218857 -156.510652 
L 536.6573 -156.946452 
L 537.095744 -157.382248 
L 537.534187 -157.818039 
L 537.972631 -158.253825 
L 538.411074 -158.689607 
L 538.849517 -159.125384 
L 539.287961 -159.561157 
L 539.726404 -159.996925 
L 540.164848 -160.43269 
L 540.603291 -160.868449 
L 541.041734 -161.304205 
L 541.480178 -161.739957 
L 541.918621 -162.175704 
L 542.357065 -162.611448 
L 542.795508 -163.047187 
L 543.233951 -163.482923 
L 543.672395 -163.918655 
L 544.110838 -164.354383 
L 544.549282 -164.790107 
L 544.987725 -165.225828 
L 545.426169 -165.661545 
L 545.864612 -166.097258 
L 546.303055 -166.532968 
L 546.741499 -166.968674 
L 547.179942 -167.404377 
L 547.618386 -167.840077 
L 548.056829 -168.275773 
L 548.495272 -168.711466 
L 548.933716 -169.147155 
L 549.372159 -169.582842 
L 549.810603 -170.018525 
L 550.249046 -170.454205 
L 550.68749 -170.889882 
L 551.125933 -171.325556 
L 551.564376 -171.761228 
L 552.00282 -172.196896 
L 552.441263 -172.632561 
L 552.879707 -173.068223 
L 553.31815 -173.503883 
L 553.756593 -173.93954 
L 554.195037 -174.375194 
L 554.63348 -174.810845 
L 555.071924 -175.246494 
L 555.510367 -175.68214 
L 555.948811 -176.117783 
L 556.387254 -176.553424 
L 556.825697 -176.989063 
L 557.264141 -177.424699 
L 557.702584 -177.860332 
L 558.141028 -178.295963 
L 558.579471 -178.731592 
L 559.017914 -179.167218 
L 559.017914 -179.611193 
L 559.017914 -179.611193 
L 558.579471 -179.17357 
L 558.141028 -178.735949 
L 557.702584 -178.29833 
L 557.264141 -177.860714 
L 556.825697 -177.4231 
L 556.387254 -176.985489 
L 555.948811 -176.54788 
L 555.510367 -176.110274 
L 555.071924 -175.67267 
L 554.63348 -175.235069 
L 554.195037 -174.797471 
L 553.756593 -174.359875 
L 553.31815 -173.922282 
L 552.879707 -173.484692 
L 552.441263 -173.047105 
L 552.00282 -172.60952 
L 551.564376 -172.171939 
L 551.125933 -171.73436 
L 550.68749 -171.296785 
L 550.249046 -170.859212 
L 549.810603 -170.421643 
L 549.372159 -169.984076 
L 548.933716 -169.546513 
L 548.495272 -169.108953 
L 548.056829 -168.671396 
L 547.618386 -168.233843 
L 547.179942 -167.796292 
L 546.741499 -167.358746 
L 546.303055 -166.921202 
L 545.864612 -166.483662 
L 545.426169 -166.046126 
L 544.987725 -165.608593 
L 544.549282 -165.171064 
L 544.110838 -164.733539 
L 543.672395 -164.296017 
L 543.233951 -163.858499 
L 542.795508 -163.420985 
L 542.357065 -162.983475 
L 541.918621 -162.545969 
L 541.480178 -162.108467 
L 541.041734 -161.670969 
L 540.603291 -161.233475 
L 540.164848 -160.795985 
L 539.726404 -160.358499 
L 539.287961 -159.921018 
L 538.849517 -159.483541 
L 538.411074 -159.046069 
L 537.972631 -158.608601 
L 537.534187 -158.171137 
L 537.095744 -157.733679 
L 536.6573 -157.296225 
L 536.218857 -156.858775 
L 535.780413 -156.421331 
L 535.34197 -155.983891 
L 534.903527 -155.546457 
L 534.465083 -155.109027 
L 534.02664 -154.671603 
L 533.588196 -154.234184 
L 533.149753 -153.79677 
L 532.71131 -153.359361 
L 532.272866 -152.921958 
L 531.834423 -152.48456 
L 531.395979 -152.047168 
L 530.957536 -151.609781 
L 530.519092 -151.1724 
L 530.080649 -150.735025 
L 529.642206 -150.297656 
L 529.203762 -149.860293 
L 528.765319 -149.422936 
L 528.326875 -148.985585 
L 527.888432 -148.54824 
L 527.449989 -148.110901 
L 527.011545 -147.673569 
L 526.573102 -147.236243 
L 526.134658 -146.798924 
L 525.696215 -146.361612 
L 525.257771 -145.924306 
L 524.819328 -145.487007 
L 524.380885 -145.049715 
L 523.942441 -144.612429 
L 523.503998 -144.175151 
L 523.065554 -143.737881 
L 522.627111 -143.300617 
L 522.188668 -142.863361 
L 521.750224 -142.426112 
L 521.311781 -141.988871 
L 520.873337 -141.551637 
L 520.434894 -141.114411 
L 519.99645 -140.677193 
L 519.558007 -140.239983 
L 519.119564 -139.802781 
L 518.68112 -139.365587 
L 518.242677 -138.928401 
L 517.804233 -138.491224 
L 517.36579 -138.054054 
L 516.927347 -137.616894 
L 516.488903 -137.179742 
L 516.05046 -136.742598 
L 515.612016 -136.305464 
L 515.173573 -135.868338 
L 514.73513 -135.431222 
L 514.296686 -134.994114 
L 513.858243 -134.557015 
L 513.419799 -134.119926 
L 512.981356 -133.682846 
L 512.542912 -133.245776 
L 512.104469 -132.808715 
L 511.666026 -132.371663 
L 511.227582 -131.934622 
L 510.789139 -131.49759 
L 510.350695 -131.060568 
L 509.912252 -130.623556 
L 509.473809 -130.186554 
L 509.035365 -129.749562 
L 508.596922 -129.312581 
L 508.158478 -128.875609 
L 507.720035 -128.438649 
L 507.281591 -128.001698 
L 506.843148 -127.564758 
L 506.404705 -127.127829 
L 505.966261 -126.69091 
L 505.527818 -126.254002 
L 505.089374 -125.817105 
L 504.650931 -125.380219 
L 504.212488 -124.943344 
L 503.774044 -124.50648 
L 503.335601 -124.069627 
L 502.897157 -123.632785 
L 502.458714 -123.195954 
L 502.02027 -122.759134 
L 501.581827 -122.322326 
L 501.143384 -121.885529 
L 500.70494 -121.448743 
L 500.266497 -121.011969 
L 499.828053 -120.575206 
L 499.38961 -120.138455 
L 498.951167 -119.701716 
L 498.512723 -119.264988 
L 498.07428 -118.828271 
L 497.635836 -118.391566 
L 497.197393 -117.954873 
L 496.758949 -117.518191 
L 496.320506 -117.081521 
L 495.882063 -116.644863 
L 495.443619 -116.208217 
L 495.005176 -115.771582 
L 494.566732 -115.334959 
L 494.128289 -114.898347 
L 493.689846 -114.461747 
L 493.251402 -114.025159 
L 492.812959 -113.588583 
L 492.374515 -113.152018 
L 491.936072 -112.715465 
L 491.497629 -112.278924 
L 491.059185 -111.842394 
L 490.620742 -111.405876 
L 490.182298 -110.969369 
L 489.743855 -110.532874 
L 489.305411 -110.09639 
L 488.866968 -109.659918 
L 488.428525 -109.223457 
L 487.990081 -108.787007 
L 487.551638 -108.350569 
L 487.113194 -107.914142 
L 486.674751 -107.477727 
L 486.236308 -107.041322 
L 485.797864 -106.604929 
L 485.359421 -106.168547 
L 484.920977 -105.732175 
L 484.482534 -105.295815 
L 484.04409 -104.859466 
L 483.605647 -104.423127 
L 483.167204 -103.986799 
L 482.72876 -103.550482 
L 482.290317 -103.114175 
L 481.851873 -102.677879 
L 481.41343 -102.241593 
L 480.974987 -101.805317 
L 480.536543 -101.369052 
L 480.0981 -100.932797 
L 479.659656 -100.496552 
L 479.221213 -100.060318 
L 478.782769 -99.624093 
L 478.344326 -99.187878 
L 477.905883 -98.751672 
L 477.467439 -98.315477 
L 477.028996 -97.879291 
L 476.590552 -97.443114 
L 476.152109 -97.006947 
L 475.713666 -96.57079 
L 475.275222 -96.134641 
L 474.836779 -95.698502 
L 474.398335 -95.262371 
L 473.959892 -94.82625 
L 473.521449 -94.390137 
L 473.083005 -93.954033 
L 472.644562 -93.517938 
L 472.206118 -93.081852 
L 471.767675 -92.645773 
L 471.329231 -92.209704 
L 470.890788 -91.773642 
L 470.452345 -91.337589 
L 470.013901 -90.901544 
L 469.575458 -90.465506 
L 469.137014 -90.029477 
L 468.698571 -89.593455 
L 468.260128 -89.157442 
L 467.821684 -88.721435 
L 467.383241 -88.285437 
L 466.944797 -87.849445 
L 466.506354 -87.413461 
L 466.06791 -86.977485 
L 465.629467 -86.541515 
L 465.191024 -86.105552 
L 464.75258 -85.669597 
L 464.314137 -85.233648 
L 463.875693 -84.797706 
L 463.43725 -84.361771 
L 462.998807 -83.925842 
L 462.560363 -83.48992 
L 462.12192 -83.054005 
L 461.683476 -82.618095 
L 461.245033 -82.182192 
L 460.806589 -81.746296 
L 460.368146 -81.310405 
L 459.929703 -80.87452 
L 459.491259 -80.438641 
L 459.052816 -80.002768 
L 458.614372 -79.566901 
L 458.175929 -79.13104 
L 457.737486 -78.695184 
L 457.299042 -78.259333 
L 456.860599 -77.823489 
L 456.422155 -77.387649 
L 455.983712 -76.951815 
L 455.545268 -76.515986 
L 455.106825 -76.080162 
L 454.668382 -75.644343 
L 454.229938 -75.20853 
L 453.791495 -74.772721 
L 453.353051 -74.336917 
L 452.914608 -73.901118 
L 452.476165 -73.465324 
L 452.037721 -73.029534 
L 451.599278 -72.593749 
L 451.160834 -72.157969 
L 450.722391 -71.722193 
L 450.283948 -71.286421 
L 449.845504 -70.850654 
L 449.407061 -70.414891 
L 448.968617 -69.979132 
L 448.530174 -69.543378 
L 448.09173 -69.107627 
L 447.653287 -68.671881 
L 447.214844 -68.236139 
L 446.7764 -67.8004 
L 446.337957 -67.364666 
L 445.899513 -66.928935 
L 445.46107 -66.493208 
L 445.022627 -66.057485 
L 444.584183 -65.621765 
L 444.14574 -65.18605 
L 443.707296 -64.750337 
L 443.268853 -64.314628 
L 442.830409 -63.878923 
L 442.391966 -63.443221 
L 441.953523 -63.007523 
L 441.515079 -62.571827 
L 441.076636 -62.136135 
L 440.638192 -61.700447 
L 440.199749 -61.264761 
L 439.761306 -60.829079 
L 439.322862 -60.393399 
L 438.884419 -59.957723 
L 438.445975 -59.52205 
L 438.007532 -59.08638 
L 437.569088 -58.650712 
L 437.130645 -58.215048 
L 436.692202 -57.779386 
L 436.253758 -57.343727 
L 435.815315 -56.908071 
L 435.376871 -56.472418 
L 434.938428 -56.036768 
L 434.499985 -55.60112 
L 434.061541 -55.165474 
L 433.623098 -54.729832 
L 433.184654 -54.294191 
L 432.746211 -53.858554 
L 432.307767 -53.422919 
L 431.869324 -52.987286 
L 431.430881 -52.551656 
L 430.992437 -52.116028 
L 430.553994 -51.680402 
L 430.11555 -51.244779 
L 429.677107 -50.809158 
L 429.238664 -50.373539 
L 428.80022 -49.937923 
L 428.361777 -49.502308 
L 427.923333 -49.066696 
z
"/>
    </defs>
    <g clip-path="url(#p9d1f7f9d5c)">
     <use xlink:href="#m6d3b2a6548" x="0" y="216" style="fill: #4682b4; fill-opacity: 0.5"/>
    </g>
   </g>
   <g id="matplotlib.axis_5">
    <g id="xtick_7">
     <g id="line2d_24">
      <g>
       <use xlink:href="#mc9f68ab9e0" x="433.882178" y="173.94" style="stroke: #000000; stroke-width: 0.8"/>
      </g>
     </g>
     <g id="text_22">
      <!-- 0 -->
      <g transform="translate(430.545615 186.048125) scale(0.12 -0.12)">
       <use xlink:href="#Helvetica-30"/>
      </g>
     </g>
    </g>
    <g id="xtick_8">
     <g id="line2d_25">
      <g>
       <use xlink:href="#mc9f68ab9e0" x="493.470624" y="173.94" style="stroke: #000000; stroke-width: 0.8"/>
      </g>
     </g>
     <g id="text_23">
      <!-- 50 -->
      <g transform="translate(486.797499 186.048125) scale(0.12 -0.12)">
       <use xlink:href="#Helvetica-35"/>
       <use xlink:href="#Helvetica-30" x="55.615234"/>
      </g>
     </g>
    </g>
    <g id="xtick_9">
     <g id="line2d_26">
      <g>
       <use xlink:href="#mc9f68ab9e0" x="553.05907" y="173.94" style="stroke: #000000; stroke-width: 0.8"/>
      </g>
     </g>
     <g id="text_24">
      <!-- 100 -->
      <g transform="translate(543.049382 186.048125) scale(0.12 -0.12)">
       <use xlink:href="#Helvetica-31"/>
       <use xlink:href="#Helvetica-30" x="55.615234"/>
       <use xlink:href="#Helvetica-30" x="111.230469"/>
      </g>
     </g>
    </g>
   </g>
   <g id="matplotlib.axis_6">
    <g id="ytick_10">
     <g id="line2d_27">
      <g>
       <use xlink:href="#m2e05ea604c" x="427.923333" y="169.717292" style="stroke: #000000; stroke-width: 0.8"/>
      </g>
     </g>
     <g id="text_25">
      <!-- 0 -->
      <g transform="translate(417.750208 174.021355) scale(0.12 -0.12)">
       <use xlink:href="#Helvetica-30"/>
      </g>
     </g>
    </g>
    <g id="ytick_11">
     <g id="line2d_28">
      <g>
       <use xlink:href="#m2e05ea604c" x="427.923333" y="131.730103" style="stroke: #000000; stroke-width: 0.8"/>
      </g>
     </g>
     <g id="text_26">
      <!-- 1000 -->
      <g transform="translate(397.730833 136.034165) scale(0.12 -0.12)">
       <use xlink:href="#Helvetica-31"/>
       <use xlink:href="#Helvetica-30" x="55.615234"/>
       <use xlink:href="#Helvetica-30" x="111.230469"/>
       <use xlink:href="#Helvetica-30" x="166.845703"/>
      </g>
     </g>
    </g>
    <g id="ytick_12">
     <g id="line2d_29">
      <g>
       <use xlink:href="#m2e05ea604c" x="427.923333" y="93.742913" style="stroke: #000000; stroke-width: 0.8"/>
      </g>
     </g>
     <g id="text_27">
      <!-- 2000 -->
      <g transform="translate(397.730833 98.046976) scale(0.12 -0.12)">
       <use xlink:href="#Helvetica-32"/>
       <use xlink:href="#Helvetica-30" x="55.615234"/>
       <use xlink:href="#Helvetica-30" x="111.230469"/>
       <use xlink:href="#Helvetica-30" x="166.845703"/>
      </g>
     </g>
    </g>
    <g id="ytick_13">
     <g id="line2d_30">
      <g>
       <use xlink:href="#m2e05ea604c" x="427.923333" y="55.755724" style="stroke: #000000; stroke-width: 0.8"/>
      </g>
     </g>
     <g id="text_28">
      <!-- 3000 -->
      <g transform="translate(397.730833 60.059786) scale(0.12 -0.12)">
       <use xlink:href="#Helvetica-33"/>
       <use xlink:href="#Helvetica-30" x="55.615234"/>
       <use xlink:href="#Helvetica-30" x="111.230469"/>
       <use xlink:href="#Helvetica-30" x="166.845703"/>
      </g>
     </g>
    </g>
   </g>
   <g id="LineCollection_3">
    <path d="M 553.05907 42.212154 
L 553.05907 41.944625 
" clip-path="url(#p9d1f7f9d5c)" style="fill: none; stroke: #4682b4"/>
    <path d="M 551.867301 44.253458 
L 551.867301 43.989353 
" clip-path="url(#p9d1f7f9d5c)" style="fill: none; stroke: #4682b4"/>
    <path d="M 541.141381 54.49803 
L 541.141381 54.244474 
" clip-path="url(#p9d1f7f9d5c)" style="fill: none; stroke: #4682b4"/>
    <path d="M 493.470624 101.777491 
L 493.470624 101.564231 
" clip-path="url(#p9d1f7f9d5c)" style="fill: none; stroke: #4682b4"/>
    <path d="M 457.717556 138.298174 
L 457.717556 138.108098 
" clip-path="url(#p9d1f7f9d5c)" style="fill: none; stroke: #4682b4"/>
    <path d="M 433.882178 160.704469 
L 433.882178 160.487302 
" clip-path="url(#p9d1f7f9d5c)" style="fill: none; stroke: #4682b4"/>
   </g>
   <g id="line2d_31">
    <g clip-path="url(#p9d1f7f9d5c)">
     <use xlink:href="#mcbff72d413" x="553.05907" y="42.212154" style="fill: #4682b4; stroke: #4682b4"/>
     <use xlink:href="#mcbff72d413" x="551.867301" y="44.253458" style="fill: #4682b4; stroke: #4682b4"/>
     <use xlink:href="#mcbff72d413" x="541.141381" y="54.49803" style="fill: #4682b4; stroke: #4682b4"/>
     <use xlink:href="#mcbff72d413" x="493.470624" y="101.777491" style="fill: #4682b4; stroke: #4682b4"/>
     <use xlink:href="#mcbff72d413" x="457.717556" y="138.298174" style="fill: #4682b4; stroke: #4682b4"/>
     <use xlink:href="#mcbff72d413" x="433.882178" y="160.704469" style="fill: #4682b4; stroke: #4682b4"/>
    </g>
   </g>
   <g id="line2d_32">
    <g clip-path="url(#p9d1f7f9d5c)">
     <use xlink:href="#mcbff72d413" x="553.05907" y="41.944625" style="fill: #4682b4; stroke: #4682b4"/>
     <use xlink:href="#mcbff72d413" x="551.867301" y="43.989353" style="fill: #4682b4; stroke: #4682b4"/>
     <use xlink:href="#mcbff72d413" x="541.141381" y="54.244474" style="fill: #4682b4; stroke: #4682b4"/>
     <use xlink:href="#mcbff72d413" x="493.470624" y="101.564231" style="fill: #4682b4; stroke: #4682b4"/>
     <use xlink:href="#mcbff72d413" x="457.717556" y="138.108098" style="fill: #4682b4; stroke: #4682b4"/>
     <use xlink:href="#mcbff72d413" x="433.882178" y="160.487302" style="fill: #4682b4; stroke: #4682b4"/>
    </g>
   </g>
   <g id="line2d_33">
    <path d="M 427.923333 167.161623 
L 559.017914 36.610794 
L 559.017914 36.610794 
" clip-path="url(#p9d1f7f9d5c)" style="fill: none; stroke: #000000; stroke-linecap: square"/>
   </g>
   <g id="line2d_34">
    <path d="M 553.05907 42.078389 
L 551.867301 44.121405 
L 541.141381 54.371252 
L 493.470624 101.670861 
L 457.717556 138.203136 
L 433.882178 160.595886 
" clip-path="url(#p9d1f7f9d5c)" style="fill: none"/>
    <g clip-path="url(#p9d1f7f9d5c)">
     <use xlink:href="#mb40d8995bd" x="553.05907" y="42.078389" style="fill-opacity: 0; stroke: #4682b4"/>
     <use xlink:href="#mb40d8995bd" x="551.867301" y="44.121405" style="fill-opacity: 0; stroke: #4682b4"/>
     <use xlink:href="#mb40d8995bd" x="541.141381" y="54.371252" style="fill-opacity: 0; stroke: #4682b4"/>
     <use xlink:href="#mb40d8995bd" x="493.470624" y="101.670861" style="fill-opacity: 0; stroke: #4682b4"/>
     <use xlink:href="#mb40d8995bd" x="457.717556" y="138.203136" style="fill-opacity: 0; stroke: #4682b4"/>
     <use xlink:href="#mb40d8995bd" x="433.882178" y="160.595886" style="fill-opacity: 0; stroke: #4682b4"/>
    </g>
   </g>
   <g id="patch_13">
    <path d="M 427.923333 173.94 
L 427.923333 29.83875 
" style="fill: none; stroke: #000000; stroke-width: 0.8; stroke-linejoin: miter; stroke-linecap: square"/>
   </g>
   <g id="patch_14">
    <path d="M 559.017914 173.94 
L 559.017914 29.83875 
" style="fill: none; stroke: #000000; stroke-width: 0.8; stroke-linejoin: miter; stroke-linecap: square"/>
   </g>
   <g id="patch_15">
    <path d="M 427.923333 173.94 
L 559.017914 173.94 
" style="fill: none; stroke: #000000; stroke-width: 0.8; stroke-linejoin: miter; stroke-linecap: square"/>
   </g>
   <g id="patch_16">
    <path d="M 427.923333 29.83875 
L 559.017914 29.83875 
" style="fill: none; stroke: #000000; stroke-width: 0.8; stroke-linejoin: miter; stroke-linecap: square"/>
   </g>
   <g id="text_29">
    <!--  -->
    <g transform="translate(441.032791 35.807775) scale(0.12 -0.12)"/>
    <!-- y = 31 x + 223 -->
    <g transform="translate(441.032791 48.638775) scale(0.12 -0.12)">
     <use xlink:href="#Helvetica-79"/>
     <use xlink:href="#Helvetica-20" x="50"/>
     <use xlink:href="#Helvetica-3d" x="77.783203"/>
     <use xlink:href="#Helvetica-20" x="136.181641"/>
     <use xlink:href="#Helvetica-33" x="163.964844"/>
     <use xlink:href="#Helvetica-31" x="219.580078"/>
     <use xlink:href="#Helvetica-20" x="275.195312"/>
     <use xlink:href="#Helvetica-78" x="302.978516"/>
     <use xlink:href="#Helvetica-20" x="352.978516"/>
     <use xlink:href="#Helvetica-2b" x="380.761719"/>
     <use xlink:href="#Helvetica-20" x="439.160156"/>
     <use xlink:href="#Helvetica-32" x="466.943359"/>
     <use xlink:href="#Helvetica-32" x="522.558594"/>
     <use xlink:href="#Helvetica-33" x="578.173828"/>
    </g>
    <!-- R$^2$ = 1.000 -->
    <g transform="translate(441.032791 61.541025) scale(0.12 -0.12)">
     <use xlink:href="#Helvetica-52" transform="translate(0 0.271875)"/>
     <use xlink:href="#Helvetica-32" transform="translate(73.131992 36.879688) scale(0.7)"/>
     <use xlink:href="#Helvetica-20" transform="translate(114.6775 0.271875)"/>
     <use xlink:href="#Helvetica-3d" transform="translate(142.460703 0.271875)"/>
     <use xlink:href="#Helvetica-20" transform="translate(200.859141 0.271875)"/>
     <use xlink:href="#Helvetica-31" transform="translate(228.642344 0.271875)"/>
     <use xlink:href="#Helvetica-2e" transform="translate(284.257578 0.271875)"/>
     <use xlink:href="#Helvetica-30" transform="translate(312.040781 0.271875)"/>
     <use xlink:href="#Helvetica-30" transform="translate(367.656016 0.271875)"/>
     <use xlink:href="#Helvetica-30" transform="translate(423.27125 0.271875)"/>
    </g>
   </g>
   <g id="text_30">
    <!-- pUC -->
    <g transform="translate(479.067249 23.83875) scale(0.144 -0.144)">
     <defs>
      <path id="Helvetica-55" d="M 1163 4591 
L 1163 1753 
Q 1163 1253 1350 922 
Q 1628 422 2288 422 
Q 3078 422 3363 963 
Q 3516 1256 3516 1753 
L 3516 4591 
L 4147 4591 
L 4147 2013 
Q 4147 1166 3919 709 
Q 3500 -122 2338 -122 
Q 1175 -122 759 709 
Q 531 1166 531 2013 
L 531 4591 
L 1163 4591 
z
M 2341 4591 
L 2341 4591 
z
" transform="scale(0.015625)"/>
     </defs>
     <use xlink:href="#Helvetica-70"/>
     <use xlink:href="#Helvetica-55" x="55.615234"/>
     <use xlink:href="#Helvetica-43" x="127.832031"/>
    </g>
   </g>
  </g>
 </g>
 <defs>
  <clipPath id="pb25898fc3d">
   <rect x="57.99" y="29.83875" width="131.094581" height="144.10125"/>
  </clipPath>
  <clipPath id="p6185c2eadf">
   <rect x="242.956667" y="29.83875" width="131.094581" height="144.10125"/>
  </clipPath>
  <clipPath id="p9d1f7f9d5c">
   <rect x="427.923333" y="29.83875" width="131.094581" height="144.10125"/>
  </clipPath>
 </defs>
</svg>
