<?xml version="1.0" encoding="utf-8" standalone="no"?>
<!DOCTYPE svg PUBLIC "-//W3C//DTD SVG 1.1//EN"
  "http://www.w3.org/Graphics/SVG/1.1/DTD/svg11.dtd">
<svg xmlns:xlink="http://www.w3.org/1999/xlink" width="194.4pt" height="182.88pt" viewBox="0 0 194.4 182.88" xmlns="http://www.w3.org/2000/svg" version="1.1">
 <metadata>
  <rdf:RDF xmlns:dc="http://purl.org/dc/elements/1.1/" xmlns:cc="http://creativecommons.org/ns#" xmlns:rdf="http://www.w3.org/1999/02/22-rdf-syntax-ns#">
   <cc:Work>
    <dc:type rdf:resource="http://purl.org/dc/dcmitype/StillImage"/>
    <dc:date>2025-07-31T16:48:56.378143</dc:date>
    <dc:format>image/svg+xml</dc:format>
    <dc:creator>
     <cc:Agent>
      <dc:title>Matplotlib v3.7.5, https://matplotlib.org/</dc:title>
     </cc:Agent>
    </dc:creator>
   </cc:Work>
  </rdf:RDF>
 </metadata>
 <defs>
  <style type="text/css">*{stroke-linejoin: round; stroke-linecap: butt}</style>
 </defs>
 <g id="figure_1">
  <g id="patch_1">
   <path d="M 0 182.88 
L 194.4 182.88 
L 194.4 0 
L 0 0 
z
" style="fill: #ffffff"/>
  </g>
  <g id="axes_1">
   <g id="patch_2">
    <path d="M 48.6 146.304 
L 184.68 146.304 
L 184.68 9.144 
L 48.6 9.144 
z
" style="fill: #ffffff"/>
   </g>
   <g id="PathCollection_1">
    <defs>
     <path id="C0_0_d2d7bd78ad" d="M 0 3.872983 
C 1.027127 3.872983 2.012324 3.464901 2.738613 2.738613 
C 3.464901 2.012324 3.872983 1.027127 3.872983 -0 
C 3.872983 -1.027127 3.464901 -2.012324 2.738613 -2.738613 
C 2.012324 -3.464901 1.027127 -3.872983 0 -3.872983 
C -1.027127 -3.872983 -2.012324 -3.464901 -2.738613 -2.738613 
C -3.464901 -2.012324 -3.872983 -1.027127 -3.872983 0 
C -3.872983 1.027127 -3.464901 2.012324 -2.738613 2.738613 
C -2.012324 3.464901 -1.027127 3.872983 0 3.872983 
z
"/>
    </defs>
    <use xlink:href="#C0_0_d2d7bd78ad" x="177.517895" y="31.836822" style="fill: #0072bd; stroke: #0072bd"/>
    <use xlink:href="#C0_0_d2d7bd78ad" x="177.517895" y="34.122007" style="fill: #0072bd; stroke: #0072bd"/>
    <use xlink:href="#C0_0_d2d7bd78ad" x="177.517895" y="42.61331" style="fill: #0072bd; stroke: #0072bd"/>
    <use xlink:href="#C0_0_d2d7bd78ad" x="176.085474" y="86.707808" style="fill: #d95319; stroke: #d95319"/>
    <use xlink:href="#C0_0_d2d7bd78ad" x="176.085474" y="78.036559" style="fill: #d95319; stroke: #d95319"/>
    <use xlink:href="#C0_0_d2d7bd78ad" x="176.085474" y="93.708586" style="fill: #d95319; stroke: #d95319"/>
    <use xlink:href="#C0_0_d2d7bd78ad" x="163.193684" y="96.823954" style="fill: #edb120; stroke: #edb120"/>
    <use xlink:href="#C0_0_d2d7bd78ad" x="163.193684" y="93.331547" style="fill: #edb120; stroke: #edb120"/>
    <use xlink:href="#C0_0_d2d7bd78ad" x="163.193684" y="100.360743" style="fill: #edb120; stroke: #edb120"/>
    <use xlink:href="#C0_0_d2d7bd78ad" x="105.896842" y="131.717179" style="fill: #7e2f8e; stroke: #7e2f8e"/>
    <use xlink:href="#C0_0_d2d7bd78ad" x="105.896842" y="112.055954" style="fill: #7e2f8e; stroke: #7e2f8e"/>
    <use xlink:href="#C0_0_d2d7bd78ad" x="105.896842" y="123.660871" style="fill: #7e2f8e; stroke: #7e2f8e"/>
    <use xlink:href="#C0_0_d2d7bd78ad" x="62.924211" y="131.330518" style="fill: #77ac30; stroke: #77ac30"/>
    <use xlink:href="#C0_0_d2d7bd78ad" x="62.924211" y="126.086598" style="fill: #77ac30; stroke: #77ac30"/>
    <use xlink:href="#C0_0_d2d7bd78ad" x="62.924211" y="130.477846" style="fill: #77ac30; stroke: #77ac30"/>
   </g>
   <g id="matplotlib.axis_1">
    <g id="xtick_1">
     <g id="line2d_1">
      <defs>
       <path id="m9eb2ab8c81" d="M 0 0 
L 0 -3.5 
" style="stroke: #000000; stroke-width: 0.8"/>
      </defs>
      <g>
       <use xlink:href="#m9eb2ab8c81" x="105.896842" y="146.304" style="stroke: #000000; stroke-width: 0.8"/>
      </g>
     </g>
     <g id="text_1">
      <!-- 50 -->
      <g transform="translate(99.223717 158.412125) scale(0.12 -0.12)">
       <defs>
        <path id="Helvetica-35" d="M 791 1141 
Q 847 659 1238 475 
Q 1438 381 1700 381 
Q 2200 381 2440 700 
Q 2681 1019 2681 1406 
Q 2681 1875 2395 2131 
Q 2109 2388 1709 2388 
Q 1419 2388 1211 2275 
Q 1003 2163 856 1963 
L 369 1991 
L 709 4400 
L 3034 4400 
L 3034 3856 
L 1131 3856 
L 941 2613 
Q 1097 2731 1238 2791 
Q 1488 2894 1816 2894 
Q 2431 2894 2859 2497 
Q 3288 2100 3288 1491 
Q 3288 856 2895 371 
Q 2503 -113 1644 -113 
Q 1097 -113 676 195 
Q 256 503 206 1141 
L 791 1141 
z
" transform="scale(0.015625)"/>
        <path id="Helvetica-30" d="M 1731 4475 
Q 2600 4475 2988 3759 
Q 3288 3206 3288 2244 
Q 3288 1331 3016 734 
Q 2622 -122 1728 -122 
Q 922 -122 528 578 
Q 200 1163 200 2147 
Q 200 2909 397 3456 
Q 766 4475 1731 4475 
z
M 1725 391 
Q 2163 391 2422 778 
Q 2681 1166 2681 2222 
Q 2681 2984 2493 3476 
Q 2306 3969 1766 3969 
Q 1269 3969 1039 3501 
Q 809 3034 809 2125 
Q 809 1441 956 1025 
Q 1181 391 1725 391 
z
" transform="scale(0.015625)"/>
       </defs>
       <use xlink:href="#Helvetica-35"/>
       <use xlink:href="#Helvetica-30" x="55.615234"/>
      </g>
     </g>
    </g>
    <g id="xtick_2">
     <g id="line2d_2">
      <g>
       <use xlink:href="#m9eb2ab8c81" x="177.517895" y="146.304" style="stroke: #000000; stroke-width: 0.8"/>
      </g>
     </g>
     <g id="text_2">
      <!-- 100 -->
      <g transform="translate(167.508207 158.412125) scale(0.12 -0.12)">
       <defs>
        <path id="Helvetica-31" d="M 613 3169 
L 613 3600 
Q 1222 3659 1462 3798 
Q 1703 3938 1822 4456 
L 2266 4456 
L 2266 0 
L 1666 0 
L 1666 3169 
L 613 3169 
z
" transform="scale(0.015625)"/>
       </defs>
       <use xlink:href="#Helvetica-31"/>
       <use xlink:href="#Helvetica-30" x="55.615234"/>
       <use xlink:href="#Helvetica-30" x="111.230469"/>
      </g>
     </g>
    </g>
   </g>
   <g id="matplotlib.axis_2">
    <g id="ytick_1">
     <g id="line2d_3">
      <defs>
       <path id="mbd3b9fbe75" d="M 0 0 
L 3.5 0 
" style="stroke: #000000; stroke-width: 0.8"/>
      </defs>
      <g>
       <use xlink:href="#mbd3b9fbe75" x="48.6" y="146.304" style="stroke: #000000; stroke-width: 0.8"/>
      </g>
     </g>
     <g id="text_3">
      <!-- 0 -->
      <g transform="translate(38.426875 150.608063) scale(0.12 -0.12)">
       <use xlink:href="#Helvetica-30"/>
      </g>
     </g>
    </g>
    <g id="ytick_2">
     <g id="line2d_4">
      <g>
       <use xlink:href="#mbd3b9fbe75" x="48.6" y="82.999385" style="stroke: #000000; stroke-width: 0.8"/>
      </g>
     </g>
     <g id="text_4">
      <!-- 6 -->
      <g transform="translate(38.426875 87.303447) scale(0.12 -0.12)">
       <defs>
        <path id="Helvetica-36" d="M 1872 4494 
Q 2622 4494 2917 4105 
Q 3213 3716 3213 3303 
L 2656 3303 
Q 2606 3569 2497 3719 
Q 2294 4000 1881 4000 
Q 1409 4000 1131 3564 
Q 853 3128 822 2316 
Q 1016 2600 1309 2741 
Q 1578 2866 1909 2866 
Q 2472 2866 2890 2506 
Q 3309 2147 3309 1434 
Q 3309 825 2912 354 
Q 2516 -116 1781 -116 
Q 1153 -116 697 361 
Q 241 838 241 1966 
Q 241 2800 444 3381 
Q 834 4494 1872 4494 
z
M 1831 384 
Q 2275 384 2495 682 
Q 2716 981 2716 1388 
Q 2716 1731 2519 2042 
Q 2322 2353 1803 2353 
Q 1441 2353 1167 2112 
Q 894 1872 894 1388 
Q 894 963 1142 673 
Q 1391 384 1831 384 
z
" transform="scale(0.015625)"/>
       </defs>
       <use xlink:href="#Helvetica-36"/>
      </g>
     </g>
    </g>
    <g id="ytick_3">
     <g id="line2d_5">
      <g>
       <use xlink:href="#mbd3b9fbe75" x="48.6" y="19.694769" style="stroke: #000000; stroke-width: 0.8"/>
      </g>
     </g>
     <g id="text_5">
      <!-- 12 -->
      <g transform="translate(31.75375 23.998832) scale(0.12 -0.12)">
       <defs>
        <path id="Helvetica-32" d="M 200 0 
Q 231 578 439 1006 
Q 647 1434 1250 1784 
L 1850 2131 
Q 2253 2366 2416 2531 
Q 2672 2791 2672 3125 
Q 2672 3516 2437 3745 
Q 2203 3975 1813 3975 
Q 1234 3975 1013 3538 
Q 894 3303 881 2888 
L 309 2888 
Q 319 3472 525 3841 
Q 891 4491 1816 4491 
Q 2584 4491 2939 4075 
Q 3294 3659 3294 3150 
Q 3294 2613 2916 2231 
Q 2697 2009 2131 1694 
L 1703 1456 
Q 1397 1288 1222 1134 
Q 909 863 828 531 
L 3272 531 
L 3272 0 
L 200 0 
z
" transform="scale(0.015625)"/>
       </defs>
       <use xlink:href="#Helvetica-31"/>
       <use xlink:href="#Helvetica-32" x="55.615234"/>
      </g>
     </g>
    </g>
   </g>
   <g id="line2d_6">
    <path d="M 35.708211 135.598563 
L 37.140632 135.5202 
L 38.573053 135.440633 
L 40.005474 135.359833 
L 41.437895 135.277771 
L 42.870316 135.194415 
L 44.302737 135.109733 
L 45.735158 135.023692 
L 47.167579 134.936258 
L 48.6 134.847395 
L 50.032421 134.757065 
L 51.464842 134.665232 
L 52.897263 134.571855 
L 54.329684 134.476893 
L 55.762105 134.380304 
L 57.194526 134.282044 
L 58.626947 134.182067 
L 60.059368 134.080325 
L 61.491789 133.976768 
L 62.924211 133.871346 
L 64.356632 133.764005 
L 65.789053 133.65469 
L 67.221474 133.543341 
L 68.653895 133.429901 
L 70.086316 133.314304 
L 71.518737 133.196487 
L 72.951158 133.076381 
L 74.383579 132.953914 
L 75.816 132.829013 
L 77.248421 132.7016 
L 78.680842 132.571593 
L 80.113263 132.438909 
L 81.545684 132.303458 
L 82.978105 132.165147 
L 84.410526 132.023879 
L 85.842947 131.879552 
L 87.275368 131.732059 
L 88.707789 131.581288 
L 90.140211 131.42712 
L 91.572632 131.269431 
L 93.005053 131.108091 
L 94.437474 130.942962 
L 95.869895 130.773899 
L 97.302316 130.60075 
L 98.734737 130.423352 
L 100.167158 130.241535 
L 101.599579 130.055119 
L 103.032 129.863913 
L 104.464421 129.667714 
L 105.896842 129.466307 
L 107.329263 129.259463 
L 108.761684 129.046942 
L 110.194105 128.828483 
L 111.626526 128.603811 
L 113.058947 128.372633 
L 114.491368 128.134635 
L 115.923789 127.889479 
L 117.356211 127.636805 
L 118.788632 127.376226 
L 120.221053 127.107327 
L 121.653474 126.829657 
L 123.085895 126.542734 
L 124.518316 126.246034 
L 125.950737 125.93899 
L 127.383158 125.620987 
L 128.815579 125.291355 
L 130.248 124.949363 
L 131.680421 124.594214 
L 133.112842 124.225032 
L 134.545263 123.840855 
L 135.977684 123.440622 
L 137.410105 123.023159 
L 138.842526 122.587165 
L 140.274947 122.131188 
L 141.707368 121.653606 
L 143.139789 121.152598 
L 144.572211 120.626107 
L 146.004632 120.071804 
L 147.437053 119.487032 
L 148.869474 118.868743 
L 150.301895 118.213424 
L 151.734316 117.516986 
L 153.166737 116.774643 
L 154.599158 115.980736 
L 156.031579 115.128516 
L 157.464 114.209833 
L 158.896421 113.214734 
L 160.328842 112.130881 
L 161.761263 110.942727 
L 163.193684 109.630297 
L 164.626105 108.16733 
L 166.058526 106.518338 
L 167.490947 104.633696 
L 168.923368 102.440986 
L 170.355789 99.828467 
L 171.788211 96.610195 
L 173.220632 92.441107 
L 174.653053 86.559841 
L 176.085474 76.628661 
L 177.517895 36.004103 
" clip-path="url(#pc0c93ac370)" style="fill: none; stroke: #000000; stroke-linecap: square"/>
   </g>
   <g id="patch_3">
    <path d="M 48.6 146.304 
L 48.6 9.144 
" style="fill: none; stroke: #000000; stroke-width: 0.8; stroke-linejoin: miter; stroke-linecap: square"/>
   </g>
   <g id="patch_4">
    <path d="M 184.68 146.304 
L 184.68 9.144 
" style="fill: none; stroke: #000000; stroke-width: 0.8; stroke-linejoin: miter; stroke-linecap: square"/>
   </g>
   <g id="patch_5">
    <path d="M 48.6 146.304 
L 184.68 146.304 
" style="fill: none; stroke: #000000; stroke-width: 0.8; stroke-linejoin: miter; stroke-linecap: square"/>
   </g>
   <g id="patch_6">
    <path d="M 48.6 9.144 
L 184.68 9.144 
" style="fill: none; stroke: #000000; stroke-width: 0.8; stroke-linejoin: miter; stroke-linecap: square"/>
   </g>
   <g id="text_6">
    <!-- DA28102 -->
    <g transform="translate(62.208 30.32175) scale(0.12 -0.12)">
     <defs>
      <path id="Helvetica-44" d="M 2250 531 
Q 2566 531 2769 597 
Q 3131 719 3363 1066 
Q 3547 1344 3628 1778 
Q 3675 2038 3675 2259 
Q 3675 3113 3336 3584 
Q 2997 4056 2244 4056 
L 1141 4056 
L 1141 531 
L 2250 531 
z
M 516 4591 
L 2375 4591 
Q 3322 4591 3844 3919 
Q 4309 3313 4309 2366 
Q 4309 1634 4034 1044 
Q 3550 0 2369 0 
L 516 0 
L 516 4591 
z
" transform="scale(0.015625)"/>
      <path id="Helvetica-41" d="M 2844 1881 
L 2147 3909 
L 1406 1881 
L 2844 1881 
z
M 1822 4591 
L 2525 4591 
L 4191 0 
L 3509 0 
L 3044 1375 
L 1228 1375 
L 731 0 
L 94 0 
L 1822 4591 
z
" transform="scale(0.015625)"/>
      <path id="Helvetica-38" d="M 1741 2600 
Q 2113 2600 2322 2808 
Q 2531 3016 2531 3303 
Q 2531 3553 2331 3762 
Q 2131 3972 1722 3972 
Q 1316 3972 1134 3762 
Q 953 3553 953 3272 
Q 953 2956 1187 2778 
Q 1422 2600 1741 2600 
z
M 1775 384 
Q 2166 384 2423 595 
Q 2681 806 2681 1225 
Q 2681 1659 2415 1884 
Q 2150 2109 1734 2109 
Q 1331 2109 1076 1879 
Q 822 1650 822 1244 
Q 822 894 1055 639 
Q 1288 384 1775 384 
z
M 975 2384 
Q 741 2484 609 2619 
Q 363 2869 363 3269 
Q 363 3769 725 4128 
Q 1088 4488 1753 4488 
Q 2397 4488 2762 4148 
Q 3128 3809 3128 3356 
Q 3128 2938 2916 2678 
Q 2797 2531 2547 2391 
Q 2825 2263 2984 2097 
Q 3281 1784 3281 1284 
Q 3281 694 2884 283 
Q 2488 -128 1763 -128 
Q 1109 -128 657 226 
Q 206 581 206 1256 
Q 206 1653 400 1942 
Q 594 2231 975 2384 
z
" transform="scale(0.015625)"/>
     </defs>
     <use xlink:href="#Helvetica-44"/>
     <use xlink:href="#Helvetica-41" x="72.216797"/>
     <use xlink:href="#Helvetica-32" x="138.916016"/>
     <use xlink:href="#Helvetica-38" x="194.53125"/>
     <use xlink:href="#Helvetica-31" x="250.146484"/>
     <use xlink:href="#Helvetica-30" x="305.761719"/>
     <use xlink:href="#Helvetica-32" x="361.376953"/>
    </g>
    <!-- pCU1 -->
    <g transform="translate(62.208 43.434) scale(0.12 -0.12)">
     <defs>
      <path id="Helvetica-70" d="M 1825 378 
Q 2219 378 2480 708 
Q 2741 1038 2741 1694 
Q 2741 2094 2625 2381 
Q 2406 2934 1825 2934 
Q 1241 2934 1025 2350 
Q 909 2038 909 1556 
Q 909 1169 1025 897 
Q 1244 378 1825 378 
z
M 369 3331 
L 916 3331 
L 916 2888 
Q 1084 3116 1284 3241 
Q 1569 3428 1953 3428 
Q 2522 3428 2919 2992 
Q 3316 2556 3316 1747 
Q 3316 653 2744 184 
Q 2381 -113 1900 -113 
Q 1522 -113 1266 53 
Q 1116 147 931 375 
L 931 -1334 
L 369 -1334 
L 369 3331 
z
" transform="scale(0.015625)"/>
      <path id="Helvetica-43" d="M 2422 4716 
Q 3294 4716 3775 4256 
Q 4256 3797 4309 3213 
L 3703 3213 
Q 3600 3656 3292 3915 
Q 2984 4175 2428 4175 
Q 1750 4175 1333 3698 
Q 916 3222 916 2238 
Q 916 1431 1292 929 
Q 1669 428 2416 428 
Q 3103 428 3463 956 
Q 3653 1234 3747 1688 
L 4353 1688 
Q 4272 963 3816 472 
Q 3269 -119 2341 -119 
Q 1541 -119 997 366 
Q 281 1006 281 2344 
Q 281 3359 819 4009 
Q 1400 4716 2422 4716 
z
M 2297 4716 
L 2297 4716 
z
" transform="scale(0.015625)"/>
      <path id="Helvetica-55" d="M 1163 4591 
L 1163 1753 
Q 1163 1253 1350 922 
Q 1628 422 2288 422 
Q 3078 422 3363 963 
Q 3516 1256 3516 1753 
L 3516 4591 
L 4147 4591 
L 4147 2013 
Q 4147 1166 3919 709 
Q 3500 -122 2338 -122 
Q 1175 -122 759 709 
Q 531 1166 531 2013 
L 531 4591 
L 1163 4591 
z
M 2341 4591 
L 2341 4591 
z
" transform="scale(0.015625)"/>
     </defs>
     <use xlink:href="#Helvetica-70"/>
     <use xlink:href="#Helvetica-43" x="55.615234"/>
     <use xlink:href="#Helvetica-55" x="127.832031"/>
     <use xlink:href="#Helvetica-31" x="200.048828"/>
    </g>
   </g>
   <g id="LineCollection_1">
    <path d="M 177.517895 35.750048 
L 177.517895 27.923596 
" style="fill: none; stroke: #000000"/>
    <path d="M 177.517895 38.245838 
L 177.517895 29.998177 
" style="fill: none; stroke: #000000"/>
    <path d="M 177.517895 49.602144 
L 177.517895 35.624477 
" style="fill: none; stroke: #000000"/>
    <path d="M 176.085474 93.518801 
L 176.085474 79.896816 
" style="fill: none; stroke: #000000"/>
    <path d="M 176.085474 104.006807 
L 176.085474 52.06631 
" style="fill: none; stroke: #000000"/>
    <path d="M 176.085474 97.757632 
L 176.085474 89.659541 
" style="fill: none; stroke: #000000"/>
    <path d="M 163.193684 103.885849 
L 163.193684 89.762058 
" style="fill: none; stroke: #000000"/>
    <path d="M 163.193684 102.403599 
L 163.193684 84.259494 
" style="fill: none; stroke: #000000"/>
    <path d="M 163.193684 103.323661 
L 163.193684 97.397826 
" style="fill: none; stroke: #000000"/>
    <path d="M 105.896842 133.896433 
L 105.896842 129.537925 
" style="fill: none; stroke: #000000"/>
    <path d="M 105.896842 117.729949 
L 105.896842 106.381959 
" style="fill: none; stroke: #000000"/>
    <path d="M 105.896842 125.102838 
L 105.896842 122.218904 
" style="fill: none; stroke: #000000"/>
    <path d="M 62.924211 132.719223 
L 62.924211 129.941814 
" style="fill: none; stroke: #000000"/>
    <path d="M 62.924211 128.751142 
L 62.924211 123.422053 
" style="fill: none; stroke: #000000"/>
    <path d="M 62.924211 133.070447 
L 62.924211 127.885245 
" style="fill: none; stroke: #000000"/>
   </g>
   <g id="line2d_7">
    <defs>
     <path id="m9e1b227ba2" d="M 2 0 
L -2 -0 
" style="stroke: #000000"/>
    </defs>
    <g>
     <use xlink:href="#m9e1b227ba2" x="177.517895" y="35.750048" style="stroke: #000000"/>
     <use xlink:href="#m9e1b227ba2" x="177.517895" y="38.245838" style="stroke: #000000"/>
     <use xlink:href="#m9e1b227ba2" x="177.517895" y="49.602144" style="stroke: #000000"/>
     <use xlink:href="#m9e1b227ba2" x="176.085474" y="93.518801" style="stroke: #000000"/>
     <use xlink:href="#m9e1b227ba2" x="176.085474" y="104.006807" style="stroke: #000000"/>
     <use xlink:href="#m9e1b227ba2" x="176.085474" y="97.757632" style="stroke: #000000"/>
     <use xlink:href="#m9e1b227ba2" x="163.193684" y="103.885849" style="stroke: #000000"/>
     <use xlink:href="#m9e1b227ba2" x="163.193684" y="102.403599" style="stroke: #000000"/>
     <use xlink:href="#m9e1b227ba2" x="163.193684" y="103.323661" style="stroke: #000000"/>
     <use xlink:href="#m9e1b227ba2" x="105.896842" y="133.896433" style="stroke: #000000"/>
     <use xlink:href="#m9e1b227ba2" x="105.896842" y="117.729949" style="stroke: #000000"/>
     <use xlink:href="#m9e1b227ba2" x="105.896842" y="125.102838" style="stroke: #000000"/>
     <use xlink:href="#m9e1b227ba2" x="62.924211" y="132.719223" style="stroke: #000000"/>
     <use xlink:href="#m9e1b227ba2" x="62.924211" y="128.751142" style="stroke: #000000"/>
     <use xlink:href="#m9e1b227ba2" x="62.924211" y="133.070447" style="stroke: #000000"/>
    </g>
   </g>
   <g id="line2d_8">
    <g>
     <use xlink:href="#m9e1b227ba2" x="177.517895" y="27.923596" style="stroke: #000000"/>
     <use xlink:href="#m9e1b227ba2" x="177.517895" y="29.998177" style="stroke: #000000"/>
     <use xlink:href="#m9e1b227ba2" x="177.517895" y="35.624477" style="stroke: #000000"/>
     <use xlink:href="#m9e1b227ba2" x="176.085474" y="79.896816" style="stroke: #000000"/>
     <use xlink:href="#m9e1b227ba2" x="176.085474" y="52.06631" style="stroke: #000000"/>
     <use xlink:href="#m9e1b227ba2" x="176.085474" y="89.659541" style="stroke: #000000"/>
     <use xlink:href="#m9e1b227ba2" x="163.193684" y="89.762058" style="stroke: #000000"/>
     <use xlink:href="#m9e1b227ba2" x="163.193684" y="84.259494" style="stroke: #000000"/>
     <use xlink:href="#m9e1b227ba2" x="163.193684" y="97.397826" style="stroke: #000000"/>
     <use xlink:href="#m9e1b227ba2" x="105.896842" y="129.537925" style="stroke: #000000"/>
     <use xlink:href="#m9e1b227ba2" x="105.896842" y="106.381959" style="stroke: #000000"/>
     <use xlink:href="#m9e1b227ba2" x="105.896842" y="122.218904" style="stroke: #000000"/>
     <use xlink:href="#m9e1b227ba2" x="62.924211" y="129.941814" style="stroke: #000000"/>
     <use xlink:href="#m9e1b227ba2" x="62.924211" y="123.422053" style="stroke: #000000"/>
     <use xlink:href="#m9e1b227ba2" x="62.924211" y="127.885245" style="stroke: #000000"/>
    </g>
   </g>
   <g id="line2d_9">
    <path d="M 177.517895 31.836822 
L 177.517895 34.122007 
L 177.517895 42.61331 
L 176.085474 86.707808 
L 176.085474 78.036559 
L 176.085474 93.708586 
L 163.193684 96.823954 
L 163.193684 93.331547 
L 163.193684 100.360743 
L 105.896842 131.717179 
L 105.896842 112.055954 
L 105.896842 123.660871 
L 62.924211 131.330518 
L 62.924211 126.086598 
L 62.924211 130.477846 
" style="fill: none"/>
   </g>
  </g>
 </g>
 <defs>
  <clipPath id="pc0c93ac370">
   <rect x="48.6" y="9.144" width="136.08" height="137.16"/>
  </clipPath>
 </defs>
</svg>
