<?xml version="1.0" encoding="utf-8" standalone="no"?>
<!DOCTYPE svg PUBLIC "-//W3C//DTD SVG 1.1//EN"
  "http://www.w3.org/Graphics/SVG/1.1/DTD/svg11.dtd">
<svg xmlns:xlink="http://www.w3.org/1999/xlink" width="146.88pt" height="136.8pt" viewBox="0 0 146.88 136.8" xmlns="http://www.w3.org/2000/svg" version="1.1">
 <metadata>
  <rdf:RDF xmlns:dc="http://purl.org/dc/elements/1.1/" xmlns:cc="http://creativecommons.org/ns#" xmlns:rdf="http://www.w3.org/1999/02/22-rdf-syntax-ns#">
   <cc:Work>
    <dc:type rdf:resource="http://purl.org/dc/dcmitype/StillImage"/>
    <dc:date>2025-08-15T16:50:41.593122</dc:date>
    <dc:format>image/svg+xml</dc:format>
    <dc:creator>
     <cc:Agent>
      <dc:title>Matplotlib v3.7.5, https://matplotlib.org/</dc:title>
     </cc:Agent>
    </dc:creator>
   </cc:Work>
  </rdf:RDF>
 </metadata>
 <defs>
  <style type="text/css">*{stroke-linejoin: round; stroke-linecap: butt}</style>
 </defs>
 <g id="figure_1">
  <g id="patch_1">
   <path d="M 0 136.8 
L 146.88 136.8 
L 146.88 0 
L 0 0 
z
" style="fill: #ffffff"/>
  </g>
  <g id="axes_1">
   <g id="patch_2">
    <path d="M 36.72 105.336 
L 139.536 105.336 
L 139.536 6.84 
L 36.72 6.84 
z
" style="fill: #ffffff"/>
   </g>
   <g id="line2d_1">
    <path d="M 134.124632 24.776963 
L 133.042358 62.539365 
L 123.301895 69.803872 
L 80.010947 89.075737 
L 47.542737 93.971077 
" clip-path="url(#p5eb94eb0ff)" style="fill: none; stroke: #000000; stroke-width: 1.5; stroke-linecap: square"/>
   </g>
   <g id="PathCollection_1">
    <defs>
     <path id="mee4f0aa2ec" d="M 0 5 
C 1.326016 5 2.597899 4.473168 3.535534 3.535534 
C 4.473168 2.597899 5 1.326016 5 0 
C 5 -1.326016 4.473168 -2.597899 3.535534 -3.535534 
C 2.597899 -4.473168 1.326016 -5 0 -5 
C -1.326016 -5 -2.597899 -4.473168 -3.535534 -3.535534 
C -4.473168 -2.597899 -5 -1.326016 -5 0 
C -5 1.326016 -4.473168 2.597899 -3.535534 3.535534 
C -2.597899 4.473168 -1.326016 5 0 5 
z
" style="stroke: #000000"/>
    </defs>
    <g clip-path="url(#p5eb94eb0ff)">
     <use xlink:href="#mee4f0aa2ec" x="134.124632" y="23.135948" style="fill: #66c2a5; stroke: #000000"/>
    </g>
   </g>
   <g id="LineCollection_1">
    <path d="M 134.124632 25.946075 
L 134.124632 20.32582 
" clip-path="url(#p5eb94eb0ff)" style="fill: none; stroke: #000000"/>
   </g>
   <g id="line2d_2">
    <defs>
     <path id="m8ff705613c" d="M 2 0 
L -2 -0 
" style="stroke: #000000"/>
    </defs>
    <g clip-path="url(#p5eb94eb0ff)">
     <use xlink:href="#m8ff705613c" x="134.124632" y="25.946075" style="stroke: #000000"/>
    </g>
   </g>
   <g id="line2d_3">
    <g clip-path="url(#p5eb94eb0ff)">
     <use xlink:href="#m8ff705613c" x="134.124632" y="20.32582" style="stroke: #000000"/>
    </g>
   </g>
   <g id="PathCollection_2">
    <g clip-path="url(#p5eb94eb0ff)">
     <use xlink:href="#mee4f0aa2ec" x="134.124632" y="24.776963" style="fill: #66c2a5; stroke: #000000"/>
    </g>
   </g>
   <g id="LineCollection_2">
    <path d="M 134.124632 27.738327 
L 134.124632 21.815598 
" clip-path="url(#p5eb94eb0ff)" style="fill: none; stroke: #000000"/>
   </g>
   <g id="line2d_4">
    <g clip-path="url(#p5eb94eb0ff)">
     <use xlink:href="#m8ff705613c" x="134.124632" y="27.738327" style="stroke: #000000"/>
    </g>
   </g>
   <g id="line2d_5">
    <g clip-path="url(#p5eb94eb0ff)">
     <use xlink:href="#m8ff705613c" x="134.124632" y="21.815598" style="stroke: #000000"/>
    </g>
   </g>
   <g id="PathCollection_3">
    <g clip-path="url(#p5eb94eb0ff)">
     <use xlink:href="#mee4f0aa2ec" x="134.124632" y="30.874654" style="fill: #66c2a5; stroke: #000000"/>
    </g>
   </g>
   <g id="LineCollection_3">
    <path d="M 134.124632 35.893407 
L 134.124632 25.855901 
" clip-path="url(#p5eb94eb0ff)" style="fill: none; stroke: #000000"/>
   </g>
   <g id="line2d_6">
    <g clip-path="url(#p5eb94eb0ff)">
     <use xlink:href="#m8ff705613c" x="134.124632" y="35.893407" style="stroke: #000000"/>
    </g>
   </g>
   <g id="line2d_7">
    <g clip-path="url(#p5eb94eb0ff)">
     <use xlink:href="#m8ff705613c" x="134.124632" y="25.855901" style="stroke: #000000"/>
    </g>
   </g>
   <g id="line2d_8">
    <path d="M 134.124632 23.135948 
" clip-path="url(#p5eb94eb0ff)" style="fill: none"/>
   </g>
   <g id="line2d_9">
    <path d="M 134.124632 24.776963 
" clip-path="url(#p5eb94eb0ff)" style="fill: none"/>
   </g>
   <g id="line2d_10">
    <path d="M 134.124632 30.874654 
" clip-path="url(#p5eb94eb0ff)" style="fill: none"/>
   </g>
   <g id="PathCollection_4">
    <defs>
     <path id="m1c26d7e078" d="M 0 5 
C 1.326016 5 2.597899 4.473168 3.535534 3.535534 
C 4.473168 2.597899 5 1.326016 5 0 
C 5 -1.326016 4.473168 -2.597899 3.535534 -3.535534 
C 2.597899 -4.473168 1.326016 -5 0 -5 
C -1.326016 -5 -2.597899 -4.473168 -3.535534 -3.535534 
C -4.473168 -2.597899 -5 -1.326016 -5 0 
C -5 1.326016 -4.473168 2.597899 -3.535534 3.535534 
C -2.597899 4.473168 -1.326016 5 0 5 
z
" style="stroke: #000000"/>
    </defs>
    <g clip-path="url(#p5eb94eb0ff)">
     <use xlink:href="#m1c26d7e078" x="133.042358" y="62.539365" style="fill: #fc8d62; stroke: #000000"/>
    </g>
   </g>
   <g id="LineCollection_4">
    <path d="M 133.042358 67.612165 
L 133.042358 57.466565 
" clip-path="url(#p5eb94eb0ff)" style="fill: none; stroke: #000000"/>
   </g>
   <g id="line2d_11">
    <g clip-path="url(#p5eb94eb0ff)">
     <use xlink:href="#m8ff705613c" x="133.042358" y="67.612165" style="stroke: #000000"/>
    </g>
   </g>
   <g id="line2d_12">
    <g clip-path="url(#p5eb94eb0ff)">
     <use xlink:href="#m8ff705613c" x="133.042358" y="57.466565" style="stroke: #000000"/>
    </g>
   </g>
   <g id="PathCollection_5">
    <g clip-path="url(#p5eb94eb0ff)">
     <use xlink:href="#m1c26d7e078" x="133.042358" y="56.312452" style="fill: #fc8d62; stroke: #000000"/>
    </g>
   </g>
   <g id="LineCollection_5">
    <path d="M 133.042358 75.010361 
L 133.042358 37.614543 
" clip-path="url(#p5eb94eb0ff)" style="fill: none; stroke: #000000"/>
   </g>
   <g id="line2d_13">
    <g clip-path="url(#p5eb94eb0ff)">
     <use xlink:href="#m8ff705613c" x="133.042358" y="75.010361" style="stroke: #000000"/>
    </g>
   </g>
   <g id="line2d_14">
    <g clip-path="url(#p5eb94eb0ff)">
     <use xlink:href="#m8ff705613c" x="133.042358" y="37.614543" style="stroke: #000000"/>
    </g>
   </g>
   <g id="PathCollection_6">
    <g clip-path="url(#p5eb94eb0ff)">
     <use xlink:href="#m1c26d7e078" x="133.042358" y="67.566695" style="fill: #fc8d62; stroke: #000000"/>
    </g>
   </g>
   <g id="LineCollection_6">
    <path d="M 133.042358 70.576527 
L 133.042358 64.556864 
" clip-path="url(#p5eb94eb0ff)" style="fill: none; stroke: #000000"/>
   </g>
   <g id="line2d_15">
    <g clip-path="url(#p5eb94eb0ff)">
     <use xlink:href="#m8ff705613c" x="133.042358" y="70.576527" style="stroke: #000000"/>
    </g>
   </g>
   <g id="line2d_16">
    <g clip-path="url(#p5eb94eb0ff)">
     <use xlink:href="#m8ff705613c" x="133.042358" y="64.556864" style="stroke: #000000"/>
    </g>
   </g>
   <g id="line2d_17">
    <path d="M 133.042358 62.539365 
" clip-path="url(#p5eb94eb0ff)" style="fill: none"/>
   </g>
   <g id="line2d_18">
    <path d="M 133.042358 56.312452 
" clip-path="url(#p5eb94eb0ff)" style="fill: none"/>
   </g>
   <g id="line2d_19">
    <path d="M 133.042358 67.566695 
" clip-path="url(#p5eb94eb0ff)" style="fill: none"/>
   </g>
   <g id="matplotlib.axis_1">
    <g id="xtick_1">
     <g id="line2d_20">
      <defs>
       <path id="m0eb08afea9" d="M 0 0 
L 0 -3.5 
" style="stroke: #000000; stroke-width: 0.8"/>
      </defs>
      <g>
       <use xlink:href="#m0eb08afea9" x="80.010947" y="105.336" style="stroke: #000000; stroke-width: 0.8"/>
      </g>
     </g>
     <g id="text_1">
      <!-- 50 -->
      <g transform="translate(73.337822 117.444125) scale(0.12 -0.12)">
       <defs>
        <path id="Helvetica-35" d="M 791 1141 
Q 847 659 1238 475 
Q 1438 381 1700 381 
Q 2200 381 2440 700 
Q 2681 1019 2681 1406 
Q 2681 1875 2395 2131 
Q 2109 2388 1709 2388 
Q 1419 2388 1211 2275 
Q 1003 2163 856 1963 
L 369 1991 
L 709 4400 
L 3034 4400 
L 3034 3856 
L 1131 3856 
L 941 2613 
Q 1097 2731 1238 2791 
Q 1488 2894 1816 2894 
Q 2431 2894 2859 2497 
Q 3288 2100 3288 1491 
Q 3288 856 2895 371 
Q 2503 -113 1644 -113 
Q 1097 -113 676 195 
Q 256 503 206 1141 
L 791 1141 
z
" transform="scale(0.015625)"/>
        <path id="Helvetica-30" d="M 1731 4475 
Q 2600 4475 2988 3759 
Q 3288 3206 3288 2244 
Q 3288 1331 3016 734 
Q 2622 -122 1728 -122 
Q 922 -122 528 578 
Q 200 1163 200 2147 
Q 200 2909 397 3456 
Q 766 4475 1731 4475 
z
M 1725 391 
Q 2163 391 2422 778 
Q 2681 1166 2681 2222 
Q 2681 2984 2493 3476 
Q 2306 3969 1766 3969 
Q 1269 3969 1039 3501 
Q 809 3034 809 2125 
Q 809 1441 956 1025 
Q 1181 391 1725 391 
z
" transform="scale(0.015625)"/>
       </defs>
       <use xlink:href="#Helvetica-35"/>
       <use xlink:href="#Helvetica-30" x="55.615234"/>
      </g>
     </g>
    </g>
    <g id="xtick_2">
     <g id="line2d_21">
      <g>
       <use xlink:href="#m0eb08afea9" x="134.124632" y="105.336" style="stroke: #000000; stroke-width: 0.8"/>
      </g>
     </g>
     <g id="text_2">
      <!-- 100 -->
      <g transform="translate(124.114944 117.444125) scale(0.12 -0.12)">
       <defs>
        <path id="Helvetica-31" d="M 613 3169 
L 613 3600 
Q 1222 3659 1462 3798 
Q 1703 3938 1822 4456 
L 2266 4456 
L 2266 0 
L 1666 0 
L 1666 3169 
L 613 3169 
z
" transform="scale(0.015625)"/>
       </defs>
       <use xlink:href="#Helvetica-31"/>
       <use xlink:href="#Helvetica-30" x="55.615234"/>
       <use xlink:href="#Helvetica-30" x="111.230469"/>
      </g>
     </g>
    </g>
   </g>
   <g id="matplotlib.axis_2">
    <g id="ytick_1">
     <g id="line2d_22">
      <defs>
       <path id="me6b3449eae" d="M 0 0 
L 3.5 0 
" style="stroke: #000000; stroke-width: 0.8"/>
      </defs>
      <g>
       <use xlink:href="#me6b3449eae" x="36.72" y="105.336" style="stroke: #000000; stroke-width: 0.8"/>
      </g>
     </g>
     <g id="text_3">
      <!-- 0 -->
      <g transform="translate(26.546875 109.640062) scale(0.12 -0.12)">
       <use xlink:href="#Helvetica-30"/>
      </g>
     </g>
    </g>
    <g id="ytick_2">
     <g id="line2d_23">
      <g>
       <use xlink:href="#me6b3449eae" x="36.72" y="59.876308" style="stroke: #000000; stroke-width: 0.8"/>
      </g>
     </g>
     <g id="text_4">
      <!-- 6 -->
      <g transform="translate(26.546875 64.18037) scale(0.12 -0.12)">
       <defs>
        <path id="Helvetica-36" d="M 1872 4494 
Q 2622 4494 2917 4105 
Q 3213 3716 3213 3303 
L 2656 3303 
Q 2606 3569 2497 3719 
Q 2294 4000 1881 4000 
Q 1409 4000 1131 3564 
Q 853 3128 822 2316 
Q 1016 2600 1309 2741 
Q 1578 2866 1909 2866 
Q 2472 2866 2890 2506 
Q 3309 2147 3309 1434 
Q 3309 825 2912 354 
Q 2516 -116 1781 -116 
Q 1153 -116 697 361 
Q 241 838 241 1966 
Q 241 2800 444 3381 
Q 834 4494 1872 4494 
z
M 1831 384 
Q 2275 384 2495 682 
Q 2716 981 2716 1388 
Q 2716 1731 2519 2042 
Q 2322 2353 1803 2353 
Q 1441 2353 1167 2112 
Q 894 1872 894 1388 
Q 894 963 1142 673 
Q 1391 384 1831 384 
z
" transform="scale(0.015625)"/>
       </defs>
       <use xlink:href="#Helvetica-36"/>
      </g>
     </g>
    </g>
    <g id="ytick_3">
     <g id="line2d_24">
      <g>
       <use xlink:href="#me6b3449eae" x="36.72" y="14.416615" style="stroke: #000000; stroke-width: 0.8"/>
      </g>
     </g>
     <g id="text_5">
      <!-- 12 -->
      <g transform="translate(19.87375 18.720678) scale(0.12 -0.12)">
       <defs>
        <path id="Helvetica-32" d="M 200 0 
Q 231 578 439 1006 
Q 647 1434 1250 1784 
L 1850 2131 
Q 2253 2366 2416 2531 
Q 2672 2791 2672 3125 
Q 2672 3516 2437 3745 
Q 2203 3975 1813 3975 
Q 1234 3975 1013 3538 
Q 894 3303 881 2888 
L 309 2888 
Q 319 3472 525 3841 
Q 891 4491 1816 4491 
Q 2584 4491 2939 4075 
Q 3294 3659 3294 3150 
Q 3294 2613 2916 2231 
Q 2697 2009 2131 1694 
L 1703 1456 
Q 1397 1288 1222 1134 
Q 909 863 828 531 
L 3272 531 
L 3272 0 
L 200 0 
z
" transform="scale(0.015625)"/>
       </defs>
       <use xlink:href="#Helvetica-31"/>
       <use xlink:href="#Helvetica-32" x="55.615234"/>
      </g>
     </g>
    </g>
   </g>
   <g id="PathCollection_7">
    <defs>
     <path id="m4be46c4e97" d="M 0 5 
C 1.326016 5 2.597899 4.473168 3.535534 3.535534 
C 4.473168 2.597899 5 1.326016 5 0 
C 5 -1.326016 4.473168 -2.597899 3.535534 -3.535534 
C 2.597899 -4.473168 1.326016 -5 0 -5 
C -1.326016 -5 -2.597899 -4.473168 -3.535534 -3.535534 
C -4.473168 -2.597899 -5 -1.326016 -5 0 
C -5 1.326016 -4.473168 2.597899 -3.535534 3.535534 
C -2.597899 4.473168 -1.326016 5 0 5 
z
" style="stroke: #000000"/>
    </defs>
    <g clip-path="url(#p5eb94eb0ff)">
     <use xlink:href="#m4be46c4e97" x="123.301895" y="69.803872" style="fill: #8da0cb; stroke: #000000"/>
    </g>
   </g>
   <g id="LineCollection_7">
    <path d="M 123.301895 74.875092 
L 123.301895 64.732653 
" clip-path="url(#p5eb94eb0ff)" style="fill: none; stroke: #000000"/>
   </g>
   <g id="line2d_25">
    <g clip-path="url(#p5eb94eb0ff)">
     <use xlink:href="#m8ff705613c" x="123.301895" y="74.875092" style="stroke: #000000"/>
    </g>
   </g>
   <g id="line2d_26">
    <g clip-path="url(#p5eb94eb0ff)">
     <use xlink:href="#m8ff705613c" x="123.301895" y="64.732653" style="stroke: #000000"/>
    </g>
   </g>
   <g id="PathCollection_8">
    <g clip-path="url(#p5eb94eb0ff)">
     <use xlink:href="#m4be46c4e97" x="123.301895" y="67.295939" style="fill: #8da0cb; stroke: #000000"/>
    </g>
   </g>
   <g id="LineCollection_8">
    <path d="M 123.301895 73.810673 
L 123.301895 60.781205 
" clip-path="url(#p5eb94eb0ff)" style="fill: none; stroke: #000000"/>
   </g>
   <g id="line2d_27">
    <g clip-path="url(#p5eb94eb0ff)">
     <use xlink:href="#m8ff705613c" x="123.301895" y="73.810673" style="stroke: #000000"/>
    </g>
   </g>
   <g id="line2d_28">
    <g clip-path="url(#p5eb94eb0ff)">
     <use xlink:href="#m8ff705613c" x="123.301895" y="60.781205" style="stroke: #000000"/>
    </g>
   </g>
   <g id="PathCollection_9">
    <g clip-path="url(#p5eb94eb0ff)">
     <use xlink:href="#m4be46c4e97" x="123.301895" y="72.343677" style="fill: #8da0cb; stroke: #000000"/>
    </g>
   </g>
   <g id="LineCollection_9">
    <path d="M 123.301895 74.471379 
L 123.301895 70.215976 
" clip-path="url(#p5eb94eb0ff)" style="fill: none; stroke: #000000"/>
   </g>
   <g id="line2d_29">
    <g clip-path="url(#p5eb94eb0ff)">
     <use xlink:href="#m8ff705613c" x="123.301895" y="74.471379" style="stroke: #000000"/>
    </g>
   </g>
   <g id="line2d_30">
    <g clip-path="url(#p5eb94eb0ff)">
     <use xlink:href="#m8ff705613c" x="123.301895" y="70.215976" style="stroke: #000000"/>
    </g>
   </g>
   <g id="line2d_31">
    <path d="M 123.301895 69.803872 
" clip-path="url(#p5eb94eb0ff)" style="fill: none"/>
   </g>
   <g id="line2d_32">
    <path d="M 123.301895 67.295939 
" clip-path="url(#p5eb94eb0ff)" style="fill: none"/>
   </g>
   <g id="line2d_33">
    <path d="M 123.301895 72.343677 
" clip-path="url(#p5eb94eb0ff)" style="fill: none"/>
   </g>
   <g id="patch_3">
    <path d="M 36.72 105.336 
L 36.72 6.84 
" style="fill: none; stroke: #000000; stroke-width: 0.8; stroke-linejoin: miter; stroke-linecap: square"/>
   </g>
   <g id="patch_4">
    <path d="M 139.536 105.336 
L 139.536 6.84 
" style="fill: none; stroke: #000000; stroke-width: 0.8; stroke-linejoin: miter; stroke-linecap: square"/>
   </g>
   <g id="patch_5">
    <path d="M 36.72 105.336 
L 139.536 105.336 
" style="fill: none; stroke: #000000; stroke-width: 0.8; stroke-linejoin: miter; stroke-linecap: square"/>
   </g>
   <g id="patch_6">
    <path d="M 36.72 6.84 
L 139.536 6.84 
" style="fill: none; stroke: #000000; stroke-width: 0.8; stroke-linejoin: miter; stroke-linecap: square"/>
   </g>
   <g id="PathCollection_10">
    <defs>
     <path id="mef6b1bb312" d="M 0 5 
C 1.326016 5 2.597899 4.473168 3.535534 3.535534 
C 4.473168 2.597899 5 1.326016 5 0 
C 5 -1.326016 4.473168 -2.597899 3.535534 -3.535534 
C 2.597899 -4.473168 1.326016 -5 0 -5 
C -1.326016 -5 -2.597899 -4.473168 -3.535534 -3.535534 
C -4.473168 -2.597899 -5 -1.326016 -5 0 
C -5 1.326016 -4.473168 2.597899 -3.535534 3.535534 
C -2.597899 4.473168 -1.326016 5 0 5 
z
" style="stroke: #000000"/>
    </defs>
    <g clip-path="url(#p5eb94eb0ff)">
     <use xlink:href="#mef6b1bb312" x="80.010947" y="94.861054" style="fill: #e78ac3; stroke: #000000"/>
    </g>
   </g>
   <g id="LineCollection_10">
    <path d="M 80.010947 96.425999 
L 80.010947 93.29611 
" clip-path="url(#p5eb94eb0ff)" style="fill: none; stroke: #000000"/>
   </g>
   <g id="line2d_34">
    <g clip-path="url(#p5eb94eb0ff)">
     <use xlink:href="#m8ff705613c" x="80.010947" y="96.425999" style="stroke: #000000"/>
    </g>
   </g>
   <g id="line2d_35">
    <g clip-path="url(#p5eb94eb0ff)">
     <use xlink:href="#m8ff705613c" x="80.010947" y="93.29611" style="stroke: #000000"/>
    </g>
   </g>
   <g id="PathCollection_11">
    <g clip-path="url(#p5eb94eb0ff)">
     <use xlink:href="#mef6b1bb312" x="80.010947" y="80.742127" style="fill: #e78ac3; stroke: #000000"/>
    </g>
   </g>
   <g id="LineCollection_11">
    <path d="M 80.010947 84.816681 
L 80.010947 76.667574 
" clip-path="url(#p5eb94eb0ff)" style="fill: none; stroke: #000000"/>
   </g>
   <g id="line2d_36">
    <g clip-path="url(#p5eb94eb0ff)">
     <use xlink:href="#m8ff705613c" x="80.010947" y="84.816681" style="stroke: #000000"/>
    </g>
   </g>
   <g id="line2d_37">
    <g clip-path="url(#p5eb94eb0ff)">
     <use xlink:href="#m8ff705613c" x="80.010947" y="76.667574" style="stroke: #000000"/>
    </g>
   </g>
   <g id="PathCollection_12">
    <g clip-path="url(#p5eb94eb0ff)">
     <use xlink:href="#mef6b1bb312" x="80.010947" y="89.075737" style="fill: #e78ac3; stroke: #000000"/>
    </g>
   </g>
   <g id="LineCollection_12">
    <path d="M 80.010947 90.111229 
L 80.010947 88.040246 
" clip-path="url(#p5eb94eb0ff)" style="fill: none; stroke: #000000"/>
   </g>
   <g id="line2d_38">
    <g clip-path="url(#p5eb94eb0ff)">
     <use xlink:href="#m8ff705613c" x="80.010947" y="90.111229" style="stroke: #000000"/>
    </g>
   </g>
   <g id="line2d_39">
    <g clip-path="url(#p5eb94eb0ff)">
     <use xlink:href="#m8ff705613c" x="80.010947" y="88.040246" style="stroke: #000000"/>
    </g>
   </g>
   <g id="text_6">
    <!-- DA28102 -->
    <g transform="translate(47.0016 26.015069) scale(0.13 -0.13)">
     <defs>
      <path id="Helvetica-44" d="M 2250 531 
Q 2566 531 2769 597 
Q 3131 719 3363 1066 
Q 3547 1344 3628 1778 
Q 3675 2038 3675 2259 
Q 3675 3113 3336 3584 
Q 2997 4056 2244 4056 
L 1141 4056 
L 1141 531 
L 2250 531 
z
M 516 4591 
L 2375 4591 
Q 3322 4591 3844 3919 
Q 4309 3313 4309 2366 
Q 4309 1634 4034 1044 
Q 3550 0 2369 0 
L 516 0 
L 516 4591 
z
" transform="scale(0.015625)"/>
      <path id="Helvetica-41" d="M 2844 1881 
L 2147 3909 
L 1406 1881 
L 2844 1881 
z
M 1822 4591 
L 2525 4591 
L 4191 0 
L 3509 0 
L 3044 1375 
L 1228 1375 
L 731 0 
L 94 0 
L 1822 4591 
z
" transform="scale(0.015625)"/>
      <path id="Helvetica-38" d="M 1741 2600 
Q 2113 2600 2322 2808 
Q 2531 3016 2531 3303 
Q 2531 3553 2331 3762 
Q 2131 3972 1722 3972 
Q 1316 3972 1134 3762 
Q 953 3553 953 3272 
Q 953 2956 1187 2778 
Q 1422 2600 1741 2600 
z
M 1775 384 
Q 2166 384 2423 595 
Q 2681 806 2681 1225 
Q 2681 1659 2415 1884 
Q 2150 2109 1734 2109 
Q 1331 2109 1076 1879 
Q 822 1650 822 1244 
Q 822 894 1055 639 
Q 1288 384 1775 384 
z
M 975 2384 
Q 741 2484 609 2619 
Q 363 2869 363 3269 
Q 363 3769 725 4128 
Q 1088 4488 1753 4488 
Q 2397 4488 2762 4148 
Q 3128 3809 3128 3356 
Q 3128 2938 2916 2678 
Q 2797 2531 2547 2391 
Q 2825 2263 2984 2097 
Q 3281 1784 3281 1284 
Q 3281 694 2884 283 
Q 2488 -128 1763 -128 
Q 1109 -128 657 226 
Q 206 581 206 1256 
Q 206 1653 400 1942 
Q 594 2231 975 2384 
z
" transform="scale(0.015625)"/>
     </defs>
     <use xlink:href="#Helvetica-44"/>
     <use xlink:href="#Helvetica-41" x="72.216797"/>
     <use xlink:href="#Helvetica-32" x="138.916016"/>
     <use xlink:href="#Helvetica-38" x="194.53125"/>
     <use xlink:href="#Helvetica-31" x="250.146484"/>
     <use xlink:href="#Helvetica-30" x="305.761719"/>
     <use xlink:href="#Helvetica-32" x="361.376953"/>
    </g>
    <!-- pCU1 -->
    <g transform="translate(47.0016 40.220006) scale(0.13 -0.13)">
     <defs>
      <path id="Helvetica-70" d="M 1825 378 
Q 2219 378 2480 708 
Q 2741 1038 2741 1694 
Q 2741 2094 2625 2381 
Q 2406 2934 1825 2934 
Q 1241 2934 1025 2350 
Q 909 2038 909 1556 
Q 909 1169 1025 897 
Q 1244 378 1825 378 
z
M 369 3331 
L 916 3331 
L 916 2888 
Q 1084 3116 1284 3241 
Q 1569 3428 1953 3428 
Q 2522 3428 2919 2992 
Q 3316 2556 3316 1747 
Q 3316 653 2744 184 
Q 2381 -113 1900 -113 
Q 1522 -113 1266 53 
Q 1116 147 931 375 
L 931 -1334 
L 369 -1334 
L 369 3331 
z
" transform="scale(0.015625)"/>
      <path id="Helvetica-43" d="M 2422 4716 
Q 3294 4716 3775 4256 
Q 4256 3797 4309 3213 
L 3703 3213 
Q 3600 3656 3292 3915 
Q 2984 4175 2428 4175 
Q 1750 4175 1333 3698 
Q 916 3222 916 2238 
Q 916 1431 1292 929 
Q 1669 428 2416 428 
Q 3103 428 3463 956 
Q 3653 1234 3747 1688 
L 4353 1688 
Q 4272 963 3816 472 
Q 3269 -119 2341 -119 
Q 1541 -119 997 366 
Q 281 1006 281 2344 
Q 281 3359 819 4009 
Q 1400 4716 2422 4716 
z
M 2297 4716 
L 2297 4716 
z
" transform="scale(0.015625)"/>
      <path id="Helvetica-55" d="M 1163 4591 
L 1163 1753 
Q 1163 1253 1350 922 
Q 1628 422 2288 422 
Q 3078 422 3363 963 
Q 3516 1256 3516 1753 
L 3516 4591 
L 4147 4591 
L 4147 2013 
Q 4147 1166 3919 709 
Q 3500 -122 2338 -122 
Q 1175 -122 759 709 
Q 531 1166 531 2013 
L 531 4591 
L 1163 4591 
z
M 2341 4591 
L 2341 4591 
z
" transform="scale(0.015625)"/>
     </defs>
     <use xlink:href="#Helvetica-70"/>
     <use xlink:href="#Helvetica-43" x="55.615234"/>
     <use xlink:href="#Helvetica-55" x="127.832031"/>
     <use xlink:href="#Helvetica-31" x="200.048828"/>
    </g>
   </g>
   <g id="line2d_40">
    <path d="M 80.010947 94.861054 
" clip-path="url(#p5eb94eb0ff)" style="fill: none"/>
   </g>
   <g id="line2d_41">
    <path d="M 80.010947 80.742127 
" clip-path="url(#p5eb94eb0ff)" style="fill: none"/>
   </g>
   <g id="line2d_42">
    <path d="M 80.010947 89.075737 
" clip-path="url(#p5eb94eb0ff)" style="fill: none"/>
   </g>
   <g id="PathCollection_13">
    <defs>
     <path id="ma0d2700ee5" d="M 0 5 
C 1.326016 5 2.597899 4.473168 3.535534 3.535534 
C 4.473168 2.597899 5 1.326016 5 0 
C 5 -1.326016 4.473168 -2.597899 3.535534 -3.535534 
C 2.597899 -4.473168 1.326016 -5 0 -5 
C -1.326016 -5 -2.597899 -4.473168 -3.535534 -3.535534 
C -4.473168 -2.597899 -5 -1.326016 -5 0 
C -5 1.326016 -4.473168 2.597899 -3.535534 3.535534 
C -2.597899 4.473168 -1.326016 5 0 5 
z
" style="stroke: #000000"/>
    </defs>
    <g clip-path="url(#p5eb94eb0ff)">
     <use xlink:href="#ma0d2700ee5" x="47.542737" y="94.58339" style="fill: #a6d854; stroke: #000000"/>
    </g>
   </g>
   <g id="LineCollection_13">
    <path d="M 47.542737 95.580633 
L 47.542737 93.586146 
" clip-path="url(#p5eb94eb0ff)" style="fill: none; stroke: #000000"/>
   </g>
   <g id="line2d_43">
    <g clip-path="url(#p5eb94eb0ff)">
     <use xlink:href="#m8ff705613c" x="47.542737" y="95.580633" style="stroke: #000000"/>
    </g>
   </g>
   <g id="line2d_44">
    <g clip-path="url(#p5eb94eb0ff)">
     <use xlink:href="#m8ff705613c" x="47.542737" y="93.586146" style="stroke: #000000"/>
    </g>
   </g>
   <g id="PathCollection_14">
    <g clip-path="url(#p5eb94eb0ff)">
     <use xlink:href="#ma0d2700ee5" x="47.542737" y="90.817677" style="fill: #a6d854; stroke: #000000"/>
    </g>
   </g>
   <g id="LineCollection_14">
    <path d="M 47.542737 92.731113 
L 47.542737 88.90424 
" clip-path="url(#p5eb94eb0ff)" style="fill: none; stroke: #000000"/>
   </g>
   <g id="line2d_45">
    <g clip-path="url(#p5eb94eb0ff)">
     <use xlink:href="#m8ff705613c" x="47.542737" y="92.731113" style="stroke: #000000"/>
    </g>
   </g>
   <g id="line2d_46">
    <g clip-path="url(#p5eb94eb0ff)">
     <use xlink:href="#m8ff705613c" x="47.542737" y="88.90424" style="stroke: #000000"/>
    </g>
   </g>
   <g id="PathCollection_15">
    <g clip-path="url(#p5eb94eb0ff)">
     <use xlink:href="#ma0d2700ee5" x="47.542737" y="93.971077" style="fill: #a6d854; stroke: #000000"/>
    </g>
   </g>
   <g id="LineCollection_15">
    <path d="M 47.542737 95.83285 
L 47.542737 92.109304 
" clip-path="url(#p5eb94eb0ff)" style="fill: none; stroke: #000000"/>
   </g>
   <g id="line2d_47">
    <g clip-path="url(#p5eb94eb0ff)">
     <use xlink:href="#m8ff705613c" x="47.542737" y="95.83285" style="stroke: #000000"/>
    </g>
   </g>
   <g id="line2d_48">
    <g clip-path="url(#p5eb94eb0ff)">
     <use xlink:href="#m8ff705613c" x="47.542737" y="92.109304" style="stroke: #000000"/>
    </g>
   </g>
   <g id="line2d_49">
    <path d="M 47.542737 94.58339 
" clip-path="url(#p5eb94eb0ff)" style="fill: none"/>
   </g>
   <g id="line2d_50">
    <path d="M 47.542737 90.817677 
" clip-path="url(#p5eb94eb0ff)" style="fill: none"/>
   </g>
   <g id="line2d_51">
    <path d="M 47.542737 93.971077 
" clip-path="url(#p5eb94eb0ff)" style="fill: none"/>
   </g>
  </g>
 </g>
 <defs>
  <clipPath id="p5eb94eb0ff">
   <rect x="36.72" y="6.84" width="102.816" height="98.496"/>
  </clipPath>
 </defs>
</svg>
