<?xml version="1.0" encoding="utf-8" standalone="no"?>
<!DOCTYPE svg PUBLIC "-//W3C//DTD SVG 1.1//EN"
  "http://www.w3.org/Graphics/SVG/1.1/DTD/svg11.dtd">
<svg xmlns:xlink="http://www.w3.org/1999/xlink" width="194.4pt" height="182.88pt" viewBox="0 0 194.4 182.88" xmlns="http://www.w3.org/2000/svg" version="1.1">
 <metadata>
  <rdf:RDF xmlns:dc="http://purl.org/dc/elements/1.1/" xmlns:cc="http://creativecommons.org/ns#" xmlns:rdf="http://www.w3.org/1999/02/22-rdf-syntax-ns#">
   <cc:Work>
    <dc:type rdf:resource="http://purl.org/dc/dcmitype/StillImage"/>
    <dc:date>2025-07-31T15:52:19.655001</dc:date>
    <dc:format>image/svg+xml</dc:format>
    <dc:creator>
     <cc:Agent>
      <dc:title>Matplotlib v3.7.5, https://matplotlib.org/</dc:title>
     </cc:Agent>
    </dc:creator>
   </cc:Work>
  </rdf:RDF>
 </metadata>
 <defs>
  <style type="text/css">*{stroke-linejoin: round; stroke-linecap: butt}</style>
 </defs>
 <g id="figure_1">
  <g id="patch_1">
   <path d="M 0 182.88 
L 194.4 182.88 
L 194.4 0 
L 0 0 
z
" style="fill: #ffffff"/>
  </g>
  <g id="axes_1">
   <g id="patch_2">
    <path d="M 48.6 146.304 
L 184.68 146.304 
L 184.68 9.144 
L 48.6 9.144 
z
" style="fill: #ffffff"/>
   </g>
   <g id="PathCollection_1">
    <defs>
     <path id="C0_0_20631b07b2" d="M 0 3.872983 
C 1.027127 3.872983 2.012324 3.464901 2.738613 2.738613 
C 3.464901 2.012324 3.872983 1.027127 3.872983 -0 
C 3.872983 -1.027127 3.464901 -2.012324 2.738613 -2.738613 
C 2.012324 -3.464901 1.027127 -3.872983 0 -3.872983 
C -1.027127 -3.872983 -2.012324 -3.464901 -2.738613 -2.738613 
C -3.464901 -2.012324 -3.872983 -1.027127 -3.872983 0 
C -3.872983 1.027127 -3.464901 2.012324 -2.738613 2.738613 
C -2.012324 3.464901 -1.027127 3.872983 0 3.872983 
z
"/>
    </defs>
    <use xlink:href="#C0_0_20631b07b2" x="177.517895" y="24.008402" style="fill: #0072bd; stroke: #0072bd"/>
    <use xlink:href="#C0_0_20631b07b2" x="177.517895" y="22.828523" style="fill: #0072bd; stroke: #0072bd"/>
    <use xlink:href="#C0_0_20631b07b2" x="177.517895" y="17.648039" style="fill: #0072bd; stroke: #0072bd"/>
    <use xlink:href="#C0_0_20631b07b2" x="176.085474" y="61.841228" style="fill: #d95319; stroke: #d95319"/>
    <use xlink:href="#C0_0_20631b07b2" x="176.085474" y="55.406797" style="fill: #d95319; stroke: #d95319"/>
    <use xlink:href="#C0_0_20631b07b2" x="176.085474" y="54.13843" style="fill: #d95319; stroke: #d95319"/>
    <use xlink:href="#C0_0_20631b07b2" x="163.193684" y="99.097584" style="fill: #edb120; stroke: #edb120"/>
    <use xlink:href="#C0_0_20631b07b2" x="163.193684" y="100.906042" style="fill: #edb120; stroke: #edb120"/>
    <use xlink:href="#C0_0_20631b07b2" x="163.193684" y="87.55687" style="fill: #edb120; stroke: #edb120"/>
    <use xlink:href="#C0_0_20631b07b2" x="105.896842" y="123.338764" style="fill: #7e2f8e; stroke: #7e2f8e"/>
    <use xlink:href="#C0_0_20631b07b2" x="105.896842" y="119.677506" style="fill: #7e2f8e; stroke: #7e2f8e"/>
    <use xlink:href="#C0_0_20631b07b2" x="105.896842" y="120.466408" style="fill: #7e2f8e; stroke: #7e2f8e"/>
    <use xlink:href="#C0_0_20631b07b2" x="62.924211" y="119.177555" style="fill: #77ac30; stroke: #77ac30"/>
    <use xlink:href="#C0_0_20631b07b2" x="62.924211" y="126.791708" style="fill: #77ac30; stroke: #77ac30"/>
    <use xlink:href="#C0_0_20631b07b2" x="62.924211" y="126.224301" style="fill: #77ac30; stroke: #77ac30"/>
   </g>
   <g id="matplotlib.axis_1">
    <g id="xtick_1">
     <g id="line2d_1">
      <defs>
       <path id="m10d2d65392" d="M 0 0 
L 0 -3.5 
" style="stroke: #000000; stroke-width: 0.8"/>
      </defs>
      <g>
       <use xlink:href="#m10d2d65392" x="105.896842" y="146.304" style="stroke: #000000; stroke-width: 0.8"/>
      </g>
     </g>
     <g id="text_1">
      <!-- 50 -->
      <g transform="translate(99.223717 158.412125) scale(0.12 -0.12)">
       <defs>
        <path id="Helvetica-35" d="M 791 1141 
Q 847 659 1238 475 
Q 1438 381 1700 381 
Q 2200 381 2440 700 
Q 2681 1019 2681 1406 
Q 2681 1875 2395 2131 
Q 2109 2388 1709 2388 
Q 1419 2388 1211 2275 
Q 1003 2163 856 1963 
L 369 1991 
L 709 4400 
L 3034 4400 
L 3034 3856 
L 1131 3856 
L 941 2613 
Q 1097 2731 1238 2791 
Q 1488 2894 1816 2894 
Q 2431 2894 2859 2497 
Q 3288 2100 3288 1491 
Q 3288 856 2895 371 
Q 2503 -113 1644 -113 
Q 1097 -113 676 195 
Q 256 503 206 1141 
L 791 1141 
z
" transform="scale(0.015625)"/>
        <path id="Helvetica-30" d="M 1731 4475 
Q 2600 4475 2988 3759 
Q 3288 3206 3288 2244 
Q 3288 1331 3016 734 
Q 2622 -122 1728 -122 
Q 922 -122 528 578 
Q 200 1163 200 2147 
Q 200 2909 397 3456 
Q 766 4475 1731 4475 
z
M 1725 391 
Q 2163 391 2422 778 
Q 2681 1166 2681 2222 
Q 2681 2984 2493 3476 
Q 2306 3969 1766 3969 
Q 1269 3969 1039 3501 
Q 809 3034 809 2125 
Q 809 1441 956 1025 
Q 1181 391 1725 391 
z
" transform="scale(0.015625)"/>
       </defs>
       <use xlink:href="#Helvetica-35"/>
       <use xlink:href="#Helvetica-30" x="55.615234"/>
      </g>
     </g>
    </g>
    <g id="xtick_2">
     <g id="line2d_2">
      <g>
       <use xlink:href="#m10d2d65392" x="177.517895" y="146.304" style="stroke: #000000; stroke-width: 0.8"/>
      </g>
     </g>
     <g id="text_2">
      <!-- 100 -->
      <g transform="translate(167.508207 158.412125) scale(0.12 -0.12)">
       <defs>
        <path id="Helvetica-31" d="M 613 3169 
L 613 3600 
Q 1222 3659 1462 3798 
Q 1703 3938 1822 4456 
L 2266 4456 
L 2266 0 
L 1666 0 
L 1666 3169 
L 613 3169 
z
" transform="scale(0.015625)"/>
       </defs>
       <use xlink:href="#Helvetica-31"/>
       <use xlink:href="#Helvetica-30" x="55.615234"/>
       <use xlink:href="#Helvetica-30" x="111.230469"/>
      </g>
     </g>
    </g>
    <g id="text_3">
     <!-- P$_0$% -->
     <g transform="translate(104.7 173.5215) scale(0.12 -0.12)">
      <defs>
       <path id="Helvetica-50" d="M 547 4591 
L 2613 4591 
Q 3225 4591 3600 4245 
Q 3975 3900 3975 3275 
Q 3975 2738 3640 2339 
Q 3306 1941 2613 1941 
L 1169 1941 
L 1169 0 
L 547 0 
L 547 4591 
z
M 3347 3272 
Q 3347 3778 2972 3959 
Q 2766 4056 2406 4056 
L 1169 4056 
L 1169 2466 
L 2406 2466 
Q 2825 2466 3086 2644 
Q 3347 2822 3347 3272 
z
" transform="scale(0.015625)"/>
       <path id="Helvetica-25" d="M 4363 2175 
Q 4813 2175 5131 1856 
Q 5450 1538 5450 1088 
Q 5450 638 5131 319 
Q 4813 0 4363 0 
Q 3909 0 3590 319 
Q 3272 638 3272 1088 
Q 3272 1538 3590 1856 
Q 3909 2175 4363 2175 
z
M 3909 4456 
L 4256 4456 
L 1753 -119 
L 1406 -119 
L 3909 4456 
z
M 1294 2606 
Q 1563 2606 1752 2795 
Q 1941 2984 1941 3250 
Q 1941 3516 1752 3705 
Q 1563 3894 1294 3894 
Q 1028 3894 839 3706 
Q 650 3519 650 3250 
Q 650 2984 839 2795 
Q 1028 2606 1294 2606 
z
M 1294 4341 
Q 1747 4341 2065 4020 
Q 2384 3700 2384 3250 
Q 2384 2800 2065 2481 
Q 1747 2163 1294 2163 
Q 844 2163 525 2481 
Q 206 2800 206 3250 
Q 206 3700 525 4020 
Q 844 4341 1294 4341 
z
M 4363 444 
Q 4628 444 4817 633 
Q 5006 822 5006 1088 
Q 5006 1353 4817 1542 
Q 4628 1731 4363 1731 
Q 4094 1731 3905 1542 
Q 3716 1353 3716 1088 
Q 3716 822 3905 633 
Q 4094 444 4363 444 
z
" transform="scale(0.015625)"/>
      </defs>
      <use xlink:href="#Helvetica-50" transform="translate(0 0.265625)"/>
      <use xlink:href="#Helvetica-30" transform="translate(67.614414 -15.423438) scale(0.7)"/>
      <use xlink:href="#Helvetica-25" transform="translate(109.159922 0.265625)"/>
     </g>
    </g>
   </g>
   <g id="matplotlib.axis_2">
    <g id="ytick_1">
     <g id="line2d_3">
      <defs>
       <path id="m3deaff9657" d="M 0 0 
L 3.5 0 
" style="stroke: #000000; stroke-width: 0.8"/>
      </defs>
      <g>
       <use xlink:href="#m3deaff9657" x="48.6" y="146.304" style="stroke: #000000; stroke-width: 0.8"/>
      </g>
     </g>
     <g id="text_4">
      <!-- 0 -->
      <g transform="translate(38.426875 150.608063) scale(0.12 -0.12)">
       <use xlink:href="#Helvetica-30"/>
      </g>
     </g>
    </g>
    <g id="ytick_2">
     <g id="line2d_4">
      <g>
       <use xlink:href="#m3deaff9657" x="48.6" y="86.669217" style="stroke: #000000; stroke-width: 0.8"/>
      </g>
     </g>
     <g id="text_5">
      <!-- 2 -->
      <g transform="translate(38.426875 90.97328) scale(0.12 -0.12)">
       <defs>
        <path id="Helvetica-32" d="M 200 0 
Q 231 578 439 1006 
Q 647 1434 1250 1784 
L 1850 2131 
Q 2253 2366 2416 2531 
Q 2672 2791 2672 3125 
Q 2672 3516 2437 3745 
Q 2203 3975 1813 3975 
Q 1234 3975 1013 3538 
Q 894 3303 881 2888 
L 309 2888 
Q 319 3472 525 3841 
Q 891 4491 1816 4491 
Q 2584 4491 2939 4075 
Q 3294 3659 3294 3150 
Q 3294 2613 2916 2231 
Q 2697 2009 2131 1694 
L 1703 1456 
Q 1397 1288 1222 1134 
Q 909 863 828 531 
L 3272 531 
L 3272 0 
L 200 0 
z
" transform="scale(0.015625)"/>
       </defs>
       <use xlink:href="#Helvetica-32"/>
      </g>
     </g>
    </g>
    <g id="ytick_3">
     <g id="line2d_5">
      <g>
       <use xlink:href="#m3deaff9657" x="48.6" y="27.034435" style="stroke: #000000; stroke-width: 0.8"/>
      </g>
     </g>
     <g id="text_6">
      <!-- 4 -->
      <g transform="translate(38.426875 31.338497) scale(0.12 -0.12)">
       <defs>
        <path id="Helvetica-34" d="M 2116 1584 
L 2116 3613 
L 681 1584 
L 2116 1584 
z
M 2125 0 
L 2125 1094 
L 163 1094 
L 163 1644 
L 2213 4488 
L 2688 4488 
L 2688 1584 
L 3347 1584 
L 3347 1094 
L 2688 1094 
L 2688 0 
L 2125 0 
z
" transform="scale(0.015625)"/>
       </defs>
       <use xlink:href="#Helvetica-34"/>
      </g>
     </g>
    </g>
    <g id="text_7">
     <!-- $\tau_{1/2}$ (days) -->
     <g transform="translate(31.786875 105.144) rotate(-90) scale(0.12 -0.12)">
      <defs>
       <path id="Helvetica-3c4" d="M 184 3328 
L 3016 3328 
L 3016 2828 
L 1888 2828 
L 1888 775 
Q 1881 428 2125 434 
Q 2291 434 2394 466 
L 2394 -31 
Q 2253 -63 1925 -63 
Q 1728 -63 1606 6 
Q 1484 63 1422 172 
Q 1356 288 1338 434 
Q 1313 575 1313 750 
L 1313 2828 
L 184 2828 
L 184 3328 
z
" transform="scale(0.015625)"/>
       <path id="Helvetica-2f" d="M 1456 4591 
L 1931 4591 
L 475 0 
L 0 0 
L 1456 4591 
z
" transform="scale(0.015625)"/>
       <path id="Helvetica-20" transform="scale(0.015625)"/>
       <path id="Helvetica-28" d="M 1894 4666 
Q 1403 3713 1256 3263 
Q 1034 2578 1034 1681 
Q 1034 775 1288 25 
Q 1444 -438 1903 -1306 
L 1525 -1306 
Q 1069 -594 959 -397 
Q 850 -200 722 138 
Q 547 600 478 1125 
Q 444 1397 444 1644 
Q 444 2569 734 3291 
Q 919 3750 1503 4666 
L 1894 4666 
z
" transform="scale(0.015625)"/>
       <path id="Helvetica-64" d="M 769 1634 
Q 769 1097 997 734 
Q 1225 372 1728 372 
Q 2119 372 2370 708 
Q 2622 1044 2622 1672 
Q 2622 2306 2362 2611 
Q 2103 2916 1722 2916 
Q 1297 2916 1033 2591 
Q 769 2266 769 1634 
z
M 1616 3406 
Q 2000 3406 2259 3244 
Q 2409 3150 2600 2916 
L 2600 4606 
L 3141 4606 
L 3141 0 
L 2634 0 
L 2634 466 
Q 2438 156 2169 18 
Q 1900 -119 1553 -119 
Q 994 -119 584 351 
Q 175 822 175 1603 
Q 175 2334 548 2870 
Q 922 3406 1616 3406 
z
" transform="scale(0.015625)"/>
       <path id="Helvetica-61" d="M 844 891 
Q 844 647 1022 506 
Q 1200 366 1444 366 
Q 1741 366 2019 503 
Q 2488 731 2488 1250 
L 2488 1703 
Q 2384 1638 2221 1594 
Q 2059 1550 1903 1531 
L 1563 1488 
Q 1256 1447 1103 1359 
Q 844 1213 844 891 
z
M 2206 2028 
Q 2400 2053 2466 2191 
Q 2503 2266 2503 2406 
Q 2503 2694 2298 2823 
Q 2094 2953 1713 2953 
Q 1272 2953 1088 2716 
Q 984 2584 953 2325 
L 428 2325 
Q 444 2944 830 3186 
Q 1216 3428 1725 3428 
Q 2316 3428 2684 3203 
Q 3050 2978 3050 2503 
L 3050 575 
Q 3050 488 3086 434 
Q 3122 381 3238 381 
Q 3275 381 3322 386 
Q 3369 391 3422 400 
L 3422 -16 
Q 3291 -53 3222 -62 
Q 3153 -72 3034 -72 
Q 2744 -72 2613 134 
Q 2544 244 2516 444 
Q 2344 219 2022 53 
Q 1700 -113 1313 -113 
Q 847 -113 551 170 
Q 256 453 256 878 
Q 256 1344 547 1600 
Q 838 1856 1309 1916 
L 2206 2028 
z
M 1741 3428 
L 1741 3428 
z
" transform="scale(0.015625)"/>
       <path id="Helvetica-79" d="M 2503 3347 
L 3125 3347 
Q 3006 3025 2597 1878 
Q 2291 1016 2084 472 
Q 1597 -809 1397 -1090 
Q 1197 -1372 709 -1372 
Q 591 -1372 527 -1362 
Q 463 -1353 369 -1328 
L 369 -816 
Q 516 -856 581 -865 
Q 647 -875 697 -875 
Q 853 -875 926 -823 
Q 1000 -772 1050 -697 
Q 1066 -672 1162 -440 
Q 1259 -209 1303 -97 
L 66 3347 
L 703 3347 
L 1600 622 
L 2503 3347 
z
M 1597 3428 
L 1597 3428 
z
" transform="scale(0.015625)"/>
       <path id="Helvetica-73" d="M 747 1050 
Q 772 769 888 619 
Q 1100 347 1625 347 
Q 1938 347 2175 483 
Q 2413 619 2413 903 
Q 2413 1119 2222 1231 
Q 2100 1300 1741 1391 
L 1294 1503 
Q 866 1609 663 1741 
Q 300 1969 300 2372 
Q 300 2847 642 3140 
Q 984 3434 1563 3434 
Q 2319 3434 2653 2991 
Q 2863 2709 2856 2384 
L 2325 2384 
Q 2309 2575 2191 2731 
Q 1997 2953 1519 2953 
Q 1200 2953 1036 2831 
Q 872 2709 872 2509 
Q 872 2291 1088 2159 
Q 1213 2081 1456 2022 
L 1828 1931 
Q 2434 1784 2641 1647 
Q 2969 1431 2969 969 
Q 2969 522 2630 197 
Q 2291 -128 1597 -128 
Q 850 -128 539 211 
Q 228 550 206 1050 
L 747 1050 
z
M 1578 3428 
L 1578 3428 
z
" transform="scale(0.015625)"/>
       <path id="Helvetica-29" d="M 222 -1306 
Q 719 -338 863 106 
Q 1081 778 1081 1681 
Q 1081 2584 828 3334 
Q 672 3797 213 4666 
L 591 4666 
Q 1072 3897 1173 3717 
Q 1275 3538 1394 3222 
Q 1544 2831 1608 2450 
Q 1672 2069 1672 1716 
Q 1672 791 1378 66 
Q 1194 -400 613 -1306 
L 222 -1306 
z
" transform="scale(0.015625)"/>
      </defs>
      <use xlink:href="#Helvetica-3c4" transform="translate(0 0.09375)"/>
      <use xlink:href="#Helvetica-31" transform="translate(50.915195 -15.595313) scale(0.7)"/>
      <use xlink:href="#Helvetica-2f" transform="translate(89.845859 -15.595313) scale(0.7)"/>
      <use xlink:href="#Helvetica-32" transform="translate(109.294102 -15.595313) scale(0.7)"/>
      <use xlink:href="#Helvetica-20" transform="translate(150.839609 0.09375)"/>
      <use xlink:href="#Helvetica-28" transform="translate(178.622813 0.09375)"/>
      <use xlink:href="#Helvetica-64" transform="translate(211.923594 0.09375)"/>
      <use xlink:href="#Helvetica-61" transform="translate(267.538828 0.09375)"/>
      <use xlink:href="#Helvetica-79" transform="translate(323.154063 0.09375)"/>
      <use xlink:href="#Helvetica-73" transform="translate(373.154063 0.09375)"/>
      <use xlink:href="#Helvetica-29" transform="translate(423.154063 0.09375)"/>
     </g>
    </g>
   </g>
   <g id="line2d_6">
    <path d="M 35.708211 131.692652 
L 37.140632 131.585903 
L 38.573053 131.477517 
L 40.005474 131.367456 
L 41.437895 131.255678 
L 42.870316 131.142142 
L 44.302737 131.026803 
L 45.735158 130.909616 
L 47.167579 130.790536 
L 48.6 130.669514 
L 50.032421 130.546499 
L 51.464842 130.42144 
L 52.897263 130.294284 
L 54.329684 130.164974 
L 55.762105 130.033454 
L 57.194526 129.899662 
L 58.626947 129.763538 
L 60.059368 129.625016 
L 61.491789 129.48403 
L 62.924211 129.340509 
L 64.356632 129.194382 
L 65.789053 129.045573 
L 67.221474 128.894004 
L 68.653895 128.739593 
L 70.086316 128.582255 
L 71.518737 128.421901 
L 72.951158 128.25844 
L 74.383579 128.091775 
L 75.816 127.921804 
L 77.248421 127.748424 
L 78.680842 127.571524 
L 80.113263 127.39099 
L 81.545684 127.206701 
L 82.978105 127.018532 
L 84.410526 126.826351 
L 85.842947 126.63002 
L 87.275368 126.429394 
L 88.707789 126.224321 
L 90.140211 126.014642 
L 91.572632 125.800188 
L 93.005053 125.580783 
L 94.437474 125.356241 
L 95.869895 125.126366 
L 97.302316 124.890952 
L 98.734737 124.64978 
L 100.167158 124.40262 
L 101.599579 124.149228 
L 103.032 123.889346 
L 104.464421 123.622701 
L 105.896842 123.349003 
L 107.329263 123.067943 
L 108.761684 122.779195 
L 110.194105 122.482409 
L 111.626526 122.177215 
L 113.058947 121.863216 
L 114.491368 121.539988 
L 115.923789 121.207079 
L 117.356211 120.864002 
L 118.788632 120.510236 
L 120.221053 120.14522 
L 121.653474 119.768352 
L 123.085895 119.378981 
L 124.518316 118.976401 
L 125.950737 118.559853 
L 127.383158 118.128507 
L 128.815579 117.681466 
L 130.248 117.217749 
L 131.680421 116.736283 
L 133.112842 116.235897 
L 134.545263 115.715299 
L 135.977684 115.173068 
L 137.410105 114.607635 
L 138.842526 114.017256 
L 140.274947 113.399991 
L 141.707368 112.753675 
L 143.139789 112.075874 
L 144.572211 111.363848 
L 146.004632 110.614492 
L 147.437053 109.82427 
L 148.869474 108.989132 
L 150.301895 108.104411 
L 151.734316 107.164689 
L 153.166737 106.16363 
L 154.599158 105.093756 
L 156.031579 103.946164 
L 157.464 102.710133 
L 158.896421 101.372595 
L 160.328842 99.917402 
L 161.761263 98.324271 
L 163.193684 96.567247 
L 164.626105 94.612366 
L 166.058526 92.413985 
L 167.490947 89.908734 
L 168.923368 87.004954 
L 170.355789 83.562879 
L 171.788211 79.353696 
L 173.220632 73.962972 
L 174.653053 66.512471 
L 176.085474 54.525502 
L 177.517895 22.007629 
" clip-path="url(#p38af2b0ca9)" style="fill: none; stroke: #000000; stroke-linecap: square"/>
   </g>
   <g id="patch_3">
    <path d="M 48.6 146.304 
L 48.6 9.144 
" style="fill: none; stroke: #000000; stroke-width: 0.8; stroke-linejoin: miter; stroke-linecap: square"/>
   </g>
   <g id="patch_4">
    <path d="M 184.68 146.304 
L 184.68 9.144 
" style="fill: none; stroke: #000000; stroke-width: 0.8; stroke-linejoin: miter; stroke-linecap: square"/>
   </g>
   <g id="patch_5">
    <path d="M 48.6 146.304 
L 184.68 146.304 
" style="fill: none; stroke: #000000; stroke-width: 0.8; stroke-linejoin: miter; stroke-linecap: square"/>
   </g>
   <g id="patch_6">
    <path d="M 48.6 9.144 
L 184.68 9.144 
" style="fill: none; stroke: #000000; stroke-width: 0.8; stroke-linejoin: miter; stroke-linecap: square"/>
   </g>
   <g id="text_8">
    <!-- DA28102 -->
    <g transform="translate(62.208 30.32175) scale(0.12 -0.12)">
     <defs>
      <path id="Helvetica-44" d="M 2250 531 
Q 2566 531 2769 597 
Q 3131 719 3363 1066 
Q 3547 1344 3628 1778 
Q 3675 2038 3675 2259 
Q 3675 3113 3336 3584 
Q 2997 4056 2244 4056 
L 1141 4056 
L 1141 531 
L 2250 531 
z
M 516 4591 
L 2375 4591 
Q 3322 4591 3844 3919 
Q 4309 3313 4309 2366 
Q 4309 1634 4034 1044 
Q 3550 0 2369 0 
L 516 0 
L 516 4591 
z
" transform="scale(0.015625)"/>
      <path id="Helvetica-41" d="M 2844 1881 
L 2147 3909 
L 1406 1881 
L 2844 1881 
z
M 1822 4591 
L 2525 4591 
L 4191 0 
L 3509 0 
L 3044 1375 
L 1228 1375 
L 731 0 
L 94 0 
L 1822 4591 
z
" transform="scale(0.015625)"/>
      <path id="Helvetica-38" d="M 1741 2600 
Q 2113 2600 2322 2808 
Q 2531 3016 2531 3303 
Q 2531 3553 2331 3762 
Q 2131 3972 1722 3972 
Q 1316 3972 1134 3762 
Q 953 3553 953 3272 
Q 953 2956 1187 2778 
Q 1422 2600 1741 2600 
z
M 1775 384 
Q 2166 384 2423 595 
Q 2681 806 2681 1225 
Q 2681 1659 2415 1884 
Q 2150 2109 1734 2109 
Q 1331 2109 1076 1879 
Q 822 1650 822 1244 
Q 822 894 1055 639 
Q 1288 384 1775 384 
z
M 975 2384 
Q 741 2484 609 2619 
Q 363 2869 363 3269 
Q 363 3769 725 4128 
Q 1088 4488 1753 4488 
Q 2397 4488 2762 4148 
Q 3128 3809 3128 3356 
Q 3128 2938 2916 2678 
Q 2797 2531 2547 2391 
Q 2825 2263 2984 2097 
Q 3281 1784 3281 1284 
Q 3281 694 2884 283 
Q 2488 -128 1763 -128 
Q 1109 -128 657 226 
Q 206 581 206 1256 
Q 206 1653 400 1942 
Q 594 2231 975 2384 
z
" transform="scale(0.015625)"/>
     </defs>
     <use xlink:href="#Helvetica-44"/>
     <use xlink:href="#Helvetica-41" x="72.216797"/>
     <use xlink:href="#Helvetica-32" x="138.916016"/>
     <use xlink:href="#Helvetica-38" x="194.53125"/>
     <use xlink:href="#Helvetica-31" x="250.146484"/>
     <use xlink:href="#Helvetica-30" x="305.761719"/>
     <use xlink:href="#Helvetica-32" x="361.376953"/>
    </g>
    <!-- pSC101 -->
    <g transform="translate(62.208 43.434) scale(0.12 -0.12)">
     <defs>
      <path id="Helvetica-70" d="M 1825 378 
Q 2219 378 2480 708 
Q 2741 1038 2741 1694 
Q 2741 2094 2625 2381 
Q 2406 2934 1825 2934 
Q 1241 2934 1025 2350 
Q 909 2038 909 1556 
Q 909 1169 1025 897 
Q 1244 378 1825 378 
z
M 369 3331 
L 916 3331 
L 916 2888 
Q 1084 3116 1284 3241 
Q 1569 3428 1953 3428 
Q 2522 3428 2919 2992 
Q 3316 2556 3316 1747 
Q 3316 653 2744 184 
Q 2381 -113 1900 -113 
Q 1522 -113 1266 53 
Q 1116 147 931 375 
L 931 -1334 
L 369 -1334 
L 369 3331 
z
" transform="scale(0.015625)"/>
      <path id="Helvetica-53" d="M 894 1481 
Q 916 1091 1078 847 
Q 1388 391 2169 391 
Q 2519 391 2806 491 
Q 3363 684 3363 1184 
Q 3363 1559 3128 1719 
Q 2891 1875 2384 1991 
L 1763 2131 
Q 1153 2269 900 2434 
Q 463 2722 463 3294 
Q 463 3913 891 4309 
Q 1319 4706 2103 4706 
Q 2825 4706 3329 4357 
Q 3834 4009 3834 3244 
L 3250 3244 
Q 3203 3613 3050 3809 
Q 2766 4169 2084 4169 
Q 1534 4169 1293 3937 
Q 1053 3706 1053 3400 
Q 1053 3063 1334 2906 
Q 1519 2806 2169 2656 
L 2813 2509 
Q 3278 2403 3531 2219 
Q 3969 1897 3969 1284 
Q 3969 522 3414 194 
Q 2859 -134 2125 -134 
Q 1269 -134 784 303 
Q 300 738 309 1481 
L 894 1481 
z
M 2150 4716 
L 2150 4716 
z
" transform="scale(0.015625)"/>
      <path id="Helvetica-43" d="M 2422 4716 
Q 3294 4716 3775 4256 
Q 4256 3797 4309 3213 
L 3703 3213 
Q 3600 3656 3292 3915 
Q 2984 4175 2428 4175 
Q 1750 4175 1333 3698 
Q 916 3222 916 2238 
Q 916 1431 1292 929 
Q 1669 428 2416 428 
Q 3103 428 3463 956 
Q 3653 1234 3747 1688 
L 4353 1688 
Q 4272 963 3816 472 
Q 3269 -119 2341 -119 
Q 1541 -119 997 366 
Q 281 1006 281 2344 
Q 281 3359 819 4009 
Q 1400 4716 2422 4716 
z
M 2297 4716 
L 2297 4716 
z
" transform="scale(0.015625)"/>
     </defs>
     <use xlink:href="#Helvetica-70"/>
     <use xlink:href="#Helvetica-53" x="55.615234"/>
     <use xlink:href="#Helvetica-43" x="122.314453"/>
     <use xlink:href="#Helvetica-31" x="194.53125"/>
     <use xlink:href="#Helvetica-30" x="250.146484"/>
     <use xlink:href="#Helvetica-31" x="305.761719"/>
    </g>
   </g>
   <g id="LineCollection_1">
    <path d="M 177.517895 24.117708 
L 177.517895 23.899096 
" style="fill: none; stroke: #000000"/>
    <path d="M 177.517895 22.883046 
L 177.517895 22.774 
" style="fill: none; stroke: #000000"/>
    <path d="M 177.517895 17.71045 
L 177.517895 17.585629 
" style="fill: none; stroke: #000000"/>
    <path d="M 176.085474 62.006599 
L 176.085474 61.675857 
" style="fill: none; stroke: #000000"/>
    <path d="M 176.085474 55.502248 
L 176.085474 55.311347 
" style="fill: none; stroke: #000000"/>
    <path d="M 176.085474 54.202144 
L 176.085474 54.074715 
" style="fill: none; stroke: #000000"/>
    <path d="M 163.193684 99.173348 
L 163.193684 99.02182 
" style="fill: none; stroke: #000000"/>
    <path d="M 163.193684 100.977052 
L 163.193684 100.835033 
" style="fill: none; stroke: #000000"/>
    <path d="M 163.193684 87.703207 
L 163.193684 87.410533 
" style="fill: none; stroke: #000000"/>
    <path d="M 105.896842 123.418443 
L 105.896842 123.259085 
" style="fill: none; stroke: #000000"/>
    <path d="M 105.896842 119.775534 
L 105.896842 119.579477 
" style="fill: none; stroke: #000000"/>
    <path d="M 105.896842 120.560583 
L 105.896842 120.372233 
" style="fill: none; stroke: #000000"/>
    <path d="M 62.924211 119.411732 
L 62.924211 118.943379 
" style="fill: none; stroke: #000000"/>
    <path d="M 62.924211 126.955182 
L 62.924211 126.628233 
" style="fill: none; stroke: #000000"/>
    <path d="M 62.924211 126.393713 
L 62.924211 126.05489 
" style="fill: none; stroke: #000000"/>
   </g>
   <g id="line2d_7">
    <defs>
     <path id="m2a5ae5185f" d="M 2 0 
L -2 -0 
" style="stroke: #000000"/>
    </defs>
    <g>
     <use xlink:href="#m2a5ae5185f" x="177.517895" y="24.117708" style="stroke: #000000"/>
     <use xlink:href="#m2a5ae5185f" x="177.517895" y="22.883046" style="stroke: #000000"/>
     <use xlink:href="#m2a5ae5185f" x="177.517895" y="17.71045" style="stroke: #000000"/>
     <use xlink:href="#m2a5ae5185f" x="176.085474" y="62.006599" style="stroke: #000000"/>
     <use xlink:href="#m2a5ae5185f" x="176.085474" y="55.502248" style="stroke: #000000"/>
     <use xlink:href="#m2a5ae5185f" x="176.085474" y="54.202144" style="stroke: #000000"/>
     <use xlink:href="#m2a5ae5185f" x="163.193684" y="99.173348" style="stroke: #000000"/>
     <use xlink:href="#m2a5ae5185f" x="163.193684" y="100.977052" style="stroke: #000000"/>
     <use xlink:href="#m2a5ae5185f" x="163.193684" y="87.703207" style="stroke: #000000"/>
     <use xlink:href="#m2a5ae5185f" x="105.896842" y="123.418443" style="stroke: #000000"/>
     <use xlink:href="#m2a5ae5185f" x="105.896842" y="119.775534" style="stroke: #000000"/>
     <use xlink:href="#m2a5ae5185f" x="105.896842" y="120.560583" style="stroke: #000000"/>
     <use xlink:href="#m2a5ae5185f" x="62.924211" y="119.411732" style="stroke: #000000"/>
     <use xlink:href="#m2a5ae5185f" x="62.924211" y="126.955182" style="stroke: #000000"/>
     <use xlink:href="#m2a5ae5185f" x="62.924211" y="126.393713" style="stroke: #000000"/>
    </g>
   </g>
   <g id="line2d_8">
    <g>
     <use xlink:href="#m2a5ae5185f" x="177.517895" y="23.899096" style="stroke: #000000"/>
     <use xlink:href="#m2a5ae5185f" x="177.517895" y="22.774" style="stroke: #000000"/>
     <use xlink:href="#m2a5ae5185f" x="177.517895" y="17.585629" style="stroke: #000000"/>
     <use xlink:href="#m2a5ae5185f" x="176.085474" y="61.675857" style="stroke: #000000"/>
     <use xlink:href="#m2a5ae5185f" x="176.085474" y="55.311347" style="stroke: #000000"/>
     <use xlink:href="#m2a5ae5185f" x="176.085474" y="54.074715" style="stroke: #000000"/>
     <use xlink:href="#m2a5ae5185f" x="163.193684" y="99.02182" style="stroke: #000000"/>
     <use xlink:href="#m2a5ae5185f" x="163.193684" y="100.835033" style="stroke: #000000"/>
     <use xlink:href="#m2a5ae5185f" x="163.193684" y="87.410533" style="stroke: #000000"/>
     <use xlink:href="#m2a5ae5185f" x="105.896842" y="123.259085" style="stroke: #000000"/>
     <use xlink:href="#m2a5ae5185f" x="105.896842" y="119.579477" style="stroke: #000000"/>
     <use xlink:href="#m2a5ae5185f" x="105.896842" y="120.372233" style="stroke: #000000"/>
     <use xlink:href="#m2a5ae5185f" x="62.924211" y="118.943379" style="stroke: #000000"/>
     <use xlink:href="#m2a5ae5185f" x="62.924211" y="126.628233" style="stroke: #000000"/>
     <use xlink:href="#m2a5ae5185f" x="62.924211" y="126.05489" style="stroke: #000000"/>
    </g>
   </g>
   <g id="line2d_9">
    <path d="M 177.517895 24.008402 
L 177.517895 22.828523 
L 177.517895 17.648039 
L 176.085474 61.841228 
L 176.085474 55.406797 
L 176.085474 54.13843 
L 163.193684 99.097584 
L 163.193684 100.906042 
L 163.193684 87.55687 
L 105.896842 123.338764 
L 105.896842 119.677506 
L 105.896842 120.466408 
L 62.924211 119.177555 
L 62.924211 126.791708 
L 62.924211 126.224301 
" style="fill: none"/>
   </g>
  </g>
 </g>
 <defs>
  <clipPath id="p38af2b0ca9">
   <rect x="48.6" y="9.144" width="136.08" height="137.16"/>
  </clipPath>
 </defs>
</svg>
