<?xml version="1.0" encoding="utf-8" standalone="no"?>
<!DOCTYPE svg PUBLIC "-//W3C//DTD SVG 1.1//EN"
  "http://www.w3.org/Graphics/SVG/1.1/DTD/svg11.dtd">
<svg xmlns:xlink="http://www.w3.org/1999/xlink" width="146.88pt" height="136.8pt" viewBox="0 0 146.88 136.8" xmlns="http://www.w3.org/2000/svg" version="1.1">
 <metadata>
  <rdf:RDF xmlns:dc="http://purl.org/dc/elements/1.1/" xmlns:cc="http://creativecommons.org/ns#" xmlns:rdf="http://www.w3.org/1999/02/22-rdf-syntax-ns#">
   <cc:Work>
    <dc:type rdf:resource="http://purl.org/dc/dcmitype/StillImage"/>
    <dc:date>2025-08-24T17:33:57.540592</dc:date>
    <dc:format>image/svg+xml</dc:format>
    <dc:creator>
     <cc:Agent>
      <dc:title>Matplotlib v3.7.5, https://matplotlib.org/</dc:title>
     </cc:Agent>
    </dc:creator>
   </cc:Work>
  </rdf:RDF>
 </metadata>
 <defs>
  <style type="text/css">*{stroke-linejoin: round; stroke-linecap: butt}</style>
 </defs>
 <g id="figure_1">
  <g id="patch_1">
   <path d="M 0 136.8 
L 146.88 136.8 
L 146.88 0 
L 0 0 
z
" style="fill: #ffffff"/>
  </g>
  <g id="axes_1">
   <g id="patch_2">
    <path d="M 36.72 105.336 
L 139.536 105.336 
L 139.536 6.84 
L 36.72 6.84 
z
" style="fill: #ffffff"/>
   </g>
   <g id="line2d_1">
    <path d="M 134.124632 14.416615 
L 133.042358 51.233174 
L 123.301895 69.082555 
L 80.010947 88.78447 
L 47.542737 89.601436 
" clip-path="url(#p48491b81b3)" style="fill: none; stroke: #000000; stroke-linecap: square"/>
   </g>
   <g id="matplotlib.axis_1">
    <g id="xtick_1">
     <g id="line2d_2">
      <defs>
       <path id="m34eeed2c70" d="M 0 0 
L 0 -3.5 
" style="stroke: #000000; stroke-width: 0.8"/>
      </defs>
      <g>
       <use xlink:href="#m34eeed2c70" x="80.010947" y="105.336" style="stroke: #000000; stroke-width: 0.8"/>
      </g>
     </g>
     <g id="text_1">
      <!-- 50 -->
      <g transform="translate(73.337822 117.444125) scale(0.12 -0.12)">
       <defs>
        <path id="Helvetica-35" d="M 791 1141 
Q 847 659 1238 475 
Q 1438 381 1700 381 
Q 2200 381 2440 700 
Q 2681 1019 2681 1406 
Q 2681 1875 2395 2131 
Q 2109 2388 1709 2388 
Q 1419 2388 1211 2275 
Q 1003 2163 856 1963 
L 369 1991 
L 709 4400 
L 3034 4400 
L 3034 3856 
L 1131 3856 
L 941 2613 
Q 1097 2731 1238 2791 
Q 1488 2894 1816 2894 
Q 2431 2894 2859 2497 
Q 3288 2100 3288 1491 
Q 3288 856 2895 371 
Q 2503 -113 1644 -113 
Q 1097 -113 676 195 
Q 256 503 206 1141 
L 791 1141 
z
" transform="scale(0.015625)"/>
        <path id="Helvetica-30" d="M 1731 4475 
Q 2600 4475 2988 3759 
Q 3288 3206 3288 2244 
Q 3288 1331 3016 734 
Q 2622 -122 1728 -122 
Q 922 -122 528 578 
Q 200 1163 200 2147 
Q 200 2909 397 3456 
Q 766 4475 1731 4475 
z
M 1725 391 
Q 2163 391 2422 778 
Q 2681 1166 2681 2222 
Q 2681 2984 2493 3476 
Q 2306 3969 1766 3969 
Q 1269 3969 1039 3501 
Q 809 3034 809 2125 
Q 809 1441 956 1025 
Q 1181 391 1725 391 
z
" transform="scale(0.015625)"/>
       </defs>
       <use xlink:href="#Helvetica-35"/>
       <use xlink:href="#Helvetica-30" x="55.615234"/>
      </g>
     </g>
    </g>
    <g id="xtick_2">
     <g id="line2d_3">
      <g>
       <use xlink:href="#m34eeed2c70" x="134.124632" y="105.336" style="stroke: #000000; stroke-width: 0.8"/>
      </g>
     </g>
     <g id="text_2">
      <!-- 100 -->
      <g transform="translate(124.114944 117.444125) scale(0.12 -0.12)">
       <defs>
        <path id="Helvetica-31" d="M 613 3169 
L 613 3600 
Q 1222 3659 1462 3798 
Q 1703 3938 1822 4456 
L 2266 4456 
L 2266 0 
L 1666 0 
L 1666 3169 
L 613 3169 
z
" transform="scale(0.015625)"/>
       </defs>
       <use xlink:href="#Helvetica-31"/>
       <use xlink:href="#Helvetica-30" x="55.615234"/>
       <use xlink:href="#Helvetica-30" x="111.230469"/>
      </g>
     </g>
    </g>
   </g>
   <g id="matplotlib.axis_2">
    <g id="ytick_1">
     <g id="line2d_4">
      <defs>
       <path id="m10064afcbf" d="M 0 0 
L 3.5 0 
" style="stroke: #000000; stroke-width: 0.8"/>
      </defs>
      <g>
       <use xlink:href="#m10064afcbf" x="36.72" y="105.336" style="stroke: #000000; stroke-width: 0.8"/>
      </g>
     </g>
     <g id="text_3">
      <!-- 0 -->
      <g transform="translate(26.546875 109.640062) scale(0.12 -0.12)">
       <use xlink:href="#Helvetica-30"/>
      </g>
     </g>
    </g>
    <g id="ytick_2">
     <g id="line2d_5">
      <g>
       <use xlink:href="#m10064afcbf" x="36.72" y="59.876308" style="stroke: #000000; stroke-width: 0.8"/>
      </g>
     </g>
     <g id="text_4">
      <!-- 6 -->
      <g transform="translate(26.546875 64.18037) scale(0.12 -0.12)">
       <defs>
        <path id="Helvetica-36" d="M 1872 4494 
Q 2622 4494 2917 4105 
Q 3213 3716 3213 3303 
L 2656 3303 
Q 2606 3569 2497 3719 
Q 2294 4000 1881 4000 
Q 1409 4000 1131 3564 
Q 853 3128 822 2316 
Q 1016 2600 1309 2741 
Q 1578 2866 1909 2866 
Q 2472 2866 2890 2506 
Q 3309 2147 3309 1434 
Q 3309 825 2912 354 
Q 2516 -116 1781 -116 
Q 1153 -116 697 361 
Q 241 838 241 1966 
Q 241 2800 444 3381 
Q 834 4494 1872 4494 
z
M 1831 384 
Q 2275 384 2495 682 
Q 2716 981 2716 1388 
Q 2716 1731 2519 2042 
Q 2322 2353 1803 2353 
Q 1441 2353 1167 2112 
Q 894 1872 894 1388 
Q 894 963 1142 673 
Q 1391 384 1831 384 
z
" transform="scale(0.015625)"/>
       </defs>
       <use xlink:href="#Helvetica-36"/>
      </g>
     </g>
    </g>
    <g id="ytick_3">
     <g id="line2d_6">
      <g>
       <use xlink:href="#m10064afcbf" x="36.72" y="14.416615" style="stroke: #000000; stroke-width: 0.8"/>
      </g>
     </g>
     <g id="text_5">
      <!-- &gt; 12 -->
      <g transform="translate(9.53125 18.720678) scale(0.12 -0.12)">
       <defs>
        <path id="Helvetica-3e" d="M 3741 1369 
L 88 -59 
L 88 503 
L 3072 1634 
L 88 2763 
L 88 3325 
L 3741 1894 
L 3741 1369 
z
" transform="scale(0.015625)"/>
        <path id="Helvetica-20" transform="scale(0.015625)"/>
        <path id="Helvetica-32" d="M 200 0 
Q 231 578 439 1006 
Q 647 1434 1250 1784 
L 1850 2131 
Q 2253 2366 2416 2531 
Q 2672 2791 2672 3125 
Q 2672 3516 2437 3745 
Q 2203 3975 1813 3975 
Q 1234 3975 1013 3538 
Q 894 3303 881 2888 
L 309 2888 
Q 319 3472 525 3841 
Q 891 4491 1816 4491 
Q 2584 4491 2939 4075 
Q 3294 3659 3294 3150 
Q 3294 2613 2916 2231 
Q 2697 2009 2131 1694 
L 1703 1456 
Q 1397 1288 1222 1134 
Q 909 863 828 531 
L 3272 531 
L 3272 0 
L 200 0 
z
" transform="scale(0.015625)"/>
       </defs>
       <use xlink:href="#Helvetica-3e"/>
       <use xlink:href="#Helvetica-20" x="58.398438"/>
       <use xlink:href="#Helvetica-31" x="86.181641"/>
       <use xlink:href="#Helvetica-32" x="141.796875"/>
      </g>
     </g>
    </g>
   </g>
   <g id="patch_3">
    <path d="M 36.72 105.336 
L 36.72 6.84 
" style="fill: none; stroke: #000000; stroke-width: 0.8; stroke-linejoin: miter; stroke-linecap: square"/>
   </g>
   <g id="patch_4">
    <path d="M 139.536 105.336 
L 139.536 6.84 
" style="fill: none; stroke: #000000; stroke-width: 0.8; stroke-linejoin: miter; stroke-linecap: square"/>
   </g>
   <g id="patch_5">
    <path d="M 36.72 105.336 
L 139.536 105.336 
" style="fill: none; stroke: #000000; stroke-width: 0.8; stroke-linejoin: miter; stroke-linecap: square"/>
   </g>
   <g id="patch_6">
    <path d="M 36.72 6.84 
L 139.536 6.84 
" style="fill: none; stroke: #000000; stroke-width: 0.8; stroke-linejoin: miter; stroke-linecap: square"/>
   </g>
   <g id="text_6">
    <!-- MG1655 -->
    <g transform="translate(47.0016 26.015069) scale(0.13 -0.13)">
     <defs>
      <path id="Helvetica-4d" d="M 472 4591 
L 1363 4591 
L 2681 709 
L 3991 4591 
L 4872 4591 
L 4872 0 
L 4281 0 
L 4281 2709 
Q 4281 2850 4287 3175 
Q 4294 3500 4294 3872 
L 2984 0 
L 2369 0 
L 1050 3872 
L 1050 3731 
Q 1050 3563 1058 3217 
Q 1066 2872 1066 2709 
L 1066 0 
L 472 0 
L 472 4591 
z
" transform="scale(0.015625)"/>
      <path id="Helvetica-47" d="M 2472 4709 
Q 3119 4709 3591 4459 
Q 4275 4100 4428 3200 
L 3813 3200 
Q 3700 3703 3347 3933 
Q 2994 4163 2456 4163 
Q 1819 4163 1383 3684 
Q 947 3206 947 2259 
Q 947 1441 1306 927 
Q 1666 413 2478 413 
Q 3100 413 3508 773 
Q 3916 1134 3925 1941 
L 2488 1941 
L 2488 2456 
L 4503 2456 
L 4503 0 
L 4103 0 
L 3953 591 
Q 3638 244 3394 109 
Q 2984 -122 2353 -122 
Q 1538 -122 950 406 
Q 309 1069 309 2225 
Q 309 3378 934 4059 
Q 1528 4709 2472 4709 
z
M 2369 4716 
L 2369 4716 
z
" transform="scale(0.015625)"/>
     </defs>
     <use xlink:href="#Helvetica-4d"/>
     <use xlink:href="#Helvetica-47" x="83.300781"/>
     <use xlink:href="#Helvetica-31" x="161.083984"/>
     <use xlink:href="#Helvetica-36" x="216.699219"/>
     <use xlink:href="#Helvetica-35" x="272.314453"/>
     <use xlink:href="#Helvetica-35" x="327.929688"/>
    </g>
    <!-- pUC -->
    <g transform="translate(47.0016 40.220006) scale(0.13 -0.13)">
     <defs>
      <path id="Helvetica-70" d="M 1825 378 
Q 2219 378 2480 708 
Q 2741 1038 2741 1694 
Q 2741 2094 2625 2381 
Q 2406 2934 1825 2934 
Q 1241 2934 1025 2350 
Q 909 2038 909 1556 
Q 909 1169 1025 897 
Q 1244 378 1825 378 
z
M 369 3331 
L 916 3331 
L 916 2888 
Q 1084 3116 1284 3241 
Q 1569 3428 1953 3428 
Q 2522 3428 2919 2992 
Q 3316 2556 3316 1747 
Q 3316 653 2744 184 
Q 2381 -113 1900 -113 
Q 1522 -113 1266 53 
Q 1116 147 931 375 
L 931 -1334 
L 369 -1334 
L 369 3331 
z
" transform="scale(0.015625)"/>
      <path id="Helvetica-55" d="M 1163 4591 
L 1163 1753 
Q 1163 1253 1350 922 
Q 1628 422 2288 422 
Q 3078 422 3363 963 
Q 3516 1256 3516 1753 
L 3516 4591 
L 4147 4591 
L 4147 2013 
Q 4147 1166 3919 709 
Q 3500 -122 2338 -122 
Q 1175 -122 759 709 
Q 531 1166 531 2013 
L 531 4591 
L 1163 4591 
z
M 2341 4591 
L 2341 4591 
z
" transform="scale(0.015625)"/>
      <path id="Helvetica-43" d="M 2422 4716 
Q 3294 4716 3775 4256 
Q 4256 3797 4309 3213 
L 3703 3213 
Q 3600 3656 3292 3915 
Q 2984 4175 2428 4175 
Q 1750 4175 1333 3698 
Q 916 3222 916 2238 
Q 916 1431 1292 929 
Q 1669 428 2416 428 
Q 3103 428 3463 956 
Q 3653 1234 3747 1688 
L 4353 1688 
Q 4272 963 3816 472 
Q 3269 -119 2341 -119 
Q 1541 -119 997 366 
Q 281 1006 281 2344 
Q 281 3359 819 4009 
Q 1400 4716 2422 4716 
z
M 2297 4716 
L 2297 4716 
z
" transform="scale(0.015625)"/>
     </defs>
     <use xlink:href="#Helvetica-70"/>
     <use xlink:href="#Helvetica-55" x="55.615234"/>
     <use xlink:href="#Helvetica-43" x="127.832031"/>
    </g>
   </g>
   <g id="PathCollection_1">
    <defs>
     <path id="C0_0_d00bb38707" d="M 0 5 
C 1.326016 5 2.597899 4.473168 3.535534 3.535534 
C 4.473168 2.597899 5 1.326016 5 -0 
C 5 -1.326016 4.473168 -2.597899 3.535534 -3.535534 
C 2.597899 -4.473168 1.326016 -5 0 -5 
C -1.326016 -5 -2.597899 -4.473168 -3.535534 -3.535534 
C -4.473168 -2.597899 -5 -1.326016 -5 0 
C -5 1.326016 -4.473168 2.597899 -3.535534 3.535534 
C -2.597899 4.473168 -1.326016 5 0 5 
z
"/>
    </defs>
    <g clip-path="url(#p48491b81b3)">
     <use xlink:href="#C0_0_d00bb38707" x="134.124632" y="14.416615" style="fill: #66c2a5; stroke: #000000"/>
    </g>
    <g clip-path="url(#p48491b81b3)">
     <use xlink:href="#C0_0_d00bb38707" x="133.042358" y="51.233174" style="fill: #fc8d62; stroke: #000000"/>
    </g>
    <g clip-path="url(#p48491b81b3)">
     <use xlink:href="#C0_0_d00bb38707" x="123.301895" y="66.308062" style="fill: #8da0cb; stroke: #000000"/>
    </g>
    <g clip-path="url(#p48491b81b3)">
     <use xlink:href="#C0_0_d00bb38707" x="80.010947" y="88.418414" style="fill: #e78ac3; stroke: #000000"/>
    </g>
    <g clip-path="url(#p48491b81b3)">
     <use xlink:href="#C0_0_d00bb38707" x="47.542737" y="87.880455" style="fill: #a6d854; stroke: #000000"/>
    </g>
   </g>
   <g id="LineCollection_1">
    <path clip-path="url(#p48491b81b3)" style="fill: none; stroke: #000000"/>
    <path d="M 133.042358 51.258077 
L 133.042358 51.20827 
" clip-path="url(#p48491b81b3)" style="fill: none; stroke: #000000"/>
    <path d="M 123.301895 66.346249 
L 123.301895 66.269875 
" clip-path="url(#p48491b81b3)" style="fill: none; stroke: #000000"/>
    <path d="M 80.010947 88.460906 
L 80.010947 88.375923 
" clip-path="url(#p48491b81b3)" style="fill: none; stroke: #000000"/>
    <path d="M 47.542737 87.95297 
L 47.542737 87.807941 
" clip-path="url(#p48491b81b3)" style="fill: none; stroke: #000000"/>
   </g>
   <g id="line2d_7">
    <defs>
     <path id="m406e6d0fb6" d="M 2 0 
L -2 -0 
" style="stroke: #000000"/>
    </defs>
    <g clip-path="url(#p48491b81b3)">
     <use xlink:href="#m406e6d0fb6" x="133.042358" y="51.258077" style="stroke: #000000"/>
     <use xlink:href="#m406e6d0fb6" x="123.301895" y="66.346249" style="stroke: #000000"/>
     <use xlink:href="#m406e6d0fb6" x="80.010947" y="88.460906" style="stroke: #000000"/>
     <use xlink:href="#m406e6d0fb6" x="47.542737" y="87.95297" style="stroke: #000000"/>
    </g>
   </g>
   <g id="line2d_8">
    <g clip-path="url(#p48491b81b3)">
     <use xlink:href="#m406e6d0fb6" x="133.042358" y="51.20827" style="stroke: #000000"/>
     <use xlink:href="#m406e6d0fb6" x="123.301895" y="66.269875" style="stroke: #000000"/>
     <use xlink:href="#m406e6d0fb6" x="80.010947" y="88.375923" style="stroke: #000000"/>
     <use xlink:href="#m406e6d0fb6" x="47.542737" y="87.807941" style="stroke: #000000"/>
    </g>
   </g>
   <g id="PathCollection_2">
    <defs>
     <path id="C1_0_e290e2562f" d="M 0 5 
C 1.326016 5 2.597899 4.473168 3.535534 3.535534 
C 4.473168 2.597899 5 1.326016 5 -0 
C 5 -1.326016 4.473168 -2.597899 3.535534 -3.535534 
C 2.597899 -4.473168 1.326016 -5 0 -5 
C -1.326016 -5 -2.597899 -4.473168 -3.535534 -3.535534 
C -4.473168 -2.597899 -5 -1.326016 -5 0 
C -5 1.326016 -4.473168 2.597899 -3.535534 3.535534 
C -2.597899 4.473168 -1.326016 5 0 5 
z
"/>
    </defs>
    <g clip-path="url(#p48491b81b3)">
     <use xlink:href="#C1_0_e290e2562f" x="134.124632" y="14.416615" style="fill: #66c2a5; stroke: #000000"/>
    </g>
    <g clip-path="url(#p48491b81b3)">
     <use xlink:href="#C1_0_e290e2562f" x="133.042358" y="49.66246" style="fill: #fc8d62; stroke: #000000"/>
    </g>
    <g clip-path="url(#p48491b81b3)">
     <use xlink:href="#C1_0_e290e2562f" x="123.301895" y="69.082555" style="fill: #8da0cb; stroke: #000000"/>
    </g>
    <g clip-path="url(#p48491b81b3)">
     <use xlink:href="#C1_0_e290e2562f" x="80.010947" y="88.78447" style="fill: #e78ac3; stroke: #000000"/>
    </g>
    <g clip-path="url(#p48491b81b3)">
     <use xlink:href="#C1_0_e290e2562f" x="47.542737" y="89.601436" style="fill: #a6d854; stroke: #000000"/>
    </g>
   </g>
   <g id="LineCollection_2">
    <path clip-path="url(#p48491b81b3)" style="fill: none; stroke: #000000"/>
    <path d="M 133.042358 49.681324 
L 133.042358 49.643596 
" clip-path="url(#p48491b81b3)" style="fill: none; stroke: #000000"/>
    <path d="M 123.301895 69.119748 
L 123.301895 69.045363 
" clip-path="url(#p48491b81b3)" style="fill: none; stroke: #000000"/>
    <path d="M 80.010947 88.829937 
L 80.010947 88.739003 
" clip-path="url(#p48491b81b3)" style="fill: none; stroke: #000000"/>
    <path d="M 47.542737 89.717488 
L 47.542737 89.485383 
" clip-path="url(#p48491b81b3)" style="fill: none; stroke: #000000"/>
   </g>
   <g id="line2d_9">
    <g clip-path="url(#p48491b81b3)">
     <use xlink:href="#m406e6d0fb6" x="133.042358" y="49.681324" style="stroke: #000000"/>
     <use xlink:href="#m406e6d0fb6" x="123.301895" y="69.119748" style="stroke: #000000"/>
     <use xlink:href="#m406e6d0fb6" x="80.010947" y="88.829937" style="stroke: #000000"/>
     <use xlink:href="#m406e6d0fb6" x="47.542737" y="89.717488" style="stroke: #000000"/>
    </g>
   </g>
   <g id="line2d_10">
    <g clip-path="url(#p48491b81b3)">
     <use xlink:href="#m406e6d0fb6" x="133.042358" y="49.643596" style="stroke: #000000"/>
     <use xlink:href="#m406e6d0fb6" x="123.301895" y="69.045363" style="stroke: #000000"/>
     <use xlink:href="#m406e6d0fb6" x="80.010947" y="88.739003" style="stroke: #000000"/>
     <use xlink:href="#m406e6d0fb6" x="47.542737" y="89.485383" style="stroke: #000000"/>
    </g>
   </g>
   <g id="PathCollection_3">
    <defs>
     <path id="C2_0_10fe85433e" d="M 0 5 
C 1.326016 5 2.597899 4.473168 3.535534 3.535534 
C 4.473168 2.597899 5 1.326016 5 -0 
C 5 -1.326016 4.473168 -2.597899 3.535534 -3.535534 
C 2.597899 -4.473168 1.326016 -5 0 -5 
C -1.326016 -5 -2.597899 -4.473168 -3.535534 -3.535534 
C -4.473168 -2.597899 -5 -1.326016 -5 0 
C -5 1.326016 -4.473168 2.597899 -3.535534 3.535534 
C -2.597899 4.473168 -1.326016 5 0 5 
z
"/>
    </defs>
    <g clip-path="url(#p48491b81b3)">
     <use xlink:href="#C2_0_10fe85433e" x="134.124632" y="14.416615" style="fill: #66c2a5; stroke: #000000"/>
    </g>
    <g clip-path="url(#p48491b81b3)">
     <use xlink:href="#C2_0_10fe85433e" x="133.042358" y="51.990143" style="fill: #fc8d62; stroke: #000000"/>
    </g>
    <g clip-path="url(#p48491b81b3)">
     <use xlink:href="#C2_0_10fe85433e" x="123.301895" y="70.397159" style="fill: #8da0cb; stroke: #000000"/>
    </g>
    <g clip-path="url(#p48491b81b3)">
     <use xlink:href="#C2_0_10fe85433e" x="80.010947" y="90.560962" style="fill: #e78ac3; stroke: #000000"/>
    </g>
    <g clip-path="url(#p48491b81b3)">
     <use xlink:href="#C2_0_10fe85433e" x="47.542737" y="93.569621" style="fill: #a6d854; stroke: #000000"/>
    </g>
   </g>
   <g id="LineCollection_3">
    <path clip-path="url(#p48491b81b3)" style="fill: none; stroke: #000000"/>
    <path d="M 133.042358 52.01034 
L 133.042358 51.969946 
" clip-path="url(#p48491b81b3)" style="fill: none; stroke: #000000"/>
    <path d="M 123.301895 70.435768 
L 123.301895 70.358549 
" clip-path="url(#p48491b81b3)" style="fill: none; stroke: #000000"/>
    <path d="M 80.010947 90.641204 
L 80.010947 90.48072 
" clip-path="url(#p48491b81b3)" style="fill: none; stroke: #000000"/>
    <path d="M 47.542737 93.67734 
L 47.542737 93.461901 
" clip-path="url(#p48491b81b3)" style="fill: none; stroke: #000000"/>
   </g>
   <g id="line2d_11">
    <g clip-path="url(#p48491b81b3)">
     <use xlink:href="#m406e6d0fb6" x="133.042358" y="52.01034" style="stroke: #000000"/>
     <use xlink:href="#m406e6d0fb6" x="123.301895" y="70.435768" style="stroke: #000000"/>
     <use xlink:href="#m406e6d0fb6" x="80.010947" y="90.641204" style="stroke: #000000"/>
     <use xlink:href="#m406e6d0fb6" x="47.542737" y="93.67734" style="stroke: #000000"/>
    </g>
   </g>
   <g id="line2d_12">
    <g clip-path="url(#p48491b81b3)">
     <use xlink:href="#m406e6d0fb6" x="133.042358" y="51.969946" style="stroke: #000000"/>
     <use xlink:href="#m406e6d0fb6" x="123.301895" y="70.358549" style="stroke: #000000"/>
     <use xlink:href="#m406e6d0fb6" x="80.010947" y="90.48072" style="stroke: #000000"/>
     <use xlink:href="#m406e6d0fb6" x="47.542737" y="93.461901" style="stroke: #000000"/>
    </g>
   </g>
   <g id="line2d_13">
    <path d="M 134.124632 14.416615 
L 133.042358 51.233174 
L 123.301895 66.308062 
L 80.010947 88.418414 
L 47.542737 87.880455 
" clip-path="url(#p48491b81b3)" style="fill: none"/>
   </g>
   <g id="line2d_14">
    <path d="M 134.124632 14.416615 
L 133.042358 49.66246 
L 123.301895 69.082555 
L 80.010947 88.78447 
L 47.542737 89.601436 
" clip-path="url(#p48491b81b3)" style="fill: none"/>
   </g>
   <g id="line2d_15">
    <path d="M 134.124632 14.416615 
L 133.042358 51.990143 
L 123.301895 70.397159 
L 80.010947 90.560962 
L 47.542737 93.569621 
" clip-path="url(#p48491b81b3)" style="fill: none"/>
   </g>
  </g>
 </g>
 <defs>
  <clipPath id="p48491b81b3">
   <rect x="36.72" y="6.84" width="102.816" height="98.496"/>
  </clipPath>
 </defs>
</svg>
