<?xml version="1.0" encoding="utf-8" standalone="no"?>
<!DOCTYPE svg PUBLIC "-//W3C//DTD SVG 1.1//EN"
  "http://www.w3.org/Graphics/SVG/1.1/DTD/svg11.dtd">
<svg xmlns:xlink="http://www.w3.org/1999/xlink" width="146.88pt" height="136.8pt" viewBox="0 0 146.88 136.8" xmlns="http://www.w3.org/2000/svg" version="1.1">
 <metadata>
  <rdf:RDF xmlns:dc="http://purl.org/dc/elements/1.1/" xmlns:cc="http://creativecommons.org/ns#" xmlns:rdf="http://www.w3.org/1999/02/22-rdf-syntax-ns#">
   <cc:Work>
    <dc:type rdf:resource="http://purl.org/dc/dcmitype/StillImage"/>
    <dc:date>2025-08-24T16:44:15.164837</dc:date>
    <dc:format>image/svg+xml</dc:format>
    <dc:creator>
     <cc:Agent>
      <dc:title>Matplotlib v3.7.5, https://matplotlib.org/</dc:title>
     </cc:Agent>
    </dc:creator>
   </cc:Work>
  </rdf:RDF>
 </metadata>
 <defs>
  <style type="text/css">*{stroke-linejoin: round; stroke-linecap: butt}</style>
 </defs>
 <g id="figure_1">
  <g id="patch_1">
   <path d="M 0 136.8 
L 146.88 136.8 
L 146.88 0 
L 0 0 
z
" style="fill: #ffffff"/>
  </g>
  <g id="axes_1">
   <g id="patch_2">
    <path d="M 36.72 105.336 
L 139.536 105.336 
L 139.536 6.84 
L 36.72 6.84 
z
" style="fill: #ffffff"/>
   </g>
   <g id="PolyCollection_1">
    <defs>
     <path id="me86f244b79" d="M 48.403636 -129.96 
L 48.403636 -31.464 
L 53.077091 -31.464 
L 53.077091 -129.96 
L 53.077091 -129.96 
L 48.403636 -129.96 
z
" style="stroke: #808080; stroke-opacity: 0.3"/>
    </defs>
    <g clip-path="url(#p46b37ce9ca)">
     <use xlink:href="#me86f244b79" x="0" y="136.8" style="fill: #808080; fill-opacity: 0.3; stroke: #808080; stroke-opacity: 0.3"/>
    </g>
   </g>
   <g id="line2d_1">
    <path d="M 39.056727 28.435848 
L 43.730182 37.318109 
L 48.403636 43.297163 
L 53.077091 46.223123 
L 57.750545 52.191409 
L 62.424 53.247828 
L 67.097455 60.088984 
L 71.770909 68.333708 
L 76.444364 73.274557 
L 81.117818 79.164029 
L 85.791273 85.233581 
L 89.549644 137.8 
M 92.399902 137.8 
L 95.138182 119.689633 
L 99.811636 128.32295 
L 104.485091 103.124683 
L 109.158545 93.518863 
L 113.832 101.141178 
L 118.505455 102.060988 
L 123.178909 95.039718 
L 127.852364 97.124733 
L 132.525818 93.547712 
" clip-path="url(#p46b37ce9ca)" style="fill: none; stroke: #8da0cb; stroke-width: 1.5; stroke-linecap: square"/>
   </g>
   <g id="line2d_2">
    <path d="M 39.056727 28.435848 
L 43.730182 37.318109 
L 48.403636 43.297163 
L 53.077091 34.978363 
L 57.750545 20.085279 
L 62.424 20.945538 
L 67.097455 23.156121 
L 71.770909 25.548947 
L 76.444364 28.657606 
L 81.117818 33.554382 
L 85.791273 40.650395 
L 90.464727 57.019176 
L 95.138182 57.733012 
L 99.811636 61.712779 
L 104.485091 62.618828 
L 109.158545 63.568522 
L 113.832 70.028006 
L 118.505455 77.193941 
L 123.178909 77.504302 
L 127.852364 80.853684 
L 132.525818 83.160116 
" clip-path="url(#p46b37ce9ca)" style="fill: none; stroke: #8da0cb; stroke-width: 1.5; stroke-linecap: square"/>
   </g>
   <g id="line2d_3">
    <path d="M 39.056727 28.435848 
L 43.730182 37.318109 
L 48.403636 43.297163 
L 53.077091 15.483053 
L 57.750545 16.517276 
L 62.424 15.96036 
L 67.097455 17.308293 
L 71.770909 16.662336 
L 76.444364 15.401898 
L 81.117818 15.964619 
L 85.791273 16.18947 
L 90.464727 17.21905 
L 95.138182 15.733857 
L 99.811636 15.083465 
L 104.485091 14.489362 
L 109.158545 14.323928 
L 113.832 15.59907 
L 118.505455 15.404433 
L 123.178909 16.505992 
L 127.852364 14.661367 
L 132.525818 14.579255 
" clip-path="url(#p46b37ce9ca)" style="fill: none; stroke: #8da0cb; stroke-width: 1.5; stroke-linecap: square"/>
   </g>
   <g id="PathCollection_1">
    <defs>
     <path id="mc82ed450f1" d="M 0 4.472136 
C 1.186024 4.472136 2.323632 4.000923 3.162278 3.162278 
C 4.000923 2.323632 4.472136 1.186024 4.472136 0 
C 4.472136 -1.186024 4.000923 -2.323632 3.162278 -3.162278 
C 2.323632 -4.000923 1.186024 -4.472136 0 -4.472136 
C -1.186024 -4.472136 -2.323632 -4.000923 -3.162278 -3.162278 
C -4.000923 -2.323632 -4.472136 -1.186024 -4.472136 0 
C -4.472136 1.186024 -4.000923 2.323632 -3.162278 3.162278 
C -2.323632 4.000923 -1.186024 4.472136 0 4.472136 
z
" style="stroke: #000000"/>
    </defs>
    <g clip-path="url(#p46b37ce9ca)">
     <use xlink:href="#mc82ed450f1" x="39.056727" y="28.435848" style="fill: #8da0cb; stroke: #000000"/>
     <use xlink:href="#mc82ed450f1" x="43.730182" y="37.318109" style="fill: #8da0cb; stroke: #000000"/>
     <use xlink:href="#mc82ed450f1" x="48.403636" y="43.297163" style="fill: #8da0cb; stroke: #000000"/>
     <use xlink:href="#mc82ed450f1" x="53.077091" y="46.223123" style="fill: #8da0cb; stroke: #000000"/>
     <use xlink:href="#mc82ed450f1" x="57.750545" y="52.191409" style="fill: #8da0cb; stroke: #000000"/>
     <use xlink:href="#mc82ed450f1" x="62.424" y="53.247828" style="fill: #8da0cb; stroke: #000000"/>
     <use xlink:href="#mc82ed450f1" x="67.097455" y="60.088984" style="fill: #8da0cb; stroke: #000000"/>
     <use xlink:href="#mc82ed450f1" x="71.770909" y="68.333708" style="fill: #8da0cb; stroke: #000000"/>
     <use xlink:href="#mc82ed450f1" x="76.444364" y="73.274557" style="fill: #8da0cb; stroke: #000000"/>
     <use xlink:href="#mc82ed450f1" x="81.117818" y="79.164029" style="fill: #8da0cb; stroke: #000000"/>
     <use xlink:href="#mc82ed450f1" x="85.791273" y="85.233581" style="fill: #8da0cb; stroke: #000000"/>
     <use xlink:href="#mc82ed450f1" x="90.464727" y="150.598808" style="fill: #8da0cb; stroke: #000000"/>
     <use xlink:href="#mc82ed450f1" x="95.138182" y="119.689633" style="fill: #8da0cb; stroke: #000000"/>
     <use xlink:href="#mc82ed450f1" x="99.811636" y="128.32295" style="fill: #8da0cb; stroke: #000000"/>
     <use xlink:href="#mc82ed450f1" x="104.485091" y="103.124683" style="fill: #8da0cb; stroke: #000000"/>
     <use xlink:href="#mc82ed450f1" x="109.158545" y="93.518863" style="fill: #8da0cb; stroke: #000000"/>
     <use xlink:href="#mc82ed450f1" x="113.832" y="101.141178" style="fill: #8da0cb; stroke: #000000"/>
     <use xlink:href="#mc82ed450f1" x="118.505455" y="102.060988" style="fill: #8da0cb; stroke: #000000"/>
     <use xlink:href="#mc82ed450f1" x="123.178909" y="95.039718" style="fill: #8da0cb; stroke: #000000"/>
     <use xlink:href="#mc82ed450f1" x="127.852364" y="97.124733" style="fill: #8da0cb; stroke: #000000"/>
     <use xlink:href="#mc82ed450f1" x="132.525818" y="93.547712" style="fill: #8da0cb; stroke: #000000"/>
    </g>
   </g>
   <g id="PathCollection_2">
    <defs>
     <path id="m959572a22b" d="M 0 -4.472136 
L -4.472136 4.472136 
L 4.472136 4.472136 
z
" style="stroke: #000000"/>
    </defs>
    <g clip-path="url(#p46b37ce9ca)">
     <use xlink:href="#m959572a22b" x="39.056727" y="28.435848" style="fill: #8da0cb; stroke: #000000"/>
     <use xlink:href="#m959572a22b" x="43.730182" y="37.318109" style="fill: #8da0cb; stroke: #000000"/>
     <use xlink:href="#m959572a22b" x="48.403636" y="43.297163" style="fill: #8da0cb; stroke: #000000"/>
     <use xlink:href="#m959572a22b" x="53.077091" y="34.978363" style="fill: #8da0cb; stroke: #000000"/>
     <use xlink:href="#m959572a22b" x="57.750545" y="20.085279" style="fill: #8da0cb; stroke: #000000"/>
     <use xlink:href="#m959572a22b" x="62.424" y="20.945538" style="fill: #8da0cb; stroke: #000000"/>
     <use xlink:href="#m959572a22b" x="67.097455" y="23.156121" style="fill: #8da0cb; stroke: #000000"/>
     <use xlink:href="#m959572a22b" x="71.770909" y="25.548947" style="fill: #8da0cb; stroke: #000000"/>
     <use xlink:href="#m959572a22b" x="76.444364" y="28.657606" style="fill: #8da0cb; stroke: #000000"/>
     <use xlink:href="#m959572a22b" x="81.117818" y="33.554382" style="fill: #8da0cb; stroke: #000000"/>
     <use xlink:href="#m959572a22b" x="85.791273" y="40.650395" style="fill: #8da0cb; stroke: #000000"/>
     <use xlink:href="#m959572a22b" x="90.464727" y="57.019176" style="fill: #8da0cb; stroke: #000000"/>
     <use xlink:href="#m959572a22b" x="95.138182" y="57.733012" style="fill: #8da0cb; stroke: #000000"/>
     <use xlink:href="#m959572a22b" x="99.811636" y="61.712779" style="fill: #8da0cb; stroke: #000000"/>
     <use xlink:href="#m959572a22b" x="104.485091" y="62.618828" style="fill: #8da0cb; stroke: #000000"/>
     <use xlink:href="#m959572a22b" x="109.158545" y="63.568522" style="fill: #8da0cb; stroke: #000000"/>
     <use xlink:href="#m959572a22b" x="113.832" y="70.028006" style="fill: #8da0cb; stroke: #000000"/>
     <use xlink:href="#m959572a22b" x="118.505455" y="77.193941" style="fill: #8da0cb; stroke: #000000"/>
     <use xlink:href="#m959572a22b" x="123.178909" y="77.504302" style="fill: #8da0cb; stroke: #000000"/>
     <use xlink:href="#m959572a22b" x="127.852364" y="80.853684" style="fill: #8da0cb; stroke: #000000"/>
     <use xlink:href="#m959572a22b" x="132.525818" y="83.160116" style="fill: #8da0cb; stroke: #000000"/>
    </g>
   </g>
   <g id="PathCollection_3">
    <defs>
     <path id="mb92947042f" d="M -4.472136 4.472136 
L 4.472136 4.472136 
L 4.472136 -4.472136 
L -4.472136 -4.472136 
z
" style="stroke: #000000"/>
    </defs>
    <g clip-path="url(#p46b37ce9ca)">
     <use xlink:href="#mb92947042f" x="39.056727" y="28.435848" style="fill: #8da0cb; stroke: #000000"/>
     <use xlink:href="#mb92947042f" x="43.730182" y="37.318109" style="fill: #8da0cb; stroke: #000000"/>
     <use xlink:href="#mb92947042f" x="48.403636" y="43.297163" style="fill: #8da0cb; stroke: #000000"/>
     <use xlink:href="#mb92947042f" x="53.077091" y="15.483053" style="fill: #8da0cb; stroke: #000000"/>
     <use xlink:href="#mb92947042f" x="57.750545" y="16.517276" style="fill: #8da0cb; stroke: #000000"/>
     <use xlink:href="#mb92947042f" x="62.424" y="15.96036" style="fill: #8da0cb; stroke: #000000"/>
     <use xlink:href="#mb92947042f" x="67.097455" y="17.308293" style="fill: #8da0cb; stroke: #000000"/>
     <use xlink:href="#mb92947042f" x="71.770909" y="16.662336" style="fill: #8da0cb; stroke: #000000"/>
     <use xlink:href="#mb92947042f" x="76.444364" y="15.401898" style="fill: #8da0cb; stroke: #000000"/>
     <use xlink:href="#mb92947042f" x="81.117818" y="15.964619" style="fill: #8da0cb; stroke: #000000"/>
     <use xlink:href="#mb92947042f" x="85.791273" y="16.18947" style="fill: #8da0cb; stroke: #000000"/>
     <use xlink:href="#mb92947042f" x="90.464727" y="17.21905" style="fill: #8da0cb; stroke: #000000"/>
     <use xlink:href="#mb92947042f" x="95.138182" y="15.733857" style="fill: #8da0cb; stroke: #000000"/>
     <use xlink:href="#mb92947042f" x="99.811636" y="15.083465" style="fill: #8da0cb; stroke: #000000"/>
     <use xlink:href="#mb92947042f" x="104.485091" y="14.489362" style="fill: #8da0cb; stroke: #000000"/>
     <use xlink:href="#mb92947042f" x="109.158545" y="14.323928" style="fill: #8da0cb; stroke: #000000"/>
     <use xlink:href="#mb92947042f" x="113.832" y="15.59907" style="fill: #8da0cb; stroke: #000000"/>
     <use xlink:href="#mb92947042f" x="118.505455" y="15.404433" style="fill: #8da0cb; stroke: #000000"/>
     <use xlink:href="#mb92947042f" x="123.178909" y="16.505992" style="fill: #8da0cb; stroke: #000000"/>
     <use xlink:href="#mb92947042f" x="127.852364" y="14.661367" style="fill: #8da0cb; stroke: #000000"/>
     <use xlink:href="#mb92947042f" x="132.525818" y="14.579255" style="fill: #8da0cb; stroke: #000000"/>
    </g>
   </g>
   <g id="matplotlib.axis_1">
    <g id="xtick_1">
     <g id="line2d_4">
      <defs>
       <path id="m0014fd3841" d="M 0 0 
L 0 -3.5 
" style="stroke: #000000; stroke-width: 0.8"/>
      </defs>
      <g>
       <use xlink:href="#m0014fd3841" x="39.056727" y="105.336" style="stroke: #000000; stroke-width: 0.8"/>
      </g>
     </g>
     <g id="text_1">
      <!-- 0 -->
      <g transform="translate(35.720165 117.444125) scale(0.12 -0.12)">
       <defs>
        <path id="Helvetica-30" d="M 1731 4475 
Q 2600 4475 2988 3759 
Q 3288 3206 3288 2244 
Q 3288 1331 3016 734 
Q 2622 -122 1728 -122 
Q 922 -122 528 578 
Q 200 1163 200 2147 
Q 200 2909 397 3456 
Q 766 4475 1731 4475 
z
M 1725 391 
Q 2163 391 2422 778 
Q 2681 1166 2681 2222 
Q 2681 2984 2493 3476 
Q 2306 3969 1766 3969 
Q 1269 3969 1039 3501 
Q 809 3034 809 2125 
Q 809 1441 956 1025 
Q 1181 391 1725 391 
z
" transform="scale(0.015625)"/>
       </defs>
       <use xlink:href="#Helvetica-30"/>
      </g>
     </g>
    </g>
    <g id="xtick_2">
     <g id="line2d_5">
      <g>
       <use xlink:href="#m0014fd3841" x="85.791273" y="105.336" style="stroke: #000000; stroke-width: 0.8"/>
      </g>
     </g>
     <g id="text_2">
      <!-- 10 -->
      <g transform="translate(79.118148 117.444125) scale(0.12 -0.12)">
       <defs>
        <path id="Helvetica-31" d="M 613 3169 
L 613 3600 
Q 1222 3659 1462 3798 
Q 1703 3938 1822 4456 
L 2266 4456 
L 2266 0 
L 1666 0 
L 1666 3169 
L 613 3169 
z
" transform="scale(0.015625)"/>
       </defs>
       <use xlink:href="#Helvetica-31"/>
       <use xlink:href="#Helvetica-30" x="55.615234"/>
      </g>
     </g>
    </g>
    <g id="xtick_3">
     <g id="line2d_6">
      <g>
       <use xlink:href="#m0014fd3841" x="132.525818" y="105.336" style="stroke: #000000; stroke-width: 0.8"/>
      </g>
     </g>
     <g id="text_3">
      <!-- 20 -->
      <g transform="translate(125.852693 117.444125) scale(0.12 -0.12)">
       <defs>
        <path id="Helvetica-32" d="M 200 0 
Q 231 578 439 1006 
Q 647 1434 1250 1784 
L 1850 2131 
Q 2253 2366 2416 2531 
Q 2672 2791 2672 3125 
Q 2672 3516 2437 3745 
Q 2203 3975 1813 3975 
Q 1234 3975 1013 3538 
Q 894 3303 881 2888 
L 309 2888 
Q 319 3472 525 3841 
Q 891 4491 1816 4491 
Q 2584 4491 2939 4075 
Q 3294 3659 3294 3150 
Q 3294 2613 2916 2231 
Q 2697 2009 2131 1694 
L 1703 1456 
Q 1397 1288 1222 1134 
Q 909 863 828 531 
L 3272 531 
L 3272 0 
L 200 0 
z
" transform="scale(0.015625)"/>
       </defs>
       <use xlink:href="#Helvetica-32"/>
       <use xlink:href="#Helvetica-30" x="55.615234"/>
      </g>
     </g>
    </g>
   </g>
   <g id="matplotlib.axis_2">
    <g id="ytick_1">
     <g id="line2d_7">
      <defs>
       <path id="m46c6082112" d="M 0 0 
L 3.5 0 
" style="stroke: #000000; stroke-width: 0.8"/>
      </defs>
      <g>
       <use xlink:href="#m46c6082112" x="36.72" y="105.336" style="stroke: #000000; stroke-width: 0.8"/>
      </g>
     </g>
     <g id="text_4">
      <!-- $\mathdefault{10^{0}}$ -->
      <g transform="translate(14.74 109.640062) scale(0.12 -0.12)">
       <use xlink:href="#Helvetica-31" transform="translate(0 0.446875)"/>
       <use xlink:href="#Helvetica-30" transform="translate(55.615234 0.446875)"/>
       <use xlink:href="#Helvetica-30" transform="translate(112.145664 37.054688) scale(0.7)"/>
      </g>
     </g>
    </g>
    <g id="ytick_2">
     <g id="line2d_8">
      <g>
       <use xlink:href="#m46c6082112" x="36.72" y="60.073192" style="stroke: #000000; stroke-width: 0.8"/>
      </g>
     </g>
     <g id="text_5">
      <!-- $\mathdefault{10^{1}}$ -->
      <g transform="translate(14.74 64.377255) scale(0.12 -0.12)">
       <use xlink:href="#Helvetica-31" transform="translate(0 0.654688)"/>
       <use xlink:href="#Helvetica-30" transform="translate(55.615234 0.654688)"/>
       <use xlink:href="#Helvetica-31" transform="translate(112.145664 37.2625) scale(0.7)"/>
      </g>
     </g>
    </g>
    <g id="ytick_3">
     <g id="line2d_9">
      <g>
       <use xlink:href="#m46c6082112" x="36.72" y="14.810385" style="stroke: #000000; stroke-width: 0.8"/>
      </g>
     </g>
     <g id="text_6">
      <!-- $\mathdefault{10^{2}}$ -->
      <g transform="translate(14.74 19.114447) scale(0.12 -0.12)">
       <use xlink:href="#Helvetica-31" transform="translate(0 0.271875)"/>
       <use xlink:href="#Helvetica-30" transform="translate(55.615234 0.271875)"/>
       <use xlink:href="#Helvetica-32" transform="translate(112.145664 36.879688) scale(0.7)"/>
      </g>
     </g>
    </g>
    <g id="ytick_4">
     <g id="line2d_10">
      <defs>
       <path id="md7caace73d" d="M 0 0 
L 2 0 
" style="stroke: #000000; stroke-width: 0.6"/>
      </defs>
      <g>
       <use xlink:href="#md7caace73d" x="36.72" y="91.710537" style="stroke: #000000; stroke-width: 0.6"/>
      </g>
     </g>
    </g>
    <g id="ytick_5">
     <g id="line2d_11">
      <g>
       <use xlink:href="#md7caace73d" x="36.72" y="83.740152" style="stroke: #000000; stroke-width: 0.6"/>
      </g>
     </g>
    </g>
    <g id="ytick_6">
     <g id="line2d_12">
      <g>
       <use xlink:href="#md7caace73d" x="36.72" y="78.085074" style="stroke: #000000; stroke-width: 0.6"/>
      </g>
     </g>
    </g>
    <g id="ytick_7">
     <g id="line2d_13">
      <g>
       <use xlink:href="#md7caace73d" x="36.72" y="73.698655" style="stroke: #000000; stroke-width: 0.6"/>
      </g>
     </g>
    </g>
    <g id="ytick_8">
     <g id="line2d_14">
      <g>
       <use xlink:href="#md7caace73d" x="36.72" y="70.11469" style="stroke: #000000; stroke-width: 0.6"/>
      </g>
     </g>
    </g>
    <g id="ytick_9">
     <g id="line2d_15">
      <g>
       <use xlink:href="#md7caace73d" x="36.72" y="67.08449" style="stroke: #000000; stroke-width: 0.6"/>
      </g>
     </g>
    </g>
    <g id="ytick_10">
     <g id="line2d_16">
      <g>
       <use xlink:href="#md7caace73d" x="36.72" y="64.459612" style="stroke: #000000; stroke-width: 0.6"/>
      </g>
     </g>
    </g>
    <g id="ytick_11">
     <g id="line2d_17">
      <g>
       <use xlink:href="#md7caace73d" x="36.72" y="62.144305" style="stroke: #000000; stroke-width: 0.6"/>
      </g>
     </g>
    </g>
    <g id="ytick_12">
     <g id="line2d_18">
      <g>
       <use xlink:href="#md7caace73d" x="36.72" y="46.44773" style="stroke: #000000; stroke-width: 0.6"/>
      </g>
     </g>
    </g>
    <g id="ytick_13">
     <g id="line2d_19">
      <g>
       <use xlink:href="#md7caace73d" x="36.72" y="38.477345" style="stroke: #000000; stroke-width: 0.6"/>
      </g>
     </g>
    </g>
    <g id="ytick_14">
     <g id="line2d_20">
      <g>
       <use xlink:href="#md7caace73d" x="36.72" y="32.822267" style="stroke: #000000; stroke-width: 0.6"/>
      </g>
     </g>
    </g>
    <g id="ytick_15">
     <g id="line2d_21">
      <g>
       <use xlink:href="#md7caace73d" x="36.72" y="28.435848" style="stroke: #000000; stroke-width: 0.6"/>
      </g>
     </g>
    </g>
    <g id="ytick_16">
     <g id="line2d_22">
      <g>
       <use xlink:href="#md7caace73d" x="36.72" y="24.851882" style="stroke: #000000; stroke-width: 0.6"/>
      </g>
     </g>
    </g>
    <g id="ytick_17">
     <g id="line2d_23">
      <g>
       <use xlink:href="#md7caace73d" x="36.72" y="21.821682" style="stroke: #000000; stroke-width: 0.6"/>
      </g>
     </g>
    </g>
    <g id="ytick_18">
     <g id="line2d_24">
      <g>
       <use xlink:href="#md7caace73d" x="36.72" y="19.196804" style="stroke: #000000; stroke-width: 0.6"/>
      </g>
     </g>
    </g>
    <g id="ytick_19">
     <g id="line2d_25">
      <g>
       <use xlink:href="#md7caace73d" x="36.72" y="16.881497" style="stroke: #000000; stroke-width: 0.6"/>
      </g>
     </g>
    </g>
   </g>
   <g id="LineCollection_1">
    <path d="M 39.056727 28.435848 
L 39.056727 28.435848 
" clip-path="url(#p46b37ce9ca)" style="fill: none; stroke: #000000"/>
    <path d="M 43.730182 39.050804 
L 43.730182 35.725846 
" clip-path="url(#p46b37ce9ca)" style="fill: none; stroke: #000000"/>
    <path d="M 48.403636 45.524963 
L 48.403636 41.296336 
" clip-path="url(#p46b37ce9ca)" style="fill: none; stroke: #000000"/>
    <path d="M 53.077091 48.743698 
L 53.077091 43.989326 
" clip-path="url(#p46b37ce9ca)" style="fill: none; stroke: #000000"/>
    <path d="M 57.750545 53.278266 
L 57.750545 51.161508 
" clip-path="url(#p46b37ce9ca)" style="fill: none; stroke: #000000"/>
    <path d="M 62.424 57.04296 
L 62.424 50.068172 
" clip-path="url(#p46b37ce9ca)" style="fill: none; stroke: #000000"/>
    <path d="M 67.097455 64.004064 
L 67.097455 56.825644 
" clip-path="url(#p46b37ce9ca)" style="fill: none; stroke: #000000"/>
    <path d="M 71.770909 70.269153 
L 71.770909 66.57186 
" clip-path="url(#p46b37ce9ca)" style="fill: none; stroke: #000000"/>
    <path d="M 76.444364 75.403218 
L 76.444364 71.354048 
" clip-path="url(#p46b37ce9ca)" style="fill: none; stroke: #000000"/>
    <path d="M 81.117818 80.204608 
L 81.117818 78.175776 
" clip-path="url(#p46b37ce9ca)" style="fill: none; stroke: #000000"/>
    <path d="M 85.791273 86.507251 
L 85.791273 84.037439 
" clip-path="url(#p46b37ce9ca)" style="fill: none; stroke: #000000"/>
    <path clip-path="url(#p46b37ce9ca)" style="fill: none; stroke: #000000"/>
    <path d="M 95.138182 121.888319 
L 95.138182 117.712317 
" clip-path="url(#p46b37ce9ca)" style="fill: none; stroke: #000000"/>
    <path d="M 99.811636 130.838642 
L 99.811636 126.092988 
" clip-path="url(#p46b37ce9ca)" style="fill: none; stroke: #000000"/>
    <path d="M 104.485091 110.861893 
L 104.485091 97.587238 
" clip-path="url(#p46b37ce9ca)" style="fill: none; stroke: #000000"/>
    <path d="M 109.158545 98.625696 
L 109.158545 89.468884 
" clip-path="url(#p46b37ce9ca)" style="fill: none; stroke: #000000"/>
    <path d="M 113.832 103.38776 
L 113.832 99.12522 
" clip-path="url(#p46b37ce9ca)" style="fill: none; stroke: #000000"/>
    <path d="M 118.505455 111.944516 
L 118.505455 95.514914 
" clip-path="url(#p46b37ce9ca)" style="fill: none; stroke: #000000"/>
    <path d="M 123.178909 98.564225 
L 123.178909 92.0521 
" clip-path="url(#p46b37ce9ca)" style="fill: none; stroke: #000000"/>
    <path d="M 127.852364 101.670298 
L 127.852364 93.435382 
" clip-path="url(#p46b37ce9ca)" style="fill: none; stroke: #000000"/>
    <path d="M 132.525818 95.999582 
L 132.525818 91.368028 
" clip-path="url(#p46b37ce9ca)" style="fill: none; stroke: #000000"/>
   </g>
   <g id="line2d_26">
    <defs>
     <path id="m1d41fc572e" d="M 2 0 
L -2 -0 
" style="stroke: #000000"/>
    </defs>
    <g clip-path="url(#p46b37ce9ca)">
     <use xlink:href="#m1d41fc572e" x="39.056727" y="28.435848" style="stroke: #000000"/>
     <use xlink:href="#m1d41fc572e" x="43.730182" y="39.050804" style="stroke: #000000"/>
     <use xlink:href="#m1d41fc572e" x="48.403636" y="45.524963" style="stroke: #000000"/>
     <use xlink:href="#m1d41fc572e" x="53.077091" y="48.743698" style="stroke: #000000"/>
     <use xlink:href="#m1d41fc572e" x="57.750545" y="53.278266" style="stroke: #000000"/>
     <use xlink:href="#m1d41fc572e" x="62.424" y="57.04296" style="stroke: #000000"/>
     <use xlink:href="#m1d41fc572e" x="67.097455" y="64.004064" style="stroke: #000000"/>
     <use xlink:href="#m1d41fc572e" x="71.770909" y="70.269153" style="stroke: #000000"/>
     <use xlink:href="#m1d41fc572e" x="76.444364" y="75.403218" style="stroke: #000000"/>
     <use xlink:href="#m1d41fc572e" x="81.117818" y="80.204608" style="stroke: #000000"/>
     <use xlink:href="#m1d41fc572e" x="85.791273" y="86.507251" style="stroke: #000000"/>
     <use xlink:href="#m1d41fc572e" x="90.464727" y="150.598808" style="stroke: #000000"/>
     <use xlink:href="#m1d41fc572e" x="95.138182" y="121.888319" style="stroke: #000000"/>
     <use xlink:href="#m1d41fc572e" x="99.811636" y="130.838642" style="stroke: #000000"/>
     <use xlink:href="#m1d41fc572e" x="104.485091" y="110.861893" style="stroke: #000000"/>
     <use xlink:href="#m1d41fc572e" x="109.158545" y="98.625696" style="stroke: #000000"/>
     <use xlink:href="#m1d41fc572e" x="113.832" y="103.38776" style="stroke: #000000"/>
     <use xlink:href="#m1d41fc572e" x="118.505455" y="111.944516" style="stroke: #000000"/>
     <use xlink:href="#m1d41fc572e" x="123.178909" y="98.564225" style="stroke: #000000"/>
     <use xlink:href="#m1d41fc572e" x="127.852364" y="101.670298" style="stroke: #000000"/>
     <use xlink:href="#m1d41fc572e" x="132.525818" y="95.999582" style="stroke: #000000"/>
    </g>
   </g>
   <g id="line2d_27">
    <g clip-path="url(#p46b37ce9ca)">
     <use xlink:href="#m1d41fc572e" x="39.056727" y="28.435848" style="stroke: #000000"/>
     <use xlink:href="#m1d41fc572e" x="43.730182" y="35.725846" style="stroke: #000000"/>
     <use xlink:href="#m1d41fc572e" x="48.403636" y="41.296336" style="stroke: #000000"/>
     <use xlink:href="#m1d41fc572e" x="53.077091" y="43.989326" style="stroke: #000000"/>
     <use xlink:href="#m1d41fc572e" x="57.750545" y="51.161508" style="stroke: #000000"/>
     <use xlink:href="#m1d41fc572e" x="62.424" y="50.068172" style="stroke: #000000"/>
     <use xlink:href="#m1d41fc572e" x="67.097455" y="56.825644" style="stroke: #000000"/>
     <use xlink:href="#m1d41fc572e" x="71.770909" y="66.57186" style="stroke: #000000"/>
     <use xlink:href="#m1d41fc572e" x="76.444364" y="71.354048" style="stroke: #000000"/>
     <use xlink:href="#m1d41fc572e" x="81.117818" y="78.175776" style="stroke: #000000"/>
     <use xlink:href="#m1d41fc572e" x="85.791273" y="84.037439" style="stroke: #000000"/>
     <use xlink:href="#m1d41fc572e" x="90.464727" y="150.598808" style="stroke: #000000"/>
     <use xlink:href="#m1d41fc572e" x="95.138182" y="117.712317" style="stroke: #000000"/>
     <use xlink:href="#m1d41fc572e" x="99.811636" y="126.092988" style="stroke: #000000"/>
     <use xlink:href="#m1d41fc572e" x="104.485091" y="97.587238" style="stroke: #000000"/>
     <use xlink:href="#m1d41fc572e" x="109.158545" y="89.468884" style="stroke: #000000"/>
     <use xlink:href="#m1d41fc572e" x="113.832" y="99.12522" style="stroke: #000000"/>
     <use xlink:href="#m1d41fc572e" x="118.505455" y="95.514914" style="stroke: #000000"/>
     <use xlink:href="#m1d41fc572e" x="123.178909" y="92.0521" style="stroke: #000000"/>
     <use xlink:href="#m1d41fc572e" x="127.852364" y="93.435382" style="stroke: #000000"/>
     <use xlink:href="#m1d41fc572e" x="132.525818" y="91.368028" style="stroke: #000000"/>
    </g>
   </g>
   <g id="LineCollection_2">
    <path d="M 39.056727 28.435848 
L 39.056727 28.435848 
" clip-path="url(#p46b37ce9ca)" style="fill: none; stroke: #000000"/>
    <path d="M 43.730182 39.050804 
L 43.730182 35.725846 
" clip-path="url(#p46b37ce9ca)" style="fill: none; stroke: #000000"/>
    <path d="M 48.403636 45.524963 
L 48.403636 41.296336 
" clip-path="url(#p46b37ce9ca)" style="fill: none; stroke: #000000"/>
    <path d="M 53.077091 36.535747 
L 53.077091 33.535357 
" clip-path="url(#p46b37ce9ca)" style="fill: none; stroke: #000000"/>
    <path d="M 57.750545 20.429253 
L 57.750545 19.747221 
" clip-path="url(#p46b37ce9ca)" style="fill: none; stroke: #000000"/>
    <path d="M 62.424 21.787044 
L 62.424 20.138582 
" clip-path="url(#p46b37ce9ca)" style="fill: none; stroke: #000000"/>
    <path d="M 67.097455 24.222712 
L 67.097455 22.144435 
" clip-path="url(#p46b37ce9ca)" style="fill: none; stroke: #000000"/>
    <path d="M 71.770909 27.444126 
L 71.770909 23.820523 
" clip-path="url(#p46b37ce9ca)" style="fill: none; stroke: #000000"/>
    <path d="M 76.444364 31.090158 
L 76.444364 26.493199 
" clip-path="url(#p46b37ce9ca)" style="fill: none; stroke: #000000"/>
    <path d="M 81.117818 36.281719 
L 81.117818 31.159752 
" clip-path="url(#p46b37ce9ca)" style="fill: none; stroke: #000000"/>
    <path d="M 85.791273 43.072014 
L 85.791273 38.494646 
" clip-path="url(#p46b37ce9ca)" style="fill: none; stroke: #000000"/>
    <path d="M 90.464727 62.22778 
L 90.464727 52.905591 
" clip-path="url(#p46b37ce9ca)" style="fill: none; stroke: #000000"/>
    <path d="M 95.138182 61.611805 
L 95.138182 54.494897 
" clip-path="url(#p46b37ce9ca)" style="fill: none; stroke: #000000"/>
    <path d="M 99.811636 67.494516 
L 99.811636 57.250754 
" clip-path="url(#p46b37ce9ca)" style="fill: none; stroke: #000000"/>
    <path d="M 104.485091 72.409325 
L 104.485091 56.113224 
" clip-path="url(#p46b37ce9ca)" style="fill: none; stroke: #000000"/>
    <path d="M 109.158545 74.574116 
L 109.158545 56.55522 
" clip-path="url(#p46b37ce9ca)" style="fill: none; stroke: #000000"/>
    <path d="M 113.832 80.873077 
L 113.832 63.079259 
" clip-path="url(#p46b37ce9ca)" style="fill: none; stroke: #000000"/>
    <path d="M 118.505455 90.348901 
L 118.505455 69.382927 
" clip-path="url(#p46b37ce9ca)" style="fill: none; stroke: #000000"/>
    <path d="M 123.178909 84.97653 
L 123.178909 72.103118 
" clip-path="url(#p46b37ce9ca)" style="fill: none; stroke: #000000"/>
    <path d="M 127.852364 84.334796 
L 127.852364 77.897283 
" clip-path="url(#p46b37ce9ca)" style="fill: none; stroke: #000000"/>
    <path d="M 132.525818 84.200756 
L 132.525818 82.171807 
" clip-path="url(#p46b37ce9ca)" style="fill: none; stroke: #000000"/>
   </g>
   <g id="line2d_28">
    <g clip-path="url(#p46b37ce9ca)">
     <use xlink:href="#m1d41fc572e" x="39.056727" y="28.435848" style="stroke: #000000"/>
     <use xlink:href="#m1d41fc572e" x="43.730182" y="39.050804" style="stroke: #000000"/>
     <use xlink:href="#m1d41fc572e" x="48.403636" y="45.524963" style="stroke: #000000"/>
     <use xlink:href="#m1d41fc572e" x="53.077091" y="36.535747" style="stroke: #000000"/>
     <use xlink:href="#m1d41fc572e" x="57.750545" y="20.429253" style="stroke: #000000"/>
     <use xlink:href="#m1d41fc572e" x="62.424" y="21.787044" style="stroke: #000000"/>
     <use xlink:href="#m1d41fc572e" x="67.097455" y="24.222712" style="stroke: #000000"/>
     <use xlink:href="#m1d41fc572e" x="71.770909" y="27.444126" style="stroke: #000000"/>
     <use xlink:href="#m1d41fc572e" x="76.444364" y="31.090158" style="stroke: #000000"/>
     <use xlink:href="#m1d41fc572e" x="81.117818" y="36.281719" style="stroke: #000000"/>
     <use xlink:href="#m1d41fc572e" x="85.791273" y="43.072014" style="stroke: #000000"/>
     <use xlink:href="#m1d41fc572e" x="90.464727" y="62.22778" style="stroke: #000000"/>
     <use xlink:href="#m1d41fc572e" x="95.138182" y="61.611805" style="stroke: #000000"/>
     <use xlink:href="#m1d41fc572e" x="99.811636" y="67.494516" style="stroke: #000000"/>
     <use xlink:href="#m1d41fc572e" x="104.485091" y="72.409325" style="stroke: #000000"/>
     <use xlink:href="#m1d41fc572e" x="109.158545" y="74.574116" style="stroke: #000000"/>
     <use xlink:href="#m1d41fc572e" x="113.832" y="80.873077" style="stroke: #000000"/>
     <use xlink:href="#m1d41fc572e" x="118.505455" y="90.348901" style="stroke: #000000"/>
     <use xlink:href="#m1d41fc572e" x="123.178909" y="84.97653" style="stroke: #000000"/>
     <use xlink:href="#m1d41fc572e" x="127.852364" y="84.334796" style="stroke: #000000"/>
     <use xlink:href="#m1d41fc572e" x="132.525818" y="84.200756" style="stroke: #000000"/>
    </g>
   </g>
   <g id="line2d_29">
    <g clip-path="url(#p46b37ce9ca)">
     <use xlink:href="#m1d41fc572e" x="39.056727" y="28.435848" style="stroke: #000000"/>
     <use xlink:href="#m1d41fc572e" x="43.730182" y="35.725846" style="stroke: #000000"/>
     <use xlink:href="#m1d41fc572e" x="48.403636" y="41.296336" style="stroke: #000000"/>
     <use xlink:href="#m1d41fc572e" x="53.077091" y="33.535357" style="stroke: #000000"/>
     <use xlink:href="#m1d41fc572e" x="57.750545" y="19.747221" style="stroke: #000000"/>
     <use xlink:href="#m1d41fc572e" x="62.424" y="20.138582" style="stroke: #000000"/>
     <use xlink:href="#m1d41fc572e" x="67.097455" y="22.144435" style="stroke: #000000"/>
     <use xlink:href="#m1d41fc572e" x="71.770909" y="23.820523" style="stroke: #000000"/>
     <use xlink:href="#m1d41fc572e" x="76.444364" y="26.493199" style="stroke: #000000"/>
     <use xlink:href="#m1d41fc572e" x="81.117818" y="31.159752" style="stroke: #000000"/>
     <use xlink:href="#m1d41fc572e" x="85.791273" y="38.494646" style="stroke: #000000"/>
     <use xlink:href="#m1d41fc572e" x="90.464727" y="52.905591" style="stroke: #000000"/>
     <use xlink:href="#m1d41fc572e" x="95.138182" y="54.494897" style="stroke: #000000"/>
     <use xlink:href="#m1d41fc572e" x="99.811636" y="57.250754" style="stroke: #000000"/>
     <use xlink:href="#m1d41fc572e" x="104.485091" y="56.113224" style="stroke: #000000"/>
     <use xlink:href="#m1d41fc572e" x="109.158545" y="56.55522" style="stroke: #000000"/>
     <use xlink:href="#m1d41fc572e" x="113.832" y="63.079259" style="stroke: #000000"/>
     <use xlink:href="#m1d41fc572e" x="118.505455" y="69.382927" style="stroke: #000000"/>
     <use xlink:href="#m1d41fc572e" x="123.178909" y="72.103118" style="stroke: #000000"/>
     <use xlink:href="#m1d41fc572e" x="127.852364" y="77.897283" style="stroke: #000000"/>
     <use xlink:href="#m1d41fc572e" x="132.525818" y="82.171807" style="stroke: #000000"/>
    </g>
   </g>
   <g id="LineCollection_3">
    <path d="M 39.056727 28.435848 
L 39.056727 28.435848 
" clip-path="url(#p46b37ce9ca)" style="fill: none; stroke: #000000"/>
    <path d="M 43.730182 39.050804 
L 43.730182 35.725846 
" clip-path="url(#p46b37ce9ca)" style="fill: none; stroke: #000000"/>
    <path d="M 48.403636 45.524963 
L 48.403636 41.296336 
" clip-path="url(#p46b37ce9ca)" style="fill: none; stroke: #000000"/>
    <path d="M 53.077091 15.519913 
L 53.077091 15.446262 
" clip-path="url(#p46b37ce9ca)" style="fill: none; stroke: #000000"/>
    <path d="M 57.750545 17.358448 
L 57.750545 15.710626 
" clip-path="url(#p46b37ce9ca)" style="fill: none; stroke: #000000"/>
    <path d="M 62.424 16.19443 
L 62.424 15.729045 
" clip-path="url(#p46b37ce9ca)" style="fill: none; stroke: #000000"/>
    <path d="M 67.097455 18.069335 
L 67.097455 16.575619 
" clip-path="url(#p46b37ce9ca)" style="fill: none; stroke: #000000"/>
    <path d="M 71.770909 17.462266 
L 71.770909 15.89369 
" clip-path="url(#p46b37ce9ca)" style="fill: none; stroke: #000000"/>
    <path d="M 76.444364 15.619624 
L 76.444364 15.186558 
" clip-path="url(#p46b37ce9ca)" style="fill: none; stroke: #000000"/>
    <path d="M 81.117818 17.142575 
L 81.117818 14.853278 
" clip-path="url(#p46b37ce9ca)" style="fill: none; stroke: #000000"/>
    <path d="M 85.791273 16.722415 
L 85.791273 15.670592 
" clip-path="url(#p46b37ce9ca)" style="fill: none; stroke: #000000"/>
    <path d="M 90.464727 17.991144 
L 90.464727 16.476139 
" clip-path="url(#p46b37ce9ca)" style="fill: none; stroke: #000000"/>
    <path d="M 95.138182 16.015979 
L 95.138182 15.455727 
" clip-path="url(#p46b37ce9ca)" style="fill: none; stroke: #000000"/>
    <path d="M 99.811636 15.863969 
L 99.811636 14.332772 
" clip-path="url(#p46b37ce9ca)" style="fill: none; stroke: #000000"/>
    <path d="M 104.485091 15.436121 
L 104.485091 13.586114 
" clip-path="url(#p46b37ce9ca)" style="fill: none; stroke: #000000"/>
    <path d="M 109.158545 15.07851 
L 109.158545 13.597245 
" clip-path="url(#p46b37ce9ca)" style="fill: none; stroke: #000000"/>
    <path d="M 113.832 16.54952 
L 113.832 14.692463 
" clip-path="url(#p46b37ce9ca)" style="fill: none; stroke: #000000"/>
    <path d="M 118.505455 16.498479 
L 118.505455 14.368079 
" clip-path="url(#p46b37ce9ca)" style="fill: none; stroke: #000000"/>
    <path d="M 123.178909 17.288068 
L 123.178909 15.753844 
" clip-path="url(#p46b37ce9ca)" style="fill: none; stroke: #000000"/>
    <path d="M 127.852364 16.063127 
L 127.852364 13.352947 
" clip-path="url(#p46b37ce9ca)" style="fill: none; stroke: #000000"/>
    <path d="M 132.525818 15.157403 
L 132.525818 14.017626 
" clip-path="url(#p46b37ce9ca)" style="fill: none; stroke: #000000"/>
   </g>
   <g id="line2d_30">
    <g clip-path="url(#p46b37ce9ca)">
     <use xlink:href="#m1d41fc572e" x="39.056727" y="28.435848" style="stroke: #000000"/>
     <use xlink:href="#m1d41fc572e" x="43.730182" y="39.050804" style="stroke: #000000"/>
     <use xlink:href="#m1d41fc572e" x="48.403636" y="45.524963" style="stroke: #000000"/>
     <use xlink:href="#m1d41fc572e" x="53.077091" y="15.519913" style="stroke: #000000"/>
     <use xlink:href="#m1d41fc572e" x="57.750545" y="17.358448" style="stroke: #000000"/>
     <use xlink:href="#m1d41fc572e" x="62.424" y="16.19443" style="stroke: #000000"/>
     <use xlink:href="#m1d41fc572e" x="67.097455" y="18.069335" style="stroke: #000000"/>
     <use xlink:href="#m1d41fc572e" x="71.770909" y="17.462266" style="stroke: #000000"/>
     <use xlink:href="#m1d41fc572e" x="76.444364" y="15.619624" style="stroke: #000000"/>
     <use xlink:href="#m1d41fc572e" x="81.117818" y="17.142575" style="stroke: #000000"/>
     <use xlink:href="#m1d41fc572e" x="85.791273" y="16.722415" style="stroke: #000000"/>
     <use xlink:href="#m1d41fc572e" x="90.464727" y="17.991144" style="stroke: #000000"/>
     <use xlink:href="#m1d41fc572e" x="95.138182" y="16.015979" style="stroke: #000000"/>
     <use xlink:href="#m1d41fc572e" x="99.811636" y="15.863969" style="stroke: #000000"/>
     <use xlink:href="#m1d41fc572e" x="104.485091" y="15.436121" style="stroke: #000000"/>
     <use xlink:href="#m1d41fc572e" x="109.158545" y="15.07851" style="stroke: #000000"/>
     <use xlink:href="#m1d41fc572e" x="113.832" y="16.54952" style="stroke: #000000"/>
     <use xlink:href="#m1d41fc572e" x="118.505455" y="16.498479" style="stroke: #000000"/>
     <use xlink:href="#m1d41fc572e" x="123.178909" y="17.288068" style="stroke: #000000"/>
     <use xlink:href="#m1d41fc572e" x="127.852364" y="16.063127" style="stroke: #000000"/>
     <use xlink:href="#m1d41fc572e" x="132.525818" y="15.157403" style="stroke: #000000"/>
    </g>
   </g>
   <g id="line2d_31">
    <g clip-path="url(#p46b37ce9ca)">
     <use xlink:href="#m1d41fc572e" x="39.056727" y="28.435848" style="stroke: #000000"/>
     <use xlink:href="#m1d41fc572e" x="43.730182" y="35.725846" style="stroke: #000000"/>
     <use xlink:href="#m1d41fc572e" x="48.403636" y="41.296336" style="stroke: #000000"/>
     <use xlink:href="#m1d41fc572e" x="53.077091" y="15.446262" style="stroke: #000000"/>
     <use xlink:href="#m1d41fc572e" x="57.750545" y="15.710626" style="stroke: #000000"/>
     <use xlink:href="#m1d41fc572e" x="62.424" y="15.729045" style="stroke: #000000"/>
     <use xlink:href="#m1d41fc572e" x="67.097455" y="16.575619" style="stroke: #000000"/>
     <use xlink:href="#m1d41fc572e" x="71.770909" y="15.89369" style="stroke: #000000"/>
     <use xlink:href="#m1d41fc572e" x="76.444364" y="15.186558" style="stroke: #000000"/>
     <use xlink:href="#m1d41fc572e" x="81.117818" y="14.853278" style="stroke: #000000"/>
     <use xlink:href="#m1d41fc572e" x="85.791273" y="15.670592" style="stroke: #000000"/>
     <use xlink:href="#m1d41fc572e" x="90.464727" y="16.476139" style="stroke: #000000"/>
     <use xlink:href="#m1d41fc572e" x="95.138182" y="15.455727" style="stroke: #000000"/>
     <use xlink:href="#m1d41fc572e" x="99.811636" y="14.332772" style="stroke: #000000"/>
     <use xlink:href="#m1d41fc572e" x="104.485091" y="13.586114" style="stroke: #000000"/>
     <use xlink:href="#m1d41fc572e" x="109.158545" y="13.597245" style="stroke: #000000"/>
     <use xlink:href="#m1d41fc572e" x="113.832" y="14.692463" style="stroke: #000000"/>
     <use xlink:href="#m1d41fc572e" x="118.505455" y="14.368079" style="stroke: #000000"/>
     <use xlink:href="#m1d41fc572e" x="123.178909" y="15.753844" style="stroke: #000000"/>
     <use xlink:href="#m1d41fc572e" x="127.852364" y="13.352947" style="stroke: #000000"/>
     <use xlink:href="#m1d41fc572e" x="132.525818" y="14.017626" style="stroke: #000000"/>
    </g>
   </g>
   <g id="line2d_32">
    <path d="M 39.056727 28.435848 
L 43.730182 37.318109 
L 48.403636 43.297163 
L 53.077091 46.223123 
L 57.750545 52.191409 
L 62.424 53.247828 
L 67.097455 60.088984 
L 71.770909 68.333708 
L 76.444364 73.274557 
L 81.117818 79.164029 
L 85.791273 85.233581 
L 89.549644 137.8 
M 92.399902 137.8 
L 95.138182 119.689633 
L 99.811636 128.32295 
L 104.485091 103.124683 
L 109.158545 93.518863 
L 113.832 101.141178 
L 118.505455 102.060988 
L 123.178909 95.039718 
L 127.852364 97.124733 
L 132.525818 93.547712 
" clip-path="url(#p46b37ce9ca)" style="fill: none"/>
   </g>
   <g id="line2d_33">
    <path d="M 39.056727 28.435848 
L 43.730182 37.318109 
L 48.403636 43.297163 
L 53.077091 34.978363 
L 57.750545 20.085279 
L 62.424 20.945538 
L 67.097455 23.156121 
L 71.770909 25.548947 
L 76.444364 28.657606 
L 81.117818 33.554382 
L 85.791273 40.650395 
L 90.464727 57.019176 
L 95.138182 57.733012 
L 99.811636 61.712779 
L 104.485091 62.618828 
L 109.158545 63.568522 
L 113.832 70.028006 
L 118.505455 77.193941 
L 123.178909 77.504302 
L 127.852364 80.853684 
L 132.525818 83.160116 
" clip-path="url(#p46b37ce9ca)" style="fill: none"/>
   </g>
   <g id="line2d_34">
    <path d="M 39.056727 28.435848 
L 43.730182 37.318109 
L 48.403636 43.297163 
L 53.077091 15.483053 
L 57.750545 16.517276 
L 62.424 15.96036 
L 67.097455 17.308293 
L 71.770909 16.662336 
L 76.444364 15.401898 
L 81.117818 15.964619 
L 85.791273 16.18947 
L 90.464727 17.21905 
L 95.138182 15.733857 
L 99.811636 15.083465 
L 104.485091 14.489362 
L 109.158545 14.323928 
L 113.832 15.59907 
L 118.505455 15.404433 
L 123.178909 16.505992 
L 127.852364 14.661367 
L 132.525818 14.579255 
" clip-path="url(#p46b37ce9ca)" style="fill: none"/>
   </g>
   <g id="patch_3">
    <path d="M 36.72 105.336 
L 36.72 6.84 
" style="fill: none; stroke: #000000; stroke-width: 0.8; stroke-linejoin: miter; stroke-linecap: square"/>
   </g>
   <g id="patch_4">
    <path d="M 139.536 105.336 
L 139.536 6.84 
" style="fill: none; stroke: #000000; stroke-width: 0.8; stroke-linejoin: miter; stroke-linecap: square"/>
   </g>
   <g id="patch_5">
    <path d="M 36.72 105.336 
L 139.536 105.336 
" style="fill: none; stroke: #000000; stroke-width: 0.8; stroke-linejoin: miter; stroke-linecap: square"/>
   </g>
   <g id="patch_6">
    <path d="M 36.72 6.84 
L 139.536 6.84 
" style="fill: none; stroke: #000000; stroke-width: 0.8; stroke-linejoin: miter; stroke-linecap: square"/>
   </g>
   <g id="text_7">
    <!-- pUC -->
    <g transform="translate(73.124484 0.84) scale(0.15 -0.15)">
     <defs>
      <path id="Helvetica-70" d="M 1825 378 
Q 2219 378 2480 708 
Q 2741 1038 2741 1694 
Q 2741 2094 2625 2381 
Q 2406 2934 1825 2934 
Q 1241 2934 1025 2350 
Q 909 2038 909 1556 
Q 909 1169 1025 897 
Q 1244 378 1825 378 
z
M 369 3331 
L 916 3331 
L 916 2888 
Q 1084 3116 1284 3241 
Q 1569 3428 1953 3428 
Q 2522 3428 2919 2992 
Q 3316 2556 3316 1747 
Q 3316 653 2744 184 
Q 2381 -113 1900 -113 
Q 1522 -113 1266 53 
Q 1116 147 931 375 
L 931 -1334 
L 369 -1334 
L 369 3331 
z
" transform="scale(0.015625)"/>
      <path id="Helvetica-55" d="M 1163 4591 
L 1163 1753 
Q 1163 1253 1350 922 
Q 1628 422 2288 422 
Q 3078 422 3363 963 
Q 3516 1256 3516 1753 
L 3516 4591 
L 4147 4591 
L 4147 2013 
Q 4147 1166 3919 709 
Q 3500 -122 2338 -122 
Q 1175 -122 759 709 
Q 531 1166 531 2013 
L 531 4591 
L 1163 4591 
z
M 2341 4591 
L 2341 4591 
z
" transform="scale(0.015625)"/>
      <path id="Helvetica-43" d="M 2422 4716 
Q 3294 4716 3775 4256 
Q 4256 3797 4309 3213 
L 3703 3213 
Q 3600 3656 3292 3915 
Q 2984 4175 2428 4175 
Q 1750 4175 1333 3698 
Q 916 3222 916 2238 
Q 916 1431 1292 929 
Q 1669 428 2416 428 
Q 3103 428 3463 956 
Q 3653 1234 3747 1688 
L 4353 1688 
Q 4272 963 3816 472 
Q 3269 -119 2341 -119 
Q 1541 -119 997 366 
Q 281 1006 281 2344 
Q 281 3359 819 4009 
Q 1400 4716 2422 4716 
z
M 2297 4716 
L 2297 4716 
z
" transform="scale(0.015625)"/>
     </defs>
     <use xlink:href="#Helvetica-70"/>
     <use xlink:href="#Helvetica-55" x="55.615234"/>
     <use xlink:href="#Helvetica-43" x="127.832031"/>
    </g>
   </g>
  </g>
 </g>
 <defs>
  <clipPath id="p46b37ce9ca">
   <rect x="36.72" y="6.84" width="102.816" height="98.496"/>
  </clipPath>
 </defs>
</svg>
