<?xml version="1.0" encoding="utf-8" standalone="no"?>
<!DOCTYPE svg PUBLIC "-//W3C//DTD SVG 1.1//EN"
  "http://www.w3.org/Graphics/SVG/1.1/DTD/svg11.dtd">
<svg xmlns:xlink="http://www.w3.org/1999/xlink" width="216pt" height="136.8pt" viewBox="0 0 216 136.8" xmlns="http://www.w3.org/2000/svg" version="1.1">
 <metadata>
  <rdf:RDF xmlns:dc="http://purl.org/dc/elements/1.1/" xmlns:cc="http://creativecommons.org/ns#" xmlns:rdf="http://www.w3.org/1999/02/22-rdf-syntax-ns#">
   <cc:Work>
    <dc:type rdf:resource="http://purl.org/dc/dcmitype/StillImage"/>
    <dc:date>2025-08-17T20:03:28.433811</dc:date>
    <dc:format>image/svg+xml</dc:format>
    <dc:creator>
     <cc:Agent>
      <dc:title>Matplotlib v3.7.5, https://matplotlib.org/</dc:title>
     </cc:Agent>
    </dc:creator>
   </cc:Work>
  </rdf:RDF>
 </metadata>
 <defs>
  <style type="text/css">*{stroke-linejoin: round; stroke-linecap: butt}</style>
 </defs>
 <g id="figure_1">
  <g id="patch_1">
   <path d="M 0 136.8 
L 216 136.8 
L 216 0 
L 0 0 
z
" style="fill: #ffffff"/>
  </g>
  <g id="axes_1">
   <g id="patch_2">
    <path d="M 32.4 116.28 
L 205.2 116.28 
L 205.2 17.784 
L 32.4 17.784 
z
" style="fill: #ffffff"/>
   </g>
   <g id="PathCollection_1">
    <defs>
     <path id="C0_0_d9bc4d7683" d="M 0 2.5 
C 0.663008 2.5 1.29895 2.236584 1.767767 1.767767 
C 2.236584 1.29895 2.5 0.663008 2.5 -0 
C 2.5 -0.663008 2.236584 -1.29895 1.767767 -1.767767 
C 1.29895 -2.236584 0.663008 -2.5 0 -2.5 
C -0.663008 -2.5 -1.29895 -2.236584 -1.767767 -1.767767 
C -2.236584 -1.29895 -2.5 -0.663008 -2.5 0 
C -2.5 0.663008 -2.236584 1.29895 -1.767767 1.767767 
C -1.29895 2.236584 -0.663008 2.5 0 2.5 
z
"/>
    </defs>
    <g clip-path="url(#p0e290a9220)">
     <use xlink:href="#C0_0_d9bc4d7683" x="45.170148" y="70.21596" style="fill: #8da0cb"/>
    </g>
    <g clip-path="url(#p0e290a9220)">
     <use xlink:href="#C0_0_d9bc4d7683" x="46.855162" y="71.59742" style="fill: #8da0cb"/>
    </g>
    <g clip-path="url(#p0e290a9220)">
     <use xlink:href="#C0_0_d9bc4d7683" x="46.819832" y="71.129738" style="fill: #8da0cb"/>
    </g>
   </g>
   <g id="PathCollection_2">
    <defs>
     <path id="C1_0_7884e668a6" d="M 0 2.5 
C 0.663008 2.5 1.29895 2.236584 1.767767 1.767767 
C 2.236584 1.29895 2.5 0.663008 2.5 -0 
C 2.5 -0.663008 2.236584 -1.29895 1.767767 -1.767767 
C 1.29895 -2.236584 0.663008 -2.5 0 -2.5 
C -0.663008 -2.5 -1.29895 -2.236584 -1.767767 -1.767767 
C -2.236584 -1.29895 -2.5 -0.663008 -2.5 0 
C -2.5 0.663008 -2.236584 1.29895 -1.767767 1.767767 
C -1.29895 2.236584 -0.663008 2.5 0 2.5 
z
"/>
    </defs>
    <g clip-path="url(#p0e290a9220)">
     <use xlink:href="#C1_0_7884e668a6" x="61.128465" y="44.046064" style="fill: #fc8d62"/>
    </g>
    <g clip-path="url(#p0e290a9220)">
     <use xlink:href="#C1_0_7884e668a6" x="60.350679" y="45.801036" style="fill: #fc8d62"/>
    </g>
    <g clip-path="url(#p0e290a9220)">
     <use xlink:href="#C1_0_7884e668a6" x="60.370564" y="46.399575" style="fill: #fc8d62"/>
    </g>
   </g>
   <g id="PathCollection_3">
    <defs>
     <path id="C2_0_332a8bc2e8" d="M 0 2.5 
C 0.663008 2.5 1.29895 2.236584 1.767767 1.767767 
C 2.236584 1.29895 2.5 0.663008 2.5 -0 
C 2.5 -0.663008 2.236584 -1.29895 1.767767 -1.767767 
C 1.29895 -2.236584 0.663008 -2.5 0 -2.5 
C -0.663008 -2.5 -1.29895 -2.236584 -1.767767 -1.767767 
C -2.236584 -1.29895 -2.5 -0.663008 -2.5 0 
C -2.5 0.663008 -2.236584 1.29895 -1.767767 1.767767 
C -1.29895 2.236584 -0.663008 2.5 0 2.5 
z
"/>
    </defs>
    <g clip-path="url(#p0e290a9220)">
     <use xlink:href="#C2_0_332a8bc2e8" x="80.951491" y="65.789961" style="fill: #8da0cb"/>
    </g>
    <g clip-path="url(#p0e290a9220)">
     <use xlink:href="#C2_0_332a8bc2e8" x="78.567682" y="65.919835" style="fill: #8da0cb"/>
    </g>
    <g clip-path="url(#p0e290a9220)">
     <use xlink:href="#C2_0_332a8bc2e8" x="78.03589" y="65.883666" style="fill: #8da0cb"/>
    </g>
   </g>
   <g id="PathCollection_4">
    <defs>
     <path id="C3_0_c7ae5c6d8d" d="M 0 2.5 
C 0.663008 2.5 1.29895 2.236584 1.767767 1.767767 
C 2.236584 1.29895 2.5 0.663008 2.5 -0 
C 2.5 -0.663008 2.236584 -1.29895 1.767767 -1.767767 
C 1.29895 -2.236584 0.663008 -2.5 0 -2.5 
C -0.663008 -2.5 -1.29895 -2.236584 -1.767767 -1.767767 
C -2.236584 -1.29895 -2.5 -0.663008 -2.5 0 
C -2.5 0.663008 -2.236584 1.29895 -1.767767 1.767767 
C -1.29895 2.236584 -0.663008 2.5 0 2.5 
z
"/>
    </defs>
    <g clip-path="url(#p0e290a9220)">
     <use xlink:href="#C3_0_c7ae5c6d8d" x="92.261139" y="38.291359" style="fill: #fc8d62"/>
    </g>
    <g clip-path="url(#p0e290a9220)">
     <use xlink:href="#C3_0_c7ae5c6d8d" x="93.187153" y="40.551952" style="fill: #fc8d62"/>
    </g>
    <g clip-path="url(#p0e290a9220)">
     <use xlink:href="#C3_0_c7ae5c6d8d" x="93.190216" y="37.110289" style="fill: #fc8d62"/>
    </g>
   </g>
   <g id="PathCollection_5">
    <defs>
     <path id="C4_0_545d9e68e0" d="M 0 2.5 
C 0.663008 2.5 1.29895 2.236584 1.767767 1.767767 
C 2.236584 1.29895 2.5 0.663008 2.5 -0 
C 2.5 -0.663008 2.236584 -1.29895 1.767767 -1.767767 
C 1.29895 -2.236584 0.663008 -2.5 0 -2.5 
C -0.663008 -2.5 -1.29895 -2.236584 -1.767767 -1.767767 
C -2.236584 -1.29895 -2.5 -0.663008 -2.5 0 
C -2.5 0.663008 -2.236584 1.29895 -1.767767 1.767767 
C -1.29895 2.236584 -0.663008 2.5 0 2.5 
z
"/>
    </defs>
    <g clip-path="url(#p0e290a9220)">
     <use xlink:href="#C4_0_545d9e68e0" x="113.50276" y="70.502562" style="fill: #8da0cb"/>
    </g>
    <g clip-path="url(#p0e290a9220)">
     <use xlink:href="#C4_0_545d9e68e0" x="113.179224" y="69.70452" style="fill: #8da0cb"/>
    </g>
    <g clip-path="url(#p0e290a9220)">
     <use xlink:href="#C4_0_545d9e68e0" x="110.769063" y="69.813989" style="fill: #8da0cb"/>
    </g>
   </g>
   <g id="PathCollection_6">
    <defs>
     <path id="C5_0_ff7f4f883e" d="M 0 2.5 
C 0.663008 2.5 1.29895 2.236584 1.767767 1.767767 
C 2.236584 1.29895 2.5 0.663008 2.5 -0 
C 2.5 -0.663008 2.236584 -1.29895 1.767767 -1.767767 
C 1.29895 -2.236584 0.663008 -2.5 0 -2.5 
C -0.663008 -2.5 -1.29895 -2.236584 -1.767767 -1.767767 
C -2.236584 -1.29895 -2.5 -0.663008 -2.5 0 
C -2.5 0.663008 -2.236584 1.29895 -1.767767 1.767767 
C -1.29895 2.236584 -0.663008 2.5 0 2.5 
z
"/>
    </defs>
    <g clip-path="url(#p0e290a9220)">
     <use xlink:href="#C5_0_ff7f4f883e" x="126.24484" y="53.721063" style="fill: #fc8d62"/>
    </g>
    <g clip-path="url(#p0e290a9220)">
     <use xlink:href="#C5_0_ff7f4f883e" x="125.364283" y="51.642883" style="fill: #fc8d62"/>
    </g>
    <g clip-path="url(#p0e290a9220)">
     <use xlink:href="#C5_0_ff7f4f883e" x="125.875691" y="52.06295" style="fill: #fc8d62"/>
    </g>
   </g>
   <g id="PathCollection_7">
    <defs>
     <path id="C6_0_33ddf8540b" d="M 0 2.5 
C 0.663008 2.5 1.29895 2.236584 1.767767 1.767767 
C 2.236584 1.29895 2.5 0.663008 2.5 -0 
C 2.5 -0.663008 2.236584 -1.29895 1.767767 -1.767767 
C 1.29895 -2.236584 0.663008 -2.5 0 -2.5 
C -0.663008 -2.5 -1.29895 -2.236584 -1.767767 -1.767767 
C -2.236584 -1.29895 -2.5 -0.663008 -2.5 0 
C -2.5 0.663008 -2.236584 1.29895 -1.767767 1.767767 
C -1.29895 2.236584 -0.663008 2.5 0 2.5 
z
"/>
    </defs>
    <g clip-path="url(#p0e290a9220)">
     <use xlink:href="#C6_0_33ddf8540b" x="145.244622" y="71.060095" style="fill: #8da0cb"/>
    </g>
    <g clip-path="url(#p0e290a9220)">
     <use xlink:href="#C6_0_33ddf8540b" x="144.439442" y="70.487149" style="fill: #8da0cb"/>
    </g>
    <g clip-path="url(#p0e290a9220)">
     <use xlink:href="#C6_0_33ddf8540b" x="144.279004" y="70.072472" style="fill: #8da0cb"/>
    </g>
   </g>
   <g id="PathCollection_8">
    <defs>
     <path id="C7_0_ab2f23290f" d="M 0 2.5 
C 0.663008 2.5 1.29895 2.236584 1.767767 1.767767 
C 2.236584 1.29895 2.5 0.663008 2.5 -0 
C 2.5 -0.663008 2.236584 -1.29895 1.767767 -1.767767 
C 1.29895 -2.236584 0.663008 -2.5 0 -2.5 
C -0.663008 -2.5 -1.29895 -2.236584 -1.767767 -1.767767 
C -2.236584 -1.29895 -2.5 -0.663008 -2.5 0 
C -2.5 0.663008 -2.236584 1.29895 -1.767767 1.767767 
C -1.29895 2.236584 -0.663008 2.5 0 2.5 
z
"/>
    </defs>
    <g clip-path="url(#p0e290a9220)">
     <use xlink:href="#C7_0_ab2f23290f" x="157.302149" y="49.10715" style="fill: #fc8d62"/>
    </g>
    <g clip-path="url(#p0e290a9220)">
     <use xlink:href="#C7_0_ab2f23290f" x="159.14805" y="49.430787" style="fill: #fc8d62"/>
    </g>
    <g clip-path="url(#p0e290a9220)">
     <use xlink:href="#C7_0_ab2f23290f" x="157.70704" y="49.974686" style="fill: #fc8d62"/>
    </g>
   </g>
   <g id="PathCollection_9">
    <defs>
     <path id="C8_0_5e64e99dc8" d="M 0 2.5 
C 0.663008 2.5 1.29895 2.236584 1.767767 1.767767 
C 2.236584 1.29895 2.5 0.663008 2.5 -0 
C 2.5 -0.663008 2.236584 -1.29895 1.767767 -1.767767 
C 1.29895 -2.236584 0.663008 -2.5 0 -2.5 
C -0.663008 -2.5 -1.29895 -2.236584 -1.767767 -1.767767 
C -2.236584 -1.29895 -2.5 -0.663008 -2.5 0 
C -2.5 0.663008 -2.236584 1.29895 -1.767767 1.767767 
C -1.29895 2.236584 -0.663008 2.5 0 2.5 
z
"/>
    </defs>
    <g clip-path="url(#p0e290a9220)">
     <use xlink:href="#C8_0_5e64e99dc8" x="176.666029" y="72.654897" style="fill: #8da0cb"/>
    </g>
    <g clip-path="url(#p0e290a9220)">
     <use xlink:href="#C8_0_5e64e99dc8" x="176.692624" y="76.320836" style="fill: #8da0cb"/>
    </g>
    <g clip-path="url(#p0e290a9220)">
     <use xlink:href="#C8_0_5e64e99dc8" x="178.718296" y="71.907761" style="fill: #8da0cb"/>
    </g>
   </g>
   <g id="PathCollection_10">
    <defs>
     <path id="C9_0_6cabf7dfb3" d="M 0 2.5 
C 0.663008 2.5 1.29895 2.236584 1.767767 1.767767 
C 2.236584 1.29895 2.5 0.663008 2.5 -0 
C 2.5 -0.663008 2.236584 -1.29895 1.767767 -1.767767 
C 1.29895 -2.236584 0.663008 -2.5 0 -2.5 
C -0.663008 -2.5 -1.29895 -2.236584 -1.767767 -1.767767 
C -2.236584 -1.29895 -2.5 -0.663008 -2.5 0 
C -2.5 0.663008 -2.236584 1.29895 -1.767767 1.767767 
C -1.29895 2.236584 -0.663008 2.5 0 2.5 
z
"/>
    </defs>
    <g clip-path="url(#p0e290a9220)">
     <use xlink:href="#C9_0_6cabf7dfb3" x="189.973298" y="81.511808" style="fill: #fc8d62"/>
    </g>
    <g clip-path="url(#p0e290a9220)">
     <use xlink:href="#C9_0_6cabf7dfb3" x="189.759546" y="85.003076" style="fill: #fc8d62"/>
    </g>
    <g clip-path="url(#p0e290a9220)">
     <use xlink:href="#C9_0_6cabf7dfb3" x="190.986168" y="82.789707" style="fill: #fc8d62"/>
    </g>
   </g>
   <g id="line2d_1"/>
   <g id="line2d_2"/>
   <g id="patch_3">
    <path d="M 40.254545 67.032 
L 53.345455 67.032 
L 53.345455 70.981039 
L 40.254545 70.981039 
L 40.254545 67.032 
z
" clip-path="url(#p0e290a9220)" style="fill: none; stroke: #000000; stroke-width: 0.8; stroke-linejoin: miter"/>
   </g>
   <g id="patch_4">
    <path d="M 72.981818 67.032 
L 86.072727 67.032 
L 86.072727 65.864487 
L 72.981818 65.864487 
L 72.981818 67.032 
z
" clip-path="url(#p0e290a9220)" style="fill: none; stroke: #000000; stroke-width: 0.8; stroke-linejoin: miter"/>
   </g>
   <g id="patch_5">
    <path d="M 105.709091 67.032 
L 118.8 67.032 
L 118.8 70.007024 
L 105.709091 70.007024 
L 105.709091 67.032 
z
" clip-path="url(#p0e290a9220)" style="fill: none; stroke: #000000; stroke-width: 0.8; stroke-linejoin: miter"/>
   </g>
   <g id="patch_6">
    <path d="M 138.436364 67.032 
L 151.527273 67.032 
L 151.527273 70.539905 
L 138.436364 70.539905 
L 138.436364 67.032 
z
" clip-path="url(#p0e290a9220)" style="fill: none; stroke: #000000; stroke-width: 0.8; stroke-linejoin: miter"/>
   </g>
   <g id="patch_7">
    <path d="M 171.163636 67.032 
L 184.254545 67.032 
L 184.254545 73.627832 
L 171.163636 73.627832 
L 171.163636 67.032 
z
" clip-path="url(#p0e290a9220)" style="fill: none; stroke: #000000; stroke-width: 0.8; stroke-linejoin: miter"/>
   </g>
   <g id="patch_8">
    <path d="M 53.345455 67.032 
L 66.436364 67.032 
L 66.436364 45.415558 
L 53.345455 45.415558 
L 53.345455 67.032 
z
" clip-path="url(#p0e290a9220)" style="fill: none; stroke: #000000; stroke-width: 0.8; stroke-linejoin: miter"/>
   </g>
   <g id="patch_9">
    <path d="M 86.072727 67.032 
L 99.163636 67.032 
L 99.163636 38.6512 
L 86.072727 38.6512 
L 86.072727 67.032 
z
" clip-path="url(#p0e290a9220)" style="fill: none; stroke: #000000; stroke-width: 0.8; stroke-linejoin: miter"/>
   </g>
   <g id="patch_10">
    <path d="M 118.8 67.032 
L 131.890909 67.032 
L 131.890909 52.475632 
L 118.8 52.475632 
L 118.8 67.032 
z
" clip-path="url(#p0e290a9220)" style="fill: none; stroke: #000000; stroke-width: 0.8; stroke-linejoin: miter"/>
   </g>
   <g id="patch_11">
    <path d="M 151.527273 67.032 
L 164.618182 67.032 
L 164.618182 49.504208 
L 151.527273 49.504208 
L 151.527273 67.032 
z
" clip-path="url(#p0e290a9220)" style="fill: none; stroke: #000000; stroke-width: 0.8; stroke-linejoin: miter"/>
   </g>
   <g id="patch_12">
    <path d="M 184.254545 67.032 
L 197.345455 67.032 
L 197.345455 83.101531 
L 184.254545 83.101531 
L 184.254545 67.032 
z
" clip-path="url(#p0e290a9220)" style="fill: none; stroke: #000000; stroke-width: 0.8; stroke-linejoin: miter"/>
   </g>
   <g id="matplotlib.axis_1">
    <g id="xtick_1">
     <g id="line2d_3">
      <defs>
       <path id="mc38ae09101" d="M 0 0 
L 0 -3.5 
" style="stroke: #000000; stroke-width: 0.8"/>
      </defs>
      <g>
       <use xlink:href="#mc38ae09101" x="53.345455" y="116.28" style="stroke: #000000; stroke-width: 0.8"/>
      </g>
     </g>
     <g id="text_1">
      <!-- R388 -->
      <g transform="translate(40.911957 137.680053) rotate(-20) scale(0.12 -0.12)">
       <defs>
        <path id="Helvetica-52" d="M 2622 2488 
Q 3059 2488 3314 2663 
Q 3569 2838 3569 3294 
Q 3569 3784 3213 3963 
Q 3022 4056 2703 4056 
L 1184 4056 
L 1184 2488 
L 2622 2488 
z
M 563 4591 
L 2688 4591 
Q 3213 4591 3553 4438 
Q 4200 4144 4200 3353 
Q 4200 2941 4029 2678 
Q 3859 2416 3553 2256 
Q 3822 2147 3958 1969 
Q 4094 1791 4109 1391 
L 4131 775 
Q 4141 513 4175 384 
Q 4231 166 4375 103 
L 4375 0 
L 3613 0 
Q 3581 59 3562 153 
Q 3544 247 3531 516 
L 3494 1281 
Q 3472 1731 3159 1884 
Q 2981 1969 2600 1969 
L 1184 1969 
L 1184 0 
L 563 0 
L 563 4591 
z
" transform="scale(0.015625)"/>
        <path id="Helvetica-33" d="M 1663 -122 
Q 869 -122 511 314 
Q 153 750 153 1375 
L 741 1375 
Q 778 941 903 744 
Q 1122 391 1694 391 
Q 2138 391 2406 628 
Q 2675 866 2675 1241 
Q 2675 1703 2392 1887 
Q 2109 2072 1606 2072 
Q 1550 2072 1492 2070 
Q 1434 2069 1375 2066 
L 1375 2563 
Q 1463 2553 1522 2550 
Q 1581 2547 1650 2547 
Q 1966 2547 2169 2647 
Q 2525 2822 2525 3272 
Q 2525 3606 2287 3787 
Q 2050 3969 1734 3969 
Q 1172 3969 956 3594 
Q 838 3388 822 3006 
L 266 3006 
Q 266 3506 466 3856 
Q 809 4481 1675 4481 
Q 2359 4481 2734 4176 
Q 3109 3872 3109 3294 
Q 3109 2881 2888 2625 
Q 2750 2466 2531 2375 
Q 2884 2278 3082 2001 
Q 3281 1725 3281 1325 
Q 3281 684 2859 281 
Q 2438 -122 1663 -122 
z
" transform="scale(0.015625)"/>
        <path id="Helvetica-38" d="M 1741 2600 
Q 2113 2600 2322 2808 
Q 2531 3016 2531 3303 
Q 2531 3553 2331 3762 
Q 2131 3972 1722 3972 
Q 1316 3972 1134 3762 
Q 953 3553 953 3272 
Q 953 2956 1187 2778 
Q 1422 2600 1741 2600 
z
M 1775 384 
Q 2166 384 2423 595 
Q 2681 806 2681 1225 
Q 2681 1659 2415 1884 
Q 2150 2109 1734 2109 
Q 1331 2109 1076 1879 
Q 822 1650 822 1244 
Q 822 894 1055 639 
Q 1288 384 1775 384 
z
M 975 2384 
Q 741 2484 609 2619 
Q 363 2869 363 3269 
Q 363 3769 725 4128 
Q 1088 4488 1753 4488 
Q 2397 4488 2762 4148 
Q 3128 3809 3128 3356 
Q 3128 2938 2916 2678 
Q 2797 2531 2547 2391 
Q 2825 2263 2984 2097 
Q 3281 1784 3281 1284 
Q 3281 694 2884 283 
Q 2488 -128 1763 -128 
Q 1109 -128 657 226 
Q 206 581 206 1256 
Q 206 1653 400 1942 
Q 594 2231 975 2384 
z
" transform="scale(0.015625)"/>
       </defs>
       <use xlink:href="#Helvetica-52"/>
       <use xlink:href="#Helvetica-33" x="72.216797"/>
       <use xlink:href="#Helvetica-38" x="127.832031"/>
       <use xlink:href="#Helvetica-38" x="183.447266"/>
      </g>
     </g>
    </g>
    <g id="xtick_2">
     <g id="line2d_4">
      <g>
       <use xlink:href="#mc38ae09101" x="86.072727" y="116.28" style="stroke: #000000; stroke-width: 0.8"/>
      </g>
     </g>
     <g id="text_2">
      <!-- R6K -->
      <g transform="translate(76.14909 135.853024) rotate(-20) scale(0.12 -0.12)">
       <defs>
        <path id="Helvetica-36" d="M 1872 4494 
Q 2622 4494 2917 4105 
Q 3213 3716 3213 3303 
L 2656 3303 
Q 2606 3569 2497 3719 
Q 2294 4000 1881 4000 
Q 1409 4000 1131 3564 
Q 853 3128 822 2316 
Q 1016 2600 1309 2741 
Q 1578 2866 1909 2866 
Q 2472 2866 2890 2506 
Q 3309 2147 3309 1434 
Q 3309 825 2912 354 
Q 2516 -116 1781 -116 
Q 1153 -116 697 361 
Q 241 838 241 1966 
Q 241 2800 444 3381 
Q 834 4494 1872 4494 
z
M 1831 384 
Q 2275 384 2495 682 
Q 2716 981 2716 1388 
Q 2716 1731 2519 2042 
Q 2322 2353 1803 2353 
Q 1441 2353 1167 2112 
Q 894 1872 894 1388 
Q 894 963 1142 673 
Q 1391 384 1831 384 
z
" transform="scale(0.015625)"/>
        <path id="Helvetica-4b" d="M 488 4591 
L 1094 4591 
L 1094 2353 
L 3331 4591 
L 4191 4591 
L 2281 2741 
L 4244 0 
L 3434 0 
L 1828 2303 
L 1094 1600 
L 1094 0 
L 488 0 
L 488 4591 
z
" transform="scale(0.015625)"/>
       </defs>
       <use xlink:href="#Helvetica-52"/>
       <use xlink:href="#Helvetica-36" x="72.216797"/>
       <use xlink:href="#Helvetica-4b" x="127.832031"/>
      </g>
     </g>
    </g>
    <g id="xtick_3">
     <g id="line2d_5">
      <g>
       <use xlink:href="#mc38ae09101" x="118.8" y="116.28" style="stroke: #000000; stroke-width: 0.8"/>
      </g>
     </g>
     <g id="text_3">
      <!-- pCU1 -->
      <g transform="translate(105.47012 138.581982) rotate(-20) scale(0.12 -0.12)">
       <defs>
        <path id="Helvetica-70" d="M 1825 378 
Q 2219 378 2480 708 
Q 2741 1038 2741 1694 
Q 2741 2094 2625 2381 
Q 2406 2934 1825 2934 
Q 1241 2934 1025 2350 
Q 909 2038 909 1556 
Q 909 1169 1025 897 
Q 1244 378 1825 378 
z
M 369 3331 
L 916 3331 
L 916 2888 
Q 1084 3116 1284 3241 
Q 1569 3428 1953 3428 
Q 2522 3428 2919 2992 
Q 3316 2556 3316 1747 
Q 3316 653 2744 184 
Q 2381 -113 1900 -113 
Q 1522 -113 1266 53 
Q 1116 147 931 375 
L 931 -1334 
L 369 -1334 
L 369 3331 
z
" transform="scale(0.015625)"/>
        <path id="Helvetica-43" d="M 2422 4716 
Q 3294 4716 3775 4256 
Q 4256 3797 4309 3213 
L 3703 3213 
Q 3600 3656 3292 3915 
Q 2984 4175 2428 4175 
Q 1750 4175 1333 3698 
Q 916 3222 916 2238 
Q 916 1431 1292 929 
Q 1669 428 2416 428 
Q 3103 428 3463 956 
Q 3653 1234 3747 1688 
L 4353 1688 
Q 4272 963 3816 472 
Q 3269 -119 2341 -119 
Q 1541 -119 997 366 
Q 281 1006 281 2344 
Q 281 3359 819 4009 
Q 1400 4716 2422 4716 
z
M 2297 4716 
L 2297 4716 
z
" transform="scale(0.015625)"/>
        <path id="Helvetica-55" d="M 1163 4591 
L 1163 1753 
Q 1163 1253 1350 922 
Q 1628 422 2288 422 
Q 3078 422 3363 963 
Q 3516 1256 3516 1753 
L 3516 4591 
L 4147 4591 
L 4147 2013 
Q 4147 1166 3919 709 
Q 3500 -122 2338 -122 
Q 1175 -122 759 709 
Q 531 1166 531 2013 
L 531 4591 
L 1163 4591 
z
M 2341 4591 
L 2341 4591 
z
" transform="scale(0.015625)"/>
        <path id="Helvetica-31" d="M 613 3169 
L 613 3600 
Q 1222 3659 1462 3798 
Q 1703 3938 1822 4456 
L 2266 4456 
L 2266 0 
L 1666 0 
L 1666 3169 
L 613 3169 
z
" transform="scale(0.015625)"/>
       </defs>
       <use xlink:href="#Helvetica-70"/>
       <use xlink:href="#Helvetica-43" x="55.615234"/>
       <use xlink:href="#Helvetica-55" x="127.832031"/>
       <use xlink:href="#Helvetica-31" x="200.048828"/>
      </g>
     </g>
    </g>
    <g id="xtick_4">
     <g id="line2d_6">
      <g>
       <use xlink:href="#mc38ae09101" x="151.527273" y="116.28" style="stroke: #000000; stroke-width: 0.8"/>
      </g>
     </g>
     <g id="text_4">
      <!-- R388 -->
      <g transform="translate(139.093775 137.680053) rotate(-20) scale(0.12 -0.12)">
       <use xlink:href="#Helvetica-52"/>
       <use xlink:href="#Helvetica-33" x="72.216797"/>
       <use xlink:href="#Helvetica-38" x="127.832031"/>
       <use xlink:href="#Helvetica-38" x="183.447266"/>
      </g>
     </g>
    </g>
    <g id="xtick_5">
     <g id="line2d_7">
      <g>
       <use xlink:href="#mc38ae09101" x="184.254545" y="116.28" style="stroke: #000000; stroke-width: 0.8"/>
      </g>
     </g>
     <g id="text_5">
      <!-- RP4 -->
      <g transform="translate(174.330908 135.853024) rotate(-20) scale(0.12 -0.12)">
       <defs>
        <path id="Helvetica-50" d="M 547 4591 
L 2613 4591 
Q 3225 4591 3600 4245 
Q 3975 3900 3975 3275 
Q 3975 2738 3640 2339 
Q 3306 1941 2613 1941 
L 1169 1941 
L 1169 0 
L 547 0 
L 547 4591 
z
M 3347 3272 
Q 3347 3778 2972 3959 
Q 2766 4056 2406 4056 
L 1169 4056 
L 1169 2466 
L 2406 2466 
Q 2825 2466 3086 2644 
Q 3347 2822 3347 3272 
z
" transform="scale(0.015625)"/>
        <path id="Helvetica-34" d="M 2116 1584 
L 2116 3613 
L 681 1584 
L 2116 1584 
z
M 2125 0 
L 2125 1094 
L 163 1094 
L 163 1644 
L 2213 4488 
L 2688 4488 
L 2688 1584 
L 3347 1584 
L 3347 1094 
L 2688 1094 
L 2688 0 
L 2125 0 
z
" transform="scale(0.015625)"/>
       </defs>
       <use xlink:href="#Helvetica-52"/>
       <use xlink:href="#Helvetica-50" x="72.216797"/>
       <use xlink:href="#Helvetica-34" x="138.916016"/>
      </g>
     </g>
    </g>
   </g>
   <g id="matplotlib.axis_2">
    <g id="ytick_1">
     <g id="line2d_8">
      <defs>
       <path id="m449765bcef" d="M 0 0 
L 3.5 0 
" style="stroke: #000000; stroke-width: 0.8"/>
      </defs>
      <g>
       <use xlink:href="#m449765bcef" x="32.4" y="99.864" style="stroke: #000000; stroke-width: 0.8"/>
      </g>
     </g>
     <g id="text_6">
      <!-- −1 -->
      <g transform="translate(15.218125 104.168062) scale(0.12 -0.12)">
       <defs>
        <path id="Helvetica-2212" d="M 3547 1894 
L 3547 1369 
L 288 1369 
L 288 1894 
L 3547 1894 
z
" transform="scale(0.015625)"/>
       </defs>
       <use xlink:href="#Helvetica-2212"/>
       <use xlink:href="#Helvetica-31" x="58.398438"/>
      </g>
     </g>
    </g>
    <g id="ytick_2">
     <g id="line2d_9">
      <g>
       <use xlink:href="#m449765bcef" x="32.4" y="67.032" style="stroke: #000000; stroke-width: 0.8"/>
      </g>
     </g>
     <g id="text_7">
      <!-- 0 -->
      <g transform="translate(22.226875 71.336062) scale(0.12 -0.12)">
       <defs>
        <path id="Helvetica-30" d="M 1731 4475 
Q 2600 4475 2988 3759 
Q 3288 3206 3288 2244 
Q 3288 1331 3016 734 
Q 2622 -122 1728 -122 
Q 922 -122 528 578 
Q 200 1163 200 2147 
Q 200 2909 397 3456 
Q 766 4475 1731 4475 
z
M 1725 391 
Q 2163 391 2422 778 
Q 2681 1166 2681 2222 
Q 2681 2984 2493 3476 
Q 2306 3969 1766 3969 
Q 1269 3969 1039 3501 
Q 809 3034 809 2125 
Q 809 1441 956 1025 
Q 1181 391 1725 391 
z
" transform="scale(0.015625)"/>
       </defs>
       <use xlink:href="#Helvetica-30"/>
      </g>
     </g>
    </g>
    <g id="ytick_3">
     <g id="line2d_10">
      <g>
       <use xlink:href="#m449765bcef" x="32.4" y="34.2" style="stroke: #000000; stroke-width: 0.8"/>
      </g>
     </g>
     <g id="text_8">
      <!-- 1 -->
      <g transform="translate(22.226875 38.504062) scale(0.12 -0.12)">
       <use xlink:href="#Helvetica-31"/>
      </g>
     </g>
    </g>
    <g id="text_9">
     <!-- $\Delta$ donor -->
     <g transform="translate(8.716875 88.392) rotate(-90) scale(0.12 -0.12)">
      <defs>
       <path id="Helvetica-394" d="M 922 500 
L 3672 500 
L 2278 3941 
L 922 500 
z
M 1966 4519 
L 2631 4519 
L 4494 0 
L 128 0 
L 1966 4519 
z
" transform="scale(0.015625)"/>
       <path id="Helvetica-20" transform="scale(0.015625)"/>
       <path id="Helvetica-64" d="M 769 1634 
Q 769 1097 997 734 
Q 1225 372 1728 372 
Q 2119 372 2370 708 
Q 2622 1044 2622 1672 
Q 2622 2306 2362 2611 
Q 2103 2916 1722 2916 
Q 1297 2916 1033 2591 
Q 769 2266 769 1634 
z
M 1616 3406 
Q 2000 3406 2259 3244 
Q 2409 3150 2600 2916 
L 2600 4606 
L 3141 4606 
L 3141 0 
L 2634 0 
L 2634 466 
Q 2438 156 2169 18 
Q 1900 -119 1553 -119 
Q 994 -119 584 351 
Q 175 822 175 1603 
Q 175 2334 548 2870 
Q 922 3406 1616 3406 
z
" transform="scale(0.015625)"/>
       <path id="Helvetica-6f" d="M 1741 363 
Q 2300 363 2508 786 
Q 2716 1209 2716 1728 
Q 2716 2197 2566 2491 
Q 2328 2953 1747 2953 
Q 1231 2953 997 2559 
Q 763 2166 763 1609 
Q 763 1075 997 719 
Q 1231 363 1741 363 
z
M 1763 3444 
Q 2409 3444 2856 3012 
Q 3303 2581 3303 1744 
Q 3303 934 2909 406 
Q 2516 -122 1688 -122 
Q 997 -122 590 345 
Q 184 813 184 1600 
Q 184 2444 612 2944 
Q 1041 3444 1763 3444 
z
M 1744 3428 
L 1744 3428 
z
" transform="scale(0.015625)"/>
       <path id="Helvetica-6e" d="M 413 3347 
L 947 3347 
L 947 2872 
Q 1184 3166 1450 3294 
Q 1716 3422 2041 3422 
Q 2753 3422 3003 2925 
Q 3141 2653 3141 2147 
L 3141 0 
L 2569 0 
L 2569 2109 
Q 2569 2416 2478 2603 
Q 2328 2916 1934 2916 
Q 1734 2916 1606 2875 
Q 1375 2806 1200 2600 
Q 1059 2434 1017 2257 
Q 975 2081 975 1753 
L 975 0 
L 413 0 
L 413 3347 
z
M 1734 3428 
L 1734 3428 
z
" transform="scale(0.015625)"/>
       <path id="Helvetica-72" d="M 428 3347 
L 963 3347 
L 963 2769 
Q 1028 2938 1284 3180 
Q 1541 3422 1875 3422 
Q 1891 3422 1928 3419 
Q 1966 3416 2056 3406 
L 2056 2813 
Q 2006 2822 1964 2825 
Q 1922 2828 1872 2828 
Q 1447 2828 1219 2554 
Q 991 2281 991 1925 
L 991 0 
L 428 0 
L 428 3347 
z
" transform="scale(0.015625)"/>
      </defs>
      <use xlink:href="#Helvetica-394" transform="translate(0 0.03125)"/>
      <use xlink:href="#Helvetica-20" transform="translate(72.216797 0.03125)"/>
      <use xlink:href="#Helvetica-64" transform="translate(100 0.03125)"/>
      <use xlink:href="#Helvetica-6f" transform="translate(155.615234 0.03125)"/>
      <use xlink:href="#Helvetica-6e" transform="translate(211.230469 0.03125)"/>
      <use xlink:href="#Helvetica-6f" transform="translate(266.845703 0.03125)"/>
      <use xlink:href="#Helvetica-72" transform="translate(322.460938 0.03125)"/>
     </g>
    </g>
   </g>
   <g id="line2d_11">
    <path d="M 45.163636 71.683671 
L 48.436364 71.683671 
M 46.8 71.683671 
L 46.8 70.278407 
M 45.163636 70.278407 
L 48.436364 70.278407 
" clip-path="url(#p0e290a9220)" style="fill: none; stroke: #000000; stroke-width: 0.8; stroke-linecap: square"/>
   </g>
   <g id="line2d_12">
    <path d="M 77.890909 65.931514 
L 81.163636 65.931514 
M 79.527273 65.931514 
L 79.527273 65.79746 
M 77.890909 65.79746 
L 81.163636 65.79746 
" clip-path="url(#p0e290a9220)" style="fill: none; stroke: #000000; stroke-width: 0.8; stroke-linecap: square"/>
   </g>
   <g id="line2d_13">
    <path d="M 110.618182 70.439649 
L 113.890909 70.439649 
M 112.254545 70.439649 
L 112.254545 69.574399 
M 110.618182 69.574399 
L 113.890909 69.574399 
" clip-path="url(#p0e290a9220)" style="fill: none; stroke: #000000; stroke-width: 0.8; stroke-linecap: square"/>
   </g>
   <g id="line2d_14">
    <path d="M 143.345455 71.035826 
L 146.618182 71.035826 
M 144.981818 71.035826 
L 144.981818 70.043984 
M 143.345455 70.043984 
L 146.618182 70.043984 
" clip-path="url(#p0e290a9220)" style="fill: none; stroke: #000000; stroke-width: 0.8; stroke-linecap: square"/>
   </g>
   <g id="line2d_15">
    <path d="M 176.072727 75.989771 
L 179.345455 75.989771 
M 177.709091 75.989771 
L 177.709091 71.265892 
M 176.072727 71.265892 
L 179.345455 71.265892 
" clip-path="url(#p0e290a9220)" style="fill: none; stroke: #000000; stroke-width: 0.8; stroke-linecap: square"/>
   </g>
   <g id="line2d_16">
    <path d="M 58.254545 46.63875 
L 61.527273 46.63875 
M 59.890909 46.63875 
L 59.890909 44.192367 
M 58.254545 44.192367 
L 61.527273 44.192367 
" clip-path="url(#p0e290a9220)" style="fill: none; stroke: #000000; stroke-width: 0.8; stroke-linecap: square"/>
   </g>
   <g id="line2d_17">
    <path d="M 90.981818 40.400021 
L 94.254545 40.400021 
M 92.618182 40.400021 
L 92.618182 36.902378 
M 90.981818 36.902378 
L 94.254545 36.902378 
" clip-path="url(#p0e290a9220)" style="fill: none; stroke: #000000; stroke-width: 0.8; stroke-linecap: square"/>
   </g>
   <g id="line2d_18">
    <path d="M 123.709091 53.574467 
L 126.981818 53.574467 
M 125.345455 53.574467 
L 125.345455 51.376797 
M 123.709091 51.376797 
L 126.981818 51.376797 
" clip-path="url(#p0e290a9220)" style="fill: none; stroke: #000000; stroke-width: 0.8; stroke-linecap: square"/>
   </g>
   <g id="line2d_19">
    <path d="M 156.436364 49.942611 
L 159.709091 49.942611 
M 158.072727 49.942611 
L 158.072727 49.065804 
M 156.436364 49.065804 
L 159.709091 49.065804 
" clip-path="url(#p0e290a9220)" style="fill: none; stroke: #000000; stroke-width: 0.8; stroke-linecap: square"/>
   </g>
   <g id="line2d_20">
    <path d="M 189.163636 84.867929 
L 192.436364 84.867929 
M 190.8 84.867929 
L 190.8 81.335132 
M 189.163636 81.335132 
L 192.436364 81.335132 
" clip-path="url(#p0e290a9220)" style="fill: none; stroke: #000000; stroke-width: 0.8; stroke-linecap: square"/>
   </g>
   <g id="line2d_21">
    <path d="M 46.8 37.479664 
L 59.890909 37.479664 
" clip-path="url(#p0e290a9220)" style="fill: none; stroke: #000000; stroke-linecap: square"/>
   </g>
   <g id="line2d_22">
    <path d="M 79.527273 30.543889 
L 92.618182 30.543889 
" clip-path="url(#p0e290a9220)" style="fill: none; stroke: #000000; stroke-linecap: square"/>
   </g>
   <g id="line2d_23">
    <path d="M 112.254545 45.076483 
L 125.345455 45.076483 
" clip-path="url(#p0e290a9220)" style="fill: none; stroke: #000000; stroke-linecap: square"/>
   </g>
   <g id="line2d_24">
    <path d="M 144.981818 42.54075 
L 158.072727 42.54075 
" clip-path="url(#p0e290a9220)" style="fill: none; stroke: #000000; stroke-linecap: square"/>
   </g>
   <g id="line2d_25">
    <path d="M 177.709091 91.569476 
L 190.8 91.569476 
" clip-path="url(#p0e290a9220)" style="fill: none; stroke: #000000; stroke-linecap: square"/>
   </g>
   <g id="line2d_26">
    <path d="M 32.4 67.032 
L 205.2 67.032 
" clip-path="url(#p0e290a9220)" style="fill: none; stroke: #000000; stroke-width: 0.8; stroke-linecap: square"/>
   </g>
   <g id="patch_13">
    <path d="M 32.4 116.28 
L 32.4 17.784 
" style="fill: none; stroke: #000000; stroke-width: 0.8; stroke-linejoin: miter; stroke-linecap: square"/>
   </g>
   <g id="patch_14">
    <path d="M 205.2 116.28 
L 205.2 17.784 
" style="fill: none; stroke: #000000; stroke-width: 0.8; stroke-linejoin: miter; stroke-linecap: square"/>
   </g>
   <g id="patch_15">
    <path d="M 32.4 116.28 
L 205.2 116.28 
" style="fill: none; stroke: #000000; stroke-width: 0.8; stroke-linejoin: miter; stroke-linecap: square"/>
   </g>
   <g id="patch_16">
    <path d="M 32.4 17.784 
L 205.2 17.784 
" style="fill: none; stroke: #000000; stroke-width: 0.8; stroke-linejoin: miter; stroke-linecap: square"/>
   </g>
   <g id="text_10">
    <!-- *** -->
    <g transform="translate(46.339517 39.903214) scale(0.12 -0.12)">
     <defs>
      <path id="Helvetica-2a" d="M 1406 4591 
L 1406 3894 
L 2088 4131 
L 2213 3784 
L 1531 3563 
L 1953 2975 
L 1644 2753 
L 1234 3363 
L 822 2753 
L 503 2975 
L 931 3563 
L 244 3784 
L 369 4131 
L 1044 3888 
L 1044 4591 
L 1406 4591 
z
" transform="scale(0.015625)"/>
     </defs>
     <use xlink:href="#Helvetica-2a"/>
     <use xlink:href="#Helvetica-2a" x="38.916016"/>
     <use xlink:href="#Helvetica-2a" x="77.832031"/>
    </g>
   </g>
   <g id="text_11">
    <!-- ** -->
    <g transform="translate(81.402102 32.967439) scale(0.12 -0.12)">
     <use xlink:href="#Helvetica-2a"/>
     <use xlink:href="#Helvetica-2a" x="38.916016"/>
    </g>
   </g>
   <g id="text_12">
    <!-- *** -->
    <g transform="translate(111.794062 47.500033) scale(0.12 -0.12)">
     <use xlink:href="#Helvetica-2a"/>
     <use xlink:href="#Helvetica-2a" x="38.916016"/>
     <use xlink:href="#Helvetica-2a" x="77.832031"/>
    </g>
   </g>
   <g id="text_13">
    <!-- *** -->
    <g transform="translate(144.521335 44.9643) scale(0.12 -0.12)">
     <use xlink:href="#Helvetica-2a"/>
     <use xlink:href="#Helvetica-2a" x="38.916016"/>
     <use xlink:href="#Helvetica-2a" x="77.832031"/>
    </g>
   </g>
   <g id="text_14">
    <!-- ** -->
    <g transform="translate(179.58392 101.819201) scale(0.12 -0.12)">
     <use xlink:href="#Helvetica-2a"/>
     <use xlink:href="#Helvetica-2a" x="38.916016"/>
    </g>
   </g>
   <g id="legend_1">
    <g id="line2d_27">
     <defs>
      <path id="m30dc412255" d="M 0 2.5 
C 0.663008 2.5 1.29895 2.236584 1.767767 1.767767 
C 2.236584 1.29895 2.5 0.663008 2.5 0 
C 2.5 -0.663008 2.236584 -1.29895 1.767767 -1.767767 
C 1.29895 -2.236584 0.663008 -2.5 0 -2.5 
C -0.663008 -2.5 -1.29895 -2.236584 -1.767767 -1.767767 
C -2.236584 -1.29895 -2.5 -0.663008 -2.5 0 
C -2.5 0.663008 -2.236584 1.29895 -1.767767 1.767767 
C -1.29895 2.236584 -0.663008 2.5 0 2.5 
z
"/>
     </defs>
     <g>
      <use xlink:href="#m30dc412255" x="44.4" y="91.394175" style="fill: #8da0cb"/>
     </g>
    </g>
    <g id="text_15">
     <!-- no pulse -->
     <g transform="translate(55.2 95.594175) scale(0.12 -0.12)">
      <defs>
       <path id="Helvetica-75" d="M 975 3347 
L 975 1125 
Q 975 869 1056 706 
Q 1206 406 1616 406 
Q 2203 406 2416 931 
Q 2531 1213 2531 1703 
L 2531 3347 
L 3094 3347 
L 3094 0 
L 2563 0 
L 2569 494 
Q 2459 303 2297 172 
Q 1975 -91 1516 -91 
Q 800 -91 541 388 
Q 400 644 400 1072 
L 400 3347 
L 975 3347 
z
M 1747 3428 
L 1747 3428 
z
" transform="scale(0.015625)"/>
       <path id="Helvetica-6c" d="M 428 4591 
L 991 4591 
L 991 0 
L 428 0 
L 428 4591 
z
" transform="scale(0.015625)"/>
       <path id="Helvetica-73" d="M 747 1050 
Q 772 769 888 619 
Q 1100 347 1625 347 
Q 1938 347 2175 483 
Q 2413 619 2413 903 
Q 2413 1119 2222 1231 
Q 2100 1300 1741 1391 
L 1294 1503 
Q 866 1609 663 1741 
Q 300 1969 300 2372 
Q 300 2847 642 3140 
Q 984 3434 1563 3434 
Q 2319 3434 2653 2991 
Q 2863 2709 2856 2384 
L 2325 2384 
Q 2309 2575 2191 2731 
Q 1997 2953 1519 2953 
Q 1200 2953 1036 2831 
Q 872 2709 872 2509 
Q 872 2291 1088 2159 
Q 1213 2081 1456 2022 
L 1828 1931 
Q 2434 1784 2641 1647 
Q 2969 1431 2969 969 
Q 2969 522 2630 197 
Q 2291 -128 1597 -128 
Q 850 -128 539 211 
Q 228 550 206 1050 
L 747 1050 
z
M 1578 3428 
L 1578 3428 
z
" transform="scale(0.015625)"/>
       <path id="Helvetica-65" d="M 1806 3422 
Q 2163 3422 2497 3255 
Q 2831 3088 3006 2822 
Q 3175 2569 3231 2231 
Q 3281 2000 3281 1494 
L 828 1494 
Q 844 984 1069 676 
Q 1294 369 1766 369 
Q 2206 369 2469 659 
Q 2619 828 2681 1050 
L 3234 1050 
Q 3213 866 3089 639 
Q 2966 413 2813 269 
Q 2556 19 2178 -69 
Q 1975 -119 1719 -119 
Q 1094 -119 659 336 
Q 225 791 225 1609 
Q 225 2416 662 2919 
Q 1100 3422 1806 3422 
z
M 2703 1941 
Q 2669 2306 2544 2525 
Q 2313 2931 1772 2931 
Q 1384 2931 1121 2651 
Q 859 2372 844 1941 
L 2703 1941 
z
M 1753 3428 
L 1753 3428 
z
" transform="scale(0.015625)"/>
      </defs>
      <use xlink:href="#Helvetica-6e"/>
      <use xlink:href="#Helvetica-6f" x="55.615234"/>
      <use xlink:href="#Helvetica-20" x="111.230469"/>
      <use xlink:href="#Helvetica-70" x="139.013672"/>
      <use xlink:href="#Helvetica-75" x="194.628906"/>
      <use xlink:href="#Helvetica-6c" x="250.244141"/>
      <use xlink:href="#Helvetica-73" x="272.460938"/>
      <use xlink:href="#Helvetica-65" x="322.460938"/>
     </g>
    </g>
    <g id="line2d_28">
     <defs>
      <path id="m56120b21a8" d="M 0 2.5 
C 0.663008 2.5 1.29895 2.236584 1.767767 1.767767 
C 2.236584 1.29895 2.5 0.663008 2.5 0 
C 2.5 -0.663008 2.236584 -1.29895 1.767767 -1.767767 
C 1.29895 -2.236584 0.663008 -2.5 0 -2.5 
C -0.663008 -2.5 -1.29895 -2.236584 -1.767767 -1.767767 
C -2.236584 -1.29895 -2.5 -0.663008 -2.5 0 
C -2.5 0.663008 -2.236584 1.29895 -1.767767 1.767767 
C -1.29895 2.236584 -0.663008 2.5 0 2.5 
z
"/>
     </defs>
     <g>
      <use xlink:href="#m56120b21a8" x="44.4" y="103.70355" style="fill: #fc8d62"/>
     </g>
    </g>
    <g id="text_16">
     <!-- +Ab -->
     <g transform="translate(55.2 107.90355) scale(0.12 -0.12)">
      <defs>
       <path id="Helvetica-2b" d="M 288 1369 
L 288 1894 
L 1650 1894 
L 1650 3266 
L 2184 3266 
L 2184 1894 
L 3547 1894 
L 3547 1369 
L 2184 1369 
L 2184 0 
L 1650 0 
L 1650 1369 
L 288 1369 
z
" transform="scale(0.015625)"/>
       <path id="Helvetica-41" d="M 2844 1881 
L 2147 3909 
L 1406 1881 
L 2844 1881 
z
M 1822 4591 
L 2525 4591 
L 4191 0 
L 3509 0 
L 3044 1375 
L 1228 1375 
L 731 0 
L 94 0 
L 1822 4591 
z
" transform="scale(0.015625)"/>
       <path id="Helvetica-62" d="M 369 4606 
L 916 4606 
L 916 2941 
Q 1100 3181 1356 3307 
Q 1613 3434 1913 3434 
Q 2538 3434 2927 3004 
Q 3316 2575 3316 1738 
Q 3316 944 2931 419 
Q 2547 -106 1866 -106 
Q 1484 -106 1222 78 
Q 1066 188 888 428 
L 888 0 
L 369 0 
L 369 4606 
z
M 1831 391 
Q 2288 391 2514 753 
Q 2741 1116 2741 1709 
Q 2741 2238 2514 2584 
Q 2288 2931 1847 2931 
Q 1463 2931 1173 2647 
Q 884 2363 884 1709 
Q 884 1238 1003 944 
Q 1225 391 1831 391 
z
" transform="scale(0.015625)"/>
      </defs>
      <use xlink:href="#Helvetica-2b"/>
      <use xlink:href="#Helvetica-41" x="58.398438"/>
      <use xlink:href="#Helvetica-62" x="125.097656"/>
     </g>
    </g>
   </g>
  </g>
 </g>
 <defs>
  <clipPath id="p0e290a9220">
   <rect x="32.4" y="17.784" width="172.8" height="98.496"/>
  </clipPath>
 </defs>
</svg>
