<?xml version="1.0" encoding="utf-8" standalone="no"?>
<!DOCTYPE svg PUBLIC "-//W3C//DTD SVG 1.1//EN"
  "http://www.w3.org/Graphics/SVG/1.1/DTD/svg11.dtd">
<svg xmlns:xlink="http://www.w3.org/1999/xlink" width="460.8pt" height="345.6pt" viewBox="0 0 460.8 345.6" xmlns="http://www.w3.org/2000/svg" version="1.1">
 <metadata>
  <rdf:RDF xmlns:dc="http://purl.org/dc/elements/1.1/" xmlns:cc="http://creativecommons.org/ns#" xmlns:rdf="http://www.w3.org/1999/02/22-rdf-syntax-ns#">
   <cc:Work>
    <dc:type rdf:resource="http://purl.org/dc/dcmitype/StillImage"/>
    <dc:date>2025-10-06T10:32:57.549018</dc:date>
    <dc:format>image/svg+xml</dc:format>
    <dc:creator>
     <cc:Agent>
      <dc:title>Matplotlib v3.7.5, https://matplotlib.org/</dc:title>
     </cc:Agent>
    </dc:creator>
   </cc:Work>
  </rdf:RDF>
 </metadata>
 <defs>
  <style type="text/css">*{stroke-linejoin: round; stroke-linecap: butt}</style>
 </defs>
 <g id="figure_1">
  <g id="patch_1">
   <path d="M 0 345.6 
L 460.8 345.6 
L 460.8 0 
L 0 0 
z
" style="fill: #ffffff"/>
  </g>
  <g id="axes_1">
   <g id="patch_2">
    <path d="M 57.6 307.584 
L 414.72 307.584 
L 414.72 41.472 
L 57.6 41.472 
z
" style="fill: #ffffff"/>
   </g>
   <g id="matplotlib.axis_1">
    <g id="xtick_1">
     <g id="line2d_1">
      <defs>
       <path id="m9f25958bef" d="M 0 0 
L 0 -3.5 
" style="stroke: #000000; stroke-width: 0.8"/>
      </defs>
      <g>
       <use xlink:href="#m9f25958bef" x="57.6" y="307.584" style="stroke: #000000; stroke-width: 0.8"/>
      </g>
     </g>
     <g id="text_1">
      <!-- 0.0 -->
      <g transform="translate(49.26 319.692125) scale(0.12 -0.12)">
       <defs>
        <path id="Helvetica-30" d="M 1731 4475 
Q 2600 4475 2988 3759 
Q 3288 3206 3288 2244 
Q 3288 1331 3016 734 
Q 2622 -122 1728 -122 
Q 922 -122 528 578 
Q 200 1163 200 2147 
Q 200 2909 397 3456 
Q 766 4475 1731 4475 
z
M 1725 391 
Q 2163 391 2422 778 
Q 2681 1166 2681 2222 
Q 2681 2984 2493 3476 
Q 2306 3969 1766 3969 
Q 1269 3969 1039 3501 
Q 809 3034 809 2125 
Q 809 1441 956 1025 
Q 1181 391 1725 391 
z
" transform="scale(0.015625)"/>
        <path id="Helvetica-2e" d="M 547 681 
L 1200 681 
L 1200 0 
L 547 0 
L 547 681 
z
" transform="scale(0.015625)"/>
       </defs>
       <use xlink:href="#Helvetica-30"/>
       <use xlink:href="#Helvetica-2e" x="55.615234"/>
       <use xlink:href="#Helvetica-30" x="83.398438"/>
      </g>
     </g>
    </g>
    <g id="xtick_2">
     <g id="line2d_2">
      <g>
       <use xlink:href="#m9f25958bef" x="129.024" y="307.584" style="stroke: #000000; stroke-width: 0.8"/>
      </g>
     </g>
     <g id="text_2">
      <!-- 0.2 -->
      <g transform="translate(120.684 319.692125) scale(0.12 -0.12)">
       <defs>
        <path id="Helvetica-32" d="M 200 0 
Q 231 578 439 1006 
Q 647 1434 1250 1784 
L 1850 2131 
Q 2253 2366 2416 2531 
Q 2672 2791 2672 3125 
Q 2672 3516 2437 3745 
Q 2203 3975 1813 3975 
Q 1234 3975 1013 3538 
Q 894 3303 881 2888 
L 309 2888 
Q 319 3472 525 3841 
Q 891 4491 1816 4491 
Q 2584 4491 2939 4075 
Q 3294 3659 3294 3150 
Q 3294 2613 2916 2231 
Q 2697 2009 2131 1694 
L 1703 1456 
Q 1397 1288 1222 1134 
Q 909 863 828 531 
L 3272 531 
L 3272 0 
L 200 0 
z
" transform="scale(0.015625)"/>
       </defs>
       <use xlink:href="#Helvetica-30"/>
       <use xlink:href="#Helvetica-2e" x="55.615234"/>
       <use xlink:href="#Helvetica-32" x="83.398438"/>
      </g>
     </g>
    </g>
    <g id="xtick_3">
     <g id="line2d_3">
      <g>
       <use xlink:href="#m9f25958bef" x="200.448" y="307.584" style="stroke: #000000; stroke-width: 0.8"/>
      </g>
     </g>
     <g id="text_3">
      <!-- 0.4 -->
      <g transform="translate(192.108 319.692125) scale(0.12 -0.12)">
       <defs>
        <path id="Helvetica-34" d="M 2116 1584 
L 2116 3613 
L 681 1584 
L 2116 1584 
z
M 2125 0 
L 2125 1094 
L 163 1094 
L 163 1644 
L 2213 4488 
L 2688 4488 
L 2688 1584 
L 3347 1584 
L 3347 1094 
L 2688 1094 
L 2688 0 
L 2125 0 
z
" transform="scale(0.015625)"/>
       </defs>
       <use xlink:href="#Helvetica-30"/>
       <use xlink:href="#Helvetica-2e" x="55.615234"/>
       <use xlink:href="#Helvetica-34" x="83.398438"/>
      </g>
     </g>
    </g>
    <g id="xtick_4">
     <g id="line2d_4">
      <g>
       <use xlink:href="#m9f25958bef" x="271.872" y="307.584" style="stroke: #000000; stroke-width: 0.8"/>
      </g>
     </g>
     <g id="text_4">
      <!-- 0.6 -->
      <g transform="translate(263.532 319.692125) scale(0.12 -0.12)">
       <defs>
        <path id="Helvetica-36" d="M 1872 4494 
Q 2622 4494 2917 4105 
Q 3213 3716 3213 3303 
L 2656 3303 
Q 2606 3569 2497 3719 
Q 2294 4000 1881 4000 
Q 1409 4000 1131 3564 
Q 853 3128 822 2316 
Q 1016 2600 1309 2741 
Q 1578 2866 1909 2866 
Q 2472 2866 2890 2506 
Q 3309 2147 3309 1434 
Q 3309 825 2912 354 
Q 2516 -116 1781 -116 
Q 1153 -116 697 361 
Q 241 838 241 1966 
Q 241 2800 444 3381 
Q 834 4494 1872 4494 
z
M 1831 384 
Q 2275 384 2495 682 
Q 2716 981 2716 1388 
Q 2716 1731 2519 2042 
Q 2322 2353 1803 2353 
Q 1441 2353 1167 2112 
Q 894 1872 894 1388 
Q 894 963 1142 673 
Q 1391 384 1831 384 
z
" transform="scale(0.015625)"/>
       </defs>
       <use xlink:href="#Helvetica-30"/>
       <use xlink:href="#Helvetica-2e" x="55.615234"/>
       <use xlink:href="#Helvetica-36" x="83.398438"/>
      </g>
     </g>
    </g>
    <g id="xtick_5">
     <g id="line2d_5">
      <g>
       <use xlink:href="#m9f25958bef" x="343.296" y="307.584" style="stroke: #000000; stroke-width: 0.8"/>
      </g>
     </g>
     <g id="text_5">
      <!-- 0.8 -->
      <g transform="translate(334.956 319.692125) scale(0.12 -0.12)">
       <defs>
        <path id="Helvetica-38" d="M 1741 2600 
Q 2113 2600 2322 2808 
Q 2531 3016 2531 3303 
Q 2531 3553 2331 3762 
Q 2131 3972 1722 3972 
Q 1316 3972 1134 3762 
Q 953 3553 953 3272 
Q 953 2956 1187 2778 
Q 1422 2600 1741 2600 
z
M 1775 384 
Q 2166 384 2423 595 
Q 2681 806 2681 1225 
Q 2681 1659 2415 1884 
Q 2150 2109 1734 2109 
Q 1331 2109 1076 1879 
Q 822 1650 822 1244 
Q 822 894 1055 639 
Q 1288 384 1775 384 
z
M 975 2384 
Q 741 2484 609 2619 
Q 363 2869 363 3269 
Q 363 3769 725 4128 
Q 1088 4488 1753 4488 
Q 2397 4488 2762 4148 
Q 3128 3809 3128 3356 
Q 3128 2938 2916 2678 
Q 2797 2531 2547 2391 
Q 2825 2263 2984 2097 
Q 3281 1784 3281 1284 
Q 3281 694 2884 283 
Q 2488 -128 1763 -128 
Q 1109 -128 657 226 
Q 206 581 206 1256 
Q 206 1653 400 1942 
Q 594 2231 975 2384 
z
" transform="scale(0.015625)"/>
       </defs>
       <use xlink:href="#Helvetica-30"/>
       <use xlink:href="#Helvetica-2e" x="55.615234"/>
       <use xlink:href="#Helvetica-38" x="83.398438"/>
      </g>
     </g>
    </g>
    <g id="xtick_6">
     <g id="line2d_6">
      <g>
       <use xlink:href="#m9f25958bef" x="414.72" y="307.584" style="stroke: #000000; stroke-width: 0.8"/>
      </g>
     </g>
     <g id="text_6">
      <!-- 1.0 -->
      <g transform="translate(406.38 319.692125) scale(0.12 -0.12)">
       <defs>
        <path id="Helvetica-31" d="M 613 3169 
L 613 3600 
Q 1222 3659 1462 3798 
Q 1703 3938 1822 4456 
L 2266 4456 
L 2266 0 
L 1666 0 
L 1666 3169 
L 613 3169 
z
" transform="scale(0.015625)"/>
       </defs>
       <use xlink:href="#Helvetica-31"/>
       <use xlink:href="#Helvetica-2e" x="55.615234"/>
       <use xlink:href="#Helvetica-30" x="83.398438"/>
      </g>
     </g>
    </g>
   </g>
   <g id="matplotlib.axis_2">
    <g id="ytick_1">
     <g id="line2d_7">
      <defs>
       <path id="m39d9238dcf" d="M 0 0 
L 3.5 0 
" style="stroke: #000000; stroke-width: 0.8"/>
      </defs>
      <g>
       <use xlink:href="#m39d9238dcf" x="57.6" y="307.584" style="stroke: #000000; stroke-width: 0.8"/>
      </g>
     </g>
     <g id="text_7">
      <!-- 0.0 -->
      <g transform="translate(37.42 311.888062) scale(0.12 -0.12)">
       <use xlink:href="#Helvetica-30"/>
       <use xlink:href="#Helvetica-2e" x="55.615234"/>
       <use xlink:href="#Helvetica-30" x="83.398438"/>
      </g>
     </g>
    </g>
    <g id="ytick_2">
     <g id="line2d_8">
      <g>
       <use xlink:href="#m39d9238dcf" x="57.6" y="254.3616" style="stroke: #000000; stroke-width: 0.8"/>
      </g>
     </g>
     <g id="text_8">
      <!-- 0.2 -->
      <g transform="translate(37.42 258.665662) scale(0.12 -0.12)">
       <use xlink:href="#Helvetica-30"/>
       <use xlink:href="#Helvetica-2e" x="55.615234"/>
       <use xlink:href="#Helvetica-32" x="83.398438"/>
      </g>
     </g>
    </g>
    <g id="ytick_3">
     <g id="line2d_9">
      <g>
       <use xlink:href="#m39d9238dcf" x="57.6" y="201.1392" style="stroke: #000000; stroke-width: 0.8"/>
      </g>
     </g>
     <g id="text_9">
      <!-- 0.4 -->
      <g transform="translate(37.42 205.443263) scale(0.12 -0.12)">
       <use xlink:href="#Helvetica-30"/>
       <use xlink:href="#Helvetica-2e" x="55.615234"/>
       <use xlink:href="#Helvetica-34" x="83.398438"/>
      </g>
     </g>
    </g>
    <g id="ytick_4">
     <g id="line2d_10">
      <g>
       <use xlink:href="#m39d9238dcf" x="57.6" y="147.9168" style="stroke: #000000; stroke-width: 0.8"/>
      </g>
     </g>
     <g id="text_10">
      <!-- 0.6 -->
      <g transform="translate(37.42 152.220862) scale(0.12 -0.12)">
       <use xlink:href="#Helvetica-30"/>
       <use xlink:href="#Helvetica-2e" x="55.615234"/>
       <use xlink:href="#Helvetica-36" x="83.398438"/>
      </g>
     </g>
    </g>
    <g id="ytick_5">
     <g id="line2d_11">
      <g>
       <use xlink:href="#m39d9238dcf" x="57.6" y="94.6944" style="stroke: #000000; stroke-width: 0.8"/>
      </g>
     </g>
     <g id="text_11">
      <!-- 0.8 -->
      <g transform="translate(37.42 98.998463) scale(0.12 -0.12)">
       <use xlink:href="#Helvetica-30"/>
       <use xlink:href="#Helvetica-2e" x="55.615234"/>
       <use xlink:href="#Helvetica-38" x="83.398438"/>
      </g>
     </g>
    </g>
    <g id="ytick_6">
     <g id="line2d_12">
      <g>
       <use xlink:href="#m39d9238dcf" x="57.6" y="41.472" style="stroke: #000000; stroke-width: 0.8"/>
      </g>
     </g>
     <g id="text_12">
      <!-- 1.0 -->
      <g transform="translate(37.42 45.776063) scale(0.12 -0.12)">
       <use xlink:href="#Helvetica-31"/>
       <use xlink:href="#Helvetica-2e" x="55.615234"/>
       <use xlink:href="#Helvetica-30" x="83.398438"/>
      </g>
     </g>
    </g>
   </g>
   <g id="patch_3">
    <path d="M 57.6 307.584 
L 57.6 41.472 
" style="fill: none; stroke: #000000; stroke-width: 0.8; stroke-linejoin: miter; stroke-linecap: square"/>
   </g>
   <g id="patch_4">
    <path d="M 414.72 307.584 
L 414.72 41.472 
" style="fill: none; stroke: #000000; stroke-width: 0.8; stroke-linejoin: miter; stroke-linecap: square"/>
   </g>
   <g id="patch_5">
    <path d="M 57.6 307.584 
L 414.72 307.584 
" style="fill: none; stroke: #000000; stroke-width: 0.8; stroke-linejoin: miter; stroke-linecap: square"/>
   </g>
   <g id="patch_6">
    <path d="M 57.6 41.472 
L 414.72 41.472 
" style="fill: none; stroke: #000000; stroke-width: 0.8; stroke-linejoin: miter; stroke-linecap: square"/>
   </g>
   <g id="legend_1">
    <g id="patch_7">
     <path d="M 259.20375 154.270125 
L 406.32 154.270125 
Q 408.72 154.270125 408.72 151.870125 
L 408.72 49.872 
Q 408.72 47.472 406.32 47.472 
L 259.20375 47.472 
Q 256.80375 47.472 256.80375 49.872 
L 256.80375 151.870125 
Q 256.80375 154.270125 259.20375 154.270125 
z
" style="fill: #ffffff; opacity: 0.8; stroke: #cccccc; stroke-linejoin: miter"/>
    </g>
    <g id="text_13">
     <!-- genus -->
     <g transform="translate(316.415625 60.880125) scale(0.12 -0.12)">
      <defs>
       <path id="Helvetica-67" d="M 1594 3406 
Q 1988 3406 2281 3213 
Q 2441 3103 2606 2894 
L 2606 3316 
L 3125 3316 
L 3125 272 
Q 3125 -366 2938 -734 
Q 2588 -1416 1616 -1416 
Q 1075 -1416 706 -1173 
Q 338 -931 294 -416 
L 866 -416 
Q 906 -641 1028 -763 
Q 1219 -950 1628 -950 
Q 2275 -950 2475 -494 
Q 2594 -225 2584 466 
Q 2416 209 2178 84 
Q 1941 -41 1550 -41 
Q 1006 -41 598 345 
Q 191 731 191 1622 
Q 191 2463 602 2934 
Q 1013 3406 1594 3406 
z
M 2606 1688 
Q 2606 2309 2350 2609 
Q 2094 2909 1697 2909 
Q 1103 2909 884 2353 
Q 769 2056 769 1575 
Q 769 1009 998 714 
Q 1228 419 1616 419 
Q 2222 419 2469 966 
Q 2606 1275 2606 1688 
z
M 1659 3428 
L 1659 3428 
z
" transform="scale(0.015625)"/>
       <path id="Helvetica-65" d="M 1806 3422 
Q 2163 3422 2497 3255 
Q 2831 3088 3006 2822 
Q 3175 2569 3231 2231 
Q 3281 2000 3281 1494 
L 828 1494 
Q 844 984 1069 676 
Q 1294 369 1766 369 
Q 2206 369 2469 659 
Q 2619 828 2681 1050 
L 3234 1050 
Q 3213 866 3089 639 
Q 2966 413 2813 269 
Q 2556 19 2178 -69 
Q 1975 -119 1719 -119 
Q 1094 -119 659 336 
Q 225 791 225 1609 
Q 225 2416 662 2919 
Q 1100 3422 1806 3422 
z
M 2703 1941 
Q 2669 2306 2544 2525 
Q 2313 2931 1772 2931 
Q 1384 2931 1121 2651 
Q 859 2372 844 1941 
L 2703 1941 
z
M 1753 3428 
L 1753 3428 
z
" transform="scale(0.015625)"/>
       <path id="Helvetica-6e" d="M 413 3347 
L 947 3347 
L 947 2872 
Q 1184 3166 1450 3294 
Q 1716 3422 2041 3422 
Q 2753 3422 3003 2925 
Q 3141 2653 3141 2147 
L 3141 0 
L 2569 0 
L 2569 2109 
Q 2569 2416 2478 2603 
Q 2328 2916 1934 2916 
Q 1734 2916 1606 2875 
Q 1375 2806 1200 2600 
Q 1059 2434 1017 2257 
Q 975 2081 975 1753 
L 975 0 
L 413 0 
L 413 3347 
z
M 1734 3428 
L 1734 3428 
z
" transform="scale(0.015625)"/>
       <path id="Helvetica-75" d="M 975 3347 
L 975 1125 
Q 975 869 1056 706 
Q 1206 406 1616 406 
Q 2203 406 2416 931 
Q 2531 1213 2531 1703 
L 2531 3347 
L 3094 3347 
L 3094 0 
L 2563 0 
L 2569 494 
Q 2459 303 2297 172 
Q 1975 -91 1516 -91 
Q 800 -91 541 388 
Q 400 644 400 1072 
L 400 3347 
L 975 3347 
z
M 1747 3428 
L 1747 3428 
z
" transform="scale(0.015625)"/>
       <path id="Helvetica-73" d="M 747 1050 
Q 772 769 888 619 
Q 1100 347 1625 347 
Q 1938 347 2175 483 
Q 2413 619 2413 903 
Q 2413 1119 2222 1231 
Q 2100 1300 1741 1391 
L 1294 1503 
Q 866 1609 663 1741 
Q 300 1969 300 2372 
Q 300 2847 642 3140 
Q 984 3434 1563 3434 
Q 2319 3434 2653 2991 
Q 2863 2709 2856 2384 
L 2325 2384 
Q 2309 2575 2191 2731 
Q 1997 2953 1519 2953 
Q 1200 2953 1036 2831 
Q 872 2709 872 2509 
Q 872 2291 1088 2159 
Q 1213 2081 1456 2022 
L 1828 1931 
Q 2434 1784 2641 1647 
Q 2969 1431 2969 969 
Q 2969 522 2630 197 
Q 2291 -128 1597 -128 
Q 850 -128 539 211 
Q 228 550 206 1050 
L 747 1050 
z
M 1578 3428 
L 1578 3428 
z
" transform="scale(0.015625)"/>
      </defs>
      <use xlink:href="#Helvetica-67"/>
      <use xlink:href="#Helvetica-65" x="55.615234"/>
      <use xlink:href="#Helvetica-6e" x="111.230469"/>
      <use xlink:href="#Helvetica-75" x="166.845703"/>
      <use xlink:href="#Helvetica-73" x="222.460938"/>
     </g>
    </g>
    <g id="patch_8">
     <path d="M 261.60375 78.377625 
L 285.60375 78.377625 
L 285.60375 69.977625 
L 261.60375 69.977625 
z
" style="fill: #66c2a5"/>
    </g>
    <g id="text_14">
     <!-- Escherichia-Shigella -->
     <g transform="translate(295.20375 78.377625) scale(0.12 -0.12)">
      <defs>
       <path id="Helvetica-45" d="M 547 4591 
L 3894 4591 
L 3894 4028 
L 1153 4028 
L 1153 2634 
L 3688 2634 
L 3688 2103 
L 1153 2103 
L 1153 547 
L 3941 547 
L 3941 0 
L 547 0 
L 547 4591 
z
M 2244 4591 
L 2244 4591 
z
" transform="scale(0.015625)"/>
       <path id="Helvetica-63" d="M 1703 3444 
Q 2269 3444 2623 3169 
Q 2978 2894 3050 2222 
L 2503 2222 
Q 2453 2531 2275 2736 
Q 2097 2941 1703 2941 
Q 1166 2941 934 2416 
Q 784 2075 784 1575 
Q 784 1072 996 728 
Q 1209 384 1666 384 
Q 2016 384 2220 598 
Q 2425 813 2503 1184 
L 3050 1184 
Q 2956 519 2581 211 
Q 2206 -97 1622 -97 
Q 966 -97 575 383 
Q 184 863 184 1581 
Q 184 2463 612 2953 
Q 1041 3444 1703 3444 
z
M 1616 3428 
L 1616 3428 
z
" transform="scale(0.015625)"/>
       <path id="Helvetica-68" d="M 413 4606 
L 975 4606 
L 975 2894 
Q 1175 3147 1334 3250 
Q 1606 3428 2013 3428 
Q 2741 3428 3000 2919 
Q 3141 2641 3141 2147 
L 3141 0 
L 2563 0 
L 2563 2109 
Q 2563 2478 2469 2650 
Q 2316 2925 1894 2925 
Q 1544 2925 1259 2684 
Q 975 2444 975 1775 
L 975 0 
L 413 0 
L 413 4606 
z
" transform="scale(0.015625)"/>
       <path id="Helvetica-72" d="M 428 3347 
L 963 3347 
L 963 2769 
Q 1028 2938 1284 3180 
Q 1541 3422 1875 3422 
Q 1891 3422 1928 3419 
Q 1966 3416 2056 3406 
L 2056 2813 
Q 2006 2822 1964 2825 
Q 1922 2828 1872 2828 
Q 1447 2828 1219 2554 
Q 991 2281 991 1925 
L 991 0 
L 428 0 
L 428 3347 
z
" transform="scale(0.015625)"/>
       <path id="Helvetica-69" d="M 413 3331 
L 984 3331 
L 984 0 
L 413 0 
L 413 3331 
z
M 413 4591 
L 984 4591 
L 984 3953 
L 413 3953 
L 413 4591 
z
" transform="scale(0.015625)"/>
       <path id="Helvetica-61" d="M 844 891 
Q 844 647 1022 506 
Q 1200 366 1444 366 
Q 1741 366 2019 503 
Q 2488 731 2488 1250 
L 2488 1703 
Q 2384 1638 2221 1594 
Q 2059 1550 1903 1531 
L 1563 1488 
Q 1256 1447 1103 1359 
Q 844 1213 844 891 
z
M 2206 2028 
Q 2400 2053 2466 2191 
Q 2503 2266 2503 2406 
Q 2503 2694 2298 2823 
Q 2094 2953 1713 2953 
Q 1272 2953 1088 2716 
Q 984 2584 953 2325 
L 428 2325 
Q 444 2944 830 3186 
Q 1216 3428 1725 3428 
Q 2316 3428 2684 3203 
Q 3050 2978 3050 2503 
L 3050 575 
Q 3050 488 3086 434 
Q 3122 381 3238 381 
Q 3275 381 3322 386 
Q 3369 391 3422 400 
L 3422 -16 
Q 3291 -53 3222 -62 
Q 3153 -72 3034 -72 
Q 2744 -72 2613 134 
Q 2544 244 2516 444 
Q 2344 219 2022 53 
Q 1700 -113 1313 -113 
Q 847 -113 551 170 
Q 256 453 256 878 
Q 256 1344 547 1600 
Q 838 1856 1309 1916 
L 2206 2028 
z
M 1741 3428 
L 1741 3428 
z
" transform="scale(0.015625)"/>
       <path id="Helvetica-2d" d="M 266 2072 
L 1834 2072 
L 1834 1494 
L 266 1494 
L 266 2072 
z
" transform="scale(0.015625)"/>
       <path id="Helvetica-53" d="M 894 1481 
Q 916 1091 1078 847 
Q 1388 391 2169 391 
Q 2519 391 2806 491 
Q 3363 684 3363 1184 
Q 3363 1559 3128 1719 
Q 2891 1875 2384 1991 
L 1763 2131 
Q 1153 2269 900 2434 
Q 463 2722 463 3294 
Q 463 3913 891 4309 
Q 1319 4706 2103 4706 
Q 2825 4706 3329 4357 
Q 3834 4009 3834 3244 
L 3250 3244 
Q 3203 3613 3050 3809 
Q 2766 4169 2084 4169 
Q 1534 4169 1293 3937 
Q 1053 3706 1053 3400 
Q 1053 3063 1334 2906 
Q 1519 2806 2169 2656 
L 2813 2509 
Q 3278 2403 3531 2219 
Q 3969 1897 3969 1284 
Q 3969 522 3414 194 
Q 2859 -134 2125 -134 
Q 1269 -134 784 303 
Q 300 738 309 1481 
L 894 1481 
z
M 2150 4716 
L 2150 4716 
z
" transform="scale(0.015625)"/>
       <path id="Helvetica-6c" d="M 428 4591 
L 991 4591 
L 991 0 
L 428 0 
L 428 4591 
z
" transform="scale(0.015625)"/>
      </defs>
      <use xlink:href="#Helvetica-45"/>
      <use xlink:href="#Helvetica-73" x="66.699219"/>
      <use xlink:href="#Helvetica-63" x="116.699219"/>
      <use xlink:href="#Helvetica-68" x="166.699219"/>
      <use xlink:href="#Helvetica-65" x="222.314453"/>
      <use xlink:href="#Helvetica-72" x="277.929688"/>
      <use xlink:href="#Helvetica-69" x="311.230469"/>
      <use xlink:href="#Helvetica-63" x="333.447266"/>
      <use xlink:href="#Helvetica-68" x="383.447266"/>
      <use xlink:href="#Helvetica-69" x="439.0625"/>
      <use xlink:href="#Helvetica-61" x="461.279297"/>
      <use xlink:href="#Helvetica-2d" x="516.894531"/>
      <use xlink:href="#Helvetica-53" x="550.195312"/>
      <use xlink:href="#Helvetica-68" x="616.894531"/>
      <use xlink:href="#Helvetica-69" x="672.509766"/>
      <use xlink:href="#Helvetica-67" x="694.726562"/>
      <use xlink:href="#Helvetica-65" x="750.341797"/>
      <use xlink:href="#Helvetica-6c" x="805.957031"/>
      <use xlink:href="#Helvetica-6c" x="828.173828"/>
      <use xlink:href="#Helvetica-61" x="850.390625"/>
     </g>
    </g>
    <g id="patch_9">
     <path d="M 261.60375 95.64075 
L 285.60375 95.64075 
L 285.60375 87.24075 
L 261.60375 87.24075 
z
" style="fill: #e78ac3"/>
    </g>
    <g id="text_15">
     <!-- Pseudomonas -->
     <g transform="translate(295.20375 95.64075) scale(0.12 -0.12)">
      <defs>
       <path id="Helvetica-50" d="M 547 4591 
L 2613 4591 
Q 3225 4591 3600 4245 
Q 3975 3900 3975 3275 
Q 3975 2738 3640 2339 
Q 3306 1941 2613 1941 
L 1169 1941 
L 1169 0 
L 547 0 
L 547 4591 
z
M 3347 3272 
Q 3347 3778 2972 3959 
Q 2766 4056 2406 4056 
L 1169 4056 
L 1169 2466 
L 2406 2466 
Q 2825 2466 3086 2644 
Q 3347 2822 3347 3272 
z
" transform="scale(0.015625)"/>
       <path id="Helvetica-64" d="M 769 1634 
Q 769 1097 997 734 
Q 1225 372 1728 372 
Q 2119 372 2370 708 
Q 2622 1044 2622 1672 
Q 2622 2306 2362 2611 
Q 2103 2916 1722 2916 
Q 1297 2916 1033 2591 
Q 769 2266 769 1634 
z
M 1616 3406 
Q 2000 3406 2259 3244 
Q 2409 3150 2600 2916 
L 2600 4606 
L 3141 4606 
L 3141 0 
L 2634 0 
L 2634 466 
Q 2438 156 2169 18 
Q 1900 -119 1553 -119 
Q 994 -119 584 351 
Q 175 822 175 1603 
Q 175 2334 548 2870 
Q 922 3406 1616 3406 
z
" transform="scale(0.015625)"/>
       <path id="Helvetica-6f" d="M 1741 363 
Q 2300 363 2508 786 
Q 2716 1209 2716 1728 
Q 2716 2197 2566 2491 
Q 2328 2953 1747 2953 
Q 1231 2953 997 2559 
Q 763 2166 763 1609 
Q 763 1075 997 719 
Q 1231 363 1741 363 
z
M 1763 3444 
Q 2409 3444 2856 3012 
Q 3303 2581 3303 1744 
Q 3303 934 2909 406 
Q 2516 -122 1688 -122 
Q 997 -122 590 345 
Q 184 813 184 1600 
Q 184 2444 612 2944 
Q 1041 3444 1763 3444 
z
M 1744 3428 
L 1744 3428 
z
" transform="scale(0.015625)"/>
       <path id="Helvetica-6d" d="M 413 3347 
L 969 3347 
L 969 2872 
Q 1169 3119 1331 3231 
Q 1609 3422 1963 3422 
Q 2363 3422 2606 3225 
Q 2744 3113 2856 2894 
Q 3044 3163 3297 3292 
Q 3550 3422 3866 3422 
Q 4541 3422 4784 2934 
Q 4916 2672 4916 2228 
L 4916 0 
L 4331 0 
L 4331 2325 
Q 4331 2659 4164 2784 
Q 3997 2909 3756 2909 
Q 3425 2909 3186 2687 
Q 2947 2466 2947 1947 
L 2947 0 
L 2375 0 
L 2375 2184 
Q 2375 2525 2294 2681 
Q 2166 2916 1816 2916 
Q 1497 2916 1236 2669 
Q 975 2422 975 1775 
L 975 0 
L 413 0 
L 413 3347 
z
" transform="scale(0.015625)"/>
      </defs>
      <use xlink:href="#Helvetica-50"/>
      <use xlink:href="#Helvetica-73" x="66.699219"/>
      <use xlink:href="#Helvetica-65" x="116.699219"/>
      <use xlink:href="#Helvetica-75" x="172.314453"/>
      <use xlink:href="#Helvetica-64" x="227.929688"/>
      <use xlink:href="#Helvetica-6f" x="283.544922"/>
      <use xlink:href="#Helvetica-6d" x="339.160156"/>
      <use xlink:href="#Helvetica-6f" x="422.460938"/>
      <use xlink:href="#Helvetica-6e" x="478.076172"/>
      <use xlink:href="#Helvetica-61" x="533.691406"/>
      <use xlink:href="#Helvetica-73" x="589.306641"/>
     </g>
    </g>
    <g id="patch_10">
     <path d="M 261.60375 112.750125 
L 285.60375 112.750125 
L 285.60375 104.350125 
L 261.60375 104.350125 
z
" style="fill: #a6d854"/>
    </g>
    <g id="text_16">
     <!-- Bacillus -->
     <g transform="translate(295.20375 112.750125) scale(0.12 -0.12)">
      <defs>
       <path id="Helvetica-42" d="M 2213 2650 
Q 2606 2650 2825 2759 
Q 3169 2931 3169 3378 
Q 3169 3828 2803 3984 
Q 2597 4072 2191 4072 
L 1081 4072 
L 1081 2650 
L 2213 2650 
z
M 2422 531 
Q 2994 531 3238 863 
Q 3391 1072 3391 1369 
Q 3391 1869 2944 2050 
Q 2706 2147 2316 2147 
L 1081 2147 
L 1081 531 
L 2422 531 
z
M 472 4591 
L 2444 4591 
Q 3250 4591 3591 4109 
Q 3791 3825 3791 3453 
Q 3791 3019 3544 2741 
Q 3416 2594 3175 2472 
Q 3528 2338 3703 2169 
Q 4013 1869 4013 1341 
Q 4013 897 3734 538 
Q 3319 0 2413 0 
L 472 0 
L 472 4591 
z
" transform="scale(0.015625)"/>
      </defs>
      <use xlink:href="#Helvetica-42"/>
      <use xlink:href="#Helvetica-61" x="66.699219"/>
      <use xlink:href="#Helvetica-63" x="122.314453"/>
      <use xlink:href="#Helvetica-69" x="172.314453"/>
      <use xlink:href="#Helvetica-6c" x="194.53125"/>
      <use xlink:href="#Helvetica-6c" x="216.748047"/>
      <use xlink:href="#Helvetica-75" x="238.964844"/>
      <use xlink:href="#Helvetica-73" x="294.580078"/>
     </g>
    </g>
    <g id="patch_11">
     <path d="M 261.60375 129.8595 
L 285.60375 129.8595 
L 285.60375 121.4595 
L 261.60375 121.4595 
z
" style="fill: #ffd92f"/>
    </g>
    <g id="text_17">
     <!-- Citrobacter -->
     <g transform="translate(295.20375 129.8595) scale(0.12 -0.12)">
      <defs>
       <path id="Helvetica-43" d="M 2422 4716 
Q 3294 4716 3775 4256 
Q 4256 3797 4309 3213 
L 3703 3213 
Q 3600 3656 3292 3915 
Q 2984 4175 2428 4175 
Q 1750 4175 1333 3698 
Q 916 3222 916 2238 
Q 916 1431 1292 929 
Q 1669 428 2416 428 
Q 3103 428 3463 956 
Q 3653 1234 3747 1688 
L 4353 1688 
Q 4272 963 3816 472 
Q 3269 -119 2341 -119 
Q 1541 -119 997 366 
Q 281 1006 281 2344 
Q 281 3359 819 4009 
Q 1400 4716 2422 4716 
z
M 2297 4716 
L 2297 4716 
z
" transform="scale(0.015625)"/>
       <path id="Helvetica-74" d="M 525 4281 
L 1094 4281 
L 1094 3347 
L 1628 3347 
L 1628 2888 
L 1094 2888 
L 1094 703 
Q 1094 528 1213 469 
Q 1278 434 1431 434 
Q 1472 434 1519 436 
Q 1566 438 1628 444 
L 1628 0 
Q 1531 -28 1426 -40 
Q 1322 -53 1200 -53 
Q 806 -53 665 148 
Q 525 350 525 672 
L 525 2888 
L 72 2888 
L 72 3347 
L 525 3347 
L 525 4281 
z
" transform="scale(0.015625)"/>
       <path id="Helvetica-62" d="M 369 4606 
L 916 4606 
L 916 2941 
Q 1100 3181 1356 3307 
Q 1613 3434 1913 3434 
Q 2538 3434 2927 3004 
Q 3316 2575 3316 1738 
Q 3316 944 2931 419 
Q 2547 -106 1866 -106 
Q 1484 -106 1222 78 
Q 1066 188 888 428 
L 888 0 
L 369 0 
L 369 4606 
z
M 1831 391 
Q 2288 391 2514 753 
Q 2741 1116 2741 1709 
Q 2741 2238 2514 2584 
Q 2288 2931 1847 2931 
Q 1463 2931 1173 2647 
Q 884 2363 884 1709 
Q 884 1238 1003 944 
Q 1225 391 1831 391 
z
" transform="scale(0.015625)"/>
      </defs>
      <use xlink:href="#Helvetica-43"/>
      <use xlink:href="#Helvetica-69" x="72.216797"/>
      <use xlink:href="#Helvetica-74" x="94.433594"/>
      <use xlink:href="#Helvetica-72" x="122.216797"/>
      <use xlink:href="#Helvetica-6f" x="155.517578"/>
      <use xlink:href="#Helvetica-62" x="211.132812"/>
      <use xlink:href="#Helvetica-61" x="266.748047"/>
      <use xlink:href="#Helvetica-63" x="322.363281"/>
      <use xlink:href="#Helvetica-74" x="372.363281"/>
      <use xlink:href="#Helvetica-65" x="400.146484"/>
      <use xlink:href="#Helvetica-72" x="455.761719"/>
     </g>
    </g>
    <g id="patch_12">
     <path d="M 261.60375 146.968875 
L 285.60375 146.968875 
L 285.60375 138.568875 
L 261.60375 138.568875 
z
" style="fill: #e5c494"/>
    </g>
    <g id="text_18">
     <!-- Enterobacter -->
     <g transform="translate(295.20375 146.968875) scale(0.12 -0.12)">
      <use xlink:href="#Helvetica-45"/>
      <use xlink:href="#Helvetica-6e" x="66.699219"/>
      <use xlink:href="#Helvetica-74" x="122.314453"/>
      <use xlink:href="#Helvetica-65" x="150.097656"/>
      <use xlink:href="#Helvetica-72" x="205.712891"/>
      <use xlink:href="#Helvetica-6f" x="239.013672"/>
      <use xlink:href="#Helvetica-62" x="294.628906"/>
      <use xlink:href="#Helvetica-61" x="350.244141"/>
      <use xlink:href="#Helvetica-63" x="405.859375"/>
      <use xlink:href="#Helvetica-74" x="455.859375"/>
      <use xlink:href="#Helvetica-65" x="483.642578"/>
      <use xlink:href="#Helvetica-72" x="539.257812"/>
     </g>
    </g>
   </g>
  </g>
 </g>
</svg>
