<?xml version="1.0" encoding="utf-8" standalone="no"?>
<!DOCTYPE svg PUBLIC "-//W3C//DTD SVG 1.1//EN"
  "http://www.w3.org/Graphics/SVG/1.1/DTD/svg11.dtd">
<svg xmlns:xlink="http://www.w3.org/1999/xlink" width="146.88pt" height="136.8pt" viewBox="0 0 146.88 136.8" xmlns="http://www.w3.org/2000/svg" version="1.1">
 <metadata>
  <rdf:RDF xmlns:dc="http://purl.org/dc/elements/1.1/" xmlns:cc="http://creativecommons.org/ns#" xmlns:rdf="http://www.w3.org/1999/02/22-rdf-syntax-ns#">
   <cc:Work>
    <dc:type rdf:resource="http://purl.org/dc/dcmitype/StillImage"/>
    <dc:date>2025-10-06T10:32:57.402699</dc:date>
    <dc:format>image/svg+xml</dc:format>
    <dc:creator>
     <cc:Agent>
      <dc:title>Matplotlib v3.7.5, https://matplotlib.org/</dc:title>
     </cc:Agent>
    </dc:creator>
   </cc:Work>
  </rdf:RDF>
 </metadata>
 <defs>
  <style type="text/css">*{stroke-linejoin: round; stroke-linecap: butt}</style>
 </defs>
 <g id="figure_1">
  <g id="patch_1">
   <path d="M 0 136.8 
L 146.88 136.8 
L 146.88 0 
L 0 0 
z
" style="fill: #ffffff"/>
  </g>
  <g id="axes_1">
   <g id="patch_2">
    <path d="M 22.032 116.28 
L 139.536 116.28 
L 139.536 17.784 
L 22.032 17.784 
z
" style="fill: #ffffff"/>
   </g>
   <g id="patch_3">
    <path d="M 27.373091 116.28 
L 49.861895 116.28 
L 49.861895 77.423125 
L 27.373091 77.423125 
z
" clip-path="url(#pf51a20e0ea)" style="fill: #66c2a5"/>
   </g>
   <g id="patch_4">
    <path d="M 55.484096 116.28 
L 77.9729 116.28 
L 77.9729 93.067004 
L 55.484096 93.067004 
z
" clip-path="url(#pf51a20e0ea)" style="fill: #66c2a5"/>
   </g>
   <g id="patch_5">
    <path d="M 83.5951 116.28 
L 106.083904 116.28 
L 106.083904 109.015489 
L 83.5951 109.015489 
z
" clip-path="url(#pf51a20e0ea)" style="fill: #66c2a5"/>
   </g>
   <g id="patch_6">
    <path d="M 111.706105 116.28 
L 134.194909 116.28 
L 134.194909 56.102421 
L 111.706105 56.102421 
z
" clip-path="url(#pf51a20e0ea)" style="fill: #66c2a5"/>
   </g>
   <g id="patch_7">
    <path d="M 27.373091 77.423125 
L 49.861895 77.423125 
L 49.861895 75.661522 
L 27.373091 75.661522 
z
" clip-path="url(#pf51a20e0ea)" style="fill: #e78ac3"/>
   </g>
   <g id="patch_8">
    <path d="M 55.484096 93.067004 
L 77.9729 93.067004 
L 77.9729 79.365758 
L 55.484096 79.365758 
z
" clip-path="url(#pf51a20e0ea)" style="fill: #e78ac3"/>
   </g>
   <g id="patch_9">
    <path d="M 83.5951 109.015489 
L 106.083904 109.015489 
L 106.083904 90.84863 
L 83.5951 90.84863 
z
" clip-path="url(#pf51a20e0ea)" style="fill: #e78ac3"/>
   </g>
   <g id="patch_10">
    <path d="M 111.706105 56.102421 
L 134.194909 56.102421 
L 134.194909 17.80468 
L 111.706105 17.80468 
z
" clip-path="url(#pf51a20e0ea)" style="fill: #e78ac3"/>
   </g>
   <g id="patch_11">
    <path d="M 27.373091 75.661522 
L 49.861895 75.661522 
L 49.861895 53.173963 
L 27.373091 53.173963 
z
" clip-path="url(#pf51a20e0ea)" style="fill: #a6d854"/>
   </g>
   <g id="patch_12">
    <path d="M 55.484096 79.365758 
L 77.9729 79.365758 
L 77.9729 66.761993 
L 55.484096 66.761993 
z
" clip-path="url(#pf51a20e0ea)" style="fill: #a6d854"/>
   </g>
   <g id="patch_13">
    <path d="M 83.5951 90.84863 
L 106.083904 90.84863 
L 106.083904 87.412355 
L 83.5951 87.412355 
z
" clip-path="url(#pf51a20e0ea)" style="fill: #a6d854"/>
   </g>
   <g id="patch_14">
    <path d="M 111.706105 17.80468 
L 134.194909 17.80468 
L 134.194909 17.80468 
L 111.706105 17.80468 
z
" clip-path="url(#pf51a20e0ea)" style="fill: #a6d854"/>
   </g>
   <g id="patch_15">
    <path d="M 27.373091 53.173963 
L 49.861895 53.173963 
L 49.861895 42.429969 
L 27.373091 42.429969 
z
" clip-path="url(#pf51a20e0ea)" style="fill: #ffd92f"/>
   </g>
   <g id="patch_16">
    <path d="M 55.484096 66.761993 
L 77.9729 66.761993 
L 77.9729 62.457263 
L 55.484096 62.457263 
z
" clip-path="url(#pf51a20e0ea)" style="fill: #ffd92f"/>
   </g>
   <g id="patch_17">
    <path d="M 83.5951 87.412355 
L 106.083904 87.412355 
L 106.083904 86.367849 
L 83.5951 86.367849 
z
" clip-path="url(#pf51a20e0ea)" style="fill: #ffd92f"/>
   </g>
   <g id="patch_18">
    <path d="M 111.706105 17.80468 
L 134.194909 17.80468 
L 134.194909 17.80468 
L 111.706105 17.80468 
z
" clip-path="url(#pf51a20e0ea)" style="fill: #ffd92f"/>
   </g>
   <g id="patch_19">
    <path d="M 27.373091 42.429969 
L 49.861895 42.429969 
L 49.861895 17.784 
L 27.373091 17.784 
z
" clip-path="url(#pf51a20e0ea)" style="fill: #e5c494"/>
   </g>
   <g id="patch_20">
    <path d="M 55.484096 62.457263 
L 77.9729 62.457263 
L 77.9729 17.836575 
L 55.484096 17.836575 
z
" clip-path="url(#pf51a20e0ea)" style="fill: #e5c494"/>
   </g>
   <g id="patch_21">
    <path d="M 83.5951 86.367849 
L 106.083904 86.367849 
L 106.083904 17.936656 
L 83.5951 17.936656 
z
" clip-path="url(#pf51a20e0ea)" style="fill: #e5c494"/>
   </g>
   <g id="patch_22">
    <path d="M 111.706105 17.80468 
L 134.194909 17.80468 
L 134.194909 17.80468 
L 111.706105 17.80468 
z
" clip-path="url(#pf51a20e0ea)" style="fill: #e5c494"/>
   </g>
   <g id="matplotlib.axis_1">
    <g id="xtick_1">
     <g id="line2d_1">
      <defs>
       <path id="m80be712ed3" d="M 0 0 
L 0 -3.5 
" style="stroke: #000000; stroke-width: 0.8"/>
      </defs>
      <g>
       <use xlink:href="#m80be712ed3" x="38.617493" y="116.28" style="stroke: #000000; stroke-width: 0.8"/>
      </g>
     </g>
     <g id="text_1">
      <!-- D0 -->
      <g transform="translate(30.947805 128.388125) scale(0.12 -0.12)">
       <defs>
        <path id="Helvetica-44" d="M 2250 531 
Q 2566 531 2769 597 
Q 3131 719 3363 1066 
Q 3547 1344 3628 1778 
Q 3675 2038 3675 2259 
Q 3675 3113 3336 3584 
Q 2997 4056 2244 4056 
L 1141 4056 
L 1141 531 
L 2250 531 
z
M 516 4591 
L 2375 4591 
Q 3322 4591 3844 3919 
Q 4309 3313 4309 2366 
Q 4309 1634 4034 1044 
Q 3550 0 2369 0 
L 516 0 
L 516 4591 
z
" transform="scale(0.015625)"/>
        <path id="Helvetica-30" d="M 1731 4475 
Q 2600 4475 2988 3759 
Q 3288 3206 3288 2244 
Q 3288 1331 3016 734 
Q 2622 -122 1728 -122 
Q 922 -122 528 578 
Q 200 1163 200 2147 
Q 200 2909 397 3456 
Q 766 4475 1731 4475 
z
M 1725 391 
Q 2163 391 2422 778 
Q 2681 1166 2681 2222 
Q 2681 2984 2493 3476 
Q 2306 3969 1766 3969 
Q 1269 3969 1039 3501 
Q 809 3034 809 2125 
Q 809 1441 956 1025 
Q 1181 391 1725 391 
z
" transform="scale(0.015625)"/>
       </defs>
       <use xlink:href="#Helvetica-44"/>
       <use xlink:href="#Helvetica-30" x="72.216797"/>
      </g>
     </g>
    </g>
    <g id="xtick_2">
     <g id="line2d_2">
      <g>
       <use xlink:href="#m80be712ed3" x="66.728498" y="116.28" style="stroke: #000000; stroke-width: 0.8"/>
      </g>
     </g>
     <g id="text_2">
      <!-- D1 -->
      <g transform="translate(59.05881 128.388125) scale(0.12 -0.12)">
       <defs>
        <path id="Helvetica-31" d="M 613 3169 
L 613 3600 
Q 1222 3659 1462 3798 
Q 1703 3938 1822 4456 
L 2266 4456 
L 2266 0 
L 1666 0 
L 1666 3169 
L 613 3169 
z
" transform="scale(0.015625)"/>
       </defs>
       <use xlink:href="#Helvetica-44"/>
       <use xlink:href="#Helvetica-31" x="72.216797"/>
      </g>
     </g>
    </g>
    <g id="xtick_3">
     <g id="line2d_3">
      <g>
       <use xlink:href="#m80be712ed3" x="94.839502" y="116.28" style="stroke: #000000; stroke-width: 0.8"/>
      </g>
     </g>
     <g id="text_3">
      <!-- LB -->
      <g transform="translate(87.500752 128.388125) scale(0.12 -0.12)">
       <defs>
        <path id="Helvetica-4c" d="M 488 4591 
L 1109 4591 
L 1109 547 
L 3434 547 
L 3434 0 
L 488 0 
L 488 4591 
z
" transform="scale(0.015625)"/>
        <path id="Helvetica-42" d="M 2213 2650 
Q 2606 2650 2825 2759 
Q 3169 2931 3169 3378 
Q 3169 3828 2803 3984 
Q 2597 4072 2191 4072 
L 1081 4072 
L 1081 2650 
L 2213 2650 
z
M 2422 531 
Q 2994 531 3238 863 
Q 3391 1072 3391 1369 
Q 3391 1869 2944 2050 
Q 2706 2147 2316 2147 
L 1081 2147 
L 1081 531 
L 2422 531 
z
M 472 4591 
L 2444 4591 
Q 3250 4591 3591 4109 
Q 3791 3825 3791 3453 
Q 3791 3019 3544 2741 
Q 3416 2594 3175 2472 
Q 3528 2338 3703 2169 
Q 4013 1869 4013 1341 
Q 4013 897 3734 538 
Q 3319 0 2413 0 
L 472 0 
L 472 4591 
z
" transform="scale(0.015625)"/>
       </defs>
       <use xlink:href="#Helvetica-4c"/>
       <use xlink:href="#Helvetica-42" x="55.615234"/>
      </g>
     </g>
    </g>
    <g id="xtick_4">
     <g id="line2d_4">
      <g>
       <use xlink:href="#m80be712ed3" x="122.950507" y="116.28" style="stroke: #000000; stroke-width: 0.8"/>
      </g>
     </g>
     <g id="text_4">
      <!-- +Ab -->
      <g transform="translate(112.107382 128.388125) scale(0.12 -0.12)">
       <defs>
        <path id="Helvetica-2b" d="M 288 1369 
L 288 1894 
L 1650 1894 
L 1650 3266 
L 2184 3266 
L 2184 1894 
L 3547 1894 
L 3547 1369 
L 2184 1369 
L 2184 0 
L 1650 0 
L 1650 1369 
L 288 1369 
z
" transform="scale(0.015625)"/>
        <path id="Helvetica-41" d="M 2844 1881 
L 2147 3909 
L 1406 1881 
L 2844 1881 
z
M 1822 4591 
L 2525 4591 
L 4191 0 
L 3509 0 
L 3044 1375 
L 1228 1375 
L 731 0 
L 94 0 
L 1822 4591 
z
" transform="scale(0.015625)"/>
        <path id="Helvetica-62" d="M 369 4606 
L 916 4606 
L 916 2941 
Q 1100 3181 1356 3307 
Q 1613 3434 1913 3434 
Q 2538 3434 2927 3004 
Q 3316 2575 3316 1738 
Q 3316 944 2931 419 
Q 2547 -106 1866 -106 
Q 1484 -106 1222 78 
Q 1066 188 888 428 
L 888 0 
L 369 0 
L 369 4606 
z
M 1831 391 
Q 2288 391 2514 753 
Q 2741 1116 2741 1709 
Q 2741 2238 2514 2584 
Q 2288 2931 1847 2931 
Q 1463 2931 1173 2647 
Q 884 2363 884 1709 
Q 884 1238 1003 944 
Q 1225 391 1831 391 
z
" transform="scale(0.015625)"/>
       </defs>
       <use xlink:href="#Helvetica-2b"/>
       <use xlink:href="#Helvetica-41" x="58.398438"/>
       <use xlink:href="#Helvetica-62" x="125.097656"/>
      </g>
     </g>
    </g>
   </g>
   <g id="matplotlib.axis_2"/>
   <g id="LineCollection_1">
    <path clip-path="url(#pf51a20e0ea)" style="fill: none; stroke: #000000"/>
    <path d="M 66.728498 101.681257 
L 66.728498 84.45275 
" clip-path="url(#pf51a20e0ea)" style="fill: none; stroke: #000000"/>
    <path d="M 94.839502 110.087241 
L 94.839502 107.943738 
" clip-path="url(#pf51a20e0ea)" style="fill: none; stroke: #000000"/>
    <path d="M 122.950507 60.253825 
L 122.950507 51.951016 
" clip-path="url(#pf51a20e0ea)" style="fill: none; stroke: #000000"/>
   </g>
   <g id="line2d_5">
    <defs>
     <path id="mf7cf235982" d="M 2 0 
L -2 -0 
" style="stroke: #000000"/>
    </defs>
    <g clip-path="url(#pf51a20e0ea)">
     <use xlink:href="#mf7cf235982" x="66.728498" y="101.681257" style="stroke: #000000"/>
     <use xlink:href="#mf7cf235982" x="94.839502" y="110.087241" style="stroke: #000000"/>
     <use xlink:href="#mf7cf235982" x="122.950507" y="60.253825" style="stroke: #000000"/>
    </g>
   </g>
   <g id="line2d_6">
    <g clip-path="url(#pf51a20e0ea)">
     <use xlink:href="#mf7cf235982" x="66.728498" y="84.45275" style="stroke: #000000"/>
     <use xlink:href="#mf7cf235982" x="94.839502" y="107.943738" style="stroke: #000000"/>
     <use xlink:href="#mf7cf235982" x="122.950507" y="51.951016" style="stroke: #000000"/>
    </g>
   </g>
   <g id="LineCollection_2">
    <path clip-path="url(#pf51a20e0ea)" style="fill: none; stroke: #000000"/>
    <path d="M 66.728498 85.25784 
L 66.728498 73.473676 
" clip-path="url(#pf51a20e0ea)" style="fill: none; stroke: #000000"/>
    <path d="M 94.839502 93.250668 
L 94.839502 88.446593 
" clip-path="url(#pf51a20e0ea)" style="fill: none; stroke: #000000"/>
    <path d="M 122.950507 21.955466 
L 122.950507 13.653893 
" clip-path="url(#pf51a20e0ea)" style="fill: none; stroke: #000000"/>
   </g>
   <g id="line2d_7">
    <g clip-path="url(#pf51a20e0ea)">
     <use xlink:href="#mf7cf235982" x="66.728498" y="85.25784" style="stroke: #000000"/>
     <use xlink:href="#mf7cf235982" x="94.839502" y="93.250668" style="stroke: #000000"/>
     <use xlink:href="#mf7cf235982" x="122.950507" y="21.955466" style="stroke: #000000"/>
    </g>
   </g>
   <g id="line2d_8">
    <g clip-path="url(#pf51a20e0ea)">
     <use xlink:href="#mf7cf235982" x="66.728498" y="73.473676" style="stroke: #000000"/>
     <use xlink:href="#mf7cf235982" x="94.839502" y="88.446593" style="stroke: #000000"/>
     <use xlink:href="#mf7cf235982" x="122.950507" y="13.653893" style="stroke: #000000"/>
    </g>
   </g>
   <g id="LineCollection_3">
    <path clip-path="url(#pf51a20e0ea)" style="fill: none; stroke: #000000"/>
    <path d="M 66.728498 75.596804 
L 66.728498 57.927182 
" clip-path="url(#pf51a20e0ea)" style="fill: none; stroke: #000000"/>
    <path d="M 94.839502 90.84863 
L 94.839502 83.97608 
" clip-path="url(#pf51a20e0ea)" style="fill: none; stroke: #000000"/>
    <path d="M 122.950507 17.80468 
L 122.950507 17.80468 
" clip-path="url(#pf51a20e0ea)" style="fill: none; stroke: #000000"/>
   </g>
   <g id="line2d_9">
    <g clip-path="url(#pf51a20e0ea)">
     <use xlink:href="#mf7cf235982" x="66.728498" y="75.596804" style="stroke: #000000"/>
     <use xlink:href="#mf7cf235982" x="94.839502" y="90.84863" style="stroke: #000000"/>
     <use xlink:href="#mf7cf235982" x="122.950507" y="17.80468" style="stroke: #000000"/>
    </g>
   </g>
   <g id="line2d_10">
    <g clip-path="url(#pf51a20e0ea)">
     <use xlink:href="#mf7cf235982" x="66.728498" y="57.927182" style="stroke: #000000"/>
     <use xlink:href="#mf7cf235982" x="94.839502" y="83.97608" style="stroke: #000000"/>
     <use xlink:href="#mf7cf235982" x="122.950507" y="17.80468" style="stroke: #000000"/>
    </g>
   </g>
   <g id="LineCollection_4">
    <path clip-path="url(#pf51a20e0ea)" style="fill: none; stroke: #000000"/>
    <path d="M 66.728498 64.154221 
L 66.728498 60.760305 
" clip-path="url(#pf51a20e0ea)" style="fill: none; stroke: #000000"/>
    <path d="M 94.839502 86.907812 
L 94.839502 85.827886 
" clip-path="url(#pf51a20e0ea)" style="fill: none; stroke: #000000"/>
    <path d="M 122.950507 17.80468 
L 122.950507 17.80468 
" clip-path="url(#pf51a20e0ea)" style="fill: none; stroke: #000000"/>
   </g>
   <g id="line2d_11">
    <g clip-path="url(#pf51a20e0ea)">
     <use xlink:href="#mf7cf235982" x="66.728498" y="64.154221" style="stroke: #000000"/>
     <use xlink:href="#mf7cf235982" x="94.839502" y="86.907812" style="stroke: #000000"/>
     <use xlink:href="#mf7cf235982" x="122.950507" y="17.80468" style="stroke: #000000"/>
    </g>
   </g>
   <g id="line2d_12">
    <g clip-path="url(#pf51a20e0ea)">
     <use xlink:href="#mf7cf235982" x="66.728498" y="60.760305" style="stroke: #000000"/>
     <use xlink:href="#mf7cf235982" x="94.839502" y="85.827886" style="stroke: #000000"/>
     <use xlink:href="#mf7cf235982" x="122.950507" y="17.80468" style="stroke: #000000"/>
    </g>
   </g>
   <g id="LineCollection_5">
    <path clip-path="url(#pf51a20e0ea)" style="fill: none; stroke: #000000"/>
    <path d="M 66.728498 32.555703 
L 66.728498 3.117448 
" clip-path="url(#pf51a20e0ea)" style="fill: none; stroke: #000000"/>
    <path d="M 94.839502 25.028866 
L 94.839502 10.844446 
" clip-path="url(#pf51a20e0ea)" style="fill: none; stroke: #000000"/>
    <path d="M 122.950507 17.80468 
L 122.950507 17.80468 
" clip-path="url(#pf51a20e0ea)" style="fill: none; stroke: #000000"/>
   </g>
   <g id="line2d_13">
    <g clip-path="url(#pf51a20e0ea)">
     <use xlink:href="#mf7cf235982" x="66.728498" y="32.555703" style="stroke: #000000"/>
     <use xlink:href="#mf7cf235982" x="94.839502" y="25.028866" style="stroke: #000000"/>
     <use xlink:href="#mf7cf235982" x="122.950507" y="17.80468" style="stroke: #000000"/>
    </g>
   </g>
   <g id="line2d_14">
    <g clip-path="url(#pf51a20e0ea)">
     <use xlink:href="#mf7cf235982" x="66.728498" y="3.117448" style="stroke: #000000"/>
     <use xlink:href="#mf7cf235982" x="94.839502" y="10.844446" style="stroke: #000000"/>
     <use xlink:href="#mf7cf235982" x="122.950507" y="17.80468" style="stroke: #000000"/>
    </g>
   </g>
   <g id="line2d_15">
    <path d="M 38.617493 77.423125 
L 66.728498 93.067004 
L 94.839502 109.015489 
L 122.950507 56.102421 
" clip-path="url(#pf51a20e0ea)" style="fill: none"/>
   </g>
   <g id="line2d_16">
    <path d="M 38.617493 75.661522 
L 66.728498 79.365758 
L 94.839502 90.84863 
L 122.950507 17.80468 
" clip-path="url(#pf51a20e0ea)" style="fill: none"/>
   </g>
   <g id="line2d_17">
    <path d="M 38.617493 53.173963 
L 66.728498 66.761993 
L 94.839502 87.412355 
L 122.950507 17.80468 
" clip-path="url(#pf51a20e0ea)" style="fill: none"/>
   </g>
   <g id="line2d_18">
    <path d="M 38.617493 42.429969 
L 66.728498 62.457263 
L 94.839502 86.367849 
L 122.950507 17.80468 
" clip-path="url(#pf51a20e0ea)" style="fill: none"/>
   </g>
   <g id="line2d_19">
    <path d="M 38.617493 17.784 
L 66.728498 17.836575 
L 94.839502 17.936656 
L 122.950507 17.80468 
" clip-path="url(#pf51a20e0ea)" style="fill: none"/>
   </g>
   <g id="patch_23">
    <path d="M 22.032 116.28 
L 22.032 17.784 
" style="fill: none; stroke: #000000; stroke-width: 0.8; stroke-linejoin: miter; stroke-linecap: square"/>
   </g>
   <g id="patch_24">
    <path d="M 139.536 116.28 
L 139.536 17.784 
" style="fill: none; stroke: #000000; stroke-width: 0.8; stroke-linejoin: miter; stroke-linecap: square"/>
   </g>
   <g id="patch_25">
    <path d="M 22.032 116.28 
L 139.536 116.28 
" style="fill: none; stroke: #000000; stroke-width: 0.8; stroke-linejoin: miter; stroke-linecap: square"/>
   </g>
   <g id="patch_26">
    <path d="M 22.032 17.784 
L 139.536 17.784 
" style="fill: none; stroke: #000000; stroke-width: 0.8; stroke-linejoin: miter; stroke-linecap: square"/>
   </g>
   <g id="text_5">
    <!-- colE1 -->
    <g transform="translate(62.773875 11.784) scale(0.144 -0.144)">
     <defs>
      <path id="Helvetica-63" d="M 1703 3444 
Q 2269 3444 2623 3169 
Q 2978 2894 3050 2222 
L 2503 2222 
Q 2453 2531 2275 2736 
Q 2097 2941 1703 2941 
Q 1166 2941 934 2416 
Q 784 2075 784 1575 
Q 784 1072 996 728 
Q 1209 384 1666 384 
Q 2016 384 2220 598 
Q 2425 813 2503 1184 
L 3050 1184 
Q 2956 519 2581 211 
Q 2206 -97 1622 -97 
Q 966 -97 575 383 
Q 184 863 184 1581 
Q 184 2463 612 2953 
Q 1041 3444 1703 3444 
z
M 1616 3428 
L 1616 3428 
z
" transform="scale(0.015625)"/>
      <path id="Helvetica-6f" d="M 1741 363 
Q 2300 363 2508 786 
Q 2716 1209 2716 1728 
Q 2716 2197 2566 2491 
Q 2328 2953 1747 2953 
Q 1231 2953 997 2559 
Q 763 2166 763 1609 
Q 763 1075 997 719 
Q 1231 363 1741 363 
z
M 1763 3444 
Q 2409 3444 2856 3012 
Q 3303 2581 3303 1744 
Q 3303 934 2909 406 
Q 2516 -122 1688 -122 
Q 997 -122 590 345 
Q 184 813 184 1600 
Q 184 2444 612 2944 
Q 1041 3444 1763 3444 
z
M 1744 3428 
L 1744 3428 
z
" transform="scale(0.015625)"/>
      <path id="Helvetica-6c" d="M 428 4591 
L 991 4591 
L 991 0 
L 428 0 
L 428 4591 
z
" transform="scale(0.015625)"/>
      <path id="Helvetica-45" d="M 547 4591 
L 3894 4591 
L 3894 4028 
L 1153 4028 
L 1153 2634 
L 3688 2634 
L 3688 2103 
L 1153 2103 
L 1153 547 
L 3941 547 
L 3941 0 
L 547 0 
L 547 4591 
z
M 2244 4591 
L 2244 4591 
z
" transform="scale(0.015625)"/>
     </defs>
     <use xlink:href="#Helvetica-63"/>
     <use xlink:href="#Helvetica-6f" x="50"/>
     <use xlink:href="#Helvetica-6c" x="105.615234"/>
     <use xlink:href="#Helvetica-45" x="127.832031"/>
     <use xlink:href="#Helvetica-31" x="194.53125"/>
    </g>
   </g>
  </g>
 </g>
 <defs>
  <clipPath id="pf51a20e0ea">
   <rect x="22.032" y="17.784" width="117.504" height="98.496"/>
  </clipPath>
 </defs>
</svg>
