<?xml version="1.0" encoding="utf-8" standalone="no"?>
<!DOCTYPE svg PUBLIC "-//W3C//DTD SVG 1.1//EN"
  "http://www.w3.org/Graphics/SVG/1.1/DTD/svg11.dtd">
<svg xmlns:xlink="http://www.w3.org/1999/xlink" width="146.88pt" height="136.8pt" viewBox="0 0 146.88 136.8" xmlns="http://www.w3.org/2000/svg" version="1.1">
 <metadata>
  <rdf:RDF xmlns:dc="http://purl.org/dc/elements/1.1/" xmlns:cc="http://creativecommons.org/ns#" xmlns:rdf="http://www.w3.org/1999/02/22-rdf-syntax-ns#">
   <cc:Work>
    <dc:type rdf:resource="http://purl.org/dc/dcmitype/StillImage"/>
    <dc:date>2025-10-06T10:32:57.308270</dc:date>
    <dc:format>image/svg+xml</dc:format>
    <dc:creator>
     <cc:Agent>
      <dc:title>Matplotlib v3.7.5, https://matplotlib.org/</dc:title>
     </cc:Agent>
    </dc:creator>
   </cc:Work>
  </rdf:RDF>
 </metadata>
 <defs>
  <style type="text/css">*{stroke-linejoin: round; stroke-linecap: butt}</style>
 </defs>
 <g id="figure_1">
  <g id="patch_1">
   <path d="M 0 136.8 
L 146.88 136.8 
L 146.88 0 
L 0 0 
z
" style="fill: #ffffff"/>
  </g>
  <g id="axes_1">
   <g id="patch_2">
    <path d="M 22.032 116.28 
L 139.536 116.28 
L 139.536 17.784 
L 22.032 17.784 
z
" style="fill: #ffffff"/>
   </g>
   <g id="patch_3">
    <path d="M 27.373091 116.28 
L 49.861895 116.28 
L 49.861895 77.525291 
L 27.373091 77.525291 
z
" clip-path="url(#p2e6b8e0e81)" style="fill: #66c2a5"/>
   </g>
   <g id="patch_4">
    <path d="M 55.484096 116.28 
L 77.9729 116.28 
L 77.9729 90.688494 
L 55.484096 90.688494 
z
" clip-path="url(#p2e6b8e0e81)" style="fill: #66c2a5"/>
   </g>
   <g id="patch_5">
    <path d="M 83.5951 116.28 
L 106.083904 116.28 
L 106.083904 110.321303 
L 83.5951 110.321303 
z
" clip-path="url(#p2e6b8e0e81)" style="fill: #66c2a5"/>
   </g>
   <g id="patch_6">
    <path d="M 111.706105 116.28 
L 134.194909 116.28 
L 134.194909 42.300786 
L 111.706105 42.300786 
z
" clip-path="url(#p2e6b8e0e81)" style="fill: #66c2a5"/>
   </g>
   <g id="patch_7">
    <path d="M 27.373091 77.525291 
L 49.861895 77.525291 
L 49.861895 75.750351 
L 27.373091 75.750351 
z
" clip-path="url(#p2e6b8e0e81)" style="fill: #e78ac3"/>
   </g>
   <g id="patch_8">
    <path d="M 55.484096 90.688494 
L 77.9729 90.688494 
L 77.9729 67.941405 
L 55.484096 67.941405 
z
" clip-path="url(#p2e6b8e0e81)" style="fill: #e78ac3"/>
   </g>
   <g id="patch_9">
    <path d="M 83.5951 110.321303 
L 106.083904 110.321303 
L 106.083904 84.957427 
L 83.5951 84.957427 
z
" clip-path="url(#p2e6b8e0e81)" style="fill: #e78ac3"/>
   </g>
   <g id="patch_10">
    <path d="M 111.706105 42.300786 
L 134.194909 42.300786 
L 134.194909 17.785324 
L 111.706105 17.785324 
z
" clip-path="url(#p2e6b8e0e81)" style="fill: #e78ac3"/>
   </g>
   <g id="patch_11">
    <path d="M 27.373091 75.750351 
L 49.861895 75.750351 
L 49.861895 53.917037 
L 27.373091 53.917037 
z
" clip-path="url(#p2e6b8e0e81)" style="fill: #a6d854"/>
   </g>
   <g id="patch_12">
    <path d="M 55.484096 67.941405 
L 77.9729 67.941405 
L 77.9729 54.768497 
L 55.484096 54.768497 
z
" clip-path="url(#p2e6b8e0e81)" style="fill: #a6d854"/>
   </g>
   <g id="patch_13">
    <path d="M 83.5951 84.957427 
L 106.083904 84.957427 
L 106.083904 82.232199 
L 83.5951 82.232199 
z
" clip-path="url(#p2e6b8e0e81)" style="fill: #a6d854"/>
   </g>
   <g id="patch_14">
    <path d="M 111.706105 17.785324 
L 134.194909 17.785324 
L 134.194909 17.785324 
L 111.706105 17.785324 
z
" clip-path="url(#p2e6b8e0e81)" style="fill: #a6d854"/>
   </g>
   <g id="patch_15">
    <path d="M 27.373091 53.917037 
L 49.861895 53.917037 
L 49.861895 42.791726 
L 27.373091 42.791726 
z
" clip-path="url(#p2e6b8e0e81)" style="fill: #ffd92f"/>
   </g>
   <g id="patch_16">
    <path d="M 55.484096 54.768497 
L 77.9729 54.768497 
L 77.9729 44.449748 
L 55.484096 44.449748 
z
" clip-path="url(#p2e6b8e0e81)" style="fill: #ffd92f"/>
   </g>
   <g id="patch_17">
    <path d="M 83.5951 82.232199 
L 106.083904 82.232199 
L 106.083904 77.407659 
L 83.5951 77.407659 
z
" clip-path="url(#p2e6b8e0e81)" style="fill: #ffd92f"/>
   </g>
   <g id="patch_18">
    <path d="M 111.706105 17.785324 
L 134.194909 17.785324 
L 134.194909 17.785324 
L 111.706105 17.785324 
z
" clip-path="url(#p2e6b8e0e81)" style="fill: #ffd92f"/>
   </g>
   <g id="patch_19">
    <path d="M 27.373091 42.791726 
L 49.861895 42.791726 
L 49.861895 17.784 
L 27.373091 17.784 
z
" clip-path="url(#p2e6b8e0e81)" style="fill: #e5c494"/>
   </g>
   <g id="patch_20">
    <path d="M 55.484096 44.449748 
L 77.9729 44.449748 
L 77.9729 17.967495 
L 55.484096 17.967495 
z
" clip-path="url(#p2e6b8e0e81)" style="fill: #e5c494"/>
   </g>
   <g id="patch_21">
    <path d="M 83.5951 77.407659 
L 106.083904 77.407659 
L 106.083904 17.784 
L 83.5951 17.784 
z
" clip-path="url(#p2e6b8e0e81)" style="fill: #e5c494"/>
   </g>
   <g id="patch_22">
    <path d="M 111.706105 17.785324 
L 134.194909 17.785324 
L 134.194909 17.785324 
L 111.706105 17.785324 
z
" clip-path="url(#p2e6b8e0e81)" style="fill: #e5c494"/>
   </g>
   <g id="matplotlib.axis_1">
    <g id="xtick_1">
     <g id="line2d_1">
      <defs>
       <path id="m12fe2f6521" d="M 0 0 
L 0 -3.5 
" style="stroke: #000000; stroke-width: 0.8"/>
      </defs>
      <g>
       <use xlink:href="#m12fe2f6521" x="38.617493" y="116.28" style="stroke: #000000; stroke-width: 0.8"/>
      </g>
     </g>
     <g id="text_1">
      <!-- D0 -->
      <g transform="translate(30.947805 128.388125) scale(0.12 -0.12)">
       <defs>
        <path id="Helvetica-44" d="M 2250 531 
Q 2566 531 2769 597 
Q 3131 719 3363 1066 
Q 3547 1344 3628 1778 
Q 3675 2038 3675 2259 
Q 3675 3113 3336 3584 
Q 2997 4056 2244 4056 
L 1141 4056 
L 1141 531 
L 2250 531 
z
M 516 4591 
L 2375 4591 
Q 3322 4591 3844 3919 
Q 4309 3313 4309 2366 
Q 4309 1634 4034 1044 
Q 3550 0 2369 0 
L 516 0 
L 516 4591 
z
" transform="scale(0.015625)"/>
        <path id="Helvetica-30" d="M 1731 4475 
Q 2600 4475 2988 3759 
Q 3288 3206 3288 2244 
Q 3288 1331 3016 734 
Q 2622 -122 1728 -122 
Q 922 -122 528 578 
Q 200 1163 200 2147 
Q 200 2909 397 3456 
Q 766 4475 1731 4475 
z
M 1725 391 
Q 2163 391 2422 778 
Q 2681 1166 2681 2222 
Q 2681 2984 2493 3476 
Q 2306 3969 1766 3969 
Q 1269 3969 1039 3501 
Q 809 3034 809 2125 
Q 809 1441 956 1025 
Q 1181 391 1725 391 
z
" transform="scale(0.015625)"/>
       </defs>
       <use xlink:href="#Helvetica-44"/>
       <use xlink:href="#Helvetica-30" x="72.216797"/>
      </g>
     </g>
    </g>
    <g id="xtick_2">
     <g id="line2d_2">
      <g>
       <use xlink:href="#m12fe2f6521" x="66.728498" y="116.28" style="stroke: #000000; stroke-width: 0.8"/>
      </g>
     </g>
     <g id="text_2">
      <!-- D1 -->
      <g transform="translate(59.05881 128.388125) scale(0.12 -0.12)">
       <defs>
        <path id="Helvetica-31" d="M 613 3169 
L 613 3600 
Q 1222 3659 1462 3798 
Q 1703 3938 1822 4456 
L 2266 4456 
L 2266 0 
L 1666 0 
L 1666 3169 
L 613 3169 
z
" transform="scale(0.015625)"/>
       </defs>
       <use xlink:href="#Helvetica-44"/>
       <use xlink:href="#Helvetica-31" x="72.216797"/>
      </g>
     </g>
    </g>
    <g id="xtick_3">
     <g id="line2d_3">
      <g>
       <use xlink:href="#m12fe2f6521" x="94.839502" y="116.28" style="stroke: #000000; stroke-width: 0.8"/>
      </g>
     </g>
     <g id="text_3">
      <!-- LB -->
      <g transform="translate(87.500752 128.388125) scale(0.12 -0.12)">
       <defs>
        <path id="Helvetica-4c" d="M 488 4591 
L 1109 4591 
L 1109 547 
L 3434 547 
L 3434 0 
L 488 0 
L 488 4591 
z
" transform="scale(0.015625)"/>
        <path id="Helvetica-42" d="M 2213 2650 
Q 2606 2650 2825 2759 
Q 3169 2931 3169 3378 
Q 3169 3828 2803 3984 
Q 2597 4072 2191 4072 
L 1081 4072 
L 1081 2650 
L 2213 2650 
z
M 2422 531 
Q 2994 531 3238 863 
Q 3391 1072 3391 1369 
Q 3391 1869 2944 2050 
Q 2706 2147 2316 2147 
L 1081 2147 
L 1081 531 
L 2422 531 
z
M 472 4591 
L 2444 4591 
Q 3250 4591 3591 4109 
Q 3791 3825 3791 3453 
Q 3791 3019 3544 2741 
Q 3416 2594 3175 2472 
Q 3528 2338 3703 2169 
Q 4013 1869 4013 1341 
Q 4013 897 3734 538 
Q 3319 0 2413 0 
L 472 0 
L 472 4591 
z
" transform="scale(0.015625)"/>
       </defs>
       <use xlink:href="#Helvetica-4c"/>
       <use xlink:href="#Helvetica-42" x="55.615234"/>
      </g>
     </g>
    </g>
    <g id="xtick_4">
     <g id="line2d_4">
      <g>
       <use xlink:href="#m12fe2f6521" x="122.950507" y="116.28" style="stroke: #000000; stroke-width: 0.8"/>
      </g>
     </g>
     <g id="text_4">
      <!-- +Ab -->
      <g transform="translate(112.107382 128.388125) scale(0.12 -0.12)">
       <defs>
        <path id="Helvetica-2b" d="M 288 1369 
L 288 1894 
L 1650 1894 
L 1650 3266 
L 2184 3266 
L 2184 1894 
L 3547 1894 
L 3547 1369 
L 2184 1369 
L 2184 0 
L 1650 0 
L 1650 1369 
L 288 1369 
z
" transform="scale(0.015625)"/>
        <path id="Helvetica-41" d="M 2844 1881 
L 2147 3909 
L 1406 1881 
L 2844 1881 
z
M 1822 4591 
L 2525 4591 
L 4191 0 
L 3509 0 
L 3044 1375 
L 1228 1375 
L 731 0 
L 94 0 
L 1822 4591 
z
" transform="scale(0.015625)"/>
        <path id="Helvetica-62" d="M 369 4606 
L 916 4606 
L 916 2941 
Q 1100 3181 1356 3307 
Q 1613 3434 1913 3434 
Q 2538 3434 2927 3004 
Q 3316 2575 3316 1738 
Q 3316 944 2931 419 
Q 2547 -106 1866 -106 
Q 1484 -106 1222 78 
Q 1066 188 888 428 
L 888 0 
L 369 0 
L 369 4606 
z
M 1831 391 
Q 2288 391 2514 753 
Q 2741 1116 2741 1709 
Q 2741 2238 2514 2584 
Q 2288 2931 1847 2931 
Q 1463 2931 1173 2647 
Q 884 2363 884 1709 
Q 884 1238 1003 944 
Q 1225 391 1831 391 
z
" transform="scale(0.015625)"/>
       </defs>
       <use xlink:href="#Helvetica-2b"/>
       <use xlink:href="#Helvetica-41" x="58.398438"/>
       <use xlink:href="#Helvetica-62" x="125.097656"/>
      </g>
     </g>
    </g>
   </g>
   <g id="matplotlib.axis_2"/>
   <g id="LineCollection_1">
    <path clip-path="url(#p2e6b8e0e81)" style="fill: none; stroke: #000000"/>
    <path d="M 66.728498 94.859562 
L 66.728498 86.517427 
" clip-path="url(#p2e6b8e0e81)" style="fill: none; stroke: #000000"/>
    <path d="M 94.839502 111.21523 
L 94.839502 109.427375 
" clip-path="url(#p2e6b8e0e81)" style="fill: none; stroke: #000000"/>
    <path d="M 122.950507 60.447662 
L 122.950507 24.15391 
" clip-path="url(#p2e6b8e0e81)" style="fill: none; stroke: #000000"/>
   </g>
   <g id="line2d_5">
    <defs>
     <path id="m35a6e22801" d="M 2 0 
L -2 -0 
" style="stroke: #000000"/>
    </defs>
    <g clip-path="url(#p2e6b8e0e81)">
     <use xlink:href="#m35a6e22801" x="66.728498" y="94.859562" style="stroke: #000000"/>
     <use xlink:href="#m35a6e22801" x="94.839502" y="111.21523" style="stroke: #000000"/>
     <use xlink:href="#m35a6e22801" x="122.950507" y="60.447662" style="stroke: #000000"/>
    </g>
   </g>
   <g id="line2d_6">
    <g clip-path="url(#p2e6b8e0e81)">
     <use xlink:href="#m35a6e22801" x="66.728498" y="86.517427" style="stroke: #000000"/>
     <use xlink:href="#m35a6e22801" x="94.839502" y="109.427375" style="stroke: #000000"/>
     <use xlink:href="#m35a6e22801" x="122.950507" y="24.15391" style="stroke: #000000"/>
    </g>
   </g>
   <g id="LineCollection_2">
    <path clip-path="url(#p2e6b8e0e81)" style="fill: none; stroke: #000000"/>
    <path d="M 66.728498 70.816094 
L 66.728498 65.066717 
" clip-path="url(#p2e6b8e0e81)" style="fill: none; stroke: #000000"/>
    <path d="M 94.839502 89.916595 
L 94.839502 79.998259 
" clip-path="url(#p2e6b8e0e81)" style="fill: none; stroke: #000000"/>
    <path d="M 122.950507 35.933094 
L 122.950507 -0.362446 
" clip-path="url(#p2e6b8e0e81)" style="fill: none; stroke: #000000"/>
   </g>
   <g id="line2d_7">
    <g clip-path="url(#p2e6b8e0e81)">
     <use xlink:href="#m35a6e22801" x="66.728498" y="70.816094" style="stroke: #000000"/>
     <use xlink:href="#m35a6e22801" x="94.839502" y="89.916595" style="stroke: #000000"/>
     <use xlink:href="#m35a6e22801" x="122.950507" y="35.933094" style="stroke: #000000"/>
    </g>
   </g>
   <g id="line2d_8">
    <g clip-path="url(#p2e6b8e0e81)">
     <use xlink:href="#m35a6e22801" x="66.728498" y="65.066717" style="stroke: #000000"/>
     <use xlink:href="#m35a6e22801" x="94.839502" y="79.998259" style="stroke: #000000"/>
     <use xlink:href="#m35a6e22801" x="122.950507" y="-0.362446" style="stroke: #000000"/>
    </g>
   </g>
   <g id="LineCollection_3">
    <path clip-path="url(#p2e6b8e0e81)" style="fill: none; stroke: #000000"/>
    <path d="M 66.728498 66.061607 
L 66.728498 43.475387 
" clip-path="url(#p2e6b8e0e81)" style="fill: none; stroke: #000000"/>
    <path d="M 94.839502 84.957427 
L 94.839502 79.506972 
" clip-path="url(#p2e6b8e0e81)" style="fill: none; stroke: #000000"/>
    <path d="M 122.950507 17.785324 
L 122.950507 17.785324 
" clip-path="url(#p2e6b8e0e81)" style="fill: none; stroke: #000000"/>
   </g>
   <g id="line2d_9">
    <g clip-path="url(#p2e6b8e0e81)">
     <use xlink:href="#m35a6e22801" x="66.728498" y="66.061607" style="stroke: #000000"/>
     <use xlink:href="#m35a6e22801" x="94.839502" y="84.957427" style="stroke: #000000"/>
     <use xlink:href="#m35a6e22801" x="122.950507" y="17.785324" style="stroke: #000000"/>
    </g>
   </g>
   <g id="line2d_10">
    <g clip-path="url(#p2e6b8e0e81)">
     <use xlink:href="#m35a6e22801" x="66.728498" y="43.475387" style="stroke: #000000"/>
     <use xlink:href="#m35a6e22801" x="94.839502" y="79.506972" style="stroke: #000000"/>
     <use xlink:href="#m35a6e22801" x="122.950507" y="17.785324" style="stroke: #000000"/>
    </g>
   </g>
   <g id="LineCollection_4">
    <path clip-path="url(#p2e6b8e0e81)" style="fill: none; stroke: #000000"/>
    <path d="M 66.728498 45.262724 
L 66.728498 43.636772 
" clip-path="url(#p2e6b8e0e81)" style="fill: none; stroke: #000000"/>
    <path d="M 94.839502 79.159377 
L 94.839502 75.655941 
" clip-path="url(#p2e6b8e0e81)" style="fill: none; stroke: #000000"/>
    <path d="M 122.950507 17.785324 
L 122.950507 17.785324 
" clip-path="url(#p2e6b8e0e81)" style="fill: none; stroke: #000000"/>
   </g>
   <g id="line2d_11">
    <g clip-path="url(#p2e6b8e0e81)">
     <use xlink:href="#m35a6e22801" x="66.728498" y="45.262724" style="stroke: #000000"/>
     <use xlink:href="#m35a6e22801" x="94.839502" y="79.159377" style="stroke: #000000"/>
     <use xlink:href="#m35a6e22801" x="122.950507" y="17.785324" style="stroke: #000000"/>
    </g>
   </g>
   <g id="line2d_12">
    <g clip-path="url(#p2e6b8e0e81)">
     <use xlink:href="#m35a6e22801" x="66.728498" y="43.636772" style="stroke: #000000"/>
     <use xlink:href="#m35a6e22801" x="94.839502" y="75.655941" style="stroke: #000000"/>
     <use xlink:href="#m35a6e22801" x="122.950507" y="17.785324" style="stroke: #000000"/>
    </g>
   </g>
   <g id="LineCollection_5">
    <path clip-path="url(#p2e6b8e0e81)" style="fill: none; stroke: #000000"/>
    <path d="M 66.728498 25.757139 
L 66.728498 10.177851 
" clip-path="url(#p2e6b8e0e81)" style="fill: none; stroke: #000000"/>
    <path d="M 94.839502 25.214503 
L 94.839502 10.353497 
" clip-path="url(#p2e6b8e0e81)" style="fill: none; stroke: #000000"/>
    <path d="M 122.950507 17.785324 
L 122.950507 17.785324 
" clip-path="url(#p2e6b8e0e81)" style="fill: none; stroke: #000000"/>
   </g>
   <g id="line2d_13">
    <g clip-path="url(#p2e6b8e0e81)">
     <use xlink:href="#m35a6e22801" x="66.728498" y="25.757139" style="stroke: #000000"/>
     <use xlink:href="#m35a6e22801" x="94.839502" y="25.214503" style="stroke: #000000"/>
     <use xlink:href="#m35a6e22801" x="122.950507" y="17.785324" style="stroke: #000000"/>
    </g>
   </g>
   <g id="line2d_14">
    <g clip-path="url(#p2e6b8e0e81)">
     <use xlink:href="#m35a6e22801" x="66.728498" y="10.177851" style="stroke: #000000"/>
     <use xlink:href="#m35a6e22801" x="94.839502" y="10.353497" style="stroke: #000000"/>
     <use xlink:href="#m35a6e22801" x="122.950507" y="17.785324" style="stroke: #000000"/>
    </g>
   </g>
   <g id="line2d_15">
    <path d="M 38.617493 77.525291 
L 66.728498 90.688494 
L 94.839502 110.321303 
L 122.950507 42.300786 
" clip-path="url(#p2e6b8e0e81)" style="fill: none"/>
   </g>
   <g id="line2d_16">
    <path d="M 38.617493 75.750351 
L 66.728498 67.941405 
L 94.839502 84.957427 
L 122.950507 17.785324 
" clip-path="url(#p2e6b8e0e81)" style="fill: none"/>
   </g>
   <g id="line2d_17">
    <path d="M 38.617493 53.917037 
L 66.728498 54.768497 
L 94.839502 82.232199 
L 122.950507 17.785324 
" clip-path="url(#p2e6b8e0e81)" style="fill: none"/>
   </g>
   <g id="line2d_18">
    <path d="M 38.617493 42.791726 
L 66.728498 44.449748 
L 94.839502 77.407659 
L 122.950507 17.785324 
" clip-path="url(#p2e6b8e0e81)" style="fill: none"/>
   </g>
   <g id="line2d_19">
    <path d="M 38.617493 17.784 
L 66.728498 17.967495 
L 94.839502 17.784 
L 122.950507 17.785324 
" clip-path="url(#p2e6b8e0e81)" style="fill: none"/>
   </g>
   <g id="patch_23">
    <path d="M 22.032 116.28 
L 22.032 17.784 
" style="fill: none; stroke: #000000; stroke-width: 0.8; stroke-linejoin: miter; stroke-linecap: square"/>
   </g>
   <g id="patch_24">
    <path d="M 139.536 116.28 
L 139.536 17.784 
" style="fill: none; stroke: #000000; stroke-width: 0.8; stroke-linejoin: miter; stroke-linecap: square"/>
   </g>
   <g id="patch_25">
    <path d="M 22.032 116.28 
L 139.536 116.28 
" style="fill: none; stroke: #000000; stroke-width: 0.8; stroke-linejoin: miter; stroke-linecap: square"/>
   </g>
   <g id="patch_26">
    <path d="M 22.032 17.784 
L 139.536 17.784 
" style="fill: none; stroke: #000000; stroke-width: 0.8; stroke-linejoin: miter; stroke-linecap: square"/>
   </g>
   <g id="text_5">
    <!-- pSC101 -->
    <g transform="translate(54.766125 11.784) scale(0.144 -0.144)">
     <defs>
      <path id="Helvetica-70" d="M 1825 378 
Q 2219 378 2480 708 
Q 2741 1038 2741 1694 
Q 2741 2094 2625 2381 
Q 2406 2934 1825 2934 
Q 1241 2934 1025 2350 
Q 909 2038 909 1556 
Q 909 1169 1025 897 
Q 1244 378 1825 378 
z
M 369 3331 
L 916 3331 
L 916 2888 
Q 1084 3116 1284 3241 
Q 1569 3428 1953 3428 
Q 2522 3428 2919 2992 
Q 3316 2556 3316 1747 
Q 3316 653 2744 184 
Q 2381 -113 1900 -113 
Q 1522 -113 1266 53 
Q 1116 147 931 375 
L 931 -1334 
L 369 -1334 
L 369 3331 
z
" transform="scale(0.015625)"/>
      <path id="Helvetica-53" d="M 894 1481 
Q 916 1091 1078 847 
Q 1388 391 2169 391 
Q 2519 391 2806 491 
Q 3363 684 3363 1184 
Q 3363 1559 3128 1719 
Q 2891 1875 2384 1991 
L 1763 2131 
Q 1153 2269 900 2434 
Q 463 2722 463 3294 
Q 463 3913 891 4309 
Q 1319 4706 2103 4706 
Q 2825 4706 3329 4357 
Q 3834 4009 3834 3244 
L 3250 3244 
Q 3203 3613 3050 3809 
Q 2766 4169 2084 4169 
Q 1534 4169 1293 3937 
Q 1053 3706 1053 3400 
Q 1053 3063 1334 2906 
Q 1519 2806 2169 2656 
L 2813 2509 
Q 3278 2403 3531 2219 
Q 3969 1897 3969 1284 
Q 3969 522 3414 194 
Q 2859 -134 2125 -134 
Q 1269 -134 784 303 
Q 300 738 309 1481 
L 894 1481 
z
M 2150 4716 
L 2150 4716 
z
" transform="scale(0.015625)"/>
      <path id="Helvetica-43" d="M 2422 4716 
Q 3294 4716 3775 4256 
Q 4256 3797 4309 3213 
L 3703 3213 
Q 3600 3656 3292 3915 
Q 2984 4175 2428 4175 
Q 1750 4175 1333 3698 
Q 916 3222 916 2238 
Q 916 1431 1292 929 
Q 1669 428 2416 428 
Q 3103 428 3463 956 
Q 3653 1234 3747 1688 
L 4353 1688 
Q 4272 963 3816 472 
Q 3269 -119 2341 -119 
Q 1541 -119 997 366 
Q 281 1006 281 2344 
Q 281 3359 819 4009 
Q 1400 4716 2422 4716 
z
M 2297 4716 
L 2297 4716 
z
" transform="scale(0.015625)"/>
     </defs>
     <use xlink:href="#Helvetica-70"/>
     <use xlink:href="#Helvetica-53" x="55.615234"/>
     <use xlink:href="#Helvetica-43" x="122.314453"/>
     <use xlink:href="#Helvetica-31" x="194.53125"/>
     <use xlink:href="#Helvetica-30" x="250.146484"/>
     <use xlink:href="#Helvetica-31" x="305.761719"/>
    </g>
   </g>
  </g>
 </g>
 <defs>
  <clipPath id="p2e6b8e0e81">
   <rect x="22.032" y="17.784" width="117.504" height="98.496"/>
  </clipPath>
 </defs>
</svg>
