<?xml version="1.0" encoding="utf-8" standalone="no"?>
<!DOCTYPE svg PUBLIC "-//W3C//DTD SVG 1.1//EN"
  "http://www.w3.org/Graphics/SVG/1.1/DTD/svg11.dtd">
<svg xmlns:xlink="http://www.w3.org/1999/xlink" width="146.88pt" height="136.8pt" viewBox="0 0 146.88 136.8" xmlns="http://www.w3.org/2000/svg" version="1.1">
 <metadata>
  <rdf:RDF xmlns:dc="http://purl.org/dc/elements/1.1/" xmlns:cc="http://creativecommons.org/ns#" xmlns:rdf="http://www.w3.org/1999/02/22-rdf-syntax-ns#">
   <cc:Work>
    <dc:type rdf:resource="http://purl.org/dc/dcmitype/StillImage"/>
    <dc:date>2025-09-14T19:42:12.542047</dc:date>
    <dc:format>image/svg+xml</dc:format>
    <dc:creator>
     <cc:Agent>
      <dc:title>Matplotlib v3.7.5, https://matplotlib.org/</dc:title>
     </cc:Agent>
    </dc:creator>
   </cc:Work>
  </rdf:RDF>
 </metadata>
 <defs>
  <style type="text/css">*{stroke-linejoin: round; stroke-linecap: butt}</style>
 </defs>
 <g id="figure_1">
  <g id="patch_1">
   <path d="M 0 136.8 
L 146.88 136.8 
L 146.88 0 
L 0 0 
z
" style="fill: #ffffff"/>
  </g>
  <g id="axes_1">
   <g id="patch_2">
    <path d="M 36.72 105.336 
L 139.536 105.336 
L 139.536 6.84 
L 36.72 6.84 
z
" style="fill: #ffffff"/>
   </g>
   <g id="PolyCollection_1">
    <path d="M 53.856 6.84 
L 53.856 215.384558 
L 62.424 215.384558 
L 62.424 6.84 
L 62.424 6.84 
L 53.856 6.84 
z
" clip-path="url(#p0ef0f8eab7)" style="fill: #808080; fill-opacity: 0.3; stroke: #808080; stroke-opacity: 0.3"/>
   </g>
   <g id="PolyCollection_2">
    <defs>
     <path id="ma2e715123d" d="M 36.72 -111.349309 
L 36.72 -106.629064 
L 139.536 -106.629064 
L 139.536 -111.349309 
L 139.536 -111.349309 
L 36.72 -111.349309 
z
" style="stroke: #7fbf7b; stroke-opacity: 0.3"/>
    </defs>
    <g clip-path="url(#p0ef0f8eab7)">
     <use xlink:href="#ma2e715123d" x="0" y="136.8" style="fill: #7fbf7b; fill-opacity: 0.3; stroke: #7fbf7b; stroke-opacity: 0.3"/>
    </g>
   </g>
   <g id="line2d_1">
    <path d="M 36.72 27.694456 
L 139.536 27.694456 
" clip-path="url(#p0ef0f8eab7)" style="fill: none; stroke: #7fbf7b; stroke-linecap: square"/>
   </g>
   <g id="line2d_2">
    <path d="M 45.288 51.074447 
L 53.856 79.329768 
L 62.424 61.318188 
L 70.992 46.589901 
L 79.56 59.19218 
L 88.128 53.432444 
L 96.696 63.593007 
L 105.264 76.459537 
L 113.832 73.840962 
L 122.4 58.030347 
L 130.968 67.932982 
" clip-path="url(#p0ef0f8eab7)" style="fill: none; stroke: #fc8d62; stroke-width: 1.5; stroke-linecap: square"/>
   </g>
   <g id="PathCollection_1">
    <defs>
     <path id="m050583f26d" d="M 0 3.535534 
C 0.937635 3.535534 1.836992 3.163008 2.5 2.5 
C 3.163008 1.836992 3.535534 0.937635 3.535534 0 
C 3.535534 -0.937635 3.163008 -1.836992 2.5 -2.5 
C 1.836992 -3.163008 0.937635 -3.535534 0 -3.535534 
C -0.937635 -3.535534 -1.836992 -3.163008 -2.5 -2.5 
C -3.163008 -1.836992 -3.535534 -0.937635 -3.535534 0 
C -3.535534 0.937635 -3.163008 1.836992 -2.5 2.5 
C -1.836992 3.163008 -0.937635 3.535534 0 3.535534 
z
" style="stroke: #000000"/>
    </defs>
    <g clip-path="url(#p0ef0f8eab7)">
     <use xlink:href="#m050583f26d" x="45.288" y="51.074447" style="fill: #fc8d62; stroke: #000000"/>
     <use xlink:href="#m050583f26d" x="53.856" y="79.329768" style="fill: #fc8d62; stroke: #000000"/>
     <use xlink:href="#m050583f26d" x="62.424" y="61.318188" style="fill: #fc8d62; stroke: #000000"/>
     <use xlink:href="#m050583f26d" x="70.992" y="46.589901" style="fill: #fc8d62; stroke: #000000"/>
     <use xlink:href="#m050583f26d" x="79.56" y="59.19218" style="fill: #fc8d62; stroke: #000000"/>
     <use xlink:href="#m050583f26d" x="88.128" y="53.432444" style="fill: #fc8d62; stroke: #000000"/>
     <use xlink:href="#m050583f26d" x="96.696" y="63.593007" style="fill: #fc8d62; stroke: #000000"/>
     <use xlink:href="#m050583f26d" x="105.264" y="76.459537" style="fill: #fc8d62; stroke: #000000"/>
     <use xlink:href="#m050583f26d" x="113.832" y="73.840962" style="fill: #fc8d62; stroke: #000000"/>
     <use xlink:href="#m050583f26d" x="122.4" y="58.030347" style="fill: #fc8d62; stroke: #000000"/>
     <use xlink:href="#m050583f26d" x="130.968" y="67.932982" style="fill: #fc8d62; stroke: #000000"/>
    </g>
   </g>
   <g id="LineCollection_1">
    <path d="M 45.288 51.074447 
L 45.288 51.074447 
" clip-path="url(#p0ef0f8eab7)" style="fill: none; stroke: #000000"/>
    <path d="M 53.856 79.518928 
L 53.856 79.142094 
" clip-path="url(#p0ef0f8eab7)" style="fill: none; stroke: #000000"/>
    <path d="M 62.424 61.620091 
L 62.424 61.020052 
" clip-path="url(#p0ef0f8eab7)" style="fill: none; stroke: #000000"/>
    <path d="M 70.992 46.774093 
L 70.992 46.407117 
" clip-path="url(#p0ef0f8eab7)" style="fill: none; stroke: #000000"/>
    <path d="M 79.56 59.331306 
L 79.56 59.053858 
" clip-path="url(#p0ef0f8eab7)" style="fill: none; stroke: #000000"/>
    <path d="M 88.128 53.520364 
L 88.128 53.344846 
" clip-path="url(#p0ef0f8eab7)" style="fill: none; stroke: #000000"/>
    <path d="M 96.696 63.764768 
L 96.696 63.422471 
" clip-path="url(#p0ef0f8eab7)" style="fill: none; stroke: #000000"/>
    <path d="M 105.264 76.929589 
L 105.264 75.998552 
" clip-path="url(#p0ef0f8eab7)" style="fill: none; stroke: #000000"/>
    <path d="M 113.832 73.952421 
L 113.832 73.730021 
" clip-path="url(#p0ef0f8eab7)" style="fill: none; stroke: #000000"/>
    <path d="M 122.4 58.103289 
L 122.4 57.957626 
" clip-path="url(#p0ef0f8eab7)" style="fill: none; stroke: #000000"/>
    <path d="M 130.968 68.05724 
L 130.968 67.809367 
" clip-path="url(#p0ef0f8eab7)" style="fill: none; stroke: #000000"/>
   </g>
   <g id="line2d_3">
    <defs>
     <path id="mc51361ca03" d="M 1.3 0 
L -1.3 -0 
" style="stroke: #000000"/>
    </defs>
    <g clip-path="url(#p0ef0f8eab7)">
     <use xlink:href="#mc51361ca03" x="45.288" y="51.074447" style="stroke: #000000"/>
     <use xlink:href="#mc51361ca03" x="53.856" y="79.518928" style="stroke: #000000"/>
     <use xlink:href="#mc51361ca03" x="62.424" y="61.620091" style="stroke: #000000"/>
     <use xlink:href="#mc51361ca03" x="70.992" y="46.774093" style="stroke: #000000"/>
     <use xlink:href="#mc51361ca03" x="79.56" y="59.331306" style="stroke: #000000"/>
     <use xlink:href="#mc51361ca03" x="88.128" y="53.520364" style="stroke: #000000"/>
     <use xlink:href="#mc51361ca03" x="96.696" y="63.764768" style="stroke: #000000"/>
     <use xlink:href="#mc51361ca03" x="105.264" y="76.929589" style="stroke: #000000"/>
     <use xlink:href="#mc51361ca03" x="113.832" y="73.952421" style="stroke: #000000"/>
     <use xlink:href="#mc51361ca03" x="122.4" y="58.103289" style="stroke: #000000"/>
     <use xlink:href="#mc51361ca03" x="130.968" y="68.05724" style="stroke: #000000"/>
    </g>
   </g>
   <g id="line2d_4">
    <g clip-path="url(#p0ef0f8eab7)">
     <use xlink:href="#mc51361ca03" x="45.288" y="51.074447" style="stroke: #000000"/>
     <use xlink:href="#mc51361ca03" x="53.856" y="79.142094" style="stroke: #000000"/>
     <use xlink:href="#mc51361ca03" x="62.424" y="61.020052" style="stroke: #000000"/>
     <use xlink:href="#mc51361ca03" x="70.992" y="46.407117" style="stroke: #000000"/>
     <use xlink:href="#mc51361ca03" x="79.56" y="59.053858" style="stroke: #000000"/>
     <use xlink:href="#mc51361ca03" x="88.128" y="53.344846" style="stroke: #000000"/>
     <use xlink:href="#mc51361ca03" x="96.696" y="63.422471" style="stroke: #000000"/>
     <use xlink:href="#mc51361ca03" x="105.264" y="75.998552" style="stroke: #000000"/>
     <use xlink:href="#mc51361ca03" x="113.832" y="73.730021" style="stroke: #000000"/>
     <use xlink:href="#mc51361ca03" x="122.4" y="57.957626" style="stroke: #000000"/>
     <use xlink:href="#mc51361ca03" x="130.968" y="67.809367" style="stroke: #000000"/>
    </g>
   </g>
   <g id="line2d_5">
    <path d="M 45.288 51.074447 
L 53.856 83.242661 
L 62.424 49.038273 
L 70.992 48.561645 
L 79.56 49.342687 
L 88.128 58.734876 
L 96.696 52.700294 
L 105.264 80.704502 
L 113.832 79.599944 
L 122.4 68.942991 
L 130.968 47.106647 
" clip-path="url(#p0ef0f8eab7)" style="fill: none; stroke: #fc8d62; stroke-width: 1.5; stroke-linecap: square"/>
   </g>
   <g id="PathCollection_2">
    <g clip-path="url(#p0ef0f8eab7)">
     <use xlink:href="#m050583f26d" x="45.288" y="51.074447" style="fill: #fc8d62; stroke: #000000"/>
     <use xlink:href="#m050583f26d" x="53.856" y="83.242661" style="fill: #fc8d62; stroke: #000000"/>
     <use xlink:href="#m050583f26d" x="62.424" y="49.038273" style="fill: #fc8d62; stroke: #000000"/>
     <use xlink:href="#m050583f26d" x="70.992" y="48.561645" style="fill: #fc8d62; stroke: #000000"/>
     <use xlink:href="#m050583f26d" x="79.56" y="49.342687" style="fill: #fc8d62; stroke: #000000"/>
     <use xlink:href="#m050583f26d" x="88.128" y="58.734876" style="fill: #fc8d62; stroke: #000000"/>
     <use xlink:href="#m050583f26d" x="96.696" y="52.700294" style="fill: #fc8d62; stroke: #000000"/>
     <use xlink:href="#m050583f26d" x="105.264" y="80.704502" style="fill: #fc8d62; stroke: #000000"/>
     <use xlink:href="#m050583f26d" x="113.832" y="79.599944" style="fill: #fc8d62; stroke: #000000"/>
     <use xlink:href="#m050583f26d" x="122.4" y="68.942991" style="fill: #fc8d62; stroke: #000000"/>
     <use xlink:href="#m050583f26d" x="130.968" y="47.106647" style="fill: #fc8d62; stroke: #000000"/>
    </g>
   </g>
   <g id="LineCollection_2">
    <path d="M 45.288 51.074447 
L 45.288 51.074447 
" clip-path="url(#p0ef0f8eab7)" style="fill: none; stroke: #000000"/>
    <path d="M 53.856 83.422859 
L 53.856 83.063813 
" clip-path="url(#p0ef0f8eab7)" style="fill: none; stroke: #000000"/>
    <path d="M 62.424 49.331628 
L 62.424 48.748476 
" clip-path="url(#p0ef0f8eab7)" style="fill: none; stroke: #000000"/>
    <path d="M 70.992 48.801576 
L 70.992 48.324099 
" clip-path="url(#p0ef0f8eab7)" style="fill: none; stroke: #000000"/>
    <path d="M 79.56 49.436826 
L 79.56 49.248917 
" clip-path="url(#p0ef0f8eab7)" style="fill: none; stroke: #000000"/>
    <path d="M 88.128 58.898271 
L 88.128 58.57259 
" clip-path="url(#p0ef0f8eab7)" style="fill: none; stroke: #000000"/>
    <path d="M 96.696 52.838595 
L 96.696 52.56279 
" clip-path="url(#p0ef0f8eab7)" style="fill: none; stroke: #000000"/>
    <path d="M 105.264 81.186054 
L 105.264 80.232464 
" clip-path="url(#p0ef0f8eab7)" style="fill: none; stroke: #000000"/>
    <path d="M 113.832 79.700103 
L 113.832 79.500203 
" clip-path="url(#p0ef0f8eab7)" style="fill: none; stroke: #000000"/>
    <path d="M 122.4 69.033973 
L 122.4 68.852354 
" clip-path="url(#p0ef0f8eab7)" style="fill: none; stroke: #000000"/>
    <path d="M 130.968 47.1545 
L 130.968 47.05889 
" clip-path="url(#p0ef0f8eab7)" style="fill: none; stroke: #000000"/>
   </g>
   <g id="line2d_6">
    <g clip-path="url(#p0ef0f8eab7)">
     <use xlink:href="#mc51361ca03" x="45.288" y="51.074447" style="stroke: #000000"/>
     <use xlink:href="#mc51361ca03" x="53.856" y="83.422859" style="stroke: #000000"/>
     <use xlink:href="#mc51361ca03" x="62.424" y="49.331628" style="stroke: #000000"/>
     <use xlink:href="#mc51361ca03" x="70.992" y="48.801576" style="stroke: #000000"/>
     <use xlink:href="#mc51361ca03" x="79.56" y="49.436826" style="stroke: #000000"/>
     <use xlink:href="#mc51361ca03" x="88.128" y="58.898271" style="stroke: #000000"/>
     <use xlink:href="#mc51361ca03" x="96.696" y="52.838595" style="stroke: #000000"/>
     <use xlink:href="#mc51361ca03" x="105.264" y="81.186054" style="stroke: #000000"/>
     <use xlink:href="#mc51361ca03" x="113.832" y="79.700103" style="stroke: #000000"/>
     <use xlink:href="#mc51361ca03" x="122.4" y="69.033973" style="stroke: #000000"/>
     <use xlink:href="#mc51361ca03" x="130.968" y="47.1545" style="stroke: #000000"/>
    </g>
   </g>
   <g id="line2d_7">
    <g clip-path="url(#p0ef0f8eab7)">
     <use xlink:href="#mc51361ca03" x="45.288" y="51.074447" style="stroke: #000000"/>
     <use xlink:href="#mc51361ca03" x="53.856" y="83.063813" style="stroke: #000000"/>
     <use xlink:href="#mc51361ca03" x="62.424" y="48.748476" style="stroke: #000000"/>
     <use xlink:href="#mc51361ca03" x="70.992" y="48.324099" style="stroke: #000000"/>
     <use xlink:href="#mc51361ca03" x="79.56" y="49.248917" style="stroke: #000000"/>
     <use xlink:href="#mc51361ca03" x="88.128" y="58.57259" style="stroke: #000000"/>
     <use xlink:href="#mc51361ca03" x="96.696" y="52.56279" style="stroke: #000000"/>
     <use xlink:href="#mc51361ca03" x="105.264" y="80.232464" style="stroke: #000000"/>
     <use xlink:href="#mc51361ca03" x="113.832" y="79.500203" style="stroke: #000000"/>
     <use xlink:href="#mc51361ca03" x="122.4" y="68.852354" style="stroke: #000000"/>
     <use xlink:href="#mc51361ca03" x="130.968" y="47.05889" style="stroke: #000000"/>
    </g>
   </g>
   <g id="line2d_8">
    <path d="M 45.288 51.074447 
L 53.856 87.928725 
L 62.424 40.431725 
L 70.992 44.599581 
L 79.56 78.549113 
L 88.128 57.205917 
L 96.696 51.168035 
L 105.264 55.305506 
L 113.832 78.668075 
L 122.4 42.004713 
L 130.968 62.939543 
" clip-path="url(#p0ef0f8eab7)" style="fill: none; stroke: #fc8d62; stroke-width: 1.5; stroke-linecap: square"/>
   </g>
   <g id="PathCollection_3">
    <g clip-path="url(#p0ef0f8eab7)">
     <use xlink:href="#m050583f26d" x="45.288" y="51.074447" style="fill: #fc8d62; stroke: #000000"/>
     <use xlink:href="#m050583f26d" x="53.856" y="87.928725" style="fill: #fc8d62; stroke: #000000"/>
     <use xlink:href="#m050583f26d" x="62.424" y="40.431725" style="fill: #fc8d62; stroke: #000000"/>
     <use xlink:href="#m050583f26d" x="70.992" y="44.599581" style="fill: #fc8d62; stroke: #000000"/>
     <use xlink:href="#m050583f26d" x="79.56" y="78.549113" style="fill: #fc8d62; stroke: #000000"/>
     <use xlink:href="#m050583f26d" x="88.128" y="57.205917" style="fill: #fc8d62; stroke: #000000"/>
     <use xlink:href="#m050583f26d" x="96.696" y="51.168035" style="fill: #fc8d62; stroke: #000000"/>
     <use xlink:href="#m050583f26d" x="105.264" y="55.305506" style="fill: #fc8d62; stroke: #000000"/>
     <use xlink:href="#m050583f26d" x="113.832" y="78.668075" style="fill: #fc8d62; stroke: #000000"/>
     <use xlink:href="#m050583f26d" x="122.4" y="42.004713" style="fill: #fc8d62; stroke: #000000"/>
     <use xlink:href="#m050583f26d" x="130.968" y="62.939543" style="fill: #fc8d62; stroke: #000000"/>
    </g>
   </g>
   <g id="LineCollection_3">
    <path d="M 45.288 51.074447 
L 45.288 51.074447 
" clip-path="url(#p0ef0f8eab7)" style="fill: none; stroke: #000000"/>
    <path d="M 53.856 88.214501 
L 53.856 87.646327 
" clip-path="url(#p0ef0f8eab7)" style="fill: none; stroke: #000000"/>
    <path d="M 62.424 40.593695 
L 62.424 40.270846 
" clip-path="url(#p0ef0f8eab7)" style="fill: none; stroke: #000000"/>
    <path d="M 70.992 44.734472 
L 70.992 44.465447 
" clip-path="url(#p0ef0f8eab7)" style="fill: none; stroke: #000000"/>
    <path d="M 79.56 78.783033 
L 79.56 78.317461 
" clip-path="url(#p0ef0f8eab7)" style="fill: none; stroke: #000000"/>
    <path d="M 88.128 57.309908 
L 88.128 57.102376 
" clip-path="url(#p0ef0f8eab7)" style="fill: none; stroke: #000000"/>
    <path d="M 96.696 51.28813 
L 96.696 51.04854 
" clip-path="url(#p0ef0f8eab7)" style="fill: none; stroke: #000000"/>
    <path d="M 105.264 55.491614 
L 105.264 55.120837 
" clip-path="url(#p0ef0f8eab7)" style="fill: none; stroke: #000000"/>
    <path d="M 113.832 78.786891 
L 113.832 78.549847 
" clip-path="url(#p0ef0f8eab7)" style="fill: none; stroke: #000000"/>
    <path d="M 122.4 42.067382 
L 122.4 41.942208 
" clip-path="url(#p0ef0f8eab7)" style="fill: none; stroke: #000000"/>
    <path d="M 130.968 63.031324 
L 130.968 62.848112 
" clip-path="url(#p0ef0f8eab7)" style="fill: none; stroke: #000000"/>
   </g>
   <g id="line2d_9">
    <g clip-path="url(#p0ef0f8eab7)">
     <use xlink:href="#mc51361ca03" x="45.288" y="51.074447" style="stroke: #000000"/>
     <use xlink:href="#mc51361ca03" x="53.856" y="88.214501" style="stroke: #000000"/>
     <use xlink:href="#mc51361ca03" x="62.424" y="40.593695" style="stroke: #000000"/>
     <use xlink:href="#mc51361ca03" x="70.992" y="44.734472" style="stroke: #000000"/>
     <use xlink:href="#mc51361ca03" x="79.56" y="78.783033" style="stroke: #000000"/>
     <use xlink:href="#mc51361ca03" x="88.128" y="57.309908" style="stroke: #000000"/>
     <use xlink:href="#mc51361ca03" x="96.696" y="51.28813" style="stroke: #000000"/>
     <use xlink:href="#mc51361ca03" x="105.264" y="55.491614" style="stroke: #000000"/>
     <use xlink:href="#mc51361ca03" x="113.832" y="78.786891" style="stroke: #000000"/>
     <use xlink:href="#mc51361ca03" x="122.4" y="42.067382" style="stroke: #000000"/>
     <use xlink:href="#mc51361ca03" x="130.968" y="63.031324" style="stroke: #000000"/>
    </g>
   </g>
   <g id="line2d_10">
    <g clip-path="url(#p0ef0f8eab7)">
     <use xlink:href="#mc51361ca03" x="45.288" y="51.074447" style="stroke: #000000"/>
     <use xlink:href="#mc51361ca03" x="53.856" y="87.646327" style="stroke: #000000"/>
     <use xlink:href="#mc51361ca03" x="62.424" y="40.270846" style="stroke: #000000"/>
     <use xlink:href="#mc51361ca03" x="70.992" y="44.465447" style="stroke: #000000"/>
     <use xlink:href="#mc51361ca03" x="79.56" y="78.317461" style="stroke: #000000"/>
     <use xlink:href="#mc51361ca03" x="88.128" y="57.102376" style="stroke: #000000"/>
     <use xlink:href="#mc51361ca03" x="96.696" y="51.04854" style="stroke: #000000"/>
     <use xlink:href="#mc51361ca03" x="105.264" y="55.120837" style="stroke: #000000"/>
     <use xlink:href="#mc51361ca03" x="113.832" y="78.549847" style="stroke: #000000"/>
     <use xlink:href="#mc51361ca03" x="122.4" y="41.942208" style="stroke: #000000"/>
     <use xlink:href="#mc51361ca03" x="130.968" y="62.848112" style="stroke: #000000"/>
    </g>
   </g>
   <g id="line2d_11">
    <path d="M 45.288 51.074447 
L 53.856 79.329768 
L 62.424 61.318188 
L 70.992 46.589901 
L 79.56 59.19218 
L 88.128 53.432444 
L 96.696 63.593007 
L 105.264 76.459537 
L 113.832 73.840962 
L 122.4 58.030347 
L 130.968 67.932982 
" clip-path="url(#p0ef0f8eab7)" style="fill: none"/>
   </g>
   <g id="line2d_12">
    <path d="M 45.288 51.074447 
L 53.856 83.242661 
L 62.424 49.038273 
L 70.992 48.561645 
L 79.56 49.342687 
L 88.128 58.734876 
L 96.696 52.700294 
L 105.264 80.704502 
L 113.832 79.599944 
L 122.4 68.942991 
L 130.968 47.106647 
" clip-path="url(#p0ef0f8eab7)" style="fill: none"/>
   </g>
   <g id="line2d_13">
    <path d="M 45.288 51.074447 
L 53.856 87.928725 
L 62.424 40.431725 
L 70.992 44.599581 
L 79.56 78.549113 
L 88.128 57.205917 
L 96.696 51.168035 
L 105.264 55.305506 
L 113.832 78.668075 
L 122.4 42.004713 
L 130.968 62.939543 
" clip-path="url(#p0ef0f8eab7)" style="fill: none"/>
   </g>
   <g id="line2d_14">
    <path d="M 45.288 51.074447 
L 53.856 79.329768 
L 62.424 116.656999 
L 70.992 130.313912 
L 72.411461 137.8 
M 90.324354 137.8 
L 96.696 131.306539 
L 99.977974 137.8 
M 109.549089 137.8 
L 113.832 127.346792 
L 122.4 120.628634 
L 130.968 112.583758 
" clip-path="url(#p0ef0f8eab7)" style="fill: none; stroke: #8da0cb; stroke-width: 1.5; stroke-linecap: square"/>
   </g>
   <g id="PathCollection_4">
    <defs>
     <path id="m17821f5a4d" d="M 0 3.535534 
C 0.937635 3.535534 1.836992 3.163008 2.5 2.5 
C 3.163008 1.836992 3.535534 0.937635 3.535534 0 
C 3.535534 -0.937635 3.163008 -1.836992 2.5 -2.5 
C 1.836992 -3.163008 0.937635 -3.535534 0 -3.535534 
C -0.937635 -3.535534 -1.836992 -3.163008 -2.5 -2.5 
C -3.163008 -1.836992 -3.535534 -0.937635 -3.535534 0 
C -3.535534 0.937635 -3.163008 1.836992 -2.5 2.5 
C -1.836992 3.163008 -0.937635 3.535534 0 3.535534 
z
" style="stroke: #000000"/>
    </defs>
    <g clip-path="url(#p0ef0f8eab7)">
     <use xlink:href="#m17821f5a4d" x="45.288" y="51.074447" style="fill: #8da0cb; stroke: #000000"/>
     <use xlink:href="#m17821f5a4d" x="53.856" y="79.329768" style="fill: #8da0cb; stroke: #000000"/>
     <use xlink:href="#m17821f5a4d" x="62.424" y="116.656999" style="fill: #8da0cb; stroke: #000000"/>
     <use xlink:href="#m17821f5a4d" x="70.992" y="130.313912" style="fill: #8da0cb; stroke: #000000"/>
     <use xlink:href="#m17821f5a4d" x="79.56" y="175.500636" style="fill: #8da0cb; stroke: #000000"/>
     <use xlink:href="#m17821f5a4d" x="88.128" y="140.038344" style="fill: #8da0cb; stroke: #000000"/>
     <use xlink:href="#m17821f5a4d" x="96.696" y="131.306539" style="fill: #8da0cb; stroke: #000000"/>
     <use xlink:href="#m17821f5a4d" x="105.264" y="148.258523" style="fill: #8da0cb; stroke: #000000"/>
     <use xlink:href="#m17821f5a4d" x="113.832" y="127.346792" style="fill: #8da0cb; stroke: #000000"/>
     <use xlink:href="#m17821f5a4d" x="122.4" y="120.628634" style="fill: #8da0cb; stroke: #000000"/>
     <use xlink:href="#m17821f5a4d" x="130.968" y="112.583758" style="fill: #8da0cb; stroke: #000000"/>
    </g>
   </g>
   <g id="LineCollection_4">
    <path d="M 45.288 51.074447 
L 45.288 51.074447 
" clip-path="url(#p0ef0f8eab7)" style="fill: none; stroke: #000000"/>
    <path d="M 53.856 79.518928 
L 53.856 79.142094 
" clip-path="url(#p0ef0f8eab7)" style="fill: none; stroke: #000000"/>
    <path d="M 62.424 120.015788 
L 62.424 113.712649 
" clip-path="url(#p0ef0f8eab7)" style="fill: none; stroke: #000000"/>
    <path d="M 70.992 136.47521 
L 70.992 125.419979 
" clip-path="url(#p0ef0f8eab7)" style="fill: none; stroke: #000000"/>
    <path clip-path="url(#p0ef0f8eab7)" style="fill: none; stroke: #000000"/>
    <path d="M 88.128 137.8 
L 88.128 136.033196 
" clip-path="url(#p0ef0f8eab7)" style="fill: none; stroke: #000000"/>
    <path d="M 96.696 134.801445 
L 96.696 128.258153 
" clip-path="url(#p0ef0f8eab7)" style="fill: none; stroke: #000000"/>
    <path clip-path="url(#p0ef0f8eab7)" style="fill: none; stroke: #000000"/>
    <path d="M 113.832 128.322336 
L 113.832 126.409516 
" clip-path="url(#p0ef0f8eab7)" style="fill: none; stroke: #000000"/>
    <path d="M 122.4 121.469064 
L 122.4 119.816761 
" clip-path="url(#p0ef0f8eab7)" style="fill: none; stroke: #000000"/>
    <path d="M 130.968 113.409558 
L 130.968 111.785545 
" clip-path="url(#p0ef0f8eab7)" style="fill: none; stroke: #000000"/>
   </g>
   <g id="line2d_15">
    <g clip-path="url(#p0ef0f8eab7)">
     <use xlink:href="#mc51361ca03" x="45.288" y="51.074447" style="stroke: #000000"/>
     <use xlink:href="#mc51361ca03" x="53.856" y="79.518928" style="stroke: #000000"/>
     <use xlink:href="#mc51361ca03" x="62.424" y="120.015788" style="stroke: #000000"/>
     <use xlink:href="#mc51361ca03" x="70.992" y="136.47521" style="stroke: #000000"/>
     <use xlink:href="#mc51361ca03" x="79.56" y="196.080905" style="stroke: #000000"/>
     <use xlink:href="#mc51361ca03" x="88.128" y="144.852656" style="stroke: #000000"/>
     <use xlink:href="#mc51361ca03" x="96.696" y="134.801445" style="stroke: #000000"/>
     <use xlink:href="#mc51361ca03" x="105.264" y="158.944137" style="stroke: #000000"/>
     <use xlink:href="#mc51361ca03" x="113.832" y="128.322336" style="stroke: #000000"/>
     <use xlink:href="#mc51361ca03" x="122.4" y="121.469064" style="stroke: #000000"/>
     <use xlink:href="#mc51361ca03" x="130.968" y="113.409558" style="stroke: #000000"/>
    </g>
   </g>
   <g id="line2d_16">
    <g clip-path="url(#p0ef0f8eab7)">
     <use xlink:href="#mc51361ca03" x="45.288" y="51.074447" style="stroke: #000000"/>
     <use xlink:href="#mc51361ca03" x="53.856" y="79.142094" style="stroke: #000000"/>
     <use xlink:href="#mc51361ca03" x="62.424" y="113.712649" style="stroke: #000000"/>
     <use xlink:href="#mc51361ca03" x="70.992" y="125.419979" style="stroke: #000000"/>
     <use xlink:href="#mc51361ca03" x="79.56" y="164.60975" style="stroke: #000000"/>
     <use xlink:href="#mc51361ca03" x="88.128" y="136.033196" style="stroke: #000000"/>
     <use xlink:href="#mc51361ca03" x="96.696" y="128.258153" style="stroke: #000000"/>
     <use xlink:href="#mc51361ca03" x="105.264" y="140.900856" style="stroke: #000000"/>
     <use xlink:href="#mc51361ca03" x="113.832" y="126.409516" style="stroke: #000000"/>
     <use xlink:href="#mc51361ca03" x="122.4" y="119.816761" style="stroke: #000000"/>
     <use xlink:href="#mc51361ca03" x="130.968" y="111.785545" style="stroke: #000000"/>
    </g>
   </g>
   <g id="line2d_17">
    <path d="M 45.288 51.074447 
L 53.856 83.242661 
L 62.424 88.073602 
L 70.992 78.916065 
L 79.56 104.15095 
L 88.128 125.755307 
L 96.696 123.099851 
L 105.264 129.449058 
L 113.832 136.243699 
L 122.4 129.382274 
L 130.968 107.552081 
" clip-path="url(#p0ef0f8eab7)" style="fill: none; stroke: #8da0cb; stroke-width: 1.5; stroke-linecap: square"/>
   </g>
   <g id="PathCollection_5">
    <g clip-path="url(#p0ef0f8eab7)">
     <use xlink:href="#m17821f5a4d" x="45.288" y="51.074447" style="fill: #8da0cb; stroke: #000000"/>
     <use xlink:href="#m17821f5a4d" x="53.856" y="83.242661" style="fill: #8da0cb; stroke: #000000"/>
     <use xlink:href="#m17821f5a4d" x="62.424" y="88.073602" style="fill: #8da0cb; stroke: #000000"/>
     <use xlink:href="#m17821f5a4d" x="70.992" y="78.916065" style="fill: #8da0cb; stroke: #000000"/>
     <use xlink:href="#m17821f5a4d" x="79.56" y="104.15095" style="fill: #8da0cb; stroke: #000000"/>
     <use xlink:href="#m17821f5a4d" x="88.128" y="125.755307" style="fill: #8da0cb; stroke: #000000"/>
     <use xlink:href="#m17821f5a4d" x="96.696" y="123.099851" style="fill: #8da0cb; stroke: #000000"/>
     <use xlink:href="#m17821f5a4d" x="105.264" y="129.449058" style="fill: #8da0cb; stroke: #000000"/>
     <use xlink:href="#m17821f5a4d" x="113.832" y="136.243699" style="fill: #8da0cb; stroke: #000000"/>
     <use xlink:href="#m17821f5a4d" x="122.4" y="129.382274" style="fill: #8da0cb; stroke: #000000"/>
     <use xlink:href="#m17821f5a4d" x="130.968" y="107.552081" style="fill: #8da0cb; stroke: #000000"/>
    </g>
   </g>
   <g id="LineCollection_5">
    <path d="M 45.288 51.074447 
L 45.288 51.074447 
" clip-path="url(#p0ef0f8eab7)" style="fill: none; stroke: #000000"/>
    <path d="M 53.856 83.422859 
L 53.856 83.063813 
" clip-path="url(#p0ef0f8eab7)" style="fill: none; stroke: #000000"/>
    <path d="M 62.424 89.029997 
L 62.424 87.154016 
" clip-path="url(#p0ef0f8eab7)" style="fill: none; stroke: #000000"/>
    <path d="M 70.992 79.712889 
L 70.992 78.144955 
" clip-path="url(#p0ef0f8eab7)" style="fill: none; stroke: #000000"/>
    <path d="M 79.56 104.953821 
L 79.56 103.374179 
" clip-path="url(#p0ef0f8eab7)" style="fill: none; stroke: #000000"/>
    <path d="M 88.128 127.784474 
L 88.128 123.88504 
" clip-path="url(#p0ef0f8eab7)" style="fill: none; stroke: #000000"/>
    <path d="M 96.696 125.449631 
L 96.696 120.96058 
" clip-path="url(#p0ef0f8eab7)" style="fill: none; stroke: #000000"/>
    <path d="M 105.264 133.170941 
L 105.264 126.229495 
" clip-path="url(#p0ef0f8eab7)" style="fill: none; stroke: #000000"/>
    <path d="M 113.832 137.282867 
L 113.832 135.247842 
" clip-path="url(#p0ef0f8eab7)" style="fill: none; stroke: #000000"/>
    <path d="M 122.4 130.221737 
L 122.4 128.571302 
" clip-path="url(#p0ef0f8eab7)" style="fill: none; stroke: #000000"/>
    <path d="M 130.968 108.403421 
L 130.968 106.730029 
" clip-path="url(#p0ef0f8eab7)" style="fill: none; stroke: #000000"/>
   </g>
   <g id="line2d_18">
    <g clip-path="url(#p0ef0f8eab7)">
     <use xlink:href="#mc51361ca03" x="45.288" y="51.074447" style="stroke: #000000"/>
     <use xlink:href="#mc51361ca03" x="53.856" y="83.422859" style="stroke: #000000"/>
     <use xlink:href="#mc51361ca03" x="62.424" y="89.029997" style="stroke: #000000"/>
     <use xlink:href="#mc51361ca03" x="70.992" y="79.712889" style="stroke: #000000"/>
     <use xlink:href="#mc51361ca03" x="79.56" y="104.953821" style="stroke: #000000"/>
     <use xlink:href="#mc51361ca03" x="88.128" y="127.784474" style="stroke: #000000"/>
     <use xlink:href="#mc51361ca03" x="96.696" y="125.449631" style="stroke: #000000"/>
     <use xlink:href="#mc51361ca03" x="105.264" y="133.170941" style="stroke: #000000"/>
     <use xlink:href="#mc51361ca03" x="113.832" y="137.282867" style="stroke: #000000"/>
     <use xlink:href="#mc51361ca03" x="122.4" y="130.221737" style="stroke: #000000"/>
     <use xlink:href="#mc51361ca03" x="130.968" y="108.403421" style="stroke: #000000"/>
    </g>
   </g>
   <g id="line2d_19">
    <g clip-path="url(#p0ef0f8eab7)">
     <use xlink:href="#mc51361ca03" x="45.288" y="51.074447" style="stroke: #000000"/>
     <use xlink:href="#mc51361ca03" x="53.856" y="83.063813" style="stroke: #000000"/>
     <use xlink:href="#mc51361ca03" x="62.424" y="87.154016" style="stroke: #000000"/>
     <use xlink:href="#mc51361ca03" x="70.992" y="78.144955" style="stroke: #000000"/>
     <use xlink:href="#mc51361ca03" x="79.56" y="103.374179" style="stroke: #000000"/>
     <use xlink:href="#mc51361ca03" x="88.128" y="123.88504" style="stroke: #000000"/>
     <use xlink:href="#mc51361ca03" x="96.696" y="120.96058" style="stroke: #000000"/>
     <use xlink:href="#mc51361ca03" x="105.264" y="126.229495" style="stroke: #000000"/>
     <use xlink:href="#mc51361ca03" x="113.832" y="135.247842" style="stroke: #000000"/>
     <use xlink:href="#mc51361ca03" x="122.4" y="128.571302" style="stroke: #000000"/>
     <use xlink:href="#mc51361ca03" x="130.968" y="106.730029" style="stroke: #000000"/>
    </g>
   </g>
   <g id="line2d_20">
    <path d="M 45.288 51.074447 
L 53.856 87.928725 
L 62.424 93.557485 
L 70.992 93.577197 
L 79.56 104.572587 
L 88.128 113.327086 
L 96.696 114.979733 
L 105.264 128.027143 
L 113.832 134.247279 
L 122.4 117.498377 
L 130.968 118.956536 
" clip-path="url(#p0ef0f8eab7)" style="fill: none; stroke: #8da0cb; stroke-width: 1.5; stroke-linecap: square"/>
   </g>
   <g id="PathCollection_6">
    <g clip-path="url(#p0ef0f8eab7)">
     <use xlink:href="#m17821f5a4d" x="45.288" y="51.074447" style="fill: #8da0cb; stroke: #000000"/>
     <use xlink:href="#m17821f5a4d" x="53.856" y="87.928725" style="fill: #8da0cb; stroke: #000000"/>
     <use xlink:href="#m17821f5a4d" x="62.424" y="93.557485" style="fill: #8da0cb; stroke: #000000"/>
     <use xlink:href="#m17821f5a4d" x="70.992" y="93.577197" style="fill: #8da0cb; stroke: #000000"/>
     <use xlink:href="#m17821f5a4d" x="79.56" y="104.572587" style="fill: #8da0cb; stroke: #000000"/>
     <use xlink:href="#m17821f5a4d" x="88.128" y="113.327086" style="fill: #8da0cb; stroke: #000000"/>
     <use xlink:href="#m17821f5a4d" x="96.696" y="114.979733" style="fill: #8da0cb; stroke: #000000"/>
     <use xlink:href="#m17821f5a4d" x="105.264" y="128.027143" style="fill: #8da0cb; stroke: #000000"/>
     <use xlink:href="#m17821f5a4d" x="113.832" y="134.247279" style="fill: #8da0cb; stroke: #000000"/>
     <use xlink:href="#m17821f5a4d" x="122.4" y="117.498377" style="fill: #8da0cb; stroke: #000000"/>
     <use xlink:href="#m17821f5a4d" x="130.968" y="118.956536" style="fill: #8da0cb; stroke: #000000"/>
    </g>
   </g>
   <g id="LineCollection_6">
    <path d="M 45.288 51.074447 
L 45.288 51.074447 
" clip-path="url(#p0ef0f8eab7)" style="fill: none; stroke: #000000"/>
    <path d="M 53.856 88.214501 
L 53.856 87.646327 
" clip-path="url(#p0ef0f8eab7)" style="fill: none; stroke: #000000"/>
    <path d="M 62.424 94.563721 
L 62.424 92.591912 
" clip-path="url(#p0ef0f8eab7)" style="fill: none; stroke: #000000"/>
    <path d="M 70.992 94.86237 
L 70.992 92.357629 
" clip-path="url(#p0ef0f8eab7)" style="fill: none; stroke: #000000"/>
    <path d="M 79.56 105.331325 
L 79.56 103.837201 
" clip-path="url(#p0ef0f8eab7)" style="fill: none; stroke: #000000"/>
    <path d="M 88.128 114.539122 
L 88.128 112.173569 
" clip-path="url(#p0ef0f8eab7)" style="fill: none; stroke: #000000"/>
    <path d="M 96.696 116.806175 
L 96.696 113.283029 
" clip-path="url(#p0ef0f8eab7)" style="fill: none; stroke: #000000"/>
    <path d="M 105.264 132.304637 
L 105.264 124.400318 
" clip-path="url(#p0ef0f8eab7)" style="fill: none; stroke: #000000"/>
    <path d="M 113.832 135.358976 
L 113.832 133.185008 
" clip-path="url(#p0ef0f8eab7)" style="fill: none; stroke: #000000"/>
    <path d="M 122.4 118.137491 
L 122.4 116.875912 
" clip-path="url(#p0ef0f8eab7)" style="fill: none; stroke: #000000"/>
    <path d="M 130.968 119.894572 
L 130.968 118.053934 
" clip-path="url(#p0ef0f8eab7)" style="fill: none; stroke: #000000"/>
   </g>
   <g id="line2d_21">
    <g clip-path="url(#p0ef0f8eab7)">
     <use xlink:href="#mc51361ca03" x="45.288" y="51.074447" style="stroke: #000000"/>
     <use xlink:href="#mc51361ca03" x="53.856" y="88.214501" style="stroke: #000000"/>
     <use xlink:href="#mc51361ca03" x="62.424" y="94.563721" style="stroke: #000000"/>
     <use xlink:href="#mc51361ca03" x="70.992" y="94.86237" style="stroke: #000000"/>
     <use xlink:href="#mc51361ca03" x="79.56" y="105.331325" style="stroke: #000000"/>
     <use xlink:href="#mc51361ca03" x="88.128" y="114.539122" style="stroke: #000000"/>
     <use xlink:href="#mc51361ca03" x="96.696" y="116.806175" style="stroke: #000000"/>
     <use xlink:href="#mc51361ca03" x="105.264" y="132.304637" style="stroke: #000000"/>
     <use xlink:href="#mc51361ca03" x="113.832" y="135.358976" style="stroke: #000000"/>
     <use xlink:href="#mc51361ca03" x="122.4" y="118.137491" style="stroke: #000000"/>
     <use xlink:href="#mc51361ca03" x="130.968" y="119.894572" style="stroke: #000000"/>
    </g>
   </g>
   <g id="line2d_22">
    <g clip-path="url(#p0ef0f8eab7)">
     <use xlink:href="#mc51361ca03" x="45.288" y="51.074447" style="stroke: #000000"/>
     <use xlink:href="#mc51361ca03" x="53.856" y="87.646327" style="stroke: #000000"/>
     <use xlink:href="#mc51361ca03" x="62.424" y="92.591912" style="stroke: #000000"/>
     <use xlink:href="#mc51361ca03" x="70.992" y="92.357629" style="stroke: #000000"/>
     <use xlink:href="#mc51361ca03" x="79.56" y="103.837201" style="stroke: #000000"/>
     <use xlink:href="#mc51361ca03" x="88.128" y="112.173569" style="stroke: #000000"/>
     <use xlink:href="#mc51361ca03" x="96.696" y="113.283029" style="stroke: #000000"/>
     <use xlink:href="#mc51361ca03" x="105.264" y="124.400318" style="stroke: #000000"/>
     <use xlink:href="#mc51361ca03" x="113.832" y="133.185008" style="stroke: #000000"/>
     <use xlink:href="#mc51361ca03" x="122.4" y="116.875912" style="stroke: #000000"/>
     <use xlink:href="#mc51361ca03" x="130.968" y="118.053934" style="stroke: #000000"/>
    </g>
   </g>
   <g id="line2d_23">
    <path d="M 45.288 51.074447 
L 53.856 79.329768 
L 62.424 116.656999 
L 70.992 130.313912 
L 72.411461 137.8 
M 90.324354 137.8 
L 96.696 131.306539 
L 99.977974 137.8 
M 109.549089 137.8 
L 113.832 127.346792 
L 122.4 120.628634 
L 130.968 112.583758 
" clip-path="url(#p0ef0f8eab7)" style="fill: none"/>
   </g>
   <g id="line2d_24">
    <path d="M 45.288 51.074447 
L 53.856 83.242661 
L 62.424 88.073602 
L 70.992 78.916065 
L 79.56 104.15095 
L 88.128 125.755307 
L 96.696 123.099851 
L 105.264 129.449058 
L 113.832 136.243699 
L 122.4 129.382274 
L 130.968 107.552081 
" clip-path="url(#p0ef0f8eab7)" style="fill: none"/>
   </g>
   <g id="line2d_25">
    <path d="M 45.288 51.074447 
L 53.856 87.928725 
L 62.424 93.557485 
L 70.992 93.577197 
L 79.56 104.572587 
L 88.128 113.327086 
L 96.696 114.979733 
L 105.264 128.027143 
L 113.832 134.247279 
L 122.4 117.498377 
L 130.968 118.956536 
" clip-path="url(#p0ef0f8eab7)" style="fill: none"/>
   </g>
   <g id="matplotlib.axis_1">
    <g id="xtick_1">
     <g id="line2d_26">
      <defs>
       <path id="m870355e73e" d="M 0 0 
L 0 -3.5 
" style="stroke: #000000; stroke-width: 0.8"/>
      </defs>
      <g>
       <use xlink:href="#m870355e73e" x="45.288" y="105.336" style="stroke: #000000; stroke-width: 0.8"/>
      </g>
     </g>
     <g id="text_1">
      <!-- 0 -->
      <g transform="translate(41.951437 117.444125) scale(0.12 -0.12)">
       <defs>
        <path id="Helvetica-30" d="M 1731 4475 
Q 2600 4475 2988 3759 
Q 3288 3206 3288 2244 
Q 3288 1331 3016 734 
Q 2622 -122 1728 -122 
Q 922 -122 528 578 
Q 200 1163 200 2147 
Q 200 2909 397 3456 
Q 766 4475 1731 4475 
z
M 1725 391 
Q 2163 391 2422 778 
Q 2681 1166 2681 2222 
Q 2681 2984 2493 3476 
Q 2306 3969 1766 3969 
Q 1269 3969 1039 3501 
Q 809 3034 809 2125 
Q 809 1441 956 1025 
Q 1181 391 1725 391 
z
" transform="scale(0.015625)"/>
       </defs>
       <use xlink:href="#Helvetica-30"/>
      </g>
     </g>
    </g>
    <g id="xtick_2">
     <g id="line2d_27">
      <g>
       <use xlink:href="#m870355e73e" x="88.128" y="105.336" style="stroke: #000000; stroke-width: 0.8"/>
      </g>
     </g>
     <g id="text_2">
      <!-- 5 -->
      <g transform="translate(84.791437 117.444125) scale(0.12 -0.12)">
       <defs>
        <path id="Helvetica-35" d="M 791 1141 
Q 847 659 1238 475 
Q 1438 381 1700 381 
Q 2200 381 2440 700 
Q 2681 1019 2681 1406 
Q 2681 1875 2395 2131 
Q 2109 2388 1709 2388 
Q 1419 2388 1211 2275 
Q 1003 2163 856 1963 
L 369 1991 
L 709 4400 
L 3034 4400 
L 3034 3856 
L 1131 3856 
L 941 2613 
Q 1097 2731 1238 2791 
Q 1488 2894 1816 2894 
Q 2431 2894 2859 2497 
Q 3288 2100 3288 1491 
Q 3288 856 2895 371 
Q 2503 -113 1644 -113 
Q 1097 -113 676 195 
Q 256 503 206 1141 
L 791 1141 
z
" transform="scale(0.015625)"/>
       </defs>
       <use xlink:href="#Helvetica-35"/>
      </g>
     </g>
    </g>
    <g id="xtick_3">
     <g id="line2d_28">
      <g>
       <use xlink:href="#m870355e73e" x="130.968" y="105.336" style="stroke: #000000; stroke-width: 0.8"/>
      </g>
     </g>
     <g id="text_3">
      <!-- 10 -->
      <g transform="translate(124.294875 117.444125) scale(0.12 -0.12)">
       <defs>
        <path id="Helvetica-31" d="M 613 3169 
L 613 3600 
Q 1222 3659 1462 3798 
Q 1703 3938 1822 4456 
L 2266 4456 
L 2266 0 
L 1666 0 
L 1666 3169 
L 613 3169 
z
" transform="scale(0.015625)"/>
       </defs>
       <use xlink:href="#Helvetica-31"/>
       <use xlink:href="#Helvetica-30" x="55.615234"/>
      </g>
     </g>
    </g>
   </g>
   <g id="matplotlib.axis_2">
    <g id="ytick_1">
     <g id="line2d_29">
      <defs>
       <path id="m0ae93222af" d="M 0 0 
L 3.5 0 
" style="stroke: #000000; stroke-width: 0.8"/>
      </defs>
      <g>
       <use xlink:href="#m0ae93222af" x="36.72" y="105.336" style="stroke: #000000; stroke-width: 0.8"/>
      </g>
     </g>
     <g id="text_4">
      <!-- $\mathdefault{10^{2}}$ -->
      <g transform="translate(14.74 109.640062) scale(0.12 -0.12)">
       <defs>
        <path id="Helvetica-32" d="M 200 0 
Q 231 578 439 1006 
Q 647 1434 1250 1784 
L 1850 2131 
Q 2253 2366 2416 2531 
Q 2672 2791 2672 3125 
Q 2672 3516 2437 3745 
Q 2203 3975 1813 3975 
Q 1234 3975 1013 3538 
Q 894 3303 881 2888 
L 309 2888 
Q 319 3472 525 3841 
Q 891 4491 1816 4491 
Q 2584 4491 2939 4075 
Q 3294 3659 3294 3150 
Q 3294 2613 2916 2231 
Q 2697 2009 2131 1694 
L 1703 1456 
Q 1397 1288 1222 1134 
Q 909 863 828 531 
L 3272 531 
L 3272 0 
L 200 0 
z
" transform="scale(0.015625)"/>
       </defs>
       <use xlink:href="#Helvetica-31" transform="translate(0 0.271875)"/>
       <use xlink:href="#Helvetica-30" transform="translate(55.615234 0.271875)"/>
       <use xlink:href="#Helvetica-32" transform="translate(112.145664 36.879688) scale(0.7)"/>
      </g>
     </g>
    </g>
    <g id="ytick_2">
     <g id="line2d_30">
      <g>
       <use xlink:href="#m0ae93222af" x="36.72" y="50.311721" style="stroke: #000000; stroke-width: 0.8"/>
      </g>
     </g>
     <g id="text_5">
      <!-- $\mathdefault{10^{3}}$ -->
      <g transform="translate(14.74 54.615783) scale(0.12 -0.12)">
       <defs>
        <path id="Helvetica-33" d="M 1663 -122 
Q 869 -122 511 314 
Q 153 750 153 1375 
L 741 1375 
Q 778 941 903 744 
Q 1122 391 1694 391 
Q 2138 391 2406 628 
Q 2675 866 2675 1241 
Q 2675 1703 2392 1887 
Q 2109 2072 1606 2072 
Q 1550 2072 1492 2070 
Q 1434 2069 1375 2066 
L 1375 2563 
Q 1463 2553 1522 2550 
Q 1581 2547 1650 2547 
Q 1966 2547 2169 2647 
Q 2525 2822 2525 3272 
Q 2525 3606 2287 3787 
Q 2050 3969 1734 3969 
Q 1172 3969 956 3594 
Q 838 3388 822 3006 
L 266 3006 
Q 266 3506 466 3856 
Q 809 4481 1675 4481 
Q 2359 4481 2734 4176 
Q 3109 3872 3109 3294 
Q 3109 2881 2888 2625 
Q 2750 2466 2531 2375 
Q 2884 2278 3082 2001 
Q 3281 1725 3281 1325 
Q 3281 684 2859 281 
Q 2438 -122 1663 -122 
z
" transform="scale(0.015625)"/>
       </defs>
       <use xlink:href="#Helvetica-31" transform="translate(0 0.38125)"/>
       <use xlink:href="#Helvetica-30" transform="translate(55.615234 0.38125)"/>
       <use xlink:href="#Helvetica-33" transform="translate(112.145664 36.989063) scale(0.7)"/>
      </g>
     </g>
    </g>
    <g id="ytick_3">
     <g id="line2d_31">
      <defs>
       <path id="m287b51c58c" d="M 0 0 
L 2 0 
" style="stroke: #000000; stroke-width: 0.6"/>
      </defs>
      <g>
       <use xlink:href="#m287b51c58c" x="36.72" y="88.772041" style="stroke: #000000; stroke-width: 0.6"/>
      </g>
     </g>
    </g>
    <g id="ytick_4">
     <g id="line2d_32">
      <g>
       <use xlink:href="#m287b51c58c" x="36.72" y="79.082747" style="stroke: #000000; stroke-width: 0.6"/>
      </g>
     </g>
    </g>
    <g id="ytick_5">
     <g id="line2d_33">
      <g>
       <use xlink:href="#m287b51c58c" x="36.72" y="72.208083" style="stroke: #000000; stroke-width: 0.6"/>
      </g>
     </g>
    </g>
    <g id="ytick_6">
     <g id="line2d_34">
      <g>
       <use xlink:href="#m287b51c58c" x="36.72" y="66.875679" style="stroke: #000000; stroke-width: 0.6"/>
      </g>
     </g>
    </g>
    <g id="ytick_7">
     <g id="line2d_35">
      <g>
       <use xlink:href="#m287b51c58c" x="36.72" y="62.518788" style="stroke: #000000; stroke-width: 0.6"/>
      </g>
     </g>
    </g>
    <g id="ytick_8">
     <g id="line2d_36">
      <g>
       <use xlink:href="#m287b51c58c" x="36.72" y="58.835089" style="stroke: #000000; stroke-width: 0.6"/>
      </g>
     </g>
    </g>
    <g id="ytick_9">
     <g id="line2d_37">
      <g>
       <use xlink:href="#m287b51c58c" x="36.72" y="55.644124" style="stroke: #000000; stroke-width: 0.6"/>
      </g>
     </g>
    </g>
    <g id="ytick_10">
     <g id="line2d_38">
      <g>
       <use xlink:href="#m287b51c58c" x="36.72" y="52.829494" style="stroke: #000000; stroke-width: 0.6"/>
      </g>
     </g>
    </g>
    <g id="ytick_11">
     <g id="line2d_39">
      <g>
       <use xlink:href="#m287b51c58c" x="36.72" y="33.747762" style="stroke: #000000; stroke-width: 0.6"/>
      </g>
     </g>
    </g>
    <g id="ytick_12">
     <g id="line2d_40">
      <g>
       <use xlink:href="#m287b51c58c" x="36.72" y="24.058468" style="stroke: #000000; stroke-width: 0.6"/>
      </g>
     </g>
    </g>
    <g id="ytick_13">
     <g id="line2d_41">
      <g>
       <use xlink:href="#m287b51c58c" x="36.72" y="17.183804" style="stroke: #000000; stroke-width: 0.6"/>
      </g>
     </g>
    </g>
    <g id="ytick_14">
     <g id="line2d_42">
      <g>
       <use xlink:href="#m287b51c58c" x="36.72" y="11.8514" style="stroke: #000000; stroke-width: 0.6"/>
      </g>
     </g>
    </g>
    <g id="ytick_15">
     <g id="line2d_43">
      <g>
       <use xlink:href="#m287b51c58c" x="36.72" y="7.494509" style="stroke: #000000; stroke-width: 0.6"/>
      </g>
     </g>
    </g>
   </g>
   <g id="patch_3">
    <path d="M 36.72 105.336 
L 36.72 6.84 
" style="fill: none; stroke: #000000; stroke-width: 0.8; stroke-linejoin: miter; stroke-linecap: square"/>
   </g>
   <g id="patch_4">
    <path d="M 139.536 105.336 
L 139.536 6.84 
" style="fill: none; stroke: #000000; stroke-width: 0.8; stroke-linejoin: miter; stroke-linecap: square"/>
   </g>
   <g id="patch_5">
    <path d="M 36.72 105.336 
L 139.536 105.336 
" style="fill: none; stroke: #000000; stroke-width: 0.8; stroke-linejoin: miter; stroke-linecap: square"/>
   </g>
   <g id="patch_6">
    <path d="M 36.72 6.84 
L 139.536 6.84 
" style="fill: none; stroke: #000000; stroke-width: 0.8; stroke-linejoin: miter; stroke-linecap: square"/>
   </g>
   <g id="text_6">
    <!-- pUC -->
    <g style="fill: #7fbf7b" transform="translate(112.445895 18.63738) scale(0.12 -0.12)">
     <defs>
      <path id="Helvetica-70" d="M 1825 378 
Q 2219 378 2480 708 
Q 2741 1038 2741 1694 
Q 2741 2094 2625 2381 
Q 2406 2934 1825 2934 
Q 1241 2934 1025 2350 
Q 909 2038 909 1556 
Q 909 1169 1025 897 
Q 1244 378 1825 378 
z
M 369 3331 
L 916 3331 
L 916 2888 
Q 1084 3116 1284 3241 
Q 1569 3428 1953 3428 
Q 2522 3428 2919 2992 
Q 3316 2556 3316 1747 
Q 3316 653 2744 184 
Q 2381 -113 1900 -113 
Q 1522 -113 1266 53 
Q 1116 147 931 375 
L 931 -1334 
L 369 -1334 
L 369 3331 
z
" transform="scale(0.015625)"/>
      <path id="Helvetica-55" d="M 1163 4591 
L 1163 1753 
Q 1163 1253 1350 922 
Q 1628 422 2288 422 
Q 3078 422 3363 963 
Q 3516 1256 3516 1753 
L 3516 4591 
L 4147 4591 
L 4147 2013 
Q 4147 1166 3919 709 
Q 3500 -122 2338 -122 
Q 1175 -122 759 709 
Q 531 1166 531 2013 
L 531 4591 
L 1163 4591 
z
M 2341 4591 
L 2341 4591 
z
" transform="scale(0.015625)"/>
      <path id="Helvetica-43" d="M 2422 4716 
Q 3294 4716 3775 4256 
Q 4256 3797 4309 3213 
L 3703 3213 
Q 3600 3656 3292 3915 
Q 2984 4175 2428 4175 
Q 1750 4175 1333 3698 
Q 916 3222 916 2238 
Q 916 1431 1292 929 
Q 1669 428 2416 428 
Q 3103 428 3463 956 
Q 3653 1234 3747 1688 
L 4353 1688 
Q 4272 963 3816 472 
Q 3269 -119 2341 -119 
Q 1541 -119 997 366 
Q 281 1006 281 2344 
Q 281 3359 819 4009 
Q 1400 4716 2422 4716 
z
M 2297 4716 
L 2297 4716 
z
" transform="scale(0.015625)"/>
     </defs>
     <use xlink:href="#Helvetica-70"/>
     <use xlink:href="#Helvetica-55" x="55.615234"/>
     <use xlink:href="#Helvetica-43" x="127.832031"/>
    </g>
   </g>
  </g>
 </g>
 <defs>
  <clipPath id="p0ef0f8eab7">
   <rect x="36.72" y="6.84" width="102.816" height="98.496"/>
  </clipPath>
 </defs>
</svg>
