<?xml version="1.0" encoding="utf-8" standalone="no"?>
<!DOCTYPE svg PUBLIC "-//W3C//DTD SVG 1.1//EN"
  "http://www.w3.org/Graphics/SVG/1.1/DTD/svg11.dtd">
<svg xmlns:xlink="http://www.w3.org/1999/xlink" width="146.88pt" height="136.8pt" viewBox="0 0 146.88 136.8" xmlns="http://www.w3.org/2000/svg" version="1.1">
 <metadata>
  <rdf:RDF xmlns:dc="http://purl.org/dc/elements/1.1/" xmlns:cc="http://creativecommons.org/ns#" xmlns:rdf="http://www.w3.org/1999/02/22-rdf-syntax-ns#">
   <cc:Work>
    <dc:type rdf:resource="http://purl.org/dc/dcmitype/StillImage"/>
    <dc:date>2025-10-11T20:53:53.083632</dc:date>
    <dc:format>image/svg+xml</dc:format>
    <dc:creator>
     <cc:Agent>
      <dc:title>Matplotlib v3.7.5, https://matplotlib.org/</dc:title>
     </cc:Agent>
    </dc:creator>
   </cc:Work>
  </rdf:RDF>
 </metadata>
 <defs>
  <style type="text/css">*{stroke-linejoin: round; stroke-linecap: butt}</style>
 </defs>
 <g id="figure_1">
  <g id="patch_1">
   <path d="M 0 136.8 
L 146.88 136.8 
L 146.88 0 
L 0 0 
z
" style="fill: #ffffff"/>
  </g>
  <g id="axes_1">
   <g id="patch_2">
    <path d="M 36.72 116.28 
L 139.536 116.28 
L 139.536 17.784 
L 36.72 17.784 
z
" style="fill: #ffffff"/>
   </g>
   <g id="matplotlib.axis_1">
    <g id="xtick_1">
     <g id="line2d_1">
      <defs>
       <path id="m160951166f" d="M 0 0 
L 0 -3.5 
" style="stroke: #000000; stroke-width: 0.8"/>
      </defs>
      <g>
       <use xlink:href="#m160951166f" x="58.918909" y="116.28" style="stroke: #000000; stroke-width: 0.8"/>
      </g>
     </g>
     <g id="text_1">
      <!-- no pulse -->
      <g transform="translate(36.236097 128.388125) scale(0.12 -0.12)">
       <defs>
        <path id="Helvetica-6e" d="M 413 3347 
L 947 3347 
L 947 2872 
Q 1184 3166 1450 3294 
Q 1716 3422 2041 3422 
Q 2753 3422 3003 2925 
Q 3141 2653 3141 2147 
L 3141 0 
L 2569 0 
L 2569 2109 
Q 2569 2416 2478 2603 
Q 2328 2916 1934 2916 
Q 1734 2916 1606 2875 
Q 1375 2806 1200 2600 
Q 1059 2434 1017 2257 
Q 975 2081 975 1753 
L 975 0 
L 413 0 
L 413 3347 
z
M 1734 3428 
L 1734 3428 
z
" transform="scale(0.015625)"/>
        <path id="Helvetica-6f" d="M 1741 363 
Q 2300 363 2508 786 
Q 2716 1209 2716 1728 
Q 2716 2197 2566 2491 
Q 2328 2953 1747 2953 
Q 1231 2953 997 2559 
Q 763 2166 763 1609 
Q 763 1075 997 719 
Q 1231 363 1741 363 
z
M 1763 3444 
Q 2409 3444 2856 3012 
Q 3303 2581 3303 1744 
Q 3303 934 2909 406 
Q 2516 -122 1688 -122 
Q 997 -122 590 345 
Q 184 813 184 1600 
Q 184 2444 612 2944 
Q 1041 3444 1763 3444 
z
M 1744 3428 
L 1744 3428 
z
" transform="scale(0.015625)"/>
        <path id="Helvetica-20" transform="scale(0.015625)"/>
        <path id="Helvetica-70" d="M 1825 378 
Q 2219 378 2480 708 
Q 2741 1038 2741 1694 
Q 2741 2094 2625 2381 
Q 2406 2934 1825 2934 
Q 1241 2934 1025 2350 
Q 909 2038 909 1556 
Q 909 1169 1025 897 
Q 1244 378 1825 378 
z
M 369 3331 
L 916 3331 
L 916 2888 
Q 1084 3116 1284 3241 
Q 1569 3428 1953 3428 
Q 2522 3428 2919 2992 
Q 3316 2556 3316 1747 
Q 3316 653 2744 184 
Q 2381 -113 1900 -113 
Q 1522 -113 1266 53 
Q 1116 147 931 375 
L 931 -1334 
L 369 -1334 
L 369 3331 
z
" transform="scale(0.015625)"/>
        <path id="Helvetica-75" d="M 975 3347 
L 975 1125 
Q 975 869 1056 706 
Q 1206 406 1616 406 
Q 2203 406 2416 931 
Q 2531 1213 2531 1703 
L 2531 3347 
L 3094 3347 
L 3094 0 
L 2563 0 
L 2569 494 
Q 2459 303 2297 172 
Q 1975 -91 1516 -91 
Q 800 -91 541 388 
Q 400 644 400 1072 
L 400 3347 
L 975 3347 
z
M 1747 3428 
L 1747 3428 
z
" transform="scale(0.015625)"/>
        <path id="Helvetica-6c" d="M 428 4591 
L 991 4591 
L 991 0 
L 428 0 
L 428 4591 
z
" transform="scale(0.015625)"/>
        <path id="Helvetica-73" d="M 747 1050 
Q 772 769 888 619 
Q 1100 347 1625 347 
Q 1938 347 2175 483 
Q 2413 619 2413 903 
Q 2413 1119 2222 1231 
Q 2100 1300 1741 1391 
L 1294 1503 
Q 866 1609 663 1741 
Q 300 1969 300 2372 
Q 300 2847 642 3140 
Q 984 3434 1563 3434 
Q 2319 3434 2653 2991 
Q 2863 2709 2856 2384 
L 2325 2384 
Q 2309 2575 2191 2731 
Q 1997 2953 1519 2953 
Q 1200 2953 1036 2831 
Q 872 2709 872 2509 
Q 872 2291 1088 2159 
Q 1213 2081 1456 2022 
L 1828 1931 
Q 2434 1784 2641 1647 
Q 2969 1431 2969 969 
Q 2969 522 2630 197 
Q 2291 -128 1597 -128 
Q 850 -128 539 211 
Q 228 550 206 1050 
L 747 1050 
z
M 1578 3428 
L 1578 3428 
z
" transform="scale(0.015625)"/>
        <path id="Helvetica-65" d="M 1806 3422 
Q 2163 3422 2497 3255 
Q 2831 3088 3006 2822 
Q 3175 2569 3231 2231 
Q 3281 2000 3281 1494 
L 828 1494 
Q 844 984 1069 676 
Q 1294 369 1766 369 
Q 2206 369 2469 659 
Q 2619 828 2681 1050 
L 3234 1050 
Q 3213 866 3089 639 
Q 2966 413 2813 269 
Q 2556 19 2178 -69 
Q 1975 -119 1719 -119 
Q 1094 -119 659 336 
Q 225 791 225 1609 
Q 225 2416 662 2919 
Q 1100 3422 1806 3422 
z
M 2703 1941 
Q 2669 2306 2544 2525 
Q 2313 2931 1772 2931 
Q 1384 2931 1121 2651 
Q 859 2372 844 1941 
L 2703 1941 
z
M 1753 3428 
L 1753 3428 
z
" transform="scale(0.015625)"/>
       </defs>
       <use xlink:href="#Helvetica-6e"/>
       <use xlink:href="#Helvetica-6f" x="55.615234"/>
       <use xlink:href="#Helvetica-20" x="111.230469"/>
       <use xlink:href="#Helvetica-70" x="139.013672"/>
       <use xlink:href="#Helvetica-75" x="194.628906"/>
       <use xlink:href="#Helvetica-6c" x="250.244141"/>
       <use xlink:href="#Helvetica-73" x="272.460938"/>
       <use xlink:href="#Helvetica-65" x="322.460938"/>
      </g>
     </g>
    </g>
    <g id="xtick_2">
     <g id="line2d_2">
      <g>
       <use xlink:href="#m160951166f" x="117.337091" y="116.28" style="stroke: #000000; stroke-width: 0.8"/>
      </g>
     </g>
     <g id="text_2">
      <!-- +Trim -->
      <g transform="translate(101.839278 128.388125) scale(0.12 -0.12)">
       <defs>
        <path id="Helvetica-2b" d="M 288 1369 
L 288 1894 
L 1650 1894 
L 1650 3266 
L 2184 3266 
L 2184 1894 
L 3547 1894 
L 3547 1369 
L 2184 1369 
L 2184 0 
L 1650 0 
L 1650 1369 
L 288 1369 
z
" transform="scale(0.015625)"/>
        <path id="Helvetica-54" d="M 3828 4591 
L 3828 4044 
L 2281 4044 
L 2281 0 
L 1650 0 
L 1650 4044 
L 103 4044 
L 103 4591 
L 3828 4591 
z
" transform="scale(0.015625)"/>
        <path id="Helvetica-72" d="M 428 3347 
L 963 3347 
L 963 2769 
Q 1028 2938 1284 3180 
Q 1541 3422 1875 3422 
Q 1891 3422 1928 3419 
Q 1966 3416 2056 3406 
L 2056 2813 
Q 2006 2822 1964 2825 
Q 1922 2828 1872 2828 
Q 1447 2828 1219 2554 
Q 991 2281 991 1925 
L 991 0 
L 428 0 
L 428 3347 
z
" transform="scale(0.015625)"/>
        <path id="Helvetica-69" d="M 413 3331 
L 984 3331 
L 984 0 
L 413 0 
L 413 3331 
z
M 413 4591 
L 984 4591 
L 984 3953 
L 413 3953 
L 413 4591 
z
" transform="scale(0.015625)"/>
        <path id="Helvetica-6d" d="M 413 3347 
L 969 3347 
L 969 2872 
Q 1169 3119 1331 3231 
Q 1609 3422 1963 3422 
Q 2363 3422 2606 3225 
Q 2744 3113 2856 2894 
Q 3044 3163 3297 3292 
Q 3550 3422 3866 3422 
Q 4541 3422 4784 2934 
Q 4916 2672 4916 2228 
L 4916 0 
L 4331 0 
L 4331 2325 
Q 4331 2659 4164 2784 
Q 3997 2909 3756 2909 
Q 3425 2909 3186 2687 
Q 2947 2466 2947 1947 
L 2947 0 
L 2375 0 
L 2375 2184 
Q 2375 2525 2294 2681 
Q 2166 2916 1816 2916 
Q 1497 2916 1236 2669 
Q 975 2422 975 1775 
L 975 0 
L 413 0 
L 413 3347 
z
" transform="scale(0.015625)"/>
       </defs>
       <use xlink:href="#Helvetica-2b"/>
       <use xlink:href="#Helvetica-54" x="58.398438"/>
       <use xlink:href="#Helvetica-72" x="119.482422"/>
       <use xlink:href="#Helvetica-69" x="152.783203"/>
       <use xlink:href="#Helvetica-6d" x="175"/>
      </g>
     </g>
    </g>
   </g>
   <g id="matplotlib.axis_2">
    <g id="ytick_1">
     <g id="line2d_3">
      <defs>
       <path id="m46e7bdcc8c" d="M 0 0 
L 3.5 0 
" style="stroke: #000000; stroke-width: 0.8"/>
      </defs>
      <g>
       <use xlink:href="#m46e7bdcc8c" x="36.72" y="116.28" style="stroke: #000000; stroke-width: 0.8"/>
      </g>
     </g>
     <g id="text_3">
      <!-- 0 -->
      <g transform="translate(26.546875 120.584062) scale(0.12 -0.12)">
       <defs>
        <path id="Helvetica-30" d="M 1731 4475 
Q 2600 4475 2988 3759 
Q 3288 3206 3288 2244 
Q 3288 1331 3016 734 
Q 2622 -122 1728 -122 
Q 922 -122 528 578 
Q 200 1163 200 2147 
Q 200 2909 397 3456 
Q 766 4475 1731 4475 
z
M 1725 391 
Q 2163 391 2422 778 
Q 2681 1166 2681 2222 
Q 2681 2984 2493 3476 
Q 2306 3969 1766 3969 
Q 1269 3969 1039 3501 
Q 809 3034 809 2125 
Q 809 1441 956 1025 
Q 1181 391 1725 391 
z
" transform="scale(0.015625)"/>
       </defs>
       <use xlink:href="#Helvetica-30"/>
      </g>
     </g>
    </g>
    <g id="ytick_2">
     <g id="line2d_4">
      <g>
       <use xlink:href="#m46e7bdcc8c" x="36.72" y="89.865701" style="stroke: #000000; stroke-width: 0.8"/>
      </g>
     </g>
     <g id="text_4">
      <!-- 10 -->
      <g transform="translate(19.87375 94.169764) scale(0.12 -0.12)">
       <defs>
        <path id="Helvetica-31" d="M 613 3169 
L 613 3600 
Q 1222 3659 1462 3798 
Q 1703 3938 1822 4456 
L 2266 4456 
L 2266 0 
L 1666 0 
L 1666 3169 
L 613 3169 
z
" transform="scale(0.015625)"/>
       </defs>
       <use xlink:href="#Helvetica-31"/>
       <use xlink:href="#Helvetica-30" x="55.615234"/>
      </g>
     </g>
    </g>
    <g id="ytick_3">
     <g id="line2d_5">
      <g>
       <use xlink:href="#m46e7bdcc8c" x="36.72" y="63.451402" style="stroke: #000000; stroke-width: 0.8"/>
      </g>
     </g>
     <g id="text_5">
      <!-- 20 -->
      <g transform="translate(19.87375 67.755465) scale(0.12 -0.12)">
       <defs>
        <path id="Helvetica-32" d="M 200 0 
Q 231 578 439 1006 
Q 647 1434 1250 1784 
L 1850 2131 
Q 2253 2366 2416 2531 
Q 2672 2791 2672 3125 
Q 2672 3516 2437 3745 
Q 2203 3975 1813 3975 
Q 1234 3975 1013 3538 
Q 894 3303 881 2888 
L 309 2888 
Q 319 3472 525 3841 
Q 891 4491 1816 4491 
Q 2584 4491 2939 4075 
Q 3294 3659 3294 3150 
Q 3294 2613 2916 2231 
Q 2697 2009 2131 1694 
L 1703 1456 
Q 1397 1288 1222 1134 
Q 909 863 828 531 
L 3272 531 
L 3272 0 
L 200 0 
z
" transform="scale(0.015625)"/>
       </defs>
       <use xlink:href="#Helvetica-32"/>
       <use xlink:href="#Helvetica-30" x="55.615234"/>
      </g>
     </g>
    </g>
    <g id="ytick_4">
     <g id="line2d_6">
      <g>
       <use xlink:href="#m46e7bdcc8c" x="36.72" y="37.037103" style="stroke: #000000; stroke-width: 0.8"/>
      </g>
     </g>
     <g id="text_6">
      <!-- 30 -->
      <g transform="translate(19.87375 41.341166) scale(0.12 -0.12)">
       <defs>
        <path id="Helvetica-33" d="M 1663 -122 
Q 869 -122 511 314 
Q 153 750 153 1375 
L 741 1375 
Q 778 941 903 744 
Q 1122 391 1694 391 
Q 2138 391 2406 628 
Q 2675 866 2675 1241 
Q 2675 1703 2392 1887 
Q 2109 2072 1606 2072 
Q 1550 2072 1492 2070 
Q 1434 2069 1375 2066 
L 1375 2563 
Q 1463 2553 1522 2550 
Q 1581 2547 1650 2547 
Q 1966 2547 2169 2647 
Q 2525 2822 2525 3272 
Q 2525 3606 2287 3787 
Q 2050 3969 1734 3969 
Q 1172 3969 956 3594 
Q 838 3388 822 3006 
L 266 3006 
Q 266 3506 466 3856 
Q 809 4481 1675 4481 
Q 2359 4481 2734 4176 
Q 3109 3872 3109 3294 
Q 3109 2881 2888 2625 
Q 2750 2466 2531 2375 
Q 2884 2278 3082 2001 
Q 3281 1725 3281 1325 
Q 3281 684 2859 281 
Q 2438 -122 1663 -122 
z
" transform="scale(0.015625)"/>
       </defs>
       <use xlink:href="#Helvetica-33"/>
       <use xlink:href="#Helvetica-30" x="55.615234"/>
      </g>
     </g>
    </g>
    <g id="text_7">
     <!-- $\tau_{1/2}$ (days) -->
     <g transform="translate(13.23375 94.452) rotate(-90) scale(0.12 -0.12)">
      <defs>
       <path id="Helvetica-3c4" d="M 184 3328 
L 3016 3328 
L 3016 2828 
L 1888 2828 
L 1888 775 
Q 1881 428 2125 434 
Q 2291 434 2394 466 
L 2394 -31 
Q 2253 -63 1925 -63 
Q 1728 -63 1606 6 
Q 1484 63 1422 172 
Q 1356 288 1338 434 
Q 1313 575 1313 750 
L 1313 2828 
L 184 2828 
L 184 3328 
z
" transform="scale(0.015625)"/>
       <path id="Helvetica-2f" d="M 1456 4591 
L 1931 4591 
L 475 0 
L 0 0 
L 1456 4591 
z
" transform="scale(0.015625)"/>
       <path id="Helvetica-28" d="M 1894 4666 
Q 1403 3713 1256 3263 
Q 1034 2578 1034 1681 
Q 1034 775 1288 25 
Q 1444 -438 1903 -1306 
L 1525 -1306 
Q 1069 -594 959 -397 
Q 850 -200 722 138 
Q 547 600 478 1125 
Q 444 1397 444 1644 
Q 444 2569 734 3291 
Q 919 3750 1503 4666 
L 1894 4666 
z
" transform="scale(0.015625)"/>
       <path id="Helvetica-64" d="M 769 1634 
Q 769 1097 997 734 
Q 1225 372 1728 372 
Q 2119 372 2370 708 
Q 2622 1044 2622 1672 
Q 2622 2306 2362 2611 
Q 2103 2916 1722 2916 
Q 1297 2916 1033 2591 
Q 769 2266 769 1634 
z
M 1616 3406 
Q 2000 3406 2259 3244 
Q 2409 3150 2600 2916 
L 2600 4606 
L 3141 4606 
L 3141 0 
L 2634 0 
L 2634 466 
Q 2438 156 2169 18 
Q 1900 -119 1553 -119 
Q 994 -119 584 351 
Q 175 822 175 1603 
Q 175 2334 548 2870 
Q 922 3406 1616 3406 
z
" transform="scale(0.015625)"/>
       <path id="Helvetica-61" d="M 844 891 
Q 844 647 1022 506 
Q 1200 366 1444 366 
Q 1741 366 2019 503 
Q 2488 731 2488 1250 
L 2488 1703 
Q 2384 1638 2221 1594 
Q 2059 1550 1903 1531 
L 1563 1488 
Q 1256 1447 1103 1359 
Q 844 1213 844 891 
z
M 2206 2028 
Q 2400 2053 2466 2191 
Q 2503 2266 2503 2406 
Q 2503 2694 2298 2823 
Q 2094 2953 1713 2953 
Q 1272 2953 1088 2716 
Q 984 2584 953 2325 
L 428 2325 
Q 444 2944 830 3186 
Q 1216 3428 1725 3428 
Q 2316 3428 2684 3203 
Q 3050 2978 3050 2503 
L 3050 575 
Q 3050 488 3086 434 
Q 3122 381 3238 381 
Q 3275 381 3322 386 
Q 3369 391 3422 400 
L 3422 -16 
Q 3291 -53 3222 -62 
Q 3153 -72 3034 -72 
Q 2744 -72 2613 134 
Q 2544 244 2516 444 
Q 2344 219 2022 53 
Q 1700 -113 1313 -113 
Q 847 -113 551 170 
Q 256 453 256 878 
Q 256 1344 547 1600 
Q 838 1856 1309 1916 
L 2206 2028 
z
M 1741 3428 
L 1741 3428 
z
" transform="scale(0.015625)"/>
       <path id="Helvetica-79" d="M 2503 3347 
L 3125 3347 
Q 3006 3025 2597 1878 
Q 2291 1016 2084 472 
Q 1597 -809 1397 -1090 
Q 1197 -1372 709 -1372 
Q 591 -1372 527 -1362 
Q 463 -1353 369 -1328 
L 369 -816 
Q 516 -856 581 -865 
Q 647 -875 697 -875 
Q 853 -875 926 -823 
Q 1000 -772 1050 -697 
Q 1066 -672 1162 -440 
Q 1259 -209 1303 -97 
L 66 3347 
L 703 3347 
L 1600 622 
L 2503 3347 
z
M 1597 3428 
L 1597 3428 
z
" transform="scale(0.015625)"/>
       <path id="Helvetica-29" d="M 222 -1306 
Q 719 -338 863 106 
Q 1081 778 1081 1681 
Q 1081 2584 828 3334 
Q 672 3797 213 4666 
L 591 4666 
Q 1072 3897 1173 3717 
Q 1275 3538 1394 3222 
Q 1544 2831 1608 2450 
Q 1672 2069 1672 1716 
Q 1672 791 1378 66 
Q 1194 -400 613 -1306 
L 222 -1306 
z
" transform="scale(0.015625)"/>
      </defs>
      <use xlink:href="#Helvetica-3c4" transform="translate(0 0.09375)"/>
      <use xlink:href="#Helvetica-31" transform="translate(50.915195 -15.595313) scale(0.7)"/>
      <use xlink:href="#Helvetica-2f" transform="translate(89.845859 -15.595313) scale(0.7)"/>
      <use xlink:href="#Helvetica-32" transform="translate(109.294102 -15.595313) scale(0.7)"/>
      <use xlink:href="#Helvetica-20" transform="translate(150.839609 0.09375)"/>
      <use xlink:href="#Helvetica-28" transform="translate(178.622813 0.09375)"/>
      <use xlink:href="#Helvetica-64" transform="translate(211.923594 0.09375)"/>
      <use xlink:href="#Helvetica-61" transform="translate(267.538828 0.09375)"/>
      <use xlink:href="#Helvetica-79" transform="translate(323.154063 0.09375)"/>
      <use xlink:href="#Helvetica-73" transform="translate(373.154063 0.09375)"/>
      <use xlink:href="#Helvetica-29" transform="translate(423.154063 0.09375)"/>
     </g>
    </g>
   </g>
   <g id="patch_3">
    <path d="M 41.393455 116.28 
L 76.444364 116.28 
L 76.444364 110.562397 
L 41.393455 110.562397 
L 41.393455 116.28 
z
" clip-path="url(#pb99119a698)" style="fill: none; stroke: #000000; stroke-width: 1.2; stroke-linejoin: miter"/>
   </g>
   <g id="patch_4">
    <path d="M 99.811636 116.28 
L 134.862545 116.28 
L 134.862545 44.256786 
L 99.811636 44.256786 
L 99.811636 116.28 
z
" clip-path="url(#pb99119a698)" style="fill: none; stroke: #000000; stroke-width: 1.2; stroke-linejoin: miter"/>
   </g>
   <g id="line2d_7">
    <path d="M 58.918909 30.664246 
L 117.337091 30.664246 
" clip-path="url(#pb99119a698)" style="fill: none; stroke: #000000; stroke-linecap: square"/>
   </g>
   <g id="LineCollection_1">
    <path d="M 58.918909 111.15528 
L 58.918909 109.969514 
" clip-path="url(#pb99119a698)" style="fill: none; stroke: #000000; stroke-width: 1.2"/>
    <path d="M 117.337091 46.852003 
L 117.337091 41.661568 
" clip-path="url(#pb99119a698)" style="fill: none; stroke: #000000; stroke-width: 1.2"/>
   </g>
   <g id="line2d_8">
    <defs>
     <path id="m75b71c7328" d="M 3 0 
L -3 -0 
" style="stroke: #000000; stroke-width: 1.2"/>
    </defs>
    <g clip-path="url(#pb99119a698)">
     <use xlink:href="#m75b71c7328" x="58.918909" y="111.15528" style="stroke: #000000; stroke-width: 1.2"/>
     <use xlink:href="#m75b71c7328" x="117.337091" y="46.852003" style="stroke: #000000; stroke-width: 1.2"/>
    </g>
   </g>
   <g id="line2d_9">
    <g clip-path="url(#pb99119a698)">
     <use xlink:href="#m75b71c7328" x="58.918909" y="109.969514" style="stroke: #000000; stroke-width: 1.2"/>
     <use xlink:href="#m75b71c7328" x="117.337091" y="41.661568" style="stroke: #000000; stroke-width: 1.2"/>
    </g>
   </g>
   <g id="patch_5">
    <path d="M 36.72 116.28 
L 36.72 17.784 
" style="fill: none; stroke: #000000; stroke-width: 0.8; stroke-linejoin: miter; stroke-linecap: square"/>
   </g>
   <g id="patch_6">
    <path d="M 139.536 116.28 
L 139.536 17.784 
" style="fill: none; stroke: #000000; stroke-width: 0.8; stroke-linejoin: miter; stroke-linecap: square"/>
   </g>
   <g id="patch_7">
    <path d="M 36.72 116.28 
L 139.536 116.28 
" style="fill: none; stroke: #000000; stroke-width: 0.8; stroke-linejoin: miter; stroke-linecap: square"/>
   </g>
   <g id="patch_8">
    <path d="M 36.72 17.784 
L 139.536 17.784 
" style="fill: none; stroke: #000000; stroke-width: 0.8; stroke-linejoin: miter; stroke-linecap: square"/>
   </g>
   <g id="PathCollection_1">
    <defs>
     <path id="me40a271bf0" d="M 0 3.872983 
C 1.027127 3.872983 2.012324 3.464901 2.738613 2.738613 
C 3.464901 2.012324 3.872983 1.027127 3.872983 0 
C 3.872983 -1.027127 3.464901 -2.012324 2.738613 -2.738613 
C 2.012324 -3.464901 1.027127 -3.872983 0 -3.872983 
C -1.027127 -3.872983 -2.012324 -3.464901 -2.738613 -2.738613 
C -3.464901 -2.012324 -3.872983 -1.027127 -3.872983 0 
C -3.872983 1.027127 -3.464901 2.012324 -2.738613 2.738613 
C -2.012324 3.464901 -1.027127 3.872983 0 3.872983 
z
" style="stroke: #000000"/>
    </defs>
    <g clip-path="url(#pb99119a698)">
     <use xlink:href="#me40a271bf0" x="60.699011" y="109.876092" style="fill: #8da0cb; stroke: #000000"/>
     <use xlink:href="#me40a271bf0" x="52.843511" y="111.742968" style="fill: #8da0cb; stroke: #000000"/>
     <use xlink:href="#me40a271bf0" x="63.302909" y="110.06813" style="fill: #8da0cb; stroke: #000000"/>
    </g>
   </g>
   <g id="PathCollection_2">
    <defs>
     <path id="m47055ef641" d="M 0 3.872983 
C 1.027127 3.872983 2.012324 3.464901 2.738613 2.738613 
C 3.464901 2.012324 3.872983 1.027127 3.872983 0 
C 3.872983 -1.027127 3.464901 -2.012324 2.738613 -2.738613 
C 2.012324 -3.464901 1.027127 -3.872983 0 -3.872983 
C -1.027127 -3.872983 -2.012324 -3.464901 -2.738613 -2.738613 
C -3.464901 -2.012324 -3.872983 -1.027127 -3.872983 0 
C -3.872983 1.027127 -3.464901 2.012324 -2.738613 2.738613 
C -2.012324 3.464901 -1.027127 3.872983 0 3.872983 
z
" style="stroke: #000000"/>
    </defs>
    <g clip-path="url(#pb99119a698)">
     <use xlink:href="#m47055ef641" x="119.534934" y="40.513846" style="fill: #fc8d62; stroke: #000000"/>
     <use xlink:href="#m47055ef641" x="112.778054" y="43.014052" style="fill: #fc8d62; stroke: #000000"/>
     <use xlink:href="#m47055ef641" x="114.294253" y="49.242459" style="fill: #fc8d62; stroke: #000000"/>
    </g>
   </g>
   <g id="text_8">
    <!-- *** -->
    <g transform="translate(81.122063 31.951304) scale(0.12 -0.12)">
     <defs>
      <path id="Helvetica-2a" d="M 1406 4591 
L 1406 3894 
L 2088 4131 
L 2213 3784 
L 1531 3563 
L 1953 2975 
L 1644 2753 
L 1234 3363 
L 822 2753 
L 503 2975 
L 931 3563 
L 244 3784 
L 369 4131 
L 1044 3888 
L 1044 4591 
L 1406 4591 
z
" transform="scale(0.015625)"/>
     </defs>
     <use xlink:href="#Helvetica-2a"/>
     <use xlink:href="#Helvetica-2a" x="38.916016"/>
     <use xlink:href="#Helvetica-2a" x="77.832031"/>
    </g>
   </g>
   <g id="LineCollection_2">
    <path d="M 60.699011 110.273331 
L 60.699011 109.478852 
" clip-path="url(#pb99119a698)" style="fill: none; stroke: #000000; stroke-width: 1.2"/>
    <path d="M 52.843511 112.540589 
L 52.843511 110.945348 
" clip-path="url(#pb99119a698)" style="fill: none; stroke: #000000; stroke-width: 1.2"/>
    <path d="M 63.302909 110.258736 
L 63.302909 109.877524 
" clip-path="url(#pb99119a698)" style="fill: none; stroke: #000000; stroke-width: 1.2"/>
   </g>
   <g id="line2d_10">
    <defs>
     <path id="md7a104c1a4" d="M 2 0 
L -2 -0 
" style="stroke: #000000; stroke-width: 1.2"/>
    </defs>
    <g clip-path="url(#pb99119a698)">
     <use xlink:href="#md7a104c1a4" x="60.699011" y="110.273331" style="stroke: #000000; stroke-width: 1.2"/>
     <use xlink:href="#md7a104c1a4" x="52.843511" y="112.540589" style="stroke: #000000; stroke-width: 1.2"/>
     <use xlink:href="#md7a104c1a4" x="63.302909" y="110.258736" style="stroke: #000000; stroke-width: 1.2"/>
    </g>
   </g>
   <g id="line2d_11">
    <g clip-path="url(#pb99119a698)">
     <use xlink:href="#md7a104c1a4" x="60.699011" y="109.478852" style="stroke: #000000; stroke-width: 1.2"/>
     <use xlink:href="#md7a104c1a4" x="52.843511" y="110.945348" style="stroke: #000000; stroke-width: 1.2"/>
     <use xlink:href="#md7a104c1a4" x="63.302909" y="109.877524" style="stroke: #000000; stroke-width: 1.2"/>
    </g>
   </g>
   <g id="LineCollection_3">
    <path d="M 119.534934 41.870343 
L 119.534934 39.15735 
" clip-path="url(#pb99119a698)" style="fill: none; stroke: #000000; stroke-width: 1.2"/>
    <path d="M 112.778054 44.598547 
L 112.778054 41.429556 
" clip-path="url(#pb99119a698)" style="fill: none; stroke: #000000; stroke-width: 1.2"/>
    <path d="M 114.294253 51.803497 
L 114.294253 46.681422 
" clip-path="url(#pb99119a698)" style="fill: none; stroke: #000000; stroke-width: 1.2"/>
   </g>
   <g id="line2d_12">
    <g clip-path="url(#pb99119a698)">
     <use xlink:href="#md7a104c1a4" x="119.534934" y="41.870343" style="stroke: #000000; stroke-width: 1.2"/>
     <use xlink:href="#md7a104c1a4" x="112.778054" y="44.598547" style="stroke: #000000; stroke-width: 1.2"/>
     <use xlink:href="#md7a104c1a4" x="114.294253" y="51.803497" style="stroke: #000000; stroke-width: 1.2"/>
    </g>
   </g>
   <g id="line2d_13">
    <g clip-path="url(#pb99119a698)">
     <use xlink:href="#md7a104c1a4" x="119.534934" y="39.15735" style="stroke: #000000; stroke-width: 1.2"/>
     <use xlink:href="#md7a104c1a4" x="112.778054" y="41.429556" style="stroke: #000000; stroke-width: 1.2"/>
     <use xlink:href="#md7a104c1a4" x="114.294253" y="46.681422" style="stroke: #000000; stroke-width: 1.2"/>
    </g>
   </g>
   <g id="line2d_14">
    <path d="M 60.699011 109.876092 
L 52.843511 111.742968 
L 63.302909 110.06813 
" clip-path="url(#pb99119a698)" style="fill: none"/>
   </g>
   <g id="line2d_15">
    <path d="M 119.534934 40.513846 
L 112.778054 43.014052 
L 114.294253 49.242459 
" clip-path="url(#pb99119a698)" style="fill: none"/>
   </g>
  </g>
 </g>
 <defs>
  <clipPath id="pb99119a698">
   <rect x="36.72" y="17.784" width="102.816" height="98.496"/>
  </clipPath>
 </defs>
</svg>
