<?xml version="1.0" encoding="utf-8" standalone="no"?>
<!DOCTYPE svg PUBLIC "-//W3C//DTD SVG 1.1//EN"
  "http://www.w3.org/Graphics/SVG/1.1/DTD/svg11.dtd">
<svg xmlns:xlink="http://www.w3.org/1999/xlink" width="144pt" height="158.4pt" viewBox="0 0 144 158.4" xmlns="http://www.w3.org/2000/svg" version="1.1">
 <metadata>
  <rdf:RDF xmlns:dc="http://purl.org/dc/elements/1.1/" xmlns:cc="http://creativecommons.org/ns#" xmlns:rdf="http://www.w3.org/1999/02/22-rdf-syntax-ns#">
   <cc:Work>
    <dc:type rdf:resource="http://purl.org/dc/dcmitype/StillImage"/>
    <dc:date>2026-07-21T22:00:32.763894</dc:date>
    <dc:format>image/svg+xml</dc:format>
    <dc:creator>
     <cc:Agent>
      <dc:title>Matplotlib v3.10.8, https://matplotlib.org/</dc:title>
     </cc:Agent>
    </dc:creator>
   </cc:Work>
  </rdf:RDF>
 </metadata>
 <defs>
  <style type="text/css">*{stroke-linejoin: round; stroke-linecap: butt}</style>
 </defs>
 <g id="figure_1">
  <g id="patch_1">
   <path d="M 0 158.4 
L 144 158.4 
L 144 0 
L 0 0 
z
" style="fill: #ffffff"/>
  </g>
  <g id="axes_1">
   <g id="patch_2">
    <path d="M 36 110.88 
L 136.8 110.88 
L 136.8 7.92 
L 36 7.92 
z
" style="fill: #ffffff"/>
   </g>
   <g id="matplotlib.axis_1">
    <g id="xtick_1">
     <g id="line2d_1">
      <defs>
       <path id="m31c389b60e" d="M 0 0 
L 0 -5 
" style="stroke: #000000; stroke-width: 0.8"/>
      </defs>
      <g>
       <use xlink:href="#m31c389b60e" x="51.155245" y="110.88" style="stroke: #000000; stroke-width: 0.8"/>
      </g>
     </g>
    </g>
    <g id="xtick_2">
     <g id="line2d_2">
      <g>
       <use xlink:href="#m31c389b60e" x="86.4" y="110.88" style="stroke: #000000; stroke-width: 0.8"/>
      </g>
     </g>
    </g>
    <g id="xtick_3">
     <g id="line2d_3">
      <g>
       <use xlink:href="#m31c389b60e" x="121.644755" y="110.88" style="stroke: #000000; stroke-width: 0.8"/>
      </g>
     </g>
    </g>
   </g>
   <g id="matplotlib.axis_2">
    <g id="ytick_1">
     <g id="line2d_4">
      <defs>
       <path id="me329299d8c" d="M 0 0 
L 5 0 
" style="stroke: #000000; stroke-width: 0.8"/>
      </defs>
      <g>
       <use xlink:href="#me329299d8c" x="36" y="110.88" style="stroke: #000000; stroke-width: 0.8"/>
      </g>
     </g>
     <g id="text_1">
      <!-- 0 -->
      <g transform="translate(25.826875 115.184062) scale(0.12 -0.12)">
       <defs>
        <path id="Helvetica-30" d="M 1731 4475 
Q 2600 4475 2988 3759 
Q 3288 3206 3288 2244 
Q 3288 1331 3016 734 
Q 2622 -122 1728 -122 
Q 922 -122 528 578 
Q 200 1163 200 2147 
Q 200 2909 397 3456 
Q 766 4475 1731 4475 
z
M 1725 391 
Q 2163 391 2422 778 
Q 2681 1166 2681 2222 
Q 2681 2984 2493 3476 
Q 2306 3969 1766 3969 
Q 1269 3969 1039 3501 
Q 809 3034 809 2125 
Q 809 1441 956 1025 
Q 1181 391 1725 391 
z
" transform="scale(0.015625)"/>
       </defs>
       <use xlink:href="#Helvetica-30"/>
      </g>
     </g>
    </g>
    <g id="ytick_2">
     <g id="line2d_5">
      <g>
       <use xlink:href="#me329299d8c" x="36" y="83.268562" style="stroke: #000000; stroke-width: 0.8"/>
      </g>
     </g>
     <g id="text_2">
      <!-- 10 -->
      <g transform="translate(19.15375 87.572624) scale(0.12 -0.12)">
       <defs>
        <path id="Helvetica-31" d="M 613 3169 
L 613 3600 
Q 1222 3659 1462 3798 
Q 1703 3938 1822 4456 
L 2266 4456 
L 2266 0 
L 1666 0 
L 1666 3169 
L 613 3169 
z
" transform="scale(0.015625)"/>
       </defs>
       <use xlink:href="#Helvetica-31"/>
       <use xlink:href="#Helvetica-30" transform="translate(55.615234 0)"/>
      </g>
     </g>
    </g>
    <g id="ytick_3">
     <g id="line2d_6">
      <g>
       <use xlink:href="#me329299d8c" x="36" y="55.657123" style="stroke: #000000; stroke-width: 0.8"/>
      </g>
     </g>
     <g id="text_3">
      <!-- 20 -->
      <g transform="translate(19.15375 59.961186) scale(0.12 -0.12)">
       <defs>
        <path id="Helvetica-32" d="M 200 0 
Q 231 578 439 1006 
Q 647 1434 1250 1784 
L 1850 2131 
Q 2253 2366 2416 2531 
Q 2672 2791 2672 3125 
Q 2672 3516 2437 3745 
Q 2203 3975 1813 3975 
Q 1234 3975 1013 3538 
Q 894 3303 881 2888 
L 309 2888 
Q 319 3472 525 3841 
Q 891 4491 1816 4491 
Q 2584 4491 2939 4075 
Q 3294 3659 3294 3150 
Q 3294 2613 2916 2231 
Q 2697 2009 2131 1694 
L 1703 1456 
Q 1397 1288 1222 1134 
Q 909 863 828 531 
L 3272 531 
L 3272 0 
L 200 0 
z
" transform="scale(0.015625)"/>
       </defs>
       <use xlink:href="#Helvetica-32"/>
       <use xlink:href="#Helvetica-30" transform="translate(55.615234 0)"/>
      </g>
     </g>
    </g>
    <g id="ytick_4">
     <g id="line2d_7">
      <g>
       <use xlink:href="#me329299d8c" x="36" y="28.045685" style="stroke: #000000; stroke-width: 0.8"/>
      </g>
     </g>
     <g id="text_4">
      <!-- 30 -->
      <g transform="translate(19.15375 32.349748) scale(0.12 -0.12)">
       <defs>
        <path id="Helvetica-33" d="M 1663 -122 
Q 869 -122 511 314 
Q 153 750 153 1375 
L 741 1375 
Q 778 941 903 744 
Q 1122 391 1694 391 
Q 2138 391 2406 628 
Q 2675 866 2675 1241 
Q 2675 1703 2392 1887 
Q 2109 2072 1606 2072 
Q 1550 2072 1492 2070 
Q 1434 2069 1375 2066 
L 1375 2563 
Q 1463 2553 1522 2550 
Q 1581 2547 1650 2547 
Q 1966 2547 2169 2647 
Q 2525 2822 2525 3272 
Q 2525 3606 2287 3787 
Q 2050 3969 1734 3969 
Q 1172 3969 956 3594 
Q 838 3388 822 3006 
L 266 3006 
Q 266 3506 466 3856 
Q 809 4481 1675 4481 
Q 2359 4481 2734 4176 
Q 3109 3872 3109 3294 
Q 3109 2881 2888 2625 
Q 2750 2466 2531 2375 
Q 2884 2278 3082 2001 
Q 3281 1725 3281 1325 
Q 3281 684 2859 281 
Q 2438 -122 1663 -122 
z
" transform="scale(0.015625)"/>
       </defs>
       <use xlink:href="#Helvetica-33"/>
       <use xlink:href="#Helvetica-30" transform="translate(55.615234 0)"/>
      </g>
     </g>
    </g>
   </g>
   <g id="patch_3">
    <path d="M 40.581818 110.88 
L 61.728671 110.88 
L 61.728671 104.903266 
L 40.581818 104.903266 
L 40.581818 110.88 
z
" clip-path="url(#p30b3a4ab0c)" style="fill: none; stroke: #000000; stroke-width: 1.2; stroke-linejoin: miter"/>
   </g>
   <g id="patch_4">
    <path d="M 75.826573 110.88 
L 96.973427 110.88 
L 96.973427 35.592576 
L 75.826573 35.592576 
L 75.826573 110.88 
z
" clip-path="url(#p30b3a4ab0c)" style="fill: none; stroke: #000000; stroke-width: 1.2; stroke-linejoin: miter"/>
   </g>
   <g id="patch_5">
    <path d="M 111.071329 110.88 
L 132.218182 110.88 
L 132.218182 69.462843 
L 111.071329 69.462843 
L 111.071329 110.88 
z
" clip-path="url(#p30b3a4ab0c)" style="fill: none; stroke: #000000; stroke-width: 1.2; stroke-linejoin: miter"/>
   </g>
   <g id="line2d_8">
    <path d="M 51.155245 19.008 
L 86.4 19.008 
" clip-path="url(#p30b3a4ab0c)" style="fill: none; stroke: #000000; stroke-linecap: square"/>
   </g>
   <g id="LineCollection_1">
    <path d="M 51.155245 105.523019 
L 51.155245 104.283512 
" clip-path="url(#p30b3a4ab0c)" style="fill: none; stroke: #000000; stroke-width: 1.2"/>
    <path d="M 86.4 38.305413 
L 86.4 32.879739 
" clip-path="url(#p30b3a4ab0c)" style="fill: none; stroke: #000000; stroke-width: 1.2"/>
    <path d="M 121.644755 69.462843 
L 121.644755 69.462843 
" clip-path="url(#p30b3a4ab0c)" style="fill: none; stroke: #000000; stroke-width: 1.2"/>
   </g>
   <g id="line2d_9">
    <defs>
     <path id="mcd61ae798e" d="M 3 0 
L -3 -0 
" style="stroke: #000000; stroke-width: 1.2"/>
    </defs>
    <g clip-path="url(#p30b3a4ab0c)">
     <use xlink:href="#mcd61ae798e" x="51.155245" y="105.523019" style="fill: #0000ff; stroke: #000000; stroke-width: 1.2"/>
     <use xlink:href="#mcd61ae798e" x="86.4" y="38.305413" style="fill: #0000ff; stroke: #000000; stroke-width: 1.2"/>
     <use xlink:href="#mcd61ae798e" x="121.644755" y="69.462843" style="fill: #0000ff; stroke: #000000; stroke-width: 1.2"/>
    </g>
   </g>
   <g id="line2d_10">
    <g clip-path="url(#p30b3a4ab0c)">
     <use xlink:href="#mcd61ae798e" x="51.155245" y="104.283512" style="fill: #0000ff; stroke: #000000; stroke-width: 1.2"/>
     <use xlink:href="#mcd61ae798e" x="86.4" y="32.879739" style="fill: #0000ff; stroke: #000000; stroke-width: 1.2"/>
     <use xlink:href="#mcd61ae798e" x="121.644755" y="69.462843" style="fill: #0000ff; stroke: #000000; stroke-width: 1.2"/>
    </g>
   </g>
   <g id="patch_6">
    <path d="M 36 110.88 
L 36 7.92 
" style="fill: none; stroke: #000000; stroke-width: 0.8; stroke-linejoin: miter; stroke-linecap: square"/>
   </g>
   <g id="patch_7">
    <path d="M 136.8 110.88 
L 136.8 7.92 
" style="fill: none; stroke: #000000; stroke-width: 0.8; stroke-linejoin: miter; stroke-linecap: square"/>
   </g>
   <g id="patch_8">
    <path d="M 36 110.88 
L 136.8 110.88 
" style="fill: none; stroke: #000000; stroke-width: 0.8; stroke-linejoin: miter; stroke-linecap: square"/>
   </g>
   <g id="patch_9">
    <path d="M 36 7.92 
L 136.8 7.92 
" style="fill: none; stroke: #000000; stroke-width: 0.8; stroke-linejoin: miter; stroke-linecap: square"/>
   </g>
   <g id="PathCollection_1">
    <defs>
     <path id="m7e90997f79" d="M 0 3.872983 
C 1.027127 3.872983 2.012324 3.464901 2.738613 2.738613 
C 3.464901 2.012324 3.872983 1.027127 3.872983 0 
C 3.872983 -1.027127 3.464901 -2.012324 2.738613 -2.738613 
C 2.012324 -3.464901 1.027127 -3.872983 0 -3.872983 
C -1.027127 -3.872983 -2.012324 -3.464901 -2.738613 -2.738613 
C -3.464901 -2.012324 -3.872983 -1.027127 -3.872983 0 
C -3.872983 1.027127 -3.464901 2.012324 -2.738613 2.738613 
C -2.012324 3.464901 -1.027127 3.872983 0 3.872983 
z
" style="stroke: #000000"/>
    </defs>
    <g clip-path="url(#p30b3a4ab0c)">
     <use xlink:href="#m7e90997f79" x="52.229213" y="104.185856" style="fill: #8da0cb; stroke: #000000"/>
     <use xlink:href="#m7e90997f79" x="47.489846" y="106.137343" style="fill: #8da0cb; stroke: #000000"/>
     <use xlink:href="#m7e90997f79" x="53.800192" y="104.386598" style="fill: #8da0cb; stroke: #000000"/>
    </g>
   </g>
   <g id="PathCollection_2">
    <defs>
     <path id="mea2f5925a6" d="M 0 3.872983 
C 1.027127 3.872983 2.012324 3.464901 2.738613 2.738613 
C 3.464901 2.012324 3.872983 1.027127 3.872983 0 
C 3.872983 -1.027127 3.464901 -2.012324 2.738613 -2.738613 
C 2.012324 -3.464901 1.027127 -3.872983 0 -3.872983 
C -1.027127 -3.872983 -2.012324 -3.464901 -2.738613 -2.738613 
C -3.464901 -2.012324 -3.872983 -1.027127 -3.872983 0 
C -3.872983 1.027127 -3.464901 2.012324 -2.738613 2.738613 
C -2.012324 3.464901 -1.027127 3.872983 0 3.872983 
z
" style="stroke: #000000"/>
    </defs>
    <g clip-path="url(#p30b3a4ab0c)">
     <use xlink:href="#mea2f5925a6" x="87.725999" y="31.68" style="fill: #fc8d62; stroke: #000000"/>
     <use xlink:href="#mea2f5925a6" x="83.64945" y="34.293519" style="fill: #fc8d62; stroke: #000000"/>
     <use xlink:href="#mea2f5925a6" x="84.5642" y="40.804208" style="fill: #fc8d62; stroke: #000000"/>
    </g>
   </g>
   <g id="PathCollection_3">
    <defs>
     <path id="me2b3dd281a" d="M 0 3.872983 
C 1.027127 3.872983 2.012324 3.464901 2.738613 2.738613 
C 3.464901 2.012324 3.872983 1.027127 3.872983 0 
C 3.872983 -1.027127 3.464901 -2.012324 2.738613 -2.738613 
C 2.012324 -3.464901 1.027127 -3.872983 0 -3.872983 
C -1.027127 -3.872983 -2.012324 -3.464901 -2.738613 -2.738613 
C -3.464901 -2.012324 -3.872983 -1.027127 -3.872983 0 
C -3.872983 1.027127 -3.464901 2.012324 -2.738613 2.738613 
C -2.012324 3.464901 -1.027127 3.872983 0 3.872983 
z
" style="stroke: #000000"/>
    </defs>
    <g clip-path="url(#p30b3a4ab0c)">
     <use xlink:href="#me2b3dd281a" x="121.824983" y="69.462843" style="fill: #bfbfbf; stroke: #000000"/>
     <use xlink:href="#me2b3dd281a" x="121.19892" y="69.462843" style="fill: #bfbfbf; stroke: #000000"/>
     <use xlink:href="#me2b3dd281a" x="121.621069" y="69.462843" style="fill: #bfbfbf; stroke: #000000"/>
    </g>
   </g>
   <g id="text_5">
    <!-- *** -->
    <g transform="translate(61.771685 20.46675) scale(0.12 -0.12)">
     <defs>
      <path id="Helvetica-2a" d="M 1406 4591 
L 1406 3894 
L 2088 4131 
L 2213 3784 
L 1531 3563 
L 1953 2975 
L 1644 2753 
L 1234 3363 
L 822 2753 
L 503 2975 
L 931 3563 
L 244 3784 
L 369 4131 
L 1044 3888 
L 1044 4591 
L 1406 4591 
z
" transform="scale(0.015625)"/>
     </defs>
     <use xlink:href="#Helvetica-2a"/>
     <use xlink:href="#Helvetica-2a" transform="translate(38.916016 0)"/>
     <use xlink:href="#Helvetica-2a" transform="translate(77.832031 0)"/>
    </g>
   </g>
   <g id="text_6">
    <!-- &gt;15 -->
    <g transform="translate(111.467255 58.678161) scale(0.12 -0.12)">
     <defs>
      <path id="Helvetica-3e" d="M 3741 1369 
L 88 -59 
L 88 503 
L 3072 1634 
L 88 2763 
L 88 3325 
L 3741 1894 
L 3741 1369 
z
" transform="scale(0.015625)"/>
      <path id="Helvetica-35" d="M 791 1141 
Q 847 659 1238 475 
Q 1438 381 1700 381 
Q 2200 381 2440 700 
Q 2681 1019 2681 1406 
Q 2681 1875 2395 2131 
Q 2109 2388 1709 2388 
Q 1419 2388 1211 2275 
Q 1003 2163 856 1963 
L 369 1991 
L 709 4400 
L 3034 4400 
L 3034 3856 
L 1131 3856 
L 941 2613 
Q 1097 2731 1238 2791 
Q 1488 2894 1816 2894 
Q 2431 2894 2859 2497 
Q 3288 2100 3288 1491 
Q 3288 856 2895 371 
Q 2503 -113 1644 -113 
Q 1097 -113 676 195 
Q 256 503 206 1141 
L 791 1141 
z
" transform="scale(0.015625)"/>
     </defs>
     <use xlink:href="#Helvetica-3e"/>
     <use xlink:href="#Helvetica-31" transform="translate(58.398438 0)"/>
     <use xlink:href="#Helvetica-35" transform="translate(114.013672 0)"/>
    </g>
   </g>
   <g id="LineCollection_2">
    <path d="M 52.229213 104.601099 
L 52.229213 103.770613 
" clip-path="url(#p30b3a4ab0c)" style="fill: none; stroke: #000000; stroke-width: 1.2"/>
    <path d="M 47.489846 106.971113 
L 47.489846 105.303573 
" clip-path="url(#p30b3a4ab0c)" style="fill: none; stroke: #000000; stroke-width: 1.2"/>
    <path d="M 53.800192 104.585843 
L 53.800192 104.187353 
" clip-path="url(#p30b3a4ab0c)" style="fill: none; stroke: #000000; stroke-width: 1.2"/>
   </g>
   <g id="line2d_11">
    <defs>
     <path id="m4097ef59b8" d="M 2 0 
L -2 -0 
" style="stroke: #000000; stroke-width: 1.2"/>
    </defs>
    <g clip-path="url(#p30b3a4ab0c)">
     <use xlink:href="#m4097ef59b8" x="52.229213" y="104.601099" style="stroke: #000000; stroke-width: 1.2"/>
     <use xlink:href="#m4097ef59b8" x="47.489846" y="106.971113" style="stroke: #000000; stroke-width: 1.2"/>
     <use xlink:href="#m4097ef59b8" x="53.800192" y="104.585843" style="stroke: #000000; stroke-width: 1.2"/>
    </g>
   </g>
   <g id="line2d_12">
    <g clip-path="url(#p30b3a4ab0c)">
     <use xlink:href="#m4097ef59b8" x="52.229213" y="103.770613" style="stroke: #000000; stroke-width: 1.2"/>
     <use xlink:href="#m4097ef59b8" x="47.489846" y="105.303573" style="stroke: #000000; stroke-width: 1.2"/>
     <use xlink:href="#m4097ef59b8" x="53.800192" y="104.187353" style="stroke: #000000; stroke-width: 1.2"/>
    </g>
   </g>
   <g id="LineCollection_3">
    <path d="M 87.725999 33.097975 
L 87.725999 30.262025 
" clip-path="url(#p30b3a4ab0c)" style="fill: none; stroke: #000000; stroke-width: 1.2"/>
    <path d="M 83.64945 35.949826 
L 83.64945 32.637212 
" clip-path="url(#p30b3a4ab0c)" style="fill: none; stroke: #000000; stroke-width: 1.2"/>
    <path d="M 84.5642 43.481316 
L 84.5642 38.1271 
" clip-path="url(#p30b3a4ab0c)" style="fill: none; stroke: #000000; stroke-width: 1.2"/>
   </g>
   <g id="line2d_13">
    <g clip-path="url(#p30b3a4ab0c)">
     <use xlink:href="#m4097ef59b8" x="87.725999" y="33.097975" style="stroke: #000000; stroke-width: 1.2"/>
     <use xlink:href="#m4097ef59b8" x="83.64945" y="35.949826" style="stroke: #000000; stroke-width: 1.2"/>
     <use xlink:href="#m4097ef59b8" x="84.5642" y="43.481316" style="stroke: #000000; stroke-width: 1.2"/>
    </g>
   </g>
   <g id="line2d_14">
    <g clip-path="url(#p30b3a4ab0c)">
     <use xlink:href="#m4097ef59b8" x="87.725999" y="30.262025" style="stroke: #000000; stroke-width: 1.2"/>
     <use xlink:href="#m4097ef59b8" x="83.64945" y="32.637212" style="stroke: #000000; stroke-width: 1.2"/>
     <use xlink:href="#m4097ef59b8" x="84.5642" y="38.1271" style="stroke: #000000; stroke-width: 1.2"/>
    </g>
   </g>
   <g id="LineCollection_4">
    <path clip-path="url(#p30b3a4ab0c)" style="fill: none; stroke: #000000; stroke-width: 1.2"/>
    <path clip-path="url(#p30b3a4ab0c)" style="fill: none; stroke: #000000; stroke-width: 1.2"/>
    <path clip-path="url(#p30b3a4ab0c)" style="fill: none; stroke: #000000; stroke-width: 1.2"/>
   </g>
   <g id="line2d_15">
    <g clip-path="url(#p30b3a4ab0c)"/>
   </g>
   <g id="line2d_16">
    <g clip-path="url(#p30b3a4ab0c)"/>
   </g>
   <g id="line2d_17">
    <path d="M 52.229213 104.185856 
L 47.489846 106.137343 
L 53.800192 104.386598 
" clip-path="url(#p30b3a4ab0c)" style="fill: none"/>
   </g>
   <g id="line2d_18">
    <path d="M 87.725999 31.68 
L 83.64945 34.293519 
L 84.5642 40.804208 
" clip-path="url(#p30b3a4ab0c)" style="fill: none"/>
   </g>
   <g id="line2d_19">
    <path d="M 121.824983 69.462843 
L 121.19892 69.462843 
L 121.621069 69.462843 
" clip-path="url(#p30b3a4ab0c)" style="fill: none"/>
   </g>
  </g>
 </g>
 <defs>
  <clipPath id="p30b3a4ab0c">
   <rect x="36" y="7.92" width="100.8" height="102.96"/>
  </clipPath>
 </defs>
</svg>
