<?xml version="1.0" encoding="utf-8" standalone="no"?>
<!DOCTYPE svg PUBLIC "-//W3C//DTD SVG 1.1//EN"
  "http://www.w3.org/Graphics/SVG/1.1/DTD/svg11.dtd">
<svg xmlns:xlink="http://www.w3.org/1999/xlink" width="146.88pt" height="136.8pt" viewBox="0 0 146.88 136.8" xmlns="http://www.w3.org/2000/svg" version="1.1">
 <metadata>
  <rdf:RDF xmlns:dc="http://purl.org/dc/elements/1.1/" xmlns:cc="http://creativecommons.org/ns#" xmlns:rdf="http://www.w3.org/1999/02/22-rdf-syntax-ns#">
   <cc:Work>
    <dc:type rdf:resource="http://purl.org/dc/dcmitype/StillImage"/>
    <dc:date>2025-10-06T10:26:04.021162</dc:date>
    <dc:format>image/svg+xml</dc:format>
    <dc:creator>
     <cc:Agent>
      <dc:title>Matplotlib v3.7.5, https://matplotlib.org/</dc:title>
     </cc:Agent>
    </dc:creator>
   </cc:Work>
  </rdf:RDF>
 </metadata>
 <defs>
  <style type="text/css">*{stroke-linejoin: round; stroke-linecap: butt}</style>
 </defs>
 <g id="figure_1">
  <g id="patch_1">
   <path d="M 0 136.8 
L 146.88 136.8 
L 146.88 0 
L 0 0 
z
" style="fill: #ffffff"/>
  </g>
  <g id="axes_1">
   <g id="patch_2">
    <path d="M 36.72 116.28 
L 139.536 116.28 
L 139.536 17.784 
L 36.72 17.784 
z
" style="fill: #ffffff"/>
   </g>
   <g id="PolyCollection_1">
    <defs>
     <path id="m5a08419377" d="M 36.72 -36.287214 
L 36.72 -20.52 
L 42.5952 -20.52 
L 45.5328 -20.52 
L 57.2832 -20.52 
L 66.096 -20.52 
L 80.784 -20.52 
L 95.472 -20.52 
L 110.16 -20.52 
L 124.848 -20.52 
L 139.536 -20.52 
L 139.536 -20.521317 
L 139.536 -20.521317 
L 124.848 -20.530891 
L 110.16 -20.528766 
L 95.472 -20.521315 
L 80.784 -20.52825 
L 66.096 -20.551594 
L 57.2832 -21.045588 
L 45.5328 -29.234543 
L 42.5952 -41.08166 
L 36.72 -36.287214 
z
" style="stroke: #66c2a5"/>
    </defs>
    <g clip-path="url(#p590d0f6f55)">
     <use xlink:href="#m5a08419377" x="0" y="136.8" style="fill: #66c2a5; stroke: #66c2a5"/>
    </g>
   </g>
   <g id="PolyCollection_2">
    <defs>
     <path id="m63f48ddd2a" d="M 36.72 -37.185533 
L 36.72 -36.287214 
L 42.5952 -41.08166 
L 45.5328 -29.234543 
L 57.2832 -21.045588 
L 66.096 -20.551594 
L 80.784 -20.52825 
L 95.472 -20.521315 
L 110.16 -20.528766 
L 124.848 -20.530891 
L 139.536 -20.521317 
L 139.536 -26.247971 
L 139.536 -26.247971 
L 124.848 -27.962878 
L 110.16 -29.981086 
L 95.472 -28.237728 
L 80.784 -33.30657 
L 66.096 -48.31357 
L 57.2832 -25.91292 
L 45.5328 -30.543392 
L 42.5952 -42.0259 
L 36.72 -37.185533 
z
" style="stroke: #e78ac3"/>
    </defs>
    <g clip-path="url(#p590d0f6f55)">
     <use xlink:href="#m63f48ddd2a" x="0" y="136.8" style="fill: #e78ac3; stroke: #e78ac3"/>
    </g>
   </g>
   <g id="PolyCollection_3">
    <defs>
     <path id="mb925e72707" d="M 36.72 -37.607694 
L 36.72 -37.185533 
L 42.5952 -42.0259 
L 45.5328 -30.543392 
L 57.2832 -25.91292 
L 66.096 -48.31357 
L 80.784 -33.30657 
L 95.472 -28.237728 
L 110.16 -29.981086 
L 124.848 -27.962878 
L 139.536 -26.247971 
L 139.536 -30.079803 
L 139.536 -30.079803 
L 124.848 -30.196073 
L 110.16 -33.281764 
L 95.472 -31.897728 
L 80.784 -37.026698 
L 66.096 -92.784333 
L 57.2832 -80.537744 
L 45.5328 -59.191795 
L 42.5952 -45.150266 
L 36.72 -37.607694 
z
" style="stroke: #a6d854"/>
    </defs>
    <g clip-path="url(#p590d0f6f55)">
     <use xlink:href="#mb925e72707" x="0" y="136.8" style="fill: #a6d854; stroke: #a6d854"/>
    </g>
   </g>
   <g id="PolyCollection_4">
    <defs>
     <path id="m08c326cee6" d="M 36.72 -38.378383 
L 36.72 -37.607694 
L 42.5952 -45.150266 
L 45.5328 -59.191795 
L 57.2832 -80.537744 
L 66.096 -92.784333 
L 80.784 -37.026698 
L 95.472 -31.897728 
L 110.16 -33.281764 
L 124.848 -30.196073 
L 139.536 -30.079803 
L 139.536 -109.529954 
L 139.536 -109.529954 
L 124.848 -114.047434 
L 110.16 -104.192073 
L 95.472 -73.32453 
L 80.784 -52.004901 
L 66.096 -94.75813 
L 57.2832 -80.769084 
L 45.5328 -60.054221 
L 42.5952 -45.941267 
L 36.72 -38.378383 
z
" style="stroke: #ffd92f"/>
    </defs>
    <g clip-path="url(#p590d0f6f55)">
     <use xlink:href="#m08c326cee6" x="0" y="136.8" style="fill: #ffd92f; stroke: #ffd92f"/>
    </g>
   </g>
   <g id="PolyCollection_5">
    <defs>
     <path id="m5b527243f4" d="M 36.72 -39.36997 
L 36.72 -38.378383 
L 42.5952 -45.941267 
L 45.5328 -60.054221 
L 57.2832 -80.769084 
L 66.096 -94.75813 
L 80.784 -52.004901 
L 95.472 -73.32453 
L 110.16 -104.192073 
L 124.848 -114.047434 
L 139.536 -109.529954 
L 139.536 -118.61705 
L 139.536 -118.61705 
L 124.848 -118.521467 
L 110.16 -115.975549 
L 95.472 -108.471479 
L 80.784 -97.233051 
L 66.096 -103.813624 
L 57.2832 -82.653844 
L 45.5328 -61.135226 
L 42.5952 -47.462867 
L 36.72 -39.36997 
z
" style="stroke: #e5c494"/>
    </defs>
    <g clip-path="url(#p590d0f6f55)">
     <use xlink:href="#m5b527243f4" x="0" y="136.8" style="fill: #e5c494; stroke: #e5c494"/>
    </g>
   </g>
   <g id="PolyCollection_6">
    <defs>
     <path id="m6fdeecdbb9" d="M 36.72 -119.016 
L 36.72 -39.36997 
L 42.5952 -47.462867 
L 45.5328 -61.135226 
L 57.2832 -82.653844 
L 66.096 -103.813624 
L 80.784 -97.233051 
L 95.472 -108.471479 
L 110.16 -115.975549 
L 124.848 -118.521467 
L 139.536 -118.61705 
L 139.536 -119.016 
L 139.536 -119.016 
L 124.848 -119.016 
L 110.16 -119.016 
L 95.472 -119.016 
L 80.784 -119.016 
L 66.096 -119.016 
L 57.2832 -119.016 
L 45.5328 -119.016 
L 42.5952 -119.016 
L 36.72 -119.016 
z
" style="stroke: #b3b3b3"/>
    </defs>
    <g clip-path="url(#p590d0f6f55)">
     <use xlink:href="#m6fdeecdbb9" x="0" y="136.8" style="fill: #b3b3b3; stroke: #b3b3b3"/>
    </g>
   </g>
   <g id="matplotlib.axis_1">
    <g id="xtick_1">
     <g id="line2d_1">
      <defs>
       <path id="m9f401a61a8" d="M 0 0 
L 0 -3.5 
" style="stroke: #000000; stroke-width: 0.8"/>
      </defs>
      <g>
       <use xlink:href="#m9f401a61a8" x="36.72" y="116.28" style="stroke: #000000; stroke-width: 0.8"/>
      </g>
     </g>
     <g id="text_1">
      <!-- 0 -->
      <g transform="translate(33.383437 128.388125) scale(0.12 -0.12)">
       <defs>
        <path id="Helvetica-30" d="M 1731 4475 
Q 2600 4475 2988 3759 
Q 3288 3206 3288 2244 
Q 3288 1331 3016 734 
Q 2622 -122 1728 -122 
Q 922 -122 528 578 
Q 200 1163 200 2147 
Q 200 2909 397 3456 
Q 766 4475 1731 4475 
z
M 1725 391 
Q 2163 391 2422 778 
Q 2681 1166 2681 2222 
Q 2681 2984 2493 3476 
Q 2306 3969 1766 3969 
Q 1269 3969 1039 3501 
Q 809 3034 809 2125 
Q 809 1441 956 1025 
Q 1181 391 1725 391 
z
" transform="scale(0.015625)"/>
       </defs>
       <use xlink:href="#Helvetica-30"/>
      </g>
     </g>
    </g>
    <g id="xtick_2">
     <g id="line2d_2">
      <g>
       <use xlink:href="#m9f401a61a8" x="66.096" y="116.28" style="stroke: #000000; stroke-width: 0.8"/>
      </g>
     </g>
     <g id="text_2">
      <!-- 10 -->
      <g transform="translate(59.422875 128.388125) scale(0.12 -0.12)">
       <defs>
        <path id="Helvetica-31" d="M 613 3169 
L 613 3600 
Q 1222 3659 1462 3798 
Q 1703 3938 1822 4456 
L 2266 4456 
L 2266 0 
L 1666 0 
L 1666 3169 
L 613 3169 
z
" transform="scale(0.015625)"/>
       </defs>
       <use xlink:href="#Helvetica-31"/>
       <use xlink:href="#Helvetica-30" x="55.615234"/>
      </g>
     </g>
    </g>
    <g id="xtick_3">
     <g id="line2d_3">
      <g>
       <use xlink:href="#m9f401a61a8" x="95.472" y="116.28" style="stroke: #000000; stroke-width: 0.8"/>
      </g>
     </g>
     <g id="text_3">
      <!-- 20 -->
      <g transform="translate(88.798875 128.388125) scale(0.12 -0.12)">
       <defs>
        <path id="Helvetica-32" d="M 200 0 
Q 231 578 439 1006 
Q 647 1434 1250 1784 
L 1850 2131 
Q 2253 2366 2416 2531 
Q 2672 2791 2672 3125 
Q 2672 3516 2437 3745 
Q 2203 3975 1813 3975 
Q 1234 3975 1013 3538 
Q 894 3303 881 2888 
L 309 2888 
Q 319 3472 525 3841 
Q 891 4491 1816 4491 
Q 2584 4491 2939 4075 
Q 3294 3659 3294 3150 
Q 3294 2613 2916 2231 
Q 2697 2009 2131 1694 
L 1703 1456 
Q 1397 1288 1222 1134 
Q 909 863 828 531 
L 3272 531 
L 3272 0 
L 200 0 
z
" transform="scale(0.015625)"/>
       </defs>
       <use xlink:href="#Helvetica-32"/>
       <use xlink:href="#Helvetica-30" x="55.615234"/>
      </g>
     </g>
    </g>
    <g id="xtick_4">
     <g id="line2d_4">
      <g>
       <use xlink:href="#m9f401a61a8" x="124.848" y="116.28" style="stroke: #000000; stroke-width: 0.8"/>
      </g>
     </g>
     <g id="text_4">
      <!-- 30 -->
      <g transform="translate(118.174875 128.388125) scale(0.12 -0.12)">
       <defs>
        <path id="Helvetica-33" d="M 1663 -122 
Q 869 -122 511 314 
Q 153 750 153 1375 
L 741 1375 
Q 778 941 903 744 
Q 1122 391 1694 391 
Q 2138 391 2406 628 
Q 2675 866 2675 1241 
Q 2675 1703 2392 1887 
Q 2109 2072 1606 2072 
Q 1550 2072 1492 2070 
Q 1434 2069 1375 2066 
L 1375 2563 
Q 1463 2553 1522 2550 
Q 1581 2547 1650 2547 
Q 1966 2547 2169 2647 
Q 2525 2822 2525 3272 
Q 2525 3606 2287 3787 
Q 2050 3969 1734 3969 
Q 1172 3969 956 3594 
Q 838 3388 822 3006 
L 266 3006 
Q 266 3506 466 3856 
Q 809 4481 1675 4481 
Q 2359 4481 2734 4176 
Q 3109 3872 3109 3294 
Q 3109 2881 2888 2625 
Q 2750 2466 2531 2375 
Q 2884 2278 3082 2001 
Q 3281 1725 3281 1325 
Q 3281 684 2859 281 
Q 2438 -122 1663 -122 
z
" transform="scale(0.015625)"/>
       </defs>
       <use xlink:href="#Helvetica-33"/>
       <use xlink:href="#Helvetica-30" x="55.615234"/>
      </g>
     </g>
    </g>
    <g id="text_5">
     <!-- time (days) -->
     <g transform="translate(58.458 143.638125) scale(0.12 -0.12)">
      <defs>
       <path id="Helvetica-74" d="M 525 4281 
L 1094 4281 
L 1094 3347 
L 1628 3347 
L 1628 2888 
L 1094 2888 
L 1094 703 
Q 1094 528 1213 469 
Q 1278 434 1431 434 
Q 1472 434 1519 436 
Q 1566 438 1628 444 
L 1628 0 
Q 1531 -28 1426 -40 
Q 1322 -53 1200 -53 
Q 806 -53 665 148 
Q 525 350 525 672 
L 525 2888 
L 72 2888 
L 72 3347 
L 525 3347 
L 525 4281 
z
" transform="scale(0.015625)"/>
       <path id="Helvetica-69" d="M 413 3331 
L 984 3331 
L 984 0 
L 413 0 
L 413 3331 
z
M 413 4591 
L 984 4591 
L 984 3953 
L 413 3953 
L 413 4591 
z
" transform="scale(0.015625)"/>
       <path id="Helvetica-6d" d="M 413 3347 
L 969 3347 
L 969 2872 
Q 1169 3119 1331 3231 
Q 1609 3422 1963 3422 
Q 2363 3422 2606 3225 
Q 2744 3113 2856 2894 
Q 3044 3163 3297 3292 
Q 3550 3422 3866 3422 
Q 4541 3422 4784 2934 
Q 4916 2672 4916 2228 
L 4916 0 
L 4331 0 
L 4331 2325 
Q 4331 2659 4164 2784 
Q 3997 2909 3756 2909 
Q 3425 2909 3186 2687 
Q 2947 2466 2947 1947 
L 2947 0 
L 2375 0 
L 2375 2184 
Q 2375 2525 2294 2681 
Q 2166 2916 1816 2916 
Q 1497 2916 1236 2669 
Q 975 2422 975 1775 
L 975 0 
L 413 0 
L 413 3347 
z
" transform="scale(0.015625)"/>
       <path id="Helvetica-65" d="M 1806 3422 
Q 2163 3422 2497 3255 
Q 2831 3088 3006 2822 
Q 3175 2569 3231 2231 
Q 3281 2000 3281 1494 
L 828 1494 
Q 844 984 1069 676 
Q 1294 369 1766 369 
Q 2206 369 2469 659 
Q 2619 828 2681 1050 
L 3234 1050 
Q 3213 866 3089 639 
Q 2966 413 2813 269 
Q 2556 19 2178 -69 
Q 1975 -119 1719 -119 
Q 1094 -119 659 336 
Q 225 791 225 1609 
Q 225 2416 662 2919 
Q 1100 3422 1806 3422 
z
M 2703 1941 
Q 2669 2306 2544 2525 
Q 2313 2931 1772 2931 
Q 1384 2931 1121 2651 
Q 859 2372 844 1941 
L 2703 1941 
z
M 1753 3428 
L 1753 3428 
z
" transform="scale(0.015625)"/>
       <path id="Helvetica-20" transform="scale(0.015625)"/>
       <path id="Helvetica-28" d="M 1894 4666 
Q 1403 3713 1256 3263 
Q 1034 2578 1034 1681 
Q 1034 775 1288 25 
Q 1444 -438 1903 -1306 
L 1525 -1306 
Q 1069 -594 959 -397 
Q 850 -200 722 138 
Q 547 600 478 1125 
Q 444 1397 444 1644 
Q 444 2569 734 3291 
Q 919 3750 1503 4666 
L 1894 4666 
z
" transform="scale(0.015625)"/>
       <path id="Helvetica-64" d="M 769 1634 
Q 769 1097 997 734 
Q 1225 372 1728 372 
Q 2119 372 2370 708 
Q 2622 1044 2622 1672 
Q 2622 2306 2362 2611 
Q 2103 2916 1722 2916 
Q 1297 2916 1033 2591 
Q 769 2266 769 1634 
z
M 1616 3406 
Q 2000 3406 2259 3244 
Q 2409 3150 2600 2916 
L 2600 4606 
L 3141 4606 
L 3141 0 
L 2634 0 
L 2634 466 
Q 2438 156 2169 18 
Q 1900 -119 1553 -119 
Q 994 -119 584 351 
Q 175 822 175 1603 
Q 175 2334 548 2870 
Q 922 3406 1616 3406 
z
" transform="scale(0.015625)"/>
       <path id="Helvetica-61" d="M 844 891 
Q 844 647 1022 506 
Q 1200 366 1444 366 
Q 1741 366 2019 503 
Q 2488 731 2488 1250 
L 2488 1703 
Q 2384 1638 2221 1594 
Q 2059 1550 1903 1531 
L 1563 1488 
Q 1256 1447 1103 1359 
Q 844 1213 844 891 
z
M 2206 2028 
Q 2400 2053 2466 2191 
Q 2503 2266 2503 2406 
Q 2503 2694 2298 2823 
Q 2094 2953 1713 2953 
Q 1272 2953 1088 2716 
Q 984 2584 953 2325 
L 428 2325 
Q 444 2944 830 3186 
Q 1216 3428 1725 3428 
Q 2316 3428 2684 3203 
Q 3050 2978 3050 2503 
L 3050 575 
Q 3050 488 3086 434 
Q 3122 381 3238 381 
Q 3275 381 3322 386 
Q 3369 391 3422 400 
L 3422 -16 
Q 3291 -53 3222 -62 
Q 3153 -72 3034 -72 
Q 2744 -72 2613 134 
Q 2544 244 2516 444 
Q 2344 219 2022 53 
Q 1700 -113 1313 -113 
Q 847 -113 551 170 
Q 256 453 256 878 
Q 256 1344 547 1600 
Q 838 1856 1309 1916 
L 2206 2028 
z
M 1741 3428 
L 1741 3428 
z
" transform="scale(0.015625)"/>
       <path id="Helvetica-79" d="M 2503 3347 
L 3125 3347 
Q 3006 3025 2597 1878 
Q 2291 1016 2084 472 
Q 1597 -809 1397 -1090 
Q 1197 -1372 709 -1372 
Q 591 -1372 527 -1362 
Q 463 -1353 369 -1328 
L 369 -816 
Q 516 -856 581 -865 
Q 647 -875 697 -875 
Q 853 -875 926 -823 
Q 1000 -772 1050 -697 
Q 1066 -672 1162 -440 
Q 1259 -209 1303 -97 
L 66 3347 
L 703 3347 
L 1600 622 
L 2503 3347 
z
M 1597 3428 
L 1597 3428 
z
" transform="scale(0.015625)"/>
       <path id="Helvetica-73" d="M 747 1050 
Q 772 769 888 619 
Q 1100 347 1625 347 
Q 1938 347 2175 483 
Q 2413 619 2413 903 
Q 2413 1119 2222 1231 
Q 2100 1300 1741 1391 
L 1294 1503 
Q 866 1609 663 1741 
Q 300 1969 300 2372 
Q 300 2847 642 3140 
Q 984 3434 1563 3434 
Q 2319 3434 2653 2991 
Q 2863 2709 2856 2384 
L 2325 2384 
Q 2309 2575 2191 2731 
Q 1997 2953 1519 2953 
Q 1200 2953 1036 2831 
Q 872 2709 872 2509 
Q 872 2291 1088 2159 
Q 1213 2081 1456 2022 
L 1828 1931 
Q 2434 1784 2641 1647 
Q 2969 1431 2969 969 
Q 2969 522 2630 197 
Q 2291 -128 1597 -128 
Q 850 -128 539 211 
Q 228 550 206 1050 
L 747 1050 
z
M 1578 3428 
L 1578 3428 
z
" transform="scale(0.015625)"/>
       <path id="Helvetica-29" d="M 222 -1306 
Q 719 -338 863 106 
Q 1081 778 1081 1681 
Q 1081 2584 828 3334 
Q 672 3797 213 4666 
L 591 4666 
Q 1072 3897 1173 3717 
Q 1275 3538 1394 3222 
Q 1544 2831 1608 2450 
Q 1672 2069 1672 1716 
Q 1672 791 1378 66 
Q 1194 -400 613 -1306 
L 222 -1306 
z
" transform="scale(0.015625)"/>
      </defs>
      <use xlink:href="#Helvetica-74"/>
      <use xlink:href="#Helvetica-69" x="27.783203"/>
      <use xlink:href="#Helvetica-6d" x="50"/>
      <use xlink:href="#Helvetica-65" x="133.300781"/>
      <use xlink:href="#Helvetica-20" x="188.916016"/>
      <use xlink:href="#Helvetica-28" x="216.699219"/>
      <use xlink:href="#Helvetica-64" x="250"/>
      <use xlink:href="#Helvetica-61" x="305.615234"/>
      <use xlink:href="#Helvetica-79" x="361.230469"/>
      <use xlink:href="#Helvetica-73" x="411.230469"/>
      <use xlink:href="#Helvetica-29" x="461.230469"/>
     </g>
    </g>
   </g>
   <g id="matplotlib.axis_2">
    <g id="text_6">
     <!-- Comm87 -->
     <g transform="translate(30.21875 91.370437) rotate(-90) scale(0.12 -0.12)">
      <defs>
       <path id="Helvetica-43" d="M 2422 4716 
Q 3294 4716 3775 4256 
Q 4256 3797 4309 3213 
L 3703 3213 
Q 3600 3656 3292 3915 
Q 2984 4175 2428 4175 
Q 1750 4175 1333 3698 
Q 916 3222 916 2238 
Q 916 1431 1292 929 
Q 1669 428 2416 428 
Q 3103 428 3463 956 
Q 3653 1234 3747 1688 
L 4353 1688 
Q 4272 963 3816 472 
Q 3269 -119 2341 -119 
Q 1541 -119 997 366 
Q 281 1006 281 2344 
Q 281 3359 819 4009 
Q 1400 4716 2422 4716 
z
M 2297 4716 
L 2297 4716 
z
" transform="scale(0.015625)"/>
       <path id="Helvetica-6f" d="M 1741 363 
Q 2300 363 2508 786 
Q 2716 1209 2716 1728 
Q 2716 2197 2566 2491 
Q 2328 2953 1747 2953 
Q 1231 2953 997 2559 
Q 763 2166 763 1609 
Q 763 1075 997 719 
Q 1231 363 1741 363 
z
M 1763 3444 
Q 2409 3444 2856 3012 
Q 3303 2581 3303 1744 
Q 3303 934 2909 406 
Q 2516 -122 1688 -122 
Q 997 -122 590 345 
Q 184 813 184 1600 
Q 184 2444 612 2944 
Q 1041 3444 1763 3444 
z
M 1744 3428 
L 1744 3428 
z
" transform="scale(0.015625)"/>
       <path id="Helvetica-38" d="M 1741 2600 
Q 2113 2600 2322 2808 
Q 2531 3016 2531 3303 
Q 2531 3553 2331 3762 
Q 2131 3972 1722 3972 
Q 1316 3972 1134 3762 
Q 953 3553 953 3272 
Q 953 2956 1187 2778 
Q 1422 2600 1741 2600 
z
M 1775 384 
Q 2166 384 2423 595 
Q 2681 806 2681 1225 
Q 2681 1659 2415 1884 
Q 2150 2109 1734 2109 
Q 1331 2109 1076 1879 
Q 822 1650 822 1244 
Q 822 894 1055 639 
Q 1288 384 1775 384 
z
M 975 2384 
Q 741 2484 609 2619 
Q 363 2869 363 3269 
Q 363 3769 725 4128 
Q 1088 4488 1753 4488 
Q 2397 4488 2762 4148 
Q 3128 3809 3128 3356 
Q 3128 2938 2916 2678 
Q 2797 2531 2547 2391 
Q 2825 2263 2984 2097 
Q 3281 1784 3281 1284 
Q 3281 694 2884 283 
Q 2488 -128 1763 -128 
Q 1109 -128 657 226 
Q 206 581 206 1256 
Q 206 1653 400 1942 
Q 594 2231 975 2384 
z
" transform="scale(0.015625)"/>
       <path id="Helvetica-37" d="M 3347 4400 
L 3347 3909 
Q 3131 3700 2773 3181 
Q 2416 2663 2141 2063 
Q 1869 1478 1728 997 
Q 1638 688 1494 0 
L 872 0 
Q 1084 1281 1809 2550 
Q 2238 3294 2709 3834 
L 234 3834 
L 234 4400 
L 3347 4400 
z
" transform="scale(0.015625)"/>
      </defs>
      <use xlink:href="#Helvetica-43"/>
      <use xlink:href="#Helvetica-6f" x="72.216797"/>
      <use xlink:href="#Helvetica-6d" x="127.832031"/>
      <use xlink:href="#Helvetica-6d" x="211.132812"/>
      <use xlink:href="#Helvetica-38" x="294.433594"/>
      <use xlink:href="#Helvetica-37" x="350.048828"/>
     </g>
    </g>
   </g>
   <g id="LineCollection_1">
    <path d="M 36.72 100.512786 
L 36.72 100.512786 
" clip-path="url(#p590d0f6f55)" style="fill: none; stroke: #000000; stroke-width: 0.5"/>
    <path d="M 42.5952 96.637907 
L 42.5952 94.798773 
" clip-path="url(#p590d0f6f55)" style="fill: none; stroke: #000000; stroke-width: 0.5"/>
    <path d="M 45.5328 109.311095 
L 45.5328 105.819819 
" clip-path="url(#p590d0f6f55)" style="fill: none; stroke: #000000; stroke-width: 0.5"/>
    <path d="M 57.2832 116.097041 
L 57.2832 115.411782 
" clip-path="url(#p590d0f6f55)" style="fill: none; stroke: #000000; stroke-width: 0.5"/>
    <path d="M 66.096 116.264643 
L 66.096 116.232169 
" clip-path="url(#p590d0f6f55)" style="fill: none; stroke: #000000; stroke-width: 0.5"/>
    <path d="M 80.784 116.28 
L 80.784 116.2635 
" clip-path="url(#p590d0f6f55)" style="fill: none; stroke: #000000; stroke-width: 0.5"/>
    <path d="M 95.472 116.28 
L 95.472 116.27737 
" clip-path="url(#p590d0f6f55)" style="fill: none; stroke: #000000; stroke-width: 0.5"/>
    <path d="M 110.16 116.275904 
L 110.16 116.266565 
" clip-path="url(#p590d0f6f55)" style="fill: none; stroke: #000000; stroke-width: 0.5"/>
    <path d="M 124.848 116.272706 
L 124.848 116.265512 
" clip-path="url(#p590d0f6f55)" style="fill: none; stroke: #000000; stroke-width: 0.5"/>
    <path d="M 139.536 116.28 
L 139.536 116.277366 
" clip-path="url(#p590d0f6f55)" style="fill: none; stroke: #000000; stroke-width: 0.5"/>
   </g>
   <g id="line2d_5">
    <defs>
     <path id="m4a129c1c24" d="M 2 0 
L -2 -0 
" style="stroke: #000000; stroke-width: 0.5"/>
    </defs>
    <g clip-path="url(#p590d0f6f55)">
     <use xlink:href="#m4a129c1c24" x="36.72" y="100.512786" style="stroke: #000000; stroke-width: 0.5"/>
     <use xlink:href="#m4a129c1c24" x="42.5952" y="96.637907" style="stroke: #000000; stroke-width: 0.5"/>
     <use xlink:href="#m4a129c1c24" x="45.5328" y="109.311095" style="stroke: #000000; stroke-width: 0.5"/>
     <use xlink:href="#m4a129c1c24" x="57.2832" y="116.097041" style="stroke: #000000; stroke-width: 0.5"/>
     <use xlink:href="#m4a129c1c24" x="66.096" y="116.264643" style="stroke: #000000; stroke-width: 0.5"/>
     <use xlink:href="#m4a129c1c24" x="80.784" y="116.28" style="stroke: #000000; stroke-width: 0.5"/>
     <use xlink:href="#m4a129c1c24" x="95.472" y="116.28" style="stroke: #000000; stroke-width: 0.5"/>
     <use xlink:href="#m4a129c1c24" x="110.16" y="116.275904" style="stroke: #000000; stroke-width: 0.5"/>
     <use xlink:href="#m4a129c1c24" x="124.848" y="116.272706" style="stroke: #000000; stroke-width: 0.5"/>
     <use xlink:href="#m4a129c1c24" x="139.536" y="116.28" style="stroke: #000000; stroke-width: 0.5"/>
    </g>
   </g>
   <g id="line2d_6">
    <g clip-path="url(#p590d0f6f55)">
     <use xlink:href="#m4a129c1c24" x="36.72" y="100.512786" style="stroke: #000000; stroke-width: 0.5"/>
     <use xlink:href="#m4a129c1c24" x="42.5952" y="94.798773" style="stroke: #000000; stroke-width: 0.5"/>
     <use xlink:href="#m4a129c1c24" x="45.5328" y="105.819819" style="stroke: #000000; stroke-width: 0.5"/>
     <use xlink:href="#m4a129c1c24" x="57.2832" y="115.411782" style="stroke: #000000; stroke-width: 0.5"/>
     <use xlink:href="#m4a129c1c24" x="66.096" y="116.232169" style="stroke: #000000; stroke-width: 0.5"/>
     <use xlink:href="#m4a129c1c24" x="80.784" y="116.2635" style="stroke: #000000; stroke-width: 0.5"/>
     <use xlink:href="#m4a129c1c24" x="95.472" y="116.27737" style="stroke: #000000; stroke-width: 0.5"/>
     <use xlink:href="#m4a129c1c24" x="110.16" y="116.266565" style="stroke: #000000; stroke-width: 0.5"/>
     <use xlink:href="#m4a129c1c24" x="124.848" y="116.265512" style="stroke: #000000; stroke-width: 0.5"/>
     <use xlink:href="#m4a129c1c24" x="139.536" y="116.277366" style="stroke: #000000; stroke-width: 0.5"/>
    </g>
   </g>
   <g id="LineCollection_2">
    <path d="M 36.72 99.614467 
L 36.72 99.614467 
" clip-path="url(#p590d0f6f55)" style="fill: none; stroke: #000000; stroke-width: 0.5"/>
    <path d="M 42.5952 94.845206 
L 42.5952 94.702995 
" clip-path="url(#p590d0f6f55)" style="fill: none; stroke: #000000; stroke-width: 0.5"/>
    <path d="M 45.5328 106.294596 
L 45.5328 106.218621 
" clip-path="url(#p590d0f6f55)" style="fill: none; stroke: #000000; stroke-width: 0.5"/>
    <path d="M 57.2832 111.677402 
L 57.2832 110.096759 
" clip-path="url(#p590d0f6f55)" style="fill: none; stroke: #000000; stroke-width: 0.5"/>
    <path d="M 66.096 88.870965 
L 66.096 88.101894 
" clip-path="url(#p590d0f6f55)" style="fill: none; stroke: #000000; stroke-width: 0.5"/>
    <path d="M 80.784 115.825366 
L 80.784 91.161494 
" clip-path="url(#p590d0f6f55)" style="fill: none; stroke: #000000; stroke-width: 0.5"/>
    <path d="M 95.472 116.255826 
L 95.472 100.868718 
" clip-path="url(#p590d0f6f55)" style="fill: none; stroke: #000000; stroke-width: 0.5"/>
    <path d="M 110.16 115.534785 
L 110.16 98.103044 
" clip-path="url(#p590d0f6f55)" style="fill: none; stroke: #000000; stroke-width: 0.5"/>
    <path d="M 124.848 113.095205 
L 124.848 104.579039 
" clip-path="url(#p590d0f6f55)" style="fill: none; stroke: #000000; stroke-width: 0.5"/>
    <path d="M 139.536 115.306412 
L 139.536 105.797646 
" clip-path="url(#p590d0f6f55)" style="fill: none; stroke: #000000; stroke-width: 0.5"/>
   </g>
   <g id="line2d_7">
    <g clip-path="url(#p590d0f6f55)">
     <use xlink:href="#m4a129c1c24" x="36.72" y="99.614467" style="stroke: #000000; stroke-width: 0.5"/>
     <use xlink:href="#m4a129c1c24" x="42.5952" y="94.845206" style="stroke: #000000; stroke-width: 0.5"/>
     <use xlink:href="#m4a129c1c24" x="45.5328" y="106.294596" style="stroke: #000000; stroke-width: 0.5"/>
     <use xlink:href="#m4a129c1c24" x="57.2832" y="111.677402" style="stroke: #000000; stroke-width: 0.5"/>
     <use xlink:href="#m4a129c1c24" x="66.096" y="88.870965" style="stroke: #000000; stroke-width: 0.5"/>
     <use xlink:href="#m4a129c1c24" x="80.784" y="115.825366" style="stroke: #000000; stroke-width: 0.5"/>
     <use xlink:href="#m4a129c1c24" x="95.472" y="116.255826" style="stroke: #000000; stroke-width: 0.5"/>
     <use xlink:href="#m4a129c1c24" x="110.16" y="115.534785" style="stroke: #000000; stroke-width: 0.5"/>
     <use xlink:href="#m4a129c1c24" x="124.848" y="113.095205" style="stroke: #000000; stroke-width: 0.5"/>
     <use xlink:href="#m4a129c1c24" x="139.536" y="115.306412" style="stroke: #000000; stroke-width: 0.5"/>
    </g>
   </g>
   <g id="line2d_8">
    <g clip-path="url(#p590d0f6f55)">
     <use xlink:href="#m4a129c1c24" x="36.72" y="99.614467" style="stroke: #000000; stroke-width: 0.5"/>
     <use xlink:href="#m4a129c1c24" x="42.5952" y="94.702995" style="stroke: #000000; stroke-width: 0.5"/>
     <use xlink:href="#m4a129c1c24" x="45.5328" y="106.218621" style="stroke: #000000; stroke-width: 0.5"/>
     <use xlink:href="#m4a129c1c24" x="57.2832" y="110.096759" style="stroke: #000000; stroke-width: 0.5"/>
     <use xlink:href="#m4a129c1c24" x="66.096" y="88.101894" style="stroke: #000000; stroke-width: 0.5"/>
     <use xlink:href="#m4a129c1c24" x="80.784" y="91.161494" style="stroke: #000000; stroke-width: 0.5"/>
     <use xlink:href="#m4a129c1c24" x="95.472" y="100.868718" style="stroke: #000000; stroke-width: 0.5"/>
     <use xlink:href="#m4a129c1c24" x="110.16" y="98.103044" style="stroke: #000000; stroke-width: 0.5"/>
     <use xlink:href="#m4a129c1c24" x="124.848" y="104.579039" style="stroke: #000000; stroke-width: 0.5"/>
     <use xlink:href="#m4a129c1c24" x="139.536" y="105.797646" style="stroke: #000000; stroke-width: 0.5"/>
    </g>
   </g>
   <g id="LineCollection_3">
    <path d="M 36.72 99.192306 
L 36.72 99.192306 
" clip-path="url(#p590d0f6f55)" style="fill: none; stroke: #000000; stroke-width: 0.5"/>
    <path d="M 42.5952 91.743059 
L 42.5952 91.55641 
" clip-path="url(#p590d0f6f55)" style="fill: none; stroke: #000000; stroke-width: 0.5"/>
    <path d="M 45.5328 79.112254 
L 45.5328 76.104157 
" clip-path="url(#p590d0f6f55)" style="fill: none; stroke: #000000; stroke-width: 0.5"/>
    <path d="M 57.2832 63.125937 
L 57.2832 49.398574 
" clip-path="url(#p590d0f6f55)" style="fill: none; stroke: #000000; stroke-width: 0.5"/>
    <path d="M 66.096 46.440818 
L 66.096 41.590516 
" clip-path="url(#p590d0f6f55)" style="fill: none; stroke: #000000; stroke-width: 0.5"/>
    <path d="M 80.784 101.821638 
L 80.784 97.724967 
" clip-path="url(#p590d0f6f55)" style="fill: none; stroke: #000000; stroke-width: 0.5"/>
    <path d="M 95.472 108.365728 
L 95.472 101.438817 
" clip-path="url(#p590d0f6f55)" style="fill: none; stroke: #000000; stroke-width: 0.5"/>
    <path d="M 110.16 105.045662 
L 110.16 101.990809 
" clip-path="url(#p590d0f6f55)" style="fill: none; stroke: #000000; stroke-width: 0.5"/>
    <path d="M 124.848 108.28274 
L 124.848 104.925114 
" clip-path="url(#p590d0f6f55)" style="fill: none; stroke: #000000; stroke-width: 0.5"/>
    <path d="M 139.536 110.43791 
L 139.536 103.002484 
" clip-path="url(#p590d0f6f55)" style="fill: none; stroke: #000000; stroke-width: 0.5"/>
   </g>
   <g id="line2d_9">
    <g clip-path="url(#p590d0f6f55)">
     <use xlink:href="#m4a129c1c24" x="36.72" y="99.192306" style="stroke: #000000; stroke-width: 0.5"/>
     <use xlink:href="#m4a129c1c24" x="42.5952" y="91.743059" style="stroke: #000000; stroke-width: 0.5"/>
     <use xlink:href="#m4a129c1c24" x="45.5328" y="79.112254" style="stroke: #000000; stroke-width: 0.5"/>
     <use xlink:href="#m4a129c1c24" x="57.2832" y="63.125937" style="stroke: #000000; stroke-width: 0.5"/>
     <use xlink:href="#m4a129c1c24" x="66.096" y="46.440818" style="stroke: #000000; stroke-width: 0.5"/>
     <use xlink:href="#m4a129c1c24" x="80.784" y="101.821638" style="stroke: #000000; stroke-width: 0.5"/>
     <use xlink:href="#m4a129c1c24" x="95.472" y="108.365728" style="stroke: #000000; stroke-width: 0.5"/>
     <use xlink:href="#m4a129c1c24" x="110.16" y="105.045662" style="stroke: #000000; stroke-width: 0.5"/>
     <use xlink:href="#m4a129c1c24" x="124.848" y="108.28274" style="stroke: #000000; stroke-width: 0.5"/>
     <use xlink:href="#m4a129c1c24" x="139.536" y="110.43791" style="stroke: #000000; stroke-width: 0.5"/>
    </g>
   </g>
   <g id="line2d_10">
    <g clip-path="url(#p590d0f6f55)">
     <use xlink:href="#m4a129c1c24" x="36.72" y="99.192306" style="stroke: #000000; stroke-width: 0.5"/>
     <use xlink:href="#m4a129c1c24" x="42.5952" y="91.55641" style="stroke: #000000; stroke-width: 0.5"/>
     <use xlink:href="#m4a129c1c24" x="45.5328" y="76.104157" style="stroke: #000000; stroke-width: 0.5"/>
     <use xlink:href="#m4a129c1c24" x="57.2832" y="49.398574" style="stroke: #000000; stroke-width: 0.5"/>
     <use xlink:href="#m4a129c1c24" x="66.096" y="41.590516" style="stroke: #000000; stroke-width: 0.5"/>
     <use xlink:href="#m4a129c1c24" x="80.784" y="97.724967" style="stroke: #000000; stroke-width: 0.5"/>
     <use xlink:href="#m4a129c1c24" x="95.472" y="101.438817" style="stroke: #000000; stroke-width: 0.5"/>
     <use xlink:href="#m4a129c1c24" x="110.16" y="101.990809" style="stroke: #000000; stroke-width: 0.5"/>
     <use xlink:href="#m4a129c1c24" x="124.848" y="104.925114" style="stroke: #000000; stroke-width: 0.5"/>
     <use xlink:href="#m4a129c1c24" x="139.536" y="103.002484" style="stroke: #000000; stroke-width: 0.5"/>
    </g>
   </g>
   <g id="LineCollection_4">
    <path d="M 36.72 98.421617 
L 36.72 98.421617 
" clip-path="url(#p590d0f6f55)" style="fill: none; stroke: #000000; stroke-width: 0.5"/>
    <path d="M 42.5952 90.906739 
L 42.5952 90.810727 
" clip-path="url(#p590d0f6f55)" style="fill: none; stroke: #000000; stroke-width: 0.5"/>
    <path d="M 45.5328 76.834861 
L 45.5328 76.656698 
" clip-path="url(#p590d0f6f55)" style="fill: none; stroke: #000000; stroke-width: 0.5"/>
    <path d="M 57.2832 56.039885 
L 57.2832 56.021948 
" clip-path="url(#p590d0f6f55)" style="fill: none; stroke: #000000; stroke-width: 0.5"/>
    <path d="M 66.096 43.508581 
L 66.096 40.575159 
" clip-path="url(#p590d0f6f55)" style="fill: none; stroke: #000000; stroke-width: 0.5"/>
    <path d="M 80.784 93.310781 
L 80.784 76.279418 
" clip-path="url(#p590d0f6f55)" style="fill: none; stroke: #000000; stroke-width: 0.5"/>
    <path d="M 95.472 70.668872 
L 95.472 56.282069 
" clip-path="url(#p590d0f6f55)" style="fill: none; stroke: #000000; stroke-width: 0.5"/>
    <path d="M 110.16 38.672833 
L 110.16 26.543022 
" clip-path="url(#p590d0f6f55)" style="fill: none; stroke: #000000; stroke-width: 0.5"/>
    <path d="M 124.848 26.143721 
L 124.848 19.36141 
" clip-path="url(#p590d0f6f55)" style="fill: none; stroke: #000000; stroke-width: 0.5"/>
    <path d="M 139.536 38.194132 
L 139.536 16.34596 
" clip-path="url(#p590d0f6f55)" style="fill: none; stroke: #000000; stroke-width: 0.5"/>
   </g>
   <g id="line2d_11">
    <g clip-path="url(#p590d0f6f55)">
     <use xlink:href="#m4a129c1c24" x="36.72" y="98.421617" style="stroke: #000000; stroke-width: 0.5"/>
     <use xlink:href="#m4a129c1c24" x="42.5952" y="90.906739" style="stroke: #000000; stroke-width: 0.5"/>
     <use xlink:href="#m4a129c1c24" x="45.5328" y="76.834861" style="stroke: #000000; stroke-width: 0.5"/>
     <use xlink:href="#m4a129c1c24" x="57.2832" y="56.039885" style="stroke: #000000; stroke-width: 0.5"/>
     <use xlink:href="#m4a129c1c24" x="66.096" y="43.508581" style="stroke: #000000; stroke-width: 0.5"/>
     <use xlink:href="#m4a129c1c24" x="80.784" y="93.310781" style="stroke: #000000; stroke-width: 0.5"/>
     <use xlink:href="#m4a129c1c24" x="95.472" y="70.668872" style="stroke: #000000; stroke-width: 0.5"/>
     <use xlink:href="#m4a129c1c24" x="110.16" y="38.672833" style="stroke: #000000; stroke-width: 0.5"/>
     <use xlink:href="#m4a129c1c24" x="124.848" y="26.143721" style="stroke: #000000; stroke-width: 0.5"/>
     <use xlink:href="#m4a129c1c24" x="139.536" y="38.194132" style="stroke: #000000; stroke-width: 0.5"/>
    </g>
   </g>
   <g id="line2d_12">
    <g clip-path="url(#p590d0f6f55)">
     <use xlink:href="#m4a129c1c24" x="36.72" y="98.421617" style="stroke: #000000; stroke-width: 0.5"/>
     <use xlink:href="#m4a129c1c24" x="42.5952" y="90.810727" style="stroke: #000000; stroke-width: 0.5"/>
     <use xlink:href="#m4a129c1c24" x="45.5328" y="76.656698" style="stroke: #000000; stroke-width: 0.5"/>
     <use xlink:href="#m4a129c1c24" x="57.2832" y="56.021948" style="stroke: #000000; stroke-width: 0.5"/>
     <use xlink:href="#m4a129c1c24" x="66.096" y="40.575159" style="stroke: #000000; stroke-width: 0.5"/>
     <use xlink:href="#m4a129c1c24" x="80.784" y="76.279418" style="stroke: #000000; stroke-width: 0.5"/>
     <use xlink:href="#m4a129c1c24" x="95.472" y="56.282069" style="stroke: #000000; stroke-width: 0.5"/>
     <use xlink:href="#m4a129c1c24" x="110.16" y="26.543022" style="stroke: #000000; stroke-width: 0.5"/>
     <use xlink:href="#m4a129c1c24" x="124.848" y="19.36141" style="stroke: #000000; stroke-width: 0.5"/>
     <use xlink:href="#m4a129c1c24" x="139.536" y="16.34596" style="stroke: #000000; stroke-width: 0.5"/>
    </g>
   </g>
   <g id="LineCollection_5">
    <path d="M 36.72 97.43003 
L 36.72 97.43003 
" clip-path="url(#p590d0f6f55)" style="fill: none; stroke: #000000; stroke-width: 0.5"/>
    <path d="M 42.5952 89.409061 
L 42.5952 89.265204 
" clip-path="url(#p590d0f6f55)" style="fill: none; stroke: #000000; stroke-width: 0.5"/>
    <path d="M 45.5328 75.741411 
L 45.5328 75.588136 
" clip-path="url(#p590d0f6f55)" style="fill: none; stroke: #000000; stroke-width: 0.5"/>
    <path d="M 57.2832 54.44696 
L 57.2832 53.845351 
" clip-path="url(#p590d0f6f55)" style="fill: none; stroke: #000000; stroke-width: 0.5"/>
    <path d="M 66.096 39.441777 
L 66.096 26.530976 
" clip-path="url(#p590d0f6f55)" style="fill: none; stroke: #000000; stroke-width: 0.5"/>
    <path d="M 80.784 65.469855 
L 80.784 13.664042 
" clip-path="url(#p590d0f6f55)" style="fill: none; stroke: #000000; stroke-width: 0.5"/>
    <path d="M 95.472 48.45651 
L 95.472 8.200532 
" clip-path="url(#p590d0f6f55)" style="fill: none; stroke: #000000; stroke-width: 0.5"/>
    <path d="M 110.16 28.845181 
L 110.16 12.80372 
" clip-path="url(#p590d0f6f55)" style="fill: none; stroke: #000000; stroke-width: 0.5"/>
    <path d="M 124.848 22.212218 
L 124.848 14.344847 
" clip-path="url(#p590d0f6f55)" style="fill: none; stroke: #000000; stroke-width: 0.5"/>
    <path d="M 139.536 27.152637 
L 139.536 9.213263 
" clip-path="url(#p590d0f6f55)" style="fill: none; stroke: #000000; stroke-width: 0.5"/>
   </g>
   <g id="line2d_13">
    <g clip-path="url(#p590d0f6f55)">
     <use xlink:href="#m4a129c1c24" x="36.72" y="97.43003" style="stroke: #000000; stroke-width: 0.5"/>
     <use xlink:href="#m4a129c1c24" x="42.5952" y="89.409061" style="stroke: #000000; stroke-width: 0.5"/>
     <use xlink:href="#m4a129c1c24" x="45.5328" y="75.741411" style="stroke: #000000; stroke-width: 0.5"/>
     <use xlink:href="#m4a129c1c24" x="57.2832" y="54.44696" style="stroke: #000000; stroke-width: 0.5"/>
     <use xlink:href="#m4a129c1c24" x="66.096" y="39.441777" style="stroke: #000000; stroke-width: 0.5"/>
     <use xlink:href="#m4a129c1c24" x="80.784" y="65.469855" style="stroke: #000000; stroke-width: 0.5"/>
     <use xlink:href="#m4a129c1c24" x="95.472" y="48.45651" style="stroke: #000000; stroke-width: 0.5"/>
     <use xlink:href="#m4a129c1c24" x="110.16" y="28.845181" style="stroke: #000000; stroke-width: 0.5"/>
     <use xlink:href="#m4a129c1c24" x="124.848" y="22.212218" style="stroke: #000000; stroke-width: 0.5"/>
     <use xlink:href="#m4a129c1c24" x="139.536" y="27.152637" style="stroke: #000000; stroke-width: 0.5"/>
    </g>
   </g>
   <g id="line2d_14">
    <g clip-path="url(#p590d0f6f55)">
     <use xlink:href="#m4a129c1c24" x="36.72" y="97.43003" style="stroke: #000000; stroke-width: 0.5"/>
     <use xlink:href="#m4a129c1c24" x="42.5952" y="89.265204" style="stroke: #000000; stroke-width: 0.5"/>
     <use xlink:href="#m4a129c1c24" x="45.5328" y="75.588136" style="stroke: #000000; stroke-width: 0.5"/>
     <use xlink:href="#m4a129c1c24" x="57.2832" y="53.845351" style="stroke: #000000; stroke-width: 0.5"/>
     <use xlink:href="#m4a129c1c24" x="66.096" y="26.530976" style="stroke: #000000; stroke-width: 0.5"/>
     <use xlink:href="#m4a129c1c24" x="80.784" y="13.664042" style="stroke: #000000; stroke-width: 0.5"/>
     <use xlink:href="#m4a129c1c24" x="95.472" y="8.200532" style="stroke: #000000; stroke-width: 0.5"/>
     <use xlink:href="#m4a129c1c24" x="110.16" y="12.80372" style="stroke: #000000; stroke-width: 0.5"/>
     <use xlink:href="#m4a129c1c24" x="124.848" y="14.344847" style="stroke: #000000; stroke-width: 0.5"/>
     <use xlink:href="#m4a129c1c24" x="139.536" y="9.213263" style="stroke: #000000; stroke-width: 0.5"/>
    </g>
   </g>
   <g id="line2d_15">
    <path d="M 36.72 100.512786 
L 42.5952 95.71834 
L 45.5328 107.565457 
L 57.2832 115.754412 
L 66.096 116.248406 
L 80.784 116.27175 
L 95.472 116.278685 
L 110.16 116.271234 
L 124.848 116.269109 
L 139.536 116.278683 
" clip-path="url(#p590d0f6f55)" style="fill: none; stroke: #000000; stroke-width: 0.5; stroke-linecap: square"/>
   </g>
   <g id="line2d_16">
    <path d="M 36.72 99.614467 
L 42.5952 94.7741 
L 45.5328 106.256608 
L 57.2832 110.88708 
L 66.096 88.48643 
L 80.784 103.49343 
L 95.472 108.562272 
L 110.16 106.818914 
L 124.848 108.837122 
L 139.536 110.552029 
" clip-path="url(#p590d0f6f55)" style="fill: none; stroke: #000000; stroke-width: 0.5; stroke-linecap: square"/>
   </g>
   <g id="line2d_17">
    <path d="M 36.72 99.192306 
L 42.5952 91.649734 
L 45.5328 77.608205 
L 57.2832 56.262256 
L 66.096 44.015667 
L 80.784 99.773302 
L 95.472 104.902272 
L 110.16 103.518236 
L 124.848 106.603927 
L 139.536 106.720197 
" clip-path="url(#p590d0f6f55)" style="fill: none; stroke: #000000; stroke-width: 0.5; stroke-linecap: square"/>
   </g>
   <g id="line2d_18">
    <path d="M 36.72 98.421617 
L 42.5952 90.858733 
L 45.5328 76.745779 
L 57.2832 56.030916 
L 66.096 42.04187 
L 80.784 84.795099 
L 95.472 63.47547 
L 110.16 32.607927 
L 124.848 22.752566 
L 139.536 27.270046 
" clip-path="url(#p590d0f6f55)" style="fill: none; stroke: #000000; stroke-width: 0.5; stroke-linecap: square"/>
   </g>
   <g id="line2d_19">
    <path d="M 36.72 97.43003 
L 42.5952 89.337133 
L 45.5328 75.664774 
L 57.2832 54.146156 
L 66.096 32.986376 
L 80.784 39.566949 
L 95.472 28.328521 
L 110.16 20.824451 
L 124.848 18.278533 
L 139.536 18.18295 
" clip-path="url(#p590d0f6f55)" style="fill: none; stroke: #000000; stroke-width: 0.5; stroke-linecap: square"/>
   </g>
   <g id="patch_3">
    <path d="M 36.72 116.28 
L 36.72 17.784 
" style="fill: none; stroke: #000000; stroke-width: 0.8; stroke-linejoin: miter; stroke-linecap: square"/>
   </g>
   <g id="patch_4">
    <path d="M 139.536 116.28 
L 139.536 17.784 
" style="fill: none; stroke: #000000; stroke-width: 0.8; stroke-linejoin: miter; stroke-linecap: square"/>
   </g>
   <g id="patch_5">
    <path d="M 36.72 116.28 
L 139.536 116.28 
" style="fill: none; stroke: #000000; stroke-width: 0.8; stroke-linejoin: miter; stroke-linecap: square"/>
   </g>
   <g id="patch_6">
    <path d="M 36.72 17.784 
L 139.536 17.784 
" style="fill: none; stroke: #000000; stroke-width: 0.8; stroke-linejoin: miter; stroke-linecap: square"/>
   </g>
   <g id="text_7">
    <!-- no pulse -->
    <g transform="translate(60.908625 11.784) scale(0.144 -0.144)">
     <defs>
      <path id="Helvetica-6e" d="M 413 3347 
L 947 3347 
L 947 2872 
Q 1184 3166 1450 3294 
Q 1716 3422 2041 3422 
Q 2753 3422 3003 2925 
Q 3141 2653 3141 2147 
L 3141 0 
L 2569 0 
L 2569 2109 
Q 2569 2416 2478 2603 
Q 2328 2916 1934 2916 
Q 1734 2916 1606 2875 
Q 1375 2806 1200 2600 
Q 1059 2434 1017 2257 
Q 975 2081 975 1753 
L 975 0 
L 413 0 
L 413 3347 
z
M 1734 3428 
L 1734 3428 
z
" transform="scale(0.015625)"/>
      <path id="Helvetica-70" d="M 1825 378 
Q 2219 378 2480 708 
Q 2741 1038 2741 1694 
Q 2741 2094 2625 2381 
Q 2406 2934 1825 2934 
Q 1241 2934 1025 2350 
Q 909 2038 909 1556 
Q 909 1169 1025 897 
Q 1244 378 1825 378 
z
M 369 3331 
L 916 3331 
L 916 2888 
Q 1084 3116 1284 3241 
Q 1569 3428 1953 3428 
Q 2522 3428 2919 2992 
Q 3316 2556 3316 1747 
Q 3316 653 2744 184 
Q 2381 -113 1900 -113 
Q 1522 -113 1266 53 
Q 1116 147 931 375 
L 931 -1334 
L 369 -1334 
L 369 3331 
z
" transform="scale(0.015625)"/>
      <path id="Helvetica-75" d="M 975 3347 
L 975 1125 
Q 975 869 1056 706 
Q 1206 406 1616 406 
Q 2203 406 2416 931 
Q 2531 1213 2531 1703 
L 2531 3347 
L 3094 3347 
L 3094 0 
L 2563 0 
L 2569 494 
Q 2459 303 2297 172 
Q 1975 -91 1516 -91 
Q 800 -91 541 388 
Q 400 644 400 1072 
L 400 3347 
L 975 3347 
z
M 1747 3428 
L 1747 3428 
z
" transform="scale(0.015625)"/>
      <path id="Helvetica-6c" d="M 428 4591 
L 991 4591 
L 991 0 
L 428 0 
L 428 4591 
z
" transform="scale(0.015625)"/>
     </defs>
     <use xlink:href="#Helvetica-6e"/>
     <use xlink:href="#Helvetica-6f" x="55.615234"/>
     <use xlink:href="#Helvetica-20" x="111.230469"/>
     <use xlink:href="#Helvetica-70" x="139.013672"/>
     <use xlink:href="#Helvetica-75" x="194.628906"/>
     <use xlink:href="#Helvetica-6c" x="250.244141"/>
     <use xlink:href="#Helvetica-73" x="272.460938"/>
     <use xlink:href="#Helvetica-65" x="322.460938"/>
    </g>
   </g>
  </g>
 </g>
 <defs>
  <clipPath id="p590d0f6f55">
   <rect x="36.72" y="17.784" width="102.816" height="98.496"/>
  </clipPath>
 </defs>
</svg>
